%TF.GenerationSoftware,KiCad,Pcbnew,10.0.1*%
%TF.CreationDate,2026-05-08T14:51:46+05:30*%
%TF.ProjectId,X-Vision-HW-Panel,582d5669-7369-46f6-9e2d-48572d50616e,rev?*%
%TF.SameCoordinates,PX29f6300PY7de2900*%
%TF.FileFunction,Drillmap*%
%TF.FilePolarity,Positive*%
%FSLAX45Y45*%
G04 Gerber Fmt 4.5, Leading zero omitted, Abs format (unit mm)*
G04 Created by KiCad (PCBNEW 10.0.1) date 2026-05-08 14:51:46*
%MOMM*%
%LPD*%
G01*
G04 APERTURE LIST*
%ADD10C,0.050000*%
%ADD11C,0.200000*%
%ADD12C,0.100000*%
G04 APERTURE END LIST*
D10*
X0Y9700000D02*
G75*
G02*
X100000Y9800000I100000J0D01*
G01*
X0Y100000D02*
X0Y9700000D01*
X100000Y9800000D02*
X9700000Y9800000D01*
X100000Y0D02*
G75*
G02*
X0Y100000I0J100000D01*
G01*
X400000Y9300000D02*
X400000Y8350000D01*
X400000Y9300000D02*
G75*
G02*
X500000Y9400000I100000J0D01*
G01*
X400000Y8050000D02*
X400000Y6150000D01*
X400000Y5850000D02*
X400000Y3950000D01*
X400000Y3650000D02*
X400000Y1750000D01*
X400000Y1450000D02*
X400000Y500000D01*
X500000Y400000D02*
G75*
G02*
X400000Y500000I0J100000D01*
G01*
X500000Y400000D02*
X1450000Y400000D01*
X600000Y9100000D02*
G75*
G02*
X700000Y9200000I100000J0D01*
G01*
X600000Y8350000D02*
X400000Y8350000D01*
X600000Y8350000D02*
X600000Y9100000D01*
X600000Y8050000D02*
X400000Y8050000D01*
X600000Y7300000D02*
X600000Y8050000D01*
X600000Y6900000D02*
G75*
G02*
X700000Y7000000I100000J0D01*
G01*
X600000Y6150000D02*
X400000Y6150000D01*
X600000Y6150000D02*
X600000Y6900000D01*
X600000Y5850000D02*
X400000Y5850000D01*
X600000Y5100000D02*
X600000Y5850000D01*
X600000Y4700000D02*
G75*
G02*
X700000Y4800000I100000J0D01*
G01*
X600000Y3950000D02*
X400000Y3950000D01*
X600000Y3950000D02*
X600000Y4700000D01*
X600000Y3650000D02*
X400000Y3650000D01*
X600000Y2900000D02*
X600000Y3650000D01*
X600000Y2500000D02*
G75*
G02*
X700000Y2600000I100000J0D01*
G01*
X600000Y1750000D02*
X400000Y1750000D01*
X600000Y1750000D02*
X600000Y2500000D01*
X600000Y1450000D02*
X400000Y1450000D01*
X600000Y700000D02*
X600000Y1450000D01*
X700000Y9200000D02*
X1450000Y9200000D01*
X700000Y7200000D02*
G75*
G02*
X600000Y7300000I0J100000D01*
G01*
X700000Y7000000D02*
X1450000Y7000000D01*
X700000Y5000000D02*
G75*
G02*
X600000Y5100000I0J100000D01*
G01*
X700000Y4800000D02*
X1450000Y4800000D01*
X700000Y2800000D02*
G75*
G02*
X600000Y2900000I0J100000D01*
G01*
X700000Y2600000D02*
X1450000Y2600000D01*
X700000Y600000D02*
G75*
G02*
X600000Y700000I0J100000D01*
G01*
X1450000Y9400000D02*
X500000Y9400000D01*
X1450000Y9200000D02*
X1450000Y9400000D01*
X1450000Y7200000D02*
X700000Y7200000D01*
X1450000Y7000000D02*
X1450000Y7200000D01*
X1450000Y5000000D02*
X700000Y5000000D01*
X1450000Y4800000D02*
X1450000Y5000000D01*
X1450000Y2800000D02*
X700000Y2800000D01*
X1450000Y2600000D02*
X1450000Y2800000D01*
X1450000Y600000D02*
X700000Y600000D01*
X1450000Y600000D02*
X1450000Y400000D01*
X1750000Y9200000D02*
X1750000Y9400000D01*
X1750000Y9200000D02*
X2500000Y9200000D01*
X1750000Y7000000D02*
X1750000Y7200000D01*
X1750000Y7000000D02*
X2500000Y7000000D01*
X1750000Y4800000D02*
X1750000Y5000000D01*
X1750000Y4800000D02*
X2500000Y4800000D01*
X1750000Y2600000D02*
X1750000Y2800000D01*
X1750000Y2600000D02*
X2500000Y2600000D01*
X1750000Y600000D02*
X1750000Y400000D01*
X1750000Y400000D02*
X3650000Y400000D01*
X2500000Y9200000D02*
G75*
G02*
X2600000Y9100000I0J-100000D01*
G01*
X2500000Y7200000D02*
X1750000Y7200000D01*
X2500000Y7000000D02*
G75*
G02*
X2600000Y6900000I0J-100000D01*
G01*
X2500000Y5000000D02*
X1750000Y5000000D01*
X2500000Y4800000D02*
G75*
G02*
X2600000Y4700000I0J-100000D01*
G01*
X2500000Y2800000D02*
X1750000Y2800000D01*
X2500000Y2600000D02*
G75*
G02*
X2600000Y2500000I0J-100000D01*
G01*
X2500000Y600000D02*
X1750000Y600000D01*
X2600000Y9100000D02*
X2600000Y8350000D01*
X2600000Y8350000D02*
X2800000Y8350000D01*
X2600000Y8050000D02*
X2600000Y7300000D01*
X2600000Y7300000D02*
G75*
G02*
X2500000Y7200000I-100000J0D01*
G01*
X2600000Y6900000D02*
X2600000Y6150000D01*
X2600000Y6150000D02*
X2800000Y6150000D01*
X2600000Y5850000D02*
X2600000Y5100000D01*
X2600000Y5100000D02*
G75*
G02*
X2500000Y5000000I-100000J0D01*
G01*
X2600000Y4700000D02*
X2600000Y3950000D01*
X2600000Y3950000D02*
X2800000Y3950000D01*
X2600000Y3650000D02*
X2600000Y2900000D01*
X2600000Y2900000D02*
G75*
G02*
X2500000Y2800000I-100000J0D01*
G01*
X2600000Y2500000D02*
X2600000Y1750000D01*
X2600000Y1750000D02*
X2800000Y1750000D01*
X2600000Y1450000D02*
X2600000Y700000D01*
X2600000Y700000D02*
G75*
G02*
X2500000Y600000I-100000J0D01*
G01*
X2800000Y9100000D02*
G75*
G02*
X2900000Y9200000I100000J0D01*
G01*
X2800000Y8350000D02*
X2800000Y9100000D01*
X2800000Y8050000D02*
X2600000Y8050000D01*
X2800000Y7300000D02*
X2800000Y8050000D01*
X2800000Y6900000D02*
G75*
G02*
X2900000Y7000000I100000J0D01*
G01*
X2800000Y6150000D02*
X2800000Y6900000D01*
X2800000Y5850000D02*
X2600000Y5850000D01*
X2800000Y5100000D02*
X2800000Y5850000D01*
X2800000Y4700000D02*
G75*
G02*
X2900000Y4800000I100000J0D01*
G01*
X2800000Y3950000D02*
X2800000Y4700000D01*
X2800000Y3650000D02*
X2600000Y3650000D01*
X2800000Y2900000D02*
X2800000Y3650000D01*
X2800000Y2500000D02*
G75*
G02*
X2900000Y2600000I100000J0D01*
G01*
X2800000Y1750000D02*
X2800000Y2500000D01*
X2800000Y1450000D02*
X2600000Y1450000D01*
X2800000Y700000D02*
X2800000Y1450000D01*
X2900000Y9200000D02*
X3650000Y9200000D01*
X2900000Y7200000D02*
G75*
G02*
X2800000Y7300000I0J100000D01*
G01*
X2900000Y7000000D02*
X3650000Y7000000D01*
X2900000Y5000000D02*
G75*
G02*
X2800000Y5100000I0J100000D01*
G01*
X2900000Y4800000D02*
X3650000Y4800000D01*
X2900000Y2800000D02*
G75*
G02*
X2800000Y2900000I0J100000D01*
G01*
X2900000Y2600000D02*
X3650000Y2600000D01*
X2900000Y600000D02*
G75*
G02*
X2800000Y700000I0J100000D01*
G01*
X3650000Y9400000D02*
X1750000Y9400000D01*
X3650000Y9200000D02*
X3650000Y9400000D01*
X3650000Y7200000D02*
X2900000Y7200000D01*
X3650000Y7000000D02*
X3650000Y7200000D01*
X3650000Y5000000D02*
X2900000Y5000000D01*
X3650000Y4800000D02*
X3650000Y5000000D01*
X3650000Y2800000D02*
X2900000Y2800000D01*
X3650000Y2600000D02*
X3650000Y2800000D01*
X3650000Y600000D02*
X2900000Y600000D01*
X3650000Y600000D02*
X3650000Y400000D01*
X3950000Y9200000D02*
X3950000Y9400000D01*
X3950000Y9200000D02*
X4700000Y9200000D01*
X3950000Y7000000D02*
X3950000Y7200000D01*
X3950000Y7000000D02*
X4700000Y7000000D01*
X3950000Y4800000D02*
X3950000Y5000000D01*
X3950000Y4800000D02*
X4700000Y4800000D01*
X3950000Y2600000D02*
X3950000Y2800000D01*
X3950000Y2600000D02*
X4700000Y2600000D01*
X3950000Y600000D02*
X3950000Y400000D01*
X3950000Y400000D02*
X5850000Y400000D01*
X4700000Y9200000D02*
G75*
G02*
X4800000Y9100000I0J-100000D01*
G01*
X4700000Y7200000D02*
X3950000Y7200000D01*
X4700000Y7000000D02*
G75*
G02*
X4800000Y6900000I0J-100000D01*
G01*
X4700000Y5000000D02*
X3950000Y5000000D01*
X4700000Y4800000D02*
G75*
G02*
X4800000Y4700000I0J-100000D01*
G01*
X4700000Y2800000D02*
X3950000Y2800000D01*
X4700000Y2600000D02*
G75*
G02*
X4800000Y2500000I0J-100000D01*
G01*
X4700000Y600000D02*
X3950000Y600000D01*
X4800000Y9100000D02*
X4800000Y8350000D01*
X4800000Y8350000D02*
X5000000Y8350000D01*
X4800000Y8050000D02*
X4800000Y7300000D01*
X4800000Y7300000D02*
G75*
G02*
X4700000Y7200000I-100000J0D01*
G01*
X4800000Y6900000D02*
X4800000Y6150000D01*
X4800000Y6150000D02*
X5000000Y6150000D01*
X4800000Y5850000D02*
X4800000Y5100000D01*
X4800000Y5100000D02*
G75*
G02*
X4700000Y5000000I-100000J0D01*
G01*
X4800000Y4700000D02*
X4800000Y3950000D01*
X4800000Y3950000D02*
X5000000Y3950000D01*
X4800000Y3650000D02*
X4800000Y2900000D01*
X4800000Y2900000D02*
G75*
G02*
X4700000Y2800000I-100000J0D01*
G01*
X4800000Y2500000D02*
X4800000Y1750000D01*
X4800000Y1750000D02*
X5000000Y1750000D01*
X4800000Y1450000D02*
X4800000Y700000D01*
X4800000Y700000D02*
G75*
G02*
X4700000Y600000I-100000J0D01*
G01*
X5000000Y9100000D02*
G75*
G02*
X5100000Y9200000I100000J0D01*
G01*
X5000000Y8350000D02*
X5000000Y9100000D01*
X5000000Y8050000D02*
X4800000Y8050000D01*
X5000000Y7300000D02*
X5000000Y8050000D01*
X5000000Y6900000D02*
G75*
G02*
X5100000Y7000000I100000J0D01*
G01*
X5000000Y6150000D02*
X5000000Y6900000D01*
X5000000Y5850000D02*
X4800000Y5850000D01*
X5000000Y5100000D02*
X5000000Y5850000D01*
X5000000Y4700000D02*
G75*
G02*
X5100000Y4800000I100000J0D01*
G01*
X5000000Y3950000D02*
X5000000Y4700000D01*
X5000000Y3650000D02*
X4800000Y3650000D01*
X5000000Y2900000D02*
X5000000Y3650000D01*
X5000000Y2500000D02*
G75*
G02*
X5100000Y2600000I100000J0D01*
G01*
X5000000Y1750000D02*
X5000000Y2500000D01*
X5000000Y1450000D02*
X4800000Y1450000D01*
X5000000Y700000D02*
X5000000Y1450000D01*
X5100000Y9200000D02*
X5850000Y9200000D01*
X5100000Y7200000D02*
G75*
G02*
X5000000Y7300000I0J100000D01*
G01*
X5100000Y7000000D02*
X5850000Y7000000D01*
X5100000Y5000000D02*
G75*
G02*
X5000000Y5100000I0J100000D01*
G01*
X5100000Y4800000D02*
X5850000Y4800000D01*
X5100000Y2800000D02*
G75*
G02*
X5000000Y2900000I0J100000D01*
G01*
X5100000Y2600000D02*
X5850000Y2600000D01*
X5100000Y600000D02*
G75*
G02*
X5000000Y700000I0J100000D01*
G01*
X5850000Y9400000D02*
X3950000Y9400000D01*
X5850000Y9200000D02*
X5850000Y9400000D01*
X5850000Y7200000D02*
X5100000Y7200000D01*
X5850000Y7000000D02*
X5850000Y7200000D01*
X5850000Y5000000D02*
X5100000Y5000000D01*
X5850000Y4800000D02*
X5850000Y5000000D01*
X5850000Y2800000D02*
X5100000Y2800000D01*
X5850000Y2600000D02*
X5850000Y2800000D01*
X5850000Y600000D02*
X5100000Y600000D01*
X5850000Y600000D02*
X5850000Y400000D01*
X6150000Y9200000D02*
X6150000Y9400000D01*
X6150000Y9200000D02*
X6900000Y9200000D01*
X6150000Y7000000D02*
X6150000Y7200000D01*
X6150000Y7000000D02*
X6900000Y7000000D01*
X6150000Y4800000D02*
X6150000Y5000000D01*
X6150000Y4800000D02*
X6900000Y4800000D01*
X6150000Y2600000D02*
X6150000Y2800000D01*
X6150000Y2600000D02*
X6900000Y2600000D01*
X6150000Y600000D02*
X6150000Y400000D01*
X6150000Y400000D02*
X8050000Y400000D01*
X6900000Y9200000D02*
G75*
G02*
X7000000Y9100000I0J-100000D01*
G01*
X6900000Y7200000D02*
X6150000Y7200000D01*
X6900000Y7000000D02*
G75*
G02*
X7000000Y6900000I0J-100000D01*
G01*
X6900000Y5000000D02*
X6150000Y5000000D01*
X6900000Y4800000D02*
G75*
G02*
X7000000Y4700000I0J-100000D01*
G01*
X6900000Y2800000D02*
X6150000Y2800000D01*
X6900000Y2600000D02*
G75*
G02*
X7000000Y2500000I0J-100000D01*
G01*
X6900000Y600000D02*
X6150000Y600000D01*
X7000000Y9100000D02*
X7000000Y8350000D01*
X7000000Y8350000D02*
X7200000Y8350000D01*
X7000000Y8050000D02*
X7000000Y7300000D01*
X7000000Y7300000D02*
G75*
G02*
X6900000Y7200000I-100000J0D01*
G01*
X7000000Y6900000D02*
X7000000Y6150000D01*
X7000000Y6150000D02*
X7200000Y6150000D01*
X7000000Y5850000D02*
X7000000Y5100000D01*
X7000000Y5100000D02*
G75*
G02*
X6900000Y5000000I-100000J0D01*
G01*
X7000000Y4700000D02*
X7000000Y3950000D01*
X7000000Y3950000D02*
X7200000Y3950000D01*
X7000000Y3650000D02*
X7000000Y2900000D01*
X7000000Y2900000D02*
G75*
G02*
X6900000Y2800000I-100000J0D01*
G01*
X7000000Y2500000D02*
X7000000Y1750000D01*
X7000000Y1750000D02*
X7200000Y1750000D01*
X7000000Y1450000D02*
X7000000Y700000D01*
X7000000Y700000D02*
G75*
G02*
X6900000Y600000I-100000J0D01*
G01*
X7200000Y9100000D02*
G75*
G02*
X7300000Y9200000I100000J0D01*
G01*
X7200000Y8350000D02*
X7200000Y9100000D01*
X7200000Y8050000D02*
X7000000Y8050000D01*
X7200000Y7300000D02*
X7200000Y8050000D01*
X7200000Y6900000D02*
G75*
G02*
X7300000Y7000000I100000J0D01*
G01*
X7200000Y6150000D02*
X7200000Y6900000D01*
X7200000Y5850000D02*
X7000000Y5850000D01*
X7200000Y5100000D02*
X7200000Y5850000D01*
X7200000Y4700000D02*
G75*
G02*
X7300000Y4800000I100000J0D01*
G01*
X7200000Y3950000D02*
X7200000Y4700000D01*
X7200000Y3650000D02*
X7000000Y3650000D01*
X7200000Y2900000D02*
X7200000Y3650000D01*
X7200000Y2500000D02*
G75*
G02*
X7300000Y2600000I100000J0D01*
G01*
X7200000Y1750000D02*
X7200000Y2500000D01*
X7200000Y1450000D02*
X7000000Y1450000D01*
X7200000Y700000D02*
X7200000Y1450000D01*
X7300000Y9200000D02*
X8050000Y9200000D01*
X7300000Y7200000D02*
G75*
G02*
X7200000Y7300000I0J100000D01*
G01*
X7300000Y7000000D02*
X8050000Y7000000D01*
X7300000Y5000000D02*
G75*
G02*
X7200000Y5100000I0J100000D01*
G01*
X7300000Y4800000D02*
X8050000Y4800000D01*
X7300000Y2800000D02*
G75*
G02*
X7200000Y2900000I0J100000D01*
G01*
X7300000Y2600000D02*
X8050000Y2600000D01*
X7300000Y600000D02*
G75*
G02*
X7200000Y700000I0J100000D01*
G01*
X8050000Y9400000D02*
X6150000Y9400000D01*
X8050000Y9200000D02*
X8050000Y9400000D01*
X8050000Y7200000D02*
X7300000Y7200000D01*
X8050000Y7000000D02*
X8050000Y7200000D01*
X8050000Y5000000D02*
X7300000Y5000000D01*
X8050000Y4800000D02*
X8050000Y5000000D01*
X8050000Y2800000D02*
X7300000Y2800000D01*
X8050000Y2600000D02*
X8050000Y2800000D01*
X8050000Y600000D02*
X7300000Y600000D01*
X8050000Y600000D02*
X8050000Y400000D01*
X8350000Y9200000D02*
X8350000Y9400000D01*
X8350000Y9200000D02*
X9100000Y9200000D01*
X8350000Y7000000D02*
X8350000Y7200000D01*
X8350000Y7000000D02*
X9100000Y7000000D01*
X8350000Y4800000D02*
X8350000Y5000000D01*
X8350000Y4800000D02*
X9100000Y4800000D01*
X8350000Y2600000D02*
X8350000Y2800000D01*
X8350000Y2600000D02*
X9100000Y2600000D01*
X8350000Y600000D02*
X8350000Y400000D01*
X8350000Y400000D02*
X9300000Y400000D01*
X9100000Y9200000D02*
G75*
G02*
X9200000Y9100000I0J-100000D01*
G01*
X9100000Y7200000D02*
X8350000Y7200000D01*
X9100000Y7000000D02*
G75*
G02*
X9200000Y6900000I0J-100000D01*
G01*
X9100000Y5000000D02*
X8350000Y5000000D01*
X9100000Y4800000D02*
G75*
G02*
X9200000Y4700000I0J-100000D01*
G01*
X9100000Y2800000D02*
X8350000Y2800000D01*
X9100000Y2600000D02*
G75*
G02*
X9200000Y2500000I0J-100000D01*
G01*
X9100000Y600000D02*
X8350000Y600000D01*
X9200000Y9100000D02*
X9200000Y8350000D01*
X9200000Y8350000D02*
X9400000Y8350000D01*
X9200000Y8050000D02*
X9200000Y7300000D01*
X9200000Y8050000D02*
X9400000Y8050000D01*
X9200000Y7300000D02*
G75*
G02*
X9100000Y7200000I-100000J0D01*
G01*
X9200000Y6900000D02*
X9200000Y6150000D01*
X9200000Y6150000D02*
X9400000Y6150000D01*
X9200000Y5850000D02*
X9200000Y5100000D01*
X9200000Y5850000D02*
X9400000Y5850000D01*
X9200000Y5100000D02*
G75*
G02*
X9100000Y5000000I-100000J0D01*
G01*
X9200000Y4700000D02*
X9200000Y3950000D01*
X9200000Y3950000D02*
X9400000Y3950000D01*
X9200000Y3650000D02*
X9200000Y2900000D01*
X9200000Y3650000D02*
X9400000Y3650000D01*
X9200000Y2900000D02*
G75*
G02*
X9100000Y2800000I-100000J0D01*
G01*
X9200000Y2500000D02*
X9200000Y1750000D01*
X9200000Y1750000D02*
X9400000Y1750000D01*
X9200000Y1450000D02*
X9200000Y700000D01*
X9200000Y1450000D02*
X9400000Y1450000D01*
X9200000Y700000D02*
G75*
G02*
X9100000Y600000I-100000J0D01*
G01*
X9300000Y9400000D02*
X8350000Y9400000D01*
X9300000Y9400000D02*
G75*
G02*
X9400000Y9300000I0J-100000D01*
G01*
X9400000Y8350000D02*
X9400000Y9300000D01*
X9400000Y6150000D02*
X9400000Y8050000D01*
X9400000Y3950000D02*
X9400000Y5850000D01*
X9400000Y1750000D02*
X9400000Y3650000D01*
X9400000Y1450000D02*
X9400000Y500000D01*
X9400000Y500000D02*
G75*
G02*
X9300000Y400000I-100000J0D01*
G01*
X9700000Y9800000D02*
G75*
G02*
X9800000Y9700000I0J-100000D01*
G01*
X9700000Y0D02*
X100000Y0D01*
X9800000Y9700000D02*
X9800000Y100000D01*
X9800000Y100000D02*
G75*
G02*
X9700000Y0I-100000J0D01*
G01*
D11*
D12*
X633309Y6811430D02*
X656169Y6788570D01*
X656169Y6811430D02*
X633309Y6788570D01*
X633309Y6611430D02*
X656169Y6588570D01*
X656169Y6611430D02*
X633309Y6588570D01*
X633309Y6411430D02*
X656169Y6388570D01*
X656169Y6411430D02*
X633309Y6388570D01*
X633309Y6211430D02*
X656169Y6188570D01*
X656169Y6211430D02*
X633309Y6188570D01*
X633309Y6011430D02*
X656169Y5988570D01*
X656169Y6011430D02*
X633309Y5988570D01*
X633309Y5811430D02*
X656169Y5788570D01*
X656169Y5811430D02*
X633309Y5788570D01*
X633309Y5611430D02*
X656169Y5588570D01*
X656169Y5611430D02*
X633309Y5588570D01*
X633309Y5411430D02*
X656169Y5388570D01*
X656169Y5411430D02*
X633309Y5388570D01*
X633309Y5211430D02*
X656169Y5188570D01*
X656169Y5211430D02*
X633309Y5188570D01*
X638570Y2411430D02*
X661430Y2388570D01*
X661430Y2411430D02*
X638570Y2388570D01*
X638570Y2211430D02*
X661430Y2188570D01*
X661430Y2211430D02*
X638570Y2188570D01*
X638570Y2011430D02*
X661430Y1988570D01*
X661430Y2011430D02*
X638570Y1988570D01*
X638570Y1811430D02*
X661430Y1788570D01*
X661430Y1811430D02*
X638570Y1788570D01*
X638570Y1611430D02*
X661430Y1588570D01*
X661430Y1611430D02*
X638570Y1588570D01*
X638570Y1411430D02*
X661430Y1388570D01*
X661430Y1411430D02*
X638570Y1388570D01*
X638570Y1211430D02*
X661430Y1188570D01*
X661430Y1211430D02*
X638570Y1188570D01*
X638570Y1011430D02*
X661430Y988570D01*
X661430Y1011430D02*
X638570Y988570D01*
X638570Y811430D02*
X661430Y788570D01*
X661430Y811430D02*
X638570Y788570D01*
X640570Y4613430D02*
X663430Y4590570D01*
X663430Y4613430D02*
X640570Y4590570D01*
X640570Y4413430D02*
X663430Y4390570D01*
X663430Y4413430D02*
X640570Y4390570D01*
X640570Y4213430D02*
X663430Y4190570D01*
X663430Y4213430D02*
X640570Y4190570D01*
X640570Y4013430D02*
X663430Y3990570D01*
X663430Y4013430D02*
X640570Y3990570D01*
X640570Y3813430D02*
X663430Y3790570D01*
X663430Y3813430D02*
X640570Y3790570D01*
X640570Y3613430D02*
X663430Y3590570D01*
X663430Y3613430D02*
X640570Y3590570D01*
X640570Y3413430D02*
X663430Y3390570D01*
X663430Y3413430D02*
X640570Y3390570D01*
X640570Y3213430D02*
X663430Y3190570D01*
X663430Y3213430D02*
X640570Y3190570D01*
X640570Y3013430D02*
X663430Y2990570D01*
X663430Y3013430D02*
X640570Y2990570D01*
X646445Y9015430D02*
X669305Y8992570D01*
X669305Y9015430D02*
X646445Y8992570D01*
X646445Y8815430D02*
X669305Y8792570D01*
X669305Y8815430D02*
X646445Y8792570D01*
X646445Y8615430D02*
X669305Y8592570D01*
X669305Y8615430D02*
X646445Y8592570D01*
X646445Y8415430D02*
X669305Y8392570D01*
X669305Y8415430D02*
X646445Y8392570D01*
X646445Y8215430D02*
X669305Y8192570D01*
X669305Y8215430D02*
X646445Y8192570D01*
X646445Y8015430D02*
X669305Y7992570D01*
X669305Y8015430D02*
X646445Y7992570D01*
X646445Y7815430D02*
X669305Y7792570D01*
X669305Y7815430D02*
X646445Y7792570D01*
X646445Y7615430D02*
X669305Y7592570D01*
X669305Y7615430D02*
X646445Y7592570D01*
X646445Y7415430D02*
X669305Y7392570D01*
X669305Y7415430D02*
X646445Y7392570D01*
X705309Y6298430D02*
X728169Y6275570D01*
X728169Y6298430D02*
X705309Y6275570D01*
X710570Y1898430D02*
X733430Y1875570D01*
X733430Y1898430D02*
X710570Y1875570D01*
X712570Y4100430D02*
X735430Y4077570D01*
X735430Y4100430D02*
X712570Y4077570D01*
X718445Y8502430D02*
X741305Y8479570D01*
X741305Y8502430D02*
X718445Y8479570D01*
X783309Y6961430D02*
X806169Y6938570D01*
X806169Y6961430D02*
X783309Y6938570D01*
X783309Y5061430D02*
X806169Y5038570D01*
X806169Y5061430D02*
X783309Y5038570D01*
X788570Y2561430D02*
X811430Y2538570D01*
X811430Y2561430D02*
X788570Y2538570D01*
X788570Y661430D02*
X811430Y638570D01*
X811430Y661430D02*
X788570Y638570D01*
X790570Y4763430D02*
X813430Y4740570D01*
X813430Y4763430D02*
X790570Y4740570D01*
X790570Y2863430D02*
X813430Y2840570D01*
X813430Y2863430D02*
X790570Y2840570D01*
X796445Y9165430D02*
X819305Y9142570D01*
X819305Y9165430D02*
X796445Y9142570D01*
X796445Y7265430D02*
X819305Y7242570D01*
X819305Y7265430D02*
X796445Y7242570D01*
X983309Y6961430D02*
X1006169Y6938570D01*
X1006169Y6961430D02*
X983309Y6938570D01*
X983309Y5061430D02*
X1006169Y5038570D01*
X1006169Y5061430D02*
X983309Y5038570D01*
X988570Y2561430D02*
X1011430Y2538570D01*
X1011430Y2561430D02*
X988570Y2538570D01*
X988570Y661430D02*
X1011430Y638570D01*
X1011430Y661430D02*
X988570Y638570D01*
X990570Y4763430D02*
X1013430Y4740570D01*
X1013430Y4763430D02*
X990570Y4740570D01*
X990570Y2863430D02*
X1013430Y2840570D01*
X1013430Y2863430D02*
X990570Y2840570D01*
X996445Y9165430D02*
X1019305Y9142570D01*
X1019305Y9165430D02*
X996445Y9142570D01*
X996445Y7265430D02*
X1019305Y7242570D01*
X1019305Y7265430D02*
X996445Y7242570D01*
X1057624Y6223745D02*
X1080484Y6200885D01*
X1080484Y6223745D02*
X1057624Y6200885D01*
X1062885Y1823745D02*
X1085745Y1800885D01*
X1085745Y1823745D02*
X1062885Y1800885D01*
X1064885Y4025745D02*
X1087745Y4002885D01*
X1087745Y4025745D02*
X1064885Y4002885D01*
X1070760Y8427745D02*
X1093620Y8404885D01*
X1093620Y8427745D02*
X1070760Y8404885D01*
X1140829Y6179136D02*
X1163689Y6156276D01*
X1163689Y6179136D02*
X1140829Y6156276D01*
X1146090Y1779136D02*
X1168950Y1756276D01*
X1168950Y1779136D02*
X1146090Y1756276D01*
X1148090Y3981136D02*
X1170950Y3958276D01*
X1170950Y3981136D02*
X1148090Y3958276D01*
X1153966Y8383136D02*
X1176826Y8360276D01*
X1176826Y8383136D02*
X1153966Y8360276D01*
X1171599Y5785430D02*
X1194459Y5762570D01*
X1194459Y5785430D02*
X1171599Y5762570D01*
X1171782Y5969376D02*
X1194642Y5946516D01*
X1194642Y5969376D02*
X1171782Y5946516D01*
X1176860Y1385430D02*
X1199720Y1362570D01*
X1199720Y1385430D02*
X1176860Y1362570D01*
X1177043Y1569376D02*
X1199903Y1546516D01*
X1199903Y1569376D02*
X1177043Y1546516D01*
X1178860Y3587430D02*
X1201720Y3564570D01*
X1201720Y3587430D02*
X1178860Y3564570D01*
X1179043Y3771376D02*
X1201903Y3748516D01*
X1201903Y3771376D02*
X1179043Y3748516D01*
X1183309Y6961430D02*
X1206169Y6938570D01*
X1206169Y6961430D02*
X1183309Y6938570D01*
X1183309Y5061430D02*
X1206169Y5038570D01*
X1206169Y5061430D02*
X1183309Y5038570D01*
X1184735Y7989430D02*
X1207595Y7966570D01*
X1207595Y7989430D02*
X1184735Y7966570D01*
X1184918Y8173376D02*
X1207778Y8150516D01*
X1207778Y8173376D02*
X1184918Y8150516D01*
X1188570Y2561430D02*
X1211430Y2538570D01*
X1211430Y2561430D02*
X1188570Y2538570D01*
X1188570Y661430D02*
X1211430Y638570D01*
X1211430Y661430D02*
X1188570Y638570D01*
X1189309Y6257430D02*
X1212169Y6234570D01*
X1212169Y6257430D02*
X1189309Y6234570D01*
X1190570Y4763430D02*
X1213430Y4740570D01*
X1213430Y4763430D02*
X1190570Y4740570D01*
X1190570Y2863430D02*
X1213430Y2840570D01*
X1213430Y2863430D02*
X1190570Y2840570D01*
X1194309Y6622430D02*
X1217169Y6599570D01*
X1217169Y6622430D02*
X1194309Y6599570D01*
X1194570Y1857430D02*
X1217430Y1834570D01*
X1217430Y1857430D02*
X1194570Y1834570D01*
X1196445Y9165430D02*
X1219305Y9142570D01*
X1219305Y9165430D02*
X1196445Y9142570D01*
X1196445Y7265430D02*
X1219305Y7242570D01*
X1219305Y7265430D02*
X1196445Y7242570D01*
X1196570Y4059430D02*
X1219430Y4036570D01*
X1219430Y4059430D02*
X1196570Y4036570D01*
X1199534Y6324920D02*
X1222394Y6302060D01*
X1222394Y6324920D02*
X1199534Y6302060D01*
X1199570Y2222430D02*
X1222430Y2199570D01*
X1222430Y2222430D02*
X1199570Y2199570D01*
X1201570Y4424430D02*
X1224430Y4401570D01*
X1224430Y4424430D02*
X1201570Y4401570D01*
X1202445Y8461430D02*
X1225305Y8438570D01*
X1225305Y8461430D02*
X1202445Y8438570D01*
X1204796Y1924920D02*
X1227656Y1902060D01*
X1227656Y1924920D02*
X1204796Y1902060D01*
X1206796Y4126920D02*
X1229656Y4104060D01*
X1229656Y4126920D02*
X1206796Y4104060D01*
X1207445Y8826430D02*
X1230305Y8803570D01*
X1230305Y8826430D02*
X1207445Y8803570D01*
X1207809Y6035930D02*
X1230669Y6013070D01*
X1230669Y6035930D02*
X1207809Y6013070D01*
X1212671Y8528920D02*
X1235531Y8506060D01*
X1235531Y8528920D02*
X1212671Y8506060D01*
X1213070Y1635930D02*
X1235930Y1613070D01*
X1235930Y1635930D02*
X1213070Y1613070D01*
X1215070Y3837930D02*
X1237930Y3815070D01*
X1237930Y3837930D02*
X1215070Y3815070D01*
X1220945Y8239930D02*
X1243805Y8217070D01*
X1243805Y8239930D02*
X1220945Y8217070D01*
X1231309Y5724430D02*
X1254169Y5701570D01*
X1254169Y5724430D02*
X1231309Y5701570D01*
X1236570Y1324430D02*
X1259430Y1301570D01*
X1259430Y1324430D02*
X1236570Y1301570D01*
X1238570Y3526430D02*
X1261430Y3503570D01*
X1261430Y3526430D02*
X1238570Y3503570D01*
X1239309Y5852430D02*
X1262169Y5829570D01*
X1262169Y5852430D02*
X1239309Y5829570D01*
X1243309Y6830430D02*
X1266169Y6807570D01*
X1266169Y6830430D02*
X1243309Y6807570D01*
X1244445Y7928430D02*
X1267305Y7905570D01*
X1267305Y7928430D02*
X1244445Y7905570D01*
X1244570Y1452430D02*
X1267430Y1429570D01*
X1267430Y1452430D02*
X1244570Y1429570D01*
X1246570Y3654430D02*
X1269430Y3631570D01*
X1269430Y3654430D02*
X1246570Y3631570D01*
X1248570Y2430430D02*
X1271430Y2407570D01*
X1271430Y2430430D02*
X1248570Y2407570D01*
X1250570Y4632430D02*
X1273430Y4609570D01*
X1273430Y4632430D02*
X1250570Y4609570D01*
X1252445Y8056430D02*
X1275305Y8033570D01*
X1275305Y8056430D02*
X1252445Y8033570D01*
X1256445Y9034430D02*
X1279305Y9011570D01*
X1279305Y9034430D02*
X1256445Y9011570D01*
X1297309Y6425430D02*
X1320169Y6402570D01*
X1320169Y6425430D02*
X1297309Y6402570D01*
X1302570Y2025430D02*
X1325430Y2002570D01*
X1325430Y2025430D02*
X1302570Y2002570D01*
X1304570Y4227430D02*
X1327430Y4204570D01*
X1327430Y4227430D02*
X1304570Y4204570D01*
X1310445Y8629430D02*
X1333305Y8606570D01*
X1333305Y8629430D02*
X1310445Y8606570D01*
X1383309Y6961430D02*
X1406169Y6938570D01*
X1406169Y6961430D02*
X1383309Y6938570D01*
X1383309Y5061430D02*
X1406169Y5038570D01*
X1406169Y5061430D02*
X1383309Y5038570D01*
X1388570Y2561430D02*
X1411430Y2538570D01*
X1411430Y2561430D02*
X1388570Y2538570D01*
X1388570Y661430D02*
X1411430Y638570D01*
X1411430Y661430D02*
X1388570Y638570D01*
X1390570Y4763430D02*
X1413430Y4740570D01*
X1413430Y4763430D02*
X1390570Y4740570D01*
X1390570Y2863430D02*
X1413430Y2840570D01*
X1413430Y2863430D02*
X1390570Y2840570D01*
X1396445Y9165430D02*
X1419305Y9142570D01*
X1419305Y9165430D02*
X1396445Y9142570D01*
X1396445Y7265430D02*
X1419305Y7242570D01*
X1419305Y7265430D02*
X1396445Y7242570D01*
X1408309Y5450430D02*
X1431169Y5427570D01*
X1431169Y5450430D02*
X1408309Y5427570D01*
X1413570Y1050430D02*
X1436430Y1027570D01*
X1436430Y1050430D02*
X1413570Y1027570D01*
X1415570Y3252430D02*
X1438430Y3229570D01*
X1438430Y3252430D02*
X1415570Y3229570D01*
X1420809Y5871430D02*
X1443669Y5848570D01*
X1443669Y5871430D02*
X1420809Y5848570D01*
X1421445Y7654430D02*
X1444305Y7631570D01*
X1444305Y7654430D02*
X1421445Y7631570D01*
X1426070Y1471430D02*
X1448930Y1448570D01*
X1448930Y1471430D02*
X1426070Y1448570D01*
X1428070Y3673430D02*
X1450930Y3650570D01*
X1450930Y3673430D02*
X1428070Y3650570D01*
X1433945Y8075430D02*
X1456805Y8052570D01*
X1456805Y8075430D02*
X1433945Y8052570D01*
X1479893Y6111195D02*
X1502753Y6088335D01*
X1502753Y6111195D02*
X1479893Y6088335D01*
X1485154Y1711195D02*
X1508014Y1688335D01*
X1508014Y1711195D02*
X1485154Y1688335D01*
X1487154Y3913195D02*
X1510014Y3890335D01*
X1510014Y3913195D02*
X1487154Y3890335D01*
X1493029Y8315195D02*
X1515889Y8292335D01*
X1515889Y8315195D02*
X1493029Y8292335D01*
X1502309Y6714430D02*
X1525169Y6691570D01*
X1525169Y6714430D02*
X1502309Y6691570D01*
X1507570Y2314430D02*
X1530430Y2291570D01*
X1530430Y2314430D02*
X1507570Y2291570D01*
X1509570Y4516430D02*
X1532430Y4493570D01*
X1532430Y4516430D02*
X1509570Y4493570D01*
X1515445Y8918430D02*
X1538305Y8895570D01*
X1538305Y8918430D02*
X1515445Y8895570D01*
X1550809Y6112560D02*
X1573669Y6089700D01*
X1573669Y6112560D02*
X1550809Y6089700D01*
X1556070Y1712560D02*
X1578930Y1689700D01*
X1578930Y1712560D02*
X1556070Y1689700D01*
X1558070Y3914560D02*
X1580930Y3891700D01*
X1580930Y3914560D02*
X1558070Y3891700D01*
X1563945Y8316560D02*
X1586805Y8293700D01*
X1586805Y8316560D02*
X1563945Y8293700D01*
X1574309Y6542430D02*
X1597169Y6519570D01*
X1597169Y6542430D02*
X1574309Y6519570D01*
X1579570Y2142430D02*
X1602430Y2119570D01*
X1602430Y2142430D02*
X1579570Y2119570D01*
X1581570Y4344430D02*
X1604430Y4321570D01*
X1604430Y4344430D02*
X1581570Y4321570D01*
X1583309Y6961430D02*
X1606169Y6938570D01*
X1606169Y6961430D02*
X1583309Y6938570D01*
X1583309Y5061430D02*
X1606169Y5038570D01*
X1606169Y5061430D02*
X1583309Y5038570D01*
X1587445Y8746430D02*
X1610305Y8723570D01*
X1610305Y8746430D02*
X1587445Y8723570D01*
X1588570Y2561430D02*
X1611430Y2538570D01*
X1611430Y2561430D02*
X1588570Y2538570D01*
X1588570Y661430D02*
X1611430Y638570D01*
X1611430Y661430D02*
X1588570Y638570D01*
X1590570Y4763430D02*
X1613430Y4740570D01*
X1613430Y4763430D02*
X1590570Y4740570D01*
X1590570Y2863430D02*
X1613430Y2840570D01*
X1613430Y2863430D02*
X1590570Y2840570D01*
X1596445Y9165430D02*
X1619305Y9142570D01*
X1619305Y9165430D02*
X1596445Y9142570D01*
X1596445Y7265430D02*
X1619305Y7242570D01*
X1619305Y7265430D02*
X1596445Y7242570D01*
X1645309Y5424800D02*
X1668169Y5401940D01*
X1668169Y5424800D02*
X1645309Y5401940D01*
X1650570Y1024800D02*
X1673430Y1001940D01*
X1673430Y1024800D02*
X1650570Y1001940D01*
X1652570Y3226800D02*
X1675430Y3203940D01*
X1675430Y3226800D02*
X1652570Y3203940D01*
X1658445Y7628800D02*
X1681305Y7605940D01*
X1681305Y7628800D02*
X1658445Y7605940D01*
X1666309Y6129430D02*
X1689169Y6106570D01*
X1689169Y6129430D02*
X1666309Y6106570D01*
X1671570Y1729430D02*
X1694430Y1706570D01*
X1694430Y1729430D02*
X1671570Y1706570D01*
X1673570Y3931430D02*
X1696430Y3908570D01*
X1696430Y3931430D02*
X1673570Y3908570D01*
X1679445Y8333430D02*
X1702305Y8310570D01*
X1702305Y8333430D02*
X1679445Y8310570D01*
X1741309Y6122430D02*
X1764169Y6099570D01*
X1764169Y6122430D02*
X1741309Y6099570D01*
X1746570Y1722430D02*
X1769430Y1699570D01*
X1769430Y1722430D02*
X1746570Y1699570D01*
X1748570Y3924430D02*
X1771430Y3901570D01*
X1771430Y3924430D02*
X1748570Y3901570D01*
X1754445Y8326430D02*
X1777305Y8303570D01*
X1777305Y8326430D02*
X1754445Y8303570D01*
X1771688Y5935995D02*
X1794548Y5913135D01*
X1794548Y5935995D02*
X1771688Y5913135D01*
X1776950Y1535995D02*
X1799810Y1513135D01*
X1799810Y1535995D02*
X1776950Y1513135D01*
X1778950Y3737995D02*
X1801810Y3715135D01*
X1801810Y3737995D02*
X1778950Y3715135D01*
X1783309Y6961430D02*
X1806169Y6938570D01*
X1806169Y6961430D02*
X1783309Y6938570D01*
X1783309Y5061430D02*
X1806169Y5038570D01*
X1806169Y5061430D02*
X1783309Y5038570D01*
X1784825Y8139995D02*
X1807685Y8117135D01*
X1807685Y8139995D02*
X1784825Y8117135D01*
X1788570Y2561430D02*
X1811430Y2538570D01*
X1811430Y2561430D02*
X1788570Y2538570D01*
X1788570Y661430D02*
X1811430Y638570D01*
X1811430Y661430D02*
X1788570Y638570D01*
X1790309Y6071430D02*
X1813169Y6048570D01*
X1813169Y6071430D02*
X1790309Y6048570D01*
X1790570Y4763430D02*
X1813430Y4740570D01*
X1813430Y4763430D02*
X1790570Y4740570D01*
X1790570Y2863430D02*
X1813430Y2840570D01*
X1813430Y2863430D02*
X1790570Y2840570D01*
X1795570Y1671430D02*
X1818430Y1648570D01*
X1818430Y1671430D02*
X1795570Y1648570D01*
X1796445Y9165430D02*
X1819305Y9142570D01*
X1819305Y9165430D02*
X1796445Y9142570D01*
X1796445Y7265430D02*
X1819305Y7242570D01*
X1819305Y7265430D02*
X1796445Y7242570D01*
X1797570Y3873430D02*
X1820430Y3850570D01*
X1820430Y3873430D02*
X1797570Y3850570D01*
X1803445Y8275430D02*
X1826305Y8252570D01*
X1826305Y8275430D02*
X1803445Y8252570D01*
X1820309Y6485430D02*
X1843169Y6462570D01*
X1843169Y6485430D02*
X1820309Y6462570D01*
X1824309Y6728930D02*
X1847169Y6706070D01*
X1847169Y6728930D02*
X1824309Y6706070D01*
X1825570Y2085430D02*
X1848430Y2062570D01*
X1848430Y2085430D02*
X1825570Y2062570D01*
X1827570Y4287430D02*
X1850430Y4264570D01*
X1850430Y4287430D02*
X1827570Y4264570D01*
X1829570Y2328930D02*
X1852430Y2306070D01*
X1852430Y2328930D02*
X1829570Y2306070D01*
X1831570Y4530930D02*
X1854430Y4508070D01*
X1854430Y4530930D02*
X1831570Y4508070D01*
X1833445Y8689430D02*
X1856305Y8666570D01*
X1856305Y8689430D02*
X1833445Y8666570D01*
X1837445Y8932930D02*
X1860305Y8910070D01*
X1860305Y8932930D02*
X1837445Y8910070D01*
X1840309Y6583430D02*
X1863169Y6560570D01*
X1863169Y6583430D02*
X1840309Y6560570D01*
X1845570Y2183430D02*
X1868430Y2160570D01*
X1868430Y2183430D02*
X1845570Y2160570D01*
X1847570Y4385430D02*
X1870430Y4362570D01*
X1870430Y4385430D02*
X1847570Y4362570D01*
X1853445Y8787430D02*
X1876305Y8764570D01*
X1876305Y8787430D02*
X1853445Y8764570D01*
X1909216Y6539523D02*
X1932076Y6516663D01*
X1932076Y6539523D02*
X1909216Y6516663D01*
X1914477Y2139523D02*
X1937337Y2116663D01*
X1937337Y2139523D02*
X1914477Y2116663D01*
X1916477Y4341523D02*
X1939337Y4318663D01*
X1939337Y4341523D02*
X1916477Y4318663D01*
X1922352Y8743523D02*
X1945212Y8720663D01*
X1945212Y8743523D02*
X1922352Y8720663D01*
X1928622Y6460230D02*
X1951482Y6437370D01*
X1951482Y6460230D02*
X1928622Y6437370D01*
X1933884Y2060230D02*
X1956744Y2037370D01*
X1956744Y2060230D02*
X1933884Y2037370D01*
X1935884Y4262230D02*
X1958744Y4239370D01*
X1958744Y4262230D02*
X1935884Y4239370D01*
X1941309Y6277430D02*
X1964169Y6254570D01*
X1964169Y6277430D02*
X1941309Y6254570D01*
X1941759Y8664230D02*
X1964619Y8641370D01*
X1964619Y8664230D02*
X1941759Y8641370D01*
X1945409Y5723430D02*
X1968269Y5700570D01*
X1968269Y5723430D02*
X1945409Y5700570D01*
X1946570Y1877430D02*
X1969430Y1854570D01*
X1969430Y1877430D02*
X1946570Y1854570D01*
X1948570Y4079430D02*
X1971430Y4056570D01*
X1971430Y4079430D02*
X1948570Y4056570D01*
X1950670Y1323430D02*
X1973530Y1300570D01*
X1973530Y1323430D02*
X1950670Y1300570D01*
X1952670Y3525430D02*
X1975530Y3502570D01*
X1975530Y3525430D02*
X1952670Y3502570D01*
X1954309Y6726430D02*
X1977169Y6703570D01*
X1977169Y6726430D02*
X1954309Y6703570D01*
X1954445Y8481430D02*
X1977305Y8458570D01*
X1977305Y8481430D02*
X1954445Y8458570D01*
X1958545Y7927430D02*
X1981405Y7904570D01*
X1981405Y7927430D02*
X1958545Y7904570D01*
X1959570Y2326430D02*
X1982430Y2303570D01*
X1982430Y2326430D02*
X1959570Y2303570D01*
X1961570Y4528430D02*
X1984430Y4505570D01*
X1984430Y4528430D02*
X1961570Y4505570D01*
X1962487Y6038962D02*
X1985347Y6016102D01*
X1985347Y6038962D02*
X1962487Y6016102D01*
X1963309Y5877430D02*
X1986169Y5854570D01*
X1986169Y5877430D02*
X1963309Y5854570D01*
X1964835Y5955501D02*
X1987695Y5932641D01*
X1987695Y5955501D02*
X1964835Y5932641D01*
X1967445Y8930430D02*
X1990305Y8907570D01*
X1990305Y8930430D02*
X1967445Y8907570D01*
X1967749Y1638962D02*
X1990609Y1616102D01*
X1990609Y1638962D02*
X1967749Y1616102D01*
X1968570Y1477430D02*
X1991430Y1454570D01*
X1991430Y1477430D02*
X1968570Y1454570D01*
X1969749Y3840962D02*
X1992609Y3818102D01*
X1992609Y3840962D02*
X1969749Y3818102D01*
X1970097Y1555501D02*
X1992957Y1532641D01*
X1992957Y1555501D02*
X1970097Y1532641D01*
X1970570Y3679430D02*
X1993430Y3656570D01*
X1993430Y3679430D02*
X1970570Y3656570D01*
X1972097Y3757501D02*
X1994957Y3734641D01*
X1994957Y3757501D02*
X1972097Y3734641D01*
X1975624Y8242962D02*
X1998484Y8220102D01*
X1998484Y8242962D02*
X1975624Y8220102D01*
X1976445Y8081430D02*
X1999305Y8058570D01*
X1999305Y8081430D02*
X1976445Y8058570D01*
X1977972Y8159501D02*
X2000832Y8136641D01*
X2000832Y8159501D02*
X1977972Y8136641D01*
X1983309Y6961430D02*
X2006169Y6938570D01*
X2006169Y6961430D02*
X1983309Y6938570D01*
X1983309Y5061430D02*
X2006169Y5038570D01*
X2006169Y5061430D02*
X1983309Y5038570D01*
X1988570Y2561430D02*
X2011430Y2538570D01*
X2011430Y2561430D02*
X1988570Y2538570D01*
X1988570Y661430D02*
X2011430Y638570D01*
X2011430Y661430D02*
X1988570Y638570D01*
X1990570Y4763430D02*
X2013430Y4740570D01*
X2013430Y4763430D02*
X1990570Y4740570D01*
X1990570Y2863430D02*
X2013430Y2840570D01*
X2013430Y2863430D02*
X1990570Y2840570D01*
X1996445Y9165430D02*
X2019305Y9142570D01*
X2019305Y9165430D02*
X1996445Y9142570D01*
X1996445Y7265430D02*
X2019305Y7242570D01*
X2019305Y7265430D02*
X1996445Y7242570D01*
X2016003Y5761065D02*
X2038863Y5738205D01*
X2038863Y5761065D02*
X2016003Y5738205D01*
X2021265Y1361065D02*
X2044125Y1338205D01*
X2044125Y1361065D02*
X2021265Y1338205D01*
X2023265Y3563065D02*
X2046125Y3540205D01*
X2046125Y3563065D02*
X2023265Y3540205D01*
X2024309Y5129430D02*
X2047169Y5106570D01*
X2047169Y5129430D02*
X2024309Y5106570D01*
X2028932Y6114180D02*
X2051792Y6091320D01*
X2051792Y6114180D02*
X2028932Y6091320D01*
X2029140Y7965065D02*
X2052000Y7942205D01*
X2052000Y7965065D02*
X2029140Y7942205D01*
X2029570Y729430D02*
X2052430Y706570D01*
X2052430Y729430D02*
X2029570Y706570D01*
X2031503Y6039132D02*
X2054363Y6016272D01*
X2054363Y6039132D02*
X2031503Y6016272D01*
X2031570Y2931430D02*
X2054430Y2908570D01*
X2054430Y2931430D02*
X2031570Y2908570D01*
X2034194Y1714180D02*
X2057054Y1691320D01*
X2057054Y1714180D02*
X2034194Y1691320D01*
X2034309Y5906430D02*
X2057169Y5883570D01*
X2057169Y5906430D02*
X2034309Y5883570D01*
X2036194Y3916180D02*
X2059054Y3893320D01*
X2059054Y3916180D02*
X2036194Y3893320D01*
X2036764Y1639132D02*
X2059624Y1616272D01*
X2059624Y1639132D02*
X2036764Y1616272D01*
X2037445Y7333430D02*
X2060305Y7310570D01*
X2060305Y7333430D02*
X2037445Y7310570D01*
X2038764Y3841132D02*
X2061624Y3818272D01*
X2061624Y3841132D02*
X2038764Y3818272D01*
X2039570Y1506430D02*
X2062430Y1483570D01*
X2062430Y1506430D02*
X2039570Y1483570D01*
X2041570Y3708430D02*
X2064430Y3685570D01*
X2064430Y3708430D02*
X2041570Y3685570D01*
X2042069Y8318180D02*
X2064929Y8295320D01*
X2064929Y8318180D02*
X2042069Y8295320D01*
X2044639Y8243132D02*
X2067499Y8220272D01*
X2067499Y8243132D02*
X2044639Y8220272D01*
X2047445Y8110430D02*
X2070305Y8087570D01*
X2070305Y8110430D02*
X2047445Y8087570D01*
X2068309Y6341003D02*
X2091169Y6318143D01*
X2091169Y6341003D02*
X2068309Y6318143D01*
X2073570Y1941003D02*
X2096430Y1918143D01*
X2096430Y1941003D02*
X2073570Y1918143D01*
X2075570Y4143003D02*
X2098430Y4120143D01*
X2098430Y4143003D02*
X2075570Y4120143D01*
X2080309Y6731430D02*
X2103169Y6708570D01*
X2103169Y6731430D02*
X2080309Y6708570D01*
X2081445Y8545003D02*
X2104305Y8522143D01*
X2104305Y8545003D02*
X2081445Y8522143D01*
X2085570Y2331430D02*
X2108430Y2308570D01*
X2108430Y2331430D02*
X2085570Y2308570D01*
X2087570Y4533430D02*
X2110430Y4510570D01*
X2110430Y4533430D02*
X2087570Y4510570D01*
X2093445Y8935430D02*
X2116305Y8912570D01*
X2116305Y8935430D02*
X2093445Y8912570D01*
X2183309Y6961430D02*
X2206169Y6938570D01*
X2206169Y6961430D02*
X2183309Y6938570D01*
X2183309Y5061430D02*
X2206169Y5038570D01*
X2206169Y5061430D02*
X2183309Y5038570D01*
X2188570Y2561430D02*
X2211430Y2538570D01*
X2211430Y2561430D02*
X2188570Y2538570D01*
X2188570Y661430D02*
X2211430Y638570D01*
X2211430Y661430D02*
X2188570Y638570D01*
X2190570Y4763430D02*
X2213430Y4740570D01*
X2213430Y4763430D02*
X2190570Y4740570D01*
X2190570Y2863430D02*
X2213430Y2840570D01*
X2213430Y2863430D02*
X2190570Y2840570D01*
X2196445Y9165430D02*
X2219305Y9142570D01*
X2219305Y9165430D02*
X2196445Y9142570D01*
X2196445Y7265430D02*
X2219305Y7242570D01*
X2219305Y7265430D02*
X2196445Y7242570D01*
X2206809Y6726560D02*
X2229669Y6703700D01*
X2229669Y6726560D02*
X2206809Y6703700D01*
X2207309Y6264430D02*
X2230169Y6241570D01*
X2230169Y6264430D02*
X2207309Y6241570D01*
X2212070Y2326560D02*
X2234930Y2303700D01*
X2234930Y2326560D02*
X2212070Y2303700D01*
X2212570Y1864430D02*
X2235430Y1841570D01*
X2235430Y1864430D02*
X2212570Y1841570D01*
X2214070Y4528560D02*
X2236930Y4505700D01*
X2236930Y4528560D02*
X2214070Y4505700D01*
X2214570Y4066430D02*
X2237430Y4043570D01*
X2237430Y4066430D02*
X2214570Y4043570D01*
X2219945Y8930560D02*
X2242805Y8907700D01*
X2242805Y8930560D02*
X2219945Y8907700D01*
X2220445Y8468430D02*
X2243305Y8445570D01*
X2243305Y8468430D02*
X2220445Y8445570D01*
X2259309Y6505430D02*
X2282169Y6482570D01*
X2282169Y6505430D02*
X2259309Y6482570D01*
X2264570Y2105430D02*
X2287430Y2082570D01*
X2287430Y2105430D02*
X2264570Y2082570D01*
X2266570Y4307430D02*
X2289430Y4284570D01*
X2289430Y4307430D02*
X2266570Y4284570D01*
X2272445Y8709430D02*
X2295305Y8686570D01*
X2295305Y8709430D02*
X2272445Y8686570D01*
X2285309Y5661430D02*
X2308169Y5638570D01*
X2308169Y5661430D02*
X2285309Y5638570D01*
X2290570Y1261430D02*
X2313430Y1238570D01*
X2313430Y1261430D02*
X2290570Y1238570D01*
X2292570Y3463430D02*
X2315430Y3440570D01*
X2315430Y3463430D02*
X2292570Y3440570D01*
X2293309Y6341430D02*
X2316169Y6318570D01*
X2316169Y6341430D02*
X2293309Y6318570D01*
X2298445Y7865430D02*
X2321305Y7842570D01*
X2321305Y7865430D02*
X2298445Y7842570D01*
X2298570Y1941430D02*
X2321430Y1918570D01*
X2321430Y1941430D02*
X2298570Y1918570D01*
X2300570Y4143430D02*
X2323430Y4120570D01*
X2323430Y4143430D02*
X2300570Y4120570D01*
X2306445Y8545430D02*
X2329305Y8522570D01*
X2329305Y8545430D02*
X2306445Y8522570D01*
X2310580Y6275391D02*
X2333440Y6252531D01*
X2333440Y6275391D02*
X2310580Y6252531D01*
X2315842Y1875391D02*
X2338702Y1852531D01*
X2338702Y1875391D02*
X2315842Y1852531D01*
X2317842Y4077391D02*
X2340702Y4054531D01*
X2340702Y4077391D02*
X2317842Y4054531D01*
X2323717Y8479391D02*
X2346577Y8456531D01*
X2346577Y8479391D02*
X2323717Y8456531D01*
X2370309Y5674430D02*
X2393169Y5651570D01*
X2393169Y5674430D02*
X2370309Y5651570D01*
X2375570Y1274430D02*
X2398430Y1251570D01*
X2398430Y1274430D02*
X2375570Y1251570D01*
X2377570Y3476430D02*
X2400430Y3453570D01*
X2400430Y3476430D02*
X2377570Y3453570D01*
X2382309Y5918430D02*
X2405169Y5895570D01*
X2405169Y5918430D02*
X2382309Y5895570D01*
X2383309Y6961430D02*
X2406169Y6938570D01*
X2406169Y6961430D02*
X2383309Y6938570D01*
X2383309Y5061430D02*
X2406169Y5038570D01*
X2406169Y5061430D02*
X2383309Y5038570D01*
X2383445Y7878430D02*
X2406305Y7855570D01*
X2406305Y7878430D02*
X2383445Y7855570D01*
X2385309Y5995430D02*
X2408169Y5972570D01*
X2408169Y5995430D02*
X2385309Y5972570D01*
X2387570Y1518430D02*
X2410430Y1495570D01*
X2410430Y1518430D02*
X2387570Y1495570D01*
X2388309Y5761430D02*
X2411169Y5738570D01*
X2411169Y5761430D02*
X2388309Y5738570D01*
X2388570Y2561430D02*
X2411430Y2538570D01*
X2411430Y2561430D02*
X2388570Y2538570D01*
X2388570Y661430D02*
X2411430Y638570D01*
X2411430Y661430D02*
X2388570Y638570D01*
X2389570Y3720430D02*
X2412430Y3697570D01*
X2412430Y3720430D02*
X2389570Y3697570D01*
X2390570Y4763430D02*
X2413430Y4740570D01*
X2413430Y4763430D02*
X2390570Y4740570D01*
X2390570Y2863430D02*
X2413430Y2840570D01*
X2413430Y2863430D02*
X2390570Y2840570D01*
X2390570Y1595430D02*
X2413430Y1572570D01*
X2413430Y1595430D02*
X2390570Y1572570D01*
X2392570Y3797430D02*
X2415430Y3774570D01*
X2415430Y3797430D02*
X2392570Y3774570D01*
X2393570Y1361430D02*
X2416430Y1338570D01*
X2416430Y1361430D02*
X2393570Y1338570D01*
X2395445Y8122430D02*
X2418305Y8099570D01*
X2418305Y8122430D02*
X2395445Y8099570D01*
X2395570Y3563430D02*
X2418430Y3540570D01*
X2418430Y3563430D02*
X2395570Y3540570D01*
X2396445Y9165430D02*
X2419305Y9142570D01*
X2419305Y9165430D02*
X2396445Y9142570D01*
X2396445Y7265430D02*
X2419305Y7242570D01*
X2419305Y7265430D02*
X2396445Y7242570D01*
X2398445Y8199430D02*
X2421305Y8176570D01*
X2421305Y8199430D02*
X2398445Y8176570D01*
X2401445Y7965430D02*
X2424305Y7942570D01*
X2424305Y7965430D02*
X2401445Y7942570D01*
X2418309Y6098430D02*
X2441169Y6075570D01*
X2441169Y6098430D02*
X2418309Y6075570D01*
X2423570Y1698430D02*
X2446430Y1675570D01*
X2446430Y1698430D02*
X2423570Y1675570D01*
X2425570Y3900430D02*
X2448430Y3877570D01*
X2448430Y3900430D02*
X2425570Y3877570D01*
X2431445Y8302430D02*
X2454305Y8279570D01*
X2454305Y8302430D02*
X2431445Y8279570D01*
X2533309Y6811430D02*
X2556169Y6788570D01*
X2556169Y6811430D02*
X2533309Y6788570D01*
X2533309Y6611430D02*
X2556169Y6588570D01*
X2556169Y6611430D02*
X2533309Y6588570D01*
X2533309Y6411430D02*
X2556169Y6388570D01*
X2556169Y6411430D02*
X2533309Y6388570D01*
X2533309Y6211430D02*
X2556169Y6188570D01*
X2556169Y6211430D02*
X2533309Y6188570D01*
X2533309Y6011430D02*
X2556169Y5988570D01*
X2556169Y6011430D02*
X2533309Y5988570D01*
X2533309Y5811430D02*
X2556169Y5788570D01*
X2556169Y5811430D02*
X2533309Y5788570D01*
X2533309Y5611430D02*
X2556169Y5588570D01*
X2556169Y5611430D02*
X2533309Y5588570D01*
X2533309Y5411430D02*
X2556169Y5388570D01*
X2556169Y5411430D02*
X2533309Y5388570D01*
X2533309Y5211430D02*
X2556169Y5188570D01*
X2556169Y5211430D02*
X2533309Y5188570D01*
X2538570Y2411430D02*
X2561430Y2388570D01*
X2561430Y2411430D02*
X2538570Y2388570D01*
X2538570Y2211430D02*
X2561430Y2188570D01*
X2561430Y2211430D02*
X2538570Y2188570D01*
X2538570Y2011430D02*
X2561430Y1988570D01*
X2561430Y2011430D02*
X2538570Y1988570D01*
X2538570Y1811430D02*
X2561430Y1788570D01*
X2561430Y1811430D02*
X2538570Y1788570D01*
X2538570Y1611430D02*
X2561430Y1588570D01*
X2561430Y1611430D02*
X2538570Y1588570D01*
X2538570Y1411430D02*
X2561430Y1388570D01*
X2561430Y1411430D02*
X2538570Y1388570D01*
X2538570Y1211430D02*
X2561430Y1188570D01*
X2561430Y1211430D02*
X2538570Y1188570D01*
X2538570Y1011430D02*
X2561430Y988570D01*
X2561430Y1011430D02*
X2538570Y988570D01*
X2538570Y811430D02*
X2561430Y788570D01*
X2561430Y811430D02*
X2538570Y788570D01*
X2540570Y4613430D02*
X2563430Y4590570D01*
X2563430Y4613430D02*
X2540570Y4590570D01*
X2540570Y4413430D02*
X2563430Y4390570D01*
X2563430Y4413430D02*
X2540570Y4390570D01*
X2540570Y4213430D02*
X2563430Y4190570D01*
X2563430Y4213430D02*
X2540570Y4190570D01*
X2540570Y4013430D02*
X2563430Y3990570D01*
X2563430Y4013430D02*
X2540570Y3990570D01*
X2540570Y3813430D02*
X2563430Y3790570D01*
X2563430Y3813430D02*
X2540570Y3790570D01*
X2540570Y3613430D02*
X2563430Y3590570D01*
X2563430Y3613430D02*
X2540570Y3590570D01*
X2540570Y3413430D02*
X2563430Y3390570D01*
X2563430Y3413430D02*
X2540570Y3390570D01*
X2540570Y3213430D02*
X2563430Y3190570D01*
X2563430Y3213430D02*
X2540570Y3190570D01*
X2540570Y3013430D02*
X2563430Y2990570D01*
X2563430Y3013430D02*
X2540570Y2990570D01*
X2546445Y9015430D02*
X2569305Y8992570D01*
X2569305Y9015430D02*
X2546445Y8992570D01*
X2546445Y8815430D02*
X2569305Y8792570D01*
X2569305Y8815430D02*
X2546445Y8792570D01*
X2546445Y8615430D02*
X2569305Y8592570D01*
X2569305Y8615430D02*
X2546445Y8592570D01*
X2546445Y8415430D02*
X2569305Y8392570D01*
X2569305Y8415430D02*
X2546445Y8392570D01*
X2546445Y8215430D02*
X2569305Y8192570D01*
X2569305Y8215430D02*
X2546445Y8192570D01*
X2546445Y8015430D02*
X2569305Y7992570D01*
X2569305Y8015430D02*
X2546445Y7992570D01*
X2546445Y7815430D02*
X2569305Y7792570D01*
X2569305Y7815430D02*
X2546445Y7792570D01*
X2546445Y7615430D02*
X2569305Y7592570D01*
X2569305Y7615430D02*
X2546445Y7592570D01*
X2546445Y7415430D02*
X2569305Y7392570D01*
X2569305Y7415430D02*
X2546445Y7392570D01*
X2838570Y6811430D02*
X2861430Y6788570D01*
X2861430Y6811430D02*
X2838570Y6788570D01*
X2838570Y6611430D02*
X2861430Y6588570D01*
X2861430Y6611430D02*
X2838570Y6588570D01*
X2838570Y6411430D02*
X2861430Y6388570D01*
X2861430Y6411430D02*
X2838570Y6388570D01*
X2838570Y6211430D02*
X2861430Y6188570D01*
X2861430Y6211430D02*
X2838570Y6188570D01*
X2838570Y6011430D02*
X2861430Y5988570D01*
X2861430Y6011430D02*
X2838570Y5988570D01*
X2838570Y5811430D02*
X2861430Y5788570D01*
X2861430Y5811430D02*
X2838570Y5788570D01*
X2838570Y5611430D02*
X2861430Y5588570D01*
X2861430Y5611430D02*
X2838570Y5588570D01*
X2838570Y5411430D02*
X2861430Y5388570D01*
X2861430Y5411430D02*
X2838570Y5388570D01*
X2838570Y5211430D02*
X2861430Y5188570D01*
X2861430Y5211430D02*
X2838570Y5188570D01*
X2840570Y9013430D02*
X2863430Y8990570D01*
X2863430Y9013430D02*
X2840570Y8990570D01*
X2840570Y8813430D02*
X2863430Y8790570D01*
X2863430Y8813430D02*
X2840570Y8790570D01*
X2840570Y8613430D02*
X2863430Y8590570D01*
X2863430Y8613430D02*
X2840570Y8590570D01*
X2840570Y8413430D02*
X2863430Y8390570D01*
X2863430Y8413430D02*
X2840570Y8390570D01*
X2840570Y8213430D02*
X2863430Y8190570D01*
X2863430Y8213430D02*
X2840570Y8190570D01*
X2840570Y8013430D02*
X2863430Y7990570D01*
X2863430Y8013430D02*
X2840570Y7990570D01*
X2840570Y7813430D02*
X2863430Y7790570D01*
X2863430Y7813430D02*
X2840570Y7790570D01*
X2840570Y7613430D02*
X2863430Y7590570D01*
X2863430Y7613430D02*
X2840570Y7590570D01*
X2840570Y7413430D02*
X2863430Y7390570D01*
X2863430Y7413430D02*
X2840570Y7390570D01*
X2840570Y4613430D02*
X2863430Y4590570D01*
X2863430Y4613430D02*
X2840570Y4590570D01*
X2840570Y4413430D02*
X2863430Y4390570D01*
X2863430Y4413430D02*
X2840570Y4390570D01*
X2840570Y4213430D02*
X2863430Y4190570D01*
X2863430Y4213430D02*
X2840570Y4190570D01*
X2840570Y4013430D02*
X2863430Y3990570D01*
X2863430Y4013430D02*
X2840570Y3990570D01*
X2840570Y3813430D02*
X2863430Y3790570D01*
X2863430Y3813430D02*
X2840570Y3790570D01*
X2840570Y3613430D02*
X2863430Y3590570D01*
X2863430Y3613430D02*
X2840570Y3590570D01*
X2840570Y3413430D02*
X2863430Y3390570D01*
X2863430Y3413430D02*
X2840570Y3390570D01*
X2840570Y3213430D02*
X2863430Y3190570D01*
X2863430Y3213430D02*
X2840570Y3190570D01*
X2840570Y3013430D02*
X2863430Y2990570D01*
X2863430Y3013430D02*
X2840570Y2990570D01*
X2840570Y2413430D02*
X2863430Y2390570D01*
X2863430Y2413430D02*
X2840570Y2390570D01*
X2840570Y2213430D02*
X2863430Y2190570D01*
X2863430Y2213430D02*
X2840570Y2190570D01*
X2840570Y2013430D02*
X2863430Y1990570D01*
X2863430Y2013430D02*
X2840570Y1990570D01*
X2840570Y1813430D02*
X2863430Y1790570D01*
X2863430Y1813430D02*
X2840570Y1790570D01*
X2840570Y1613430D02*
X2863430Y1590570D01*
X2863430Y1613430D02*
X2840570Y1590570D01*
X2840570Y1413430D02*
X2863430Y1390570D01*
X2863430Y1413430D02*
X2840570Y1390570D01*
X2840570Y1213430D02*
X2863430Y1190570D01*
X2863430Y1213430D02*
X2840570Y1190570D01*
X2840570Y1013430D02*
X2863430Y990570D01*
X2863430Y1013430D02*
X2840570Y990570D01*
X2840570Y813430D02*
X2863430Y790570D01*
X2863430Y813430D02*
X2840570Y790570D01*
X2910570Y6298430D02*
X2933430Y6275570D01*
X2933430Y6298430D02*
X2910570Y6275570D01*
X2912570Y8500430D02*
X2935430Y8477570D01*
X2935430Y8500430D02*
X2912570Y8477570D01*
X2912570Y4100430D02*
X2935430Y4077570D01*
X2935430Y4100430D02*
X2912570Y4077570D01*
X2912570Y1900430D02*
X2935430Y1877570D01*
X2935430Y1900430D02*
X2912570Y1877570D01*
X2988570Y6961430D02*
X3011430Y6938570D01*
X3011430Y6961430D02*
X2988570Y6938570D01*
X2988570Y5061430D02*
X3011430Y5038570D01*
X3011430Y5061430D02*
X2988570Y5038570D01*
X2990570Y9163430D02*
X3013430Y9140570D01*
X3013430Y9163430D02*
X2990570Y9140570D01*
X2990570Y7263430D02*
X3013430Y7240570D01*
X3013430Y7263430D02*
X2990570Y7240570D01*
X2990570Y4763430D02*
X3013430Y4740570D01*
X3013430Y4763430D02*
X2990570Y4740570D01*
X2990570Y2863430D02*
X3013430Y2840570D01*
X3013430Y2863430D02*
X2990570Y2840570D01*
X2990570Y2563430D02*
X3013430Y2540570D01*
X3013430Y2563430D02*
X2990570Y2540570D01*
X2990570Y663430D02*
X3013430Y640570D01*
X3013430Y663430D02*
X2990570Y640570D01*
X3188570Y6961430D02*
X3211430Y6938570D01*
X3211430Y6961430D02*
X3188570Y6938570D01*
X3188570Y5061430D02*
X3211430Y5038570D01*
X3211430Y5061430D02*
X3188570Y5038570D01*
X3190570Y9163430D02*
X3213430Y9140570D01*
X3213430Y9163430D02*
X3190570Y9140570D01*
X3190570Y7263430D02*
X3213430Y7240570D01*
X3213430Y7263430D02*
X3190570Y7240570D01*
X3190570Y4763430D02*
X3213430Y4740570D01*
X3213430Y4763430D02*
X3190570Y4740570D01*
X3190570Y2863430D02*
X3213430Y2840570D01*
X3213430Y2863430D02*
X3190570Y2840570D01*
X3190570Y2563430D02*
X3213430Y2540570D01*
X3213430Y2563430D02*
X3190570Y2540570D01*
X3190570Y663430D02*
X3213430Y640570D01*
X3213430Y663430D02*
X3190570Y640570D01*
X3262885Y6223745D02*
X3285745Y6200885D01*
X3285745Y6223745D02*
X3262885Y6200885D01*
X3264885Y8425745D02*
X3287745Y8402885D01*
X3287745Y8425745D02*
X3264885Y8402885D01*
X3264885Y4025745D02*
X3287745Y4002885D01*
X3287745Y4025745D02*
X3264885Y4002885D01*
X3264885Y1825745D02*
X3287745Y1802885D01*
X3287745Y1825745D02*
X3264885Y1802885D01*
X3346090Y6179136D02*
X3368950Y6156276D01*
X3368950Y6179136D02*
X3346090Y6156276D01*
X3348090Y8381136D02*
X3370950Y8358276D01*
X3370950Y8381136D02*
X3348090Y8358276D01*
X3348090Y3981136D02*
X3370950Y3958276D01*
X3370950Y3981136D02*
X3348090Y3958276D01*
X3348090Y1781136D02*
X3370950Y1758276D01*
X3370950Y1781136D02*
X3348090Y1758276D01*
X3376860Y5785430D02*
X3399720Y5762570D01*
X3399720Y5785430D02*
X3376860Y5762570D01*
X3377043Y5969376D02*
X3399903Y5946516D01*
X3399903Y5969376D02*
X3377043Y5946516D01*
X3378860Y7987430D02*
X3401720Y7964570D01*
X3401720Y7987430D02*
X3378860Y7964570D01*
X3378860Y3587430D02*
X3401720Y3564570D01*
X3401720Y3587430D02*
X3378860Y3564570D01*
X3378860Y1387430D02*
X3401720Y1364570D01*
X3401720Y1387430D02*
X3378860Y1364570D01*
X3379043Y8171376D02*
X3401903Y8148516D01*
X3401903Y8171376D02*
X3379043Y8148516D01*
X3379043Y3771376D02*
X3401903Y3748516D01*
X3401903Y3771376D02*
X3379043Y3748516D01*
X3379043Y1571376D02*
X3401903Y1548516D01*
X3401903Y1571376D02*
X3379043Y1548516D01*
X3388570Y6961430D02*
X3411430Y6938570D01*
X3411430Y6961430D02*
X3388570Y6938570D01*
X3388570Y5061430D02*
X3411430Y5038570D01*
X3411430Y5061430D02*
X3388570Y5038570D01*
X3390570Y9163430D02*
X3413430Y9140570D01*
X3413430Y9163430D02*
X3390570Y9140570D01*
X3390570Y7263430D02*
X3413430Y7240570D01*
X3413430Y7263430D02*
X3390570Y7240570D01*
X3390570Y4763430D02*
X3413430Y4740570D01*
X3413430Y4763430D02*
X3390570Y4740570D01*
X3390570Y2863430D02*
X3413430Y2840570D01*
X3413430Y2863430D02*
X3390570Y2840570D01*
X3390570Y2563430D02*
X3413430Y2540570D01*
X3413430Y2563430D02*
X3390570Y2540570D01*
X3390570Y663430D02*
X3413430Y640570D01*
X3413430Y663430D02*
X3390570Y640570D01*
X3394570Y6257430D02*
X3417430Y6234570D01*
X3417430Y6257430D02*
X3394570Y6234570D01*
X3396570Y8459430D02*
X3419430Y8436570D01*
X3419430Y8459430D02*
X3396570Y8436570D01*
X3396570Y4059430D02*
X3419430Y4036570D01*
X3419430Y4059430D02*
X3396570Y4036570D01*
X3396570Y1859430D02*
X3419430Y1836570D01*
X3419430Y1859430D02*
X3396570Y1836570D01*
X3399570Y6622430D02*
X3422430Y6599570D01*
X3422430Y6622430D02*
X3399570Y6599570D01*
X3401570Y8824430D02*
X3424430Y8801570D01*
X3424430Y8824430D02*
X3401570Y8801570D01*
X3401570Y4424430D02*
X3424430Y4401570D01*
X3424430Y4424430D02*
X3401570Y4401570D01*
X3401570Y2224430D02*
X3424430Y2201570D01*
X3424430Y2224430D02*
X3401570Y2201570D01*
X3404796Y6324920D02*
X3427656Y6302060D01*
X3427656Y6324920D02*
X3404796Y6302060D01*
X3406796Y8526920D02*
X3429656Y8504060D01*
X3429656Y8526920D02*
X3406796Y8504060D01*
X3406796Y4126920D02*
X3429656Y4104060D01*
X3429656Y4126920D02*
X3406796Y4104060D01*
X3406796Y1926920D02*
X3429656Y1904060D01*
X3429656Y1926920D02*
X3406796Y1904060D01*
X3413070Y6035930D02*
X3435930Y6013070D01*
X3435930Y6035930D02*
X3413070Y6013070D01*
X3415070Y8237930D02*
X3437930Y8215070D01*
X3437930Y8237930D02*
X3415070Y8215070D01*
X3415070Y3837930D02*
X3437930Y3815070D01*
X3437930Y3837930D02*
X3415070Y3815070D01*
X3415070Y1637930D02*
X3437930Y1615070D01*
X3437930Y1637930D02*
X3415070Y1615070D01*
X3436570Y5724430D02*
X3459430Y5701570D01*
X3459430Y5724430D02*
X3436570Y5701570D01*
X3438570Y7926430D02*
X3461430Y7903570D01*
X3461430Y7926430D02*
X3438570Y7903570D01*
X3438570Y3526430D02*
X3461430Y3503570D01*
X3461430Y3526430D02*
X3438570Y3503570D01*
X3438570Y1326430D02*
X3461430Y1303570D01*
X3461430Y1326430D02*
X3438570Y1303570D01*
X3444570Y5852430D02*
X3467430Y5829570D01*
X3467430Y5852430D02*
X3444570Y5829570D01*
X3446570Y8054430D02*
X3469430Y8031570D01*
X3469430Y8054430D02*
X3446570Y8031570D01*
X3446570Y3654430D02*
X3469430Y3631570D01*
X3469430Y3654430D02*
X3446570Y3631570D01*
X3446570Y1454430D02*
X3469430Y1431570D01*
X3469430Y1454430D02*
X3446570Y1431570D01*
X3448570Y6830430D02*
X3471430Y6807570D01*
X3471430Y6830430D02*
X3448570Y6807570D01*
X3450570Y9032430D02*
X3473430Y9009570D01*
X3473430Y9032430D02*
X3450570Y9009570D01*
X3450570Y4632430D02*
X3473430Y4609570D01*
X3473430Y4632430D02*
X3450570Y4609570D01*
X3450570Y2432430D02*
X3473430Y2409570D01*
X3473430Y2432430D02*
X3450570Y2409570D01*
X3502570Y6425430D02*
X3525430Y6402570D01*
X3525430Y6425430D02*
X3502570Y6402570D01*
X3504570Y8627430D02*
X3527430Y8604570D01*
X3527430Y8627430D02*
X3504570Y8604570D01*
X3504570Y4227430D02*
X3527430Y4204570D01*
X3527430Y4227430D02*
X3504570Y4204570D01*
X3504570Y2027430D02*
X3527430Y2004570D01*
X3527430Y2027430D02*
X3504570Y2004570D01*
X3588570Y6961430D02*
X3611430Y6938570D01*
X3611430Y6961430D02*
X3588570Y6938570D01*
X3588570Y5061430D02*
X3611430Y5038570D01*
X3611430Y5061430D02*
X3588570Y5038570D01*
X3590570Y9163430D02*
X3613430Y9140570D01*
X3613430Y9163430D02*
X3590570Y9140570D01*
X3590570Y7263430D02*
X3613430Y7240570D01*
X3613430Y7263430D02*
X3590570Y7240570D01*
X3590570Y4763430D02*
X3613430Y4740570D01*
X3613430Y4763430D02*
X3590570Y4740570D01*
X3590570Y2863430D02*
X3613430Y2840570D01*
X3613430Y2863430D02*
X3590570Y2840570D01*
X3590570Y2563430D02*
X3613430Y2540570D01*
X3613430Y2563430D02*
X3590570Y2540570D01*
X3590570Y663430D02*
X3613430Y640570D01*
X3613430Y663430D02*
X3590570Y640570D01*
X3613570Y5450430D02*
X3636430Y5427570D01*
X3636430Y5450430D02*
X3613570Y5427570D01*
X3615570Y7652430D02*
X3638430Y7629570D01*
X3638430Y7652430D02*
X3615570Y7629570D01*
X3615570Y3252430D02*
X3638430Y3229570D01*
X3638430Y3252430D02*
X3615570Y3229570D01*
X3615570Y1052430D02*
X3638430Y1029570D01*
X3638430Y1052430D02*
X3615570Y1029570D01*
X3626070Y5871430D02*
X3648930Y5848570D01*
X3648930Y5871430D02*
X3626070Y5848570D01*
X3628070Y8073430D02*
X3650930Y8050570D01*
X3650930Y8073430D02*
X3628070Y8050570D01*
X3628070Y3673430D02*
X3650930Y3650570D01*
X3650930Y3673430D02*
X3628070Y3650570D01*
X3628070Y1473430D02*
X3650930Y1450570D01*
X3650930Y1473430D02*
X3628070Y1450570D01*
X3685154Y6111195D02*
X3708014Y6088335D01*
X3708014Y6111195D02*
X3685154Y6088335D01*
X3687154Y8313195D02*
X3710014Y8290335D01*
X3710014Y8313195D02*
X3687154Y8290335D01*
X3687154Y3913195D02*
X3710014Y3890335D01*
X3710014Y3913195D02*
X3687154Y3890335D01*
X3687154Y1713195D02*
X3710014Y1690335D01*
X3710014Y1713195D02*
X3687154Y1690335D01*
X3707570Y6714430D02*
X3730430Y6691570D01*
X3730430Y6714430D02*
X3707570Y6691570D01*
X3709570Y8916430D02*
X3732430Y8893570D01*
X3732430Y8916430D02*
X3709570Y8893570D01*
X3709570Y4516430D02*
X3732430Y4493570D01*
X3732430Y4516430D02*
X3709570Y4493570D01*
X3709570Y2316430D02*
X3732430Y2293570D01*
X3732430Y2316430D02*
X3709570Y2293570D01*
X3756070Y6112560D02*
X3778930Y6089700D01*
X3778930Y6112560D02*
X3756070Y6089700D01*
X3758070Y8314560D02*
X3780930Y8291700D01*
X3780930Y8314560D02*
X3758070Y8291700D01*
X3758070Y3914560D02*
X3780930Y3891700D01*
X3780930Y3914560D02*
X3758070Y3891700D01*
X3758070Y1714560D02*
X3780930Y1691700D01*
X3780930Y1714560D02*
X3758070Y1691700D01*
X3779570Y6542430D02*
X3802430Y6519570D01*
X3802430Y6542430D02*
X3779570Y6519570D01*
X3781570Y8744430D02*
X3804430Y8721570D01*
X3804430Y8744430D02*
X3781570Y8721570D01*
X3781570Y4344430D02*
X3804430Y4321570D01*
X3804430Y4344430D02*
X3781570Y4321570D01*
X3781570Y2144430D02*
X3804430Y2121570D01*
X3804430Y2144430D02*
X3781570Y2121570D01*
X3788570Y6961430D02*
X3811430Y6938570D01*
X3811430Y6961430D02*
X3788570Y6938570D01*
X3788570Y5061430D02*
X3811430Y5038570D01*
X3811430Y5061430D02*
X3788570Y5038570D01*
X3790570Y9163430D02*
X3813430Y9140570D01*
X3813430Y9163430D02*
X3790570Y9140570D01*
X3790570Y7263430D02*
X3813430Y7240570D01*
X3813430Y7263430D02*
X3790570Y7240570D01*
X3790570Y4763430D02*
X3813430Y4740570D01*
X3813430Y4763430D02*
X3790570Y4740570D01*
X3790570Y2863430D02*
X3813430Y2840570D01*
X3813430Y2863430D02*
X3790570Y2840570D01*
X3790570Y2563430D02*
X3813430Y2540570D01*
X3813430Y2563430D02*
X3790570Y2540570D01*
X3790570Y663430D02*
X3813430Y640570D01*
X3813430Y663430D02*
X3790570Y640570D01*
X3850570Y5424800D02*
X3873430Y5401940D01*
X3873430Y5424800D02*
X3850570Y5401940D01*
X3852570Y7626800D02*
X3875430Y7603940D01*
X3875430Y7626800D02*
X3852570Y7603940D01*
X3852570Y3226800D02*
X3875430Y3203940D01*
X3875430Y3226800D02*
X3852570Y3203940D01*
X3852570Y1026800D02*
X3875430Y1003940D01*
X3875430Y1026800D02*
X3852570Y1003940D01*
X3871570Y6129430D02*
X3894430Y6106570D01*
X3894430Y6129430D02*
X3871570Y6106570D01*
X3873570Y8331430D02*
X3896430Y8308570D01*
X3896430Y8331430D02*
X3873570Y8308570D01*
X3873570Y3931430D02*
X3896430Y3908570D01*
X3896430Y3931430D02*
X3873570Y3908570D01*
X3873570Y1731430D02*
X3896430Y1708570D01*
X3896430Y1731430D02*
X3873570Y1708570D01*
X3946570Y6122430D02*
X3969430Y6099570D01*
X3969430Y6122430D02*
X3946570Y6099570D01*
X3948570Y8324430D02*
X3971430Y8301570D01*
X3971430Y8324430D02*
X3948570Y8301570D01*
X3948570Y3924430D02*
X3971430Y3901570D01*
X3971430Y3924430D02*
X3948570Y3901570D01*
X3948570Y1724430D02*
X3971430Y1701570D01*
X3971430Y1724430D02*
X3948570Y1701570D01*
X3976950Y5935995D02*
X3999810Y5913135D01*
X3999810Y5935995D02*
X3976950Y5913135D01*
X3978950Y8137995D02*
X4001810Y8115135D01*
X4001810Y8137995D02*
X3978950Y8115135D01*
X3978950Y3737995D02*
X4001810Y3715135D01*
X4001810Y3737995D02*
X3978950Y3715135D01*
X3978950Y1537995D02*
X4001810Y1515135D01*
X4001810Y1537995D02*
X3978950Y1515135D01*
X3988570Y6961430D02*
X4011430Y6938570D01*
X4011430Y6961430D02*
X3988570Y6938570D01*
X3988570Y5061430D02*
X4011430Y5038570D01*
X4011430Y5061430D02*
X3988570Y5038570D01*
X3990570Y9163430D02*
X4013430Y9140570D01*
X4013430Y9163430D02*
X3990570Y9140570D01*
X3990570Y7263430D02*
X4013430Y7240570D01*
X4013430Y7263430D02*
X3990570Y7240570D01*
X3990570Y4763430D02*
X4013430Y4740570D01*
X4013430Y4763430D02*
X3990570Y4740570D01*
X3990570Y2863430D02*
X4013430Y2840570D01*
X4013430Y2863430D02*
X3990570Y2840570D01*
X3990570Y2563430D02*
X4013430Y2540570D01*
X4013430Y2563430D02*
X3990570Y2540570D01*
X3990570Y663430D02*
X4013430Y640570D01*
X4013430Y663430D02*
X3990570Y640570D01*
X3995570Y6071430D02*
X4018430Y6048570D01*
X4018430Y6071430D02*
X3995570Y6048570D01*
X3997570Y8273430D02*
X4020430Y8250570D01*
X4020430Y8273430D02*
X3997570Y8250570D01*
X3997570Y3873430D02*
X4020430Y3850570D01*
X4020430Y3873430D02*
X3997570Y3850570D01*
X3997570Y1673430D02*
X4020430Y1650570D01*
X4020430Y1673430D02*
X3997570Y1650570D01*
X4025570Y6485430D02*
X4048430Y6462570D01*
X4048430Y6485430D02*
X4025570Y6462570D01*
X4027570Y8687430D02*
X4050430Y8664570D01*
X4050430Y8687430D02*
X4027570Y8664570D01*
X4027570Y4287430D02*
X4050430Y4264570D01*
X4050430Y4287430D02*
X4027570Y4264570D01*
X4027570Y2087430D02*
X4050430Y2064570D01*
X4050430Y2087430D02*
X4027570Y2064570D01*
X4029570Y6728930D02*
X4052430Y6706070D01*
X4052430Y6728930D02*
X4029570Y6706070D01*
X4031570Y8930930D02*
X4054430Y8908070D01*
X4054430Y8930930D02*
X4031570Y8908070D01*
X4031570Y4530930D02*
X4054430Y4508070D01*
X4054430Y4530930D02*
X4031570Y4508070D01*
X4031570Y2330930D02*
X4054430Y2308070D01*
X4054430Y2330930D02*
X4031570Y2308070D01*
X4045570Y6583430D02*
X4068430Y6560570D01*
X4068430Y6583430D02*
X4045570Y6560570D01*
X4047570Y8785430D02*
X4070430Y8762570D01*
X4070430Y8785430D02*
X4047570Y8762570D01*
X4047570Y4385430D02*
X4070430Y4362570D01*
X4070430Y4385430D02*
X4047570Y4362570D01*
X4047570Y2185430D02*
X4070430Y2162570D01*
X4070430Y2185430D02*
X4047570Y2162570D01*
X4114477Y6539523D02*
X4137337Y6516663D01*
X4137337Y6539523D02*
X4114477Y6516663D01*
X4116477Y8741523D02*
X4139337Y8718663D01*
X4139337Y8741523D02*
X4116477Y8718663D01*
X4116477Y4341523D02*
X4139337Y4318663D01*
X4139337Y4341523D02*
X4116477Y4318663D01*
X4116477Y2141523D02*
X4139337Y2118663D01*
X4139337Y2141523D02*
X4116477Y2118663D01*
X4133884Y6460230D02*
X4156744Y6437370D01*
X4156744Y6460230D02*
X4133884Y6437370D01*
X4135884Y8662230D02*
X4158744Y8639370D01*
X4158744Y8662230D02*
X4135884Y8639370D01*
X4135884Y4262230D02*
X4158744Y4239370D01*
X4158744Y4262230D02*
X4135884Y4239370D01*
X4135884Y2062230D02*
X4158744Y2039370D01*
X4158744Y2062230D02*
X4135884Y2039370D01*
X4146570Y6277430D02*
X4169430Y6254570D01*
X4169430Y6277430D02*
X4146570Y6254570D01*
X4148570Y8479430D02*
X4171430Y8456570D01*
X4171430Y8479430D02*
X4148570Y8456570D01*
X4148570Y4079430D02*
X4171430Y4056570D01*
X4171430Y4079430D02*
X4148570Y4056570D01*
X4148570Y1879430D02*
X4171430Y1856570D01*
X4171430Y1879430D02*
X4148570Y1856570D01*
X4150670Y5723430D02*
X4173530Y5700570D01*
X4173530Y5723430D02*
X4150670Y5700570D01*
X4152670Y7925430D02*
X4175530Y7902570D01*
X4175530Y7925430D02*
X4152670Y7902570D01*
X4152670Y3525430D02*
X4175530Y3502570D01*
X4175530Y3525430D02*
X4152670Y3502570D01*
X4152670Y1325430D02*
X4175530Y1302570D01*
X4175530Y1325430D02*
X4152670Y1302570D01*
X4159570Y6726430D02*
X4182430Y6703570D01*
X4182430Y6726430D02*
X4159570Y6703570D01*
X4161570Y8928430D02*
X4184430Y8905570D01*
X4184430Y8928430D02*
X4161570Y8905570D01*
X4161570Y4528430D02*
X4184430Y4505570D01*
X4184430Y4528430D02*
X4161570Y4505570D01*
X4161570Y2328430D02*
X4184430Y2305570D01*
X4184430Y2328430D02*
X4161570Y2305570D01*
X4167749Y6038962D02*
X4190609Y6016102D01*
X4190609Y6038962D02*
X4167749Y6016102D01*
X4168570Y5877430D02*
X4191430Y5854570D01*
X4191430Y5877430D02*
X4168570Y5854570D01*
X4169749Y8240962D02*
X4192609Y8218102D01*
X4192609Y8240962D02*
X4169749Y8218102D01*
X4169749Y3840962D02*
X4192609Y3818102D01*
X4192609Y3840962D02*
X4169749Y3818102D01*
X4169749Y1640962D02*
X4192609Y1618102D01*
X4192609Y1640962D02*
X4169749Y1618102D01*
X4170097Y5955501D02*
X4192957Y5932641D01*
X4192957Y5955501D02*
X4170097Y5932641D01*
X4170570Y8079430D02*
X4193430Y8056570D01*
X4193430Y8079430D02*
X4170570Y8056570D01*
X4170570Y3679430D02*
X4193430Y3656570D01*
X4193430Y3679430D02*
X4170570Y3656570D01*
X4170570Y1479430D02*
X4193430Y1456570D01*
X4193430Y1479430D02*
X4170570Y1456570D01*
X4172097Y8157501D02*
X4194957Y8134641D01*
X4194957Y8157501D02*
X4172097Y8134641D01*
X4172097Y3757501D02*
X4194957Y3734641D01*
X4194957Y3757501D02*
X4172097Y3734641D01*
X4172097Y1557501D02*
X4194957Y1534641D01*
X4194957Y1557501D02*
X4172097Y1534641D01*
X4188570Y6961430D02*
X4211430Y6938570D01*
X4211430Y6961430D02*
X4188570Y6938570D01*
X4188570Y5061430D02*
X4211430Y5038570D01*
X4211430Y5061430D02*
X4188570Y5038570D01*
X4190570Y9163430D02*
X4213430Y9140570D01*
X4213430Y9163430D02*
X4190570Y9140570D01*
X4190570Y7263430D02*
X4213430Y7240570D01*
X4213430Y7263430D02*
X4190570Y7240570D01*
X4190570Y4763430D02*
X4213430Y4740570D01*
X4213430Y4763430D02*
X4190570Y4740570D01*
X4190570Y2863430D02*
X4213430Y2840570D01*
X4213430Y2863430D02*
X4190570Y2840570D01*
X4190570Y2563430D02*
X4213430Y2540570D01*
X4213430Y2563430D02*
X4190570Y2540570D01*
X4190570Y663430D02*
X4213430Y640570D01*
X4213430Y663430D02*
X4190570Y640570D01*
X4221265Y5761065D02*
X4244125Y5738205D01*
X4244125Y5761065D02*
X4221265Y5738205D01*
X4223265Y7963065D02*
X4246125Y7940205D01*
X4246125Y7963065D02*
X4223265Y7940205D01*
X4223265Y3563065D02*
X4246125Y3540205D01*
X4246125Y3563065D02*
X4223265Y3540205D01*
X4223265Y1363065D02*
X4246125Y1340205D01*
X4246125Y1363065D02*
X4223265Y1340205D01*
X4229570Y5129430D02*
X4252430Y5106570D01*
X4252430Y5129430D02*
X4229570Y5106570D01*
X4231570Y7331430D02*
X4254430Y7308570D01*
X4254430Y7331430D02*
X4231570Y7308570D01*
X4231570Y2931430D02*
X4254430Y2908570D01*
X4254430Y2931430D02*
X4231570Y2908570D01*
X4231570Y731430D02*
X4254430Y708570D01*
X4254430Y731430D02*
X4231570Y708570D01*
X4234194Y6114180D02*
X4257054Y6091320D01*
X4257054Y6114180D02*
X4234194Y6091320D01*
X4236194Y8316180D02*
X4259054Y8293320D01*
X4259054Y8316180D02*
X4236194Y8293320D01*
X4236194Y3916180D02*
X4259054Y3893320D01*
X4259054Y3916180D02*
X4236194Y3893320D01*
X4236194Y1716180D02*
X4259054Y1693320D01*
X4259054Y1716180D02*
X4236194Y1693320D01*
X4236764Y6039132D02*
X4259624Y6016272D01*
X4259624Y6039132D02*
X4236764Y6016272D01*
X4238764Y8241132D02*
X4261624Y8218272D01*
X4261624Y8241132D02*
X4238764Y8218272D01*
X4238764Y3841132D02*
X4261624Y3818272D01*
X4261624Y3841132D02*
X4238764Y3818272D01*
X4238764Y1641132D02*
X4261624Y1618272D01*
X4261624Y1641132D02*
X4238764Y1618272D01*
X4239570Y5906430D02*
X4262430Y5883570D01*
X4262430Y5906430D02*
X4239570Y5883570D01*
X4241570Y8108430D02*
X4264430Y8085570D01*
X4264430Y8108430D02*
X4241570Y8085570D01*
X4241570Y3708430D02*
X4264430Y3685570D01*
X4264430Y3708430D02*
X4241570Y3685570D01*
X4241570Y1508430D02*
X4264430Y1485570D01*
X4264430Y1508430D02*
X4241570Y1485570D01*
X4273570Y6341003D02*
X4296430Y6318143D01*
X4296430Y6341003D02*
X4273570Y6318143D01*
X4275570Y8543003D02*
X4298430Y8520143D01*
X4298430Y8543003D02*
X4275570Y8520143D01*
X4275570Y4143003D02*
X4298430Y4120143D01*
X4298430Y4143003D02*
X4275570Y4120143D01*
X4275570Y1943003D02*
X4298430Y1920143D01*
X4298430Y1943003D02*
X4275570Y1920143D01*
X4285570Y6731430D02*
X4308430Y6708570D01*
X4308430Y6731430D02*
X4285570Y6708570D01*
X4287570Y8933430D02*
X4310430Y8910570D01*
X4310430Y8933430D02*
X4287570Y8910570D01*
X4287570Y4533430D02*
X4310430Y4510570D01*
X4310430Y4533430D02*
X4287570Y4510570D01*
X4287570Y2333430D02*
X4310430Y2310570D01*
X4310430Y2333430D02*
X4287570Y2310570D01*
X4388570Y6961430D02*
X4411430Y6938570D01*
X4411430Y6961430D02*
X4388570Y6938570D01*
X4388570Y5061430D02*
X4411430Y5038570D01*
X4411430Y5061430D02*
X4388570Y5038570D01*
X4390570Y9163430D02*
X4413430Y9140570D01*
X4413430Y9163430D02*
X4390570Y9140570D01*
X4390570Y7263430D02*
X4413430Y7240570D01*
X4413430Y7263430D02*
X4390570Y7240570D01*
X4390570Y4763430D02*
X4413430Y4740570D01*
X4413430Y4763430D02*
X4390570Y4740570D01*
X4390570Y2863430D02*
X4413430Y2840570D01*
X4413430Y2863430D02*
X4390570Y2840570D01*
X4390570Y2563430D02*
X4413430Y2540570D01*
X4413430Y2563430D02*
X4390570Y2540570D01*
X4390570Y663430D02*
X4413430Y640570D01*
X4413430Y663430D02*
X4390570Y640570D01*
X4412070Y6726560D02*
X4434930Y6703700D01*
X4434930Y6726560D02*
X4412070Y6703700D01*
X4412570Y6264430D02*
X4435430Y6241570D01*
X4435430Y6264430D02*
X4412570Y6241570D01*
X4414070Y8928560D02*
X4436930Y8905700D01*
X4436930Y8928560D02*
X4414070Y8905700D01*
X4414070Y4528560D02*
X4436930Y4505700D01*
X4436930Y4528560D02*
X4414070Y4505700D01*
X4414070Y2328560D02*
X4436930Y2305700D01*
X4436930Y2328560D02*
X4414070Y2305700D01*
X4414570Y8466430D02*
X4437430Y8443570D01*
X4437430Y8466430D02*
X4414570Y8443570D01*
X4414570Y4066430D02*
X4437430Y4043570D01*
X4437430Y4066430D02*
X4414570Y4043570D01*
X4414570Y1866430D02*
X4437430Y1843570D01*
X4437430Y1866430D02*
X4414570Y1843570D01*
X4464570Y6505430D02*
X4487430Y6482570D01*
X4487430Y6505430D02*
X4464570Y6482570D01*
X4466570Y8707430D02*
X4489430Y8684570D01*
X4489430Y8707430D02*
X4466570Y8684570D01*
X4466570Y4307430D02*
X4489430Y4284570D01*
X4489430Y4307430D02*
X4466570Y4284570D01*
X4466570Y2107430D02*
X4489430Y2084570D01*
X4489430Y2107430D02*
X4466570Y2084570D01*
X4490570Y5661430D02*
X4513430Y5638570D01*
X4513430Y5661430D02*
X4490570Y5638570D01*
X4492570Y7863430D02*
X4515430Y7840570D01*
X4515430Y7863430D02*
X4492570Y7840570D01*
X4492570Y3463430D02*
X4515430Y3440570D01*
X4515430Y3463430D02*
X4492570Y3440570D01*
X4492570Y1263430D02*
X4515430Y1240570D01*
X4515430Y1263430D02*
X4492570Y1240570D01*
X4498570Y6341430D02*
X4521430Y6318570D01*
X4521430Y6341430D02*
X4498570Y6318570D01*
X4500570Y8543430D02*
X4523430Y8520570D01*
X4523430Y8543430D02*
X4500570Y8520570D01*
X4500570Y4143430D02*
X4523430Y4120570D01*
X4523430Y4143430D02*
X4500570Y4120570D01*
X4500570Y1943430D02*
X4523430Y1920570D01*
X4523430Y1943430D02*
X4500570Y1920570D01*
X4515842Y6275391D02*
X4538702Y6252531D01*
X4538702Y6275391D02*
X4515842Y6252531D01*
X4517842Y8477391D02*
X4540702Y8454531D01*
X4540702Y8477391D02*
X4517842Y8454531D01*
X4517842Y4077391D02*
X4540702Y4054531D01*
X4540702Y4077391D02*
X4517842Y4054531D01*
X4517842Y1877391D02*
X4540702Y1854531D01*
X4540702Y1877391D02*
X4517842Y1854531D01*
X4575570Y5674430D02*
X4598430Y5651570D01*
X4598430Y5674430D02*
X4575570Y5651570D01*
X4577570Y7876430D02*
X4600430Y7853570D01*
X4600430Y7876430D02*
X4577570Y7853570D01*
X4577570Y3476430D02*
X4600430Y3453570D01*
X4600430Y3476430D02*
X4577570Y3453570D01*
X4577570Y1276430D02*
X4600430Y1253570D01*
X4600430Y1276430D02*
X4577570Y1253570D01*
X4587570Y5918430D02*
X4610430Y5895570D01*
X4610430Y5918430D02*
X4587570Y5895570D01*
X4588570Y6961430D02*
X4611430Y6938570D01*
X4611430Y6961430D02*
X4588570Y6938570D01*
X4588570Y5061430D02*
X4611430Y5038570D01*
X4611430Y5061430D02*
X4588570Y5038570D01*
X4589570Y8120430D02*
X4612430Y8097570D01*
X4612430Y8120430D02*
X4589570Y8097570D01*
X4589570Y3720430D02*
X4612430Y3697570D01*
X4612430Y3720430D02*
X4589570Y3697570D01*
X4589570Y1520430D02*
X4612430Y1497570D01*
X4612430Y1520430D02*
X4589570Y1497570D01*
X4590570Y9163430D02*
X4613430Y9140570D01*
X4613430Y9163430D02*
X4590570Y9140570D01*
X4590570Y7263430D02*
X4613430Y7240570D01*
X4613430Y7263430D02*
X4590570Y7240570D01*
X4590570Y5995430D02*
X4613430Y5972570D01*
X4613430Y5995430D02*
X4590570Y5972570D01*
X4590570Y4763430D02*
X4613430Y4740570D01*
X4613430Y4763430D02*
X4590570Y4740570D01*
X4590570Y2863430D02*
X4613430Y2840570D01*
X4613430Y2863430D02*
X4590570Y2840570D01*
X4590570Y2563430D02*
X4613430Y2540570D01*
X4613430Y2563430D02*
X4590570Y2540570D01*
X4590570Y663430D02*
X4613430Y640570D01*
X4613430Y663430D02*
X4590570Y640570D01*
X4592570Y8197430D02*
X4615430Y8174570D01*
X4615430Y8197430D02*
X4592570Y8174570D01*
X4592570Y3797430D02*
X4615430Y3774570D01*
X4615430Y3797430D02*
X4592570Y3774570D01*
X4592570Y1597430D02*
X4615430Y1574570D01*
X4615430Y1597430D02*
X4592570Y1574570D01*
X4593570Y5761430D02*
X4616430Y5738570D01*
X4616430Y5761430D02*
X4593570Y5738570D01*
X4595570Y7963430D02*
X4618430Y7940570D01*
X4618430Y7963430D02*
X4595570Y7940570D01*
X4595570Y3563430D02*
X4618430Y3540570D01*
X4618430Y3563430D02*
X4595570Y3540570D01*
X4595570Y1363430D02*
X4618430Y1340570D01*
X4618430Y1363430D02*
X4595570Y1340570D01*
X4623570Y6098430D02*
X4646430Y6075570D01*
X4646430Y6098430D02*
X4623570Y6075570D01*
X4625570Y8300430D02*
X4648430Y8277570D01*
X4648430Y8300430D02*
X4625570Y8277570D01*
X4625570Y3900430D02*
X4648430Y3877570D01*
X4648430Y3900430D02*
X4625570Y3877570D01*
X4625570Y1700430D02*
X4648430Y1677570D01*
X4648430Y1700430D02*
X4625570Y1677570D01*
X4738570Y6811430D02*
X4761430Y6788570D01*
X4761430Y6811430D02*
X4738570Y6788570D01*
X4738570Y6611430D02*
X4761430Y6588570D01*
X4761430Y6611430D02*
X4738570Y6588570D01*
X4738570Y6411430D02*
X4761430Y6388570D01*
X4761430Y6411430D02*
X4738570Y6388570D01*
X4738570Y6211430D02*
X4761430Y6188570D01*
X4761430Y6211430D02*
X4738570Y6188570D01*
X4738570Y6011430D02*
X4761430Y5988570D01*
X4761430Y6011430D02*
X4738570Y5988570D01*
X4738570Y5811430D02*
X4761430Y5788570D01*
X4761430Y5811430D02*
X4738570Y5788570D01*
X4738570Y5611430D02*
X4761430Y5588570D01*
X4761430Y5611430D02*
X4738570Y5588570D01*
X4738570Y5411430D02*
X4761430Y5388570D01*
X4761430Y5411430D02*
X4738570Y5388570D01*
X4738570Y5211430D02*
X4761430Y5188570D01*
X4761430Y5211430D02*
X4738570Y5188570D01*
X4740570Y9013430D02*
X4763430Y8990570D01*
X4763430Y9013430D02*
X4740570Y8990570D01*
X4740570Y8813430D02*
X4763430Y8790570D01*
X4763430Y8813430D02*
X4740570Y8790570D01*
X4740570Y8613430D02*
X4763430Y8590570D01*
X4763430Y8613430D02*
X4740570Y8590570D01*
X4740570Y8413430D02*
X4763430Y8390570D01*
X4763430Y8413430D02*
X4740570Y8390570D01*
X4740570Y8213430D02*
X4763430Y8190570D01*
X4763430Y8213430D02*
X4740570Y8190570D01*
X4740570Y8013430D02*
X4763430Y7990570D01*
X4763430Y8013430D02*
X4740570Y7990570D01*
X4740570Y7813430D02*
X4763430Y7790570D01*
X4763430Y7813430D02*
X4740570Y7790570D01*
X4740570Y7613430D02*
X4763430Y7590570D01*
X4763430Y7613430D02*
X4740570Y7590570D01*
X4740570Y7413430D02*
X4763430Y7390570D01*
X4763430Y7413430D02*
X4740570Y7390570D01*
X4740570Y4613430D02*
X4763430Y4590570D01*
X4763430Y4613430D02*
X4740570Y4590570D01*
X4740570Y4413430D02*
X4763430Y4390570D01*
X4763430Y4413430D02*
X4740570Y4390570D01*
X4740570Y4213430D02*
X4763430Y4190570D01*
X4763430Y4213430D02*
X4740570Y4190570D01*
X4740570Y4013430D02*
X4763430Y3990570D01*
X4763430Y4013430D02*
X4740570Y3990570D01*
X4740570Y3813430D02*
X4763430Y3790570D01*
X4763430Y3813430D02*
X4740570Y3790570D01*
X4740570Y3613430D02*
X4763430Y3590570D01*
X4763430Y3613430D02*
X4740570Y3590570D01*
X4740570Y3413430D02*
X4763430Y3390570D01*
X4763430Y3413430D02*
X4740570Y3390570D01*
X4740570Y3213430D02*
X4763430Y3190570D01*
X4763430Y3213430D02*
X4740570Y3190570D01*
X4740570Y3013430D02*
X4763430Y2990570D01*
X4763430Y3013430D02*
X4740570Y2990570D01*
X4740570Y2413430D02*
X4763430Y2390570D01*
X4763430Y2413430D02*
X4740570Y2390570D01*
X4740570Y2213430D02*
X4763430Y2190570D01*
X4763430Y2213430D02*
X4740570Y2190570D01*
X4740570Y2013430D02*
X4763430Y1990570D01*
X4763430Y2013430D02*
X4740570Y1990570D01*
X4740570Y1813430D02*
X4763430Y1790570D01*
X4763430Y1813430D02*
X4740570Y1790570D01*
X4740570Y1613430D02*
X4763430Y1590570D01*
X4763430Y1613430D02*
X4740570Y1590570D01*
X4740570Y1413430D02*
X4763430Y1390570D01*
X4763430Y1413430D02*
X4740570Y1390570D01*
X4740570Y1213430D02*
X4763430Y1190570D01*
X4763430Y1213430D02*
X4740570Y1190570D01*
X4740570Y1013430D02*
X4763430Y990570D01*
X4763430Y1013430D02*
X4740570Y990570D01*
X4740570Y813430D02*
X4763430Y790570D01*
X4763430Y813430D02*
X4740570Y790570D01*
X5039872Y6813430D02*
X5062732Y6790570D01*
X5062732Y6813430D02*
X5039872Y6790570D01*
X5039872Y6613430D02*
X5062732Y6590570D01*
X5062732Y6613430D02*
X5039872Y6590570D01*
X5039872Y6413430D02*
X5062732Y6390570D01*
X5062732Y6413430D02*
X5039872Y6390570D01*
X5039872Y6213430D02*
X5062732Y6190570D01*
X5062732Y6213430D02*
X5039872Y6190570D01*
X5039872Y6013430D02*
X5062732Y5990570D01*
X5062732Y6013430D02*
X5039872Y5990570D01*
X5039872Y5813430D02*
X5062732Y5790570D01*
X5062732Y5813430D02*
X5039872Y5790570D01*
X5039872Y5613430D02*
X5062732Y5590570D01*
X5062732Y5613430D02*
X5039872Y5590570D01*
X5039872Y5413430D02*
X5062732Y5390570D01*
X5062732Y5413430D02*
X5039872Y5390570D01*
X5039872Y5213430D02*
X5062732Y5190570D01*
X5062732Y5213430D02*
X5039872Y5190570D01*
X5040524Y2411430D02*
X5063384Y2388570D01*
X5063384Y2411430D02*
X5040524Y2388570D01*
X5040524Y2211430D02*
X5063384Y2188570D01*
X5063384Y2211430D02*
X5040524Y2188570D01*
X5040524Y2011430D02*
X5063384Y1988570D01*
X5063384Y2011430D02*
X5040524Y1988570D01*
X5040524Y1811430D02*
X5063384Y1788570D01*
X5063384Y1811430D02*
X5040524Y1788570D01*
X5040524Y1611430D02*
X5063384Y1588570D01*
X5063384Y1611430D02*
X5040524Y1588570D01*
X5040524Y1411430D02*
X5063384Y1388570D01*
X5063384Y1411430D02*
X5040524Y1388570D01*
X5040524Y1211430D02*
X5063384Y1188570D01*
X5063384Y1211430D02*
X5040524Y1188570D01*
X5040524Y1011430D02*
X5063384Y988570D01*
X5063384Y1011430D02*
X5040524Y988570D01*
X5040524Y811430D02*
X5063384Y788570D01*
X5063384Y811430D02*
X5040524Y788570D01*
X5040570Y9016430D02*
X5063430Y8993570D01*
X5063430Y9016430D02*
X5040570Y8993570D01*
X5040570Y8816430D02*
X5063430Y8793570D01*
X5063430Y8816430D02*
X5040570Y8793570D01*
X5040570Y8616430D02*
X5063430Y8593570D01*
X5063430Y8616430D02*
X5040570Y8593570D01*
X5040570Y8416430D02*
X5063430Y8393570D01*
X5063430Y8416430D02*
X5040570Y8393570D01*
X5040570Y8216430D02*
X5063430Y8193570D01*
X5063430Y8216430D02*
X5040570Y8193570D01*
X5040570Y8016430D02*
X5063430Y7993570D01*
X5063430Y8016430D02*
X5040570Y7993570D01*
X5040570Y7816430D02*
X5063430Y7793570D01*
X5063430Y7816430D02*
X5040570Y7793570D01*
X5040570Y7616430D02*
X5063430Y7593570D01*
X5063430Y7616430D02*
X5040570Y7593570D01*
X5040570Y7416430D02*
X5063430Y7393570D01*
X5063430Y7416430D02*
X5040570Y7393570D01*
X5040570Y4613430D02*
X5063430Y4590570D01*
X5063430Y4613430D02*
X5040570Y4590570D01*
X5040570Y4413430D02*
X5063430Y4390570D01*
X5063430Y4413430D02*
X5040570Y4390570D01*
X5040570Y4213430D02*
X5063430Y4190570D01*
X5063430Y4213430D02*
X5040570Y4190570D01*
X5040570Y4013430D02*
X5063430Y3990570D01*
X5063430Y4013430D02*
X5040570Y3990570D01*
X5040570Y3813430D02*
X5063430Y3790570D01*
X5063430Y3813430D02*
X5040570Y3790570D01*
X5040570Y3613430D02*
X5063430Y3590570D01*
X5063430Y3613430D02*
X5040570Y3590570D01*
X5040570Y3413430D02*
X5063430Y3390570D01*
X5063430Y3413430D02*
X5040570Y3390570D01*
X5040570Y3213430D02*
X5063430Y3190570D01*
X5063430Y3213430D02*
X5040570Y3190570D01*
X5040570Y3013430D02*
X5063430Y2990570D01*
X5063430Y3013430D02*
X5040570Y2990570D01*
X5111872Y6300430D02*
X5134732Y6277570D01*
X5134732Y6300430D02*
X5111872Y6277570D01*
X5112524Y1898430D02*
X5135384Y1875570D01*
X5135384Y1898430D02*
X5112524Y1875570D01*
X5112570Y8503430D02*
X5135430Y8480570D01*
X5135430Y8503430D02*
X5112570Y8480570D01*
X5112570Y4100430D02*
X5135430Y4077570D01*
X5135430Y4100430D02*
X5112570Y4077570D01*
X5189872Y6963430D02*
X5212732Y6940570D01*
X5212732Y6963430D02*
X5189872Y6940570D01*
X5189872Y5063430D02*
X5212732Y5040570D01*
X5212732Y5063430D02*
X5189872Y5040570D01*
X5190524Y2561430D02*
X5213384Y2538570D01*
X5213384Y2561430D02*
X5190524Y2538570D01*
X5190524Y661430D02*
X5213384Y638570D01*
X5213384Y661430D02*
X5190524Y638570D01*
X5190570Y9166430D02*
X5213430Y9143570D01*
X5213430Y9166430D02*
X5190570Y9143570D01*
X5190570Y7266430D02*
X5213430Y7243570D01*
X5213430Y7266430D02*
X5190570Y7243570D01*
X5190570Y4763430D02*
X5213430Y4740570D01*
X5213430Y4763430D02*
X5190570Y4740570D01*
X5190570Y2863430D02*
X5213430Y2840570D01*
X5213430Y2863430D02*
X5190570Y2840570D01*
X5389872Y6963430D02*
X5412732Y6940570D01*
X5412732Y6963430D02*
X5389872Y6940570D01*
X5389872Y5063430D02*
X5412732Y5040570D01*
X5412732Y5063430D02*
X5389872Y5040570D01*
X5390524Y2561430D02*
X5413384Y2538570D01*
X5413384Y2561430D02*
X5390524Y2538570D01*
X5390524Y661430D02*
X5413384Y638570D01*
X5413384Y661430D02*
X5390524Y638570D01*
X5390570Y9166430D02*
X5413430Y9143570D01*
X5413430Y9166430D02*
X5390570Y9143570D01*
X5390570Y7266430D02*
X5413430Y7243570D01*
X5413430Y7266430D02*
X5390570Y7243570D01*
X5390570Y4763430D02*
X5413430Y4740570D01*
X5413430Y4763430D02*
X5390570Y4740570D01*
X5390570Y2863430D02*
X5413430Y2840570D01*
X5413430Y2863430D02*
X5390570Y2840570D01*
X5464187Y6225745D02*
X5487047Y6202885D01*
X5487047Y6225745D02*
X5464187Y6202885D01*
X5464839Y1823745D02*
X5487699Y1800885D01*
X5487699Y1823745D02*
X5464839Y1800885D01*
X5464885Y8428745D02*
X5487745Y8405885D01*
X5487745Y8428745D02*
X5464885Y8405885D01*
X5464885Y4025745D02*
X5487745Y4002885D01*
X5487745Y4025745D02*
X5464885Y4002885D01*
X5547392Y6181136D02*
X5570252Y6158276D01*
X5570252Y6181136D02*
X5547392Y6158276D01*
X5548045Y1779136D02*
X5570905Y1756276D01*
X5570905Y1779136D02*
X5548045Y1756276D01*
X5548090Y8384136D02*
X5570950Y8361276D01*
X5570950Y8384136D02*
X5548090Y8361276D01*
X5548090Y3981136D02*
X5570950Y3958276D01*
X5570950Y3981136D02*
X5548090Y3958276D01*
X5578162Y5787430D02*
X5601022Y5764570D01*
X5601022Y5787430D02*
X5578162Y5764570D01*
X5578345Y5971376D02*
X5601205Y5948516D01*
X5601205Y5971376D02*
X5578345Y5948516D01*
X5578814Y1385430D02*
X5601674Y1362570D01*
X5601674Y1385430D02*
X5578814Y1362570D01*
X5578860Y7990430D02*
X5601720Y7967570D01*
X5601720Y7990430D02*
X5578860Y7967570D01*
X5578860Y3587430D02*
X5601720Y3564570D01*
X5601720Y3587430D02*
X5578860Y3564570D01*
X5578997Y1569376D02*
X5601857Y1546516D01*
X5601857Y1569376D02*
X5578997Y1546516D01*
X5579043Y8174376D02*
X5601903Y8151516D01*
X5601903Y8174376D02*
X5579043Y8151516D01*
X5579043Y3771376D02*
X5601903Y3748516D01*
X5601903Y3771376D02*
X5579043Y3748516D01*
X5589872Y6963430D02*
X5612732Y6940570D01*
X5612732Y6963430D02*
X5589872Y6940570D01*
X5589872Y5063430D02*
X5612732Y5040570D01*
X5612732Y5063430D02*
X5589872Y5040570D01*
X5590524Y2561430D02*
X5613384Y2538570D01*
X5613384Y2561430D02*
X5590524Y2538570D01*
X5590524Y661430D02*
X5613384Y638570D01*
X5613384Y661430D02*
X5590524Y638570D01*
X5590570Y9166430D02*
X5613430Y9143570D01*
X5613430Y9166430D02*
X5590570Y9143570D01*
X5590570Y7266430D02*
X5613430Y7243570D01*
X5613430Y7266430D02*
X5590570Y7243570D01*
X5590570Y4763430D02*
X5613430Y4740570D01*
X5613430Y4763430D02*
X5590570Y4740570D01*
X5590570Y2863430D02*
X5613430Y2840570D01*
X5613430Y2863430D02*
X5590570Y2840570D01*
X5595872Y6259430D02*
X5618732Y6236570D01*
X5618732Y6259430D02*
X5595872Y6236570D01*
X5596524Y1857430D02*
X5619384Y1834570D01*
X5619384Y1857430D02*
X5596524Y1834570D01*
X5596570Y8462430D02*
X5619430Y8439570D01*
X5619430Y8462430D02*
X5596570Y8439570D01*
X5596570Y4059430D02*
X5619430Y4036570D01*
X5619430Y4059430D02*
X5596570Y4036570D01*
X5600872Y6624430D02*
X5623732Y6601570D01*
X5623732Y6624430D02*
X5600872Y6601570D01*
X5601524Y2222430D02*
X5624384Y2199570D01*
X5624384Y2222430D02*
X5601524Y2199570D01*
X5601570Y8827430D02*
X5624430Y8804570D01*
X5624430Y8827430D02*
X5601570Y8804570D01*
X5601570Y4424430D02*
X5624430Y4401570D01*
X5624430Y4424430D02*
X5601570Y4401570D01*
X5606098Y6326920D02*
X5628958Y6304060D01*
X5628958Y6326920D02*
X5606098Y6304060D01*
X5606750Y1924920D02*
X5629610Y1902060D01*
X5629610Y1924920D02*
X5606750Y1902060D01*
X5606796Y8529920D02*
X5629656Y8507060D01*
X5629656Y8529920D02*
X5606796Y8507060D01*
X5606796Y4126920D02*
X5629656Y4104060D01*
X5629656Y4126920D02*
X5606796Y4104060D01*
X5614372Y6037930D02*
X5637232Y6015070D01*
X5637232Y6037930D02*
X5614372Y6015070D01*
X5615024Y1635930D02*
X5637884Y1613070D01*
X5637884Y1635930D02*
X5615024Y1613070D01*
X5615070Y8240930D02*
X5637930Y8218070D01*
X5637930Y8240930D02*
X5615070Y8218070D01*
X5615070Y3837930D02*
X5637930Y3815070D01*
X5637930Y3837930D02*
X5615070Y3815070D01*
X5637872Y5726430D02*
X5660732Y5703570D01*
X5660732Y5726430D02*
X5637872Y5703570D01*
X5638524Y1324430D02*
X5661384Y1301570D01*
X5661384Y1324430D02*
X5638524Y1301570D01*
X5638570Y7929430D02*
X5661430Y7906570D01*
X5661430Y7929430D02*
X5638570Y7906570D01*
X5638570Y3526430D02*
X5661430Y3503570D01*
X5661430Y3526430D02*
X5638570Y3503570D01*
X5645872Y5854430D02*
X5668732Y5831570D01*
X5668732Y5854430D02*
X5645872Y5831570D01*
X5646524Y1452430D02*
X5669384Y1429570D01*
X5669384Y1452430D02*
X5646524Y1429570D01*
X5646570Y8057430D02*
X5669430Y8034570D01*
X5669430Y8057430D02*
X5646570Y8034570D01*
X5646570Y3654430D02*
X5669430Y3631570D01*
X5669430Y3654430D02*
X5646570Y3631570D01*
X5649872Y6832430D02*
X5672732Y6809570D01*
X5672732Y6832430D02*
X5649872Y6809570D01*
X5650524Y2430430D02*
X5673384Y2407570D01*
X5673384Y2430430D02*
X5650524Y2407570D01*
X5650570Y9035430D02*
X5673430Y9012570D01*
X5673430Y9035430D02*
X5650570Y9012570D01*
X5650570Y4632430D02*
X5673430Y4609570D01*
X5673430Y4632430D02*
X5650570Y4609570D01*
X5703872Y6427430D02*
X5726732Y6404570D01*
X5726732Y6427430D02*
X5703872Y6404570D01*
X5704524Y2025430D02*
X5727384Y2002570D01*
X5727384Y2025430D02*
X5704524Y2002570D01*
X5704570Y8630430D02*
X5727430Y8607570D01*
X5727430Y8630430D02*
X5704570Y8607570D01*
X5704570Y4227430D02*
X5727430Y4204570D01*
X5727430Y4227430D02*
X5704570Y4204570D01*
X5789872Y6963430D02*
X5812732Y6940570D01*
X5812732Y6963430D02*
X5789872Y6940570D01*
X5789872Y5063430D02*
X5812732Y5040570D01*
X5812732Y5063430D02*
X5789872Y5040570D01*
X5790524Y2561430D02*
X5813384Y2538570D01*
X5813384Y2561430D02*
X5790524Y2538570D01*
X5790524Y661430D02*
X5813384Y638570D01*
X5813384Y661430D02*
X5790524Y638570D01*
X5790570Y9166430D02*
X5813430Y9143570D01*
X5813430Y9166430D02*
X5790570Y9143570D01*
X5790570Y7266430D02*
X5813430Y7243570D01*
X5813430Y7266430D02*
X5790570Y7243570D01*
X5790570Y4763430D02*
X5813430Y4740570D01*
X5813430Y4763430D02*
X5790570Y4740570D01*
X5790570Y2863430D02*
X5813430Y2840570D01*
X5813430Y2863430D02*
X5790570Y2840570D01*
X5814872Y5452430D02*
X5837732Y5429570D01*
X5837732Y5452430D02*
X5814872Y5429570D01*
X5815524Y1050430D02*
X5838384Y1027570D01*
X5838384Y1050430D02*
X5815524Y1027570D01*
X5815570Y7655430D02*
X5838430Y7632570D01*
X5838430Y7655430D02*
X5815570Y7632570D01*
X5815570Y3252430D02*
X5838430Y3229570D01*
X5838430Y3252430D02*
X5815570Y3229570D01*
X5827372Y5873430D02*
X5850232Y5850570D01*
X5850232Y5873430D02*
X5827372Y5850570D01*
X5828024Y1471430D02*
X5850884Y1448570D01*
X5850884Y1471430D02*
X5828024Y1448570D01*
X5828070Y8076430D02*
X5850930Y8053570D01*
X5850930Y8076430D02*
X5828070Y8053570D01*
X5828070Y3673430D02*
X5850930Y3650570D01*
X5850930Y3673430D02*
X5828070Y3650570D01*
X5886456Y6113195D02*
X5909316Y6090335D01*
X5909316Y6113195D02*
X5886456Y6090335D01*
X5887108Y1711195D02*
X5909968Y1688335D01*
X5909968Y1711195D02*
X5887108Y1688335D01*
X5887154Y8316195D02*
X5910014Y8293335D01*
X5910014Y8316195D02*
X5887154Y8293335D01*
X5887154Y3913195D02*
X5910014Y3890335D01*
X5910014Y3913195D02*
X5887154Y3890335D01*
X5908872Y6716430D02*
X5931732Y6693570D01*
X5931732Y6716430D02*
X5908872Y6693570D01*
X5909524Y2314430D02*
X5932384Y2291570D01*
X5932384Y2314430D02*
X5909524Y2291570D01*
X5909570Y8919430D02*
X5932430Y8896570D01*
X5932430Y8919430D02*
X5909570Y8896570D01*
X5909570Y4516430D02*
X5932430Y4493570D01*
X5932430Y4516430D02*
X5909570Y4493570D01*
X5957372Y6114560D02*
X5980232Y6091700D01*
X5980232Y6114560D02*
X5957372Y6091700D01*
X5958024Y1712560D02*
X5980884Y1689700D01*
X5980884Y1712560D02*
X5958024Y1689700D01*
X5958070Y8317560D02*
X5980930Y8294700D01*
X5980930Y8317560D02*
X5958070Y8294700D01*
X5958070Y3914560D02*
X5980930Y3891700D01*
X5980930Y3914560D02*
X5958070Y3891700D01*
X5980872Y6544430D02*
X6003732Y6521570D01*
X6003732Y6544430D02*
X5980872Y6521570D01*
X5981524Y2142430D02*
X6004384Y2119570D01*
X6004384Y2142430D02*
X5981524Y2119570D01*
X5981570Y8747430D02*
X6004430Y8724570D01*
X6004430Y8747430D02*
X5981570Y8724570D01*
X5981570Y4344430D02*
X6004430Y4321570D01*
X6004430Y4344430D02*
X5981570Y4321570D01*
X5989872Y6963430D02*
X6012732Y6940570D01*
X6012732Y6963430D02*
X5989872Y6940570D01*
X5989872Y5063430D02*
X6012732Y5040570D01*
X6012732Y5063430D02*
X5989872Y5040570D01*
X5990524Y2561430D02*
X6013384Y2538570D01*
X6013384Y2561430D02*
X5990524Y2538570D01*
X5990524Y661430D02*
X6013384Y638570D01*
X6013384Y661430D02*
X5990524Y638570D01*
X5990570Y9166430D02*
X6013430Y9143570D01*
X6013430Y9166430D02*
X5990570Y9143570D01*
X5990570Y7266430D02*
X6013430Y7243570D01*
X6013430Y7266430D02*
X5990570Y7243570D01*
X5990570Y4763430D02*
X6013430Y4740570D01*
X6013430Y4763430D02*
X5990570Y4740570D01*
X5990570Y2863430D02*
X6013430Y2840570D01*
X6013430Y2863430D02*
X5990570Y2840570D01*
X6051872Y5426800D02*
X6074732Y5403940D01*
X6074732Y5426800D02*
X6051872Y5403940D01*
X6052524Y1024800D02*
X6075384Y1001940D01*
X6075384Y1024800D02*
X6052524Y1001940D01*
X6052570Y7629800D02*
X6075430Y7606940D01*
X6075430Y7629800D02*
X6052570Y7606940D01*
X6052570Y3226800D02*
X6075430Y3203940D01*
X6075430Y3226800D02*
X6052570Y3203940D01*
X6072872Y6131430D02*
X6095732Y6108570D01*
X6095732Y6131430D02*
X6072872Y6108570D01*
X6073524Y1729430D02*
X6096384Y1706570D01*
X6096384Y1729430D02*
X6073524Y1706570D01*
X6073570Y8334430D02*
X6096430Y8311570D01*
X6096430Y8334430D02*
X6073570Y8311570D01*
X6073570Y3931430D02*
X6096430Y3908570D01*
X6096430Y3931430D02*
X6073570Y3908570D01*
X6147872Y6124430D02*
X6170732Y6101570D01*
X6170732Y6124430D02*
X6147872Y6101570D01*
X6148524Y1722430D02*
X6171384Y1699570D01*
X6171384Y1722430D02*
X6148524Y1699570D01*
X6148570Y8327430D02*
X6171430Y8304570D01*
X6171430Y8327430D02*
X6148570Y8304570D01*
X6148570Y3924430D02*
X6171430Y3901570D01*
X6171430Y3924430D02*
X6148570Y3901570D01*
X6178252Y5937995D02*
X6201112Y5915135D01*
X6201112Y5937995D02*
X6178252Y5915135D01*
X6178904Y1535995D02*
X6201764Y1513135D01*
X6201764Y1535995D02*
X6178904Y1513135D01*
X6178950Y8140995D02*
X6201810Y8118135D01*
X6201810Y8140995D02*
X6178950Y8118135D01*
X6178950Y3737995D02*
X6201810Y3715135D01*
X6201810Y3737995D02*
X6178950Y3715135D01*
X6189872Y6963430D02*
X6212732Y6940570D01*
X6212732Y6963430D02*
X6189872Y6940570D01*
X6189872Y5063430D02*
X6212732Y5040570D01*
X6212732Y5063430D02*
X6189872Y5040570D01*
X6190524Y2561430D02*
X6213384Y2538570D01*
X6213384Y2561430D02*
X6190524Y2538570D01*
X6190524Y661430D02*
X6213384Y638570D01*
X6213384Y661430D02*
X6190524Y638570D01*
X6190570Y9166430D02*
X6213430Y9143570D01*
X6213430Y9166430D02*
X6190570Y9143570D01*
X6190570Y7266430D02*
X6213430Y7243570D01*
X6213430Y7266430D02*
X6190570Y7243570D01*
X6190570Y4763430D02*
X6213430Y4740570D01*
X6213430Y4763430D02*
X6190570Y4740570D01*
X6190570Y2863430D02*
X6213430Y2840570D01*
X6213430Y2863430D02*
X6190570Y2840570D01*
X6196872Y6073430D02*
X6219732Y6050570D01*
X6219732Y6073430D02*
X6196872Y6050570D01*
X6197524Y1671430D02*
X6220384Y1648570D01*
X6220384Y1671430D02*
X6197524Y1648570D01*
X6197570Y8276430D02*
X6220430Y8253570D01*
X6220430Y8276430D02*
X6197570Y8253570D01*
X6197570Y3873430D02*
X6220430Y3850570D01*
X6220430Y3873430D02*
X6197570Y3850570D01*
X6226872Y6487430D02*
X6249732Y6464570D01*
X6249732Y6487430D02*
X6226872Y6464570D01*
X6227524Y2085430D02*
X6250384Y2062570D01*
X6250384Y2085430D02*
X6227524Y2062570D01*
X6227570Y8690430D02*
X6250430Y8667570D01*
X6250430Y8690430D02*
X6227570Y8667570D01*
X6227570Y4287430D02*
X6250430Y4264570D01*
X6250430Y4287430D02*
X6227570Y4264570D01*
X6230872Y6730930D02*
X6253732Y6708070D01*
X6253732Y6730930D02*
X6230872Y6708070D01*
X6231524Y2328930D02*
X6254384Y2306070D01*
X6254384Y2328930D02*
X6231524Y2306070D01*
X6231570Y8933930D02*
X6254430Y8911070D01*
X6254430Y8933930D02*
X6231570Y8911070D01*
X6231570Y4530930D02*
X6254430Y4508070D01*
X6254430Y4530930D02*
X6231570Y4508070D01*
X6246872Y6585430D02*
X6269732Y6562570D01*
X6269732Y6585430D02*
X6246872Y6562570D01*
X6247524Y2183430D02*
X6270384Y2160570D01*
X6270384Y2183430D02*
X6247524Y2160570D01*
X6247570Y8788430D02*
X6270430Y8765570D01*
X6270430Y8788430D02*
X6247570Y8765570D01*
X6247570Y4385430D02*
X6270430Y4362570D01*
X6270430Y4385430D02*
X6247570Y4362570D01*
X6315779Y6541523D02*
X6338639Y6518663D01*
X6338639Y6541523D02*
X6315779Y6518663D01*
X6316431Y2139523D02*
X6339291Y2116663D01*
X6339291Y2139523D02*
X6316431Y2116663D01*
X6316477Y8744523D02*
X6339337Y8721663D01*
X6339337Y8744523D02*
X6316477Y8721663D01*
X6316477Y4341523D02*
X6339337Y4318663D01*
X6339337Y4341523D02*
X6316477Y4318663D01*
X6335186Y6462230D02*
X6358046Y6439370D01*
X6358046Y6462230D02*
X6335186Y6439370D01*
X6335838Y2060230D02*
X6358698Y2037370D01*
X6358698Y2060230D02*
X6335838Y2037370D01*
X6335884Y8665230D02*
X6358744Y8642370D01*
X6358744Y8665230D02*
X6335884Y8642370D01*
X6335884Y4262230D02*
X6358744Y4239370D01*
X6358744Y4262230D02*
X6335884Y4239370D01*
X6347872Y6279430D02*
X6370732Y6256570D01*
X6370732Y6279430D02*
X6347872Y6256570D01*
X6348524Y1877430D02*
X6371384Y1854570D01*
X6371384Y1877430D02*
X6348524Y1854570D01*
X6348570Y8482430D02*
X6371430Y8459570D01*
X6371430Y8482430D02*
X6348570Y8459570D01*
X6348570Y4079430D02*
X6371430Y4056570D01*
X6371430Y4079430D02*
X6348570Y4056570D01*
X6351972Y5725430D02*
X6374832Y5702570D01*
X6374832Y5725430D02*
X6351972Y5702570D01*
X6352624Y1323430D02*
X6375484Y1300570D01*
X6375484Y1323430D02*
X6352624Y1300570D01*
X6352670Y7928430D02*
X6375530Y7905570D01*
X6375530Y7928430D02*
X6352670Y7905570D01*
X6352670Y3525430D02*
X6375530Y3502570D01*
X6375530Y3525430D02*
X6352670Y3502570D01*
X6360872Y6728430D02*
X6383732Y6705570D01*
X6383732Y6728430D02*
X6360872Y6705570D01*
X6361524Y2326430D02*
X6384384Y2303570D01*
X6384384Y2326430D02*
X6361524Y2303570D01*
X6361570Y8931430D02*
X6384430Y8908570D01*
X6384430Y8931430D02*
X6361570Y8908570D01*
X6361570Y4528430D02*
X6384430Y4505570D01*
X6384430Y4528430D02*
X6361570Y4505570D01*
X6369050Y6040962D02*
X6391910Y6018102D01*
X6391910Y6040962D02*
X6369050Y6018102D01*
X6369703Y1638962D02*
X6392563Y1616102D01*
X6392563Y1638962D02*
X6369703Y1616102D01*
X6369749Y8243962D02*
X6392609Y8221102D01*
X6392609Y8243962D02*
X6369749Y8221102D01*
X6369749Y3840962D02*
X6392609Y3818102D01*
X6392609Y3840962D02*
X6369749Y3818102D01*
X6369872Y5879430D02*
X6392732Y5856570D01*
X6392732Y5879430D02*
X6369872Y5856570D01*
X6370524Y1477430D02*
X6393384Y1454570D01*
X6393384Y1477430D02*
X6370524Y1454570D01*
X6370570Y8082430D02*
X6393430Y8059570D01*
X6393430Y8082430D02*
X6370570Y8059570D01*
X6370570Y3679430D02*
X6393430Y3656570D01*
X6393430Y3679430D02*
X6370570Y3656570D01*
X6371398Y5957501D02*
X6394258Y5934641D01*
X6394258Y5957501D02*
X6371398Y5934641D01*
X6372051Y1555501D02*
X6394911Y1532641D01*
X6394911Y1555501D02*
X6372051Y1532641D01*
X6372097Y8160501D02*
X6394957Y8137641D01*
X6394957Y8160501D02*
X6372097Y8137641D01*
X6372097Y3757501D02*
X6394957Y3734641D01*
X6394957Y3757501D02*
X6372097Y3734641D01*
X6389872Y6963430D02*
X6412732Y6940570D01*
X6412732Y6963430D02*
X6389872Y6940570D01*
X6389872Y5063430D02*
X6412732Y5040570D01*
X6412732Y5063430D02*
X6389872Y5040570D01*
X6390524Y2561430D02*
X6413384Y2538570D01*
X6413384Y2561430D02*
X6390524Y2538570D01*
X6390524Y661430D02*
X6413384Y638570D01*
X6413384Y661430D02*
X6390524Y638570D01*
X6390570Y9166430D02*
X6413430Y9143570D01*
X6413430Y9166430D02*
X6390570Y9143570D01*
X6390570Y7266430D02*
X6413430Y7243570D01*
X6413430Y7266430D02*
X6390570Y7243570D01*
X6390570Y4763430D02*
X6413430Y4740570D01*
X6413430Y4763430D02*
X6390570Y4740570D01*
X6390570Y2863430D02*
X6413430Y2840570D01*
X6413430Y2863430D02*
X6390570Y2840570D01*
X6422567Y5763065D02*
X6445427Y5740205D01*
X6445427Y5763065D02*
X6422567Y5740205D01*
X6423219Y1361065D02*
X6446079Y1338205D01*
X6446079Y1361065D02*
X6423219Y1338205D01*
X6423265Y7966065D02*
X6446125Y7943205D01*
X6446125Y7966065D02*
X6423265Y7943205D01*
X6423265Y3563065D02*
X6446125Y3540205D01*
X6446125Y3563065D02*
X6423265Y3540205D01*
X6430872Y5131430D02*
X6453732Y5108570D01*
X6453732Y5131430D02*
X6430872Y5108570D01*
X6431524Y729430D02*
X6454384Y706570D01*
X6454384Y729430D02*
X6431524Y706570D01*
X6431570Y7334430D02*
X6454430Y7311570D01*
X6454430Y7334430D02*
X6431570Y7311570D01*
X6431570Y2931430D02*
X6454430Y2908570D01*
X6454430Y2931430D02*
X6431570Y2908570D01*
X6435496Y6116180D02*
X6458356Y6093320D01*
X6458356Y6116180D02*
X6435496Y6093320D01*
X6436148Y1714180D02*
X6459008Y1691320D01*
X6459008Y1714180D02*
X6436148Y1691320D01*
X6436194Y8319180D02*
X6459054Y8296320D01*
X6459054Y8319180D02*
X6436194Y8296320D01*
X6436194Y3916180D02*
X6459054Y3893320D01*
X6459054Y3916180D02*
X6436194Y3893320D01*
X6438066Y6041132D02*
X6460926Y6018272D01*
X6460926Y6041132D02*
X6438066Y6018272D01*
X6438718Y1639132D02*
X6461578Y1616272D01*
X6461578Y1639132D02*
X6438718Y1616272D01*
X6438764Y8244132D02*
X6461624Y8221272D01*
X6461624Y8244132D02*
X6438764Y8221272D01*
X6438764Y3841132D02*
X6461624Y3818272D01*
X6461624Y3841132D02*
X6438764Y3818272D01*
X6440872Y5908430D02*
X6463732Y5885570D01*
X6463732Y5908430D02*
X6440872Y5885570D01*
X6441524Y1506430D02*
X6464384Y1483570D01*
X6464384Y1506430D02*
X6441524Y1483570D01*
X6441570Y8111430D02*
X6464430Y8088570D01*
X6464430Y8111430D02*
X6441570Y8088570D01*
X6441570Y3708430D02*
X6464430Y3685570D01*
X6464430Y3708430D02*
X6441570Y3685570D01*
X6474872Y6343003D02*
X6497732Y6320143D01*
X6497732Y6343003D02*
X6474872Y6320143D01*
X6475524Y1941003D02*
X6498384Y1918143D01*
X6498384Y1941003D02*
X6475524Y1918143D01*
X6475570Y8546003D02*
X6498430Y8523143D01*
X6498430Y8546003D02*
X6475570Y8523143D01*
X6475570Y4143003D02*
X6498430Y4120143D01*
X6498430Y4143003D02*
X6475570Y4120143D01*
X6486872Y6733430D02*
X6509732Y6710570D01*
X6509732Y6733430D02*
X6486872Y6710570D01*
X6487524Y2331430D02*
X6510384Y2308570D01*
X6510384Y2331430D02*
X6487524Y2308570D01*
X6487570Y8936430D02*
X6510430Y8913570D01*
X6510430Y8936430D02*
X6487570Y8913570D01*
X6487570Y4533430D02*
X6510430Y4510570D01*
X6510430Y4533430D02*
X6487570Y4510570D01*
X6589872Y6963430D02*
X6612732Y6940570D01*
X6612732Y6963430D02*
X6589872Y6940570D01*
X6589872Y5063430D02*
X6612732Y5040570D01*
X6612732Y5063430D02*
X6589872Y5040570D01*
X6590524Y2561430D02*
X6613384Y2538570D01*
X6613384Y2561430D02*
X6590524Y2538570D01*
X6590524Y661430D02*
X6613384Y638570D01*
X6613384Y661430D02*
X6590524Y638570D01*
X6590570Y9166430D02*
X6613430Y9143570D01*
X6613430Y9166430D02*
X6590570Y9143570D01*
X6590570Y7266430D02*
X6613430Y7243570D01*
X6613430Y7266430D02*
X6590570Y7243570D01*
X6590570Y4763430D02*
X6613430Y4740570D01*
X6613430Y4763430D02*
X6590570Y4740570D01*
X6590570Y2863430D02*
X6613430Y2840570D01*
X6613430Y2863430D02*
X6590570Y2840570D01*
X6613372Y6728560D02*
X6636232Y6705700D01*
X6636232Y6728560D02*
X6613372Y6705700D01*
X6613872Y6266430D02*
X6636732Y6243570D01*
X6636732Y6266430D02*
X6613872Y6243570D01*
X6614024Y2326560D02*
X6636884Y2303700D01*
X6636884Y2326560D02*
X6614024Y2303700D01*
X6614070Y8931560D02*
X6636930Y8908700D01*
X6636930Y8931560D02*
X6614070Y8908700D01*
X6614070Y4528560D02*
X6636930Y4505700D01*
X6636930Y4528560D02*
X6614070Y4505700D01*
X6614524Y1864430D02*
X6637384Y1841570D01*
X6637384Y1864430D02*
X6614524Y1841570D01*
X6614570Y8469430D02*
X6637430Y8446570D01*
X6637430Y8469430D02*
X6614570Y8446570D01*
X6614570Y4066430D02*
X6637430Y4043570D01*
X6637430Y4066430D02*
X6614570Y4043570D01*
X6665872Y6507430D02*
X6688732Y6484570D01*
X6688732Y6507430D02*
X6665872Y6484570D01*
X6666524Y2105430D02*
X6689384Y2082570D01*
X6689384Y2105430D02*
X6666524Y2082570D01*
X6666570Y8710430D02*
X6689430Y8687570D01*
X6689430Y8710430D02*
X6666570Y8687570D01*
X6666570Y4307430D02*
X6689430Y4284570D01*
X6689430Y4307430D02*
X6666570Y4284570D01*
X6691872Y5663430D02*
X6714732Y5640570D01*
X6714732Y5663430D02*
X6691872Y5640570D01*
X6692524Y1261430D02*
X6715384Y1238570D01*
X6715384Y1261430D02*
X6692524Y1238570D01*
X6692570Y7866430D02*
X6715430Y7843570D01*
X6715430Y7866430D02*
X6692570Y7843570D01*
X6692570Y3463430D02*
X6715430Y3440570D01*
X6715430Y3463430D02*
X6692570Y3440570D01*
X6699872Y6343430D02*
X6722732Y6320570D01*
X6722732Y6343430D02*
X6699872Y6320570D01*
X6700524Y1941430D02*
X6723384Y1918570D01*
X6723384Y1941430D02*
X6700524Y1918570D01*
X6700570Y8546430D02*
X6723430Y8523570D01*
X6723430Y8546430D02*
X6700570Y8523570D01*
X6700570Y4143430D02*
X6723430Y4120570D01*
X6723430Y4143430D02*
X6700570Y4120570D01*
X6717144Y6277391D02*
X6740004Y6254531D01*
X6740004Y6277391D02*
X6717144Y6254531D01*
X6717796Y1875391D02*
X6740656Y1852531D01*
X6740656Y1875391D02*
X6717796Y1852531D01*
X6717842Y8480391D02*
X6740702Y8457531D01*
X6740702Y8480391D02*
X6717842Y8457531D01*
X6717842Y4077391D02*
X6740702Y4054531D01*
X6740702Y4077391D02*
X6717842Y4054531D01*
X6776872Y5676430D02*
X6799732Y5653570D01*
X6799732Y5676430D02*
X6776872Y5653570D01*
X6777524Y1274430D02*
X6800384Y1251570D01*
X6800384Y1274430D02*
X6777524Y1251570D01*
X6777570Y7879430D02*
X6800430Y7856570D01*
X6800430Y7879430D02*
X6777570Y7856570D01*
X6777570Y3476430D02*
X6800430Y3453570D01*
X6800430Y3476430D02*
X6777570Y3453570D01*
X6788872Y5920430D02*
X6811732Y5897570D01*
X6811732Y5920430D02*
X6788872Y5897570D01*
X6789524Y1518430D02*
X6812384Y1495570D01*
X6812384Y1518430D02*
X6789524Y1495570D01*
X6789570Y8123430D02*
X6812430Y8100570D01*
X6812430Y8123430D02*
X6789570Y8100570D01*
X6789570Y3720430D02*
X6812430Y3697570D01*
X6812430Y3720430D02*
X6789570Y3697570D01*
X6789872Y6963430D02*
X6812732Y6940570D01*
X6812732Y6963430D02*
X6789872Y6940570D01*
X6789872Y5063430D02*
X6812732Y5040570D01*
X6812732Y5063430D02*
X6789872Y5040570D01*
X6790524Y2561430D02*
X6813384Y2538570D01*
X6813384Y2561430D02*
X6790524Y2538570D01*
X6790524Y661430D02*
X6813384Y638570D01*
X6813384Y661430D02*
X6790524Y638570D01*
X6790570Y9166430D02*
X6813430Y9143570D01*
X6813430Y9166430D02*
X6790570Y9143570D01*
X6790570Y7266430D02*
X6813430Y7243570D01*
X6813430Y7266430D02*
X6790570Y7243570D01*
X6790570Y4763430D02*
X6813430Y4740570D01*
X6813430Y4763430D02*
X6790570Y4740570D01*
X6790570Y2863430D02*
X6813430Y2840570D01*
X6813430Y2863430D02*
X6790570Y2840570D01*
X6791872Y5997430D02*
X6814732Y5974570D01*
X6814732Y5997430D02*
X6791872Y5974570D01*
X6792524Y1595430D02*
X6815384Y1572570D01*
X6815384Y1595430D02*
X6792524Y1572570D01*
X6792570Y8200430D02*
X6815430Y8177570D01*
X6815430Y8200430D02*
X6792570Y8177570D01*
X6792570Y3797430D02*
X6815430Y3774570D01*
X6815430Y3797430D02*
X6792570Y3774570D01*
X6794872Y5763430D02*
X6817732Y5740570D01*
X6817732Y5763430D02*
X6794872Y5740570D01*
X6795524Y1361430D02*
X6818384Y1338570D01*
X6818384Y1361430D02*
X6795524Y1338570D01*
X6795570Y7966430D02*
X6818430Y7943570D01*
X6818430Y7966430D02*
X6795570Y7943570D01*
X6795570Y3563430D02*
X6818430Y3540570D01*
X6818430Y3563430D02*
X6795570Y3540570D01*
X6824872Y6100430D02*
X6847732Y6077570D01*
X6847732Y6100430D02*
X6824872Y6077570D01*
X6825524Y1698430D02*
X6848384Y1675570D01*
X6848384Y1698430D02*
X6825524Y1675570D01*
X6825570Y8303430D02*
X6848430Y8280570D01*
X6848430Y8303430D02*
X6825570Y8280570D01*
X6825570Y3900430D02*
X6848430Y3877570D01*
X6848430Y3900430D02*
X6825570Y3877570D01*
X6939872Y6813430D02*
X6962732Y6790570D01*
X6962732Y6813430D02*
X6939872Y6790570D01*
X6939872Y6613430D02*
X6962732Y6590570D01*
X6962732Y6613430D02*
X6939872Y6590570D01*
X6939872Y6413430D02*
X6962732Y6390570D01*
X6962732Y6413430D02*
X6939872Y6390570D01*
X6939872Y6213430D02*
X6962732Y6190570D01*
X6962732Y6213430D02*
X6939872Y6190570D01*
X6939872Y6013430D02*
X6962732Y5990570D01*
X6962732Y6013430D02*
X6939872Y5990570D01*
X6939872Y5813430D02*
X6962732Y5790570D01*
X6962732Y5813430D02*
X6939872Y5790570D01*
X6939872Y5613430D02*
X6962732Y5590570D01*
X6962732Y5613430D02*
X6939872Y5590570D01*
X6939872Y5413430D02*
X6962732Y5390570D01*
X6962732Y5413430D02*
X6939872Y5390570D01*
X6939872Y5213430D02*
X6962732Y5190570D01*
X6962732Y5213430D02*
X6939872Y5190570D01*
X6940524Y2411430D02*
X6963384Y2388570D01*
X6963384Y2411430D02*
X6940524Y2388570D01*
X6940524Y2211430D02*
X6963384Y2188570D01*
X6963384Y2211430D02*
X6940524Y2188570D01*
X6940524Y2011430D02*
X6963384Y1988570D01*
X6963384Y2011430D02*
X6940524Y1988570D01*
X6940524Y1811430D02*
X6963384Y1788570D01*
X6963384Y1811430D02*
X6940524Y1788570D01*
X6940524Y1611430D02*
X6963384Y1588570D01*
X6963384Y1611430D02*
X6940524Y1588570D01*
X6940524Y1411430D02*
X6963384Y1388570D01*
X6963384Y1411430D02*
X6940524Y1388570D01*
X6940524Y1211430D02*
X6963384Y1188570D01*
X6963384Y1211430D02*
X6940524Y1188570D01*
X6940524Y1011430D02*
X6963384Y988570D01*
X6963384Y1011430D02*
X6940524Y988570D01*
X6940524Y811430D02*
X6963384Y788570D01*
X6963384Y811430D02*
X6940524Y788570D01*
X6940570Y9016430D02*
X6963430Y8993570D01*
X6963430Y9016430D02*
X6940570Y8993570D01*
X6940570Y8816430D02*
X6963430Y8793570D01*
X6963430Y8816430D02*
X6940570Y8793570D01*
X6940570Y8616430D02*
X6963430Y8593570D01*
X6963430Y8616430D02*
X6940570Y8593570D01*
X6940570Y8416430D02*
X6963430Y8393570D01*
X6963430Y8416430D02*
X6940570Y8393570D01*
X6940570Y8216430D02*
X6963430Y8193570D01*
X6963430Y8216430D02*
X6940570Y8193570D01*
X6940570Y8016430D02*
X6963430Y7993570D01*
X6963430Y8016430D02*
X6940570Y7993570D01*
X6940570Y7816430D02*
X6963430Y7793570D01*
X6963430Y7816430D02*
X6940570Y7793570D01*
X6940570Y7616430D02*
X6963430Y7593570D01*
X6963430Y7616430D02*
X6940570Y7593570D01*
X6940570Y7416430D02*
X6963430Y7393570D01*
X6963430Y7416430D02*
X6940570Y7393570D01*
X6940570Y4613430D02*
X6963430Y4590570D01*
X6963430Y4613430D02*
X6940570Y4590570D01*
X6940570Y4413430D02*
X6963430Y4390570D01*
X6963430Y4413430D02*
X6940570Y4390570D01*
X6940570Y4213430D02*
X6963430Y4190570D01*
X6963430Y4213430D02*
X6940570Y4190570D01*
X6940570Y4013430D02*
X6963430Y3990570D01*
X6963430Y4013430D02*
X6940570Y3990570D01*
X6940570Y3813430D02*
X6963430Y3790570D01*
X6963430Y3813430D02*
X6940570Y3790570D01*
X6940570Y3613430D02*
X6963430Y3590570D01*
X6963430Y3613430D02*
X6940570Y3590570D01*
X6940570Y3413430D02*
X6963430Y3390570D01*
X6963430Y3413430D02*
X6940570Y3390570D01*
X6940570Y3213430D02*
X6963430Y3190570D01*
X6963430Y3213430D02*
X6940570Y3190570D01*
X6940570Y3013430D02*
X6963430Y2990570D01*
X6963430Y3013430D02*
X6940570Y2990570D01*
X7240570Y9013430D02*
X7263430Y8990570D01*
X7263430Y9013430D02*
X7240570Y8990570D01*
X7240570Y8813430D02*
X7263430Y8790570D01*
X7263430Y8813430D02*
X7240570Y8790570D01*
X7240570Y8613430D02*
X7263430Y8590570D01*
X7263430Y8613430D02*
X7240570Y8590570D01*
X7240570Y8413430D02*
X7263430Y8390570D01*
X7263430Y8413430D02*
X7240570Y8390570D01*
X7240570Y8213430D02*
X7263430Y8190570D01*
X7263430Y8213430D02*
X7240570Y8190570D01*
X7240570Y8013430D02*
X7263430Y7990570D01*
X7263430Y8013430D02*
X7240570Y7990570D01*
X7240570Y7813430D02*
X7263430Y7790570D01*
X7263430Y7813430D02*
X7240570Y7790570D01*
X7240570Y7613430D02*
X7263430Y7590570D01*
X7263430Y7613430D02*
X7240570Y7590570D01*
X7240570Y7413430D02*
X7263430Y7390570D01*
X7263430Y7413430D02*
X7240570Y7390570D01*
X7240570Y6814294D02*
X7263430Y6791434D01*
X7263430Y6814294D02*
X7240570Y6791434D01*
X7240570Y6614294D02*
X7263430Y6591434D01*
X7263430Y6614294D02*
X7240570Y6591434D01*
X7240570Y6414294D02*
X7263430Y6391434D01*
X7263430Y6414294D02*
X7240570Y6391434D01*
X7240570Y6214294D02*
X7263430Y6191434D01*
X7263430Y6214294D02*
X7240570Y6191434D01*
X7240570Y6014294D02*
X7263430Y5991434D01*
X7263430Y6014294D02*
X7240570Y5991434D01*
X7240570Y5814294D02*
X7263430Y5791434D01*
X7263430Y5814294D02*
X7240570Y5791434D01*
X7240570Y5614294D02*
X7263430Y5591434D01*
X7263430Y5614294D02*
X7240570Y5591434D01*
X7240570Y5414294D02*
X7263430Y5391434D01*
X7263430Y5414294D02*
X7240570Y5391434D01*
X7240570Y5214294D02*
X7263430Y5191434D01*
X7263430Y5214294D02*
X7240570Y5191434D01*
X7240570Y4613430D02*
X7263430Y4590570D01*
X7263430Y4613430D02*
X7240570Y4590570D01*
X7240570Y4413430D02*
X7263430Y4390570D01*
X7263430Y4413430D02*
X7240570Y4390570D01*
X7240570Y4213430D02*
X7263430Y4190570D01*
X7263430Y4213430D02*
X7240570Y4190570D01*
X7240570Y4013430D02*
X7263430Y3990570D01*
X7263430Y4013430D02*
X7240570Y3990570D01*
X7240570Y3813430D02*
X7263430Y3790570D01*
X7263430Y3813430D02*
X7240570Y3790570D01*
X7240570Y3613430D02*
X7263430Y3590570D01*
X7263430Y3613430D02*
X7240570Y3590570D01*
X7240570Y3413430D02*
X7263430Y3390570D01*
X7263430Y3413430D02*
X7240570Y3390570D01*
X7240570Y3213430D02*
X7263430Y3190570D01*
X7263430Y3213430D02*
X7240570Y3190570D01*
X7240570Y3013430D02*
X7263430Y2990570D01*
X7263430Y3013430D02*
X7240570Y2990570D01*
X7240570Y2413430D02*
X7263430Y2390570D01*
X7263430Y2413430D02*
X7240570Y2390570D01*
X7240570Y2213430D02*
X7263430Y2190570D01*
X7263430Y2213430D02*
X7240570Y2190570D01*
X7240570Y2013430D02*
X7263430Y1990570D01*
X7263430Y2013430D02*
X7240570Y1990570D01*
X7240570Y1813430D02*
X7263430Y1790570D01*
X7263430Y1813430D02*
X7240570Y1790570D01*
X7240570Y1613430D02*
X7263430Y1590570D01*
X7263430Y1613430D02*
X7240570Y1590570D01*
X7240570Y1413430D02*
X7263430Y1390570D01*
X7263430Y1413430D02*
X7240570Y1390570D01*
X7240570Y1213430D02*
X7263430Y1190570D01*
X7263430Y1213430D02*
X7240570Y1190570D01*
X7240570Y1013430D02*
X7263430Y990570D01*
X7263430Y1013430D02*
X7240570Y990570D01*
X7240570Y813430D02*
X7263430Y790570D01*
X7263430Y813430D02*
X7240570Y790570D01*
X7312570Y8500430D02*
X7335430Y8477570D01*
X7335430Y8500430D02*
X7312570Y8477570D01*
X7312570Y6301294D02*
X7335430Y6278434D01*
X7335430Y6301294D02*
X7312570Y6278434D01*
X7312570Y4100430D02*
X7335430Y4077570D01*
X7335430Y4100430D02*
X7312570Y4077570D01*
X7312570Y1900430D02*
X7335430Y1877570D01*
X7335430Y1900430D02*
X7312570Y1877570D01*
X7390570Y9163430D02*
X7413430Y9140570D01*
X7413430Y9163430D02*
X7390570Y9140570D01*
X7390570Y7263430D02*
X7413430Y7240570D01*
X7413430Y7263430D02*
X7390570Y7240570D01*
X7390570Y6964294D02*
X7413430Y6941434D01*
X7413430Y6964294D02*
X7390570Y6941434D01*
X7390570Y5064294D02*
X7413430Y5041434D01*
X7413430Y5064294D02*
X7390570Y5041434D01*
X7390570Y4763430D02*
X7413430Y4740570D01*
X7413430Y4763430D02*
X7390570Y4740570D01*
X7390570Y2863430D02*
X7413430Y2840570D01*
X7413430Y2863430D02*
X7390570Y2840570D01*
X7390570Y2563430D02*
X7413430Y2540570D01*
X7413430Y2563430D02*
X7390570Y2540570D01*
X7390570Y663430D02*
X7413430Y640570D01*
X7413430Y663430D02*
X7390570Y640570D01*
X7590570Y9163430D02*
X7613430Y9140570D01*
X7613430Y9163430D02*
X7590570Y9140570D01*
X7590570Y7263430D02*
X7613430Y7240570D01*
X7613430Y7263430D02*
X7590570Y7240570D01*
X7590570Y6964294D02*
X7613430Y6941434D01*
X7613430Y6964294D02*
X7590570Y6941434D01*
X7590570Y5064294D02*
X7613430Y5041434D01*
X7613430Y5064294D02*
X7590570Y5041434D01*
X7590570Y4763430D02*
X7613430Y4740570D01*
X7613430Y4763430D02*
X7590570Y4740570D01*
X7590570Y2863430D02*
X7613430Y2840570D01*
X7613430Y2863430D02*
X7590570Y2840570D01*
X7590570Y2563430D02*
X7613430Y2540570D01*
X7613430Y2563430D02*
X7590570Y2540570D01*
X7590570Y663430D02*
X7613430Y640570D01*
X7613430Y663430D02*
X7590570Y640570D01*
X7664885Y8425745D02*
X7687745Y8402885D01*
X7687745Y8425745D02*
X7664885Y8402885D01*
X7664885Y6226609D02*
X7687745Y6203749D01*
X7687745Y6226609D02*
X7664885Y6203749D01*
X7664885Y4025745D02*
X7687745Y4002885D01*
X7687745Y4025745D02*
X7664885Y4002885D01*
X7664885Y1825745D02*
X7687745Y1802885D01*
X7687745Y1825745D02*
X7664885Y1802885D01*
X7748090Y8381136D02*
X7770950Y8358276D01*
X7770950Y8381136D02*
X7748090Y8358276D01*
X7748090Y6182001D02*
X7770950Y6159141D01*
X7770950Y6182001D02*
X7748090Y6159141D01*
X7748090Y3981136D02*
X7770950Y3958276D01*
X7770950Y3981136D02*
X7748090Y3958276D01*
X7748090Y1781137D02*
X7770950Y1758277D01*
X7770950Y1781137D02*
X7748090Y1758277D01*
X7778860Y7987430D02*
X7801720Y7964570D01*
X7801720Y7987430D02*
X7778860Y7964570D01*
X7778860Y5788294D02*
X7801720Y5765434D01*
X7801720Y5788294D02*
X7778860Y5765434D01*
X7778860Y3587430D02*
X7801720Y3564570D01*
X7801720Y3587430D02*
X7778860Y3564570D01*
X7778860Y1387430D02*
X7801720Y1364570D01*
X7801720Y1387430D02*
X7778860Y1364570D01*
X7779043Y8171376D02*
X7801903Y8148516D01*
X7801903Y8171376D02*
X7779043Y8148516D01*
X7779043Y5972241D02*
X7801903Y5949381D01*
X7801903Y5972241D02*
X7779043Y5949381D01*
X7779043Y3771376D02*
X7801903Y3748516D01*
X7801903Y3771376D02*
X7779043Y3748516D01*
X7779043Y1571376D02*
X7801903Y1548516D01*
X7801903Y1571376D02*
X7779043Y1548516D01*
X7790570Y9163430D02*
X7813430Y9140570D01*
X7813430Y9163430D02*
X7790570Y9140570D01*
X7790570Y7263430D02*
X7813430Y7240570D01*
X7813430Y7263430D02*
X7790570Y7240570D01*
X7790570Y6964294D02*
X7813430Y6941434D01*
X7813430Y6964294D02*
X7790570Y6941434D01*
X7790570Y5064294D02*
X7813430Y5041434D01*
X7813430Y5064294D02*
X7790570Y5041434D01*
X7790570Y4763430D02*
X7813430Y4740570D01*
X7813430Y4763430D02*
X7790570Y4740570D01*
X7790570Y2863430D02*
X7813430Y2840570D01*
X7813430Y2863430D02*
X7790570Y2840570D01*
X7790570Y2563430D02*
X7813430Y2540570D01*
X7813430Y2563430D02*
X7790570Y2540570D01*
X7790570Y663430D02*
X7813430Y640570D01*
X7813430Y663430D02*
X7790570Y640570D01*
X7796570Y8459430D02*
X7819430Y8436570D01*
X7819430Y8459430D02*
X7796570Y8436570D01*
X7796570Y6260294D02*
X7819430Y6237434D01*
X7819430Y6260294D02*
X7796570Y6237434D01*
X7796570Y4059430D02*
X7819430Y4036570D01*
X7819430Y4059430D02*
X7796570Y4036570D01*
X7796570Y1859430D02*
X7819430Y1836570D01*
X7819430Y1859430D02*
X7796570Y1836570D01*
X7801570Y8824430D02*
X7824430Y8801570D01*
X7824430Y8824430D02*
X7801570Y8801570D01*
X7801570Y6625294D02*
X7824430Y6602434D01*
X7824430Y6625294D02*
X7801570Y6602434D01*
X7801570Y4424430D02*
X7824430Y4401570D01*
X7824430Y4424430D02*
X7801570Y4401570D01*
X7801570Y2224430D02*
X7824430Y2201570D01*
X7824430Y2224430D02*
X7801570Y2201570D01*
X7806796Y8526920D02*
X7829656Y8504060D01*
X7829656Y8526920D02*
X7806796Y8504060D01*
X7806796Y6327784D02*
X7829656Y6304924D01*
X7829656Y6327784D02*
X7806796Y6304924D01*
X7806796Y4126920D02*
X7829656Y4104060D01*
X7829656Y4126920D02*
X7806796Y4104060D01*
X7806796Y1926920D02*
X7829656Y1904060D01*
X7829656Y1926920D02*
X7806796Y1904060D01*
X7815070Y8237930D02*
X7837930Y8215070D01*
X7837930Y8237930D02*
X7815070Y8215070D01*
X7815070Y6038794D02*
X7837930Y6015934D01*
X7837930Y6038794D02*
X7815070Y6015934D01*
X7815070Y3837930D02*
X7837930Y3815070D01*
X7837930Y3837930D02*
X7815070Y3815070D01*
X7815070Y1637930D02*
X7837930Y1615070D01*
X7837930Y1637930D02*
X7815070Y1615070D01*
X7838570Y7926430D02*
X7861430Y7903570D01*
X7861430Y7926430D02*
X7838570Y7903570D01*
X7838570Y5727294D02*
X7861430Y5704434D01*
X7861430Y5727294D02*
X7838570Y5704434D01*
X7838570Y3526430D02*
X7861430Y3503570D01*
X7861430Y3526430D02*
X7838570Y3503570D01*
X7838570Y1326430D02*
X7861430Y1303570D01*
X7861430Y1326430D02*
X7838570Y1303570D01*
X7846570Y8054430D02*
X7869430Y8031570D01*
X7869430Y8054430D02*
X7846570Y8031570D01*
X7846570Y5855294D02*
X7869430Y5832434D01*
X7869430Y5855294D02*
X7846570Y5832434D01*
X7846570Y3654430D02*
X7869430Y3631570D01*
X7869430Y3654430D02*
X7846570Y3631570D01*
X7846570Y1454430D02*
X7869430Y1431570D01*
X7869430Y1454430D02*
X7846570Y1431570D01*
X7850570Y9032430D02*
X7873430Y9009570D01*
X7873430Y9032430D02*
X7850570Y9009570D01*
X7850570Y6833294D02*
X7873430Y6810434D01*
X7873430Y6833294D02*
X7850570Y6810434D01*
X7850570Y4632430D02*
X7873430Y4609570D01*
X7873430Y4632430D02*
X7850570Y4609570D01*
X7850570Y2432430D02*
X7873430Y2409570D01*
X7873430Y2432430D02*
X7850570Y2409570D01*
X7904570Y8627430D02*
X7927430Y8604570D01*
X7927430Y8627430D02*
X7904570Y8604570D01*
X7904570Y6428294D02*
X7927430Y6405434D01*
X7927430Y6428294D02*
X7904570Y6405434D01*
X7904570Y4227430D02*
X7927430Y4204570D01*
X7927430Y4227430D02*
X7904570Y4204570D01*
X7904570Y2027430D02*
X7927430Y2004570D01*
X7927430Y2027430D02*
X7904570Y2004570D01*
X7990570Y9163430D02*
X8013430Y9140570D01*
X8013430Y9163430D02*
X7990570Y9140570D01*
X7990570Y7263430D02*
X8013430Y7240570D01*
X8013430Y7263430D02*
X7990570Y7240570D01*
X7990570Y6964294D02*
X8013430Y6941434D01*
X8013430Y6964294D02*
X7990570Y6941434D01*
X7990570Y5064294D02*
X8013430Y5041434D01*
X8013430Y5064294D02*
X7990570Y5041434D01*
X7990570Y4763430D02*
X8013430Y4740570D01*
X8013430Y4763430D02*
X7990570Y4740570D01*
X7990570Y2863430D02*
X8013430Y2840570D01*
X8013430Y2863430D02*
X7990570Y2840570D01*
X7990570Y2563430D02*
X8013430Y2540570D01*
X8013430Y2563430D02*
X7990570Y2540570D01*
X7990570Y663430D02*
X8013430Y640570D01*
X8013430Y663430D02*
X7990570Y640570D01*
X8015570Y7652430D02*
X8038430Y7629570D01*
X8038430Y7652430D02*
X8015570Y7629570D01*
X8015570Y5453294D02*
X8038430Y5430434D01*
X8038430Y5453294D02*
X8015570Y5430434D01*
X8015570Y3252430D02*
X8038430Y3229570D01*
X8038430Y3252430D02*
X8015570Y3229570D01*
X8015570Y1052430D02*
X8038430Y1029570D01*
X8038430Y1052430D02*
X8015570Y1029570D01*
X8028070Y8073430D02*
X8050930Y8050570D01*
X8050930Y8073430D02*
X8028070Y8050570D01*
X8028070Y5874294D02*
X8050930Y5851434D01*
X8050930Y5874294D02*
X8028070Y5851434D01*
X8028070Y3673430D02*
X8050930Y3650570D01*
X8050930Y3673430D02*
X8028070Y3650570D01*
X8028070Y1473430D02*
X8050930Y1450570D01*
X8050930Y1473430D02*
X8028070Y1450570D01*
X8087154Y8313195D02*
X8110014Y8290335D01*
X8110014Y8313195D02*
X8087154Y8290335D01*
X8087154Y6114060D02*
X8110014Y6091200D01*
X8110014Y6114060D02*
X8087154Y6091200D01*
X8087154Y3913195D02*
X8110014Y3890335D01*
X8110014Y3913195D02*
X8087154Y3890335D01*
X8087154Y1713196D02*
X8110014Y1690336D01*
X8110014Y1713196D02*
X8087154Y1690336D01*
X8109570Y8916430D02*
X8132430Y8893570D01*
X8132430Y8916430D02*
X8109570Y8893570D01*
X8109570Y6717294D02*
X8132430Y6694434D01*
X8132430Y6717294D02*
X8109570Y6694434D01*
X8109570Y4516430D02*
X8132430Y4493570D01*
X8132430Y4516430D02*
X8109570Y4493570D01*
X8109570Y2316430D02*
X8132430Y2293570D01*
X8132430Y2316430D02*
X8109570Y2293570D01*
X8158070Y8314560D02*
X8180930Y8291700D01*
X8180930Y8314560D02*
X8158070Y8291700D01*
X8158070Y6115424D02*
X8180930Y6092564D01*
X8180930Y6115424D02*
X8158070Y6092564D01*
X8158070Y3914560D02*
X8180930Y3891700D01*
X8180930Y3914560D02*
X8158070Y3891700D01*
X8158070Y1714560D02*
X8180930Y1691700D01*
X8180930Y1714560D02*
X8158070Y1691700D01*
X8181570Y8744430D02*
X8204430Y8721570D01*
X8204430Y8744430D02*
X8181570Y8721570D01*
X8181570Y6545294D02*
X8204430Y6522434D01*
X8204430Y6545294D02*
X8181570Y6522434D01*
X8181570Y4344430D02*
X8204430Y4321570D01*
X8204430Y4344430D02*
X8181570Y4321570D01*
X8181570Y2144430D02*
X8204430Y2121570D01*
X8204430Y2144430D02*
X8181570Y2121570D01*
X8190570Y9163430D02*
X8213430Y9140570D01*
X8213430Y9163430D02*
X8190570Y9140570D01*
X8190570Y7263430D02*
X8213430Y7240570D01*
X8213430Y7263430D02*
X8190570Y7240570D01*
X8190570Y6964294D02*
X8213430Y6941434D01*
X8213430Y6964294D02*
X8190570Y6941434D01*
X8190570Y5064294D02*
X8213430Y5041434D01*
X8213430Y5064294D02*
X8190570Y5041434D01*
X8190570Y4763430D02*
X8213430Y4740570D01*
X8213430Y4763430D02*
X8190570Y4740570D01*
X8190570Y2863430D02*
X8213430Y2840570D01*
X8213430Y2863430D02*
X8190570Y2840570D01*
X8190570Y2563430D02*
X8213430Y2540570D01*
X8213430Y2563430D02*
X8190570Y2540570D01*
X8190570Y663430D02*
X8213430Y640570D01*
X8213430Y663430D02*
X8190570Y640570D01*
X8252570Y7626800D02*
X8275430Y7603940D01*
X8275430Y7626800D02*
X8252570Y7603940D01*
X8252570Y5427664D02*
X8275430Y5404804D01*
X8275430Y5427664D02*
X8252570Y5404804D01*
X8252570Y3226800D02*
X8275430Y3203940D01*
X8275430Y3226800D02*
X8252570Y3203940D01*
X8252570Y1026800D02*
X8275430Y1003940D01*
X8275430Y1026800D02*
X8252570Y1003940D01*
X8273570Y8331430D02*
X8296430Y8308570D01*
X8296430Y8331430D02*
X8273570Y8308570D01*
X8273570Y6132294D02*
X8296430Y6109434D01*
X8296430Y6132294D02*
X8273570Y6109434D01*
X8273570Y3931430D02*
X8296430Y3908570D01*
X8296430Y3931430D02*
X8273570Y3908570D01*
X8273570Y1731430D02*
X8296430Y1708570D01*
X8296430Y1731430D02*
X8273570Y1708570D01*
X8348570Y8324430D02*
X8371430Y8301570D01*
X8371430Y8324430D02*
X8348570Y8301570D01*
X8348570Y6125294D02*
X8371430Y6102434D01*
X8371430Y6125294D02*
X8348570Y6102434D01*
X8348570Y3924430D02*
X8371430Y3901570D01*
X8371430Y3924430D02*
X8348570Y3901570D01*
X8348570Y1724430D02*
X8371430Y1701570D01*
X8371430Y1724430D02*
X8348570Y1701570D01*
X8378950Y8137995D02*
X8401810Y8115135D01*
X8401810Y8137995D02*
X8378950Y8115135D01*
X8378950Y5938860D02*
X8401810Y5916000D01*
X8401810Y5938860D02*
X8378950Y5916000D01*
X8378950Y3737995D02*
X8401810Y3715135D01*
X8401810Y3737995D02*
X8378950Y3715135D01*
X8378950Y1537996D02*
X8401810Y1515136D01*
X8401810Y1537996D02*
X8378950Y1515136D01*
X8390570Y9163430D02*
X8413430Y9140570D01*
X8413430Y9163430D02*
X8390570Y9140570D01*
X8390570Y7263430D02*
X8413430Y7240570D01*
X8413430Y7263430D02*
X8390570Y7240570D01*
X8390570Y6964294D02*
X8413430Y6941434D01*
X8413430Y6964294D02*
X8390570Y6941434D01*
X8390570Y5064294D02*
X8413430Y5041434D01*
X8413430Y5064294D02*
X8390570Y5041434D01*
X8390570Y4763430D02*
X8413430Y4740570D01*
X8413430Y4763430D02*
X8390570Y4740570D01*
X8390570Y2863430D02*
X8413430Y2840570D01*
X8413430Y2863430D02*
X8390570Y2840570D01*
X8390570Y2563430D02*
X8413430Y2540570D01*
X8413430Y2563430D02*
X8390570Y2540570D01*
X8390570Y663430D02*
X8413430Y640570D01*
X8413430Y663430D02*
X8390570Y640570D01*
X8397570Y8273430D02*
X8420430Y8250570D01*
X8420430Y8273430D02*
X8397570Y8250570D01*
X8397570Y6074294D02*
X8420430Y6051434D01*
X8420430Y6074294D02*
X8397570Y6051434D01*
X8397570Y3873430D02*
X8420430Y3850570D01*
X8420430Y3873430D02*
X8397570Y3850570D01*
X8397570Y1673430D02*
X8420430Y1650570D01*
X8420430Y1673430D02*
X8397570Y1650570D01*
X8427570Y8687430D02*
X8450430Y8664570D01*
X8450430Y8687430D02*
X8427570Y8664570D01*
X8427570Y6488294D02*
X8450430Y6465434D01*
X8450430Y6488294D02*
X8427570Y6465434D01*
X8427570Y4287430D02*
X8450430Y4264570D01*
X8450430Y4287430D02*
X8427570Y4264570D01*
X8427570Y2087430D02*
X8450430Y2064570D01*
X8450430Y2087430D02*
X8427570Y2064570D01*
X8431570Y8930930D02*
X8454430Y8908070D01*
X8454430Y8930930D02*
X8431570Y8908070D01*
X8431570Y6731794D02*
X8454430Y6708934D01*
X8454430Y6731794D02*
X8431570Y6708934D01*
X8431570Y4530930D02*
X8454430Y4508070D01*
X8454430Y4530930D02*
X8431570Y4508070D01*
X8431570Y2330930D02*
X8454430Y2308070D01*
X8454430Y2330930D02*
X8431570Y2308070D01*
X8447570Y8785430D02*
X8470430Y8762570D01*
X8470430Y8785430D02*
X8447570Y8762570D01*
X8447570Y6586294D02*
X8470430Y6563434D01*
X8470430Y6586294D02*
X8447570Y6563434D01*
X8447570Y4385430D02*
X8470430Y4362570D01*
X8470430Y4385430D02*
X8447570Y4362570D01*
X8447570Y2185430D02*
X8470430Y2162570D01*
X8470430Y2185430D02*
X8447570Y2162570D01*
X8516477Y8741523D02*
X8539337Y8718663D01*
X8539337Y8741523D02*
X8516477Y8718663D01*
X8516477Y6542387D02*
X8539337Y6519527D01*
X8539337Y6542387D02*
X8516477Y6519527D01*
X8516477Y4341523D02*
X8539337Y4318663D01*
X8539337Y4341523D02*
X8516477Y4318663D01*
X8516477Y2141523D02*
X8539337Y2118663D01*
X8539337Y2141523D02*
X8516477Y2118663D01*
X8535884Y8662230D02*
X8558744Y8639370D01*
X8558744Y8662230D02*
X8535884Y8639370D01*
X8535884Y6463095D02*
X8558744Y6440235D01*
X8558744Y6463095D02*
X8535884Y6440235D01*
X8535884Y4262230D02*
X8558744Y4239370D01*
X8558744Y4262230D02*
X8535884Y4239370D01*
X8535884Y2062230D02*
X8558744Y2039370D01*
X8558744Y2062230D02*
X8535884Y2039370D01*
X8548570Y8479430D02*
X8571430Y8456570D01*
X8571430Y8479430D02*
X8548570Y8456570D01*
X8548570Y6280294D02*
X8571430Y6257434D01*
X8571430Y6280294D02*
X8548570Y6257434D01*
X8548570Y4079430D02*
X8571430Y4056570D01*
X8571430Y4079430D02*
X8548570Y4056570D01*
X8548570Y1879430D02*
X8571430Y1856570D01*
X8571430Y1879430D02*
X8548570Y1856570D01*
X8552670Y7925430D02*
X8575530Y7902570D01*
X8575530Y7925430D02*
X8552670Y7902570D01*
X8552670Y5726294D02*
X8575530Y5703434D01*
X8575530Y5726294D02*
X8552670Y5703434D01*
X8552670Y3525430D02*
X8575530Y3502570D01*
X8575530Y3525430D02*
X8552670Y3502570D01*
X8552670Y1325430D02*
X8575530Y1302570D01*
X8575530Y1325430D02*
X8552670Y1302570D01*
X8561570Y8928430D02*
X8584430Y8905570D01*
X8584430Y8928430D02*
X8561570Y8905570D01*
X8561570Y6729294D02*
X8584430Y6706434D01*
X8584430Y6729294D02*
X8561570Y6706434D01*
X8561570Y4528430D02*
X8584430Y4505570D01*
X8584430Y4528430D02*
X8561570Y4505570D01*
X8561570Y2328430D02*
X8584430Y2305570D01*
X8584430Y2328430D02*
X8561570Y2305570D01*
X8569749Y8240962D02*
X8592609Y8218102D01*
X8592609Y8240962D02*
X8569749Y8218102D01*
X8569749Y6041826D02*
X8592609Y6018966D01*
X8592609Y6041826D02*
X8569749Y6018966D01*
X8569749Y3840962D02*
X8592609Y3818102D01*
X8592609Y3840962D02*
X8569749Y3818102D01*
X8569749Y1640962D02*
X8592609Y1618102D01*
X8592609Y1640962D02*
X8569749Y1618102D01*
X8570570Y8079430D02*
X8593430Y8056570D01*
X8593430Y8079430D02*
X8570570Y8056570D01*
X8570570Y5880294D02*
X8593430Y5857434D01*
X8593430Y5880294D02*
X8570570Y5857434D01*
X8570570Y3679430D02*
X8593430Y3656570D01*
X8593430Y3679430D02*
X8570570Y3656570D01*
X8570570Y1479430D02*
X8593430Y1456570D01*
X8593430Y1479430D02*
X8570570Y1456570D01*
X8572097Y8157501D02*
X8594957Y8134641D01*
X8594957Y8157501D02*
X8572097Y8134641D01*
X8572097Y5958365D02*
X8594957Y5935505D01*
X8594957Y5958365D02*
X8572097Y5935505D01*
X8572097Y3757501D02*
X8594957Y3734641D01*
X8594957Y3757501D02*
X8572097Y3734641D01*
X8572097Y1557501D02*
X8594957Y1534641D01*
X8594957Y1557501D02*
X8572097Y1534641D01*
X8590570Y9163430D02*
X8613430Y9140570D01*
X8613430Y9163430D02*
X8590570Y9140570D01*
X8590570Y7263430D02*
X8613430Y7240570D01*
X8613430Y7263430D02*
X8590570Y7240570D01*
X8590570Y6964294D02*
X8613430Y6941434D01*
X8613430Y6964294D02*
X8590570Y6941434D01*
X8590570Y5064294D02*
X8613430Y5041434D01*
X8613430Y5064294D02*
X8590570Y5041434D01*
X8590570Y4763430D02*
X8613430Y4740570D01*
X8613430Y4763430D02*
X8590570Y4740570D01*
X8590570Y2863430D02*
X8613430Y2840570D01*
X8613430Y2863430D02*
X8590570Y2840570D01*
X8590570Y2563430D02*
X8613430Y2540570D01*
X8613430Y2563430D02*
X8590570Y2540570D01*
X8590570Y663430D02*
X8613430Y640570D01*
X8613430Y663430D02*
X8590570Y640570D01*
X8623265Y7963065D02*
X8646125Y7940205D01*
X8646125Y7963065D02*
X8623265Y7940205D01*
X8623265Y5763930D02*
X8646125Y5741070D01*
X8646125Y5763930D02*
X8623265Y5741070D01*
X8623265Y3563065D02*
X8646125Y3540205D01*
X8646125Y3563065D02*
X8623265Y3540205D01*
X8623265Y1363065D02*
X8646125Y1340205D01*
X8646125Y1363065D02*
X8623265Y1340205D01*
X8631570Y7331430D02*
X8654430Y7308570D01*
X8654430Y7331430D02*
X8631570Y7308570D01*
X8631570Y5132294D02*
X8654430Y5109434D01*
X8654430Y5132294D02*
X8631570Y5109434D01*
X8631570Y2931430D02*
X8654430Y2908570D01*
X8654430Y2931430D02*
X8631570Y2908570D01*
X8631570Y731430D02*
X8654430Y708570D01*
X8654430Y731430D02*
X8631570Y708570D01*
X8636194Y8316180D02*
X8659054Y8293320D01*
X8659054Y8316180D02*
X8636194Y8293320D01*
X8636194Y6117044D02*
X8659054Y6094184D01*
X8659054Y6117044D02*
X8636194Y6094184D01*
X8636194Y3916180D02*
X8659054Y3893320D01*
X8659054Y3916180D02*
X8636194Y3893320D01*
X8636194Y1716180D02*
X8659054Y1693320D01*
X8659054Y1716180D02*
X8636194Y1693320D01*
X8638764Y8241132D02*
X8661624Y8218272D01*
X8661624Y8241132D02*
X8638764Y8218272D01*
X8638764Y6041997D02*
X8661624Y6019137D01*
X8661624Y6041997D02*
X8638764Y6019137D01*
X8638764Y3841132D02*
X8661624Y3818272D01*
X8661624Y3841132D02*
X8638764Y3818272D01*
X8638764Y1641132D02*
X8661624Y1618272D01*
X8661624Y1641132D02*
X8638764Y1618272D01*
X8641570Y8108430D02*
X8664430Y8085570D01*
X8664430Y8108430D02*
X8641570Y8085570D01*
X8641570Y5909294D02*
X8664430Y5886434D01*
X8664430Y5909294D02*
X8641570Y5886434D01*
X8641570Y3708430D02*
X8664430Y3685570D01*
X8664430Y3708430D02*
X8641570Y3685570D01*
X8641570Y1508430D02*
X8664430Y1485570D01*
X8664430Y1508430D02*
X8641570Y1485570D01*
X8675570Y8543003D02*
X8698430Y8520143D01*
X8698430Y8543003D02*
X8675570Y8520143D01*
X8675570Y6343867D02*
X8698430Y6321007D01*
X8698430Y6343867D02*
X8675570Y6321007D01*
X8675570Y4143003D02*
X8698430Y4120143D01*
X8698430Y4143003D02*
X8675570Y4120143D01*
X8675570Y1943003D02*
X8698430Y1920143D01*
X8698430Y1943003D02*
X8675570Y1920143D01*
X8687570Y8933430D02*
X8710430Y8910570D01*
X8710430Y8933430D02*
X8687570Y8910570D01*
X8687570Y6734294D02*
X8710430Y6711434D01*
X8710430Y6734294D02*
X8687570Y6711434D01*
X8687570Y4533430D02*
X8710430Y4510570D01*
X8710430Y4533430D02*
X8687570Y4510570D01*
X8687570Y2333430D02*
X8710430Y2310570D01*
X8710430Y2333430D02*
X8687570Y2310570D01*
X8790570Y9163430D02*
X8813430Y9140570D01*
X8813430Y9163430D02*
X8790570Y9140570D01*
X8790570Y7263430D02*
X8813430Y7240570D01*
X8813430Y7263430D02*
X8790570Y7240570D01*
X8790570Y6964294D02*
X8813430Y6941434D01*
X8813430Y6964294D02*
X8790570Y6941434D01*
X8790570Y5064294D02*
X8813430Y5041434D01*
X8813430Y5064294D02*
X8790570Y5041434D01*
X8790570Y4763430D02*
X8813430Y4740570D01*
X8813430Y4763430D02*
X8790570Y4740570D01*
X8790570Y2863430D02*
X8813430Y2840570D01*
X8813430Y2863430D02*
X8790570Y2840570D01*
X8790570Y2563430D02*
X8813430Y2540570D01*
X8813430Y2563430D02*
X8790570Y2540570D01*
X8790570Y663430D02*
X8813430Y640570D01*
X8813430Y663430D02*
X8790570Y640570D01*
X8814070Y8928560D02*
X8836930Y8905700D01*
X8836930Y8928560D02*
X8814070Y8905700D01*
X8814070Y6729424D02*
X8836930Y6706564D01*
X8836930Y6729424D02*
X8814070Y6706564D01*
X8814070Y4528560D02*
X8836930Y4505700D01*
X8836930Y4528560D02*
X8814070Y4505700D01*
X8814070Y2328560D02*
X8836930Y2305700D01*
X8836930Y2328560D02*
X8814070Y2305700D01*
X8814570Y8466430D02*
X8837430Y8443570D01*
X8837430Y8466430D02*
X8814570Y8443570D01*
X8814570Y6267294D02*
X8837430Y6244434D01*
X8837430Y6267294D02*
X8814570Y6244434D01*
X8814570Y4066430D02*
X8837430Y4043570D01*
X8837430Y4066430D02*
X8814570Y4043570D01*
X8814570Y1866430D02*
X8837430Y1843570D01*
X8837430Y1866430D02*
X8814570Y1843570D01*
X8866570Y8707430D02*
X8889430Y8684570D01*
X8889430Y8707430D02*
X8866570Y8684570D01*
X8866570Y6508294D02*
X8889430Y6485434D01*
X8889430Y6508294D02*
X8866570Y6485434D01*
X8866570Y4307430D02*
X8889430Y4284570D01*
X8889430Y4307430D02*
X8866570Y4284570D01*
X8866570Y2107430D02*
X8889430Y2084570D01*
X8889430Y2107430D02*
X8866570Y2084570D01*
X8892570Y7863430D02*
X8915430Y7840570D01*
X8915430Y7863430D02*
X8892570Y7840570D01*
X8892570Y5664294D02*
X8915430Y5641434D01*
X8915430Y5664294D02*
X8892570Y5641434D01*
X8892570Y3463430D02*
X8915430Y3440570D01*
X8915430Y3463430D02*
X8892570Y3440570D01*
X8892570Y1263430D02*
X8915430Y1240570D01*
X8915430Y1263430D02*
X8892570Y1240570D01*
X8900570Y8543430D02*
X8923430Y8520570D01*
X8923430Y8543430D02*
X8900570Y8520570D01*
X8900570Y6344294D02*
X8923430Y6321434D01*
X8923430Y6344294D02*
X8900570Y6321434D01*
X8900570Y4143430D02*
X8923430Y4120570D01*
X8923430Y4143430D02*
X8900570Y4120570D01*
X8900570Y1943430D02*
X8923430Y1920570D01*
X8923430Y1943430D02*
X8900570Y1920570D01*
X8917842Y8477391D02*
X8940702Y8454531D01*
X8940702Y8477391D02*
X8917842Y8454531D01*
X8917842Y6278255D02*
X8940702Y6255395D01*
X8940702Y6278255D02*
X8917842Y6255395D01*
X8917842Y4077391D02*
X8940702Y4054531D01*
X8940702Y4077391D02*
X8917842Y4054531D01*
X8917842Y1877391D02*
X8940702Y1854531D01*
X8940702Y1877391D02*
X8917842Y1854531D01*
X8977570Y7876430D02*
X9000430Y7853570D01*
X9000430Y7876430D02*
X8977570Y7853570D01*
X8977570Y5677294D02*
X9000430Y5654434D01*
X9000430Y5677294D02*
X8977570Y5654434D01*
X8977570Y3476430D02*
X9000430Y3453570D01*
X9000430Y3476430D02*
X8977570Y3453570D01*
X8977570Y1276430D02*
X9000430Y1253570D01*
X9000430Y1276430D02*
X8977570Y1253570D01*
X8989570Y8120430D02*
X9012430Y8097570D01*
X9012430Y8120430D02*
X8989570Y8097570D01*
X8989570Y5921294D02*
X9012430Y5898434D01*
X9012430Y5921294D02*
X8989570Y5898434D01*
X8989570Y3720430D02*
X9012430Y3697570D01*
X9012430Y3720430D02*
X8989570Y3697570D01*
X8989570Y1520430D02*
X9012430Y1497570D01*
X9012430Y1520430D02*
X8989570Y1497570D01*
X8990570Y9163430D02*
X9013430Y9140570D01*
X9013430Y9163430D02*
X8990570Y9140570D01*
X8990570Y7263430D02*
X9013430Y7240570D01*
X9013430Y7263430D02*
X8990570Y7240570D01*
X8990570Y6964294D02*
X9013430Y6941434D01*
X9013430Y6964294D02*
X8990570Y6941434D01*
X8990570Y5064294D02*
X9013430Y5041434D01*
X9013430Y5064294D02*
X8990570Y5041434D01*
X8990570Y4763430D02*
X9013430Y4740570D01*
X9013430Y4763430D02*
X8990570Y4740570D01*
X8990570Y2863430D02*
X9013430Y2840570D01*
X9013430Y2863430D02*
X8990570Y2840570D01*
X8990570Y2563430D02*
X9013430Y2540570D01*
X9013430Y2563430D02*
X8990570Y2540570D01*
X8990570Y663430D02*
X9013430Y640570D01*
X9013430Y663430D02*
X8990570Y640570D01*
X8992570Y8197430D02*
X9015430Y8174570D01*
X9015430Y8197430D02*
X8992570Y8174570D01*
X8992570Y5998294D02*
X9015430Y5975434D01*
X9015430Y5998294D02*
X8992570Y5975434D01*
X8992570Y3797430D02*
X9015430Y3774570D01*
X9015430Y3797430D02*
X8992570Y3774570D01*
X8992570Y1597430D02*
X9015430Y1574570D01*
X9015430Y1597430D02*
X8992570Y1574570D01*
X8995570Y7963430D02*
X9018430Y7940570D01*
X9018430Y7963430D02*
X8995570Y7940570D01*
X8995570Y5764294D02*
X9018430Y5741434D01*
X9018430Y5764294D02*
X8995570Y5741434D01*
X8995570Y3563430D02*
X9018430Y3540570D01*
X9018430Y3563430D02*
X8995570Y3540570D01*
X8995570Y1363430D02*
X9018430Y1340570D01*
X9018430Y1363430D02*
X8995570Y1340570D01*
X9025570Y8300430D02*
X9048430Y8277570D01*
X9048430Y8300430D02*
X9025570Y8277570D01*
X9025570Y6101294D02*
X9048430Y6078434D01*
X9048430Y6101294D02*
X9025570Y6078434D01*
X9025570Y3900430D02*
X9048430Y3877570D01*
X9048430Y3900430D02*
X9025570Y3877570D01*
X9025570Y1700430D02*
X9048430Y1677570D01*
X9048430Y1700430D02*
X9025570Y1677570D01*
X9140570Y9013430D02*
X9163430Y8990570D01*
X9163430Y9013430D02*
X9140570Y8990570D01*
X9140570Y8813430D02*
X9163430Y8790570D01*
X9163430Y8813430D02*
X9140570Y8790570D01*
X9140570Y8613430D02*
X9163430Y8590570D01*
X9163430Y8613430D02*
X9140570Y8590570D01*
X9140570Y8413430D02*
X9163430Y8390570D01*
X9163430Y8413430D02*
X9140570Y8390570D01*
X9140570Y8213430D02*
X9163430Y8190570D01*
X9163430Y8213430D02*
X9140570Y8190570D01*
X9140570Y8013430D02*
X9163430Y7990570D01*
X9163430Y8013430D02*
X9140570Y7990570D01*
X9140570Y7813430D02*
X9163430Y7790570D01*
X9163430Y7813430D02*
X9140570Y7790570D01*
X9140570Y7613430D02*
X9163430Y7590570D01*
X9163430Y7613430D02*
X9140570Y7590570D01*
X9140570Y7413430D02*
X9163430Y7390570D01*
X9163430Y7413430D02*
X9140570Y7390570D01*
X9140570Y6814294D02*
X9163430Y6791434D01*
X9163430Y6814294D02*
X9140570Y6791434D01*
X9140570Y6614294D02*
X9163430Y6591434D01*
X9163430Y6614294D02*
X9140570Y6591434D01*
X9140570Y6414294D02*
X9163430Y6391434D01*
X9163430Y6414294D02*
X9140570Y6391434D01*
X9140570Y6214294D02*
X9163430Y6191434D01*
X9163430Y6214294D02*
X9140570Y6191434D01*
X9140570Y6014294D02*
X9163430Y5991434D01*
X9163430Y6014294D02*
X9140570Y5991434D01*
X9140570Y5814294D02*
X9163430Y5791434D01*
X9163430Y5814294D02*
X9140570Y5791434D01*
X9140570Y5614294D02*
X9163430Y5591434D01*
X9163430Y5614294D02*
X9140570Y5591434D01*
X9140570Y5414294D02*
X9163430Y5391434D01*
X9163430Y5414294D02*
X9140570Y5391434D01*
X9140570Y5214294D02*
X9163430Y5191434D01*
X9163430Y5214294D02*
X9140570Y5191434D01*
X9140570Y4613430D02*
X9163430Y4590570D01*
X9163430Y4613430D02*
X9140570Y4590570D01*
X9140570Y4413430D02*
X9163430Y4390570D01*
X9163430Y4413430D02*
X9140570Y4390570D01*
X9140570Y4213430D02*
X9163430Y4190570D01*
X9163430Y4213430D02*
X9140570Y4190570D01*
X9140570Y4013430D02*
X9163430Y3990570D01*
X9163430Y4013430D02*
X9140570Y3990570D01*
X9140570Y3813430D02*
X9163430Y3790570D01*
X9163430Y3813430D02*
X9140570Y3790570D01*
X9140570Y3613430D02*
X9163430Y3590570D01*
X9163430Y3613430D02*
X9140570Y3590570D01*
X9140570Y3413430D02*
X9163430Y3390570D01*
X9163430Y3413430D02*
X9140570Y3390570D01*
X9140570Y3213430D02*
X9163430Y3190570D01*
X9163430Y3213430D02*
X9140570Y3190570D01*
X9140570Y3013430D02*
X9163430Y2990570D01*
X9163430Y3013430D02*
X9140570Y2990570D01*
X9140570Y2413430D02*
X9163430Y2390570D01*
X9163430Y2413430D02*
X9140570Y2390570D01*
X9140570Y2213430D02*
X9163430Y2190570D01*
X9163430Y2213430D02*
X9140570Y2190570D01*
X9140570Y2013430D02*
X9163430Y1990570D01*
X9163430Y2013430D02*
X9140570Y1990570D01*
X9140570Y1813430D02*
X9163430Y1790570D01*
X9163430Y1813430D02*
X9140570Y1790570D01*
X9140570Y1613430D02*
X9163430Y1590570D01*
X9163430Y1613430D02*
X9140570Y1590570D01*
X9140570Y1413430D02*
X9163430Y1390570D01*
X9163430Y1413430D02*
X9140570Y1390570D01*
X9140570Y1213430D02*
X9163430Y1190570D01*
X9163430Y1213430D02*
X9140570Y1190570D01*
X9140570Y1013430D02*
X9163430Y990570D01*
X9163430Y1013430D02*
X9140570Y990570D01*
X9140570Y813430D02*
X9163430Y790570D01*
X9163430Y813430D02*
X9140570Y790570D01*
X1597739Y5581000D02*
G75*
G02*
X1567739Y5581000I-15000J0D01*
G01*
X1567739Y5581000D02*
G75*
G02*
X1597739Y5581000I15000J0D01*
G01*
X1603000Y1181000D02*
G75*
G02*
X1573000Y1181000I-15000J0D01*
G01*
X1573000Y1181000D02*
G75*
G02*
X1603000Y1181000I15000J0D01*
G01*
X1605000Y3383000D02*
G75*
G02*
X1575000Y3383000I-15000J0D01*
G01*
X1575000Y3383000D02*
G75*
G02*
X1605000Y3383000I15000J0D01*
G01*
X1610875Y7785000D02*
G75*
G02*
X1580875Y7785000I-15000J0D01*
G01*
X1580875Y7785000D02*
G75*
G02*
X1610875Y7785000I15000J0D01*
G01*
X1970739Y5520000D02*
G75*
G02*
X1940739Y5520000I-15000J0D01*
G01*
X1940739Y5520000D02*
G75*
G02*
X1970739Y5520000I15000J0D01*
G01*
X1976000Y1120000D02*
G75*
G02*
X1946000Y1120000I-15000J0D01*
G01*
X1946000Y1120000D02*
G75*
G02*
X1976000Y1120000I15000J0D01*
G01*
X1978000Y3322000D02*
G75*
G02*
X1948000Y3322000I-15000J0D01*
G01*
X1948000Y3322000D02*
G75*
G02*
X1978000Y3322000I15000J0D01*
G01*
X1983875Y7724000D02*
G75*
G02*
X1953875Y7724000I-15000J0D01*
G01*
X1953875Y7724000D02*
G75*
G02*
X1983875Y7724000I15000J0D01*
G01*
X3803000Y5581000D02*
G75*
G02*
X3773000Y5581000I-15000J0D01*
G01*
X3773000Y5581000D02*
G75*
G02*
X3803000Y5581000I15000J0D01*
G01*
X3805000Y7783000D02*
G75*
G02*
X3775000Y7783000I-15000J0D01*
G01*
X3775000Y7783000D02*
G75*
G02*
X3805000Y7783000I15000J0D01*
G01*
X3805000Y3383000D02*
G75*
G02*
X3775000Y3383000I-15000J0D01*
G01*
X3775000Y3383000D02*
G75*
G02*
X3805000Y3383000I15000J0D01*
G01*
X3805000Y1183000D02*
G75*
G02*
X3775000Y1183000I-15000J0D01*
G01*
X3775000Y1183000D02*
G75*
G02*
X3805000Y1183000I15000J0D01*
G01*
X4176000Y5520000D02*
G75*
G02*
X4146000Y5520000I-15000J0D01*
G01*
X4146000Y5520000D02*
G75*
G02*
X4176000Y5520000I15000J0D01*
G01*
X4178000Y7722000D02*
G75*
G02*
X4148000Y7722000I-15000J0D01*
G01*
X4148000Y7722000D02*
G75*
G02*
X4178000Y7722000I15000J0D01*
G01*
X4178000Y3322000D02*
G75*
G02*
X4148000Y3322000I-15000J0D01*
G01*
X4148000Y3322000D02*
G75*
G02*
X4178000Y3322000I15000J0D01*
G01*
X4178000Y1122000D02*
G75*
G02*
X4148000Y1122000I-15000J0D01*
G01*
X4148000Y1122000D02*
G75*
G02*
X4178000Y1122000I15000J0D01*
G01*
X6004302Y5583000D02*
G75*
G02*
X5974302Y5583000I-15000J0D01*
G01*
X5974302Y5583000D02*
G75*
G02*
X6004302Y5583000I15000J0D01*
G01*
X6004954Y1181000D02*
G75*
G02*
X5974954Y1181000I-15000J0D01*
G01*
X5974954Y1181000D02*
G75*
G02*
X6004954Y1181000I15000J0D01*
G01*
X6005000Y7786000D02*
G75*
G02*
X5975000Y7786000I-15000J0D01*
G01*
X5975000Y7786000D02*
G75*
G02*
X6005000Y7786000I15000J0D01*
G01*
X6005000Y3383000D02*
G75*
G02*
X5975000Y3383000I-15000J0D01*
G01*
X5975000Y3383000D02*
G75*
G02*
X6005000Y3383000I15000J0D01*
G01*
X6377302Y5522000D02*
G75*
G02*
X6347302Y5522000I-15000J0D01*
G01*
X6347302Y5522000D02*
G75*
G02*
X6377302Y5522000I15000J0D01*
G01*
X6377954Y1120000D02*
G75*
G02*
X6347954Y1120000I-15000J0D01*
G01*
X6347954Y1120000D02*
G75*
G02*
X6377954Y1120000I15000J0D01*
G01*
X6378000Y7725000D02*
G75*
G02*
X6348000Y7725000I-15000J0D01*
G01*
X6348000Y7725000D02*
G75*
G02*
X6378000Y7725000I15000J0D01*
G01*
X6378000Y3322000D02*
G75*
G02*
X6348000Y3322000I-15000J0D01*
G01*
X6348000Y3322000D02*
G75*
G02*
X6378000Y3322000I15000J0D01*
G01*
X8205000Y7783000D02*
G75*
G02*
X8175000Y7783000I-15000J0D01*
G01*
X8175000Y7783000D02*
G75*
G02*
X8205000Y7783000I15000J0D01*
G01*
X8205000Y5583864D02*
G75*
G02*
X8175000Y5583864I-15000J0D01*
G01*
X8175000Y5583864D02*
G75*
G02*
X8205000Y5583864I15000J0D01*
G01*
X8205000Y3383000D02*
G75*
G02*
X8175000Y3383000I-15000J0D01*
G01*
X8175000Y3383000D02*
G75*
G02*
X8205000Y3383000I15000J0D01*
G01*
X8205000Y1183000D02*
G75*
G02*
X8175000Y1183000I-15000J0D01*
G01*
X8175000Y1183000D02*
G75*
G02*
X8205000Y1183000I15000J0D01*
G01*
X8578000Y7722000D02*
G75*
G02*
X8548000Y7722000I-15000J0D01*
G01*
X8548000Y7722000D02*
G75*
G02*
X8578000Y7722000I15000J0D01*
G01*
X8578000Y5522864D02*
G75*
G02*
X8548000Y5522864I-15000J0D01*
G01*
X8548000Y5522864D02*
G75*
G02*
X8578000Y5522864I15000J0D01*
G01*
X8578000Y3322000D02*
G75*
G02*
X8548000Y3322000I-15000J0D01*
G01*
X8548000Y3322000D02*
G75*
G02*
X8578000Y3322000I15000J0D01*
G01*
X8578000Y1122000D02*
G75*
G02*
X8548000Y1122000I-15000J0D01*
G01*
X8548000Y1122000D02*
G75*
G02*
X8578000Y1122000I15000J0D01*
G01*
X1030989Y5630000D02*
X1030989Y5570000D01*
X1000989Y5600000D02*
X1060989Y5600000D01*
X1030989Y5505000D02*
X1030989Y5445000D01*
X1000989Y5475000D02*
X1060989Y5475000D01*
X1030989Y5380000D02*
X1030989Y5320000D01*
X1000989Y5350000D02*
X1060989Y5350000D01*
X1030989Y5255000D02*
X1030989Y5195000D01*
X1000989Y5225000D02*
X1060989Y5225000D01*
X1036250Y1230000D02*
X1036250Y1170000D01*
X1006250Y1200000D02*
X1066250Y1200000D01*
X1036250Y1105000D02*
X1036250Y1045000D01*
X1006250Y1075000D02*
X1066250Y1075000D01*
X1036250Y980000D02*
X1036250Y920000D01*
X1006250Y950000D02*
X1066250Y950000D01*
X1036250Y855000D02*
X1036250Y795000D01*
X1006250Y825000D02*
X1066250Y825000D01*
X1038250Y3432000D02*
X1038250Y3372000D01*
X1008250Y3402000D02*
X1068250Y3402000D01*
X1038250Y3307000D02*
X1038250Y3247000D01*
X1008250Y3277000D02*
X1068250Y3277000D01*
X1038250Y3182000D02*
X1038250Y3122000D01*
X1008250Y3152000D02*
X1068250Y3152000D01*
X1038250Y3057000D02*
X1038250Y2997000D01*
X1008250Y3027000D02*
X1068250Y3027000D01*
X1044125Y7834000D02*
X1044125Y7774000D01*
X1014125Y7804000D02*
X1074125Y7804000D01*
X1044125Y7709000D02*
X1044125Y7649000D01*
X1014125Y7679000D02*
X1074125Y7679000D01*
X1044125Y7584000D02*
X1044125Y7524000D01*
X1014125Y7554000D02*
X1074125Y7554000D01*
X1044125Y7459000D02*
X1044125Y7399000D01*
X1014125Y7429000D02*
X1074125Y7429000D01*
X3236250Y5630000D02*
X3236250Y5570000D01*
X3206250Y5600000D02*
X3266250Y5600000D01*
X3236250Y5505000D02*
X3236250Y5445000D01*
X3206250Y5475000D02*
X3266250Y5475000D01*
X3236250Y5380000D02*
X3236250Y5320000D01*
X3206250Y5350000D02*
X3266250Y5350000D01*
X3236250Y5255000D02*
X3236250Y5195000D01*
X3206250Y5225000D02*
X3266250Y5225000D01*
X3238250Y7832000D02*
X3238250Y7772000D01*
X3208250Y7802000D02*
X3268250Y7802000D01*
X3238250Y7707000D02*
X3238250Y7647000D01*
X3208250Y7677000D02*
X3268250Y7677000D01*
X3238250Y7582000D02*
X3238250Y7522000D01*
X3208250Y7552000D02*
X3268250Y7552000D01*
X3238250Y7457000D02*
X3238250Y7397000D01*
X3208250Y7427000D02*
X3268250Y7427000D01*
X3238250Y3432000D02*
X3238250Y3372000D01*
X3208250Y3402000D02*
X3268250Y3402000D01*
X3238250Y3307000D02*
X3238250Y3247000D01*
X3208250Y3277000D02*
X3268250Y3277000D01*
X3238250Y3182000D02*
X3238250Y3122000D01*
X3208250Y3152000D02*
X3268250Y3152000D01*
X3238250Y3057000D02*
X3238250Y2997000D01*
X3208250Y3027000D02*
X3268250Y3027000D01*
X3238250Y1232000D02*
X3238250Y1172000D01*
X3208250Y1202000D02*
X3268250Y1202000D01*
X3238250Y1107000D02*
X3238250Y1047000D01*
X3208250Y1077000D02*
X3268250Y1077000D01*
X3238250Y982000D02*
X3238250Y922000D01*
X3208250Y952000D02*
X3268250Y952000D01*
X3238250Y857000D02*
X3238250Y797000D01*
X3208250Y827000D02*
X3268250Y827000D01*
X5437552Y5632000D02*
X5437552Y5572000D01*
X5407552Y5602000D02*
X5467552Y5602000D01*
X5437552Y5507000D02*
X5437552Y5447000D01*
X5407552Y5477000D02*
X5467552Y5477000D01*
X5437552Y5382000D02*
X5437552Y5322000D01*
X5407552Y5352000D02*
X5467552Y5352000D01*
X5437552Y5257000D02*
X5437552Y5197000D01*
X5407552Y5227000D02*
X5467552Y5227000D01*
X5438204Y1230000D02*
X5438204Y1170000D01*
X5408204Y1200000D02*
X5468204Y1200000D01*
X5438204Y1105000D02*
X5438204Y1045000D01*
X5408204Y1075000D02*
X5468204Y1075000D01*
X5438204Y980000D02*
X5438204Y920000D01*
X5408204Y950000D02*
X5468204Y950000D01*
X5438204Y855000D02*
X5438204Y795000D01*
X5408204Y825000D02*
X5468204Y825000D01*
X5438250Y7835000D02*
X5438250Y7775000D01*
X5408250Y7805000D02*
X5468250Y7805000D01*
X5438250Y7710000D02*
X5438250Y7650000D01*
X5408250Y7680000D02*
X5468250Y7680000D01*
X5438250Y7585000D02*
X5438250Y7525000D01*
X5408250Y7555000D02*
X5468250Y7555000D01*
X5438250Y7460000D02*
X5438250Y7400000D01*
X5408250Y7430000D02*
X5468250Y7430000D01*
X5438250Y3432000D02*
X5438250Y3372000D01*
X5408250Y3402000D02*
X5468250Y3402000D01*
X5438250Y3307000D02*
X5438250Y3247000D01*
X5408250Y3277000D02*
X5468250Y3277000D01*
X5438250Y3182000D02*
X5438250Y3122000D01*
X5408250Y3152000D02*
X5468250Y3152000D01*
X5438250Y3057000D02*
X5438250Y2997000D01*
X5408250Y3027000D02*
X5468250Y3027000D01*
X7638250Y7832000D02*
X7638250Y7772000D01*
X7608250Y7802000D02*
X7668250Y7802000D01*
X7638250Y7707000D02*
X7638250Y7647000D01*
X7608250Y7677000D02*
X7668250Y7677000D01*
X7638250Y7582000D02*
X7638250Y7522000D01*
X7608250Y7552000D02*
X7668250Y7552000D01*
X7638250Y7457000D02*
X7638250Y7397000D01*
X7608250Y7427000D02*
X7668250Y7427000D01*
X7638250Y5632864D02*
X7638250Y5572864D01*
X7608250Y5602864D02*
X7668250Y5602864D01*
X7638250Y5507864D02*
X7638250Y5447864D01*
X7608250Y5477864D02*
X7668250Y5477864D01*
X7638250Y5382864D02*
X7638250Y5322864D01*
X7608250Y5352864D02*
X7668250Y5352864D01*
X7638250Y5257864D02*
X7638250Y5197864D01*
X7608250Y5227864D02*
X7668250Y5227864D01*
X7638250Y3432000D02*
X7638250Y3372000D01*
X7608250Y3402000D02*
X7668250Y3402000D01*
X7638250Y3307000D02*
X7638250Y3247000D01*
X7608250Y3277000D02*
X7668250Y3277000D01*
X7638250Y3182000D02*
X7638250Y3122000D01*
X7608250Y3152000D02*
X7668250Y3152000D01*
X7638250Y3057000D02*
X7638250Y2997000D01*
X7608250Y3027000D02*
X7668250Y3027000D01*
X7638250Y1232000D02*
X7638250Y1172000D01*
X7608250Y1202000D02*
X7668250Y1202000D01*
X7638250Y1107000D02*
X7638250Y1047000D01*
X7608250Y1077000D02*
X7668250Y1077000D01*
X7638250Y982000D02*
X7638250Y922000D01*
X7608250Y952000D02*
X7668250Y952000D01*
X7638250Y857000D02*
X7638250Y797000D01*
X7608250Y827000D02*
X7668250Y827000D01*
D11*
X258277Y-313984D02*
X258277Y-113984D01*
X258277Y-113984D02*
X305896Y-113984D01*
X305896Y-113984D02*
X334467Y-123508D01*
X334467Y-123508D02*
X353515Y-142555D01*
X353515Y-142555D02*
X363039Y-161603D01*
X363039Y-161603D02*
X372562Y-199698D01*
X372562Y-199698D02*
X372562Y-228269D01*
X372562Y-228269D02*
X363039Y-266365D01*
X363039Y-266365D02*
X353515Y-285412D01*
X353515Y-285412D02*
X334467Y-304460D01*
X334467Y-304460D02*
X305896Y-313984D01*
X305896Y-313984D02*
X258277Y-313984D01*
X458277Y-313984D02*
X458277Y-180650D01*
X458277Y-218746D02*
X467801Y-199698D01*
X467801Y-199698D02*
X477324Y-190174D01*
X477324Y-190174D02*
X496372Y-180650D01*
X496372Y-180650D02*
X515420Y-180650D01*
X582086Y-313984D02*
X582086Y-180650D01*
X582086Y-113984D02*
X572563Y-123508D01*
X572563Y-123508D02*
X582086Y-133031D01*
X582086Y-133031D02*
X591610Y-123508D01*
X591610Y-123508D02*
X582086Y-113984D01*
X582086Y-113984D02*
X582086Y-133031D01*
X705896Y-313984D02*
X686848Y-304460D01*
X686848Y-304460D02*
X677324Y-285412D01*
X677324Y-285412D02*
X677324Y-113984D01*
X810658Y-313984D02*
X791610Y-304460D01*
X791610Y-304460D02*
X782086Y-285412D01*
X782086Y-285412D02*
X782086Y-113984D01*
X1039229Y-313984D02*
X1039229Y-113984D01*
X1039229Y-113984D02*
X1105896Y-256841D01*
X1105896Y-256841D02*
X1172563Y-113984D01*
X1172563Y-113984D02*
X1172563Y-313984D01*
X1353515Y-313984D02*
X1353515Y-209222D01*
X1353515Y-209222D02*
X1343991Y-190174D01*
X1343991Y-190174D02*
X1324944Y-180650D01*
X1324944Y-180650D02*
X1286848Y-180650D01*
X1286848Y-180650D02*
X1267801Y-190174D01*
X1353515Y-304460D02*
X1334467Y-313984D01*
X1334467Y-313984D02*
X1286848Y-313984D01*
X1286848Y-313984D02*
X1267801Y-304460D01*
X1267801Y-304460D02*
X1258277Y-285412D01*
X1258277Y-285412D02*
X1258277Y-266365D01*
X1258277Y-266365D02*
X1267801Y-247317D01*
X1267801Y-247317D02*
X1286848Y-237793D01*
X1286848Y-237793D02*
X1334467Y-237793D01*
X1334467Y-237793D02*
X1353515Y-228269D01*
X1448753Y-180650D02*
X1448753Y-380650D01*
X1448753Y-190174D02*
X1467801Y-180650D01*
X1467801Y-180650D02*
X1505896Y-180650D01*
X1505896Y-180650D02*
X1524943Y-190174D01*
X1524943Y-190174D02*
X1534467Y-199698D01*
X1534467Y-199698D02*
X1543991Y-218746D01*
X1543991Y-218746D02*
X1543991Y-275889D01*
X1543991Y-275889D02*
X1534467Y-294936D01*
X1534467Y-294936D02*
X1524943Y-304460D01*
X1524943Y-304460D02*
X1505896Y-313984D01*
X1505896Y-313984D02*
X1467801Y-313984D01*
X1467801Y-313984D02*
X1448753Y-304460D01*
X1629705Y-294936D02*
X1639229Y-304460D01*
X1639229Y-304460D02*
X1629705Y-313984D01*
X1629705Y-313984D02*
X1620182Y-304460D01*
X1620182Y-304460D02*
X1629705Y-294936D01*
X1629705Y-294936D02*
X1629705Y-313984D01*
X1629705Y-190174D02*
X1639229Y-199698D01*
X1639229Y-199698D02*
X1629705Y-209222D01*
X1629705Y-209222D02*
X1620182Y-199698D01*
X1620182Y-199698D02*
X1629705Y-190174D01*
X1629705Y-190174D02*
X1629705Y-209222D01*
D12*
X-25360Y-631070D02*
X-2500Y-653930D01*
X-2500Y-631070D02*
X-25360Y-653930D01*
D11*
X296372Y-533984D02*
X315420Y-533984D01*
X315420Y-533984D02*
X334467Y-543508D01*
X334467Y-543508D02*
X343991Y-553031D01*
X343991Y-553031D02*
X353515Y-572079D01*
X353515Y-572079D02*
X363039Y-610174D01*
X363039Y-610174D02*
X363039Y-657793D01*
X363039Y-657793D02*
X353515Y-695889D01*
X353515Y-695889D02*
X343991Y-714936D01*
X343991Y-714936D02*
X334467Y-724460D01*
X334467Y-724460D02*
X315420Y-733984D01*
X315420Y-733984D02*
X296372Y-733984D01*
X296372Y-733984D02*
X277324Y-724460D01*
X277324Y-724460D02*
X267801Y-714936D01*
X267801Y-714936D02*
X258277Y-695889D01*
X258277Y-695889D02*
X248753Y-657793D01*
X248753Y-657793D02*
X248753Y-610174D01*
X248753Y-610174D02*
X258277Y-572079D01*
X258277Y-572079D02*
X267801Y-553031D01*
X267801Y-553031D02*
X277324Y-543508D01*
X277324Y-543508D02*
X296372Y-533984D01*
X448753Y-714936D02*
X458277Y-724460D01*
X458277Y-724460D02*
X448753Y-733984D01*
X448753Y-733984D02*
X439229Y-724460D01*
X439229Y-724460D02*
X448753Y-714936D01*
X448753Y-714936D02*
X448753Y-733984D01*
X534467Y-553031D02*
X543991Y-543508D01*
X543991Y-543508D02*
X563039Y-533984D01*
X563039Y-533984D02*
X610658Y-533984D01*
X610658Y-533984D02*
X629705Y-543508D01*
X629705Y-543508D02*
X639229Y-553031D01*
X639229Y-553031D02*
X648753Y-572079D01*
X648753Y-572079D02*
X648753Y-591127D01*
X648753Y-591127D02*
X639229Y-619698D01*
X639229Y-619698D02*
X524944Y-733984D01*
X524944Y-733984D02*
X648753Y-733984D01*
X724943Y-553031D02*
X734467Y-543508D01*
X734467Y-543508D02*
X753515Y-533984D01*
X753515Y-533984D02*
X801134Y-533984D01*
X801134Y-533984D02*
X820182Y-543508D01*
X820182Y-543508D02*
X829705Y-553031D01*
X829705Y-553031D02*
X839229Y-572079D01*
X839229Y-572079D02*
X839229Y-591127D01*
X839229Y-591127D02*
X829705Y-619698D01*
X829705Y-619698D02*
X715420Y-733984D01*
X715420Y-733984D02*
X839229Y-733984D01*
X934467Y-733984D02*
X972562Y-733984D01*
X972562Y-733984D02*
X991610Y-724460D01*
X991610Y-724460D02*
X1001134Y-714936D01*
X1001134Y-714936D02*
X1020182Y-686365D01*
X1020182Y-686365D02*
X1029705Y-648270D01*
X1029705Y-648270D02*
X1029705Y-572079D01*
X1029705Y-572079D02*
X1020182Y-553031D01*
X1020182Y-553031D02*
X1010658Y-543508D01*
X1010658Y-543508D02*
X991610Y-533984D01*
X991610Y-533984D02*
X953515Y-533984D01*
X953515Y-533984D02*
X934467Y-543508D01*
X934467Y-543508D02*
X924943Y-553031D01*
X924943Y-553031D02*
X915420Y-572079D01*
X915420Y-572079D02*
X915420Y-619698D01*
X915420Y-619698D02*
X924943Y-638746D01*
X924943Y-638746D02*
X934467Y-648270D01*
X934467Y-648270D02*
X953515Y-657793D01*
X953515Y-657793D02*
X991610Y-657793D01*
X991610Y-657793D02*
X1010658Y-648270D01*
X1010658Y-648270D02*
X1020182Y-638746D01*
X1020182Y-638746D02*
X1029705Y-619698D01*
X1115420Y-733984D02*
X1115420Y-600650D01*
X1115420Y-619698D02*
X1124944Y-610174D01*
X1124944Y-610174D02*
X1143991Y-600650D01*
X1143991Y-600650D02*
X1172563Y-600650D01*
X1172563Y-600650D02*
X1191610Y-610174D01*
X1191610Y-610174D02*
X1201134Y-629222D01*
X1201134Y-629222D02*
X1201134Y-733984D01*
X1201134Y-629222D02*
X1210658Y-610174D01*
X1210658Y-610174D02*
X1229705Y-600650D01*
X1229705Y-600650D02*
X1258277Y-600650D01*
X1258277Y-600650D02*
X1277325Y-610174D01*
X1277325Y-610174D02*
X1286848Y-629222D01*
X1286848Y-629222D02*
X1286848Y-733984D01*
X1382086Y-733984D02*
X1382086Y-600650D01*
X1382086Y-619698D02*
X1391610Y-610174D01*
X1391610Y-610174D02*
X1410658Y-600650D01*
X1410658Y-600650D02*
X1439229Y-600650D01*
X1439229Y-600650D02*
X1458277Y-610174D01*
X1458277Y-610174D02*
X1467801Y-629222D01*
X1467801Y-629222D02*
X1467801Y-733984D01*
X1467801Y-629222D02*
X1477324Y-610174D01*
X1477324Y-610174D02*
X1496372Y-600650D01*
X1496372Y-600650D02*
X1524943Y-600650D01*
X1524943Y-600650D02*
X1543991Y-610174D01*
X1543991Y-610174D02*
X1553515Y-629222D01*
X1553515Y-629222D02*
X1553515Y-733984D01*
X1943991Y-524460D02*
X1772563Y-781603D01*
X2201134Y-533984D02*
X2220182Y-533984D01*
X2220182Y-533984D02*
X2239229Y-543508D01*
X2239229Y-543508D02*
X2248753Y-553031D01*
X2248753Y-553031D02*
X2258277Y-572079D01*
X2258277Y-572079D02*
X2267801Y-610174D01*
X2267801Y-610174D02*
X2267801Y-657793D01*
X2267801Y-657793D02*
X2258277Y-695889D01*
X2258277Y-695889D02*
X2248753Y-714936D01*
X2248753Y-714936D02*
X2239229Y-724460D01*
X2239229Y-724460D02*
X2220182Y-733984D01*
X2220182Y-733984D02*
X2201134Y-733984D01*
X2201134Y-733984D02*
X2182087Y-724460D01*
X2182087Y-724460D02*
X2172563Y-714936D01*
X2172563Y-714936D02*
X2163039Y-695889D01*
X2163039Y-695889D02*
X2153515Y-657793D01*
X2153515Y-657793D02*
X2153515Y-610174D01*
X2153515Y-610174D02*
X2163039Y-572079D01*
X2163039Y-572079D02*
X2172563Y-553031D01*
X2172563Y-553031D02*
X2182087Y-543508D01*
X2182087Y-543508D02*
X2201134Y-533984D01*
X2353515Y-714936D02*
X2363039Y-724460D01*
X2363039Y-724460D02*
X2353515Y-733984D01*
X2353515Y-733984D02*
X2343991Y-724460D01*
X2343991Y-724460D02*
X2353515Y-714936D01*
X2353515Y-714936D02*
X2353515Y-733984D01*
X2486848Y-533984D02*
X2505896Y-533984D01*
X2505896Y-533984D02*
X2524944Y-543508D01*
X2524944Y-543508D02*
X2534468Y-553031D01*
X2534468Y-553031D02*
X2543991Y-572079D01*
X2543991Y-572079D02*
X2553515Y-610174D01*
X2553515Y-610174D02*
X2553515Y-657793D01*
X2553515Y-657793D02*
X2543991Y-695889D01*
X2543991Y-695889D02*
X2534468Y-714936D01*
X2534468Y-714936D02*
X2524944Y-724460D01*
X2524944Y-724460D02*
X2505896Y-733984D01*
X2505896Y-733984D02*
X2486848Y-733984D01*
X2486848Y-733984D02*
X2467801Y-724460D01*
X2467801Y-724460D02*
X2458277Y-714936D01*
X2458277Y-714936D02*
X2448753Y-695889D01*
X2448753Y-695889D02*
X2439229Y-657793D01*
X2439229Y-657793D02*
X2439229Y-610174D01*
X2439229Y-610174D02*
X2448753Y-572079D01*
X2448753Y-572079D02*
X2458277Y-553031D01*
X2458277Y-553031D02*
X2467801Y-543508D01*
X2467801Y-543508D02*
X2486848Y-533984D01*
X2677325Y-533984D02*
X2696372Y-533984D01*
X2696372Y-533984D02*
X2715420Y-543508D01*
X2715420Y-543508D02*
X2724944Y-553031D01*
X2724944Y-553031D02*
X2734468Y-572079D01*
X2734468Y-572079D02*
X2743991Y-610174D01*
X2743991Y-610174D02*
X2743991Y-657793D01*
X2743991Y-657793D02*
X2734468Y-695889D01*
X2734468Y-695889D02*
X2724944Y-714936D01*
X2724944Y-714936D02*
X2715420Y-724460D01*
X2715420Y-724460D02*
X2696372Y-733984D01*
X2696372Y-733984D02*
X2677325Y-733984D01*
X2677325Y-733984D02*
X2658277Y-724460D01*
X2658277Y-724460D02*
X2648753Y-714936D01*
X2648753Y-714936D02*
X2639229Y-695889D01*
X2639229Y-695889D02*
X2629706Y-657793D01*
X2629706Y-657793D02*
X2629706Y-610174D01*
X2629706Y-610174D02*
X2639229Y-572079D01*
X2639229Y-572079D02*
X2648753Y-553031D01*
X2648753Y-553031D02*
X2658277Y-543508D01*
X2658277Y-543508D02*
X2677325Y-533984D01*
X2839229Y-733984D02*
X2877325Y-733984D01*
X2877325Y-733984D02*
X2896372Y-724460D01*
X2896372Y-724460D02*
X2905896Y-714936D01*
X2905896Y-714936D02*
X2924944Y-686365D01*
X2924944Y-686365D02*
X2934467Y-648270D01*
X2934467Y-648270D02*
X2934467Y-572079D01*
X2934467Y-572079D02*
X2924944Y-553031D01*
X2924944Y-553031D02*
X2915420Y-543508D01*
X2915420Y-543508D02*
X2896372Y-533984D01*
X2896372Y-533984D02*
X2858277Y-533984D01*
X2858277Y-533984D02*
X2839229Y-543508D01*
X2839229Y-543508D02*
X2829706Y-553031D01*
X2829706Y-553031D02*
X2820182Y-572079D01*
X2820182Y-572079D02*
X2820182Y-619698D01*
X2820182Y-619698D02*
X2829706Y-638746D01*
X2829706Y-638746D02*
X2839229Y-648270D01*
X2839229Y-648270D02*
X2858277Y-657793D01*
X2858277Y-657793D02*
X2896372Y-657793D01*
X2896372Y-657793D02*
X2915420Y-648270D01*
X2915420Y-648270D02*
X2924944Y-638746D01*
X2924944Y-638746D02*
X2934467Y-619698D01*
X3058277Y-533984D02*
X3077325Y-533984D01*
X3077325Y-533984D02*
X3096372Y-543508D01*
X3096372Y-543508D02*
X3105896Y-553031D01*
X3105896Y-553031D02*
X3115420Y-572079D01*
X3115420Y-572079D02*
X3124944Y-610174D01*
X3124944Y-610174D02*
X3124944Y-657793D01*
X3124944Y-657793D02*
X3115420Y-695889D01*
X3115420Y-695889D02*
X3105896Y-714936D01*
X3105896Y-714936D02*
X3096372Y-724460D01*
X3096372Y-724460D02*
X3077325Y-733984D01*
X3077325Y-733984D02*
X3058277Y-733984D01*
X3058277Y-733984D02*
X3039229Y-724460D01*
X3039229Y-724460D02*
X3029706Y-714936D01*
X3029706Y-714936D02*
X3020182Y-695889D01*
X3020182Y-695889D02*
X3010658Y-657793D01*
X3010658Y-657793D02*
X3010658Y-610174D01*
X3010658Y-610174D02*
X3020182Y-572079D01*
X3020182Y-572079D02*
X3029706Y-553031D01*
X3029706Y-553031D02*
X3039229Y-543508D01*
X3039229Y-543508D02*
X3058277Y-533984D01*
X3201134Y-533984D02*
X3201134Y-572079D01*
X3277325Y-533984D02*
X3277325Y-572079D01*
X3572563Y-810174D02*
X3563039Y-800650D01*
X3563039Y-800650D02*
X3543991Y-772079D01*
X3543991Y-772079D02*
X3534468Y-753031D01*
X3534468Y-753031D02*
X3524944Y-724460D01*
X3524944Y-724460D02*
X3515420Y-676841D01*
X3515420Y-676841D02*
X3515420Y-638746D01*
X3515420Y-638746D02*
X3524944Y-591127D01*
X3524944Y-591127D02*
X3534468Y-562555D01*
X3534468Y-562555D02*
X3543991Y-543508D01*
X3543991Y-543508D02*
X3563039Y-514936D01*
X3563039Y-514936D02*
X3572563Y-505412D01*
X3753515Y-733984D02*
X3639229Y-733984D01*
X3696372Y-733984D02*
X3696372Y-533984D01*
X3696372Y-533984D02*
X3677325Y-562555D01*
X3677325Y-562555D02*
X3658277Y-581603D01*
X3658277Y-581603D02*
X3639229Y-591127D01*
X3924944Y-600650D02*
X3924944Y-733984D01*
X3877325Y-524460D02*
X3829706Y-667317D01*
X3829706Y-667317D02*
X3953515Y-667317D01*
X4020182Y-553031D02*
X4029706Y-543508D01*
X4029706Y-543508D02*
X4048753Y-533984D01*
X4048753Y-533984D02*
X4096372Y-533984D01*
X4096372Y-533984D02*
X4115420Y-543508D01*
X4115420Y-543508D02*
X4124944Y-553031D01*
X4124944Y-553031D02*
X4134468Y-572079D01*
X4134468Y-572079D02*
X4134468Y-591127D01*
X4134468Y-591127D02*
X4124944Y-619698D01*
X4124944Y-619698D02*
X4010658Y-733984D01*
X4010658Y-733984D02*
X4134468Y-733984D01*
X4305896Y-600650D02*
X4305896Y-733984D01*
X4258277Y-524460D02*
X4210658Y-667317D01*
X4210658Y-667317D02*
X4334468Y-667317D01*
X4563039Y-733984D02*
X4563039Y-533984D01*
X4648753Y-733984D02*
X4648753Y-629222D01*
X4648753Y-629222D02*
X4639230Y-610174D01*
X4639230Y-610174D02*
X4620182Y-600650D01*
X4620182Y-600650D02*
X4591611Y-600650D01*
X4591611Y-600650D02*
X4572563Y-610174D01*
X4572563Y-610174D02*
X4563039Y-619698D01*
X4772563Y-733984D02*
X4753515Y-724460D01*
X4753515Y-724460D02*
X4743992Y-714936D01*
X4743992Y-714936D02*
X4734468Y-695889D01*
X4734468Y-695889D02*
X4734468Y-638746D01*
X4734468Y-638746D02*
X4743992Y-619698D01*
X4743992Y-619698D02*
X4753515Y-610174D01*
X4753515Y-610174D02*
X4772563Y-600650D01*
X4772563Y-600650D02*
X4801134Y-600650D01*
X4801134Y-600650D02*
X4820182Y-610174D01*
X4820182Y-610174D02*
X4829706Y-619698D01*
X4829706Y-619698D02*
X4839230Y-638746D01*
X4839230Y-638746D02*
X4839230Y-695889D01*
X4839230Y-695889D02*
X4829706Y-714936D01*
X4829706Y-714936D02*
X4820182Y-724460D01*
X4820182Y-724460D02*
X4801134Y-733984D01*
X4801134Y-733984D02*
X4772563Y-733984D01*
X4953515Y-733984D02*
X4934468Y-724460D01*
X4934468Y-724460D02*
X4924944Y-705412D01*
X4924944Y-705412D02*
X4924944Y-533984D01*
X5105896Y-724460D02*
X5086849Y-733984D01*
X5086849Y-733984D02*
X5048753Y-733984D01*
X5048753Y-733984D02*
X5029706Y-724460D01*
X5029706Y-724460D02*
X5020182Y-705412D01*
X5020182Y-705412D02*
X5020182Y-629222D01*
X5020182Y-629222D02*
X5029706Y-610174D01*
X5029706Y-610174D02*
X5048753Y-600650D01*
X5048753Y-600650D02*
X5086849Y-600650D01*
X5086849Y-600650D02*
X5105896Y-610174D01*
X5105896Y-610174D02*
X5115420Y-629222D01*
X5115420Y-629222D02*
X5115420Y-648270D01*
X5115420Y-648270D02*
X5020182Y-667317D01*
X5191611Y-724460D02*
X5210658Y-733984D01*
X5210658Y-733984D02*
X5248753Y-733984D01*
X5248753Y-733984D02*
X5267801Y-724460D01*
X5267801Y-724460D02*
X5277325Y-705412D01*
X5277325Y-705412D02*
X5277325Y-695889D01*
X5277325Y-695889D02*
X5267801Y-676841D01*
X5267801Y-676841D02*
X5248753Y-667317D01*
X5248753Y-667317D02*
X5220182Y-667317D01*
X5220182Y-667317D02*
X5201134Y-657793D01*
X5201134Y-657793D02*
X5191611Y-638746D01*
X5191611Y-638746D02*
X5191611Y-629222D01*
X5191611Y-629222D02*
X5201134Y-610174D01*
X5201134Y-610174D02*
X5220182Y-600650D01*
X5220182Y-600650D02*
X5248753Y-600650D01*
X5248753Y-600650D02*
X5267801Y-610174D01*
X5343992Y-810174D02*
X5353515Y-800650D01*
X5353515Y-800650D02*
X5372563Y-772079D01*
X5372563Y-772079D02*
X5382087Y-753031D01*
X5382087Y-753031D02*
X5391611Y-724460D01*
X5391611Y-724460D02*
X5401134Y-676841D01*
X5401134Y-676841D02*
X5401134Y-638746D01*
X5401134Y-638746D02*
X5391611Y-591127D01*
X5391611Y-591127D02*
X5382087Y-562555D01*
X5382087Y-562555D02*
X5372563Y-543508D01*
X5372563Y-543508D02*
X5353515Y-514936D01*
X5353515Y-514936D02*
X5343992Y-505412D01*
D12*
X-2500Y-906500D02*
G75*
G02*
X-32500Y-906500I-15000J0D01*
G01*
X-32500Y-906500D02*
G75*
G02*
X-2500Y-906500I15000J0D01*
G01*
D11*
X296372Y-797984D02*
X315420Y-797984D01*
X315420Y-797984D02*
X334467Y-807508D01*
X334467Y-807508D02*
X343991Y-817031D01*
X343991Y-817031D02*
X353515Y-836079D01*
X353515Y-836079D02*
X363039Y-874174D01*
X363039Y-874174D02*
X363039Y-921793D01*
X363039Y-921793D02*
X353515Y-959888D01*
X353515Y-959888D02*
X343991Y-978936D01*
X343991Y-978936D02*
X334467Y-988460D01*
X334467Y-988460D02*
X315420Y-997984D01*
X315420Y-997984D02*
X296372Y-997984D01*
X296372Y-997984D02*
X277324Y-988460D01*
X277324Y-988460D02*
X267801Y-978936D01*
X267801Y-978936D02*
X258277Y-959888D01*
X258277Y-959888D02*
X248753Y-921793D01*
X248753Y-921793D02*
X248753Y-874174D01*
X248753Y-874174D02*
X258277Y-836079D01*
X258277Y-836079D02*
X267801Y-817031D01*
X267801Y-817031D02*
X277324Y-807508D01*
X277324Y-807508D02*
X296372Y-797984D01*
X448753Y-978936D02*
X458277Y-988460D01*
X458277Y-988460D02*
X448753Y-997984D01*
X448753Y-997984D02*
X439229Y-988460D01*
X439229Y-988460D02*
X448753Y-978936D01*
X448753Y-978936D02*
X448753Y-997984D01*
X524944Y-797984D02*
X648753Y-797984D01*
X648753Y-797984D02*
X582086Y-874174D01*
X582086Y-874174D02*
X610658Y-874174D01*
X610658Y-874174D02*
X629705Y-883698D01*
X629705Y-883698D02*
X639229Y-893222D01*
X639229Y-893222D02*
X648753Y-912269D01*
X648753Y-912269D02*
X648753Y-959888D01*
X648753Y-959888D02*
X639229Y-978936D01*
X639229Y-978936D02*
X629705Y-988460D01*
X629705Y-988460D02*
X610658Y-997984D01*
X610658Y-997984D02*
X553515Y-997984D01*
X553515Y-997984D02*
X534467Y-988460D01*
X534467Y-988460D02*
X524944Y-978936D01*
X772562Y-797984D02*
X791610Y-797984D01*
X791610Y-797984D02*
X810658Y-807508D01*
X810658Y-807508D02*
X820182Y-817031D01*
X820182Y-817031D02*
X829705Y-836079D01*
X829705Y-836079D02*
X839229Y-874174D01*
X839229Y-874174D02*
X839229Y-921793D01*
X839229Y-921793D02*
X829705Y-959888D01*
X829705Y-959888D02*
X820182Y-978936D01*
X820182Y-978936D02*
X810658Y-988460D01*
X810658Y-988460D02*
X791610Y-997984D01*
X791610Y-997984D02*
X772562Y-997984D01*
X772562Y-997984D02*
X753515Y-988460D01*
X753515Y-988460D02*
X743991Y-978936D01*
X743991Y-978936D02*
X734467Y-959888D01*
X734467Y-959888D02*
X724943Y-921793D01*
X724943Y-921793D02*
X724943Y-874174D01*
X724943Y-874174D02*
X734467Y-836079D01*
X734467Y-836079D02*
X743991Y-817031D01*
X743991Y-817031D02*
X753515Y-807508D01*
X753515Y-807508D02*
X772562Y-797984D01*
X963039Y-797984D02*
X982086Y-797984D01*
X982086Y-797984D02*
X1001134Y-807508D01*
X1001134Y-807508D02*
X1010658Y-817031D01*
X1010658Y-817031D02*
X1020182Y-836079D01*
X1020182Y-836079D02*
X1029705Y-874174D01*
X1029705Y-874174D02*
X1029705Y-921793D01*
X1029705Y-921793D02*
X1020182Y-959888D01*
X1020182Y-959888D02*
X1010658Y-978936D01*
X1010658Y-978936D02*
X1001134Y-988460D01*
X1001134Y-988460D02*
X982086Y-997984D01*
X982086Y-997984D02*
X963039Y-997984D01*
X963039Y-997984D02*
X943991Y-988460D01*
X943991Y-988460D02*
X934467Y-978936D01*
X934467Y-978936D02*
X924943Y-959888D01*
X924943Y-959888D02*
X915420Y-921793D01*
X915420Y-921793D02*
X915420Y-874174D01*
X915420Y-874174D02*
X924943Y-836079D01*
X924943Y-836079D02*
X934467Y-817031D01*
X934467Y-817031D02*
X943991Y-807508D01*
X943991Y-807508D02*
X963039Y-797984D01*
X1115420Y-997984D02*
X1115420Y-864650D01*
X1115420Y-883698D02*
X1124944Y-874174D01*
X1124944Y-874174D02*
X1143991Y-864650D01*
X1143991Y-864650D02*
X1172563Y-864650D01*
X1172563Y-864650D02*
X1191610Y-874174D01*
X1191610Y-874174D02*
X1201134Y-893222D01*
X1201134Y-893222D02*
X1201134Y-997984D01*
X1201134Y-893222D02*
X1210658Y-874174D01*
X1210658Y-874174D02*
X1229705Y-864650D01*
X1229705Y-864650D02*
X1258277Y-864650D01*
X1258277Y-864650D02*
X1277325Y-874174D01*
X1277325Y-874174D02*
X1286848Y-893222D01*
X1286848Y-893222D02*
X1286848Y-997984D01*
X1382086Y-997984D02*
X1382086Y-864650D01*
X1382086Y-883698D02*
X1391610Y-874174D01*
X1391610Y-874174D02*
X1410658Y-864650D01*
X1410658Y-864650D02*
X1439229Y-864650D01*
X1439229Y-864650D02*
X1458277Y-874174D01*
X1458277Y-874174D02*
X1467801Y-893222D01*
X1467801Y-893222D02*
X1467801Y-997984D01*
X1467801Y-893222D02*
X1477324Y-874174D01*
X1477324Y-874174D02*
X1496372Y-864650D01*
X1496372Y-864650D02*
X1524943Y-864650D01*
X1524943Y-864650D02*
X1543991Y-874174D01*
X1543991Y-874174D02*
X1553515Y-893222D01*
X1553515Y-893222D02*
X1553515Y-997984D01*
X1943991Y-788460D02*
X1772563Y-1045603D01*
X2201134Y-797984D02*
X2220182Y-797984D01*
X2220182Y-797984D02*
X2239229Y-807508D01*
X2239229Y-807508D02*
X2248753Y-817031D01*
X2248753Y-817031D02*
X2258277Y-836079D01*
X2258277Y-836079D02*
X2267801Y-874174D01*
X2267801Y-874174D02*
X2267801Y-921793D01*
X2267801Y-921793D02*
X2258277Y-959888D01*
X2258277Y-959888D02*
X2248753Y-978936D01*
X2248753Y-978936D02*
X2239229Y-988460D01*
X2239229Y-988460D02*
X2220182Y-997984D01*
X2220182Y-997984D02*
X2201134Y-997984D01*
X2201134Y-997984D02*
X2182087Y-988460D01*
X2182087Y-988460D02*
X2172563Y-978936D01*
X2172563Y-978936D02*
X2163039Y-959888D01*
X2163039Y-959888D02*
X2153515Y-921793D01*
X2153515Y-921793D02*
X2153515Y-874174D01*
X2153515Y-874174D02*
X2163039Y-836079D01*
X2163039Y-836079D02*
X2172563Y-817031D01*
X2172563Y-817031D02*
X2182087Y-807508D01*
X2182087Y-807508D02*
X2201134Y-797984D01*
X2353515Y-978936D02*
X2363039Y-988460D01*
X2363039Y-988460D02*
X2353515Y-997984D01*
X2353515Y-997984D02*
X2343991Y-988460D01*
X2343991Y-988460D02*
X2353515Y-978936D01*
X2353515Y-978936D02*
X2353515Y-997984D01*
X2486848Y-797984D02*
X2505896Y-797984D01*
X2505896Y-797984D02*
X2524944Y-807508D01*
X2524944Y-807508D02*
X2534468Y-817031D01*
X2534468Y-817031D02*
X2543991Y-836079D01*
X2543991Y-836079D02*
X2553515Y-874174D01*
X2553515Y-874174D02*
X2553515Y-921793D01*
X2553515Y-921793D02*
X2543991Y-959888D01*
X2543991Y-959888D02*
X2534468Y-978936D01*
X2534468Y-978936D02*
X2524944Y-988460D01*
X2524944Y-988460D02*
X2505896Y-997984D01*
X2505896Y-997984D02*
X2486848Y-997984D01*
X2486848Y-997984D02*
X2467801Y-988460D01*
X2467801Y-988460D02*
X2458277Y-978936D01*
X2458277Y-978936D02*
X2448753Y-959888D01*
X2448753Y-959888D02*
X2439229Y-921793D01*
X2439229Y-921793D02*
X2439229Y-874174D01*
X2439229Y-874174D02*
X2448753Y-836079D01*
X2448753Y-836079D02*
X2458277Y-817031D01*
X2458277Y-817031D02*
X2467801Y-807508D01*
X2467801Y-807508D02*
X2486848Y-797984D01*
X2743991Y-997984D02*
X2629706Y-997984D01*
X2686848Y-997984D02*
X2686848Y-797984D01*
X2686848Y-797984D02*
X2667801Y-826555D01*
X2667801Y-826555D02*
X2648753Y-845603D01*
X2648753Y-845603D02*
X2629706Y-855127D01*
X2934467Y-997984D02*
X2820182Y-997984D01*
X2877325Y-997984D02*
X2877325Y-797984D01*
X2877325Y-797984D02*
X2858277Y-826555D01*
X2858277Y-826555D02*
X2839229Y-845603D01*
X2839229Y-845603D02*
X2820182Y-855127D01*
X3048753Y-883698D02*
X3029706Y-874174D01*
X3029706Y-874174D02*
X3020182Y-864650D01*
X3020182Y-864650D02*
X3010658Y-845603D01*
X3010658Y-845603D02*
X3010658Y-836079D01*
X3010658Y-836079D02*
X3020182Y-817031D01*
X3020182Y-817031D02*
X3029706Y-807508D01*
X3029706Y-807508D02*
X3048753Y-797984D01*
X3048753Y-797984D02*
X3086848Y-797984D01*
X3086848Y-797984D02*
X3105896Y-807508D01*
X3105896Y-807508D02*
X3115420Y-817031D01*
X3115420Y-817031D02*
X3124944Y-836079D01*
X3124944Y-836079D02*
X3124944Y-845603D01*
X3124944Y-845603D02*
X3115420Y-864650D01*
X3115420Y-864650D02*
X3105896Y-874174D01*
X3105896Y-874174D02*
X3086848Y-883698D01*
X3086848Y-883698D02*
X3048753Y-883698D01*
X3048753Y-883698D02*
X3029706Y-893222D01*
X3029706Y-893222D02*
X3020182Y-902746D01*
X3020182Y-902746D02*
X3010658Y-921793D01*
X3010658Y-921793D02*
X3010658Y-959888D01*
X3010658Y-959888D02*
X3020182Y-978936D01*
X3020182Y-978936D02*
X3029706Y-988460D01*
X3029706Y-988460D02*
X3048753Y-997984D01*
X3048753Y-997984D02*
X3086848Y-997984D01*
X3086848Y-997984D02*
X3105896Y-988460D01*
X3105896Y-988460D02*
X3115420Y-978936D01*
X3115420Y-978936D02*
X3124944Y-959888D01*
X3124944Y-959888D02*
X3124944Y-921793D01*
X3124944Y-921793D02*
X3115420Y-902746D01*
X3115420Y-902746D02*
X3105896Y-893222D01*
X3105896Y-893222D02*
X3086848Y-883698D01*
X3201134Y-797984D02*
X3201134Y-836079D01*
X3277325Y-797984D02*
X3277325Y-836079D01*
X3572563Y-1074174D02*
X3563039Y-1064650D01*
X3563039Y-1064650D02*
X3543991Y-1036079D01*
X3543991Y-1036079D02*
X3534468Y-1017031D01*
X3534468Y-1017031D02*
X3524944Y-988460D01*
X3524944Y-988460D02*
X3515420Y-940841D01*
X3515420Y-940841D02*
X3515420Y-902746D01*
X3515420Y-902746D02*
X3524944Y-855127D01*
X3524944Y-855127D02*
X3534468Y-826555D01*
X3534468Y-826555D02*
X3543991Y-807508D01*
X3543991Y-807508D02*
X3563039Y-778936D01*
X3563039Y-778936D02*
X3572563Y-769412D01*
X3629706Y-797984D02*
X3753515Y-797984D01*
X3753515Y-797984D02*
X3686848Y-874174D01*
X3686848Y-874174D02*
X3715420Y-874174D01*
X3715420Y-874174D02*
X3734468Y-883698D01*
X3734468Y-883698D02*
X3743991Y-893222D01*
X3743991Y-893222D02*
X3753515Y-912269D01*
X3753515Y-912269D02*
X3753515Y-959888D01*
X3753515Y-959888D02*
X3743991Y-978936D01*
X3743991Y-978936D02*
X3734468Y-988460D01*
X3734468Y-988460D02*
X3715420Y-997984D01*
X3715420Y-997984D02*
X3658277Y-997984D01*
X3658277Y-997984D02*
X3639229Y-988460D01*
X3639229Y-988460D02*
X3629706Y-978936D01*
X3829706Y-817031D02*
X3839229Y-807508D01*
X3839229Y-807508D02*
X3858277Y-797984D01*
X3858277Y-797984D02*
X3905896Y-797984D01*
X3905896Y-797984D02*
X3924944Y-807508D01*
X3924944Y-807508D02*
X3934468Y-817031D01*
X3934468Y-817031D02*
X3943991Y-836079D01*
X3943991Y-836079D02*
X3943991Y-855127D01*
X3943991Y-855127D02*
X3934468Y-883698D01*
X3934468Y-883698D02*
X3820182Y-997984D01*
X3820182Y-997984D02*
X3943991Y-997984D01*
X4182087Y-997984D02*
X4182087Y-797984D01*
X4267801Y-997984D02*
X4267801Y-893222D01*
X4267801Y-893222D02*
X4258277Y-874174D01*
X4258277Y-874174D02*
X4239230Y-864650D01*
X4239230Y-864650D02*
X4210658Y-864650D01*
X4210658Y-864650D02*
X4191610Y-874174D01*
X4191610Y-874174D02*
X4182087Y-883698D01*
X4391611Y-997984D02*
X4372563Y-988460D01*
X4372563Y-988460D02*
X4363039Y-978936D01*
X4363039Y-978936D02*
X4353515Y-959888D01*
X4353515Y-959888D02*
X4353515Y-902746D01*
X4353515Y-902746D02*
X4363039Y-883698D01*
X4363039Y-883698D02*
X4372563Y-874174D01*
X4372563Y-874174D02*
X4391611Y-864650D01*
X4391611Y-864650D02*
X4420182Y-864650D01*
X4420182Y-864650D02*
X4439230Y-874174D01*
X4439230Y-874174D02*
X4448753Y-883698D01*
X4448753Y-883698D02*
X4458277Y-902746D01*
X4458277Y-902746D02*
X4458277Y-959888D01*
X4458277Y-959888D02*
X4448753Y-978936D01*
X4448753Y-978936D02*
X4439230Y-988460D01*
X4439230Y-988460D02*
X4420182Y-997984D01*
X4420182Y-997984D02*
X4391611Y-997984D01*
X4572563Y-997984D02*
X4553515Y-988460D01*
X4553515Y-988460D02*
X4543992Y-969412D01*
X4543992Y-969412D02*
X4543992Y-797984D01*
X4724944Y-988460D02*
X4705896Y-997984D01*
X4705896Y-997984D02*
X4667801Y-997984D01*
X4667801Y-997984D02*
X4648753Y-988460D01*
X4648753Y-988460D02*
X4639230Y-969412D01*
X4639230Y-969412D02*
X4639230Y-893222D01*
X4639230Y-893222D02*
X4648753Y-874174D01*
X4648753Y-874174D02*
X4667801Y-864650D01*
X4667801Y-864650D02*
X4705896Y-864650D01*
X4705896Y-864650D02*
X4724944Y-874174D01*
X4724944Y-874174D02*
X4734468Y-893222D01*
X4734468Y-893222D02*
X4734468Y-912269D01*
X4734468Y-912269D02*
X4639230Y-931317D01*
X4810658Y-988460D02*
X4829706Y-997984D01*
X4829706Y-997984D02*
X4867801Y-997984D01*
X4867801Y-997984D02*
X4886849Y-988460D01*
X4886849Y-988460D02*
X4896373Y-969412D01*
X4896373Y-969412D02*
X4896373Y-959888D01*
X4896373Y-959888D02*
X4886849Y-940841D01*
X4886849Y-940841D02*
X4867801Y-931317D01*
X4867801Y-931317D02*
X4839230Y-931317D01*
X4839230Y-931317D02*
X4820182Y-921793D01*
X4820182Y-921793D02*
X4810658Y-902746D01*
X4810658Y-902746D02*
X4810658Y-893222D01*
X4810658Y-893222D02*
X4820182Y-874174D01*
X4820182Y-874174D02*
X4839230Y-864650D01*
X4839230Y-864650D02*
X4867801Y-864650D01*
X4867801Y-864650D02*
X4886849Y-874174D01*
X4963039Y-1074174D02*
X4972563Y-1064650D01*
X4972563Y-1064650D02*
X4991611Y-1036079D01*
X4991611Y-1036079D02*
X5001134Y-1017031D01*
X5001134Y-1017031D02*
X5010658Y-988460D01*
X5010658Y-988460D02*
X5020182Y-940841D01*
X5020182Y-940841D02*
X5020182Y-902746D01*
X5020182Y-902746D02*
X5010658Y-855127D01*
X5010658Y-855127D02*
X5001134Y-826555D01*
X5001134Y-826555D02*
X4991611Y-807508D01*
X4991611Y-807508D02*
X4972563Y-778936D01*
X4972563Y-778936D02*
X4963039Y-769412D01*
D12*
X-32500Y-1140500D02*
X-32500Y-1200500D01*
X-62500Y-1170500D02*
X-2500Y-1170500D01*
D11*
X296372Y-1061984D02*
X315420Y-1061984D01*
X315420Y-1061984D02*
X334467Y-1071508D01*
X334467Y-1071508D02*
X343991Y-1081031D01*
X343991Y-1081031D02*
X353515Y-1100079D01*
X353515Y-1100079D02*
X363039Y-1138174D01*
X363039Y-1138174D02*
X363039Y-1185793D01*
X363039Y-1185793D02*
X353515Y-1223889D01*
X353515Y-1223889D02*
X343991Y-1242936D01*
X343991Y-1242936D02*
X334467Y-1252460D01*
X334467Y-1252460D02*
X315420Y-1261984D01*
X315420Y-1261984D02*
X296372Y-1261984D01*
X296372Y-1261984D02*
X277324Y-1252460D01*
X277324Y-1252460D02*
X267801Y-1242936D01*
X267801Y-1242936D02*
X258277Y-1223889D01*
X258277Y-1223889D02*
X248753Y-1185793D01*
X248753Y-1185793D02*
X248753Y-1138174D01*
X248753Y-1138174D02*
X258277Y-1100079D01*
X258277Y-1100079D02*
X267801Y-1081031D01*
X267801Y-1081031D02*
X277324Y-1071508D01*
X277324Y-1071508D02*
X296372Y-1061984D01*
X448753Y-1242936D02*
X458277Y-1252460D01*
X458277Y-1252460D02*
X448753Y-1261984D01*
X448753Y-1261984D02*
X439229Y-1252460D01*
X439229Y-1252460D02*
X448753Y-1242936D01*
X448753Y-1242936D02*
X448753Y-1261984D01*
X629705Y-1061984D02*
X591610Y-1061984D01*
X591610Y-1061984D02*
X572563Y-1071508D01*
X572563Y-1071508D02*
X563039Y-1081031D01*
X563039Y-1081031D02*
X543991Y-1109603D01*
X543991Y-1109603D02*
X534467Y-1147698D01*
X534467Y-1147698D02*
X534467Y-1223889D01*
X534467Y-1223889D02*
X543991Y-1242936D01*
X543991Y-1242936D02*
X553515Y-1252460D01*
X553515Y-1252460D02*
X572563Y-1261984D01*
X572563Y-1261984D02*
X610658Y-1261984D01*
X610658Y-1261984D02*
X629705Y-1252460D01*
X629705Y-1252460D02*
X639229Y-1242936D01*
X639229Y-1242936D02*
X648753Y-1223889D01*
X648753Y-1223889D02*
X648753Y-1176270D01*
X648753Y-1176270D02*
X639229Y-1157222D01*
X639229Y-1157222D02*
X629705Y-1147698D01*
X629705Y-1147698D02*
X610658Y-1138174D01*
X610658Y-1138174D02*
X572563Y-1138174D01*
X572563Y-1138174D02*
X553515Y-1147698D01*
X553515Y-1147698D02*
X543991Y-1157222D01*
X543991Y-1157222D02*
X534467Y-1176270D01*
X772562Y-1061984D02*
X791610Y-1061984D01*
X791610Y-1061984D02*
X810658Y-1071508D01*
X810658Y-1071508D02*
X820182Y-1081031D01*
X820182Y-1081031D02*
X829705Y-1100079D01*
X829705Y-1100079D02*
X839229Y-1138174D01*
X839229Y-1138174D02*
X839229Y-1185793D01*
X839229Y-1185793D02*
X829705Y-1223889D01*
X829705Y-1223889D02*
X820182Y-1242936D01*
X820182Y-1242936D02*
X810658Y-1252460D01*
X810658Y-1252460D02*
X791610Y-1261984D01*
X791610Y-1261984D02*
X772562Y-1261984D01*
X772562Y-1261984D02*
X753515Y-1252460D01*
X753515Y-1252460D02*
X743991Y-1242936D01*
X743991Y-1242936D02*
X734467Y-1223889D01*
X734467Y-1223889D02*
X724943Y-1185793D01*
X724943Y-1185793D02*
X724943Y-1138174D01*
X724943Y-1138174D02*
X734467Y-1100079D01*
X734467Y-1100079D02*
X743991Y-1081031D01*
X743991Y-1081031D02*
X753515Y-1071508D01*
X753515Y-1071508D02*
X772562Y-1061984D01*
X963039Y-1061984D02*
X982086Y-1061984D01*
X982086Y-1061984D02*
X1001134Y-1071508D01*
X1001134Y-1071508D02*
X1010658Y-1081031D01*
X1010658Y-1081031D02*
X1020182Y-1100079D01*
X1020182Y-1100079D02*
X1029705Y-1138174D01*
X1029705Y-1138174D02*
X1029705Y-1185793D01*
X1029705Y-1185793D02*
X1020182Y-1223889D01*
X1020182Y-1223889D02*
X1010658Y-1242936D01*
X1010658Y-1242936D02*
X1001134Y-1252460D01*
X1001134Y-1252460D02*
X982086Y-1261984D01*
X982086Y-1261984D02*
X963039Y-1261984D01*
X963039Y-1261984D02*
X943991Y-1252460D01*
X943991Y-1252460D02*
X934467Y-1242936D01*
X934467Y-1242936D02*
X924943Y-1223889D01*
X924943Y-1223889D02*
X915420Y-1185793D01*
X915420Y-1185793D02*
X915420Y-1138174D01*
X915420Y-1138174D02*
X924943Y-1100079D01*
X924943Y-1100079D02*
X934467Y-1081031D01*
X934467Y-1081031D02*
X943991Y-1071508D01*
X943991Y-1071508D02*
X963039Y-1061984D01*
X1115420Y-1261984D02*
X1115420Y-1128650D01*
X1115420Y-1147698D02*
X1124944Y-1138174D01*
X1124944Y-1138174D02*
X1143991Y-1128650D01*
X1143991Y-1128650D02*
X1172563Y-1128650D01*
X1172563Y-1128650D02*
X1191610Y-1138174D01*
X1191610Y-1138174D02*
X1201134Y-1157222D01*
X1201134Y-1157222D02*
X1201134Y-1261984D01*
X1201134Y-1157222D02*
X1210658Y-1138174D01*
X1210658Y-1138174D02*
X1229705Y-1128650D01*
X1229705Y-1128650D02*
X1258277Y-1128650D01*
X1258277Y-1128650D02*
X1277325Y-1138174D01*
X1277325Y-1138174D02*
X1286848Y-1157222D01*
X1286848Y-1157222D02*
X1286848Y-1261984D01*
X1382086Y-1261984D02*
X1382086Y-1128650D01*
X1382086Y-1147698D02*
X1391610Y-1138174D01*
X1391610Y-1138174D02*
X1410658Y-1128650D01*
X1410658Y-1128650D02*
X1439229Y-1128650D01*
X1439229Y-1128650D02*
X1458277Y-1138174D01*
X1458277Y-1138174D02*
X1467801Y-1157222D01*
X1467801Y-1157222D02*
X1467801Y-1261984D01*
X1467801Y-1157222D02*
X1477324Y-1138174D01*
X1477324Y-1138174D02*
X1496372Y-1128650D01*
X1496372Y-1128650D02*
X1524943Y-1128650D01*
X1524943Y-1128650D02*
X1543991Y-1138174D01*
X1543991Y-1138174D02*
X1553515Y-1157222D01*
X1553515Y-1157222D02*
X1553515Y-1261984D01*
X1943991Y-1052460D02*
X1772563Y-1309603D01*
X2201134Y-1061984D02*
X2220182Y-1061984D01*
X2220182Y-1061984D02*
X2239229Y-1071508D01*
X2239229Y-1071508D02*
X2248753Y-1081031D01*
X2248753Y-1081031D02*
X2258277Y-1100079D01*
X2258277Y-1100079D02*
X2267801Y-1138174D01*
X2267801Y-1138174D02*
X2267801Y-1185793D01*
X2267801Y-1185793D02*
X2258277Y-1223889D01*
X2258277Y-1223889D02*
X2248753Y-1242936D01*
X2248753Y-1242936D02*
X2239229Y-1252460D01*
X2239229Y-1252460D02*
X2220182Y-1261984D01*
X2220182Y-1261984D02*
X2201134Y-1261984D01*
X2201134Y-1261984D02*
X2182087Y-1252460D01*
X2182087Y-1252460D02*
X2172563Y-1242936D01*
X2172563Y-1242936D02*
X2163039Y-1223889D01*
X2163039Y-1223889D02*
X2153515Y-1185793D01*
X2153515Y-1185793D02*
X2153515Y-1138174D01*
X2153515Y-1138174D02*
X2163039Y-1100079D01*
X2163039Y-1100079D02*
X2172563Y-1081031D01*
X2172563Y-1081031D02*
X2182087Y-1071508D01*
X2182087Y-1071508D02*
X2201134Y-1061984D01*
X2353515Y-1242936D02*
X2363039Y-1252460D01*
X2363039Y-1252460D02*
X2353515Y-1261984D01*
X2353515Y-1261984D02*
X2343991Y-1252460D01*
X2343991Y-1252460D02*
X2353515Y-1242936D01*
X2353515Y-1242936D02*
X2353515Y-1261984D01*
X2486848Y-1061984D02*
X2505896Y-1061984D01*
X2505896Y-1061984D02*
X2524944Y-1071508D01*
X2524944Y-1071508D02*
X2534468Y-1081031D01*
X2534468Y-1081031D02*
X2543991Y-1100079D01*
X2543991Y-1100079D02*
X2553515Y-1138174D01*
X2553515Y-1138174D02*
X2553515Y-1185793D01*
X2553515Y-1185793D02*
X2543991Y-1223889D01*
X2543991Y-1223889D02*
X2534468Y-1242936D01*
X2534468Y-1242936D02*
X2524944Y-1252460D01*
X2524944Y-1252460D02*
X2505896Y-1261984D01*
X2505896Y-1261984D02*
X2486848Y-1261984D01*
X2486848Y-1261984D02*
X2467801Y-1252460D01*
X2467801Y-1252460D02*
X2458277Y-1242936D01*
X2458277Y-1242936D02*
X2448753Y-1223889D01*
X2448753Y-1223889D02*
X2439229Y-1185793D01*
X2439229Y-1185793D02*
X2439229Y-1138174D01*
X2439229Y-1138174D02*
X2448753Y-1100079D01*
X2448753Y-1100079D02*
X2458277Y-1081031D01*
X2458277Y-1081031D02*
X2467801Y-1071508D01*
X2467801Y-1071508D02*
X2486848Y-1061984D01*
X2629706Y-1081031D02*
X2639229Y-1071508D01*
X2639229Y-1071508D02*
X2658277Y-1061984D01*
X2658277Y-1061984D02*
X2705896Y-1061984D01*
X2705896Y-1061984D02*
X2724944Y-1071508D01*
X2724944Y-1071508D02*
X2734468Y-1081031D01*
X2734468Y-1081031D02*
X2743991Y-1100079D01*
X2743991Y-1100079D02*
X2743991Y-1119127D01*
X2743991Y-1119127D02*
X2734468Y-1147698D01*
X2734468Y-1147698D02*
X2620182Y-1261984D01*
X2620182Y-1261984D02*
X2743991Y-1261984D01*
X2810658Y-1061984D02*
X2934467Y-1061984D01*
X2934467Y-1061984D02*
X2867801Y-1138174D01*
X2867801Y-1138174D02*
X2896372Y-1138174D01*
X2896372Y-1138174D02*
X2915420Y-1147698D01*
X2915420Y-1147698D02*
X2924944Y-1157222D01*
X2924944Y-1157222D02*
X2934467Y-1176270D01*
X2934467Y-1176270D02*
X2934467Y-1223889D01*
X2934467Y-1223889D02*
X2924944Y-1242936D01*
X2924944Y-1242936D02*
X2915420Y-1252460D01*
X2915420Y-1252460D02*
X2896372Y-1261984D01*
X2896372Y-1261984D02*
X2839229Y-1261984D01*
X2839229Y-1261984D02*
X2820182Y-1252460D01*
X2820182Y-1252460D02*
X2810658Y-1242936D01*
X3105896Y-1061984D02*
X3067801Y-1061984D01*
X3067801Y-1061984D02*
X3048753Y-1071508D01*
X3048753Y-1071508D02*
X3039229Y-1081031D01*
X3039229Y-1081031D02*
X3020182Y-1109603D01*
X3020182Y-1109603D02*
X3010658Y-1147698D01*
X3010658Y-1147698D02*
X3010658Y-1223889D01*
X3010658Y-1223889D02*
X3020182Y-1242936D01*
X3020182Y-1242936D02*
X3029706Y-1252460D01*
X3029706Y-1252460D02*
X3048753Y-1261984D01*
X3048753Y-1261984D02*
X3086848Y-1261984D01*
X3086848Y-1261984D02*
X3105896Y-1252460D01*
X3105896Y-1252460D02*
X3115420Y-1242936D01*
X3115420Y-1242936D02*
X3124944Y-1223889D01*
X3124944Y-1223889D02*
X3124944Y-1176270D01*
X3124944Y-1176270D02*
X3115420Y-1157222D01*
X3115420Y-1157222D02*
X3105896Y-1147698D01*
X3105896Y-1147698D02*
X3086848Y-1138174D01*
X3086848Y-1138174D02*
X3048753Y-1138174D01*
X3048753Y-1138174D02*
X3029706Y-1147698D01*
X3029706Y-1147698D02*
X3020182Y-1157222D01*
X3020182Y-1157222D02*
X3010658Y-1176270D01*
X3201134Y-1061984D02*
X3201134Y-1100079D01*
X3277325Y-1061984D02*
X3277325Y-1100079D01*
X3572563Y-1338174D02*
X3563039Y-1328650D01*
X3563039Y-1328650D02*
X3543991Y-1300079D01*
X3543991Y-1300079D02*
X3534468Y-1281031D01*
X3534468Y-1281031D02*
X3524944Y-1252460D01*
X3524944Y-1252460D02*
X3515420Y-1204841D01*
X3515420Y-1204841D02*
X3515420Y-1166746D01*
X3515420Y-1166746D02*
X3524944Y-1119127D01*
X3524944Y-1119127D02*
X3534468Y-1090555D01*
X3534468Y-1090555D02*
X3543991Y-1071508D01*
X3543991Y-1071508D02*
X3563039Y-1042936D01*
X3563039Y-1042936D02*
X3572563Y-1033412D01*
X3734468Y-1061984D02*
X3696372Y-1061984D01*
X3696372Y-1061984D02*
X3677325Y-1071508D01*
X3677325Y-1071508D02*
X3667801Y-1081031D01*
X3667801Y-1081031D02*
X3648753Y-1109603D01*
X3648753Y-1109603D02*
X3639229Y-1147698D01*
X3639229Y-1147698D02*
X3639229Y-1223889D01*
X3639229Y-1223889D02*
X3648753Y-1242936D01*
X3648753Y-1242936D02*
X3658277Y-1252460D01*
X3658277Y-1252460D02*
X3677325Y-1261984D01*
X3677325Y-1261984D02*
X3715420Y-1261984D01*
X3715420Y-1261984D02*
X3734468Y-1252460D01*
X3734468Y-1252460D02*
X3743991Y-1242936D01*
X3743991Y-1242936D02*
X3753515Y-1223889D01*
X3753515Y-1223889D02*
X3753515Y-1176270D01*
X3753515Y-1176270D02*
X3743991Y-1157222D01*
X3743991Y-1157222D02*
X3734468Y-1147698D01*
X3734468Y-1147698D02*
X3715420Y-1138174D01*
X3715420Y-1138174D02*
X3677325Y-1138174D01*
X3677325Y-1138174D02*
X3658277Y-1147698D01*
X3658277Y-1147698D02*
X3648753Y-1157222D01*
X3648753Y-1157222D02*
X3639229Y-1176270D01*
X3924944Y-1128650D02*
X3924944Y-1261984D01*
X3877325Y-1052460D02*
X3829706Y-1195317D01*
X3829706Y-1195317D02*
X3953515Y-1195317D01*
X4182087Y-1261984D02*
X4182087Y-1061984D01*
X4267801Y-1261984D02*
X4267801Y-1157222D01*
X4267801Y-1157222D02*
X4258277Y-1138174D01*
X4258277Y-1138174D02*
X4239230Y-1128650D01*
X4239230Y-1128650D02*
X4210658Y-1128650D01*
X4210658Y-1128650D02*
X4191610Y-1138174D01*
X4191610Y-1138174D02*
X4182087Y-1147698D01*
X4391611Y-1261984D02*
X4372563Y-1252460D01*
X4372563Y-1252460D02*
X4363039Y-1242936D01*
X4363039Y-1242936D02*
X4353515Y-1223889D01*
X4353515Y-1223889D02*
X4353515Y-1166746D01*
X4353515Y-1166746D02*
X4363039Y-1147698D01*
X4363039Y-1147698D02*
X4372563Y-1138174D01*
X4372563Y-1138174D02*
X4391611Y-1128650D01*
X4391611Y-1128650D02*
X4420182Y-1128650D01*
X4420182Y-1128650D02*
X4439230Y-1138174D01*
X4439230Y-1138174D02*
X4448753Y-1147698D01*
X4448753Y-1147698D02*
X4458277Y-1166746D01*
X4458277Y-1166746D02*
X4458277Y-1223889D01*
X4458277Y-1223889D02*
X4448753Y-1242936D01*
X4448753Y-1242936D02*
X4439230Y-1252460D01*
X4439230Y-1252460D02*
X4420182Y-1261984D01*
X4420182Y-1261984D02*
X4391611Y-1261984D01*
X4572563Y-1261984D02*
X4553515Y-1252460D01*
X4553515Y-1252460D02*
X4543992Y-1233412D01*
X4543992Y-1233412D02*
X4543992Y-1061984D01*
X4724944Y-1252460D02*
X4705896Y-1261984D01*
X4705896Y-1261984D02*
X4667801Y-1261984D01*
X4667801Y-1261984D02*
X4648753Y-1252460D01*
X4648753Y-1252460D02*
X4639230Y-1233412D01*
X4639230Y-1233412D02*
X4639230Y-1157222D01*
X4639230Y-1157222D02*
X4648753Y-1138174D01*
X4648753Y-1138174D02*
X4667801Y-1128650D01*
X4667801Y-1128650D02*
X4705896Y-1128650D01*
X4705896Y-1128650D02*
X4724944Y-1138174D01*
X4724944Y-1138174D02*
X4734468Y-1157222D01*
X4734468Y-1157222D02*
X4734468Y-1176270D01*
X4734468Y-1176270D02*
X4639230Y-1195317D01*
X4810658Y-1252460D02*
X4829706Y-1261984D01*
X4829706Y-1261984D02*
X4867801Y-1261984D01*
X4867801Y-1261984D02*
X4886849Y-1252460D01*
X4886849Y-1252460D02*
X4896373Y-1233412D01*
X4896373Y-1233412D02*
X4896373Y-1223889D01*
X4896373Y-1223889D02*
X4886849Y-1204841D01*
X4886849Y-1204841D02*
X4867801Y-1195317D01*
X4867801Y-1195317D02*
X4839230Y-1195317D01*
X4839230Y-1195317D02*
X4820182Y-1185793D01*
X4820182Y-1185793D02*
X4810658Y-1166746D01*
X4810658Y-1166746D02*
X4810658Y-1157222D01*
X4810658Y-1157222D02*
X4820182Y-1138174D01*
X4820182Y-1138174D02*
X4839230Y-1128650D01*
X4839230Y-1128650D02*
X4867801Y-1128650D01*
X4867801Y-1128650D02*
X4886849Y-1138174D01*
X4963039Y-1338174D02*
X4972563Y-1328650D01*
X4972563Y-1328650D02*
X4991611Y-1300079D01*
X4991611Y-1300079D02*
X5001134Y-1281031D01*
X5001134Y-1281031D02*
X5010658Y-1252460D01*
X5010658Y-1252460D02*
X5020182Y-1204841D01*
X5020182Y-1204841D02*
X5020182Y-1166746D01*
X5020182Y-1166746D02*
X5010658Y-1119127D01*
X5010658Y-1119127D02*
X5001134Y-1090555D01*
X5001134Y-1090555D02*
X4991611Y-1071508D01*
X4991611Y-1071508D02*
X4972563Y-1042936D01*
X4972563Y-1042936D02*
X4963039Y-1033412D01*
M02*
