M48
; DRILL file KiCad 10.0.1 date 2026-05-08T14:51:46
; FORMAT={-:-/ absolute / metric / decimal}
; #@! TF.CreationDate,2026-05-08T14:51:46+05:30
; #@! TF.GenerationSoftware,Kicad,Pcbnew,10.0.1
; #@! TF.FileFunction,Plated,1,4,PTH
FMAT,2
METRIC
; #@! TA.AperFunction,Plated,PTH,ViaDrill
T1C0.229
; #@! TA.AperFunction,Plated,PTH,ViaDrill
T2C0.300
; #@! TA.AperFunction,Plated,PTH,ComponentDrill
T3C0.600
%
G90
G05
T1
X6.447Y68.0
X6.447Y66.0
X6.447Y64.0
X6.447Y62.0
X6.447Y60.0
X6.447Y58.0
X6.447Y56.0
X6.447Y54.0
X6.447Y52.0
X6.5Y24.0
X6.5Y22.0
X6.5Y20.0
X6.5Y18.0
X6.5Y16.0
X6.5Y14.0
X6.5Y12.0
X6.5Y10.0
X6.5Y8.0
X6.52Y46.02
X6.52Y44.02
X6.52Y42.02
X6.52Y40.02
X6.52Y38.02
X6.52Y36.02
X6.52Y34.02
X6.52Y32.02
X6.52Y30.02
X6.579Y90.04
X6.579Y88.04
X6.579Y86.04
X6.579Y84.04
X6.579Y82.04
X6.579Y80.04
X6.579Y78.04
X6.579Y76.04
X6.579Y74.04
X7.167Y62.87
X7.22Y18.87
X7.24Y40.89
X7.299Y84.91
X7.947Y69.5
X7.947Y50.5
X8.0Y25.5
X8.0Y6.5
X8.02Y47.52
X8.02Y28.52
X8.079Y91.54
X8.079Y72.54
X9.947Y69.5
X9.947Y50.5
X10.0Y25.5
X10.0Y6.5
X10.02Y47.52
X10.02Y28.52
X10.079Y91.54
X10.079Y72.54
X10.691Y62.123
X10.743Y18.123
X10.763Y40.143
X10.822Y84.163
X11.523Y61.677
X11.575Y17.677
X11.595Y39.697
X11.654Y83.717
X11.83Y57.74
X11.832Y59.579
X11.883Y13.74
X11.885Y15.579
X11.903Y35.76
X11.905Y37.599
X11.947Y69.5
X11.947Y50.5
X11.962Y79.78
X11.963Y81.619
X12.0Y25.5
X12.0Y6.5
X12.007Y62.46
X12.02Y47.52
X12.02Y28.52
X12.057Y66.11
X12.06Y18.46
X12.079Y91.54
X12.079Y72.54
X12.08Y40.48
X12.11Y63.135
X12.11Y22.11
X12.13Y44.13
X12.139Y84.5
X12.162Y19.135
X12.182Y41.155
X12.189Y88.15
X12.192Y60.245
X12.241Y85.175
X12.245Y16.245
X12.265Y38.265
X12.324Y82.285
X12.427Y57.13
X12.48Y13.13
X12.5Y35.15
X12.507Y58.41
X12.547Y68.19
X12.559Y79.17
X12.56Y14.41
X12.58Y36.43
X12.6Y24.19
X12.62Y46.21
X12.639Y80.45
X12.679Y90.23
X13.087Y64.14
X13.14Y20.14
X13.16Y42.16
X13.219Y86.18
X13.947Y69.5
X13.947Y50.5
X14.0Y25.5
X14.0Y6.5
X14.02Y47.52
X14.02Y28.52
X14.079Y91.54
X14.079Y72.54
X14.197Y54.39
X14.25Y10.39
X14.27Y32.41
X14.322Y58.6
X14.329Y76.43
X14.375Y14.6
X14.395Y36.62
X14.454Y80.64
X14.913Y60.998
X14.966Y16.998
X14.986Y39.018
X15.045Y83.038
X15.137Y67.03
X15.19Y23.03
X15.21Y45.05
X15.269Y89.07
X15.622Y61.011
X15.675Y17.011
X15.695Y39.031
X15.754Y83.051
X15.857Y65.31
X15.91Y21.31
X15.93Y43.33
X15.947Y69.5
X15.947Y50.5
X15.989Y87.35
X16.0Y25.5
X16.0Y6.5
X16.02Y47.52
X16.02Y28.52
X16.079Y91.54
X16.079Y72.54
X16.567Y54.134
X16.62Y10.134
X16.64Y32.154
X16.699Y76.174
X16.777Y61.18
X16.83Y17.18
X16.85Y39.2
X16.909Y83.22
X17.527Y61.11
X17.58Y17.11
X17.6Y39.13
X17.659Y83.15
X17.831Y59.246
X17.884Y15.246
X17.904Y37.266
X17.947Y69.5
X17.947Y50.5
X17.963Y81.286
X18.0Y25.5
X18.0Y6.5
X18.017Y60.6
X18.02Y47.52
X18.02Y28.52
X18.07Y16.6
X18.079Y91.54
X18.079Y72.54
X18.09Y38.62
X18.149Y82.64
X18.317Y64.74
X18.357Y67.175
X18.37Y20.74
X18.39Y42.76
X18.41Y23.175
X18.43Y45.195
X18.449Y86.78
X18.489Y89.215
X18.517Y65.72
X18.57Y21.72
X18.59Y43.74
X18.649Y87.76
X19.206Y65.281
X19.259Y21.281
X19.279Y43.301
X19.338Y87.321
X19.401Y64.488
X19.453Y20.488
X19.473Y42.508
X19.527Y62.66
X19.532Y86.528
X19.568Y57.12
X19.58Y18.66
X19.6Y40.68
X19.621Y13.12
X19.641Y35.14
X19.657Y67.15
X19.659Y84.7
X19.7Y79.16
X19.71Y23.15
X19.73Y45.17
X19.739Y60.275
X19.747Y58.66
X19.763Y59.441
X19.789Y89.19
X19.792Y16.275
X19.8Y14.66
X19.812Y38.295
X19.815Y15.441
X19.82Y36.68
X19.835Y37.461
X19.871Y82.315
X19.879Y80.7
X19.894Y81.481
X19.947Y69.5
X19.947Y50.5
X20.0Y25.5
X20.0Y6.5
X20.02Y47.52
X20.02Y28.52
X20.079Y91.54
X20.079Y72.54
X20.274Y57.496
X20.327Y13.496
X20.347Y35.516
X20.357Y51.18
X20.404Y61.027
X20.406Y79.536
X20.41Y7.18
X20.429Y60.277
X20.43Y29.2
X20.456Y17.027
X20.457Y58.95
X20.476Y39.047
X20.482Y16.277
X20.489Y73.22
X20.502Y38.297
X20.51Y14.95
X20.53Y36.97
X20.535Y83.067
X20.561Y82.317
X20.589Y80.99
X20.797Y63.296
X20.85Y19.296
X20.87Y41.316
X20.917Y67.2
X20.929Y85.336
X20.97Y23.2
X20.99Y45.22
X21.049Y89.24
X21.947Y69.5
X21.947Y50.5
X22.0Y25.5
X22.0Y6.5
X22.02Y47.52
X22.02Y28.52
X22.079Y91.54
X22.079Y72.54
X22.182Y67.151
X22.187Y62.53
X22.235Y23.151
X22.24Y18.53
X22.255Y45.171
X22.26Y40.55
X22.314Y89.191
X22.319Y84.57
X22.707Y64.94
X22.76Y20.94
X22.78Y42.96
X22.839Y86.98
X22.967Y56.5
X23.02Y12.5
X23.04Y34.52
X23.047Y63.3
X23.099Y78.54
X23.1Y19.3
X23.12Y41.32
X23.179Y85.34
X23.22Y62.64
X23.273Y18.64
X23.293Y40.66
X23.351Y84.68
X23.817Y56.63
X23.87Y12.63
X23.89Y34.65
X23.937Y59.07
X23.947Y69.5
X23.947Y50.5
X23.949Y78.67
X23.967Y59.84
X23.99Y15.07
X23.997Y57.5
X24.0Y25.5
X24.0Y6.5
X24.01Y37.09
X24.02Y47.52
X24.02Y28.52
X24.02Y15.84
X24.04Y37.86
X24.05Y13.5
X24.069Y81.11
X24.07Y35.52
X24.079Y91.54
X24.079Y72.54
X24.099Y81.88
X24.129Y79.54
X24.297Y60.87
X24.35Y16.87
X24.37Y38.89
X24.429Y82.91
X25.447Y68.0
X25.447Y66.0
X25.447Y64.0
X25.447Y62.0
X25.447Y60.0
X25.447Y58.0
X25.447Y56.0
X25.447Y54.0
X25.447Y52.0
X25.5Y24.0
X25.5Y22.0
X25.5Y20.0
X25.5Y18.0
X25.5Y16.0
X25.5Y14.0
X25.5Y12.0
X25.5Y10.0
X25.5Y8.0
X25.52Y46.02
X25.52Y44.02
X25.52Y42.02
X25.52Y40.02
X25.52Y38.02
X25.52Y36.02
X25.52Y34.02
X25.52Y32.02
X25.52Y30.02
X25.579Y90.04
X25.579Y88.04
X25.579Y86.04
X25.579Y84.04
X25.579Y82.04
X25.579Y80.04
X25.579Y78.04
X25.579Y76.04
X25.579Y74.04
X28.5Y68.0
X28.5Y66.0
X28.5Y64.0
X28.5Y62.0
X28.5Y60.0
X28.5Y58.0
X28.5Y56.0
X28.5Y54.0
X28.5Y52.0
X28.52Y90.02
X28.52Y88.02
X28.52Y86.02
X28.52Y84.02
X28.52Y82.02
X28.52Y80.02
X28.52Y78.02
X28.52Y76.02
X28.52Y74.02
X28.52Y46.02
X28.52Y44.02
X28.52Y42.02
X28.52Y40.02
X28.52Y38.02
X28.52Y36.02
X28.52Y34.02
X28.52Y32.02
X28.52Y30.02
X28.52Y24.02
X28.52Y22.02
X28.52Y20.02
X28.52Y18.02
X28.52Y16.02
X28.52Y14.02
X28.52Y12.02
X28.52Y10.02
X28.52Y8.02
X29.22Y62.87
X29.24Y84.89
X29.24Y40.89
X29.24Y18.89
X30.0Y69.5
X30.0Y50.5
X30.02Y91.52
X30.02Y72.52
X30.02Y47.52
X30.02Y28.52
X30.02Y25.52
X30.02Y6.52
X32.0Y69.5
X32.0Y50.5
X32.02Y91.52
X32.02Y72.52
X32.02Y47.52
X32.02Y28.52
X32.02Y25.52
X32.02Y6.52
X32.743Y62.123
X32.763Y84.143
X32.763Y40.143
X32.763Y18.143
X33.575Y61.677
X33.595Y83.697
X33.595Y39.697
X33.595Y17.697
X33.883Y57.74
X33.885Y59.579
X33.903Y79.76
X33.903Y35.76
X33.903Y13.76
X33.905Y81.599
X33.905Y37.599
X33.905Y15.599
X34.0Y69.5
X34.0Y50.5
X34.02Y91.52
X34.02Y72.52
X34.02Y47.52
X34.02Y28.52
X34.02Y25.52
X34.02Y6.52
X34.06Y62.46
X34.08Y84.48
X34.08Y40.48
X34.08Y18.48
X34.11Y66.11
X34.13Y88.13
X34.13Y44.13
X34.13Y22.13
X34.162Y63.135
X34.182Y85.155
X34.182Y41.155
X34.182Y19.155
X34.245Y60.245
X34.265Y82.265
X34.265Y38.265
X34.265Y16.265
X34.48Y57.13
X34.5Y79.15
X34.5Y35.15
X34.5Y13.15
X34.56Y58.41
X34.58Y80.43
X34.58Y36.43
X34.58Y14.43
X34.6Y68.19
X34.62Y90.21
X34.62Y46.21
X34.62Y24.21
X35.14Y64.14
X35.16Y86.16
X35.16Y42.16
X35.16Y20.16
X36.0Y69.5
X36.0Y50.5
X36.02Y91.52
X36.02Y72.52
X36.02Y47.52
X36.02Y28.52
X36.02Y25.52
X36.02Y6.52
X36.25Y54.39
X36.27Y76.41
X36.27Y32.41
X36.27Y10.41
X36.375Y58.6
X36.395Y80.62
X36.395Y36.62
X36.395Y14.62
X36.966Y60.998
X36.986Y83.018
X36.986Y39.018
X36.986Y17.018
X37.19Y67.03
X37.21Y89.05
X37.21Y45.05
X37.21Y23.05
X37.675Y61.011
X37.695Y83.031
X37.695Y39.031
X37.695Y17.031
X37.91Y65.31
X37.93Y87.33
X37.93Y43.33
X37.93Y21.33
X38.0Y69.5
X38.0Y50.5
X38.02Y91.52
X38.02Y72.52
X38.02Y47.52
X38.02Y28.52
X38.02Y25.52
X38.02Y6.52
X38.62Y54.134
X38.64Y76.154
X38.64Y32.154
X38.64Y10.154
X38.83Y61.18
X38.85Y83.2
X38.85Y39.2
X38.85Y17.2
X39.58Y61.11
X39.6Y83.13
X39.6Y39.13
X39.6Y17.13
X39.884Y59.246
X39.904Y81.266
X39.904Y37.266
X39.904Y15.266
X40.0Y69.5
X40.0Y50.5
X40.02Y91.52
X40.02Y72.52
X40.02Y47.52
X40.02Y28.52
X40.02Y25.52
X40.02Y6.52
X40.07Y60.6
X40.09Y82.62
X40.09Y38.62
X40.09Y16.62
X40.37Y64.74
X40.39Y86.76
X40.39Y42.76
X40.39Y20.76
X40.41Y67.175
X40.43Y89.195
X40.43Y45.195
X40.43Y23.195
X40.57Y65.72
X40.59Y87.74
X40.59Y43.74
X40.59Y21.74
X41.259Y65.281
X41.279Y87.301
X41.279Y43.301
X41.279Y21.301
X41.453Y64.488
X41.473Y86.508
X41.473Y42.508
X41.473Y20.508
X41.58Y62.66
X41.6Y84.68
X41.6Y40.68
X41.6Y18.68
X41.621Y57.12
X41.641Y79.14
X41.641Y35.14
X41.641Y13.14
X41.71Y67.15
X41.73Y89.17
X41.73Y45.17
X41.73Y23.17
X41.792Y60.275
X41.8Y58.66
X41.812Y82.295
X41.812Y38.295
X41.812Y16.295
X41.815Y59.441
X41.82Y80.68
X41.82Y36.68
X41.82Y14.68
X41.835Y81.461
X41.835Y37.461
X41.835Y15.461
X42.0Y69.5
X42.0Y50.5
X42.02Y91.52
X42.02Y72.52
X42.02Y47.52
X42.02Y28.52
X42.02Y25.52
X42.02Y6.52
X42.327Y57.496
X42.347Y79.516
X42.347Y35.516
X42.347Y13.516
X42.41Y51.18
X42.43Y73.2
X42.43Y29.2
X42.43Y7.2
X42.456Y61.027
X42.476Y83.047
X42.476Y39.047
X42.476Y17.047
X42.482Y60.277
X42.502Y82.297
X42.502Y38.297
X42.502Y16.297
X42.51Y58.95
X42.53Y80.97
X42.53Y36.97
X42.53Y14.97
X42.85Y63.296
X42.87Y85.316
X42.87Y41.316
X42.87Y19.316
X42.97Y67.2
X42.99Y89.22
X42.99Y45.22
X42.99Y23.22
X44.0Y69.5
X44.0Y50.5
X44.02Y91.52
X44.02Y72.52
X44.02Y47.52
X44.02Y28.52
X44.02Y25.52
X44.02Y6.52
X44.235Y67.151
X44.24Y62.53
X44.255Y89.171
X44.255Y45.171
X44.255Y23.171
X44.26Y84.55
X44.26Y40.55
X44.26Y18.55
X44.76Y64.94
X44.78Y86.96
X44.78Y42.96
X44.78Y20.96
X45.02Y56.5
X45.04Y78.52
X45.04Y34.52
X45.04Y12.52
X45.1Y63.3
X45.12Y85.32
X45.12Y41.32
X45.12Y19.32
X45.273Y62.64
X45.293Y84.66
X45.293Y40.66
X45.293Y18.66
X45.87Y56.63
X45.89Y78.65
X45.89Y34.65
X45.89Y12.65
X45.99Y59.07
X46.0Y69.5
X46.0Y50.5
X46.01Y81.09
X46.01Y37.09
X46.01Y15.09
X46.02Y91.52
X46.02Y72.52
X46.02Y59.84
X46.02Y47.52
X46.02Y28.52
X46.02Y25.52
X46.02Y6.52
X46.04Y81.86
X46.04Y37.86
X46.04Y15.86
X46.05Y57.5
X46.07Y79.52
X46.07Y35.52
X46.07Y13.52
X46.35Y60.87
X46.37Y82.89
X46.37Y38.89
X46.37Y16.89
X47.5Y68.0
X47.5Y66.0
X47.5Y64.0
X47.5Y62.0
X47.5Y60.0
X47.5Y58.0
X47.5Y56.0
X47.5Y54.0
X47.5Y52.0
X47.52Y90.02
X47.52Y88.02
X47.52Y86.02
X47.52Y84.02
X47.52Y82.02
X47.52Y80.02
X47.52Y78.02
X47.52Y76.02
X47.52Y74.02
X47.52Y46.02
X47.52Y44.02
X47.52Y42.02
X47.52Y40.02
X47.52Y38.02
X47.52Y36.02
X47.52Y34.02
X47.52Y32.02
X47.52Y30.02
X47.52Y24.02
X47.52Y22.02
X47.52Y20.02
X47.52Y18.02
X47.52Y16.02
X47.52Y14.02
X47.52Y12.02
X47.52Y10.02
X47.52Y8.02
X50.513Y68.02
X50.513Y66.02
X50.513Y64.02
X50.513Y62.02
X50.513Y60.02
X50.513Y58.02
X50.513Y56.02
X50.513Y54.02
X50.513Y52.02
X50.52Y24.0
X50.52Y22.0
X50.52Y20.0
X50.52Y18.0
X50.52Y16.0
X50.52Y14.0
X50.52Y12.0
X50.52Y10.0
X50.52Y8.0
X50.52Y90.05
X50.52Y88.05
X50.52Y86.05
X50.52Y84.05
X50.52Y82.05
X50.52Y80.05
X50.52Y78.05
X50.52Y76.05
X50.52Y74.05
X50.52Y46.02
X50.52Y44.02
X50.52Y42.02
X50.52Y40.02
X50.52Y38.02
X50.52Y36.02
X50.52Y34.02
X50.52Y32.02
X50.52Y30.02
X51.233Y62.89
X51.24Y18.87
X51.24Y84.92
X51.24Y40.89
X52.013Y69.52
X52.013Y50.52
X52.02Y25.5
X52.02Y6.5
X52.02Y91.55
X52.02Y72.55
X52.02Y47.52
X52.02Y28.52
X54.013Y69.52
X54.013Y50.52
X54.02Y25.5
X54.02Y6.5
X54.02Y91.55
X54.02Y72.55
X54.02Y47.52
X54.02Y28.52
X54.756Y62.143
X54.763Y18.123
X54.763Y84.173
X54.763Y40.143
X55.588Y61.697
X55.595Y17.677
X55.595Y83.727
X55.595Y39.697
X55.896Y57.76
X55.898Y59.599
X55.902Y13.74
X55.903Y79.79
X55.903Y35.76
X55.904Y15.579
X55.905Y81.629
X55.905Y37.599
X56.013Y69.52
X56.013Y50.52
X56.02Y25.5
X56.02Y6.5
X56.02Y91.55
X56.02Y72.55
X56.02Y47.52
X56.02Y28.52
X56.073Y62.48
X56.08Y18.46
X56.08Y84.51
X56.08Y40.48
X56.123Y66.13
X56.13Y22.11
X56.13Y88.16
X56.13Y44.13
X56.175Y63.155
X56.182Y19.135
X56.182Y85.185
X56.182Y41.155
X56.258Y60.265
X56.265Y16.245
X56.265Y82.295
X56.265Y38.265
X56.493Y57.15
X56.5Y13.13
X56.5Y79.18
X56.5Y35.15
X56.573Y58.43
X56.58Y14.41
X56.58Y80.46
X56.58Y36.43
X56.613Y68.21
X56.62Y24.19
X56.62Y90.24
X56.62Y46.21
X57.153Y64.16
X57.16Y20.14
X57.16Y86.19
X57.16Y42.16
X58.013Y69.52
X58.013Y50.52
X58.02Y25.5
X58.02Y6.5
X58.02Y91.55
X58.02Y72.55
X58.02Y47.52
X58.02Y28.52
X58.263Y54.41
X58.27Y10.39
X58.27Y76.44
X58.27Y32.41
X58.388Y58.62
X58.395Y14.6
X58.395Y80.65
X58.395Y36.62
X58.979Y61.018
X58.985Y16.998
X58.986Y83.048
X58.986Y39.018
X59.203Y67.05
X59.21Y23.03
X59.21Y89.08
X59.21Y45.05
X59.688Y61.031
X59.695Y17.011
X59.695Y83.061
X59.695Y39.031
X59.923Y65.33
X59.93Y21.31
X59.93Y87.36
X59.93Y43.33
X60.013Y69.52
X60.013Y50.52
X60.02Y25.5
X60.02Y6.5
X60.02Y91.55
X60.02Y72.55
X60.02Y47.52
X60.02Y28.52
X60.633Y54.154
X60.64Y10.134
X60.64Y76.184
X60.64Y32.154
X60.843Y61.2
X60.85Y17.18
X60.85Y83.23
X60.85Y39.2
X61.593Y61.13
X61.6Y17.11
X61.6Y83.16
X61.6Y39.13
X61.897Y59.266
X61.903Y15.246
X61.904Y81.296
X61.904Y37.266
X62.013Y69.52
X62.013Y50.52
X62.02Y25.5
X62.02Y6.5
X62.02Y91.55
X62.02Y72.55
X62.02Y47.52
X62.02Y28.52
X62.083Y60.62
X62.09Y16.6
X62.09Y82.65
X62.09Y38.62
X62.383Y64.76
X62.39Y20.74
X62.39Y86.79
X62.39Y42.76
X62.423Y67.195
X62.43Y23.175
X62.43Y89.225
X62.43Y45.195
X62.583Y65.74
X62.59Y21.72
X62.59Y87.77
X62.59Y43.74
X63.272Y65.301
X63.279Y21.281
X63.279Y87.331
X63.279Y43.301
X63.466Y64.508
X63.473Y20.488
X63.473Y86.538
X63.473Y42.508
X63.593Y62.68
X63.6Y18.66
X63.6Y84.71
X63.6Y40.68
X63.634Y57.14
X63.641Y13.12
X63.641Y79.17
X63.641Y35.14
X63.723Y67.17
X63.73Y23.15
X63.73Y89.2
X63.73Y45.17
X63.805Y60.295
X63.811Y16.275
X63.812Y82.325
X63.812Y38.295
X63.813Y58.68
X63.82Y14.66
X63.82Y80.71
X63.82Y36.68
X63.828Y59.461
X63.835Y15.441
X63.835Y81.491
X63.835Y37.461
X64.013Y69.52
X64.013Y50.52
X64.02Y25.5
X64.02Y6.5
X64.02Y91.55
X64.02Y72.55
X64.02Y47.52
X64.02Y28.52
X64.34Y57.516
X64.346Y13.496
X64.347Y79.546
X64.347Y35.516
X64.423Y51.2
X64.43Y7.18
X64.43Y73.23
X64.43Y29.2
X64.469Y61.047
X64.476Y17.027
X64.476Y83.078
X64.476Y39.047
X64.495Y60.297
X64.501Y16.277
X64.502Y82.327
X64.502Y38.297
X64.523Y58.97
X64.53Y14.95
X64.53Y81.0
X64.53Y36.97
X64.863Y63.316
X64.87Y19.296
X64.87Y85.346
X64.87Y41.316
X64.983Y67.22
X64.99Y23.2
X64.99Y89.25
X64.99Y45.22
X66.013Y69.52
X66.013Y50.52
X66.02Y25.5
X66.02Y6.5
X66.02Y91.55
X66.02Y72.55
X66.02Y47.52
X66.02Y28.52
X66.248Y67.171
X66.253Y62.55
X66.255Y23.151
X66.255Y89.201
X66.255Y45.171
X66.26Y18.53
X66.26Y84.58
X66.26Y40.55
X66.773Y64.96
X66.78Y20.94
X66.78Y86.99
X66.78Y42.96
X67.033Y56.52
X67.04Y12.5
X67.04Y78.55
X67.04Y34.52
X67.113Y63.32
X67.12Y19.3
X67.12Y85.35
X67.12Y41.32
X67.286Y62.66
X67.292Y18.64
X67.293Y84.69
X67.293Y40.66
X67.883Y56.65
X67.89Y12.63
X67.89Y78.68
X67.89Y34.65
X68.003Y59.09
X68.01Y15.07
X68.01Y81.12
X68.01Y37.09
X68.013Y69.52
X68.013Y50.52
X68.02Y25.5
X68.02Y6.5
X68.02Y91.55
X68.02Y72.55
X68.02Y47.52
X68.02Y28.52
X68.033Y59.86
X68.04Y15.84
X68.04Y81.89
X68.04Y37.86
X68.063Y57.52
X68.07Y13.5
X68.07Y79.55
X68.07Y35.52
X68.363Y60.89
X68.37Y16.87
X68.37Y82.92
X68.37Y38.89
X69.513Y68.02
X69.513Y66.02
X69.513Y64.02
X69.513Y62.02
X69.513Y60.02
X69.513Y58.02
X69.513Y56.02
X69.513Y54.02
X69.513Y52.02
X69.52Y24.0
X69.52Y22.0
X69.52Y20.0
X69.52Y18.0
X69.52Y16.0
X69.52Y14.0
X69.52Y12.0
X69.52Y10.0
X69.52Y8.0
X69.52Y90.05
X69.52Y88.05
X69.52Y86.05
X69.52Y84.05
X69.52Y82.05
X69.52Y80.05
X69.52Y78.05
X69.52Y76.05
X69.52Y74.05
X69.52Y46.02
X69.52Y44.02
X69.52Y42.02
X69.52Y40.02
X69.52Y38.02
X69.52Y36.02
X69.52Y34.02
X69.52Y32.02
X69.52Y30.02
X72.52Y90.02
X72.52Y88.02
X72.52Y86.02
X72.52Y84.02
X72.52Y82.02
X72.52Y80.02
X72.52Y78.02
X72.52Y76.02
X72.52Y74.02
X72.52Y68.029
X72.52Y66.029
X72.52Y64.029
X72.52Y62.029
X72.52Y60.029
X72.52Y58.029
X72.52Y56.029
X72.52Y54.029
X72.52Y52.029
X72.52Y46.02
X72.52Y44.02
X72.52Y42.02
X72.52Y40.02
X72.52Y38.02
X72.52Y36.02
X72.52Y34.02
X72.52Y32.02
X72.52Y30.02
X72.52Y24.02
X72.52Y22.02
X72.52Y20.02
X72.52Y18.02
X72.52Y16.02
X72.52Y14.02
X72.52Y12.02
X72.52Y10.02
X72.52Y8.02
X73.24Y84.89
X73.24Y62.899
X73.24Y40.89
X73.24Y18.89
X74.02Y91.52
X74.02Y72.52
X74.02Y69.529
X74.02Y50.529
X74.02Y47.52
X74.02Y28.52
X74.02Y25.52
X74.02Y6.52
X76.02Y91.52
X76.02Y72.52
X76.02Y69.529
X76.02Y50.529
X76.02Y47.52
X76.02Y28.52
X76.02Y25.52
X76.02Y6.52
X76.763Y84.143
X76.763Y62.152
X76.763Y40.143
X76.763Y18.143
X77.595Y83.697
X77.595Y61.706
X77.595Y39.697
X77.595Y17.697
X77.903Y79.76
X77.903Y57.769
X77.903Y35.76
X77.903Y13.76
X77.905Y81.599
X77.905Y59.608
X77.905Y37.599
X77.905Y15.599
X78.02Y91.52
X78.02Y72.52
X78.02Y69.529
X78.02Y50.529
X78.02Y47.52
X78.02Y28.52
X78.02Y25.52
X78.02Y6.52
X78.08Y84.48
X78.08Y62.489
X78.08Y40.48
X78.08Y18.48
X78.13Y88.13
X78.13Y66.139
X78.13Y44.13
X78.13Y22.13
X78.182Y85.155
X78.182Y63.164
X78.182Y41.155
X78.182Y19.155
X78.265Y82.265
X78.265Y60.274
X78.265Y38.265
X78.265Y16.265
X78.5Y79.15
X78.5Y57.159
X78.5Y35.15
X78.5Y13.15
X78.58Y80.43
X78.58Y58.439
X78.58Y36.43
X78.58Y14.43
X78.62Y90.21
X78.62Y68.219
X78.62Y46.21
X78.62Y24.21
X79.16Y86.16
X79.16Y64.169
X79.16Y42.16
X79.16Y20.16
X80.02Y91.52
X80.02Y72.52
X80.02Y69.529
X80.02Y50.529
X80.02Y47.52
X80.02Y28.52
X80.02Y25.52
X80.02Y6.52
X80.27Y76.41
X80.27Y54.419
X80.27Y32.41
X80.27Y10.41
X80.395Y80.62
X80.395Y58.629
X80.395Y36.62
X80.395Y14.62
X80.986Y83.018
X80.986Y61.026
X80.986Y39.018
X80.986Y17.018
X81.21Y89.05
X81.21Y67.059
X81.21Y45.05
X81.21Y23.05
X81.695Y83.031
X81.695Y61.04
X81.695Y39.031
X81.695Y17.031
X81.93Y87.33
X81.93Y65.339
X81.93Y43.33
X81.93Y21.33
X82.02Y91.52
X82.02Y72.52
X82.02Y69.529
X82.02Y50.529
X82.02Y47.52
X82.02Y28.52
X82.02Y25.52
X82.02Y6.52
X82.64Y76.154
X82.64Y54.162
X82.64Y32.154
X82.64Y10.154
X82.85Y83.2
X82.85Y61.209
X82.85Y39.2
X82.85Y17.2
X83.6Y83.13
X83.6Y61.139
X83.6Y39.13
X83.6Y17.13
X83.904Y81.266
X83.904Y59.274
X83.904Y37.266
X83.904Y15.266
X84.02Y91.52
X84.02Y72.52
X84.02Y69.529
X84.02Y50.529
X84.02Y47.52
X84.02Y28.52
X84.02Y25.52
X84.02Y6.52
X84.09Y82.62
X84.09Y60.629
X84.09Y38.62
X84.09Y16.62
X84.39Y86.76
X84.39Y64.769
X84.39Y42.76
X84.39Y20.76
X84.43Y89.195
X84.43Y67.204
X84.43Y45.195
X84.43Y23.195
X84.59Y87.74
X84.59Y65.749
X84.59Y43.74
X84.59Y21.74
X85.279Y87.301
X85.279Y65.31
X85.279Y43.301
X85.279Y21.301
X85.473Y86.508
X85.473Y64.517
X85.473Y42.508
X85.473Y20.508
X85.6Y84.68
X85.6Y62.689
X85.6Y40.68
X85.6Y18.68
X85.641Y79.14
X85.641Y57.149
X85.641Y35.14
X85.641Y13.14
X85.73Y89.17
X85.73Y67.179
X85.73Y45.17
X85.73Y23.17
X85.812Y82.295
X85.812Y60.304
X85.812Y38.295
X85.812Y16.295
X85.82Y80.68
X85.82Y58.689
X85.82Y36.68
X85.82Y14.68
X85.835Y81.461
X85.835Y59.469
X85.835Y37.461
X85.835Y15.461
X86.02Y91.52
X86.02Y72.52
X86.02Y69.529
X86.02Y50.529
X86.02Y47.52
X86.02Y28.52
X86.02Y25.52
X86.02Y6.52
X86.347Y79.516
X86.347Y57.525
X86.347Y35.516
X86.347Y13.516
X86.43Y73.2
X86.43Y51.209
X86.43Y29.2
X86.43Y7.2
X86.476Y83.047
X86.476Y61.056
X86.476Y39.047
X86.476Y17.048
X86.502Y82.297
X86.502Y60.306
X86.502Y38.297
X86.502Y16.297
X86.53Y80.97
X86.53Y58.979
X86.53Y36.97
X86.53Y14.97
X86.87Y85.316
X86.87Y63.324
X86.87Y41.316
X86.87Y19.316
X86.99Y89.22
X86.99Y67.229
X86.99Y45.22
X86.99Y23.22
X88.02Y91.52
X88.02Y72.52
X88.02Y69.529
X88.02Y50.529
X88.02Y47.52
X88.02Y28.52
X88.02Y25.52
X88.02Y6.52
X88.255Y89.171
X88.255Y67.18
X88.255Y45.171
X88.255Y23.171
X88.26Y84.55
X88.26Y62.559
X88.26Y40.55
X88.26Y18.55
X88.78Y86.96
X88.78Y64.969
X88.78Y42.96
X88.78Y20.96
X89.04Y78.52
X89.04Y56.529
X89.04Y34.52
X89.04Y12.52
X89.12Y85.32
X89.12Y63.329
X89.12Y41.32
X89.12Y19.32
X89.293Y84.66
X89.293Y62.668
X89.293Y40.66
X89.293Y18.66
X89.89Y78.65
X89.89Y56.659
X89.89Y34.65
X89.89Y12.65
X90.01Y81.09
X90.01Y59.099
X90.01Y37.09
X90.01Y15.09
X90.02Y91.52
X90.02Y72.52
X90.02Y69.529
X90.02Y50.529
X90.02Y47.52
X90.02Y28.52
X90.02Y25.52
X90.02Y6.52
X90.04Y81.86
X90.04Y59.869
X90.04Y37.86
X90.04Y15.86
X90.07Y79.52
X90.07Y57.529
X90.07Y35.52
X90.07Y13.52
X90.37Y82.89
X90.37Y60.899
X90.37Y38.89
X90.37Y16.89
X91.52Y90.02
X91.52Y88.02
X91.52Y86.02
X91.52Y84.02
X91.52Y82.02
X91.52Y80.02
X91.52Y78.02
X91.52Y76.02
X91.52Y74.02
X91.52Y68.029
X91.52Y66.029
X91.52Y64.029
X91.52Y62.029
X91.52Y60.029
X91.52Y58.029
X91.52Y56.029
X91.52Y54.029
X91.52Y52.029
X91.52Y46.02
X91.52Y44.02
X91.52Y42.02
X91.52Y40.02
X91.52Y38.02
X91.52Y36.02
X91.52Y34.02
X91.52Y32.02
X91.52Y30.02
X91.52Y24.02
X91.52Y22.02
X91.52Y20.02
X91.52Y18.02
X91.52Y16.02
X91.52Y14.02
X91.52Y12.02
X91.52Y10.02
X91.52Y8.02
T2
X15.827Y55.81
X15.88Y11.81
X15.9Y33.83
X15.959Y77.85
X19.557Y55.2
X19.61Y11.2
X19.63Y33.22
X19.689Y77.24
X37.88Y55.81
X37.9Y77.83
X37.9Y33.83
X37.9Y11.83
X41.61Y55.2
X41.63Y77.22
X41.63Y33.22
X41.63Y11.22
X59.893Y55.83
X59.9Y11.81
X59.9Y77.86
X59.9Y33.83
X63.623Y55.22
X63.63Y11.2
X63.63Y77.25
X63.63Y33.22
X81.9Y77.83
X81.9Y55.839
X81.9Y33.83
X81.9Y11.83
X85.63Y77.22
X85.63Y55.229
X85.63Y33.22
X85.63Y11.22
T3
X10.31Y56.0
X10.31Y54.75
X10.31Y53.5
X10.31Y52.25
X10.362Y12.0
X10.362Y10.75
X10.362Y9.5
X10.362Y8.25
X10.383Y34.02
X10.383Y32.77
X10.383Y31.52
X10.383Y30.27
X10.441Y78.04
X10.441Y76.79
X10.441Y75.54
X10.441Y74.29
X32.362Y56.0
X32.362Y54.75
X32.362Y53.5
X32.362Y52.25
X32.383Y78.02
X32.383Y76.77
X32.383Y75.52
X32.383Y74.27
X32.383Y34.02
X32.383Y32.77
X32.383Y31.52
X32.383Y30.27
X32.383Y12.02
X32.383Y10.77
X32.383Y9.52
X32.383Y8.27
X54.376Y56.02
X54.376Y54.77
X54.376Y53.52
X54.376Y52.27
X54.382Y12.0
X54.382Y10.75
X54.382Y9.5
X54.382Y8.25
X54.383Y78.05
X54.383Y76.8
X54.383Y75.55
X54.383Y74.3
X54.383Y34.02
X54.383Y32.77
X54.383Y31.52
X54.383Y30.27
X76.382Y78.02
X76.382Y76.77
X76.382Y75.52
X76.382Y74.27
X76.382Y56.029
X76.382Y54.779
X76.382Y53.529
X76.382Y52.279
X76.382Y34.02
X76.382Y32.77
X76.382Y31.52
X76.382Y30.27
X76.383Y12.02
X76.383Y10.77
X76.383Y9.52
X76.383Y8.27
M30
