M48
; DRILL file KiCad 10.0.1 date 2026-05-08T14:51:46
; FORMAT={-:-/ absolute / metric / decimal}
; #@! TF.CreationDate,2026-05-08T14:51:46+05:30
; #@! TF.GenerationSoftware,Kicad,Pcbnew,10.0.1
; #@! TF.FileFunction,NonPlated,1,4,NPTH
FMAT,2
METRIC
; #@! TA.AperFunction,NonPlated,NPTH,ComponentDrill
T1C0.500
; #@! TA.AperFunction,NonPlated,NPTH,ComponentDrill
T2C0.991
; #@! TA.AperFunction,NonPlated,NPTH,ComponentDrill
T3C2.050
%
G90
G05
T1
X5.75Y83.05
X5.75Y82.35
X5.75Y81.65
X5.75Y80.95
X5.75Y61.05
X5.75Y60.35
X5.75Y59.65
X5.75Y58.95
X5.75Y39.05
X5.75Y38.35
X5.75Y37.65
X5.75Y36.95
X5.75Y17.05
X5.75Y16.35
X5.75Y15.65
X5.75Y14.95
X14.95Y92.25
X14.95Y71.75
X14.95Y70.25
X14.95Y49.75
X14.95Y48.25
X14.95Y27.75
X14.95Y26.25
X14.95Y5.75
X15.65Y92.25
X15.65Y71.75
X15.65Y70.25
X15.65Y49.75
X15.65Y48.25
X15.65Y27.75
X15.65Y26.25
X15.65Y5.75
X16.35Y92.25
X16.35Y71.75
X16.35Y70.25
X16.35Y49.75
X16.35Y48.25
X16.35Y27.75
X16.35Y26.25
X16.35Y5.75
X17.05Y92.25
X17.05Y71.75
X17.05Y70.25
X17.05Y49.75
X17.05Y48.25
X17.05Y27.75
X17.05Y26.25
X17.05Y5.75
X26.25Y83.05
X26.25Y82.35
X26.25Y81.65
X26.25Y80.95
X26.25Y61.05
X26.25Y60.35
X26.25Y59.65
X26.25Y58.95
X26.25Y39.05
X26.25Y38.35
X26.25Y37.65
X26.25Y36.95
X26.25Y17.05
X26.25Y16.35
X26.25Y15.65
X26.25Y14.95
X27.75Y83.05
X27.75Y82.35
X27.75Y81.65
X27.75Y80.95
X27.75Y61.05
X27.75Y60.35
X27.75Y59.65
X27.75Y58.95
X27.75Y39.05
X27.75Y38.35
X27.75Y37.65
X27.75Y36.95
X27.75Y17.05
X27.75Y16.35
X27.75Y15.65
X27.75Y14.95
X36.95Y92.25
X36.95Y71.75
X36.95Y70.25
X36.95Y49.75
X36.95Y48.25
X36.95Y27.75
X36.95Y26.25
X36.95Y5.75
X37.65Y92.25
X37.65Y71.75
X37.65Y70.25
X37.65Y49.75
X37.65Y48.25
X37.65Y27.75
X37.65Y26.25
X37.65Y5.75
X38.35Y92.25
X38.35Y71.75
X38.35Y70.25
X38.35Y49.75
X38.35Y48.25
X38.35Y27.75
X38.35Y26.25
X38.35Y5.75
X39.05Y92.25
X39.05Y71.75
X39.05Y70.25
X39.05Y49.75
X39.05Y48.25
X39.05Y27.75
X39.05Y26.25
X39.05Y5.75
X48.25Y83.05
X48.25Y82.35
X48.25Y81.65
X48.25Y80.95
X48.25Y61.05
X48.25Y60.35
X48.25Y59.65
X48.25Y58.95
X48.25Y39.05
X48.25Y38.35
X48.25Y37.65
X48.25Y36.95
X48.25Y17.05
X48.25Y16.35
X48.25Y15.65
X48.25Y14.95
X49.75Y83.05
X49.75Y82.35
X49.75Y81.65
X49.75Y80.95
X49.75Y61.05
X49.75Y60.35
X49.75Y59.65
X49.75Y58.95
X49.75Y39.05
X49.75Y38.35
X49.75Y37.65
X49.75Y36.95
X49.75Y17.05
X49.75Y16.35
X49.75Y15.65
X49.75Y14.95
X58.95Y92.25
X58.95Y71.75
X58.95Y70.25
X58.95Y49.75
X58.95Y48.25
X58.95Y27.75
X58.95Y26.25
X58.95Y5.75
X59.65Y92.25
X59.65Y71.75
X59.65Y70.25
X59.65Y49.75
X59.65Y48.25
X59.65Y27.75
X59.65Y26.25
X59.65Y5.75
X60.35Y92.25
X60.35Y71.75
X60.35Y70.25
X60.35Y49.75
X60.35Y48.25
X60.35Y27.75
X60.35Y26.25
X60.35Y5.75
X61.05Y92.25
X61.05Y71.75
X61.05Y70.25
X61.05Y49.75
X61.05Y48.25
X61.05Y27.75
X61.05Y26.25
X61.05Y5.75
X70.25Y83.05
X70.25Y82.35
X70.25Y81.65
X70.25Y80.95
X70.25Y61.05
X70.25Y60.35
X70.25Y59.65
X70.25Y58.95
X70.25Y39.05
X70.25Y38.35
X70.25Y37.65
X70.25Y36.95
X70.25Y17.05
X70.25Y16.35
X70.25Y15.65
X70.25Y14.95
X71.75Y83.05
X71.75Y82.35
X71.75Y81.65
X71.75Y80.95
X71.75Y61.05
X71.75Y60.35
X71.75Y59.65
X71.75Y58.95
X71.75Y39.05
X71.75Y38.35
X71.75Y37.65
X71.75Y36.95
X71.75Y17.05
X71.75Y16.35
X71.75Y15.65
X71.75Y14.95
X80.95Y92.25
X80.95Y71.75
X80.95Y70.25
X80.95Y49.75
X80.95Y48.25
X80.95Y27.75
X80.95Y26.25
X80.95Y5.75
X81.65Y92.25
X81.65Y71.75
X81.65Y70.25
X81.65Y49.75
X81.65Y48.25
X81.65Y27.75
X81.65Y26.25
X81.65Y5.75
X82.35Y92.25
X82.35Y71.75
X82.35Y70.25
X82.35Y49.75
X82.35Y48.25
X82.35Y27.75
X82.35Y26.25
X82.35Y5.75
X83.05Y92.25
X83.05Y71.75
X83.05Y70.25
X83.05Y49.75
X83.05Y48.25
X83.05Y27.75
X83.05Y26.25
X83.05Y5.75
X92.25Y83.05
X92.25Y82.35
X92.25Y81.65
X92.25Y80.95
X92.25Y61.05
X92.25Y60.35
X92.25Y59.65
X92.25Y58.95
X92.25Y39.05
X92.25Y38.35
X92.25Y37.65
X92.25Y36.95
X92.25Y17.05
X92.25Y16.35
X92.25Y15.65
X92.25Y14.95
T2
X16.467Y67.175
X16.52Y23.175
X16.54Y45.195
X16.599Y89.215
X24.087Y68.19
X24.087Y66.16
X24.14Y24.19
X24.14Y22.16
X24.16Y46.21
X24.16Y44.18
X24.219Y90.23
X24.219Y88.2
X38.52Y67.175
X38.54Y89.195
X38.54Y45.195
X38.54Y23.195
X46.14Y68.19
X46.14Y66.16
X46.16Y90.21
X46.16Y88.18
X46.16Y46.21
X46.16Y44.18
X46.16Y24.21
X46.16Y22.18
X60.533Y67.195
X60.54Y23.175
X60.54Y89.225
X60.54Y45.195
X68.153Y68.21
X68.153Y66.18
X68.16Y24.19
X68.16Y22.16
X68.16Y90.24
X68.16Y88.21
X68.16Y46.21
X68.16Y44.18
X82.54Y89.195
X82.54Y67.204
X82.54Y45.195
X82.54Y23.195
X90.16Y90.21
X90.16Y88.18
X90.16Y68.219
X90.16Y66.189
X90.16Y46.21
X90.16Y44.18
X90.16Y24.21
X90.16Y22.18
T3
X8.934Y66.973
X8.987Y22.973
X9.007Y44.993
X9.066Y89.013
X22.934Y52.973
X22.987Y8.973
X23.007Y30.993
X23.066Y75.013
X30.987Y66.973
X31.007Y88.993
X31.007Y44.993
X31.007Y22.993
X44.987Y52.973
X45.007Y74.993
X45.007Y30.993
X45.007Y8.993
X53.0Y66.993
X53.007Y22.973
X53.007Y89.023
X53.007Y44.993
X67.0Y52.993
X67.007Y8.973
X67.007Y75.023
X67.007Y30.993
X75.007Y88.993
X75.007Y67.002
X75.007Y44.993
X75.007Y22.993
X89.007Y74.993
X89.007Y53.002
X89.007Y30.993
X89.007Y8.993
M30
