%TF.GenerationSoftware,KiCad,Pcbnew,10.0.1*%
%TF.CreationDate,2026-05-08T14:51:55+05:30*%
%TF.ProjectId,X-Vision-HW-Panel,582d5669-7369-46f6-9e2d-48572d50616e,rev?*%
%TF.SameCoordinates,PX29f6300PY7de2900*%
%TF.FileFunction,Soldermask,Bot*%
%TF.FilePolarity,Negative*%
%FSLAX45Y45*%
G04 Gerber Fmt 4.5, Leading zero omitted, Abs format (unit mm)*
G04 Created by KiCad (PCBNEW 10.0.1) date 2026-05-08 14:51:55*
%MOMM*%
%LPD*%
G01*
G04 APERTURE LIST*
G04 Aperture macros list*
%AMRoundRect*
0 Rectangle with rounded corners*
0 $1 Rounding radius*
0 $2 $3 $4 $5 $6 $7 $8 $9 X,Y pos of 4 corners*
0 Add a 4 corners polygon primitive as box body*
4,1,4,$2,$3,$4,$5,$6,$7,$8,$9,$2,$3,0*
0 Add four circle primitives for the rounded corners*
1,1,$1+$1,$2,$3*
1,1,$1+$1,$4,$5*
1,1,$1+$1,$6,$7*
1,1,$1+$1,$8,$9*
0 Add four rect primitives between the rounded corners*
20,1,$1+$1,$2,$3,$4,$5,0*
20,1,$1+$1,$4,$5,$6,$7,0*
20,1,$1+$1,$6,$7,$8,$9,0*
20,1,$1+$1,$8,$9,$2,$3,0*%
G04 Aperture macros list end*
%ADD10C,1.250000*%
%ADD11C,0.991000*%
%ADD12C,1.400000*%
%ADD13C,0.500000*%
%ADD14C,2.050000*%
%ADD15RoundRect,0.156000X0.359000X-0.234000X0.359000X0.234000X-0.359000X0.234000X-0.359000X-0.234000X0*%
%ADD16RoundRect,0.136000X-0.204000X-0.229000X0.204000X-0.229000X0.204000X0.229000X-0.204000X0.229000X0*%
%ADD17RoundRect,0.136000X0.229000X-0.204000X0.229000X0.204000X-0.229000X0.204000X-0.229000X-0.204000X0*%
%ADD18RoundRect,0.160000X0.160000X0.190000X-0.160000X0.190000X-0.160000X-0.190000X0.160000X-0.190000X0*%
%ADD19RoundRect,0.160000X-0.190000X0.160000X-0.190000X-0.160000X0.190000X-0.160000X0.190000X0.160000X0*%
%ADD20RoundRect,0.160000X0.190000X-0.160000X0.190000X0.160000X-0.190000X0.160000X-0.190000X-0.160000X0*%
%ADD21RoundRect,0.122500X-0.122500X0.697500X-0.122500X-0.697500X0.122500X-0.697500X0.122500X0.697500X0*%
%ADD22RoundRect,0.136000X0.204000X0.229000X-0.204000X0.229000X-0.204000X-0.229000X0.204000X-0.229000X0*%
%ADD23RoundRect,0.136000X-0.229000X0.204000X-0.229000X-0.204000X0.229000X-0.204000X0.229000X0.204000X0*%
%ADD24RoundRect,0.275000X0.425000X-0.275000X0.425000X0.275000X-0.425000X0.275000X-0.425000X-0.275000X0*%
%ADD25RoundRect,0.093000X-0.217000X-0.247000X0.217000X-0.247000X0.217000X0.247000X-0.217000X0.247000X0*%
%ADD26RoundRect,0.132000X-0.458000X-0.198000X0.458000X-0.198000X0.458000X0.198000X-0.458000X0.198000X0*%
%ADD27RoundRect,0.160000X-0.160000X-0.190000X0.160000X-0.190000X0.160000X0.190000X-0.160000X0.190000X0*%
G04 APERTURE END LIST*
D10*
X592739Y6898000D02*
X592739Y5098000D01*
X592739Y6898000D02*
G75*
G02*
X692739Y6998001I100001J0D01*
G01*
X598000Y2498000D02*
X598000Y698000D01*
X598000Y2498000D02*
G75*
G02*
X698000Y2598000I100000J0D01*
G01*
X600000Y4700000D02*
X600000Y2900000D01*
X600000Y4700000D02*
G75*
G02*
X700000Y4800000I100000J0D01*
G01*
X605875Y9102000D02*
X605875Y7302000D01*
X605875Y9102000D02*
G75*
G02*
X705875Y9202005I100005J0D01*
G01*
X692739Y4998000D02*
G75*
G02*
X592740Y5098000I1J100000D01*
G01*
X692739Y4998000D02*
X2492739Y4998000D01*
X698000Y598000D02*
G75*
G02*
X598000Y698000I0J100000D01*
G01*
X698000Y598000D02*
X2498000Y598000D01*
X700000Y2800000D02*
G75*
G02*
X600000Y2900000I0J100000D01*
G01*
X700000Y2800000D02*
X2500000Y2800000D01*
X705875Y7202000D02*
G75*
G02*
X605880Y7302000I5J100000D01*
G01*
X705875Y7202000D02*
X2505875Y7202000D01*
X2492739Y6998000D02*
X692739Y6998000D01*
X2492739Y6998000D02*
G75*
G02*
X2592740Y6898000I1J-100000D01*
G01*
X2498000Y2598000D02*
X698000Y2598000D01*
X2498000Y2598000D02*
G75*
G02*
X2598000Y2498000I0J-100000D01*
G01*
X2500000Y4800000D02*
X700000Y4800000D01*
X2500000Y4800000D02*
G75*
G02*
X2600000Y4700000I0J-100000D01*
G01*
X2505875Y9202000D02*
X705875Y9202000D01*
X2505875Y9202000D02*
G75*
G02*
X2605880Y9102000I5J-100000D01*
G01*
X2592739Y5098000D02*
G75*
G02*
X2492739Y4998001I-99999J0D01*
G01*
X2592739Y5098000D02*
X2592739Y6898000D01*
X2598000Y698000D02*
G75*
G02*
X2498000Y598000I-100000J0D01*
G01*
X2598000Y698000D02*
X2598000Y2498000D01*
X2600000Y2900000D02*
G75*
G02*
X2500000Y2800000I-100000J0D01*
G01*
X2600000Y2900000D02*
X2600000Y4700000D01*
X2605875Y7302000D02*
G75*
G02*
X2505875Y7202005I-99995J0D01*
G01*
X2605875Y7302000D02*
X2605875Y9102000D01*
X2798000Y6898000D02*
X2798000Y5098000D01*
X2798000Y6898000D02*
G75*
G02*
X2898000Y6998000I100000J0D01*
G01*
X2800000Y9100000D02*
X2800000Y7300000D01*
X2800000Y9100000D02*
G75*
G02*
X2900000Y9200000I100000J0D01*
G01*
X2800000Y4700000D02*
X2800000Y2900000D01*
X2800000Y4700000D02*
G75*
G02*
X2900000Y4800000I100000J0D01*
G01*
X2800000Y2500000D02*
X2800000Y700000D01*
X2800000Y2500000D02*
G75*
G02*
X2900000Y2600000I100000J0D01*
G01*
X2898000Y4998000D02*
G75*
G02*
X2798000Y5098000I0J100000D01*
G01*
X2898000Y4998000D02*
X4698000Y4998000D01*
X2900000Y7200000D02*
G75*
G02*
X2800000Y7300000I0J100000D01*
G01*
X2900000Y7200000D02*
X4700000Y7200000D01*
X2900000Y2800000D02*
G75*
G02*
X2800000Y2900000I0J100000D01*
G01*
X2900000Y2800000D02*
X4700000Y2800000D01*
X2900000Y600000D02*
G75*
G02*
X2800000Y700000I0J100000D01*
G01*
X2900000Y600000D02*
X4700000Y600000D01*
X4698000Y6998000D02*
X2898000Y6998000D01*
X4698000Y6998000D02*
G75*
G02*
X4798000Y6898000I0J-100000D01*
G01*
X4700000Y9200000D02*
X2900000Y9200000D01*
X4700000Y9200000D02*
G75*
G02*
X4800000Y9100000I0J-100000D01*
G01*
X4700000Y4800000D02*
X2900000Y4800000D01*
X4700000Y4800000D02*
G75*
G02*
X4800000Y4700000I0J-100000D01*
G01*
X4700000Y2600000D02*
X2900000Y2600000D01*
X4700000Y2600000D02*
G75*
G02*
X4800000Y2500000I0J-100000D01*
G01*
X4798000Y5098000D02*
G75*
G02*
X4698000Y4998000I-100000J0D01*
G01*
X4798000Y5098000D02*
X4798000Y6898000D01*
X4800000Y7300000D02*
G75*
G02*
X4700000Y7200000I-100000J0D01*
G01*
X4800000Y7300000D02*
X4800000Y9100000D01*
X4800000Y2900000D02*
G75*
G02*
X4700000Y2800000I-100000J0D01*
G01*
X4800000Y2900000D02*
X4800000Y4700000D01*
X4800000Y700000D02*
G75*
G02*
X4700000Y600000I-100000J0D01*
G01*
X4800000Y700000D02*
X4800000Y2500000D01*
X4999302Y6900000D02*
X4999302Y5100000D01*
X4999302Y6900000D02*
G75*
G02*
X5099302Y6999998I99998J0D01*
G01*
X4999954Y2498000D02*
X4999954Y698000D01*
X4999954Y2498000D02*
G75*
G02*
X5099954Y2597996I99996J0D01*
G01*
X5000000Y9103000D02*
X5000000Y7303000D01*
X5000000Y9103000D02*
G75*
G02*
X5100000Y9203000I100000J0D01*
G01*
X5000000Y4700000D02*
X5000000Y2900000D01*
X5000000Y4700000D02*
G75*
G02*
X5100000Y4800000I100000J0D01*
G01*
X5099302Y5000000D02*
G75*
G02*
X4999300Y5100000I-2J100000D01*
G01*
X5099302Y5000000D02*
X6899302Y5000000D01*
X5099954Y598000D02*
G75*
G02*
X4999950Y698000I-4J100000D01*
G01*
X5099954Y598000D02*
X6899954Y598000D01*
X5100000Y7203000D02*
G75*
G02*
X5000000Y7303000I0J100000D01*
G01*
X5100000Y7203000D02*
X6900000Y7203000D01*
X5100000Y2800000D02*
G75*
G02*
X5000000Y2900000I0J100000D01*
G01*
X5100000Y2800000D02*
X6900000Y2800000D01*
X6899302Y7000000D02*
X5099302Y7000000D01*
X6899302Y7000000D02*
G75*
G02*
X6999300Y6900000I-2J-100000D01*
G01*
X6899954Y2598000D02*
X5099954Y2598000D01*
X6899954Y2598000D02*
G75*
G02*
X6999950Y2498000I-4J-100000D01*
G01*
X6900000Y9203000D02*
X5100000Y9203000D01*
X6900000Y9203000D02*
G75*
G02*
X7000000Y9103000I0J-100000D01*
G01*
X6900000Y4800000D02*
X5100000Y4800000D01*
X6900000Y4800000D02*
G75*
G02*
X7000000Y4700000I0J-100000D01*
G01*
X6999302Y5100000D02*
G75*
G02*
X6899302Y4999998I-100002J0D01*
G01*
X6999302Y5100000D02*
X6999302Y6900000D01*
X6999954Y698000D02*
G75*
G02*
X6899954Y597996I-100004J0D01*
G01*
X6999954Y698000D02*
X6999954Y2498000D01*
X7000000Y7303000D02*
G75*
G02*
X6900000Y7203000I-100000J0D01*
G01*
X7000000Y7303000D02*
X7000000Y9103000D01*
X7000000Y2900000D02*
G75*
G02*
X6900000Y2800000I-100000J0D01*
G01*
X7000000Y2900000D02*
X7000000Y4700000D01*
X7200000Y9100000D02*
X7200000Y7300000D01*
X7200000Y9100000D02*
G75*
G02*
X7300000Y9200000I100000J0D01*
G01*
X7200000Y6900864D02*
X7200000Y5100864D01*
X7200000Y6900864D02*
G75*
G02*
X7300000Y7000860I100000J-4D01*
G01*
X7200000Y4700000D02*
X7200000Y2900000D01*
X7200000Y4700000D02*
G75*
G02*
X7300000Y4800000I100000J0D01*
G01*
X7200000Y2500000D02*
X7200000Y700000D01*
X7200000Y2500000D02*
G75*
G02*
X7300000Y2600000I100000J0D01*
G01*
X7300000Y7200000D02*
G75*
G02*
X7200000Y7300000I0J100000D01*
G01*
X7300000Y7200000D02*
X9100000Y7200000D01*
X7300000Y5000864D02*
G75*
G02*
X7200004Y5100864I0J99996D01*
G01*
X7300000Y5000864D02*
X9100000Y5000864D01*
X7300000Y2800000D02*
G75*
G02*
X7200000Y2900000I0J100000D01*
G01*
X7300000Y2800000D02*
X9100000Y2800000D01*
X7300000Y600000D02*
G75*
G02*
X7200000Y700000I0J100000D01*
G01*
X7300000Y600000D02*
X9100000Y600000D01*
X9100000Y9200000D02*
X7300000Y9200000D01*
X9100000Y9200000D02*
G75*
G02*
X9200000Y9100000I0J-100000D01*
G01*
X9100000Y7000864D02*
X7300000Y7000864D01*
X9100000Y7000864D02*
G75*
G02*
X9200004Y6900864I0J-100004D01*
G01*
X9100000Y4800000D02*
X7300000Y4800000D01*
X9100000Y4800000D02*
G75*
G02*
X9200000Y4700000I0J-100000D01*
G01*
X9100000Y2600000D02*
X7300000Y2600000D01*
X9100000Y2600000D02*
G75*
G02*
X9200000Y2500000I0J-100000D01*
G01*
X9200000Y7300000D02*
G75*
G02*
X9100000Y7200000I-100000J0D01*
G01*
X9200000Y7300000D02*
X9200000Y9100000D01*
X9200000Y5100864D02*
G75*
G02*
X9100000Y5000860I-100000J-4D01*
G01*
X9200000Y5100864D02*
X9200000Y6900864D01*
X9200000Y2900000D02*
G75*
G02*
X9100000Y2800000I-100000J0D01*
G01*
X9200000Y2900000D02*
X9200000Y4700000D01*
X9200000Y700000D02*
G75*
G02*
X9100000Y600000I-100000J0D01*
G01*
X9200000Y700000D02*
X9200000Y2500000D01*
D11*
%TO.C,J1*%
X9016000Y4418000D03*
X8254000Y4519500D03*
X9016000Y4621000D03*
%TD*%
D12*
%TO.C,H3*%
X8720000Y5480864D03*
%TD*%
D13*
%TO.C,REF\u002A\u002A*%
X3905000Y7175000D03*
X3835000Y7175000D03*
X3765000Y7175000D03*
X3695000Y7175000D03*
%TD*%
%TO.C,REF\u002A\u002A*%
X6105000Y575000D03*
X6035000Y575000D03*
X5965000Y575000D03*
X5895000Y575000D03*
%TD*%
%TO.C,REF\u002A\u002A*%
X4825000Y3905000D03*
X4825000Y3835000D03*
X4825000Y3765000D03*
X4825000Y3695000D03*
%TD*%
%TO.C,REF\u002A\u002A*%
X3695000Y7025000D03*
X3765000Y7025000D03*
X3835000Y7025000D03*
X3905000Y7025000D03*
%TD*%
%TO.C,REF\u002A\u002A*%
X3905000Y4975000D03*
X3835000Y4975000D03*
X3765000Y4975000D03*
X3695000Y4975000D03*
%TD*%
%TO.C,REF\u002A\u002A*%
X2775000Y1495000D03*
X2775000Y1565000D03*
X2775000Y1635000D03*
X2775000Y1705000D03*
%TD*%
%TO.C,REF\u002A\u002A*%
X7025000Y8305000D03*
X7025000Y8235000D03*
X7025000Y8165000D03*
X7025000Y8095000D03*
%TD*%
D12*
%TO.C,H3*%
X2112739Y5478000D03*
%TD*%
D14*
%TO.C,REF\u002A\u002A*%
X6700013Y5299289D03*
%TD*%
D11*
%TO.C,J1*%
X4616000Y2218000D03*
X3854000Y2319500D03*
X4616000Y2421000D03*
%TD*%
%TO.C,J1*%
X6816000Y8821000D03*
X6054000Y8922500D03*
X6816000Y9024000D03*
%TD*%
%TO.C,J1*%
X4616000Y4418000D03*
X3854000Y4519500D03*
X4616000Y4621000D03*
%TD*%
D13*
%TO.C,REF\u002A\u002A*%
X4975000Y3695000D03*
X4975000Y3765000D03*
X4975000Y3835000D03*
X4975000Y3905000D03*
%TD*%
D11*
%TO.C,J1*%
X9016000Y2218000D03*
X8254000Y2319500D03*
X9016000Y2421000D03*
%TD*%
D12*
%TO.C,H3*%
X4320000Y3280000D03*
%TD*%
D14*
%TO.C,REF\u002A\u002A*%
X5300711Y4499289D03*
%TD*%
D13*
%TO.C,REF\u002A\u002A*%
X2625000Y3905000D03*
X2625000Y3835000D03*
X2625000Y3765000D03*
X2625000Y3695000D03*
%TD*%
D14*
%TO.C,REF\u002A\u002A*%
X4500711Y3099289D03*
%TD*%
D13*
%TO.C,REF\u002A\u002A*%
X8095000Y7025000D03*
X8165000Y7025000D03*
X8235000Y7025000D03*
X8305000Y7025000D03*
%TD*%
D14*
%TO.C,REF\u002A\u002A*%
X8900711Y7499289D03*
%TD*%
%TO.C,REF\u002A\u002A*%
X6700665Y897289D03*
%TD*%
D13*
%TO.C,REF\u002A\u002A*%
X7175000Y5895000D03*
X7175000Y5965000D03*
X7175000Y6035000D03*
X7175000Y6105000D03*
%TD*%
%TO.C,REF\u002A\u002A*%
X1495000Y4825000D03*
X1565000Y4825000D03*
X1635000Y4825000D03*
X1705000Y4825000D03*
%TD*%
D14*
%TO.C,REF\u002A\u002A*%
X898711Y2297289D03*
%TD*%
D13*
%TO.C,REF\u002A\u002A*%
X2775000Y3695000D03*
X2775000Y3765000D03*
X2775000Y3835000D03*
X2775000Y3905000D03*
%TD*%
%TO.C,REF\u002A\u002A*%
X6105000Y2775000D03*
X6035000Y2775000D03*
X5965000Y2775000D03*
X5895000Y2775000D03*
%TD*%
%TO.C,REF\u002A\u002A*%
X1495000Y2625000D03*
X1565000Y2625000D03*
X1635000Y2625000D03*
X1705000Y2625000D03*
%TD*%
%TO.C,REF\u002A\u002A*%
X8305000Y4975000D03*
X8235000Y4975000D03*
X8165000Y4975000D03*
X8095000Y4975000D03*
%TD*%
D11*
%TO.C,J1*%
X9016000Y8818000D03*
X8254000Y8919500D03*
X9016000Y9021000D03*
%TD*%
D13*
%TO.C,REF\u002A\u002A*%
X2625000Y6105000D03*
X2625000Y6035000D03*
X2625000Y5965000D03*
X2625000Y5895000D03*
%TD*%
%TO.C,REF\u002A\u002A*%
X4825000Y1705000D03*
X4825000Y1635000D03*
X4825000Y1565000D03*
X4825000Y1495000D03*
%TD*%
%TO.C,REF\u002A\u002A*%
X3695000Y2625000D03*
X3765000Y2625000D03*
X3835000Y2625000D03*
X3905000Y2625000D03*
%TD*%
%TO.C,REF\u002A\u002A*%
X6105000Y4975000D03*
X6035000Y4975000D03*
X5965000Y4975000D03*
X5895000Y4975000D03*
%TD*%
%TO.C,REF\u002A\u002A*%
X8305000Y2775000D03*
X8235000Y2775000D03*
X8165000Y2775000D03*
X8095000Y2775000D03*
%TD*%
%TO.C,REF\u002A\u002A*%
X4975000Y5895000D03*
X4975000Y5965000D03*
X4975000Y6035000D03*
X4975000Y6105000D03*
%TD*%
%TO.C,REF\u002A\u002A*%
X7025000Y3905000D03*
X7025000Y3835000D03*
X7025000Y3765000D03*
X7025000Y3695000D03*
%TD*%
D12*
%TO.C,H3*%
X8720000Y1080000D03*
%TD*%
D14*
%TO.C,REF\u002A\u002A*%
X6700711Y3099289D03*
%TD*%
D12*
%TO.C,H3*%
X6519954Y1078000D03*
%TD*%
D14*
%TO.C,REF\u002A\u002A*%
X7500711Y2299289D03*
%TD*%
%TO.C,REF\u002A\u002A*%
X5300665Y2297289D03*
%TD*%
D11*
%TO.C,J1*%
X6815302Y6618000D03*
X6053302Y6719500D03*
X6815302Y6821000D03*
%TD*%
D13*
%TO.C,REF\u002A\u002A*%
X8095000Y2625000D03*
X8165000Y2625000D03*
X8235000Y2625000D03*
X8305000Y2625000D03*
%TD*%
D14*
%TO.C,REF\u002A\u002A*%
X7500711Y6700154D03*
%TD*%
%TO.C,REF\u002A\u002A*%
X3100711Y2299289D03*
%TD*%
D13*
%TO.C,REF\u002A\u002A*%
X1705000Y4975000D03*
X1635000Y4975000D03*
X1565000Y4975000D03*
X1495000Y4975000D03*
%TD*%
D12*
%TO.C,H3*%
X4320000Y1080000D03*
%TD*%
D14*
%TO.C,REF\u002A\u002A*%
X2300711Y3099289D03*
%TD*%
D13*
%TO.C,REF\u002A\u002A*%
X7025000Y6105000D03*
X7025000Y6035000D03*
X7025000Y5965000D03*
X7025000Y5895000D03*
%TD*%
D11*
%TO.C,J1*%
X9016000Y6618864D03*
X8254000Y6720364D03*
X9016000Y6821864D03*
%TD*%
D12*
%TO.C,H3*%
X4318000Y5478000D03*
%TD*%
D11*
%TO.C,J1*%
X6815954Y2216000D03*
X6053954Y2317500D03*
X6815954Y2419000D03*
%TD*%
D13*
%TO.C,REF\u002A\u002A*%
X4825000Y6105000D03*
X4825000Y6035000D03*
X4825000Y5965000D03*
X4825000Y5895000D03*
%TD*%
D14*
%TO.C,REF\u002A\u002A*%
X8900711Y899289D03*
%TD*%
D13*
%TO.C,REF\u002A\u002A*%
X7025000Y1705000D03*
X7025000Y1635000D03*
X7025000Y1565000D03*
X7025000Y1495000D03*
%TD*%
D12*
%TO.C,H3*%
X2125875Y7682000D03*
%TD*%
D14*
%TO.C,REF\u002A\u002A*%
X900711Y4499289D03*
%TD*%
%TO.C,REF\u002A\u002A*%
X906586Y8901289D03*
%TD*%
D13*
%TO.C,REF\u002A\u002A*%
X9225000Y3905000D03*
X9225000Y3835000D03*
X9225000Y3765000D03*
X9225000Y3695000D03*
%TD*%
%TO.C,REF\u002A\u002A*%
X5895000Y4825000D03*
X5965000Y4825000D03*
X6035000Y4825000D03*
X6105000Y4825000D03*
%TD*%
%TO.C,REF\u002A\u002A*%
X575000Y8095000D03*
X575000Y8165000D03*
X575000Y8235000D03*
X575000Y8305000D03*
%TD*%
D12*
%TO.C,H3*%
X2120000Y3280000D03*
%TD*%
D14*
%TO.C,REF\u002A\u002A*%
X893449Y6697289D03*
%TD*%
D13*
%TO.C,REF\u002A\u002A*%
X6105000Y7175000D03*
X6035000Y7175000D03*
X5965000Y7175000D03*
X5895000Y7175000D03*
%TD*%
%TO.C,REF\u002A\u002A*%
X9225000Y6105000D03*
X9225000Y6035000D03*
X9225000Y5965000D03*
X9225000Y5895000D03*
%TD*%
D11*
%TO.C,J1*%
X2408739Y6616000D03*
X1646739Y6717500D03*
X2408739Y6819000D03*
%TD*%
D12*
%TO.C,H3*%
X6520000Y3280000D03*
%TD*%
D13*
%TO.C,REF\u002A\u002A*%
X5895000Y9225000D03*
X5965000Y9225000D03*
X6035000Y9225000D03*
X6105000Y9225000D03*
%TD*%
D14*
%TO.C,REF\u002A\u002A*%
X2306586Y7501289D03*
%TD*%
%TO.C,REF\u002A\u002A*%
X3100711Y4499289D03*
%TD*%
D13*
%TO.C,REF\u002A\u002A*%
X7175000Y3695000D03*
X7175000Y3765000D03*
X7175000Y3835000D03*
X7175000Y3905000D03*
%TD*%
D12*
%TO.C,H3*%
X2118000Y1078000D03*
%TD*%
D13*
%TO.C,REF\u002A\u002A*%
X2625000Y1705000D03*
X2625000Y1635000D03*
X2625000Y1565000D03*
X2625000Y1495000D03*
%TD*%
%TO.C,REF\u002A\u002A*%
X8305000Y575000D03*
X8235000Y575000D03*
X8165000Y575000D03*
X8095000Y575000D03*
%TD*%
D14*
%TO.C,REF\u002A\u002A*%
X2293449Y5297289D03*
%TD*%
D11*
%TO.C,J1*%
X6816000Y4418000D03*
X6054000Y4519500D03*
X6816000Y4621000D03*
%TD*%
D13*
%TO.C,REF\u002A\u002A*%
X4975000Y8095000D03*
X4975000Y8165000D03*
X4975000Y8235000D03*
X4975000Y8305000D03*
%TD*%
D14*
%TO.C,REF\u002A\u002A*%
X7500711Y4499289D03*
%TD*%
D12*
%TO.C,H3*%
X6519302Y5480000D03*
%TD*%
D13*
%TO.C,REF\u002A\u002A*%
X3905000Y2775000D03*
X3835000Y2775000D03*
X3765000Y2775000D03*
X3695000Y2775000D03*
%TD*%
D14*
%TO.C,REF\u002A\u002A*%
X4500711Y7499289D03*
%TD*%
%TO.C,REF\u002A\u002A*%
X4498711Y5297289D03*
%TD*%
D13*
%TO.C,REF\u002A\u002A*%
X1705000Y7175000D03*
X1635000Y7175000D03*
X1565000Y7175000D03*
X1495000Y7175000D03*
%TD*%
D12*
%TO.C,H3*%
X6520000Y7683000D03*
%TD*%
D13*
%TO.C,REF\u002A\u002A*%
X1705000Y2775000D03*
X1635000Y2775000D03*
X1565000Y2775000D03*
X1495000Y2775000D03*
%TD*%
D11*
%TO.C,J1*%
X2421875Y8820000D03*
X1659875Y8921500D03*
X2421875Y9023000D03*
%TD*%
D14*
%TO.C,REF\u002A\u002A*%
X8900711Y3099289D03*
%TD*%
%TO.C,REF\u002A\u002A*%
X5300013Y6699289D03*
%TD*%
D13*
%TO.C,REF\u002A\u002A*%
X3695000Y9225000D03*
X3765000Y9225000D03*
X3835000Y9225000D03*
X3905000Y9225000D03*
%TD*%
%TO.C,REF\u002A\u002A*%
X3905000Y575000D03*
X3835000Y575000D03*
X3765000Y575000D03*
X3695000Y575000D03*
%TD*%
D14*
%TO.C,REF\u002A\u002A*%
X2298711Y897289D03*
%TD*%
D11*
%TO.C,J1*%
X4616000Y8818000D03*
X3854000Y8919500D03*
X4616000Y9021000D03*
%TD*%
D12*
%TO.C,H3*%
X8720000Y3280000D03*
%TD*%
D13*
%TO.C,REF\u002A\u002A*%
X1495000Y9225000D03*
X1565000Y9225000D03*
X1635000Y9225000D03*
X1705000Y9225000D03*
%TD*%
D14*
%TO.C,REF\u002A\u002A*%
X6700711Y7502289D03*
%TD*%
D11*
%TO.C,J1*%
X2414000Y2216000D03*
X1652000Y2317500D03*
X2414000Y2419000D03*
%TD*%
D14*
%TO.C,REF\u002A\u002A*%
X3098711Y6697289D03*
%TD*%
D13*
%TO.C,REF\u002A\u002A*%
X9225000Y8305000D03*
X9225000Y8235000D03*
X9225000Y8165000D03*
X9225000Y8095000D03*
%TD*%
%TO.C,REF\u002A\u002A*%
X5895000Y7025000D03*
X5965000Y7025000D03*
X6035000Y7025000D03*
X6105000Y7025000D03*
%TD*%
D14*
%TO.C,REF\u002A\u002A*%
X8900711Y5300154D03*
%TD*%
%TO.C,REF\u002A\u002A*%
X4500711Y899289D03*
%TD*%
D12*
%TO.C,H3*%
X4320000Y7680000D03*
%TD*%
D13*
%TO.C,REF\u002A\u002A*%
X4825000Y8305000D03*
X4825000Y8235000D03*
X4825000Y8165000D03*
X4825000Y8095000D03*
%TD*%
%TO.C,REF\u002A\u002A*%
X8095000Y9225000D03*
X8165000Y9225000D03*
X8235000Y9225000D03*
X8305000Y9225000D03*
%TD*%
%TO.C,REF\u002A\u002A*%
X8095000Y4825000D03*
X8165000Y4825000D03*
X8235000Y4825000D03*
X8305000Y4825000D03*
%TD*%
%TO.C,REF\u002A\u002A*%
X5895000Y2625000D03*
X5965000Y2625000D03*
X6035000Y2625000D03*
X6105000Y2625000D03*
%TD*%
D11*
%TO.C,J1*%
X2416000Y4418000D03*
X1654000Y4519500D03*
X2416000Y4621000D03*
%TD*%
D13*
%TO.C,REF\u002A\u002A*%
X575000Y1495000D03*
X575000Y1565000D03*
X575000Y1635000D03*
X575000Y1705000D03*
%TD*%
%TO.C,REF\u002A\u002A*%
X3695000Y4825000D03*
X3765000Y4825000D03*
X3835000Y4825000D03*
X3905000Y4825000D03*
%TD*%
%TO.C,REF\u002A\u002A*%
X2625000Y8305000D03*
X2625000Y8235000D03*
X2625000Y8165000D03*
X2625000Y8095000D03*
%TD*%
%TO.C,REF\u002A\u002A*%
X9225000Y1705000D03*
X9225000Y1635000D03*
X9225000Y1565000D03*
X9225000Y1495000D03*
%TD*%
%TO.C,REF\u002A\u002A*%
X4975000Y1495000D03*
X4975000Y1565000D03*
X4975000Y1635000D03*
X4975000Y1705000D03*
%TD*%
%TO.C,REF\u002A\u002A*%
X2775000Y5895000D03*
X2775000Y5965000D03*
X2775000Y6035000D03*
X2775000Y6105000D03*
%TD*%
D14*
%TO.C,REF\u002A\u002A*%
X3100711Y8899289D03*
%TD*%
D12*
%TO.C,H3*%
X8720000Y7680000D03*
%TD*%
D13*
%TO.C,REF\u002A\u002A*%
X8305000Y7175000D03*
X8235000Y7175000D03*
X8165000Y7175000D03*
X8095000Y7175000D03*
%TD*%
D14*
%TO.C,REF\u002A\u002A*%
X5300711Y8902289D03*
%TD*%
D13*
%TO.C,REF\u002A\u002A*%
X575000Y5895000D03*
X575000Y5965000D03*
X575000Y6035000D03*
X575000Y6105000D03*
%TD*%
%TO.C,REF\u002A\u002A*%
X7175000Y1495000D03*
X7175000Y1565000D03*
X7175000Y1635000D03*
X7175000Y1705000D03*
%TD*%
%TO.C,REF\u002A\u002A*%
X575000Y3695000D03*
X575000Y3765000D03*
X575000Y3835000D03*
X575000Y3905000D03*
%TD*%
%TO.C,REF\u002A\u002A*%
X1705000Y575000D03*
X1635000Y575000D03*
X1565000Y575000D03*
X1495000Y575000D03*
%TD*%
D11*
%TO.C,J1*%
X4614000Y6616000D03*
X3852000Y6717500D03*
X4614000Y6819000D03*
%TD*%
D13*
%TO.C,REF\u002A\u002A*%
X1495000Y7025000D03*
X1565000Y7025000D03*
X1635000Y7025000D03*
X1705000Y7025000D03*
%TD*%
D14*
%TO.C,REF\u002A\u002A*%
X7500711Y8899289D03*
%TD*%
D13*
%TO.C,REF\u002A\u002A*%
X2775000Y8095000D03*
X2775000Y8165000D03*
X2775000Y8235000D03*
X2775000Y8305000D03*
%TD*%
%TO.C,REF\u002A\u002A*%
X7175000Y8095000D03*
X7175000Y8165000D03*
X7175000Y8235000D03*
X7175000Y8305000D03*
%TD*%
D15*
%TO.C,D3*%
X8672000Y6479864D03*
X8672000Y6629864D03*
%TD*%
D16*
%TO.C,C14*%
X3180000Y3930000D03*
X3280000Y3930000D03*
%TD*%
D17*
%TO.C,C16*%
X7570000Y5810864D03*
X7570000Y5910864D03*
%TD*%
D18*
%TO.C,R9*%
X3873000Y1110000D03*
X3767000Y1110000D03*
%TD*%
D19*
%TO.C,R7*%
X8720000Y6053864D03*
X8720000Y5947864D03*
%TD*%
D15*
%TO.C,D3*%
X2077875Y8681000D03*
X2077875Y8831000D03*
%TD*%
D16*
%TO.C,C2*%
X3450000Y7367000D03*
X3550000Y7367000D03*
%TD*%
D20*
%TO.C,R5*%
X2322739Y5745000D03*
X2322739Y5851000D03*
%TD*%
D21*
%TO.C,U2*%
X1300239Y6286000D03*
X1365239Y6286000D03*
X1430239Y6286000D03*
X1495239Y6286000D03*
X1560239Y6286000D03*
X1625239Y6286000D03*
X1690239Y6286000D03*
X1755239Y6286000D03*
X1820239Y6286000D03*
X1885239Y6286000D03*
X1885239Y5710000D03*
X1820239Y5710000D03*
X1755239Y5710000D03*
X1690239Y5710000D03*
X1625239Y5710000D03*
X1560239Y5710000D03*
X1495239Y5710000D03*
X1430239Y5710000D03*
X1365239Y5710000D03*
X1300239Y5710000D03*
%TD*%
D17*
%TO.C,C5*%
X3850000Y8670000D03*
X3850000Y8770000D03*
%TD*%
%TO.C,C16*%
X5370000Y3610000D03*
X5370000Y3710000D03*
%TD*%
D16*
%TO.C,C2*%
X7850000Y7367000D03*
X7950000Y7367000D03*
%TD*%
D22*
%TO.C,C7*%
X8110000Y2100000D03*
X8010000Y2100000D03*
%TD*%
D23*
%TO.C,C9*%
X2218000Y1348000D03*
X2218000Y1248000D03*
%TD*%
D19*
%TO.C,R13*%
X1308000Y2201000D03*
X1308000Y2095000D03*
%TD*%
D22*
%TO.C,C7*%
X3710000Y8700000D03*
X3610000Y8700000D03*
%TD*%
D20*
%TO.C,R14*%
X6602000Y4295000D03*
X6602000Y4401000D03*
%TD*%
%TO.C,R5*%
X2330000Y3547000D03*
X2330000Y3653000D03*
%TD*%
D17*
%TO.C,C15*%
X3280000Y3610000D03*
X3280000Y3710000D03*
%TD*%
D20*
%TO.C,R14*%
X2202000Y4295000D03*
X2202000Y4401000D03*
%TD*%
D23*
%TO.C,C1*%
X1245875Y7687000D03*
X1245875Y7587000D03*
%TD*%
D19*
%TO.C,R1*%
X1348000Y1091000D03*
X1348000Y985000D03*
%TD*%
D24*
%TO.C,CON1*%
X3236250Y5225000D03*
X3236250Y5350000D03*
X3236250Y5475000D03*
X3236250Y5600000D03*
%TD*%
D17*
%TO.C,C11*%
X3168000Y6288000D03*
X3168000Y6388000D03*
%TD*%
%TO.C,C5*%
X1650000Y4270000D03*
X1650000Y4370000D03*
%TD*%
%TO.C,C11*%
X7570000Y4090000D03*
X7570000Y4190000D03*
%TD*%
D24*
%TO.C,CON1*%
X1038250Y3027000D03*
X1038250Y3152000D03*
X1038250Y3277000D03*
X1038250Y3402000D03*
%TD*%
D23*
%TO.C,C1*%
X7840000Y3285000D03*
X7840000Y3185000D03*
%TD*%
D19*
%TO.C,R10*%
X3979000Y2173000D03*
X3979000Y2067000D03*
%TD*%
D21*
%TO.C,U2*%
X5707500Y4088000D03*
X5772500Y4088000D03*
X5837500Y4088000D03*
X5902500Y4088000D03*
X5967500Y4088000D03*
X6032500Y4088000D03*
X6097500Y4088000D03*
X6162500Y4088000D03*
X6227500Y4088000D03*
X6292500Y4088000D03*
X6292500Y3512000D03*
X6227500Y3512000D03*
X6162500Y3512000D03*
X6097500Y3512000D03*
X6032500Y3512000D03*
X5967500Y3512000D03*
X5902500Y3512000D03*
X5837500Y3512000D03*
X5772500Y3512000D03*
X5707500Y3512000D03*
%TD*%
%TO.C,U2*%
X1313375Y8490000D03*
X1378375Y8490000D03*
X1443375Y8490000D03*
X1508375Y8490000D03*
X1573375Y8490000D03*
X1638375Y8490000D03*
X1703375Y8490000D03*
X1768375Y8490000D03*
X1833375Y8490000D03*
X1898375Y8490000D03*
X1898375Y7914000D03*
X1833375Y7914000D03*
X1768375Y7914000D03*
X1703375Y7914000D03*
X1638375Y7914000D03*
X1573375Y7914000D03*
X1508375Y7914000D03*
X1443375Y7914000D03*
X1378375Y7914000D03*
X1313375Y7914000D03*
%TD*%
D17*
%TO.C,C10*%
X5259302Y6290000D03*
X5259302Y6390000D03*
%TD*%
D16*
%TO.C,C2*%
X1255875Y7369000D03*
X1355875Y7369000D03*
%TD*%
D17*
%TO.C,C11*%
X968000Y1888000D03*
X968000Y1988000D03*
%TD*%
D18*
%TO.C,R12*%
X9033000Y3970000D03*
X8927000Y3970000D03*
%TD*%
D24*
%TO.C,CON1*%
X7638250Y3027000D03*
X7638250Y3152000D03*
X7638250Y3277000D03*
X7638250Y3402000D03*
%TD*%
D25*
%TO.C,FB1*%
X7856800Y7477000D03*
X7943200Y7477000D03*
%TD*%
D20*
%TO.C,R14*%
X2194739Y6493000D03*
X2194739Y6599000D03*
%TD*%
D15*
%TO.C,D3*%
X8672000Y4279000D03*
X8672000Y4429000D03*
%TD*%
D17*
%TO.C,C12*%
X5479954Y1888000D03*
X5479954Y1988000D03*
%TD*%
%TO.C,C5*%
X1655875Y8672000D03*
X1655875Y8772000D03*
%TD*%
D12*
%TO.C,H4*%
X3262000Y8742000D03*
%TD*%
D23*
%TO.C,C3*%
X2040000Y3090000D03*
X2040000Y2990000D03*
%TD*%
D17*
%TO.C,C11*%
X7570000Y1890000D03*
X7570000Y1990000D03*
%TD*%
D26*
%TO.C,U1*%
X5905000Y7388000D03*
X5905000Y7483000D03*
X5905000Y7578000D03*
X6175000Y7578000D03*
X6175000Y7388000D03*
%TD*%
D23*
%TO.C,C8*%
X2110000Y3550000D03*
X2110000Y3450000D03*
%TD*%
D18*
%TO.C,R9*%
X8273000Y5510864D03*
X8167000Y5510864D03*
%TD*%
D22*
%TO.C,C13*%
X5480000Y8223000D03*
X5380000Y8223000D03*
%TD*%
D17*
%TO.C,C12*%
X7680000Y4090000D03*
X7680000Y4190000D03*
%TD*%
D23*
%TO.C,C3*%
X8640000Y5290864D03*
X8640000Y5190864D03*
%TD*%
D15*
%TO.C,D3*%
X2072000Y4279000D03*
X2072000Y4429000D03*
%TD*%
D27*
%TO.C,R2*%
X1769739Y5508000D03*
X1875739Y5508000D03*
%TD*%
D17*
%TO.C,C15*%
X7680000Y3610000D03*
X7680000Y3710000D03*
%TD*%
D27*
%TO.C,R2*%
X1782875Y7712000D03*
X1888875Y7712000D03*
%TD*%
D16*
%TO.C,C14*%
X7580000Y1730000D03*
X7680000Y1730000D03*
%TD*%
%TO.C,C14*%
X980000Y3930000D03*
X1080000Y3930000D03*
%TD*%
%TO.C,C2*%
X5649302Y5167000D03*
X5749302Y5167000D03*
%TD*%
D12*
%TO.C,H4*%
X1060000Y2140000D03*
%TD*%
D16*
%TO.C,C6*%
X8010000Y2210000D03*
X8110000Y2210000D03*
%TD*%
D21*
%TO.C,U2*%
X7907500Y4088000D03*
X7972500Y4088000D03*
X8037500Y4088000D03*
X8102500Y4088000D03*
X8167500Y4088000D03*
X8232500Y4088000D03*
X8297500Y4088000D03*
X8362500Y4088000D03*
X8427500Y4088000D03*
X8492500Y4088000D03*
X8492500Y3512000D03*
X8427500Y3512000D03*
X8362500Y3512000D03*
X8297500Y3512000D03*
X8232500Y3512000D03*
X8167500Y3512000D03*
X8102500Y3512000D03*
X8037500Y3512000D03*
X7972500Y3512000D03*
X7907500Y3512000D03*
%TD*%
D23*
%TO.C,C1*%
X7840000Y1085000D03*
X7840000Y985000D03*
%TD*%
D15*
%TO.C,D3*%
X6471302Y6479000D03*
X6471302Y6629000D03*
%TD*%
D23*
%TO.C,C3*%
X4240000Y3090000D03*
X4240000Y2990000D03*
%TD*%
D17*
%TO.C,C12*%
X5480000Y4090000D03*
X5480000Y4190000D03*
%TD*%
%TO.C,C16*%
X968000Y1408000D03*
X968000Y1508000D03*
%TD*%
D19*
%TO.C,R13*%
X1310000Y4403000D03*
X1310000Y4297000D03*
%TD*%
D23*
%TO.C,C3*%
X4240000Y7490000D03*
X4240000Y7390000D03*
%TD*%
D16*
%TO.C,C6*%
X3610000Y4410000D03*
X3710000Y4410000D03*
%TD*%
D17*
%TO.C,C15*%
X1072739Y5808000D03*
X1072739Y5908000D03*
%TD*%
D27*
%TO.C,R2*%
X3977000Y3310000D03*
X4083000Y3310000D03*
%TD*%
D22*
%TO.C,C7*%
X1502739Y6498000D03*
X1402739Y6498000D03*
%TD*%
D23*
%TO.C,C8*%
X4310000Y7950000D03*
X4310000Y7850000D03*
%TD*%
D18*
%TO.C,R12*%
X2438875Y8372000D03*
X2332875Y8372000D03*
%TD*%
%TO.C,R9*%
X1673000Y3310000D03*
X1567000Y3310000D03*
%TD*%
D27*
%TO.C,R2*%
X8377000Y5510864D03*
X8483000Y5510864D03*
%TD*%
D23*
%TO.C,C1*%
X3438000Y5483000D03*
X3438000Y5383000D03*
%TD*%
D26*
%TO.C,U1*%
X5904954Y783000D03*
X5904954Y878000D03*
X5904954Y973000D03*
X6174954Y973000D03*
X6174954Y783000D03*
%TD*%
D20*
%TO.C,R14*%
X4402000Y8695000D03*
X4402000Y8801000D03*
%TD*%
D18*
%TO.C,R9*%
X6072302Y5510000D03*
X5966302Y5510000D03*
%TD*%
D20*
%TO.C,R5*%
X6729302Y5747000D03*
X6729302Y5853000D03*
%TD*%
D16*
%TO.C,C6*%
X8010000Y8810000D03*
X8110000Y8810000D03*
%TD*%
D19*
%TO.C,R1*%
X7950000Y1093000D03*
X7950000Y987000D03*
%TD*%
D17*
%TO.C,C10*%
X860000Y4090000D03*
X860000Y4190000D03*
%TD*%
D18*
%TO.C,R11*%
X6622302Y6170000D03*
X6516302Y6170000D03*
%TD*%
D26*
%TO.C,U1*%
X8105000Y7385000D03*
X8105000Y7480000D03*
X8105000Y7575000D03*
X8375000Y7575000D03*
X8375000Y7385000D03*
%TD*%
D18*
%TO.C,R12*%
X9033000Y8370000D03*
X8927000Y8370000D03*
%TD*%
D16*
%TO.C,C2*%
X5649954Y765000D03*
X5749954Y765000D03*
%TD*%
D17*
%TO.C,C16*%
X975875Y8012000D03*
X975875Y8112000D03*
%TD*%
D22*
%TO.C,C13*%
X7680000Y1620000D03*
X7580000Y1620000D03*
%TD*%
D15*
%TO.C,D3*%
X4270000Y6477000D03*
X4270000Y6627000D03*
%TD*%
D17*
%TO.C,C5*%
X6049302Y6470000D03*
X6049302Y6570000D03*
%TD*%
%TO.C,C11*%
X3170000Y1890000D03*
X3170000Y1990000D03*
%TD*%
D23*
%TO.C,C1*%
X3440000Y1085000D03*
X3440000Y985000D03*
%TD*%
D26*
%TO.C,U1*%
X1503000Y783000D03*
X1503000Y878000D03*
X1503000Y973000D03*
X1773000Y973000D03*
X1773000Y783000D03*
%TD*%
D16*
%TO.C,C6*%
X3610000Y2210000D03*
X3710000Y2210000D03*
%TD*%
D19*
%TO.C,R13*%
X3510000Y2203000D03*
X3510000Y2097000D03*
%TD*%
D18*
%TO.C,R12*%
X6833000Y8373000D03*
X6727000Y8373000D03*
%TD*%
D22*
%TO.C,C7*%
X3710000Y2100000D03*
X3610000Y2100000D03*
%TD*%
D23*
%TO.C,C9*%
X8820000Y3550000D03*
X8820000Y3450000D03*
%TD*%
D20*
%TO.C,R5*%
X8930000Y3547000D03*
X8930000Y3653000D03*
%TD*%
D17*
%TO.C,C15*%
X3280000Y1410000D03*
X3280000Y1510000D03*
%TD*%
D23*
%TO.C,C8*%
X2115875Y7952000D03*
X2115875Y7852000D03*
%TD*%
D20*
%TO.C,R14*%
X8802000Y8695000D03*
X8802000Y8801000D03*
%TD*%
D16*
%TO.C,C6*%
X8010000Y6610864D03*
X8110000Y6610864D03*
%TD*%
D23*
%TO.C,C4*%
X6324302Y5290000D03*
X6324302Y5190000D03*
%TD*%
D16*
%TO.C,C6*%
X8010000Y4410000D03*
X8110000Y4410000D03*
%TD*%
D17*
%TO.C,C10*%
X858000Y1888000D03*
X858000Y1988000D03*
%TD*%
D19*
%TO.C,R4*%
X6729302Y6063000D03*
X6729302Y5957000D03*
%TD*%
%TO.C,R1*%
X7950000Y7693000D03*
X7950000Y7587000D03*
%TD*%
%TO.C,R13*%
X7910000Y2203000D03*
X7910000Y2097000D03*
%TD*%
D20*
%TO.C,R5*%
X4530000Y3547000D03*
X4530000Y3653000D03*
%TD*%
D18*
%TO.C,R12*%
X4633000Y8370000D03*
X4527000Y8370000D03*
%TD*%
D26*
%TO.C,U1*%
X1497739Y5183000D03*
X1497739Y5278000D03*
X1497739Y5373000D03*
X1767739Y5373000D03*
X1767739Y5183000D03*
%TD*%
D16*
%TO.C,C6*%
X5809302Y6610000D03*
X5909302Y6610000D03*
%TD*%
D23*
%TO.C,C3*%
X4238000Y5288000D03*
X4238000Y5188000D03*
%TD*%
D24*
%TO.C,CON1*%
X1044125Y7429000D03*
X1044125Y7554000D03*
X1044125Y7679000D03*
X1044125Y7804000D03*
%TD*%
D19*
%TO.C,R1*%
X3550000Y7693000D03*
X3550000Y7587000D03*
%TD*%
D23*
%TO.C,C4*%
X4123000Y5288000D03*
X4123000Y5188000D03*
%TD*%
D24*
%TO.C,CON1*%
X5437552Y5227000D03*
X5437552Y5352000D03*
X5437552Y5477000D03*
X5437552Y5602000D03*
%TD*%
D12*
%TO.C,H4*%
X7662000Y2142000D03*
%TD*%
D18*
%TO.C,R11*%
X6623000Y8373000D03*
X6517000Y8373000D03*
%TD*%
D23*
%TO.C,C4*%
X6324954Y888000D03*
X6324954Y788000D03*
%TD*%
%TO.C,C9*%
X2220000Y3550000D03*
X2220000Y3450000D03*
%TD*%
D16*
%TO.C,C14*%
X985875Y8332000D03*
X1085875Y8332000D03*
%TD*%
D20*
%TO.C,R5*%
X4528000Y5745000D03*
X4528000Y5851000D03*
%TD*%
D17*
%TO.C,C12*%
X1078000Y1888000D03*
X1078000Y1988000D03*
%TD*%
D19*
%TO.C,R7*%
X2112739Y6051000D03*
X2112739Y5945000D03*
%TD*%
D21*
%TO.C,U2*%
X5707500Y8491000D03*
X5772500Y8491000D03*
X5837500Y8491000D03*
X5902500Y8491000D03*
X5967500Y8491000D03*
X6032500Y8491000D03*
X6097500Y8491000D03*
X6162500Y8491000D03*
X6227500Y8491000D03*
X6292500Y8491000D03*
X6292500Y7915000D03*
X6227500Y7915000D03*
X6162500Y7915000D03*
X6097500Y7915000D03*
X6032500Y7915000D03*
X5967500Y7915000D03*
X5902500Y7915000D03*
X5837500Y7915000D03*
X5772500Y7915000D03*
X5707500Y7915000D03*
%TD*%
D19*
%TO.C,R7*%
X6520000Y8256000D03*
X6520000Y8150000D03*
%TD*%
D22*
%TO.C,C13*%
X1078000Y1618000D03*
X978000Y1618000D03*
%TD*%
D12*
%TO.C,H4*%
X3262000Y4342000D03*
%TD*%
D22*
%TO.C,C13*%
X3280000Y3820000D03*
X3180000Y3820000D03*
%TD*%
D17*
%TO.C,C5*%
X3850000Y2070000D03*
X3850000Y2170000D03*
%TD*%
D19*
%TO.C,R1*%
X7950000Y5493864D03*
X7950000Y5387864D03*
%TD*%
D23*
%TO.C,C1*%
X7840000Y5485864D03*
X7840000Y5385864D03*
%TD*%
D17*
%TO.C,C5*%
X6049954Y2068000D03*
X6049954Y2168000D03*
%TD*%
D18*
%TO.C,R12*%
X2425739Y6168000D03*
X2319739Y6168000D03*
%TD*%
D19*
%TO.C,R10*%
X6178302Y6573000D03*
X6178302Y6467000D03*
%TD*%
D27*
%TO.C,R2*%
X3977000Y7710000D03*
X4083000Y7710000D03*
%TD*%
D23*
%TO.C,C1*%
X5640000Y3285000D03*
X5640000Y3185000D03*
%TD*%
D19*
%TO.C,R4*%
X6729954Y1661000D03*
X6729954Y1555000D03*
%TD*%
D20*
%TO.C,R14*%
X4402000Y2095000D03*
X4402000Y2201000D03*
%TD*%
D19*
%TO.C,R7*%
X2118000Y1651000D03*
X2118000Y1545000D03*
%TD*%
D18*
%TO.C,R11*%
X8823000Y8370000D03*
X8717000Y8370000D03*
%TD*%
D16*
%TO.C,C2*%
X1248000Y765000D03*
X1348000Y765000D03*
%TD*%
D18*
%TO.C,R12*%
X6832302Y6170000D03*
X6726302Y6170000D03*
%TD*%
D17*
%TO.C,C10*%
X7460000Y4090000D03*
X7460000Y4190000D03*
%TD*%
D24*
%TO.C,CON1*%
X1030989Y5225000D03*
X1030989Y5350000D03*
X1030989Y5475000D03*
X1030989Y5600000D03*
%TD*%
D17*
%TO.C,C10*%
X5260000Y4090000D03*
X5260000Y4190000D03*
%TD*%
D18*
%TO.C,R11*%
X2223000Y3970000D03*
X2117000Y3970000D03*
%TD*%
D19*
%TO.C,R1*%
X1350000Y3293000D03*
X1350000Y3187000D03*
%TD*%
%TO.C,R4*%
X4528000Y6061000D03*
X4528000Y5955000D03*
%TD*%
%TO.C,R1*%
X3548000Y5491000D03*
X3548000Y5385000D03*
%TD*%
D17*
%TO.C,C16*%
X5369302Y5810000D03*
X5369302Y5910000D03*
%TD*%
D18*
%TO.C,R9*%
X8273000Y3310000D03*
X8167000Y3310000D03*
%TD*%
D20*
%TO.C,R14*%
X2207875Y8697000D03*
X2207875Y8803000D03*
%TD*%
D23*
%TO.C,C1*%
X5639302Y5485000D03*
X5639302Y5385000D03*
%TD*%
D20*
%TO.C,R5*%
X8930000Y1347000D03*
X8930000Y1453000D03*
%TD*%
%TO.C,R14*%
X4402000Y4295000D03*
X4402000Y4401000D03*
%TD*%
D17*
%TO.C,C16*%
X3170000Y8010000D03*
X3170000Y8110000D03*
%TD*%
D22*
%TO.C,C13*%
X3278000Y6018000D03*
X3178000Y6018000D03*
%TD*%
D20*
%TO.C,R14*%
X8802000Y6495864D03*
X8802000Y6601864D03*
%TD*%
D17*
%TO.C,C16*%
X7570000Y1410000D03*
X7570000Y1510000D03*
%TD*%
D23*
%TO.C,C4*%
X8525000Y3090000D03*
X8525000Y2990000D03*
%TD*%
D19*
%TO.C,R13*%
X3510000Y8803000D03*
X3510000Y8697000D03*
%TD*%
%TO.C,R1*%
X1355875Y7695000D03*
X1355875Y7589000D03*
%TD*%
D17*
%TO.C,C5*%
X8250000Y4270000D03*
X8250000Y4370000D03*
%TD*%
D22*
%TO.C,C7*%
X8110000Y4300000D03*
X8010000Y4300000D03*
%TD*%
D20*
%TO.C,R5*%
X6730000Y7950000D03*
X6730000Y8056000D03*
%TD*%
D23*
%TO.C,C8*%
X6509954Y1348000D03*
X6509954Y1248000D03*
%TD*%
D19*
%TO.C,R1*%
X5749954Y1091000D03*
X5749954Y985000D03*
%TD*%
D25*
%TO.C,FB1*%
X5656800Y3077000D03*
X5743200Y3077000D03*
%TD*%
D18*
%TO.C,R11*%
X2221000Y1768000D03*
X2115000Y1768000D03*
%TD*%
D26*
%TO.C,U1*%
X5904302Y5185000D03*
X5904302Y5280000D03*
X5904302Y5375000D03*
X6174302Y5375000D03*
X6174302Y5185000D03*
%TD*%
D24*
%TO.C,CON1*%
X5438204Y825000D03*
X5438204Y950000D03*
X5438204Y1075000D03*
X5438204Y1200000D03*
%TD*%
D26*
%TO.C,U1*%
X3705000Y7385000D03*
X3705000Y7480000D03*
X3705000Y7575000D03*
X3975000Y7575000D03*
X3975000Y7385000D03*
%TD*%
D17*
%TO.C,C16*%
X3170000Y1410000D03*
X3170000Y1510000D03*
%TD*%
D16*
%TO.C,C2*%
X3450000Y767000D03*
X3550000Y767000D03*
%TD*%
D19*
%TO.C,R7*%
X4320000Y1653000D03*
X4320000Y1547000D03*
%TD*%
D21*
%TO.C,U2*%
X7907500Y1888000D03*
X7972500Y1888000D03*
X8037500Y1888000D03*
X8102500Y1888000D03*
X8167500Y1888000D03*
X8232500Y1888000D03*
X8297500Y1888000D03*
X8362500Y1888000D03*
X8427500Y1888000D03*
X8492500Y1888000D03*
X8492500Y1312000D03*
X8427500Y1312000D03*
X8362500Y1312000D03*
X8297500Y1312000D03*
X8232500Y1312000D03*
X8167500Y1312000D03*
X8102500Y1312000D03*
X8037500Y1312000D03*
X7972500Y1312000D03*
X7907500Y1312000D03*
%TD*%
D20*
%TO.C,R5*%
X8930000Y5747864D03*
X8930000Y5853864D03*
%TD*%
D19*
%TO.C,R13*%
X5710000Y4403000D03*
X5710000Y4297000D03*
%TD*%
D17*
%TO.C,C12*%
X3280000Y1890000D03*
X3280000Y1990000D03*
%TD*%
D24*
%TO.C,CON1*%
X5438250Y3027000D03*
X5438250Y3152000D03*
X5438250Y3277000D03*
X5438250Y3402000D03*
%TD*%
D17*
%TO.C,C11*%
X975875Y8492000D03*
X975875Y8592000D03*
%TD*%
D24*
%TO.C,CON1*%
X7638250Y5227864D03*
X7638250Y5352864D03*
X7638250Y5477864D03*
X7638250Y5602864D03*
%TD*%
D19*
%TO.C,R4*%
X8930000Y6063864D03*
X8930000Y5957864D03*
%TD*%
%TO.C,R13*%
X3510000Y4403000D03*
X3510000Y4297000D03*
%TD*%
%TO.C,R10*%
X1777000Y2171000D03*
X1777000Y2065000D03*
%TD*%
D23*
%TO.C,C9*%
X2212739Y5748000D03*
X2212739Y5648000D03*
%TD*%
D16*
%TO.C,C14*%
X5380000Y3930000D03*
X5480000Y3930000D03*
%TD*%
D25*
%TO.C,FB1*%
X7856800Y5277864D03*
X7943200Y5277864D03*
%TD*%
D15*
%TO.C,D3*%
X4272000Y8679000D03*
X4272000Y8829000D03*
%TD*%
D19*
%TO.C,R1*%
X5750000Y7696000D03*
X5750000Y7590000D03*
%TD*%
D22*
%TO.C,C7*%
X3710000Y4300000D03*
X3610000Y4300000D03*
%TD*%
D19*
%TO.C,R1*%
X3550000Y1093000D03*
X3550000Y987000D03*
%TD*%
D21*
%TO.C,U2*%
X7907500Y6288864D03*
X7972500Y6288864D03*
X8037500Y6288864D03*
X8102500Y6288864D03*
X8167500Y6288864D03*
X8232500Y6288864D03*
X8297500Y6288864D03*
X8362500Y6288864D03*
X8427500Y6288864D03*
X8492500Y6288864D03*
X8492500Y5712864D03*
X8427500Y5712864D03*
X8362500Y5712864D03*
X8297500Y5712864D03*
X8232500Y5712864D03*
X8167500Y5712864D03*
X8102500Y5712864D03*
X8037500Y5712864D03*
X7972500Y5712864D03*
X7907500Y5712864D03*
%TD*%
D19*
%TO.C,R7*%
X8720000Y1653000D03*
X8720000Y1547000D03*
%TD*%
D16*
%TO.C,C2*%
X5650000Y2967000D03*
X5750000Y2967000D03*
%TD*%
D23*
%TO.C,C3*%
X6439954Y888000D03*
X6439954Y788000D03*
%TD*%
D17*
%TO.C,C15*%
X1085875Y8012000D03*
X1085875Y8112000D03*
%TD*%
D23*
%TO.C,C8*%
X8710000Y5750864D03*
X8710000Y5650864D03*
%TD*%
D22*
%TO.C,C13*%
X1085875Y8222000D03*
X985875Y8222000D03*
%TD*%
D16*
%TO.C,C2*%
X1250000Y2967000D03*
X1350000Y2967000D03*
%TD*%
%TO.C,C14*%
X7580000Y8330000D03*
X7680000Y8330000D03*
%TD*%
%TO.C,C6*%
X3608000Y6608000D03*
X3708000Y6608000D03*
%TD*%
D23*
%TO.C,C3*%
X6440000Y7493000D03*
X6440000Y7393000D03*
%TD*%
D12*
%TO.C,H4*%
X7662000Y6542864D03*
%TD*%
D19*
%TO.C,R7*%
X6520000Y3853000D03*
X6520000Y3747000D03*
%TD*%
D25*
%TO.C,FB1*%
X3456800Y877000D03*
X3543200Y877000D03*
%TD*%
D19*
%TO.C,R7*%
X2125875Y8255000D03*
X2125875Y8149000D03*
%TD*%
%TO.C,R1*%
X1342739Y5491000D03*
X1342739Y5385000D03*
%TD*%
D27*
%TO.C,R2*%
X6177000Y7713000D03*
X6283000Y7713000D03*
%TD*%
D12*
%TO.C,H4*%
X3260000Y6540000D03*
%TD*%
%TO.C,H4*%
X7662000Y4342000D03*
%TD*%
D24*
%TO.C,CON1*%
X7638250Y827000D03*
X7638250Y952000D03*
X7638250Y1077000D03*
X7638250Y1202000D03*
%TD*%
D22*
%TO.C,C13*%
X1072739Y6018000D03*
X972739Y6018000D03*
%TD*%
D23*
%TO.C,C4*%
X8525000Y7490000D03*
X8525000Y7390000D03*
%TD*%
D17*
%TO.C,C11*%
X3170000Y4090000D03*
X3170000Y4190000D03*
%TD*%
D27*
%TO.C,R2*%
X3977000Y1110000D03*
X4083000Y1110000D03*
%TD*%
D23*
%TO.C,C4*%
X4125000Y3090000D03*
X4125000Y2990000D03*
%TD*%
D17*
%TO.C,C15*%
X3280000Y8010000D03*
X3280000Y8110000D03*
%TD*%
D12*
%TO.C,H4*%
X5462000Y4342000D03*
%TD*%
D23*
%TO.C,C4*%
X1923000Y888000D03*
X1923000Y788000D03*
%TD*%
D18*
%TO.C,R11*%
X4423000Y3970000D03*
X4317000Y3970000D03*
%TD*%
D23*
%TO.C,C8*%
X4308000Y5748000D03*
X4308000Y5648000D03*
%TD*%
%TO.C,C9*%
X4418000Y5748000D03*
X4418000Y5648000D03*
%TD*%
%TO.C,C3*%
X2045875Y7492000D03*
X2045875Y7392000D03*
%TD*%
D27*
%TO.C,R2*%
X8377000Y1110000D03*
X8483000Y1110000D03*
%TD*%
D20*
%TO.C,R5*%
X2328000Y1345000D03*
X2328000Y1451000D03*
%TD*%
D17*
%TO.C,C5*%
X1642739Y6468000D03*
X1642739Y6568000D03*
%TD*%
%TO.C,C5*%
X8250000Y6470864D03*
X8250000Y6570864D03*
%TD*%
D20*
%TO.C,R14*%
X6601954Y2093000D03*
X6601954Y2199000D03*
%TD*%
D25*
%TO.C,FB1*%
X3456800Y3077000D03*
X3543200Y3077000D03*
%TD*%
D16*
%TO.C,C14*%
X972739Y6128000D03*
X1072739Y6128000D03*
%TD*%
D26*
%TO.C,U1*%
X1510875Y7387000D03*
X1510875Y7482000D03*
X1510875Y7577000D03*
X1780875Y7577000D03*
X1780875Y7387000D03*
%TD*%
D19*
%TO.C,R1*%
X3550000Y3293000D03*
X3550000Y3187000D03*
%TD*%
D17*
%TO.C,C15*%
X5479954Y1408000D03*
X5479954Y1508000D03*
%TD*%
D25*
%TO.C,FB1*%
X3454800Y5275000D03*
X3541200Y5275000D03*
%TD*%
D17*
%TO.C,C11*%
X5370000Y8493000D03*
X5370000Y8593000D03*
%TD*%
D24*
%TO.C,CON1*%
X3238250Y827000D03*
X3238250Y952000D03*
X3238250Y1077000D03*
X3238250Y1202000D03*
%TD*%
D19*
%TO.C,R7*%
X8720000Y8253000D03*
X8720000Y8147000D03*
%TD*%
D17*
%TO.C,C15*%
X1080000Y3610000D03*
X1080000Y3710000D03*
%TD*%
D16*
%TO.C,C6*%
X5810000Y4410000D03*
X5910000Y4410000D03*
%TD*%
D19*
%TO.C,R10*%
X1784875Y8775000D03*
X1784875Y8669000D03*
%TD*%
%TO.C,R13*%
X5710000Y8806000D03*
X5710000Y8700000D03*
%TD*%
D23*
%TO.C,C1*%
X1238000Y1083000D03*
X1238000Y983000D03*
%TD*%
D18*
%TO.C,R11*%
X8823000Y6170864D03*
X8717000Y6170864D03*
%TD*%
%TO.C,R12*%
X4631000Y6168000D03*
X4525000Y6168000D03*
%TD*%
D27*
%TO.C,R2*%
X3975000Y5508000D03*
X4081000Y5508000D03*
%TD*%
D16*
%TO.C,C6*%
X1402739Y6608000D03*
X1502739Y6608000D03*
%TD*%
D26*
%TO.C,U1*%
X5905000Y2985000D03*
X5905000Y3080000D03*
X5905000Y3175000D03*
X6175000Y3175000D03*
X6175000Y2985000D03*
%TD*%
D19*
%TO.C,R10*%
X6178954Y2171000D03*
X6178954Y2065000D03*
%TD*%
D23*
%TO.C,C9*%
X8820000Y1350000D03*
X8820000Y1250000D03*
%TD*%
%TO.C,C1*%
X3440000Y3285000D03*
X3440000Y3185000D03*
%TD*%
D20*
%TO.C,R5*%
X4530000Y1347000D03*
X4530000Y1453000D03*
%TD*%
D23*
%TO.C,C4*%
X8525000Y890000D03*
X8525000Y790000D03*
%TD*%
D18*
%TO.C,R11*%
X6623000Y3970000D03*
X6517000Y3970000D03*
%TD*%
D15*
%TO.C,D3*%
X2064739Y6477000D03*
X2064739Y6627000D03*
%TD*%
D17*
%TO.C,C12*%
X3278000Y6288000D03*
X3278000Y6388000D03*
%TD*%
D23*
%TO.C,C9*%
X6620000Y3550000D03*
X6620000Y3450000D03*
%TD*%
D17*
%TO.C,C16*%
X3168000Y5808000D03*
X3168000Y5908000D03*
%TD*%
D16*
%TO.C,C14*%
X5380000Y8333000D03*
X5480000Y8333000D03*
%TD*%
D23*
%TO.C,C1*%
X7840000Y7685000D03*
X7840000Y7585000D03*
%TD*%
D17*
%TO.C,C10*%
X3058000Y6288000D03*
X3058000Y6388000D03*
%TD*%
%TO.C,C5*%
X3848000Y6468000D03*
X3848000Y6568000D03*
%TD*%
D12*
%TO.C,H4*%
X5462000Y8745000D03*
%TD*%
D16*
%TO.C,C14*%
X3178000Y6128000D03*
X3278000Y6128000D03*
%TD*%
D19*
%TO.C,R10*%
X8379000Y6573864D03*
X8379000Y6467864D03*
%TD*%
D18*
%TO.C,R12*%
X4633000Y1770000D03*
X4527000Y1770000D03*
%TD*%
D22*
%TO.C,C7*%
X1515875Y8702000D03*
X1415875Y8702000D03*
%TD*%
D17*
%TO.C,C16*%
X962739Y5808000D03*
X962739Y5908000D03*
%TD*%
D22*
%TO.C,C13*%
X7680000Y3820000D03*
X7580000Y3820000D03*
%TD*%
D17*
%TO.C,C16*%
X7570000Y3610000D03*
X7570000Y3710000D03*
%TD*%
D21*
%TO.C,U2*%
X1307500Y4088000D03*
X1372500Y4088000D03*
X1437500Y4088000D03*
X1502500Y4088000D03*
X1567500Y4088000D03*
X1632500Y4088000D03*
X1697500Y4088000D03*
X1762500Y4088000D03*
X1827500Y4088000D03*
X1892500Y4088000D03*
X1892500Y3512000D03*
X1827500Y3512000D03*
X1762500Y3512000D03*
X1697500Y3512000D03*
X1632500Y3512000D03*
X1567500Y3512000D03*
X1502500Y3512000D03*
X1437500Y3512000D03*
X1372500Y3512000D03*
X1307500Y3512000D03*
%TD*%
D26*
%TO.C,U1*%
X3703000Y5183000D03*
X3703000Y5278000D03*
X3703000Y5373000D03*
X3973000Y5373000D03*
X3973000Y5183000D03*
%TD*%
D19*
%TO.C,R4*%
X2330000Y3863000D03*
X2330000Y3757000D03*
%TD*%
D22*
%TO.C,C7*%
X5909302Y6500000D03*
X5809302Y6500000D03*
%TD*%
D19*
%TO.C,R4*%
X2335875Y8265000D03*
X2335875Y8159000D03*
%TD*%
D23*
%TO.C,C3*%
X4240000Y890000D03*
X4240000Y790000D03*
%TD*%
D17*
%TO.C,C10*%
X7460000Y6290864D03*
X7460000Y6390864D03*
%TD*%
D23*
%TO.C,C4*%
X1917739Y5288000D03*
X1917739Y5188000D03*
%TD*%
D17*
%TO.C,C15*%
X7680000Y1410000D03*
X7680000Y1510000D03*
%TD*%
D22*
%TO.C,C7*%
X5909954Y2098000D03*
X5809954Y2098000D03*
%TD*%
D17*
%TO.C,C15*%
X7680000Y8010000D03*
X7680000Y8110000D03*
%TD*%
D15*
%TO.C,D3*%
X8672000Y8679000D03*
X8672000Y8829000D03*
%TD*%
D23*
%TO.C,C8*%
X2102739Y5748000D03*
X2102739Y5648000D03*
%TD*%
D25*
%TO.C,FB1*%
X3456800Y7477000D03*
X3543200Y7477000D03*
%TD*%
D16*
%TO.C,C6*%
X1410000Y4410000D03*
X1510000Y4410000D03*
%TD*%
D19*
%TO.C,R7*%
X4320000Y8253000D03*
X4320000Y8147000D03*
%TD*%
D18*
%TO.C,R11*%
X8823000Y3970000D03*
X8717000Y3970000D03*
%TD*%
D17*
%TO.C,C10*%
X852739Y6288000D03*
X852739Y6388000D03*
%TD*%
D23*
%TO.C,C8*%
X8710000Y7950000D03*
X8710000Y7850000D03*
%TD*%
D27*
%TO.C,R2*%
X1777000Y3310000D03*
X1883000Y3310000D03*
%TD*%
D23*
%TO.C,C4*%
X4125000Y890000D03*
X4125000Y790000D03*
%TD*%
D16*
%TO.C,C6*%
X1408000Y2208000D03*
X1508000Y2208000D03*
%TD*%
D17*
%TO.C,C16*%
X5370000Y8013000D03*
X5370000Y8113000D03*
%TD*%
D26*
%TO.C,U1*%
X1505000Y2985000D03*
X1505000Y3080000D03*
X1505000Y3175000D03*
X1775000Y3175000D03*
X1775000Y2985000D03*
%TD*%
D19*
%TO.C,R13*%
X3508000Y6601000D03*
X3508000Y6495000D03*
%TD*%
D12*
%TO.C,H4*%
X5461302Y6542000D03*
%TD*%
D23*
%TO.C,C1*%
X5640000Y7688000D03*
X5640000Y7588000D03*
%TD*%
D16*
%TO.C,C2*%
X7850000Y767000D03*
X7950000Y767000D03*
%TD*%
D19*
%TO.C,R1*%
X5749302Y5493000D03*
X5749302Y5387000D03*
%TD*%
D12*
%TO.C,H4*%
X1054739Y6540000D03*
%TD*%
D21*
%TO.C,U2*%
X7907500Y8488000D03*
X7972500Y8488000D03*
X8037500Y8488000D03*
X8102500Y8488000D03*
X8167500Y8488000D03*
X8232500Y8488000D03*
X8297500Y8488000D03*
X8362500Y8488000D03*
X8427500Y8488000D03*
X8492500Y8488000D03*
X8492500Y7912000D03*
X8427500Y7912000D03*
X8362500Y7912000D03*
X8297500Y7912000D03*
X8232500Y7912000D03*
X8167500Y7912000D03*
X8102500Y7912000D03*
X8037500Y7912000D03*
X7972500Y7912000D03*
X7907500Y7912000D03*
%TD*%
D17*
%TO.C,C16*%
X7570000Y8010000D03*
X7570000Y8110000D03*
%TD*%
D19*
%TO.C,R7*%
X6519302Y6053000D03*
X6519302Y5947000D03*
%TD*%
D12*
%TO.C,H4*%
X7662000Y8742000D03*
%TD*%
D17*
%TO.C,C11*%
X970000Y4090000D03*
X970000Y4190000D03*
%TD*%
D22*
%TO.C,C7*%
X1508000Y2098000D03*
X1408000Y2098000D03*
%TD*%
D24*
%TO.C,CON1*%
X3238250Y7427000D03*
X3238250Y7552000D03*
X3238250Y7677000D03*
X3238250Y7802000D03*
%TD*%
D16*
%TO.C,C2*%
X7850000Y5167864D03*
X7950000Y5167864D03*
%TD*%
D15*
%TO.C,D3*%
X4272000Y4279000D03*
X4272000Y4429000D03*
%TD*%
D17*
%TO.C,C10*%
X7460000Y8490000D03*
X7460000Y8590000D03*
%TD*%
D22*
%TO.C,C7*%
X5910000Y4300000D03*
X5810000Y4300000D03*
%TD*%
D18*
%TO.C,R11*%
X2215739Y6168000D03*
X2109739Y6168000D03*
%TD*%
D22*
%TO.C,C13*%
X7680000Y6020864D03*
X7580000Y6020864D03*
%TD*%
D20*
%TO.C,R14*%
X8802000Y4295000D03*
X8802000Y4401000D03*
%TD*%
D17*
%TO.C,C10*%
X865875Y8492000D03*
X865875Y8592000D03*
%TD*%
%TO.C,C11*%
X5369302Y6290000D03*
X5369302Y6390000D03*
%TD*%
D19*
%TO.C,R10*%
X6179000Y8776000D03*
X6179000Y8670000D03*
%TD*%
%TO.C,R4*%
X8930000Y8263000D03*
X8930000Y8157000D03*
%TD*%
%TO.C,R10*%
X1771739Y6571000D03*
X1771739Y6465000D03*
%TD*%
D22*
%TO.C,C7*%
X5910000Y8703000D03*
X5810000Y8703000D03*
%TD*%
D21*
%TO.C,U2*%
X5707454Y1886000D03*
X5772454Y1886000D03*
X5837454Y1886000D03*
X5902454Y1886000D03*
X5967454Y1886000D03*
X6032454Y1886000D03*
X6097454Y1886000D03*
X6162454Y1886000D03*
X6227454Y1886000D03*
X6292454Y1886000D03*
X6292454Y1310000D03*
X6227454Y1310000D03*
X6162454Y1310000D03*
X6097454Y1310000D03*
X6032454Y1310000D03*
X5967454Y1310000D03*
X5902454Y1310000D03*
X5837454Y1310000D03*
X5772454Y1310000D03*
X5707454Y1310000D03*
%TD*%
D22*
%TO.C,C7*%
X8110000Y8700000D03*
X8010000Y8700000D03*
%TD*%
D23*
%TO.C,C8*%
X8710000Y1350000D03*
X8710000Y1250000D03*
%TD*%
%TO.C,C8*%
X6510000Y3550000D03*
X6510000Y3450000D03*
%TD*%
D20*
%TO.C,R5*%
X8930000Y7947000D03*
X8930000Y8053000D03*
%TD*%
D18*
%TO.C,R9*%
X8273000Y1110000D03*
X8167000Y1110000D03*
%TD*%
D25*
%TO.C,FB1*%
X1256800Y3077000D03*
X1343200Y3077000D03*
%TD*%
D19*
%TO.C,R10*%
X1779000Y4373000D03*
X1779000Y4267000D03*
%TD*%
D17*
%TO.C,C15*%
X3278000Y5808000D03*
X3278000Y5908000D03*
%TD*%
D24*
%TO.C,CON1*%
X7638250Y7427000D03*
X7638250Y7552000D03*
X7638250Y7677000D03*
X7638250Y7802000D03*
%TD*%
D17*
%TO.C,C12*%
X3280000Y8490000D03*
X3280000Y8590000D03*
%TD*%
D25*
%TO.C,FB1*%
X5656754Y875000D03*
X5743154Y875000D03*
%TD*%
D17*
%TO.C,C10*%
X3060000Y1890000D03*
X3060000Y1990000D03*
%TD*%
D16*
%TO.C,C14*%
X5379302Y6130000D03*
X5479302Y6130000D03*
%TD*%
D24*
%TO.C,CON1*%
X3238250Y3027000D03*
X3238250Y3152000D03*
X3238250Y3277000D03*
X3238250Y3402000D03*
%TD*%
D25*
%TO.C,FB1*%
X1254800Y875000D03*
X1341200Y875000D03*
%TD*%
D18*
%TO.C,R12*%
X9033000Y6170864D03*
X8927000Y6170864D03*
%TD*%
D19*
%TO.C,R4*%
X8930000Y1663000D03*
X8930000Y1557000D03*
%TD*%
%TO.C,R13*%
X7910000Y4403000D03*
X7910000Y4297000D03*
%TD*%
%TO.C,R4*%
X2328000Y1661000D03*
X2328000Y1555000D03*
%TD*%
D26*
%TO.C,U1*%
X8105000Y2985000D03*
X8105000Y3080000D03*
X8105000Y3175000D03*
X8375000Y3175000D03*
X8375000Y2985000D03*
%TD*%
D20*
%TO.C,R5*%
X2335875Y7949000D03*
X2335875Y8055000D03*
%TD*%
D16*
%TO.C,C14*%
X7580000Y6130864D03*
X7680000Y6130864D03*
%TD*%
%TO.C,C2*%
X3450000Y2967000D03*
X3550000Y2967000D03*
%TD*%
D22*
%TO.C,C7*%
X1510000Y4300000D03*
X1410000Y4300000D03*
%TD*%
D19*
%TO.C,R1*%
X7950000Y3293000D03*
X7950000Y3187000D03*
%TD*%
D20*
%TO.C,R5*%
X6730000Y3547000D03*
X6730000Y3653000D03*
%TD*%
D23*
%TO.C,C3*%
X8640000Y3090000D03*
X8640000Y2990000D03*
%TD*%
D18*
%TO.C,R11*%
X4421000Y6168000D03*
X4315000Y6168000D03*
%TD*%
D16*
%TO.C,C14*%
X5379954Y1728000D03*
X5479954Y1728000D03*
%TD*%
D23*
%TO.C,C9*%
X6620000Y7953000D03*
X6620000Y7853000D03*
%TD*%
D17*
%TO.C,C15*%
X5479302Y5810000D03*
X5479302Y5910000D03*
%TD*%
%TO.C,C15*%
X5480000Y8013000D03*
X5480000Y8113000D03*
%TD*%
D25*
%TO.C,FB1*%
X7856800Y877000D03*
X7943200Y877000D03*
%TD*%
D17*
%TO.C,C16*%
X5369954Y1408000D03*
X5369954Y1508000D03*
%TD*%
D27*
%TO.C,R2*%
X6176954Y1108000D03*
X6282954Y1108000D03*
%TD*%
D18*
%TO.C,R12*%
X2431000Y1768000D03*
X2325000Y1768000D03*
%TD*%
D17*
%TO.C,C10*%
X3060000Y4090000D03*
X3060000Y4190000D03*
%TD*%
%TO.C,C12*%
X7680000Y1890000D03*
X7680000Y1990000D03*
%TD*%
D23*
%TO.C,C1*%
X5639954Y1083000D03*
X5639954Y983000D03*
%TD*%
D18*
%TO.C,R12*%
X2433000Y3970000D03*
X2327000Y3970000D03*
%TD*%
D17*
%TO.C,C12*%
X1080000Y4090000D03*
X1080000Y4190000D03*
%TD*%
D23*
%TO.C,C9*%
X2225875Y7952000D03*
X2225875Y7852000D03*
%TD*%
D19*
%TO.C,R10*%
X6179000Y4373000D03*
X6179000Y4267000D03*
%TD*%
D17*
%TO.C,C11*%
X3170000Y8490000D03*
X3170000Y8590000D03*
%TD*%
D12*
%TO.C,H4*%
X1062000Y4342000D03*
%TD*%
D23*
%TO.C,C4*%
X1925000Y3090000D03*
X1925000Y2990000D03*
%TD*%
D17*
%TO.C,C5*%
X3850000Y4270000D03*
X3850000Y4370000D03*
%TD*%
D21*
%TO.C,U2*%
X3507500Y8488000D03*
X3572500Y8488000D03*
X3637500Y8488000D03*
X3702500Y8488000D03*
X3767500Y8488000D03*
X3832500Y8488000D03*
X3897500Y8488000D03*
X3962500Y8488000D03*
X4027500Y8488000D03*
X4092500Y8488000D03*
X4092500Y7912000D03*
X4027500Y7912000D03*
X3962500Y7912000D03*
X3897500Y7912000D03*
X3832500Y7912000D03*
X3767500Y7912000D03*
X3702500Y7912000D03*
X3637500Y7912000D03*
X3572500Y7912000D03*
X3507500Y7912000D03*
%TD*%
D22*
%TO.C,C7*%
X8110000Y6500864D03*
X8010000Y6500864D03*
%TD*%
D16*
%TO.C,C6*%
X3610000Y8810000D03*
X3710000Y8810000D03*
%TD*%
D18*
%TO.C,R12*%
X9033000Y1770000D03*
X8927000Y1770000D03*
%TD*%
D19*
%TO.C,R10*%
X3977000Y6571000D03*
X3977000Y6465000D03*
%TD*%
D27*
%TO.C,R2*%
X6177000Y3310000D03*
X6283000Y3310000D03*
%TD*%
D20*
%TO.C,R14*%
X8802000Y2095000D03*
X8802000Y2201000D03*
%TD*%
D17*
%TO.C,C5*%
X8250000Y8670000D03*
X8250000Y8770000D03*
%TD*%
D22*
%TO.C,C13*%
X5480000Y3820000D03*
X5380000Y3820000D03*
%TD*%
D20*
%TO.C,R5*%
X4530000Y7947000D03*
X4530000Y8053000D03*
%TD*%
D23*
%TO.C,C4*%
X6325000Y7493000D03*
X6325000Y7393000D03*
%TD*%
D17*
%TO.C,C15*%
X7680000Y5810864D03*
X7680000Y5910864D03*
%TD*%
%TO.C,C10*%
X5259954Y1888000D03*
X5259954Y1988000D03*
%TD*%
D25*
%TO.C,FB1*%
X7856800Y3077000D03*
X7943200Y3077000D03*
%TD*%
D23*
%TO.C,C3*%
X6440000Y3090000D03*
X6440000Y2990000D03*
%TD*%
D17*
%TO.C,C15*%
X1078000Y1408000D03*
X1078000Y1508000D03*
%TD*%
D19*
%TO.C,R10*%
X8379000Y2173000D03*
X8379000Y2067000D03*
%TD*%
D17*
%TO.C,C15*%
X5480000Y3610000D03*
X5480000Y3710000D03*
%TD*%
%TO.C,C12*%
X3280000Y4090000D03*
X3280000Y4190000D03*
%TD*%
D23*
%TO.C,C1*%
X3440000Y7685000D03*
X3440000Y7585000D03*
%TD*%
D21*
%TO.C,U2*%
X5706802Y6288000D03*
X5771802Y6288000D03*
X5836802Y6288000D03*
X5901802Y6288000D03*
X5966802Y6288000D03*
X6031802Y6288000D03*
X6096802Y6288000D03*
X6161802Y6288000D03*
X6226802Y6288000D03*
X6291802Y6288000D03*
X6291802Y5712000D03*
X6226802Y5712000D03*
X6161802Y5712000D03*
X6096802Y5712000D03*
X6031802Y5712000D03*
X5966802Y5712000D03*
X5901802Y5712000D03*
X5836802Y5712000D03*
X5771802Y5712000D03*
X5706802Y5712000D03*
%TD*%
D20*
%TO.C,R14*%
X2200000Y2093000D03*
X2200000Y2199000D03*
%TD*%
%TO.C,R14*%
X6602000Y8698000D03*
X6602000Y8804000D03*
%TD*%
D17*
%TO.C,C11*%
X5369954Y1888000D03*
X5369954Y1988000D03*
%TD*%
D15*
%TO.C,D3*%
X6472000Y8682000D03*
X6472000Y8832000D03*
%TD*%
D19*
%TO.C,R13*%
X5709302Y6603000D03*
X5709302Y6497000D03*
%TD*%
D17*
%TO.C,C5*%
X8250000Y2070000D03*
X8250000Y2170000D03*
%TD*%
D19*
%TO.C,R13*%
X1315875Y8805000D03*
X1315875Y8699000D03*
%TD*%
D23*
%TO.C,C9*%
X6619954Y1348000D03*
X6619954Y1248000D03*
%TD*%
D19*
%TO.C,R13*%
X1302739Y6601000D03*
X1302739Y6495000D03*
%TD*%
D17*
%TO.C,C10*%
X5260000Y8493000D03*
X5260000Y8593000D03*
%TD*%
D18*
%TO.C,R11*%
X6622954Y1768000D03*
X6516954Y1768000D03*
%TD*%
D23*
%TO.C,C1*%
X1240000Y3285000D03*
X1240000Y3185000D03*
%TD*%
D22*
%TO.C,C13*%
X5479302Y6020000D03*
X5379302Y6020000D03*
%TD*%
D17*
%TO.C,C12*%
X5480000Y8493000D03*
X5480000Y8593000D03*
%TD*%
D19*
%TO.C,R4*%
X2322739Y6061000D03*
X2322739Y5955000D03*
%TD*%
%TO.C,R10*%
X8379000Y4373000D03*
X8379000Y4267000D03*
%TD*%
D24*
%TO.C,CON1*%
X1036250Y825000D03*
X1036250Y950000D03*
X1036250Y1075000D03*
X1036250Y1200000D03*
%TD*%
D12*
%TO.C,H4*%
X3262000Y2142000D03*
%TD*%
D23*
%TO.C,C9*%
X4420000Y7950000D03*
X4420000Y7850000D03*
%TD*%
D15*
%TO.C,D3*%
X6471954Y2077000D03*
X6471954Y2227000D03*
%TD*%
D20*
%TO.C,R5*%
X6729954Y1345000D03*
X6729954Y1451000D03*
%TD*%
D16*
%TO.C,C2*%
X7850000Y2967000D03*
X7950000Y2967000D03*
%TD*%
D19*
%TO.C,R7*%
X6519954Y1651000D03*
X6519954Y1545000D03*
%TD*%
D22*
%TO.C,C13*%
X3280000Y1620000D03*
X3180000Y1620000D03*
%TD*%
D18*
%TO.C,R9*%
X3873000Y7710000D03*
X3767000Y7710000D03*
%TD*%
D15*
%TO.C,D3*%
X6472000Y4279000D03*
X6472000Y4429000D03*
%TD*%
D22*
%TO.C,C13*%
X3280000Y8220000D03*
X3180000Y8220000D03*
%TD*%
D17*
%TO.C,C12*%
X7680000Y6290864D03*
X7680000Y6390864D03*
%TD*%
D23*
%TO.C,C1*%
X1232739Y5483000D03*
X1232739Y5383000D03*
%TD*%
%TO.C,C8*%
X2108000Y1348000D03*
X2108000Y1248000D03*
%TD*%
D25*
%TO.C,FB1*%
X1262675Y7479000D03*
X1349075Y7479000D03*
%TD*%
D16*
%TO.C,C14*%
X978000Y1728000D03*
X1078000Y1728000D03*
%TD*%
D23*
%TO.C,C3*%
X2032739Y5288000D03*
X2032739Y5188000D03*
%TD*%
D19*
%TO.C,R10*%
X3979000Y8773000D03*
X3979000Y8667000D03*
%TD*%
D17*
%TO.C,C10*%
X7460000Y1890000D03*
X7460000Y1990000D03*
%TD*%
D23*
%TO.C,C4*%
X8525000Y5290864D03*
X8525000Y5190864D03*
%TD*%
D15*
%TO.C,D3*%
X8672000Y2079000D03*
X8672000Y2229000D03*
%TD*%
D23*
%TO.C,C9*%
X4420000Y1350000D03*
X4420000Y1250000D03*
%TD*%
D18*
%TO.C,R11*%
X4423000Y1770000D03*
X4317000Y1770000D03*
%TD*%
D16*
%TO.C,C14*%
X3180000Y8330000D03*
X3280000Y8330000D03*
%TD*%
D20*
%TO.C,R14*%
X6601302Y6495000D03*
X6601302Y6601000D03*
%TD*%
D18*
%TO.C,R11*%
X8823000Y1770000D03*
X8717000Y1770000D03*
%TD*%
D12*
%TO.C,H4*%
X1067875Y8744000D03*
%TD*%
D24*
%TO.C,CON1*%
X5438250Y7430000D03*
X5438250Y7555000D03*
X5438250Y7680000D03*
X5438250Y7805000D03*
%TD*%
D23*
%TO.C,C8*%
X8710000Y3550000D03*
X8710000Y3450000D03*
%TD*%
D18*
%TO.C,R9*%
X1665739Y5508000D03*
X1559739Y5508000D03*
%TD*%
D17*
%TO.C,C16*%
X3170000Y3610000D03*
X3170000Y3710000D03*
%TD*%
D26*
%TO.C,U1*%
X8105000Y5185864D03*
X8105000Y5280864D03*
X8105000Y5375864D03*
X8375000Y5375864D03*
X8375000Y5185864D03*
%TD*%
D23*
%TO.C,C8*%
X6509302Y5750000D03*
X6509302Y5650000D03*
%TD*%
D19*
%TO.C,R1*%
X5750000Y3293000D03*
X5750000Y3187000D03*
%TD*%
D27*
%TO.C,R2*%
X8377000Y3310000D03*
X8483000Y3310000D03*
%TD*%
D21*
%TO.C,U2*%
X1305500Y1886000D03*
X1370500Y1886000D03*
X1435500Y1886000D03*
X1500500Y1886000D03*
X1565500Y1886000D03*
X1630500Y1886000D03*
X1695500Y1886000D03*
X1760500Y1886000D03*
X1825500Y1886000D03*
X1890500Y1886000D03*
X1890500Y1310000D03*
X1825500Y1310000D03*
X1760500Y1310000D03*
X1695500Y1310000D03*
X1630500Y1310000D03*
X1565500Y1310000D03*
X1500500Y1310000D03*
X1435500Y1310000D03*
X1370500Y1310000D03*
X1305500Y1310000D03*
%TD*%
D19*
%TO.C,R7*%
X2120000Y3853000D03*
X2120000Y3747000D03*
%TD*%
D17*
%TO.C,C12*%
X1085875Y8492000D03*
X1085875Y8592000D03*
%TD*%
D18*
%TO.C,R11*%
X2228875Y8372000D03*
X2122875Y8372000D03*
%TD*%
D23*
%TO.C,C8*%
X4310000Y3550000D03*
X4310000Y3450000D03*
%TD*%
D21*
%TO.C,U2*%
X3507500Y1888000D03*
X3572500Y1888000D03*
X3637500Y1888000D03*
X3702500Y1888000D03*
X3767500Y1888000D03*
X3832500Y1888000D03*
X3897500Y1888000D03*
X3962500Y1888000D03*
X4027500Y1888000D03*
X4092500Y1888000D03*
X4092500Y1312000D03*
X4027500Y1312000D03*
X3962500Y1312000D03*
X3897500Y1312000D03*
X3832500Y1312000D03*
X3767500Y1312000D03*
X3702500Y1312000D03*
X3637500Y1312000D03*
X3572500Y1312000D03*
X3507500Y1312000D03*
%TD*%
D17*
%TO.C,C12*%
X1072739Y6288000D03*
X1072739Y6388000D03*
%TD*%
D18*
%TO.C,R11*%
X4423000Y8370000D03*
X4317000Y8370000D03*
%TD*%
D26*
%TO.C,U1*%
X3705000Y2985000D03*
X3705000Y3080000D03*
X3705000Y3175000D03*
X3975000Y3175000D03*
X3975000Y2985000D03*
%TD*%
D16*
%TO.C,C2*%
X5650000Y7370000D03*
X5750000Y7370000D03*
%TD*%
D18*
%TO.C,R9*%
X3871000Y5508000D03*
X3765000Y5508000D03*
%TD*%
%TO.C,R12*%
X4633000Y3970000D03*
X4527000Y3970000D03*
%TD*%
D20*
%TO.C,R14*%
X4400000Y6493000D03*
X4400000Y6599000D03*
%TD*%
D23*
%TO.C,C9*%
X8820000Y7950000D03*
X8820000Y7850000D03*
%TD*%
D19*
%TO.C,R13*%
X7910000Y6603864D03*
X7910000Y6497864D03*
%TD*%
D17*
%TO.C,C5*%
X1648000Y2068000D03*
X1648000Y2168000D03*
%TD*%
D23*
%TO.C,C4*%
X6325000Y3090000D03*
X6325000Y2990000D03*
%TD*%
D19*
%TO.C,R7*%
X4318000Y6051000D03*
X4318000Y5945000D03*
%TD*%
D26*
%TO.C,U1*%
X3705000Y785000D03*
X3705000Y880000D03*
X3705000Y975000D03*
X3975000Y975000D03*
X3975000Y785000D03*
%TD*%
D19*
%TO.C,R10*%
X8379000Y8773000D03*
X8379000Y8667000D03*
%TD*%
D23*
%TO.C,C8*%
X6510000Y7953000D03*
X6510000Y7853000D03*
%TD*%
D18*
%TO.C,R9*%
X3873000Y3310000D03*
X3767000Y3310000D03*
%TD*%
D26*
%TO.C,U1*%
X8105000Y785000D03*
X8105000Y880000D03*
X8105000Y975000D03*
X8375000Y975000D03*
X8375000Y785000D03*
%TD*%
D23*
%TO.C,C3*%
X6439302Y5290000D03*
X6439302Y5190000D03*
%TD*%
D25*
%TO.C,FB1*%
X5656800Y7480000D03*
X5743200Y7480000D03*
%TD*%
D23*
%TO.C,C9*%
X8820000Y5750864D03*
X8820000Y5650864D03*
%TD*%
%TO.C,C9*%
X6619302Y5750000D03*
X6619302Y5650000D03*
%TD*%
D17*
%TO.C,C5*%
X6050000Y8673000D03*
X6050000Y8773000D03*
%TD*%
%TO.C,C11*%
X5370000Y4090000D03*
X5370000Y4190000D03*
%TD*%
D19*
%TO.C,R4*%
X4530000Y3863000D03*
X4530000Y3757000D03*
%TD*%
%TO.C,R4*%
X4530000Y1663000D03*
X4530000Y1557000D03*
%TD*%
D27*
%TO.C,R2*%
X8377000Y7710000D03*
X8483000Y7710000D03*
%TD*%
D16*
%TO.C,C2*%
X1242739Y5165000D03*
X1342739Y5165000D03*
%TD*%
D19*
%TO.C,R13*%
X7910000Y8803000D03*
X7910000Y8697000D03*
%TD*%
D17*
%TO.C,C11*%
X962739Y6288000D03*
X962739Y6388000D03*
%TD*%
D23*
%TO.C,C8*%
X4310000Y1350000D03*
X4310000Y1250000D03*
%TD*%
D18*
%TO.C,R12*%
X6833000Y3970000D03*
X6727000Y3970000D03*
%TD*%
%TO.C,R9*%
X6072954Y1108000D03*
X5966954Y1108000D03*
%TD*%
D17*
%TO.C,C11*%
X7570000Y8490000D03*
X7570000Y8590000D03*
%TD*%
D16*
%TO.C,C6*%
X1415875Y8812000D03*
X1515875Y8812000D03*
%TD*%
%TO.C,C6*%
X5810000Y8813000D03*
X5910000Y8813000D03*
%TD*%
D17*
%TO.C,C10*%
X3060000Y8490000D03*
X3060000Y8590000D03*
%TD*%
D22*
%TO.C,C13*%
X5479954Y1618000D03*
X5379954Y1618000D03*
%TD*%
D19*
%TO.C,R7*%
X8720000Y3853000D03*
X8720000Y3747000D03*
%TD*%
D22*
%TO.C,C13*%
X7680000Y8220000D03*
X7580000Y8220000D03*
%TD*%
D17*
%TO.C,C16*%
X970000Y3610000D03*
X970000Y3710000D03*
%TD*%
D16*
%TO.C,C6*%
X5809954Y2208000D03*
X5909954Y2208000D03*
%TD*%
D23*
%TO.C,C3*%
X2038000Y888000D03*
X2038000Y788000D03*
%TD*%
D19*
%TO.C,R13*%
X5709954Y2201000D03*
X5709954Y2095000D03*
%TD*%
%TO.C,R4*%
X8930000Y3863000D03*
X8930000Y3757000D03*
%TD*%
D16*
%TO.C,C2*%
X3448000Y5165000D03*
X3548000Y5165000D03*
%TD*%
D12*
%TO.C,H4*%
X5461954Y2140000D03*
%TD*%
D18*
%TO.C,R12*%
X6832954Y1768000D03*
X6726954Y1768000D03*
%TD*%
D19*
%TO.C,R7*%
X4320000Y3853000D03*
X4320000Y3747000D03*
%TD*%
%TO.C,R4*%
X4530000Y8263000D03*
X4530000Y8157000D03*
%TD*%
D15*
%TO.C,D3*%
X2070000Y2077000D03*
X2070000Y2227000D03*
%TD*%
D18*
%TO.C,R9*%
X6073000Y7713000D03*
X5967000Y7713000D03*
%TD*%
D19*
%TO.C,R4*%
X6730000Y3863000D03*
X6730000Y3757000D03*
%TD*%
D21*
%TO.C,U2*%
X3505500Y6286000D03*
X3570500Y6286000D03*
X3635500Y6286000D03*
X3700500Y6286000D03*
X3765500Y6286000D03*
X3830500Y6286000D03*
X3895500Y6286000D03*
X3960500Y6286000D03*
X4025500Y6286000D03*
X4090500Y6286000D03*
X4090500Y5710000D03*
X4025500Y5710000D03*
X3960500Y5710000D03*
X3895500Y5710000D03*
X3830500Y5710000D03*
X3765500Y5710000D03*
X3700500Y5710000D03*
X3635500Y5710000D03*
X3570500Y5710000D03*
X3505500Y5710000D03*
%TD*%
D19*
%TO.C,R10*%
X3979000Y4373000D03*
X3979000Y4267000D03*
%TD*%
D25*
%TO.C,FB1*%
X1249539Y5275000D03*
X1335939Y5275000D03*
%TD*%
D18*
%TO.C,R9*%
X8273000Y7710000D03*
X8167000Y7710000D03*
%TD*%
D27*
%TO.C,R2*%
X1775000Y1108000D03*
X1881000Y1108000D03*
%TD*%
D16*
%TO.C,C14*%
X7580000Y3930000D03*
X7680000Y3930000D03*
%TD*%
D18*
%TO.C,R9*%
X6073000Y3310000D03*
X5967000Y3310000D03*
%TD*%
D27*
%TO.C,R2*%
X6176302Y5510000D03*
X6282302Y5510000D03*
%TD*%
D16*
%TO.C,C14*%
X3180000Y1730000D03*
X3280000Y1730000D03*
%TD*%
D19*
%TO.C,R4*%
X6730000Y8266000D03*
X6730000Y8160000D03*
%TD*%
D17*
%TO.C,C12*%
X5479302Y6290000D03*
X5479302Y6390000D03*
%TD*%
D18*
%TO.C,R9*%
X1678875Y7712000D03*
X1572875Y7712000D03*
%TD*%
D23*
%TO.C,C4*%
X1930875Y7492000D03*
X1930875Y7392000D03*
%TD*%
D21*
%TO.C,U2*%
X3507500Y4088000D03*
X3572500Y4088000D03*
X3637500Y4088000D03*
X3702500Y4088000D03*
X3767500Y4088000D03*
X3832500Y4088000D03*
X3897500Y4088000D03*
X3962500Y4088000D03*
X4027500Y4088000D03*
X4092500Y4088000D03*
X4092500Y3512000D03*
X4027500Y3512000D03*
X3962500Y3512000D03*
X3897500Y3512000D03*
X3832500Y3512000D03*
X3767500Y3512000D03*
X3702500Y3512000D03*
X3637500Y3512000D03*
X3572500Y3512000D03*
X3507500Y3512000D03*
%TD*%
D15*
%TO.C,D3*%
X4272000Y2079000D03*
X4272000Y2229000D03*
%TD*%
D17*
%TO.C,C12*%
X7680000Y8490000D03*
X7680000Y8590000D03*
%TD*%
D25*
%TO.C,FB1*%
X5656102Y5277000D03*
X5742502Y5277000D03*
%TD*%
D23*
%TO.C,C9*%
X4420000Y3550000D03*
X4420000Y3450000D03*
%TD*%
D17*
%TO.C,C11*%
X7570000Y6290864D03*
X7570000Y6390864D03*
%TD*%
D23*
%TO.C,C3*%
X8640000Y7490000D03*
X8640000Y7390000D03*
%TD*%
D22*
%TO.C,C13*%
X1080000Y3820000D03*
X980000Y3820000D03*
%TD*%
%TO.C,C7*%
X3708000Y6498000D03*
X3608000Y6498000D03*
%TD*%
D18*
%TO.C,R9*%
X1671000Y1108000D03*
X1565000Y1108000D03*
%TD*%
D23*
%TO.C,C3*%
X8640000Y890000D03*
X8640000Y790000D03*
%TD*%
D17*
%TO.C,C5*%
X6050000Y4270000D03*
X6050000Y4370000D03*
%TD*%
D23*
%TO.C,C4*%
X4125000Y7490000D03*
X4125000Y7390000D03*
%TD*%
M02*
