%TF.GenerationSoftware,KiCad,Pcbnew,10.0.1*%
%TF.CreationDate,2026-05-08T14:51:46+05:30*%
%TF.ProjectId,X-Vision-HW-Panel,582d5669-7369-46f6-9e2d-48572d50616e,rev?*%
%TF.SameCoordinates,PX29f6300PY7de2900*%
%TF.FileFunction,Drillmap*%
%TF.FilePolarity,Positive*%
%FSLAX45Y45*%
G04 Gerber Fmt 4.5, Leading zero omitted, Abs format (unit mm)*
G04 Created by KiCad (PCBNEW 10.0.1) date 2026-05-08 14:51:46*
%MOMM*%
%LPD*%
G01*
G04 APERTURE LIST*
%ADD10C,0.050000*%
%ADD11C,0.200000*%
%ADD12C,0.100000*%
%ADD13C,0.205000*%
G04 APERTURE END LIST*
D10*
X0Y9700000D02*
G75*
G02*
X100000Y9800000I100000J0D01*
G01*
X0Y100000D02*
X0Y9700000D01*
X100000Y9800000D02*
X9700000Y9800000D01*
X100000Y0D02*
G75*
G02*
X0Y100000I0J100000D01*
G01*
X400000Y9300000D02*
X400000Y8350000D01*
X400000Y9300000D02*
G75*
G02*
X500000Y9400000I100000J0D01*
G01*
X400000Y8050000D02*
X400000Y6150000D01*
X400000Y5850000D02*
X400000Y3950000D01*
X400000Y3650000D02*
X400000Y1750000D01*
X400000Y1450000D02*
X400000Y500000D01*
X500000Y400000D02*
G75*
G02*
X400000Y500000I0J100000D01*
G01*
X500000Y400000D02*
X1450000Y400000D01*
X600000Y9100000D02*
G75*
G02*
X700000Y9200000I100000J0D01*
G01*
X600000Y8350000D02*
X400000Y8350000D01*
X600000Y8350000D02*
X600000Y9100000D01*
X600000Y8050000D02*
X400000Y8050000D01*
X600000Y7300000D02*
X600000Y8050000D01*
X600000Y6900000D02*
G75*
G02*
X700000Y7000000I100000J0D01*
G01*
X600000Y6150000D02*
X400000Y6150000D01*
X600000Y6150000D02*
X600000Y6900000D01*
X600000Y5850000D02*
X400000Y5850000D01*
X600000Y5100000D02*
X600000Y5850000D01*
X600000Y4700000D02*
G75*
G02*
X700000Y4800000I100000J0D01*
G01*
X600000Y3950000D02*
X400000Y3950000D01*
X600000Y3950000D02*
X600000Y4700000D01*
X600000Y3650000D02*
X400000Y3650000D01*
X600000Y2900000D02*
X600000Y3650000D01*
X600000Y2500000D02*
G75*
G02*
X700000Y2600000I100000J0D01*
G01*
X600000Y1750000D02*
X400000Y1750000D01*
X600000Y1750000D02*
X600000Y2500000D01*
X600000Y1450000D02*
X400000Y1450000D01*
X600000Y700000D02*
X600000Y1450000D01*
X700000Y9200000D02*
X1450000Y9200000D01*
X700000Y7200000D02*
G75*
G02*
X600000Y7300000I0J100000D01*
G01*
X700000Y7000000D02*
X1450000Y7000000D01*
X700000Y5000000D02*
G75*
G02*
X600000Y5100000I0J100000D01*
G01*
X700000Y4800000D02*
X1450000Y4800000D01*
X700000Y2800000D02*
G75*
G02*
X600000Y2900000I0J100000D01*
G01*
X700000Y2600000D02*
X1450000Y2600000D01*
X700000Y600000D02*
G75*
G02*
X600000Y700000I0J100000D01*
G01*
X1450000Y9400000D02*
X500000Y9400000D01*
X1450000Y9200000D02*
X1450000Y9400000D01*
X1450000Y7200000D02*
X700000Y7200000D01*
X1450000Y7000000D02*
X1450000Y7200000D01*
X1450000Y5000000D02*
X700000Y5000000D01*
X1450000Y4800000D02*
X1450000Y5000000D01*
X1450000Y2800000D02*
X700000Y2800000D01*
X1450000Y2600000D02*
X1450000Y2800000D01*
X1450000Y600000D02*
X700000Y600000D01*
X1450000Y600000D02*
X1450000Y400000D01*
X1750000Y9200000D02*
X1750000Y9400000D01*
X1750000Y9200000D02*
X2500000Y9200000D01*
X1750000Y7000000D02*
X1750000Y7200000D01*
X1750000Y7000000D02*
X2500000Y7000000D01*
X1750000Y4800000D02*
X1750000Y5000000D01*
X1750000Y4800000D02*
X2500000Y4800000D01*
X1750000Y2600000D02*
X1750000Y2800000D01*
X1750000Y2600000D02*
X2500000Y2600000D01*
X1750000Y600000D02*
X1750000Y400000D01*
X1750000Y400000D02*
X3650000Y400000D01*
X2500000Y9200000D02*
G75*
G02*
X2600000Y9100000I0J-100000D01*
G01*
X2500000Y7200000D02*
X1750000Y7200000D01*
X2500000Y7000000D02*
G75*
G02*
X2600000Y6900000I0J-100000D01*
G01*
X2500000Y5000000D02*
X1750000Y5000000D01*
X2500000Y4800000D02*
G75*
G02*
X2600000Y4700000I0J-100000D01*
G01*
X2500000Y2800000D02*
X1750000Y2800000D01*
X2500000Y2600000D02*
G75*
G02*
X2600000Y2500000I0J-100000D01*
G01*
X2500000Y600000D02*
X1750000Y600000D01*
X2600000Y9100000D02*
X2600000Y8350000D01*
X2600000Y8350000D02*
X2800000Y8350000D01*
X2600000Y8050000D02*
X2600000Y7300000D01*
X2600000Y7300000D02*
G75*
G02*
X2500000Y7200000I-100000J0D01*
G01*
X2600000Y6900000D02*
X2600000Y6150000D01*
X2600000Y6150000D02*
X2800000Y6150000D01*
X2600000Y5850000D02*
X2600000Y5100000D01*
X2600000Y5100000D02*
G75*
G02*
X2500000Y5000000I-100000J0D01*
G01*
X2600000Y4700000D02*
X2600000Y3950000D01*
X2600000Y3950000D02*
X2800000Y3950000D01*
X2600000Y3650000D02*
X2600000Y2900000D01*
X2600000Y2900000D02*
G75*
G02*
X2500000Y2800000I-100000J0D01*
G01*
X2600000Y2500000D02*
X2600000Y1750000D01*
X2600000Y1750000D02*
X2800000Y1750000D01*
X2600000Y1450000D02*
X2600000Y700000D01*
X2600000Y700000D02*
G75*
G02*
X2500000Y600000I-100000J0D01*
G01*
X2800000Y9100000D02*
G75*
G02*
X2900000Y9200000I100000J0D01*
G01*
X2800000Y8350000D02*
X2800000Y9100000D01*
X2800000Y8050000D02*
X2600000Y8050000D01*
X2800000Y7300000D02*
X2800000Y8050000D01*
X2800000Y6900000D02*
G75*
G02*
X2900000Y7000000I100000J0D01*
G01*
X2800000Y6150000D02*
X2800000Y6900000D01*
X2800000Y5850000D02*
X2600000Y5850000D01*
X2800000Y5100000D02*
X2800000Y5850000D01*
X2800000Y4700000D02*
G75*
G02*
X2900000Y4800000I100000J0D01*
G01*
X2800000Y3950000D02*
X2800000Y4700000D01*
X2800000Y3650000D02*
X2600000Y3650000D01*
X2800000Y2900000D02*
X2800000Y3650000D01*
X2800000Y2500000D02*
G75*
G02*
X2900000Y2600000I100000J0D01*
G01*
X2800000Y1750000D02*
X2800000Y2500000D01*
X2800000Y1450000D02*
X2600000Y1450000D01*
X2800000Y700000D02*
X2800000Y1450000D01*
X2900000Y9200000D02*
X3650000Y9200000D01*
X2900000Y7200000D02*
G75*
G02*
X2800000Y7300000I0J100000D01*
G01*
X2900000Y7000000D02*
X3650000Y7000000D01*
X2900000Y5000000D02*
G75*
G02*
X2800000Y5100000I0J100000D01*
G01*
X2900000Y4800000D02*
X3650000Y4800000D01*
X2900000Y2800000D02*
G75*
G02*
X2800000Y2900000I0J100000D01*
G01*
X2900000Y2600000D02*
X3650000Y2600000D01*
X2900000Y600000D02*
G75*
G02*
X2800000Y700000I0J100000D01*
G01*
X3650000Y9400000D02*
X1750000Y9400000D01*
X3650000Y9200000D02*
X3650000Y9400000D01*
X3650000Y7200000D02*
X2900000Y7200000D01*
X3650000Y7000000D02*
X3650000Y7200000D01*
X3650000Y5000000D02*
X2900000Y5000000D01*
X3650000Y4800000D02*
X3650000Y5000000D01*
X3650000Y2800000D02*
X2900000Y2800000D01*
X3650000Y2600000D02*
X3650000Y2800000D01*
X3650000Y600000D02*
X2900000Y600000D01*
X3650000Y600000D02*
X3650000Y400000D01*
X3950000Y9200000D02*
X3950000Y9400000D01*
X3950000Y9200000D02*
X4700000Y9200000D01*
X3950000Y7000000D02*
X3950000Y7200000D01*
X3950000Y7000000D02*
X4700000Y7000000D01*
X3950000Y4800000D02*
X3950000Y5000000D01*
X3950000Y4800000D02*
X4700000Y4800000D01*
X3950000Y2600000D02*
X3950000Y2800000D01*
X3950000Y2600000D02*
X4700000Y2600000D01*
X3950000Y600000D02*
X3950000Y400000D01*
X3950000Y400000D02*
X5850000Y400000D01*
X4700000Y9200000D02*
G75*
G02*
X4800000Y9100000I0J-100000D01*
G01*
X4700000Y7200000D02*
X3950000Y7200000D01*
X4700000Y7000000D02*
G75*
G02*
X4800000Y6900000I0J-100000D01*
G01*
X4700000Y5000000D02*
X3950000Y5000000D01*
X4700000Y4800000D02*
G75*
G02*
X4800000Y4700000I0J-100000D01*
G01*
X4700000Y2800000D02*
X3950000Y2800000D01*
X4700000Y2600000D02*
G75*
G02*
X4800000Y2500000I0J-100000D01*
G01*
X4700000Y600000D02*
X3950000Y600000D01*
X4800000Y9100000D02*
X4800000Y8350000D01*
X4800000Y8350000D02*
X5000000Y8350000D01*
X4800000Y8050000D02*
X4800000Y7300000D01*
X4800000Y7300000D02*
G75*
G02*
X4700000Y7200000I-100000J0D01*
G01*
X4800000Y6900000D02*
X4800000Y6150000D01*
X4800000Y6150000D02*
X5000000Y6150000D01*
X4800000Y5850000D02*
X4800000Y5100000D01*
X4800000Y5100000D02*
G75*
G02*
X4700000Y5000000I-100000J0D01*
G01*
X4800000Y4700000D02*
X4800000Y3950000D01*
X4800000Y3950000D02*
X5000000Y3950000D01*
X4800000Y3650000D02*
X4800000Y2900000D01*
X4800000Y2900000D02*
G75*
G02*
X4700000Y2800000I-100000J0D01*
G01*
X4800000Y2500000D02*
X4800000Y1750000D01*
X4800000Y1750000D02*
X5000000Y1750000D01*
X4800000Y1450000D02*
X4800000Y700000D01*
X4800000Y700000D02*
G75*
G02*
X4700000Y600000I-100000J0D01*
G01*
X5000000Y9100000D02*
G75*
G02*
X5100000Y9200000I100000J0D01*
G01*
X5000000Y8350000D02*
X5000000Y9100000D01*
X5000000Y8050000D02*
X4800000Y8050000D01*
X5000000Y7300000D02*
X5000000Y8050000D01*
X5000000Y6900000D02*
G75*
G02*
X5100000Y7000000I100000J0D01*
G01*
X5000000Y6150000D02*
X5000000Y6900000D01*
X5000000Y5850000D02*
X4800000Y5850000D01*
X5000000Y5100000D02*
X5000000Y5850000D01*
X5000000Y4700000D02*
G75*
G02*
X5100000Y4800000I100000J0D01*
G01*
X5000000Y3950000D02*
X5000000Y4700000D01*
X5000000Y3650000D02*
X4800000Y3650000D01*
X5000000Y2900000D02*
X5000000Y3650000D01*
X5000000Y2500000D02*
G75*
G02*
X5100000Y2600000I100000J0D01*
G01*
X5000000Y1750000D02*
X5000000Y2500000D01*
X5000000Y1450000D02*
X4800000Y1450000D01*
X5000000Y700000D02*
X5000000Y1450000D01*
X5100000Y9200000D02*
X5850000Y9200000D01*
X5100000Y7200000D02*
G75*
G02*
X5000000Y7300000I0J100000D01*
G01*
X5100000Y7000000D02*
X5850000Y7000000D01*
X5100000Y5000000D02*
G75*
G02*
X5000000Y5100000I0J100000D01*
G01*
X5100000Y4800000D02*
X5850000Y4800000D01*
X5100000Y2800000D02*
G75*
G02*
X5000000Y2900000I0J100000D01*
G01*
X5100000Y2600000D02*
X5850000Y2600000D01*
X5100000Y600000D02*
G75*
G02*
X5000000Y700000I0J100000D01*
G01*
X5850000Y9400000D02*
X3950000Y9400000D01*
X5850000Y9200000D02*
X5850000Y9400000D01*
X5850000Y7200000D02*
X5100000Y7200000D01*
X5850000Y7000000D02*
X5850000Y7200000D01*
X5850000Y5000000D02*
X5100000Y5000000D01*
X5850000Y4800000D02*
X5850000Y5000000D01*
X5850000Y2800000D02*
X5100000Y2800000D01*
X5850000Y2600000D02*
X5850000Y2800000D01*
X5850000Y600000D02*
X5100000Y600000D01*
X5850000Y600000D02*
X5850000Y400000D01*
X6150000Y9200000D02*
X6150000Y9400000D01*
X6150000Y9200000D02*
X6900000Y9200000D01*
X6150000Y7000000D02*
X6150000Y7200000D01*
X6150000Y7000000D02*
X6900000Y7000000D01*
X6150000Y4800000D02*
X6150000Y5000000D01*
X6150000Y4800000D02*
X6900000Y4800000D01*
X6150000Y2600000D02*
X6150000Y2800000D01*
X6150000Y2600000D02*
X6900000Y2600000D01*
X6150000Y600000D02*
X6150000Y400000D01*
X6150000Y400000D02*
X8050000Y400000D01*
X6900000Y9200000D02*
G75*
G02*
X7000000Y9100000I0J-100000D01*
G01*
X6900000Y7200000D02*
X6150000Y7200000D01*
X6900000Y7000000D02*
G75*
G02*
X7000000Y6900000I0J-100000D01*
G01*
X6900000Y5000000D02*
X6150000Y5000000D01*
X6900000Y4800000D02*
G75*
G02*
X7000000Y4700000I0J-100000D01*
G01*
X6900000Y2800000D02*
X6150000Y2800000D01*
X6900000Y2600000D02*
G75*
G02*
X7000000Y2500000I0J-100000D01*
G01*
X6900000Y600000D02*
X6150000Y600000D01*
X7000000Y9100000D02*
X7000000Y8350000D01*
X7000000Y8350000D02*
X7200000Y8350000D01*
X7000000Y8050000D02*
X7000000Y7300000D01*
X7000000Y7300000D02*
G75*
G02*
X6900000Y7200000I-100000J0D01*
G01*
X7000000Y6900000D02*
X7000000Y6150000D01*
X7000000Y6150000D02*
X7200000Y6150000D01*
X7000000Y5850000D02*
X7000000Y5100000D01*
X7000000Y5100000D02*
G75*
G02*
X6900000Y5000000I-100000J0D01*
G01*
X7000000Y4700000D02*
X7000000Y3950000D01*
X7000000Y3950000D02*
X7200000Y3950000D01*
X7000000Y3650000D02*
X7000000Y2900000D01*
X7000000Y2900000D02*
G75*
G02*
X6900000Y2800000I-100000J0D01*
G01*
X7000000Y2500000D02*
X7000000Y1750000D01*
X7000000Y1750000D02*
X7200000Y1750000D01*
X7000000Y1450000D02*
X7000000Y700000D01*
X7000000Y700000D02*
G75*
G02*
X6900000Y600000I-100000J0D01*
G01*
X7200000Y9100000D02*
G75*
G02*
X7300000Y9200000I100000J0D01*
G01*
X7200000Y8350000D02*
X7200000Y9100000D01*
X7200000Y8050000D02*
X7000000Y8050000D01*
X7200000Y7300000D02*
X7200000Y8050000D01*
X7200000Y6900000D02*
G75*
G02*
X7300000Y7000000I100000J0D01*
G01*
X7200000Y6150000D02*
X7200000Y6900000D01*
X7200000Y5850000D02*
X7000000Y5850000D01*
X7200000Y5100000D02*
X7200000Y5850000D01*
X7200000Y4700000D02*
G75*
G02*
X7300000Y4800000I100000J0D01*
G01*
X7200000Y3950000D02*
X7200000Y4700000D01*
X7200000Y3650000D02*
X7000000Y3650000D01*
X7200000Y2900000D02*
X7200000Y3650000D01*
X7200000Y2500000D02*
G75*
G02*
X7300000Y2600000I100000J0D01*
G01*
X7200000Y1750000D02*
X7200000Y2500000D01*
X7200000Y1450000D02*
X7000000Y1450000D01*
X7200000Y700000D02*
X7200000Y1450000D01*
X7300000Y9200000D02*
X8050000Y9200000D01*
X7300000Y7200000D02*
G75*
G02*
X7200000Y7300000I0J100000D01*
G01*
X7300000Y7000000D02*
X8050000Y7000000D01*
X7300000Y5000000D02*
G75*
G02*
X7200000Y5100000I0J100000D01*
G01*
X7300000Y4800000D02*
X8050000Y4800000D01*
X7300000Y2800000D02*
G75*
G02*
X7200000Y2900000I0J100000D01*
G01*
X7300000Y2600000D02*
X8050000Y2600000D01*
X7300000Y600000D02*
G75*
G02*
X7200000Y700000I0J100000D01*
G01*
X8050000Y9400000D02*
X6150000Y9400000D01*
X8050000Y9200000D02*
X8050000Y9400000D01*
X8050000Y7200000D02*
X7300000Y7200000D01*
X8050000Y7000000D02*
X8050000Y7200000D01*
X8050000Y5000000D02*
X7300000Y5000000D01*
X8050000Y4800000D02*
X8050000Y5000000D01*
X8050000Y2800000D02*
X7300000Y2800000D01*
X8050000Y2600000D02*
X8050000Y2800000D01*
X8050000Y600000D02*
X7300000Y600000D01*
X8050000Y600000D02*
X8050000Y400000D01*
X8350000Y9200000D02*
X8350000Y9400000D01*
X8350000Y9200000D02*
X9100000Y9200000D01*
X8350000Y7000000D02*
X8350000Y7200000D01*
X8350000Y7000000D02*
X9100000Y7000000D01*
X8350000Y4800000D02*
X8350000Y5000000D01*
X8350000Y4800000D02*
X9100000Y4800000D01*
X8350000Y2600000D02*
X8350000Y2800000D01*
X8350000Y2600000D02*
X9100000Y2600000D01*
X8350000Y600000D02*
X8350000Y400000D01*
X8350000Y400000D02*
X9300000Y400000D01*
X9100000Y9200000D02*
G75*
G02*
X9200000Y9100000I0J-100000D01*
G01*
X9100000Y7200000D02*
X8350000Y7200000D01*
X9100000Y7000000D02*
G75*
G02*
X9200000Y6900000I0J-100000D01*
G01*
X9100000Y5000000D02*
X8350000Y5000000D01*
X9100000Y4800000D02*
G75*
G02*
X9200000Y4700000I0J-100000D01*
G01*
X9100000Y2800000D02*
X8350000Y2800000D01*
X9100000Y2600000D02*
G75*
G02*
X9200000Y2500000I0J-100000D01*
G01*
X9100000Y600000D02*
X8350000Y600000D01*
X9200000Y9100000D02*
X9200000Y8350000D01*
X9200000Y8350000D02*
X9400000Y8350000D01*
X9200000Y8050000D02*
X9200000Y7300000D01*
X9200000Y8050000D02*
X9400000Y8050000D01*
X9200000Y7300000D02*
G75*
G02*
X9100000Y7200000I-100000J0D01*
G01*
X9200000Y6900000D02*
X9200000Y6150000D01*
X9200000Y6150000D02*
X9400000Y6150000D01*
X9200000Y5850000D02*
X9200000Y5100000D01*
X9200000Y5850000D02*
X9400000Y5850000D01*
X9200000Y5100000D02*
G75*
G02*
X9100000Y5000000I-100000J0D01*
G01*
X9200000Y4700000D02*
X9200000Y3950000D01*
X9200000Y3950000D02*
X9400000Y3950000D01*
X9200000Y3650000D02*
X9200000Y2900000D01*
X9200000Y3650000D02*
X9400000Y3650000D01*
X9200000Y2900000D02*
G75*
G02*
X9100000Y2800000I-100000J0D01*
G01*
X9200000Y2500000D02*
X9200000Y1750000D01*
X9200000Y1750000D02*
X9400000Y1750000D01*
X9200000Y1450000D02*
X9200000Y700000D01*
X9200000Y1450000D02*
X9400000Y1450000D01*
X9200000Y700000D02*
G75*
G02*
X9100000Y600000I-100000J0D01*
G01*
X9300000Y9400000D02*
X8350000Y9400000D01*
X9300000Y9400000D02*
G75*
G02*
X9400000Y9300000I0J-100000D01*
G01*
X9400000Y8350000D02*
X9400000Y9300000D01*
X9400000Y6150000D02*
X9400000Y8050000D01*
X9400000Y3950000D02*
X9400000Y5850000D01*
X9400000Y1750000D02*
X9400000Y3650000D01*
X9400000Y1450000D02*
X9400000Y500000D01*
X9400000Y500000D02*
G75*
G02*
X9300000Y400000I-100000J0D01*
G01*
X9700000Y9800000D02*
G75*
G02*
X9800000Y9700000I0J-100000D01*
G01*
X9700000Y0D02*
X100000Y0D01*
X9800000Y9700000D02*
X9800000Y100000D01*
X9800000Y100000D02*
G75*
G02*
X9700000Y0I-100000J0D01*
G01*
D11*
D12*
X550000Y8330000D02*
X600000Y8280000D01*
X600000Y8330000D02*
X550000Y8280000D01*
X550000Y8260000D02*
X600000Y8210000D01*
X600000Y8260000D02*
X550000Y8210000D01*
X550000Y8190000D02*
X600000Y8140000D01*
X600000Y8190000D02*
X550000Y8140000D01*
X550000Y8120000D02*
X600000Y8070000D01*
X600000Y8120000D02*
X550000Y8070000D01*
X550000Y6130000D02*
X600000Y6080000D01*
X600000Y6130000D02*
X550000Y6080000D01*
X550000Y6060000D02*
X600000Y6010000D01*
X600000Y6060000D02*
X550000Y6010000D01*
X550000Y5990000D02*
X600000Y5940000D01*
X600000Y5990000D02*
X550000Y5940000D01*
X550000Y5920000D02*
X600000Y5870000D01*
X600000Y5920000D02*
X550000Y5870000D01*
X550000Y3930000D02*
X600000Y3880000D01*
X600000Y3930000D02*
X550000Y3880000D01*
X550000Y3860000D02*
X600000Y3810000D01*
X600000Y3860000D02*
X550000Y3810000D01*
X550000Y3790000D02*
X600000Y3740000D01*
X600000Y3790000D02*
X550000Y3740000D01*
X550000Y3720000D02*
X600000Y3670000D01*
X600000Y3720000D02*
X550000Y3670000D01*
X550000Y1730000D02*
X600000Y1680000D01*
X600000Y1730000D02*
X550000Y1680000D01*
X550000Y1660000D02*
X600000Y1610000D01*
X600000Y1660000D02*
X550000Y1610000D01*
X550000Y1590000D02*
X600000Y1540000D01*
X600000Y1590000D02*
X550000Y1540000D01*
X550000Y1520000D02*
X600000Y1470000D01*
X600000Y1520000D02*
X550000Y1470000D01*
X1470000Y9250000D02*
X1520000Y9200000D01*
X1520000Y9250000D02*
X1470000Y9200000D01*
X1470000Y7200000D02*
X1520000Y7150000D01*
X1520000Y7200000D02*
X1470000Y7150000D01*
X1470000Y7050000D02*
X1520000Y7000000D01*
X1520000Y7050000D02*
X1470000Y7000000D01*
X1470000Y5000000D02*
X1520000Y4950000D01*
X1520000Y5000000D02*
X1470000Y4950000D01*
X1470000Y4850000D02*
X1520000Y4800000D01*
X1520000Y4850000D02*
X1470000Y4800000D01*
X1470000Y2800000D02*
X1520000Y2750000D01*
X1520000Y2800000D02*
X1470000Y2750000D01*
X1470000Y2650000D02*
X1520000Y2600000D01*
X1520000Y2650000D02*
X1470000Y2600000D01*
X1470000Y600000D02*
X1520000Y550000D01*
X1520000Y600000D02*
X1470000Y550000D01*
X1540000Y9250000D02*
X1590000Y9200000D01*
X1590000Y9250000D02*
X1540000Y9200000D01*
X1540000Y7200000D02*
X1590000Y7150000D01*
X1590000Y7200000D02*
X1540000Y7150000D01*
X1540000Y7050000D02*
X1590000Y7000000D01*
X1590000Y7050000D02*
X1540000Y7000000D01*
X1540000Y5000000D02*
X1590000Y4950000D01*
X1590000Y5000000D02*
X1540000Y4950000D01*
X1540000Y4850000D02*
X1590000Y4800000D01*
X1590000Y4850000D02*
X1540000Y4800000D01*
X1540000Y2800000D02*
X1590000Y2750000D01*
X1590000Y2800000D02*
X1540000Y2750000D01*
X1540000Y2650000D02*
X1590000Y2600000D01*
X1590000Y2650000D02*
X1540000Y2600000D01*
X1540000Y600000D02*
X1590000Y550000D01*
X1590000Y600000D02*
X1540000Y550000D01*
X1610000Y9250000D02*
X1660000Y9200000D01*
X1660000Y9250000D02*
X1610000Y9200000D01*
X1610000Y7200000D02*
X1660000Y7150000D01*
X1660000Y7200000D02*
X1610000Y7150000D01*
X1610000Y7050000D02*
X1660000Y7000000D01*
X1660000Y7050000D02*
X1610000Y7000000D01*
X1610000Y5000000D02*
X1660000Y4950000D01*
X1660000Y5000000D02*
X1610000Y4950000D01*
X1610000Y4850000D02*
X1660000Y4800000D01*
X1660000Y4850000D02*
X1610000Y4800000D01*
X1610000Y2800000D02*
X1660000Y2750000D01*
X1660000Y2800000D02*
X1610000Y2750000D01*
X1610000Y2650000D02*
X1660000Y2600000D01*
X1660000Y2650000D02*
X1610000Y2600000D01*
X1610000Y600000D02*
X1660000Y550000D01*
X1660000Y600000D02*
X1610000Y550000D01*
X1680000Y9250000D02*
X1730000Y9200000D01*
X1730000Y9250000D02*
X1680000Y9200000D01*
X1680000Y7200000D02*
X1730000Y7150000D01*
X1730000Y7200000D02*
X1680000Y7150000D01*
X1680000Y7050000D02*
X1730000Y7000000D01*
X1730000Y7050000D02*
X1680000Y7000000D01*
X1680000Y5000000D02*
X1730000Y4950000D01*
X1730000Y5000000D02*
X1680000Y4950000D01*
X1680000Y4850000D02*
X1730000Y4800000D01*
X1730000Y4850000D02*
X1680000Y4800000D01*
X1680000Y2800000D02*
X1730000Y2750000D01*
X1730000Y2800000D02*
X1680000Y2750000D01*
X1680000Y2650000D02*
X1730000Y2600000D01*
X1730000Y2650000D02*
X1680000Y2600000D01*
X1680000Y600000D02*
X1730000Y550000D01*
X1730000Y600000D02*
X1680000Y550000D01*
X2600000Y8330000D02*
X2650000Y8280000D01*
X2650000Y8330000D02*
X2600000Y8280000D01*
X2600000Y8260000D02*
X2650000Y8210000D01*
X2650000Y8260000D02*
X2600000Y8210000D01*
X2600000Y8190000D02*
X2650000Y8140000D01*
X2650000Y8190000D02*
X2600000Y8140000D01*
X2600000Y8120000D02*
X2650000Y8070000D01*
X2650000Y8120000D02*
X2600000Y8070000D01*
X2600000Y6130000D02*
X2650000Y6080000D01*
X2650000Y6130000D02*
X2600000Y6080000D01*
X2600000Y6060000D02*
X2650000Y6010000D01*
X2650000Y6060000D02*
X2600000Y6010000D01*
X2600000Y5990000D02*
X2650000Y5940000D01*
X2650000Y5990000D02*
X2600000Y5940000D01*
X2600000Y5920000D02*
X2650000Y5870000D01*
X2650000Y5920000D02*
X2600000Y5870000D01*
X2600000Y3930000D02*
X2650000Y3880000D01*
X2650000Y3930000D02*
X2600000Y3880000D01*
X2600000Y3860000D02*
X2650000Y3810000D01*
X2650000Y3860000D02*
X2600000Y3810000D01*
X2600000Y3790000D02*
X2650000Y3740000D01*
X2650000Y3790000D02*
X2600000Y3740000D01*
X2600000Y3720000D02*
X2650000Y3670000D01*
X2650000Y3720000D02*
X2600000Y3670000D01*
X2600000Y1730000D02*
X2650000Y1680000D01*
X2650000Y1730000D02*
X2600000Y1680000D01*
X2600000Y1660000D02*
X2650000Y1610000D01*
X2650000Y1660000D02*
X2600000Y1610000D01*
X2600000Y1590000D02*
X2650000Y1540000D01*
X2650000Y1590000D02*
X2600000Y1540000D01*
X2600000Y1520000D02*
X2650000Y1470000D01*
X2650000Y1520000D02*
X2600000Y1470000D01*
X2750000Y8330000D02*
X2800000Y8280000D01*
X2800000Y8330000D02*
X2750000Y8280000D01*
X2750000Y8260000D02*
X2800000Y8210000D01*
X2800000Y8260000D02*
X2750000Y8210000D01*
X2750000Y8190000D02*
X2800000Y8140000D01*
X2800000Y8190000D02*
X2750000Y8140000D01*
X2750000Y8120000D02*
X2800000Y8070000D01*
X2800000Y8120000D02*
X2750000Y8070000D01*
X2750000Y6130000D02*
X2800000Y6080000D01*
X2800000Y6130000D02*
X2750000Y6080000D01*
X2750000Y6060000D02*
X2800000Y6010000D01*
X2800000Y6060000D02*
X2750000Y6010000D01*
X2750000Y5990000D02*
X2800000Y5940000D01*
X2800000Y5990000D02*
X2750000Y5940000D01*
X2750000Y5920000D02*
X2800000Y5870000D01*
X2800000Y5920000D02*
X2750000Y5870000D01*
X2750000Y3930000D02*
X2800000Y3880000D01*
X2800000Y3930000D02*
X2750000Y3880000D01*
X2750000Y3860000D02*
X2800000Y3810000D01*
X2800000Y3860000D02*
X2750000Y3810000D01*
X2750000Y3790000D02*
X2800000Y3740000D01*
X2800000Y3790000D02*
X2750000Y3740000D01*
X2750000Y3720000D02*
X2800000Y3670000D01*
X2800000Y3720000D02*
X2750000Y3670000D01*
X2750000Y1730000D02*
X2800000Y1680000D01*
X2800000Y1730000D02*
X2750000Y1680000D01*
X2750000Y1660000D02*
X2800000Y1610000D01*
X2800000Y1660000D02*
X2750000Y1610000D01*
X2750000Y1590000D02*
X2800000Y1540000D01*
X2800000Y1590000D02*
X2750000Y1540000D01*
X2750000Y1520000D02*
X2800000Y1470000D01*
X2800000Y1520000D02*
X2750000Y1470000D01*
X3670000Y9250000D02*
X3720000Y9200000D01*
X3720000Y9250000D02*
X3670000Y9200000D01*
X3670000Y7200000D02*
X3720000Y7150000D01*
X3720000Y7200000D02*
X3670000Y7150000D01*
X3670000Y7050000D02*
X3720000Y7000000D01*
X3720000Y7050000D02*
X3670000Y7000000D01*
X3670000Y5000000D02*
X3720000Y4950000D01*
X3720000Y5000000D02*
X3670000Y4950000D01*
X3670000Y4850000D02*
X3720000Y4800000D01*
X3720000Y4850000D02*
X3670000Y4800000D01*
X3670000Y2800000D02*
X3720000Y2750000D01*
X3720000Y2800000D02*
X3670000Y2750000D01*
X3670000Y2650000D02*
X3720000Y2600000D01*
X3720000Y2650000D02*
X3670000Y2600000D01*
X3670000Y600000D02*
X3720000Y550000D01*
X3720000Y600000D02*
X3670000Y550000D01*
X3740000Y9250000D02*
X3790000Y9200000D01*
X3790000Y9250000D02*
X3740000Y9200000D01*
X3740000Y7200000D02*
X3790000Y7150000D01*
X3790000Y7200000D02*
X3740000Y7150000D01*
X3740000Y7050000D02*
X3790000Y7000000D01*
X3790000Y7050000D02*
X3740000Y7000000D01*
X3740000Y5000000D02*
X3790000Y4950000D01*
X3790000Y5000000D02*
X3740000Y4950000D01*
X3740000Y4850000D02*
X3790000Y4800000D01*
X3790000Y4850000D02*
X3740000Y4800000D01*
X3740000Y2800000D02*
X3790000Y2750000D01*
X3790000Y2800000D02*
X3740000Y2750000D01*
X3740000Y2650000D02*
X3790000Y2600000D01*
X3790000Y2650000D02*
X3740000Y2600000D01*
X3740000Y600000D02*
X3790000Y550000D01*
X3790000Y600000D02*
X3740000Y550000D01*
X3810000Y9250000D02*
X3860000Y9200000D01*
X3860000Y9250000D02*
X3810000Y9200000D01*
X3810000Y7200000D02*
X3860000Y7150000D01*
X3860000Y7200000D02*
X3810000Y7150000D01*
X3810000Y7050000D02*
X3860000Y7000000D01*
X3860000Y7050000D02*
X3810000Y7000000D01*
X3810000Y5000000D02*
X3860000Y4950000D01*
X3860000Y5000000D02*
X3810000Y4950000D01*
X3810000Y4850000D02*
X3860000Y4800000D01*
X3860000Y4850000D02*
X3810000Y4800000D01*
X3810000Y2800000D02*
X3860000Y2750000D01*
X3860000Y2800000D02*
X3810000Y2750000D01*
X3810000Y2650000D02*
X3860000Y2600000D01*
X3860000Y2650000D02*
X3810000Y2600000D01*
X3810000Y600000D02*
X3860000Y550000D01*
X3860000Y600000D02*
X3810000Y550000D01*
X3880000Y9250000D02*
X3930000Y9200000D01*
X3930000Y9250000D02*
X3880000Y9200000D01*
X3880000Y7200000D02*
X3930000Y7150000D01*
X3930000Y7200000D02*
X3880000Y7150000D01*
X3880000Y7050000D02*
X3930000Y7000000D01*
X3930000Y7050000D02*
X3880000Y7000000D01*
X3880000Y5000000D02*
X3930000Y4950000D01*
X3930000Y5000000D02*
X3880000Y4950000D01*
X3880000Y4850000D02*
X3930000Y4800000D01*
X3930000Y4850000D02*
X3880000Y4800000D01*
X3880000Y2800000D02*
X3930000Y2750000D01*
X3930000Y2800000D02*
X3880000Y2750000D01*
X3880000Y2650000D02*
X3930000Y2600000D01*
X3930000Y2650000D02*
X3880000Y2600000D01*
X3880000Y600000D02*
X3930000Y550000D01*
X3930000Y600000D02*
X3880000Y550000D01*
X4800000Y8330000D02*
X4850000Y8280000D01*
X4850000Y8330000D02*
X4800000Y8280000D01*
X4800000Y8260000D02*
X4850000Y8210000D01*
X4850000Y8260000D02*
X4800000Y8210000D01*
X4800000Y8190000D02*
X4850000Y8140000D01*
X4850000Y8190000D02*
X4800000Y8140000D01*
X4800000Y8120000D02*
X4850000Y8070000D01*
X4850000Y8120000D02*
X4800000Y8070000D01*
X4800000Y6130000D02*
X4850000Y6080000D01*
X4850000Y6130000D02*
X4800000Y6080000D01*
X4800000Y6060000D02*
X4850000Y6010000D01*
X4850000Y6060000D02*
X4800000Y6010000D01*
X4800000Y5990000D02*
X4850000Y5940000D01*
X4850000Y5990000D02*
X4800000Y5940000D01*
X4800000Y5920000D02*
X4850000Y5870000D01*
X4850000Y5920000D02*
X4800000Y5870000D01*
X4800000Y3930000D02*
X4850000Y3880000D01*
X4850000Y3930000D02*
X4800000Y3880000D01*
X4800000Y3860000D02*
X4850000Y3810000D01*
X4850000Y3860000D02*
X4800000Y3810000D01*
X4800000Y3790000D02*
X4850000Y3740000D01*
X4850000Y3790000D02*
X4800000Y3740000D01*
X4800000Y3720000D02*
X4850000Y3670000D01*
X4850000Y3720000D02*
X4800000Y3670000D01*
X4800000Y1730000D02*
X4850000Y1680000D01*
X4850000Y1730000D02*
X4800000Y1680000D01*
X4800000Y1660000D02*
X4850000Y1610000D01*
X4850000Y1660000D02*
X4800000Y1610000D01*
X4800000Y1590000D02*
X4850000Y1540000D01*
X4850000Y1590000D02*
X4800000Y1540000D01*
X4800000Y1520000D02*
X4850000Y1470000D01*
X4850000Y1520000D02*
X4800000Y1470000D01*
X4950000Y8330000D02*
X5000000Y8280000D01*
X5000000Y8330000D02*
X4950000Y8280000D01*
X4950000Y8260000D02*
X5000000Y8210000D01*
X5000000Y8260000D02*
X4950000Y8210000D01*
X4950000Y8190000D02*
X5000000Y8140000D01*
X5000000Y8190000D02*
X4950000Y8140000D01*
X4950000Y8120000D02*
X5000000Y8070000D01*
X5000000Y8120000D02*
X4950000Y8070000D01*
X4950000Y6130000D02*
X5000000Y6080000D01*
X5000000Y6130000D02*
X4950000Y6080000D01*
X4950000Y6060000D02*
X5000000Y6010000D01*
X5000000Y6060000D02*
X4950000Y6010000D01*
X4950000Y5990000D02*
X5000000Y5940000D01*
X5000000Y5990000D02*
X4950000Y5940000D01*
X4950000Y5920000D02*
X5000000Y5870000D01*
X5000000Y5920000D02*
X4950000Y5870000D01*
X4950000Y3930000D02*
X5000000Y3880000D01*
X5000000Y3930000D02*
X4950000Y3880000D01*
X4950000Y3860000D02*
X5000000Y3810000D01*
X5000000Y3860000D02*
X4950000Y3810000D01*
X4950000Y3790000D02*
X5000000Y3740000D01*
X5000000Y3790000D02*
X4950000Y3740000D01*
X4950000Y3720000D02*
X5000000Y3670000D01*
X5000000Y3720000D02*
X4950000Y3670000D01*
X4950000Y1730000D02*
X5000000Y1680000D01*
X5000000Y1730000D02*
X4950000Y1680000D01*
X4950000Y1660000D02*
X5000000Y1610000D01*
X5000000Y1660000D02*
X4950000Y1610000D01*
X4950000Y1590000D02*
X5000000Y1540000D01*
X5000000Y1590000D02*
X4950000Y1540000D01*
X4950000Y1520000D02*
X5000000Y1470000D01*
X5000000Y1520000D02*
X4950000Y1470000D01*
X5870000Y9250000D02*
X5920000Y9200000D01*
X5920000Y9250000D02*
X5870000Y9200000D01*
X5870000Y7200000D02*
X5920000Y7150000D01*
X5920000Y7200000D02*
X5870000Y7150000D01*
X5870000Y7050000D02*
X5920000Y7000000D01*
X5920000Y7050000D02*
X5870000Y7000000D01*
X5870000Y5000000D02*
X5920000Y4950000D01*
X5920000Y5000000D02*
X5870000Y4950000D01*
X5870000Y4850000D02*
X5920000Y4800000D01*
X5920000Y4850000D02*
X5870000Y4800000D01*
X5870000Y2800000D02*
X5920000Y2750000D01*
X5920000Y2800000D02*
X5870000Y2750000D01*
X5870000Y2650000D02*
X5920000Y2600000D01*
X5920000Y2650000D02*
X5870000Y2600000D01*
X5870000Y600000D02*
X5920000Y550000D01*
X5920000Y600000D02*
X5870000Y550000D01*
X5940000Y9250000D02*
X5990000Y9200000D01*
X5990000Y9250000D02*
X5940000Y9200000D01*
X5940000Y7200000D02*
X5990000Y7150000D01*
X5990000Y7200000D02*
X5940000Y7150000D01*
X5940000Y7050000D02*
X5990000Y7000000D01*
X5990000Y7050000D02*
X5940000Y7000000D01*
X5940000Y5000000D02*
X5990000Y4950000D01*
X5990000Y5000000D02*
X5940000Y4950000D01*
X5940000Y4850000D02*
X5990000Y4800000D01*
X5990000Y4850000D02*
X5940000Y4800000D01*
X5940000Y2800000D02*
X5990000Y2750000D01*
X5990000Y2800000D02*
X5940000Y2750000D01*
X5940000Y2650000D02*
X5990000Y2600000D01*
X5990000Y2650000D02*
X5940000Y2600000D01*
X5940000Y600000D02*
X5990000Y550000D01*
X5990000Y600000D02*
X5940000Y550000D01*
X6010000Y9250000D02*
X6060000Y9200000D01*
X6060000Y9250000D02*
X6010000Y9200000D01*
X6010000Y7200000D02*
X6060000Y7150000D01*
X6060000Y7200000D02*
X6010000Y7150000D01*
X6010000Y7050000D02*
X6060000Y7000000D01*
X6060000Y7050000D02*
X6010000Y7000000D01*
X6010000Y5000000D02*
X6060000Y4950000D01*
X6060000Y5000000D02*
X6010000Y4950000D01*
X6010000Y4850000D02*
X6060000Y4800000D01*
X6060000Y4850000D02*
X6010000Y4800000D01*
X6010000Y2800000D02*
X6060000Y2750000D01*
X6060000Y2800000D02*
X6010000Y2750000D01*
X6010000Y2650000D02*
X6060000Y2600000D01*
X6060000Y2650000D02*
X6010000Y2600000D01*
X6010000Y600000D02*
X6060000Y550000D01*
X6060000Y600000D02*
X6010000Y550000D01*
X6080000Y9250000D02*
X6130000Y9200000D01*
X6130000Y9250000D02*
X6080000Y9200000D01*
X6080000Y7200000D02*
X6130000Y7150000D01*
X6130000Y7200000D02*
X6080000Y7150000D01*
X6080000Y7050000D02*
X6130000Y7000000D01*
X6130000Y7050000D02*
X6080000Y7000000D01*
X6080000Y5000000D02*
X6130000Y4950000D01*
X6130000Y5000000D02*
X6080000Y4950000D01*
X6080000Y4850000D02*
X6130000Y4800000D01*
X6130000Y4850000D02*
X6080000Y4800000D01*
X6080000Y2800000D02*
X6130000Y2750000D01*
X6130000Y2800000D02*
X6080000Y2750000D01*
X6080000Y2650000D02*
X6130000Y2600000D01*
X6130000Y2650000D02*
X6080000Y2600000D01*
X6080000Y600000D02*
X6130000Y550000D01*
X6130000Y600000D02*
X6080000Y550000D01*
X7000000Y8330000D02*
X7050000Y8280000D01*
X7050000Y8330000D02*
X7000000Y8280000D01*
X7000000Y8260000D02*
X7050000Y8210000D01*
X7050000Y8260000D02*
X7000000Y8210000D01*
X7000000Y8190000D02*
X7050000Y8140000D01*
X7050000Y8190000D02*
X7000000Y8140000D01*
X7000000Y8120000D02*
X7050000Y8070000D01*
X7050000Y8120000D02*
X7000000Y8070000D01*
X7000000Y6130000D02*
X7050000Y6080000D01*
X7050000Y6130000D02*
X7000000Y6080000D01*
X7000000Y6060000D02*
X7050000Y6010000D01*
X7050000Y6060000D02*
X7000000Y6010000D01*
X7000000Y5990000D02*
X7050000Y5940000D01*
X7050000Y5990000D02*
X7000000Y5940000D01*
X7000000Y5920000D02*
X7050000Y5870000D01*
X7050000Y5920000D02*
X7000000Y5870000D01*
X7000000Y3930000D02*
X7050000Y3880000D01*
X7050000Y3930000D02*
X7000000Y3880000D01*
X7000000Y3860000D02*
X7050000Y3810000D01*
X7050000Y3860000D02*
X7000000Y3810000D01*
X7000000Y3790000D02*
X7050000Y3740000D01*
X7050000Y3790000D02*
X7000000Y3740000D01*
X7000000Y3720000D02*
X7050000Y3670000D01*
X7050000Y3720000D02*
X7000000Y3670000D01*
X7000000Y1730000D02*
X7050000Y1680000D01*
X7050000Y1730000D02*
X7000000Y1680000D01*
X7000000Y1660000D02*
X7050000Y1610000D01*
X7050000Y1660000D02*
X7000000Y1610000D01*
X7000000Y1590000D02*
X7050000Y1540000D01*
X7050000Y1590000D02*
X7000000Y1540000D01*
X7000000Y1520000D02*
X7050000Y1470000D01*
X7050000Y1520000D02*
X7000000Y1470000D01*
X7150000Y8330000D02*
X7200000Y8280000D01*
X7200000Y8330000D02*
X7150000Y8280000D01*
X7150000Y8260000D02*
X7200000Y8210000D01*
X7200000Y8260000D02*
X7150000Y8210000D01*
X7150000Y8190000D02*
X7200000Y8140000D01*
X7200000Y8190000D02*
X7150000Y8140000D01*
X7150000Y8120000D02*
X7200000Y8070000D01*
X7200000Y8120000D02*
X7150000Y8070000D01*
X7150000Y6130000D02*
X7200000Y6080000D01*
X7200000Y6130000D02*
X7150000Y6080000D01*
X7150000Y6060000D02*
X7200000Y6010000D01*
X7200000Y6060000D02*
X7150000Y6010000D01*
X7150000Y5990000D02*
X7200000Y5940000D01*
X7200000Y5990000D02*
X7150000Y5940000D01*
X7150000Y5920000D02*
X7200000Y5870000D01*
X7200000Y5920000D02*
X7150000Y5870000D01*
X7150000Y3930000D02*
X7200000Y3880000D01*
X7200000Y3930000D02*
X7150000Y3880000D01*
X7150000Y3860000D02*
X7200000Y3810000D01*
X7200000Y3860000D02*
X7150000Y3810000D01*
X7150000Y3790000D02*
X7200000Y3740000D01*
X7200000Y3790000D02*
X7150000Y3740000D01*
X7150000Y3720000D02*
X7200000Y3670000D01*
X7200000Y3720000D02*
X7150000Y3670000D01*
X7150000Y1730000D02*
X7200000Y1680000D01*
X7200000Y1730000D02*
X7150000Y1680000D01*
X7150000Y1660000D02*
X7200000Y1610000D01*
X7200000Y1660000D02*
X7150000Y1610000D01*
X7150000Y1590000D02*
X7200000Y1540000D01*
X7200000Y1590000D02*
X7150000Y1540000D01*
X7150000Y1520000D02*
X7200000Y1470000D01*
X7200000Y1520000D02*
X7150000Y1470000D01*
X8070000Y9250000D02*
X8120000Y9200000D01*
X8120000Y9250000D02*
X8070000Y9200000D01*
X8070000Y7200000D02*
X8120000Y7150000D01*
X8120000Y7200000D02*
X8070000Y7150000D01*
X8070000Y7050000D02*
X8120000Y7000000D01*
X8120000Y7050000D02*
X8070000Y7000000D01*
X8070000Y5000000D02*
X8120000Y4950000D01*
X8120000Y5000000D02*
X8070000Y4950000D01*
X8070000Y4850000D02*
X8120000Y4800000D01*
X8120000Y4850000D02*
X8070000Y4800000D01*
X8070000Y2800000D02*
X8120000Y2750000D01*
X8120000Y2800000D02*
X8070000Y2750000D01*
X8070000Y2650000D02*
X8120000Y2600000D01*
X8120000Y2650000D02*
X8070000Y2600000D01*
X8070000Y600000D02*
X8120000Y550000D01*
X8120000Y600000D02*
X8070000Y550000D01*
X8140000Y9250000D02*
X8190000Y9200000D01*
X8190000Y9250000D02*
X8140000Y9200000D01*
X8140000Y7200000D02*
X8190000Y7150000D01*
X8190000Y7200000D02*
X8140000Y7150000D01*
X8140000Y7050000D02*
X8190000Y7000000D01*
X8190000Y7050000D02*
X8140000Y7000000D01*
X8140000Y5000000D02*
X8190000Y4950000D01*
X8190000Y5000000D02*
X8140000Y4950000D01*
X8140000Y4850000D02*
X8190000Y4800000D01*
X8190000Y4850000D02*
X8140000Y4800000D01*
X8140000Y2800000D02*
X8190000Y2750000D01*
X8190000Y2800000D02*
X8140000Y2750000D01*
X8140000Y2650000D02*
X8190000Y2600000D01*
X8190000Y2650000D02*
X8140000Y2600000D01*
X8140000Y600000D02*
X8190000Y550000D01*
X8190000Y600000D02*
X8140000Y550000D01*
X8210000Y9250000D02*
X8260000Y9200000D01*
X8260000Y9250000D02*
X8210000Y9200000D01*
X8210000Y7200000D02*
X8260000Y7150000D01*
X8260000Y7200000D02*
X8210000Y7150000D01*
X8210000Y7050000D02*
X8260000Y7000000D01*
X8260000Y7050000D02*
X8210000Y7000000D01*
X8210000Y5000000D02*
X8260000Y4950000D01*
X8260000Y5000000D02*
X8210000Y4950000D01*
X8210000Y4850000D02*
X8260000Y4800000D01*
X8260000Y4850000D02*
X8210000Y4800000D01*
X8210000Y2800000D02*
X8260000Y2750000D01*
X8260000Y2800000D02*
X8210000Y2750000D01*
X8210000Y2650000D02*
X8260000Y2600000D01*
X8260000Y2650000D02*
X8210000Y2600000D01*
X8210000Y600000D02*
X8260000Y550000D01*
X8260000Y600000D02*
X8210000Y550000D01*
X8280000Y9250000D02*
X8330000Y9200000D01*
X8330000Y9250000D02*
X8280000Y9200000D01*
X8280000Y7200000D02*
X8330000Y7150000D01*
X8330000Y7200000D02*
X8280000Y7150000D01*
X8280000Y7050000D02*
X8330000Y7000000D01*
X8330000Y7050000D02*
X8280000Y7000000D01*
X8280000Y5000000D02*
X8330000Y4950000D01*
X8330000Y5000000D02*
X8280000Y4950000D01*
X8280000Y4850000D02*
X8330000Y4800000D01*
X8330000Y4850000D02*
X8280000Y4800000D01*
X8280000Y2800000D02*
X8330000Y2750000D01*
X8330000Y2800000D02*
X8280000Y2750000D01*
X8280000Y2650000D02*
X8330000Y2600000D01*
X8330000Y2650000D02*
X8280000Y2600000D01*
X8280000Y600000D02*
X8330000Y550000D01*
X8330000Y600000D02*
X8280000Y550000D01*
X9200000Y8330000D02*
X9250000Y8280000D01*
X9250000Y8330000D02*
X9200000Y8280000D01*
X9200000Y8260000D02*
X9250000Y8210000D01*
X9250000Y8260000D02*
X9200000Y8210000D01*
X9200000Y8190000D02*
X9250000Y8140000D01*
X9250000Y8190000D02*
X9200000Y8140000D01*
X9200000Y8120000D02*
X9250000Y8070000D01*
X9250000Y8120000D02*
X9200000Y8070000D01*
X9200000Y6130000D02*
X9250000Y6080000D01*
X9250000Y6130000D02*
X9200000Y6080000D01*
X9200000Y6060000D02*
X9250000Y6010000D01*
X9250000Y6060000D02*
X9200000Y6010000D01*
X9200000Y5990000D02*
X9250000Y5940000D01*
X9250000Y5990000D02*
X9200000Y5940000D01*
X9200000Y5920000D02*
X9250000Y5870000D01*
X9250000Y5920000D02*
X9200000Y5870000D01*
X9200000Y3930000D02*
X9250000Y3880000D01*
X9250000Y3930000D02*
X9200000Y3880000D01*
X9200000Y3860000D02*
X9250000Y3810000D01*
X9250000Y3860000D02*
X9200000Y3810000D01*
X9200000Y3790000D02*
X9250000Y3740000D01*
X9250000Y3790000D02*
X9200000Y3740000D01*
X9200000Y3720000D02*
X9250000Y3670000D01*
X9250000Y3720000D02*
X9200000Y3670000D01*
X9200000Y1730000D02*
X9250000Y1680000D01*
X9250000Y1730000D02*
X9200000Y1680000D01*
X9200000Y1660000D02*
X9250000Y1610000D01*
X9250000Y1660000D02*
X9200000Y1610000D01*
X9200000Y1590000D02*
X9250000Y1540000D01*
X9250000Y1590000D02*
X9200000Y1540000D01*
X9200000Y1520000D02*
X9250000Y1470000D01*
X9250000Y1520000D02*
X9200000Y1470000D01*
X1696289Y6717500D02*
G75*
G02*
X1597189Y6717500I-49550J0D01*
G01*
X1597189Y6717500D02*
G75*
G02*
X1696289Y6717500I49550J0D01*
G01*
X1701550Y2317500D02*
G75*
G02*
X1602450Y2317500I-49550J0D01*
G01*
X1602450Y2317500D02*
G75*
G02*
X1701550Y2317500I49550J0D01*
G01*
X1703550Y4519500D02*
G75*
G02*
X1604450Y4519500I-49550J0D01*
G01*
X1604450Y4519500D02*
G75*
G02*
X1703550Y4519500I49550J0D01*
G01*
X1709425Y8921500D02*
G75*
G02*
X1610325Y8921500I-49550J0D01*
G01*
X1610325Y8921500D02*
G75*
G02*
X1709425Y8921500I49550J0D01*
G01*
X2458289Y6819000D02*
G75*
G02*
X2359189Y6819000I-49550J0D01*
G01*
X2359189Y6819000D02*
G75*
G02*
X2458289Y6819000I49550J0D01*
G01*
X2458289Y6616000D02*
G75*
G02*
X2359189Y6616000I-49550J0D01*
G01*
X2359189Y6616000D02*
G75*
G02*
X2458289Y6616000I49550J0D01*
G01*
X2463550Y2419000D02*
G75*
G02*
X2364450Y2419000I-49550J0D01*
G01*
X2364450Y2419000D02*
G75*
G02*
X2463550Y2419000I49550J0D01*
G01*
X2463550Y2216000D02*
G75*
G02*
X2364450Y2216000I-49550J0D01*
G01*
X2364450Y2216000D02*
G75*
G02*
X2463550Y2216000I49550J0D01*
G01*
X2465550Y4621000D02*
G75*
G02*
X2366450Y4621000I-49550J0D01*
G01*
X2366450Y4621000D02*
G75*
G02*
X2465550Y4621000I49550J0D01*
G01*
X2465550Y4418000D02*
G75*
G02*
X2366450Y4418000I-49550J0D01*
G01*
X2366450Y4418000D02*
G75*
G02*
X2465550Y4418000I49550J0D01*
G01*
X2471425Y9023000D02*
G75*
G02*
X2372325Y9023000I-49550J0D01*
G01*
X2372325Y9023000D02*
G75*
G02*
X2471425Y9023000I49550J0D01*
G01*
X2471425Y8820000D02*
G75*
G02*
X2372325Y8820000I-49550J0D01*
G01*
X2372325Y8820000D02*
G75*
G02*
X2471425Y8820000I49550J0D01*
G01*
X3901550Y6717500D02*
G75*
G02*
X3802450Y6717500I-49550J0D01*
G01*
X3802450Y6717500D02*
G75*
G02*
X3901550Y6717500I49550J0D01*
G01*
X3903550Y8919500D02*
G75*
G02*
X3804450Y8919500I-49550J0D01*
G01*
X3804450Y8919500D02*
G75*
G02*
X3903550Y8919500I49550J0D01*
G01*
X3903550Y4519500D02*
G75*
G02*
X3804450Y4519500I-49550J0D01*
G01*
X3804450Y4519500D02*
G75*
G02*
X3903550Y4519500I49550J0D01*
G01*
X3903550Y2319500D02*
G75*
G02*
X3804450Y2319500I-49550J0D01*
G01*
X3804450Y2319500D02*
G75*
G02*
X3903550Y2319500I49550J0D01*
G01*
X4663550Y6819000D02*
G75*
G02*
X4564450Y6819000I-49550J0D01*
G01*
X4564450Y6819000D02*
G75*
G02*
X4663550Y6819000I49550J0D01*
G01*
X4663550Y6616000D02*
G75*
G02*
X4564450Y6616000I-49550J0D01*
G01*
X4564450Y6616000D02*
G75*
G02*
X4663550Y6616000I49550J0D01*
G01*
X4665550Y9021000D02*
G75*
G02*
X4566450Y9021000I-49550J0D01*
G01*
X4566450Y9021000D02*
G75*
G02*
X4665550Y9021000I49550J0D01*
G01*
X4665550Y8818000D02*
G75*
G02*
X4566450Y8818000I-49550J0D01*
G01*
X4566450Y8818000D02*
G75*
G02*
X4665550Y8818000I49550J0D01*
G01*
X4665550Y4621000D02*
G75*
G02*
X4566450Y4621000I-49550J0D01*
G01*
X4566450Y4621000D02*
G75*
G02*
X4665550Y4621000I49550J0D01*
G01*
X4665550Y4418000D02*
G75*
G02*
X4566450Y4418000I-49550J0D01*
G01*
X4566450Y4418000D02*
G75*
G02*
X4665550Y4418000I49550J0D01*
G01*
X4665550Y2421000D02*
G75*
G02*
X4566450Y2421000I-49550J0D01*
G01*
X4566450Y2421000D02*
G75*
G02*
X4665550Y2421000I49550J0D01*
G01*
X4665550Y2218000D02*
G75*
G02*
X4566450Y2218000I-49550J0D01*
G01*
X4566450Y2218000D02*
G75*
G02*
X4665550Y2218000I49550J0D01*
G01*
X6102852Y6719500D02*
G75*
G02*
X6003752Y6719500I-49550J0D01*
G01*
X6003752Y6719500D02*
G75*
G02*
X6102852Y6719500I49550J0D01*
G01*
X6103504Y2317500D02*
G75*
G02*
X6004404Y2317500I-49550J0D01*
G01*
X6004404Y2317500D02*
G75*
G02*
X6103504Y2317500I49550J0D01*
G01*
X6103550Y8922500D02*
G75*
G02*
X6004450Y8922500I-49550J0D01*
G01*
X6004450Y8922500D02*
G75*
G02*
X6103550Y8922500I49550J0D01*
G01*
X6103550Y4519500D02*
G75*
G02*
X6004450Y4519500I-49550J0D01*
G01*
X6004450Y4519500D02*
G75*
G02*
X6103550Y4519500I49550J0D01*
G01*
X6864852Y6821000D02*
G75*
G02*
X6765752Y6821000I-49550J0D01*
G01*
X6765752Y6821000D02*
G75*
G02*
X6864852Y6821000I49550J0D01*
G01*
X6864852Y6618000D02*
G75*
G02*
X6765752Y6618000I-49550J0D01*
G01*
X6765752Y6618000D02*
G75*
G02*
X6864852Y6618000I49550J0D01*
G01*
X6865504Y2419000D02*
G75*
G02*
X6766404Y2419000I-49550J0D01*
G01*
X6766404Y2419000D02*
G75*
G02*
X6865504Y2419000I49550J0D01*
G01*
X6865504Y2216000D02*
G75*
G02*
X6766404Y2216000I-49550J0D01*
G01*
X6766404Y2216000D02*
G75*
G02*
X6865504Y2216000I49550J0D01*
G01*
X6865550Y9024000D02*
G75*
G02*
X6766450Y9024000I-49550J0D01*
G01*
X6766450Y9024000D02*
G75*
G02*
X6865550Y9024000I49550J0D01*
G01*
X6865550Y8821000D02*
G75*
G02*
X6766450Y8821000I-49550J0D01*
G01*
X6766450Y8821000D02*
G75*
G02*
X6865550Y8821000I49550J0D01*
G01*
X6865550Y4621000D02*
G75*
G02*
X6766450Y4621000I-49550J0D01*
G01*
X6766450Y4621000D02*
G75*
G02*
X6865550Y4621000I49550J0D01*
G01*
X6865550Y4418000D02*
G75*
G02*
X6766450Y4418000I-49550J0D01*
G01*
X6766450Y4418000D02*
G75*
G02*
X6865550Y4418000I49550J0D01*
G01*
X8303550Y8919500D02*
G75*
G02*
X8204450Y8919500I-49550J0D01*
G01*
X8204450Y8919500D02*
G75*
G02*
X8303550Y8919500I49550J0D01*
G01*
X8303550Y6720364D02*
G75*
G02*
X8204450Y6720364I-49550J0D01*
G01*
X8204450Y6720364D02*
G75*
G02*
X8303550Y6720364I49550J0D01*
G01*
X8303550Y4519500D02*
G75*
G02*
X8204450Y4519500I-49550J0D01*
G01*
X8204450Y4519500D02*
G75*
G02*
X8303550Y4519500I49550J0D01*
G01*
X8303550Y2319500D02*
G75*
G02*
X8204450Y2319500I-49550J0D01*
G01*
X8204450Y2319500D02*
G75*
G02*
X8303550Y2319500I49550J0D01*
G01*
X9065550Y9021000D02*
G75*
G02*
X8966450Y9021000I-49550J0D01*
G01*
X8966450Y9021000D02*
G75*
G02*
X9065550Y9021000I49550J0D01*
G01*
X9065550Y8818000D02*
G75*
G02*
X8966450Y8818000I-49550J0D01*
G01*
X8966450Y8818000D02*
G75*
G02*
X9065550Y8818000I49550J0D01*
G01*
X9065550Y6821864D02*
G75*
G02*
X8966450Y6821864I-49550J0D01*
G01*
X8966450Y6821864D02*
G75*
G02*
X9065550Y6821864I49550J0D01*
G01*
X9065550Y6618864D02*
G75*
G02*
X8966450Y6618864I-49550J0D01*
G01*
X8966450Y6618864D02*
G75*
G02*
X9065550Y6618864I49550J0D01*
G01*
X9065550Y4621000D02*
G75*
G02*
X8966450Y4621000I-49550J0D01*
G01*
X8966450Y4621000D02*
G75*
G02*
X9065550Y4621000I49550J0D01*
G01*
X9065550Y4418000D02*
G75*
G02*
X8966450Y4418000I-49550J0D01*
G01*
X8966450Y4418000D02*
G75*
G02*
X9065550Y4418000I49550J0D01*
G01*
X9065550Y2421000D02*
G75*
G02*
X8966450Y2421000I-49550J0D01*
G01*
X8966450Y2421000D02*
G75*
G02*
X9065550Y2421000I49550J0D01*
G01*
X9065550Y2218000D02*
G75*
G02*
X8966450Y2218000I-49550J0D01*
G01*
X8966450Y2218000D02*
G75*
G02*
X9065550Y2218000I49550J0D01*
G01*
D13*
X893449Y6799789D02*
X893449Y6594789D01*
X790949Y6697289D02*
X995949Y6697289D01*
X898711Y2399789D02*
X898711Y2194789D01*
X796211Y2297289D02*
X1001211Y2297289D01*
X900711Y4601789D02*
X900711Y4396789D01*
X798211Y4499289D02*
X1003211Y4499289D01*
X906586Y9003789D02*
X906586Y8798789D01*
X804086Y8901289D02*
X1009086Y8901289D01*
X2293449Y5399789D02*
X2293449Y5194789D01*
X2190949Y5297289D02*
X2395949Y5297289D01*
X2298711Y999789D02*
X2298711Y794789D01*
X2196211Y897289D02*
X2401211Y897289D01*
X2300711Y3201789D02*
X2300711Y2996789D01*
X2198211Y3099289D02*
X2403211Y3099289D01*
X2306586Y7603789D02*
X2306586Y7398789D01*
X2204086Y7501289D02*
X2409086Y7501289D01*
X3098711Y6799789D02*
X3098711Y6594789D01*
X2996211Y6697289D02*
X3201211Y6697289D01*
X3100711Y9001789D02*
X3100711Y8796789D01*
X2998211Y8899289D02*
X3203211Y8899289D01*
X3100711Y4601789D02*
X3100711Y4396789D01*
X2998211Y4499289D02*
X3203211Y4499289D01*
X3100711Y2401789D02*
X3100711Y2196789D01*
X2998211Y2299289D02*
X3203211Y2299289D01*
X4498711Y5399789D02*
X4498711Y5194789D01*
X4396211Y5297289D02*
X4601211Y5297289D01*
X4500711Y7601789D02*
X4500711Y7396789D01*
X4398211Y7499289D02*
X4603211Y7499289D01*
X4500711Y3201789D02*
X4500711Y2996789D01*
X4398211Y3099289D02*
X4603211Y3099289D01*
X4500711Y1001789D02*
X4500711Y796789D01*
X4398211Y899289D02*
X4603211Y899289D01*
X5300013Y6801789D02*
X5300013Y6596789D01*
X5197513Y6699289D02*
X5402513Y6699289D01*
X5300665Y2399789D02*
X5300665Y2194789D01*
X5198165Y2297289D02*
X5403165Y2297289D01*
X5300711Y9004789D02*
X5300711Y8799789D01*
X5198211Y8902289D02*
X5403211Y8902289D01*
X5300711Y4601789D02*
X5300711Y4396789D01*
X5198211Y4499289D02*
X5403211Y4499289D01*
X6700013Y5401789D02*
X6700013Y5196789D01*
X6597513Y5299289D02*
X6802513Y5299289D01*
X6700665Y999789D02*
X6700665Y794789D01*
X6598165Y897289D02*
X6803165Y897289D01*
X6700711Y7604789D02*
X6700711Y7399789D01*
X6598211Y7502289D02*
X6803211Y7502289D01*
X6700711Y3201789D02*
X6700711Y2996789D01*
X6598211Y3099289D02*
X6803211Y3099289D01*
X7500711Y9001789D02*
X7500711Y8796789D01*
X7398211Y8899289D02*
X7603211Y8899289D01*
X7500711Y6802654D02*
X7500711Y6597654D01*
X7398211Y6700154D02*
X7603211Y6700154D01*
X7500711Y4601789D02*
X7500711Y4396789D01*
X7398211Y4499289D02*
X7603211Y4499289D01*
X7500711Y2401789D02*
X7500711Y2196789D01*
X7398211Y2299289D02*
X7603211Y2299289D01*
X8900711Y7601789D02*
X8900711Y7396789D01*
X8798211Y7499289D02*
X9003211Y7499289D01*
X8900711Y5402654D02*
X8900711Y5197654D01*
X8798211Y5300154D02*
X9003211Y5300154D01*
X8900711Y3201789D02*
X8900711Y2996789D01*
X8798211Y3099289D02*
X9003211Y3099289D01*
X8900711Y1001789D02*
X8900711Y796789D01*
X8798211Y899289D02*
X9003211Y899289D01*
D11*
X258277Y-313984D02*
X258277Y-113984D01*
X258277Y-113984D02*
X305896Y-113984D01*
X305896Y-113984D02*
X334467Y-123508D01*
X334467Y-123508D02*
X353515Y-142555D01*
X353515Y-142555D02*
X363039Y-161603D01*
X363039Y-161603D02*
X372562Y-199698D01*
X372562Y-199698D02*
X372562Y-228269D01*
X372562Y-228269D02*
X363039Y-266365D01*
X363039Y-266365D02*
X353515Y-285412D01*
X353515Y-285412D02*
X334467Y-304460D01*
X334467Y-304460D02*
X305896Y-313984D01*
X305896Y-313984D02*
X258277Y-313984D01*
X458277Y-313984D02*
X458277Y-180650D01*
X458277Y-218746D02*
X467801Y-199698D01*
X467801Y-199698D02*
X477324Y-190174D01*
X477324Y-190174D02*
X496372Y-180650D01*
X496372Y-180650D02*
X515420Y-180650D01*
X582086Y-313984D02*
X582086Y-180650D01*
X582086Y-113984D02*
X572563Y-123508D01*
X572563Y-123508D02*
X582086Y-133031D01*
X582086Y-133031D02*
X591610Y-123508D01*
X591610Y-123508D02*
X582086Y-113984D01*
X582086Y-113984D02*
X582086Y-133031D01*
X705896Y-313984D02*
X686848Y-304460D01*
X686848Y-304460D02*
X677324Y-285412D01*
X677324Y-285412D02*
X677324Y-113984D01*
X810658Y-313984D02*
X791610Y-304460D01*
X791610Y-304460D02*
X782086Y-285412D01*
X782086Y-285412D02*
X782086Y-113984D01*
X1039229Y-313984D02*
X1039229Y-113984D01*
X1039229Y-113984D02*
X1105896Y-256841D01*
X1105896Y-256841D02*
X1172563Y-113984D01*
X1172563Y-113984D02*
X1172563Y-313984D01*
X1353515Y-313984D02*
X1353515Y-209222D01*
X1353515Y-209222D02*
X1343991Y-190174D01*
X1343991Y-190174D02*
X1324944Y-180650D01*
X1324944Y-180650D02*
X1286848Y-180650D01*
X1286848Y-180650D02*
X1267801Y-190174D01*
X1353515Y-304460D02*
X1334467Y-313984D01*
X1334467Y-313984D02*
X1286848Y-313984D01*
X1286848Y-313984D02*
X1267801Y-304460D01*
X1267801Y-304460D02*
X1258277Y-285412D01*
X1258277Y-285412D02*
X1258277Y-266365D01*
X1258277Y-266365D02*
X1267801Y-247317D01*
X1267801Y-247317D02*
X1286848Y-237793D01*
X1286848Y-237793D02*
X1334467Y-237793D01*
X1334467Y-237793D02*
X1353515Y-228269D01*
X1448753Y-180650D02*
X1448753Y-380650D01*
X1448753Y-190174D02*
X1467801Y-180650D01*
X1467801Y-180650D02*
X1505896Y-180650D01*
X1505896Y-180650D02*
X1524943Y-190174D01*
X1524943Y-190174D02*
X1534467Y-199698D01*
X1534467Y-199698D02*
X1543991Y-218746D01*
X1543991Y-218746D02*
X1543991Y-275889D01*
X1543991Y-275889D02*
X1534467Y-294936D01*
X1534467Y-294936D02*
X1524943Y-304460D01*
X1524943Y-304460D02*
X1505896Y-313984D01*
X1505896Y-313984D02*
X1467801Y-313984D01*
X1467801Y-313984D02*
X1448753Y-304460D01*
X1629705Y-294936D02*
X1639229Y-304460D01*
X1639229Y-304460D02*
X1629705Y-313984D01*
X1629705Y-313984D02*
X1620182Y-304460D01*
X1620182Y-304460D02*
X1629705Y-294936D01*
X1629705Y-294936D02*
X1629705Y-313984D01*
X1629705Y-190174D02*
X1639229Y-199698D01*
X1639229Y-199698D02*
X1629705Y-209222D01*
X1629705Y-209222D02*
X1620182Y-199698D01*
X1620182Y-199698D02*
X1629705Y-190174D01*
X1629705Y-190174D02*
X1629705Y-209222D01*
D12*
X-52500Y-617500D02*
X-2500Y-667500D01*
X-2500Y-617500D02*
X-52500Y-667500D01*
D11*
X296372Y-533984D02*
X315420Y-533984D01*
X315420Y-533984D02*
X334467Y-543508D01*
X334467Y-543508D02*
X343991Y-553031D01*
X343991Y-553031D02*
X353515Y-572079D01*
X353515Y-572079D02*
X363039Y-610174D01*
X363039Y-610174D02*
X363039Y-657793D01*
X363039Y-657793D02*
X353515Y-695889D01*
X353515Y-695889D02*
X343991Y-714936D01*
X343991Y-714936D02*
X334467Y-724460D01*
X334467Y-724460D02*
X315420Y-733984D01*
X315420Y-733984D02*
X296372Y-733984D01*
X296372Y-733984D02*
X277324Y-724460D01*
X277324Y-724460D02*
X267801Y-714936D01*
X267801Y-714936D02*
X258277Y-695889D01*
X258277Y-695889D02*
X248753Y-657793D01*
X248753Y-657793D02*
X248753Y-610174D01*
X248753Y-610174D02*
X258277Y-572079D01*
X258277Y-572079D02*
X267801Y-553031D01*
X267801Y-553031D02*
X277324Y-543508D01*
X277324Y-543508D02*
X296372Y-533984D01*
X448753Y-714936D02*
X458277Y-724460D01*
X458277Y-724460D02*
X448753Y-733984D01*
X448753Y-733984D02*
X439229Y-724460D01*
X439229Y-724460D02*
X448753Y-714936D01*
X448753Y-714936D02*
X448753Y-733984D01*
X639229Y-533984D02*
X543991Y-533984D01*
X543991Y-533984D02*
X534467Y-629222D01*
X534467Y-629222D02*
X543991Y-619698D01*
X543991Y-619698D02*
X563039Y-610174D01*
X563039Y-610174D02*
X610658Y-610174D01*
X610658Y-610174D02*
X629705Y-619698D01*
X629705Y-619698D02*
X639229Y-629222D01*
X639229Y-629222D02*
X648753Y-648270D01*
X648753Y-648270D02*
X648753Y-695889D01*
X648753Y-695889D02*
X639229Y-714936D01*
X639229Y-714936D02*
X629705Y-724460D01*
X629705Y-724460D02*
X610658Y-733984D01*
X610658Y-733984D02*
X563039Y-733984D01*
X563039Y-733984D02*
X543991Y-724460D01*
X543991Y-724460D02*
X534467Y-714936D01*
X772562Y-533984D02*
X791610Y-533984D01*
X791610Y-533984D02*
X810658Y-543508D01*
X810658Y-543508D02*
X820182Y-553031D01*
X820182Y-553031D02*
X829705Y-572079D01*
X829705Y-572079D02*
X839229Y-610174D01*
X839229Y-610174D02*
X839229Y-657793D01*
X839229Y-657793D02*
X829705Y-695889D01*
X829705Y-695889D02*
X820182Y-714936D01*
X820182Y-714936D02*
X810658Y-724460D01*
X810658Y-724460D02*
X791610Y-733984D01*
X791610Y-733984D02*
X772562Y-733984D01*
X772562Y-733984D02*
X753515Y-724460D01*
X753515Y-724460D02*
X743991Y-714936D01*
X743991Y-714936D02*
X734467Y-695889D01*
X734467Y-695889D02*
X724943Y-657793D01*
X724943Y-657793D02*
X724943Y-610174D01*
X724943Y-610174D02*
X734467Y-572079D01*
X734467Y-572079D02*
X743991Y-553031D01*
X743991Y-553031D02*
X753515Y-543508D01*
X753515Y-543508D02*
X772562Y-533984D01*
X963039Y-533984D02*
X982086Y-533984D01*
X982086Y-533984D02*
X1001134Y-543508D01*
X1001134Y-543508D02*
X1010658Y-553031D01*
X1010658Y-553031D02*
X1020182Y-572079D01*
X1020182Y-572079D02*
X1029705Y-610174D01*
X1029705Y-610174D02*
X1029705Y-657793D01*
X1029705Y-657793D02*
X1020182Y-695889D01*
X1020182Y-695889D02*
X1010658Y-714936D01*
X1010658Y-714936D02*
X1001134Y-724460D01*
X1001134Y-724460D02*
X982086Y-733984D01*
X982086Y-733984D02*
X963039Y-733984D01*
X963039Y-733984D02*
X943991Y-724460D01*
X943991Y-724460D02*
X934467Y-714936D01*
X934467Y-714936D02*
X924943Y-695889D01*
X924943Y-695889D02*
X915420Y-657793D01*
X915420Y-657793D02*
X915420Y-610174D01*
X915420Y-610174D02*
X924943Y-572079D01*
X924943Y-572079D02*
X934467Y-553031D01*
X934467Y-553031D02*
X943991Y-543508D01*
X943991Y-543508D02*
X963039Y-533984D01*
X1115420Y-733984D02*
X1115420Y-600650D01*
X1115420Y-619698D02*
X1124944Y-610174D01*
X1124944Y-610174D02*
X1143991Y-600650D01*
X1143991Y-600650D02*
X1172563Y-600650D01*
X1172563Y-600650D02*
X1191610Y-610174D01*
X1191610Y-610174D02*
X1201134Y-629222D01*
X1201134Y-629222D02*
X1201134Y-733984D01*
X1201134Y-629222D02*
X1210658Y-610174D01*
X1210658Y-610174D02*
X1229705Y-600650D01*
X1229705Y-600650D02*
X1258277Y-600650D01*
X1258277Y-600650D02*
X1277325Y-610174D01*
X1277325Y-610174D02*
X1286848Y-629222D01*
X1286848Y-629222D02*
X1286848Y-733984D01*
X1382086Y-733984D02*
X1382086Y-600650D01*
X1382086Y-619698D02*
X1391610Y-610174D01*
X1391610Y-610174D02*
X1410658Y-600650D01*
X1410658Y-600650D02*
X1439229Y-600650D01*
X1439229Y-600650D02*
X1458277Y-610174D01*
X1458277Y-610174D02*
X1467801Y-629222D01*
X1467801Y-629222D02*
X1467801Y-733984D01*
X1467801Y-629222D02*
X1477324Y-610174D01*
X1477324Y-610174D02*
X1496372Y-600650D01*
X1496372Y-600650D02*
X1524943Y-600650D01*
X1524943Y-600650D02*
X1543991Y-610174D01*
X1543991Y-610174D02*
X1553515Y-629222D01*
X1553515Y-629222D02*
X1553515Y-733984D01*
X1943991Y-524460D02*
X1772563Y-781603D01*
X2201134Y-533984D02*
X2220182Y-533984D01*
X2220182Y-533984D02*
X2239229Y-543508D01*
X2239229Y-543508D02*
X2248753Y-553031D01*
X2248753Y-553031D02*
X2258277Y-572079D01*
X2258277Y-572079D02*
X2267801Y-610174D01*
X2267801Y-610174D02*
X2267801Y-657793D01*
X2267801Y-657793D02*
X2258277Y-695889D01*
X2258277Y-695889D02*
X2248753Y-714936D01*
X2248753Y-714936D02*
X2239229Y-724460D01*
X2239229Y-724460D02*
X2220182Y-733984D01*
X2220182Y-733984D02*
X2201134Y-733984D01*
X2201134Y-733984D02*
X2182087Y-724460D01*
X2182087Y-724460D02*
X2172563Y-714936D01*
X2172563Y-714936D02*
X2163039Y-695889D01*
X2163039Y-695889D02*
X2153515Y-657793D01*
X2153515Y-657793D02*
X2153515Y-610174D01*
X2153515Y-610174D02*
X2163039Y-572079D01*
X2163039Y-572079D02*
X2172563Y-553031D01*
X2172563Y-553031D02*
X2182087Y-543508D01*
X2182087Y-543508D02*
X2201134Y-533984D01*
X2353515Y-714936D02*
X2363039Y-724460D01*
X2363039Y-724460D02*
X2353515Y-733984D01*
X2353515Y-733984D02*
X2343991Y-724460D01*
X2343991Y-724460D02*
X2353515Y-714936D01*
X2353515Y-714936D02*
X2353515Y-733984D01*
X2486848Y-533984D02*
X2505896Y-533984D01*
X2505896Y-533984D02*
X2524944Y-543508D01*
X2524944Y-543508D02*
X2534468Y-553031D01*
X2534468Y-553031D02*
X2543991Y-572079D01*
X2543991Y-572079D02*
X2553515Y-610174D01*
X2553515Y-610174D02*
X2553515Y-657793D01*
X2553515Y-657793D02*
X2543991Y-695889D01*
X2543991Y-695889D02*
X2534468Y-714936D01*
X2534468Y-714936D02*
X2524944Y-724460D01*
X2524944Y-724460D02*
X2505896Y-733984D01*
X2505896Y-733984D02*
X2486848Y-733984D01*
X2486848Y-733984D02*
X2467801Y-724460D01*
X2467801Y-724460D02*
X2458277Y-714936D01*
X2458277Y-714936D02*
X2448753Y-695889D01*
X2448753Y-695889D02*
X2439229Y-657793D01*
X2439229Y-657793D02*
X2439229Y-610174D01*
X2439229Y-610174D02*
X2448753Y-572079D01*
X2448753Y-572079D02*
X2458277Y-553031D01*
X2458277Y-553031D02*
X2467801Y-543508D01*
X2467801Y-543508D02*
X2486848Y-533984D01*
X2743991Y-733984D02*
X2629706Y-733984D01*
X2686848Y-733984D02*
X2686848Y-533984D01*
X2686848Y-533984D02*
X2667801Y-562555D01*
X2667801Y-562555D02*
X2648753Y-581603D01*
X2648753Y-581603D02*
X2629706Y-591127D01*
X2839229Y-733984D02*
X2877325Y-733984D01*
X2877325Y-733984D02*
X2896372Y-724460D01*
X2896372Y-724460D02*
X2905896Y-714936D01*
X2905896Y-714936D02*
X2924944Y-686365D01*
X2924944Y-686365D02*
X2934467Y-648270D01*
X2934467Y-648270D02*
X2934467Y-572079D01*
X2934467Y-572079D02*
X2924944Y-553031D01*
X2924944Y-553031D02*
X2915420Y-543508D01*
X2915420Y-543508D02*
X2896372Y-533984D01*
X2896372Y-533984D02*
X2858277Y-533984D01*
X2858277Y-533984D02*
X2839229Y-543508D01*
X2839229Y-543508D02*
X2829706Y-553031D01*
X2829706Y-553031D02*
X2820182Y-572079D01*
X2820182Y-572079D02*
X2820182Y-619698D01*
X2820182Y-619698D02*
X2829706Y-638746D01*
X2829706Y-638746D02*
X2839229Y-648270D01*
X2839229Y-648270D02*
X2858277Y-657793D01*
X2858277Y-657793D02*
X2896372Y-657793D01*
X2896372Y-657793D02*
X2915420Y-648270D01*
X2915420Y-648270D02*
X2924944Y-638746D01*
X2924944Y-638746D02*
X2934467Y-619698D01*
X3001134Y-533984D02*
X3134467Y-533984D01*
X3134467Y-533984D02*
X3048753Y-733984D01*
X3201134Y-533984D02*
X3201134Y-572079D01*
X3277325Y-533984D02*
X3277325Y-572079D01*
X3572563Y-810174D02*
X3563039Y-800650D01*
X3563039Y-800650D02*
X3543991Y-772079D01*
X3543991Y-772079D02*
X3534468Y-753031D01*
X3534468Y-753031D02*
X3524944Y-724460D01*
X3524944Y-724460D02*
X3515420Y-676841D01*
X3515420Y-676841D02*
X3515420Y-638746D01*
X3515420Y-638746D02*
X3524944Y-591127D01*
X3524944Y-591127D02*
X3534468Y-562555D01*
X3534468Y-562555D02*
X3543991Y-543508D01*
X3543991Y-543508D02*
X3563039Y-514936D01*
X3563039Y-514936D02*
X3572563Y-505412D01*
X3639229Y-553031D02*
X3648753Y-543508D01*
X3648753Y-543508D02*
X3667801Y-533984D01*
X3667801Y-533984D02*
X3715420Y-533984D01*
X3715420Y-533984D02*
X3734468Y-543508D01*
X3734468Y-543508D02*
X3743991Y-553031D01*
X3743991Y-553031D02*
X3753515Y-572079D01*
X3753515Y-572079D02*
X3753515Y-591127D01*
X3753515Y-591127D02*
X3743991Y-619698D01*
X3743991Y-619698D02*
X3629706Y-733984D01*
X3629706Y-733984D02*
X3753515Y-733984D01*
X3934468Y-533984D02*
X3839229Y-533984D01*
X3839229Y-533984D02*
X3829706Y-629222D01*
X3829706Y-629222D02*
X3839229Y-619698D01*
X3839229Y-619698D02*
X3858277Y-610174D01*
X3858277Y-610174D02*
X3905896Y-610174D01*
X3905896Y-610174D02*
X3924944Y-619698D01*
X3924944Y-619698D02*
X3934468Y-629222D01*
X3934468Y-629222D02*
X3943991Y-648270D01*
X3943991Y-648270D02*
X3943991Y-695889D01*
X3943991Y-695889D02*
X3934468Y-714936D01*
X3934468Y-714936D02*
X3924944Y-724460D01*
X3924944Y-724460D02*
X3905896Y-733984D01*
X3905896Y-733984D02*
X3858277Y-733984D01*
X3858277Y-733984D02*
X3839229Y-724460D01*
X3839229Y-724460D02*
X3829706Y-714936D01*
X4115420Y-533984D02*
X4077325Y-533984D01*
X4077325Y-533984D02*
X4058277Y-543508D01*
X4058277Y-543508D02*
X4048753Y-553031D01*
X4048753Y-553031D02*
X4029706Y-581603D01*
X4029706Y-581603D02*
X4020182Y-619698D01*
X4020182Y-619698D02*
X4020182Y-695889D01*
X4020182Y-695889D02*
X4029706Y-714936D01*
X4029706Y-714936D02*
X4039229Y-724460D01*
X4039229Y-724460D02*
X4058277Y-733984D01*
X4058277Y-733984D02*
X4096372Y-733984D01*
X4096372Y-733984D02*
X4115420Y-724460D01*
X4115420Y-724460D02*
X4124944Y-714936D01*
X4124944Y-714936D02*
X4134468Y-695889D01*
X4134468Y-695889D02*
X4134468Y-648270D01*
X4134468Y-648270D02*
X4124944Y-629222D01*
X4124944Y-629222D02*
X4115420Y-619698D01*
X4115420Y-619698D02*
X4096372Y-610174D01*
X4096372Y-610174D02*
X4058277Y-610174D01*
X4058277Y-610174D02*
X4039229Y-619698D01*
X4039229Y-619698D02*
X4029706Y-629222D01*
X4029706Y-629222D02*
X4020182Y-648270D01*
X4372563Y-733984D02*
X4372563Y-533984D01*
X4458277Y-733984D02*
X4458277Y-629222D01*
X4458277Y-629222D02*
X4448753Y-610174D01*
X4448753Y-610174D02*
X4429706Y-600650D01*
X4429706Y-600650D02*
X4401134Y-600650D01*
X4401134Y-600650D02*
X4382087Y-610174D01*
X4382087Y-610174D02*
X4372563Y-619698D01*
X4582087Y-733984D02*
X4563039Y-724460D01*
X4563039Y-724460D02*
X4553515Y-714936D01*
X4553515Y-714936D02*
X4543992Y-695889D01*
X4543992Y-695889D02*
X4543992Y-638746D01*
X4543992Y-638746D02*
X4553515Y-619698D01*
X4553515Y-619698D02*
X4563039Y-610174D01*
X4563039Y-610174D02*
X4582087Y-600650D01*
X4582087Y-600650D02*
X4610658Y-600650D01*
X4610658Y-600650D02*
X4629706Y-610174D01*
X4629706Y-610174D02*
X4639230Y-619698D01*
X4639230Y-619698D02*
X4648753Y-638746D01*
X4648753Y-638746D02*
X4648753Y-695889D01*
X4648753Y-695889D02*
X4639230Y-714936D01*
X4639230Y-714936D02*
X4629706Y-724460D01*
X4629706Y-724460D02*
X4610658Y-733984D01*
X4610658Y-733984D02*
X4582087Y-733984D01*
X4763039Y-733984D02*
X4743992Y-724460D01*
X4743992Y-724460D02*
X4734468Y-705412D01*
X4734468Y-705412D02*
X4734468Y-533984D01*
X4915420Y-724460D02*
X4896373Y-733984D01*
X4896373Y-733984D02*
X4858277Y-733984D01*
X4858277Y-733984D02*
X4839230Y-724460D01*
X4839230Y-724460D02*
X4829706Y-705412D01*
X4829706Y-705412D02*
X4829706Y-629222D01*
X4829706Y-629222D02*
X4839230Y-610174D01*
X4839230Y-610174D02*
X4858277Y-600650D01*
X4858277Y-600650D02*
X4896373Y-600650D01*
X4896373Y-600650D02*
X4915420Y-610174D01*
X4915420Y-610174D02*
X4924944Y-629222D01*
X4924944Y-629222D02*
X4924944Y-648270D01*
X4924944Y-648270D02*
X4829706Y-667317D01*
X5001134Y-724460D02*
X5020182Y-733984D01*
X5020182Y-733984D02*
X5058277Y-733984D01*
X5058277Y-733984D02*
X5077325Y-724460D01*
X5077325Y-724460D02*
X5086849Y-705412D01*
X5086849Y-705412D02*
X5086849Y-695889D01*
X5086849Y-695889D02*
X5077325Y-676841D01*
X5077325Y-676841D02*
X5058277Y-667317D01*
X5058277Y-667317D02*
X5029706Y-667317D01*
X5029706Y-667317D02*
X5010658Y-657793D01*
X5010658Y-657793D02*
X5001134Y-638746D01*
X5001134Y-638746D02*
X5001134Y-629222D01*
X5001134Y-629222D02*
X5010658Y-610174D01*
X5010658Y-610174D02*
X5029706Y-600650D01*
X5029706Y-600650D02*
X5058277Y-600650D01*
X5058277Y-600650D02*
X5077325Y-610174D01*
X5153515Y-810174D02*
X5163039Y-800650D01*
X5163039Y-800650D02*
X5182087Y-772079D01*
X5182087Y-772079D02*
X5191611Y-753031D01*
X5191611Y-753031D02*
X5201134Y-724460D01*
X5201134Y-724460D02*
X5210658Y-676841D01*
X5210658Y-676841D02*
X5210658Y-638746D01*
X5210658Y-638746D02*
X5201134Y-591127D01*
X5201134Y-591127D02*
X5191611Y-562555D01*
X5191611Y-562555D02*
X5182087Y-543508D01*
X5182087Y-543508D02*
X5163039Y-514936D01*
X5163039Y-514936D02*
X5153515Y-505412D01*
X5515420Y-810174D02*
X5505896Y-800650D01*
X5505896Y-800650D02*
X5486849Y-772079D01*
X5486849Y-772079D02*
X5477325Y-753031D01*
X5477325Y-753031D02*
X5467801Y-724460D01*
X5467801Y-724460D02*
X5458277Y-676841D01*
X5458277Y-676841D02*
X5458277Y-638746D01*
X5458277Y-638746D02*
X5467801Y-591127D01*
X5467801Y-591127D02*
X5477325Y-562555D01*
X5477325Y-562555D02*
X5486849Y-543508D01*
X5486849Y-543508D02*
X5505896Y-514936D01*
X5505896Y-514936D02*
X5515420Y-505412D01*
X5591611Y-600650D02*
X5591611Y-733984D01*
X5591611Y-619698D02*
X5601134Y-610174D01*
X5601134Y-610174D02*
X5620182Y-600650D01*
X5620182Y-600650D02*
X5648753Y-600650D01*
X5648753Y-600650D02*
X5667801Y-610174D01*
X5667801Y-610174D02*
X5677325Y-629222D01*
X5677325Y-629222D02*
X5677325Y-733984D01*
X5801134Y-733984D02*
X5782087Y-724460D01*
X5782087Y-724460D02*
X5772563Y-714936D01*
X5772563Y-714936D02*
X5763039Y-695889D01*
X5763039Y-695889D02*
X5763039Y-638746D01*
X5763039Y-638746D02*
X5772563Y-619698D01*
X5772563Y-619698D02*
X5782087Y-610174D01*
X5782087Y-610174D02*
X5801134Y-600650D01*
X5801134Y-600650D02*
X5829706Y-600650D01*
X5829706Y-600650D02*
X5848753Y-610174D01*
X5848753Y-610174D02*
X5858277Y-619698D01*
X5858277Y-619698D02*
X5867801Y-638746D01*
X5867801Y-638746D02*
X5867801Y-695889D01*
X5867801Y-695889D02*
X5858277Y-714936D01*
X5858277Y-714936D02*
X5848753Y-724460D01*
X5848753Y-724460D02*
X5829706Y-733984D01*
X5829706Y-733984D02*
X5801134Y-733984D01*
X5924944Y-600650D02*
X6001134Y-600650D01*
X5953515Y-533984D02*
X5953515Y-705412D01*
X5953515Y-705412D02*
X5963039Y-724460D01*
X5963039Y-724460D02*
X5982087Y-733984D01*
X5982087Y-733984D02*
X6001134Y-733984D01*
X6220182Y-600650D02*
X6220182Y-800650D01*
X6220182Y-610174D02*
X6239230Y-600650D01*
X6239230Y-600650D02*
X6277325Y-600650D01*
X6277325Y-600650D02*
X6296373Y-610174D01*
X6296373Y-610174D02*
X6305896Y-619698D01*
X6305896Y-619698D02*
X6315420Y-638746D01*
X6315420Y-638746D02*
X6315420Y-695889D01*
X6315420Y-695889D02*
X6305896Y-714936D01*
X6305896Y-714936D02*
X6296373Y-724460D01*
X6296373Y-724460D02*
X6277325Y-733984D01*
X6277325Y-733984D02*
X6239230Y-733984D01*
X6239230Y-733984D02*
X6220182Y-724460D01*
X6429706Y-733984D02*
X6410658Y-724460D01*
X6410658Y-724460D02*
X6401134Y-705412D01*
X6401134Y-705412D02*
X6401134Y-533984D01*
X6591611Y-733984D02*
X6591611Y-629222D01*
X6591611Y-629222D02*
X6582087Y-610174D01*
X6582087Y-610174D02*
X6563039Y-600650D01*
X6563039Y-600650D02*
X6524944Y-600650D01*
X6524944Y-600650D02*
X6505896Y-610174D01*
X6591611Y-724460D02*
X6572563Y-733984D01*
X6572563Y-733984D02*
X6524944Y-733984D01*
X6524944Y-733984D02*
X6505896Y-724460D01*
X6505896Y-724460D02*
X6496373Y-705412D01*
X6496373Y-705412D02*
X6496373Y-686365D01*
X6496373Y-686365D02*
X6505896Y-667317D01*
X6505896Y-667317D02*
X6524944Y-657793D01*
X6524944Y-657793D02*
X6572563Y-657793D01*
X6572563Y-657793D02*
X6591611Y-648270D01*
X6658277Y-600650D02*
X6734468Y-600650D01*
X6686849Y-533984D02*
X6686849Y-705412D01*
X6686849Y-705412D02*
X6696373Y-724460D01*
X6696373Y-724460D02*
X6715420Y-733984D01*
X6715420Y-733984D02*
X6734468Y-733984D01*
X6877325Y-724460D02*
X6858277Y-733984D01*
X6858277Y-733984D02*
X6820182Y-733984D01*
X6820182Y-733984D02*
X6801134Y-724460D01*
X6801134Y-724460D02*
X6791611Y-705412D01*
X6791611Y-705412D02*
X6791611Y-629222D01*
X6791611Y-629222D02*
X6801134Y-610174D01*
X6801134Y-610174D02*
X6820182Y-600650D01*
X6820182Y-600650D02*
X6858277Y-600650D01*
X6858277Y-600650D02*
X6877325Y-610174D01*
X6877325Y-610174D02*
X6886849Y-629222D01*
X6886849Y-629222D02*
X6886849Y-648270D01*
X6886849Y-648270D02*
X6791611Y-667317D01*
X7058277Y-733984D02*
X7058277Y-533984D01*
X7058277Y-724460D02*
X7039230Y-733984D01*
X7039230Y-733984D02*
X7001134Y-733984D01*
X7001134Y-733984D02*
X6982087Y-724460D01*
X6982087Y-724460D02*
X6972563Y-714936D01*
X6972563Y-714936D02*
X6963039Y-695889D01*
X6963039Y-695889D02*
X6963039Y-638746D01*
X6963039Y-638746D02*
X6972563Y-619698D01*
X6972563Y-619698D02*
X6982087Y-610174D01*
X6982087Y-610174D02*
X7001134Y-600650D01*
X7001134Y-600650D02*
X7039230Y-600650D01*
X7039230Y-600650D02*
X7058277Y-610174D01*
X7134468Y-810174D02*
X7143992Y-800650D01*
X7143992Y-800650D02*
X7163039Y-772079D01*
X7163039Y-772079D02*
X7172563Y-753031D01*
X7172563Y-753031D02*
X7182087Y-724460D01*
X7182087Y-724460D02*
X7191611Y-676841D01*
X7191611Y-676841D02*
X7191611Y-638746D01*
X7191611Y-638746D02*
X7182087Y-591127D01*
X7182087Y-591127D02*
X7172563Y-562555D01*
X7172563Y-562555D02*
X7163039Y-543508D01*
X7163039Y-543508D02*
X7143992Y-514936D01*
X7143992Y-514936D02*
X7134468Y-505412D01*
D12*
X-2500Y-906500D02*
G75*
G02*
X-101600Y-906500I-49550J0D01*
G01*
X-101600Y-906500D02*
G75*
G02*
X-2500Y-906500I49550J0D01*
G01*
D11*
X296372Y-797984D02*
X315420Y-797984D01*
X315420Y-797984D02*
X334467Y-807508D01*
X334467Y-807508D02*
X343991Y-817031D01*
X343991Y-817031D02*
X353515Y-836079D01*
X353515Y-836079D02*
X363039Y-874174D01*
X363039Y-874174D02*
X363039Y-921793D01*
X363039Y-921793D02*
X353515Y-959888D01*
X353515Y-959888D02*
X343991Y-978936D01*
X343991Y-978936D02*
X334467Y-988460D01*
X334467Y-988460D02*
X315420Y-997984D01*
X315420Y-997984D02*
X296372Y-997984D01*
X296372Y-997984D02*
X277324Y-988460D01*
X277324Y-988460D02*
X267801Y-978936D01*
X267801Y-978936D02*
X258277Y-959888D01*
X258277Y-959888D02*
X248753Y-921793D01*
X248753Y-921793D02*
X248753Y-874174D01*
X248753Y-874174D02*
X258277Y-836079D01*
X258277Y-836079D02*
X267801Y-817031D01*
X267801Y-817031D02*
X277324Y-807508D01*
X277324Y-807508D02*
X296372Y-797984D01*
X448753Y-978936D02*
X458277Y-988460D01*
X458277Y-988460D02*
X448753Y-997984D01*
X448753Y-997984D02*
X439229Y-988460D01*
X439229Y-988460D02*
X448753Y-978936D01*
X448753Y-978936D02*
X448753Y-997984D01*
X553515Y-997984D02*
X591610Y-997984D01*
X591610Y-997984D02*
X610658Y-988460D01*
X610658Y-988460D02*
X620182Y-978936D01*
X620182Y-978936D02*
X639229Y-950365D01*
X639229Y-950365D02*
X648753Y-912269D01*
X648753Y-912269D02*
X648753Y-836079D01*
X648753Y-836079D02*
X639229Y-817031D01*
X639229Y-817031D02*
X629705Y-807508D01*
X629705Y-807508D02*
X610658Y-797984D01*
X610658Y-797984D02*
X572563Y-797984D01*
X572563Y-797984D02*
X553515Y-807508D01*
X553515Y-807508D02*
X543991Y-817031D01*
X543991Y-817031D02*
X534467Y-836079D01*
X534467Y-836079D02*
X534467Y-883698D01*
X534467Y-883698D02*
X543991Y-902746D01*
X543991Y-902746D02*
X553515Y-912269D01*
X553515Y-912269D02*
X572563Y-921793D01*
X572563Y-921793D02*
X610658Y-921793D01*
X610658Y-921793D02*
X629705Y-912269D01*
X629705Y-912269D02*
X639229Y-902746D01*
X639229Y-902746D02*
X648753Y-883698D01*
X743991Y-997984D02*
X782086Y-997984D01*
X782086Y-997984D02*
X801134Y-988460D01*
X801134Y-988460D02*
X810658Y-978936D01*
X810658Y-978936D02*
X829705Y-950365D01*
X829705Y-950365D02*
X839229Y-912269D01*
X839229Y-912269D02*
X839229Y-836079D01*
X839229Y-836079D02*
X829705Y-817031D01*
X829705Y-817031D02*
X820182Y-807508D01*
X820182Y-807508D02*
X801134Y-797984D01*
X801134Y-797984D02*
X763039Y-797984D01*
X763039Y-797984D02*
X743991Y-807508D01*
X743991Y-807508D02*
X734467Y-817031D01*
X734467Y-817031D02*
X724943Y-836079D01*
X724943Y-836079D02*
X724943Y-883698D01*
X724943Y-883698D02*
X734467Y-902746D01*
X734467Y-902746D02*
X743991Y-912269D01*
X743991Y-912269D02*
X763039Y-921793D01*
X763039Y-921793D02*
X801134Y-921793D01*
X801134Y-921793D02*
X820182Y-912269D01*
X820182Y-912269D02*
X829705Y-902746D01*
X829705Y-902746D02*
X839229Y-883698D01*
X1029705Y-997984D02*
X915420Y-997984D01*
X972562Y-997984D02*
X972562Y-797984D01*
X972562Y-797984D02*
X953515Y-826555D01*
X953515Y-826555D02*
X934467Y-845603D01*
X934467Y-845603D02*
X915420Y-855127D01*
X1115420Y-997984D02*
X1115420Y-864650D01*
X1115420Y-883698D02*
X1124944Y-874174D01*
X1124944Y-874174D02*
X1143991Y-864650D01*
X1143991Y-864650D02*
X1172563Y-864650D01*
X1172563Y-864650D02*
X1191610Y-874174D01*
X1191610Y-874174D02*
X1201134Y-893222D01*
X1201134Y-893222D02*
X1201134Y-997984D01*
X1201134Y-893222D02*
X1210658Y-874174D01*
X1210658Y-874174D02*
X1229705Y-864650D01*
X1229705Y-864650D02*
X1258277Y-864650D01*
X1258277Y-864650D02*
X1277325Y-874174D01*
X1277325Y-874174D02*
X1286848Y-893222D01*
X1286848Y-893222D02*
X1286848Y-997984D01*
X1382086Y-997984D02*
X1382086Y-864650D01*
X1382086Y-883698D02*
X1391610Y-874174D01*
X1391610Y-874174D02*
X1410658Y-864650D01*
X1410658Y-864650D02*
X1439229Y-864650D01*
X1439229Y-864650D02*
X1458277Y-874174D01*
X1458277Y-874174D02*
X1467801Y-893222D01*
X1467801Y-893222D02*
X1467801Y-997984D01*
X1467801Y-893222D02*
X1477324Y-874174D01*
X1477324Y-874174D02*
X1496372Y-864650D01*
X1496372Y-864650D02*
X1524943Y-864650D01*
X1524943Y-864650D02*
X1543991Y-874174D01*
X1543991Y-874174D02*
X1553515Y-893222D01*
X1553515Y-893222D02*
X1553515Y-997984D01*
X1943991Y-788460D02*
X1772563Y-1045603D01*
X2201134Y-797984D02*
X2220182Y-797984D01*
X2220182Y-797984D02*
X2239229Y-807508D01*
X2239229Y-807508D02*
X2248753Y-817031D01*
X2248753Y-817031D02*
X2258277Y-836079D01*
X2258277Y-836079D02*
X2267801Y-874174D01*
X2267801Y-874174D02*
X2267801Y-921793D01*
X2267801Y-921793D02*
X2258277Y-959888D01*
X2258277Y-959888D02*
X2248753Y-978936D01*
X2248753Y-978936D02*
X2239229Y-988460D01*
X2239229Y-988460D02*
X2220182Y-997984D01*
X2220182Y-997984D02*
X2201134Y-997984D01*
X2201134Y-997984D02*
X2182087Y-988460D01*
X2182087Y-988460D02*
X2172563Y-978936D01*
X2172563Y-978936D02*
X2163039Y-959888D01*
X2163039Y-959888D02*
X2153515Y-921793D01*
X2153515Y-921793D02*
X2153515Y-874174D01*
X2153515Y-874174D02*
X2163039Y-836079D01*
X2163039Y-836079D02*
X2172563Y-817031D01*
X2172563Y-817031D02*
X2182087Y-807508D01*
X2182087Y-807508D02*
X2201134Y-797984D01*
X2353515Y-978936D02*
X2363039Y-988460D01*
X2363039Y-988460D02*
X2353515Y-997984D01*
X2353515Y-997984D02*
X2343991Y-988460D01*
X2343991Y-988460D02*
X2353515Y-978936D01*
X2353515Y-978936D02*
X2353515Y-997984D01*
X2486848Y-797984D02*
X2505896Y-797984D01*
X2505896Y-797984D02*
X2524944Y-807508D01*
X2524944Y-807508D02*
X2534468Y-817031D01*
X2534468Y-817031D02*
X2543991Y-836079D01*
X2543991Y-836079D02*
X2553515Y-874174D01*
X2553515Y-874174D02*
X2553515Y-921793D01*
X2553515Y-921793D02*
X2543991Y-959888D01*
X2543991Y-959888D02*
X2534468Y-978936D01*
X2534468Y-978936D02*
X2524944Y-988460D01*
X2524944Y-988460D02*
X2505896Y-997984D01*
X2505896Y-997984D02*
X2486848Y-997984D01*
X2486848Y-997984D02*
X2467801Y-988460D01*
X2467801Y-988460D02*
X2458277Y-978936D01*
X2458277Y-978936D02*
X2448753Y-959888D01*
X2448753Y-959888D02*
X2439229Y-921793D01*
X2439229Y-921793D02*
X2439229Y-874174D01*
X2439229Y-874174D02*
X2448753Y-836079D01*
X2448753Y-836079D02*
X2458277Y-817031D01*
X2458277Y-817031D02*
X2467801Y-807508D01*
X2467801Y-807508D02*
X2486848Y-797984D01*
X2620182Y-797984D02*
X2743991Y-797984D01*
X2743991Y-797984D02*
X2677325Y-874174D01*
X2677325Y-874174D02*
X2705896Y-874174D01*
X2705896Y-874174D02*
X2724944Y-883698D01*
X2724944Y-883698D02*
X2734468Y-893222D01*
X2734468Y-893222D02*
X2743991Y-912269D01*
X2743991Y-912269D02*
X2743991Y-959888D01*
X2743991Y-959888D02*
X2734468Y-978936D01*
X2734468Y-978936D02*
X2724944Y-988460D01*
X2724944Y-988460D02*
X2705896Y-997984D01*
X2705896Y-997984D02*
X2648753Y-997984D01*
X2648753Y-997984D02*
X2629706Y-988460D01*
X2629706Y-988460D02*
X2620182Y-978936D01*
X2839229Y-997984D02*
X2877325Y-997984D01*
X2877325Y-997984D02*
X2896372Y-988460D01*
X2896372Y-988460D02*
X2905896Y-978936D01*
X2905896Y-978936D02*
X2924944Y-950365D01*
X2924944Y-950365D02*
X2934467Y-912269D01*
X2934467Y-912269D02*
X2934467Y-836079D01*
X2934467Y-836079D02*
X2924944Y-817031D01*
X2924944Y-817031D02*
X2915420Y-807508D01*
X2915420Y-807508D02*
X2896372Y-797984D01*
X2896372Y-797984D02*
X2858277Y-797984D01*
X2858277Y-797984D02*
X2839229Y-807508D01*
X2839229Y-807508D02*
X2829706Y-817031D01*
X2829706Y-817031D02*
X2820182Y-836079D01*
X2820182Y-836079D02*
X2820182Y-883698D01*
X2820182Y-883698D02*
X2829706Y-902746D01*
X2829706Y-902746D02*
X2839229Y-912269D01*
X2839229Y-912269D02*
X2858277Y-921793D01*
X2858277Y-921793D02*
X2896372Y-921793D01*
X2896372Y-921793D02*
X2915420Y-912269D01*
X2915420Y-912269D02*
X2924944Y-902746D01*
X2924944Y-902746D02*
X2934467Y-883698D01*
X3058277Y-797984D02*
X3077325Y-797984D01*
X3077325Y-797984D02*
X3096372Y-807508D01*
X3096372Y-807508D02*
X3105896Y-817031D01*
X3105896Y-817031D02*
X3115420Y-836079D01*
X3115420Y-836079D02*
X3124944Y-874174D01*
X3124944Y-874174D02*
X3124944Y-921793D01*
X3124944Y-921793D02*
X3115420Y-959888D01*
X3115420Y-959888D02*
X3105896Y-978936D01*
X3105896Y-978936D02*
X3096372Y-988460D01*
X3096372Y-988460D02*
X3077325Y-997984D01*
X3077325Y-997984D02*
X3058277Y-997984D01*
X3058277Y-997984D02*
X3039229Y-988460D01*
X3039229Y-988460D02*
X3029706Y-978936D01*
X3029706Y-978936D02*
X3020182Y-959888D01*
X3020182Y-959888D02*
X3010658Y-921793D01*
X3010658Y-921793D02*
X3010658Y-874174D01*
X3010658Y-874174D02*
X3020182Y-836079D01*
X3020182Y-836079D02*
X3029706Y-817031D01*
X3029706Y-817031D02*
X3039229Y-807508D01*
X3039229Y-807508D02*
X3058277Y-797984D01*
X3201134Y-797984D02*
X3201134Y-836079D01*
X3277325Y-797984D02*
X3277325Y-836079D01*
X3572563Y-1074174D02*
X3563039Y-1064650D01*
X3563039Y-1064650D02*
X3543991Y-1036079D01*
X3543991Y-1036079D02*
X3534468Y-1017031D01*
X3534468Y-1017031D02*
X3524944Y-988460D01*
X3524944Y-988460D02*
X3515420Y-940841D01*
X3515420Y-940841D02*
X3515420Y-902746D01*
X3515420Y-902746D02*
X3524944Y-855127D01*
X3524944Y-855127D02*
X3534468Y-826555D01*
X3534468Y-826555D02*
X3543991Y-807508D01*
X3543991Y-807508D02*
X3563039Y-778936D01*
X3563039Y-778936D02*
X3572563Y-769412D01*
X3734468Y-864650D02*
X3734468Y-997984D01*
X3686848Y-788460D02*
X3639229Y-931317D01*
X3639229Y-931317D02*
X3763039Y-931317D01*
X3867801Y-883698D02*
X3848753Y-874174D01*
X3848753Y-874174D02*
X3839229Y-864650D01*
X3839229Y-864650D02*
X3829706Y-845603D01*
X3829706Y-845603D02*
X3829706Y-836079D01*
X3829706Y-836079D02*
X3839229Y-817031D01*
X3839229Y-817031D02*
X3848753Y-807508D01*
X3848753Y-807508D02*
X3867801Y-797984D01*
X3867801Y-797984D02*
X3905896Y-797984D01*
X3905896Y-797984D02*
X3924944Y-807508D01*
X3924944Y-807508D02*
X3934468Y-817031D01*
X3934468Y-817031D02*
X3943991Y-836079D01*
X3943991Y-836079D02*
X3943991Y-845603D01*
X3943991Y-845603D02*
X3934468Y-864650D01*
X3934468Y-864650D02*
X3924944Y-874174D01*
X3924944Y-874174D02*
X3905896Y-883698D01*
X3905896Y-883698D02*
X3867801Y-883698D01*
X3867801Y-883698D02*
X3848753Y-893222D01*
X3848753Y-893222D02*
X3839229Y-902746D01*
X3839229Y-902746D02*
X3829706Y-921793D01*
X3829706Y-921793D02*
X3829706Y-959888D01*
X3829706Y-959888D02*
X3839229Y-978936D01*
X3839229Y-978936D02*
X3848753Y-988460D01*
X3848753Y-988460D02*
X3867801Y-997984D01*
X3867801Y-997984D02*
X3905896Y-997984D01*
X3905896Y-997984D02*
X3924944Y-988460D01*
X3924944Y-988460D02*
X3934468Y-978936D01*
X3934468Y-978936D02*
X3943991Y-959888D01*
X3943991Y-959888D02*
X3943991Y-921793D01*
X3943991Y-921793D02*
X3934468Y-902746D01*
X3934468Y-902746D02*
X3924944Y-893222D01*
X3924944Y-893222D02*
X3905896Y-883698D01*
X4182087Y-997984D02*
X4182087Y-797984D01*
X4267801Y-997984D02*
X4267801Y-893222D01*
X4267801Y-893222D02*
X4258277Y-874174D01*
X4258277Y-874174D02*
X4239230Y-864650D01*
X4239230Y-864650D02*
X4210658Y-864650D01*
X4210658Y-864650D02*
X4191610Y-874174D01*
X4191610Y-874174D02*
X4182087Y-883698D01*
X4391611Y-997984D02*
X4372563Y-988460D01*
X4372563Y-988460D02*
X4363039Y-978936D01*
X4363039Y-978936D02*
X4353515Y-959888D01*
X4353515Y-959888D02*
X4353515Y-902746D01*
X4353515Y-902746D02*
X4363039Y-883698D01*
X4363039Y-883698D02*
X4372563Y-874174D01*
X4372563Y-874174D02*
X4391611Y-864650D01*
X4391611Y-864650D02*
X4420182Y-864650D01*
X4420182Y-864650D02*
X4439230Y-874174D01*
X4439230Y-874174D02*
X4448753Y-883698D01*
X4448753Y-883698D02*
X4458277Y-902746D01*
X4458277Y-902746D02*
X4458277Y-959888D01*
X4458277Y-959888D02*
X4448753Y-978936D01*
X4448753Y-978936D02*
X4439230Y-988460D01*
X4439230Y-988460D02*
X4420182Y-997984D01*
X4420182Y-997984D02*
X4391611Y-997984D01*
X4572563Y-997984D02*
X4553515Y-988460D01*
X4553515Y-988460D02*
X4543992Y-969412D01*
X4543992Y-969412D02*
X4543992Y-797984D01*
X4724944Y-988460D02*
X4705896Y-997984D01*
X4705896Y-997984D02*
X4667801Y-997984D01*
X4667801Y-997984D02*
X4648753Y-988460D01*
X4648753Y-988460D02*
X4639230Y-969412D01*
X4639230Y-969412D02*
X4639230Y-893222D01*
X4639230Y-893222D02*
X4648753Y-874174D01*
X4648753Y-874174D02*
X4667801Y-864650D01*
X4667801Y-864650D02*
X4705896Y-864650D01*
X4705896Y-864650D02*
X4724944Y-874174D01*
X4724944Y-874174D02*
X4734468Y-893222D01*
X4734468Y-893222D02*
X4734468Y-912269D01*
X4734468Y-912269D02*
X4639230Y-931317D01*
X4810658Y-988460D02*
X4829706Y-997984D01*
X4829706Y-997984D02*
X4867801Y-997984D01*
X4867801Y-997984D02*
X4886849Y-988460D01*
X4886849Y-988460D02*
X4896373Y-969412D01*
X4896373Y-969412D02*
X4896373Y-959888D01*
X4896373Y-959888D02*
X4886849Y-940841D01*
X4886849Y-940841D02*
X4867801Y-931317D01*
X4867801Y-931317D02*
X4839230Y-931317D01*
X4839230Y-931317D02*
X4820182Y-921793D01*
X4820182Y-921793D02*
X4810658Y-902746D01*
X4810658Y-902746D02*
X4810658Y-893222D01*
X4810658Y-893222D02*
X4820182Y-874174D01*
X4820182Y-874174D02*
X4839230Y-864650D01*
X4839230Y-864650D02*
X4867801Y-864650D01*
X4867801Y-864650D02*
X4886849Y-874174D01*
X4963039Y-1074174D02*
X4972563Y-1064650D01*
X4972563Y-1064650D02*
X4991611Y-1036079D01*
X4991611Y-1036079D02*
X5001134Y-1017031D01*
X5001134Y-1017031D02*
X5010658Y-988460D01*
X5010658Y-988460D02*
X5020182Y-940841D01*
X5020182Y-940841D02*
X5020182Y-902746D01*
X5020182Y-902746D02*
X5010658Y-855127D01*
X5010658Y-855127D02*
X5001134Y-826555D01*
X5001134Y-826555D02*
X4991611Y-807508D01*
X4991611Y-807508D02*
X4972563Y-778936D01*
X4972563Y-778936D02*
X4963039Y-769412D01*
X5324944Y-1074174D02*
X5315420Y-1064650D01*
X5315420Y-1064650D02*
X5296373Y-1036079D01*
X5296373Y-1036079D02*
X5286849Y-1017031D01*
X5286849Y-1017031D02*
X5277325Y-988460D01*
X5277325Y-988460D02*
X5267801Y-940841D01*
X5267801Y-940841D02*
X5267801Y-902746D01*
X5267801Y-902746D02*
X5277325Y-855127D01*
X5277325Y-855127D02*
X5286849Y-826555D01*
X5286849Y-826555D02*
X5296373Y-807508D01*
X5296373Y-807508D02*
X5315420Y-778936D01*
X5315420Y-778936D02*
X5324944Y-769412D01*
X5401134Y-864650D02*
X5401134Y-997984D01*
X5401134Y-883698D02*
X5410658Y-874174D01*
X5410658Y-874174D02*
X5429706Y-864650D01*
X5429706Y-864650D02*
X5458277Y-864650D01*
X5458277Y-864650D02*
X5477325Y-874174D01*
X5477325Y-874174D02*
X5486849Y-893222D01*
X5486849Y-893222D02*
X5486849Y-997984D01*
X5610658Y-997984D02*
X5591611Y-988460D01*
X5591611Y-988460D02*
X5582087Y-978936D01*
X5582087Y-978936D02*
X5572563Y-959888D01*
X5572563Y-959888D02*
X5572563Y-902746D01*
X5572563Y-902746D02*
X5582087Y-883698D01*
X5582087Y-883698D02*
X5591611Y-874174D01*
X5591611Y-874174D02*
X5610658Y-864650D01*
X5610658Y-864650D02*
X5639230Y-864650D01*
X5639230Y-864650D02*
X5658277Y-874174D01*
X5658277Y-874174D02*
X5667801Y-883698D01*
X5667801Y-883698D02*
X5677325Y-902746D01*
X5677325Y-902746D02*
X5677325Y-959888D01*
X5677325Y-959888D02*
X5667801Y-978936D01*
X5667801Y-978936D02*
X5658277Y-988460D01*
X5658277Y-988460D02*
X5639230Y-997984D01*
X5639230Y-997984D02*
X5610658Y-997984D01*
X5734468Y-864650D02*
X5810658Y-864650D01*
X5763039Y-797984D02*
X5763039Y-969412D01*
X5763039Y-969412D02*
X5772563Y-988460D01*
X5772563Y-988460D02*
X5791611Y-997984D01*
X5791611Y-997984D02*
X5810658Y-997984D01*
X6029706Y-864650D02*
X6029706Y-1064650D01*
X6029706Y-874174D02*
X6048753Y-864650D01*
X6048753Y-864650D02*
X6086849Y-864650D01*
X6086849Y-864650D02*
X6105896Y-874174D01*
X6105896Y-874174D02*
X6115420Y-883698D01*
X6115420Y-883698D02*
X6124944Y-902746D01*
X6124944Y-902746D02*
X6124944Y-959888D01*
X6124944Y-959888D02*
X6115420Y-978936D01*
X6115420Y-978936D02*
X6105896Y-988460D01*
X6105896Y-988460D02*
X6086849Y-997984D01*
X6086849Y-997984D02*
X6048753Y-997984D01*
X6048753Y-997984D02*
X6029706Y-988460D01*
X6239230Y-997984D02*
X6220182Y-988460D01*
X6220182Y-988460D02*
X6210658Y-969412D01*
X6210658Y-969412D02*
X6210658Y-797984D01*
X6401134Y-997984D02*
X6401134Y-893222D01*
X6401134Y-893222D02*
X6391611Y-874174D01*
X6391611Y-874174D02*
X6372563Y-864650D01*
X6372563Y-864650D02*
X6334468Y-864650D01*
X6334468Y-864650D02*
X6315420Y-874174D01*
X6401134Y-988460D02*
X6382087Y-997984D01*
X6382087Y-997984D02*
X6334468Y-997984D01*
X6334468Y-997984D02*
X6315420Y-988460D01*
X6315420Y-988460D02*
X6305896Y-969412D01*
X6305896Y-969412D02*
X6305896Y-950365D01*
X6305896Y-950365D02*
X6315420Y-931317D01*
X6315420Y-931317D02*
X6334468Y-921793D01*
X6334468Y-921793D02*
X6382087Y-921793D01*
X6382087Y-921793D02*
X6401134Y-912269D01*
X6467801Y-864650D02*
X6543992Y-864650D01*
X6496373Y-797984D02*
X6496373Y-969412D01*
X6496373Y-969412D02*
X6505896Y-988460D01*
X6505896Y-988460D02*
X6524944Y-997984D01*
X6524944Y-997984D02*
X6543992Y-997984D01*
X6686849Y-988460D02*
X6667801Y-997984D01*
X6667801Y-997984D02*
X6629706Y-997984D01*
X6629706Y-997984D02*
X6610658Y-988460D01*
X6610658Y-988460D02*
X6601134Y-969412D01*
X6601134Y-969412D02*
X6601134Y-893222D01*
X6601134Y-893222D02*
X6610658Y-874174D01*
X6610658Y-874174D02*
X6629706Y-864650D01*
X6629706Y-864650D02*
X6667801Y-864650D01*
X6667801Y-864650D02*
X6686849Y-874174D01*
X6686849Y-874174D02*
X6696373Y-893222D01*
X6696373Y-893222D02*
X6696373Y-912269D01*
X6696373Y-912269D02*
X6601134Y-931317D01*
X6867801Y-997984D02*
X6867801Y-797984D01*
X6867801Y-988460D02*
X6848754Y-997984D01*
X6848754Y-997984D02*
X6810658Y-997984D01*
X6810658Y-997984D02*
X6791611Y-988460D01*
X6791611Y-988460D02*
X6782087Y-978936D01*
X6782087Y-978936D02*
X6772563Y-959888D01*
X6772563Y-959888D02*
X6772563Y-902746D01*
X6772563Y-902746D02*
X6782087Y-883698D01*
X6782087Y-883698D02*
X6791611Y-874174D01*
X6791611Y-874174D02*
X6810658Y-864650D01*
X6810658Y-864650D02*
X6848754Y-864650D01*
X6848754Y-864650D02*
X6867801Y-874174D01*
X6943992Y-1074174D02*
X6953515Y-1064650D01*
X6953515Y-1064650D02*
X6972563Y-1036079D01*
X6972563Y-1036079D02*
X6982087Y-1017031D01*
X6982087Y-1017031D02*
X6991611Y-988460D01*
X6991611Y-988460D02*
X7001134Y-940841D01*
X7001134Y-940841D02*
X7001134Y-902746D01*
X7001134Y-902746D02*
X6991611Y-855127D01*
X6991611Y-855127D02*
X6982087Y-826555D01*
X6982087Y-826555D02*
X6972563Y-807508D01*
X6972563Y-807508D02*
X6953515Y-778936D01*
X6953515Y-778936D02*
X6943992Y-769412D01*
X-102500Y-1070500D02*
X-102500Y-1270500D01*
X-202500Y-1170500D02*
X-2500Y-1170500D01*
X248753Y-1081031D02*
X258277Y-1071508D01*
X258277Y-1071508D02*
X277324Y-1061984D01*
X277324Y-1061984D02*
X324944Y-1061984D01*
X324944Y-1061984D02*
X343991Y-1071508D01*
X343991Y-1071508D02*
X353515Y-1081031D01*
X353515Y-1081031D02*
X363039Y-1100079D01*
X363039Y-1100079D02*
X363039Y-1119127D01*
X363039Y-1119127D02*
X353515Y-1147698D01*
X353515Y-1147698D02*
X239229Y-1261984D01*
X239229Y-1261984D02*
X363039Y-1261984D01*
X448753Y-1242936D02*
X458277Y-1252460D01*
X458277Y-1252460D02*
X448753Y-1261984D01*
X448753Y-1261984D02*
X439229Y-1252460D01*
X439229Y-1252460D02*
X448753Y-1242936D01*
X448753Y-1242936D02*
X448753Y-1261984D01*
X582086Y-1061984D02*
X601134Y-1061984D01*
X601134Y-1061984D02*
X620182Y-1071508D01*
X620182Y-1071508D02*
X629705Y-1081031D01*
X629705Y-1081031D02*
X639229Y-1100079D01*
X639229Y-1100079D02*
X648753Y-1138174D01*
X648753Y-1138174D02*
X648753Y-1185793D01*
X648753Y-1185793D02*
X639229Y-1223889D01*
X639229Y-1223889D02*
X629705Y-1242936D01*
X629705Y-1242936D02*
X620182Y-1252460D01*
X620182Y-1252460D02*
X601134Y-1261984D01*
X601134Y-1261984D02*
X582086Y-1261984D01*
X582086Y-1261984D02*
X563039Y-1252460D01*
X563039Y-1252460D02*
X553515Y-1242936D01*
X553515Y-1242936D02*
X543991Y-1223889D01*
X543991Y-1223889D02*
X534467Y-1185793D01*
X534467Y-1185793D02*
X534467Y-1138174D01*
X534467Y-1138174D02*
X543991Y-1100079D01*
X543991Y-1100079D02*
X553515Y-1081031D01*
X553515Y-1081031D02*
X563039Y-1071508D01*
X563039Y-1071508D02*
X582086Y-1061984D01*
X829705Y-1061984D02*
X734467Y-1061984D01*
X734467Y-1061984D02*
X724943Y-1157222D01*
X724943Y-1157222D02*
X734467Y-1147698D01*
X734467Y-1147698D02*
X753515Y-1138174D01*
X753515Y-1138174D02*
X801134Y-1138174D01*
X801134Y-1138174D02*
X820182Y-1147698D01*
X820182Y-1147698D02*
X829705Y-1157222D01*
X829705Y-1157222D02*
X839229Y-1176270D01*
X839229Y-1176270D02*
X839229Y-1223889D01*
X839229Y-1223889D02*
X829705Y-1242936D01*
X829705Y-1242936D02*
X820182Y-1252460D01*
X820182Y-1252460D02*
X801134Y-1261984D01*
X801134Y-1261984D02*
X753515Y-1261984D01*
X753515Y-1261984D02*
X734467Y-1252460D01*
X734467Y-1252460D02*
X724943Y-1242936D01*
X963039Y-1061984D02*
X982086Y-1061984D01*
X982086Y-1061984D02*
X1001134Y-1071508D01*
X1001134Y-1071508D02*
X1010658Y-1081031D01*
X1010658Y-1081031D02*
X1020182Y-1100079D01*
X1020182Y-1100079D02*
X1029705Y-1138174D01*
X1029705Y-1138174D02*
X1029705Y-1185793D01*
X1029705Y-1185793D02*
X1020182Y-1223889D01*
X1020182Y-1223889D02*
X1010658Y-1242936D01*
X1010658Y-1242936D02*
X1001134Y-1252460D01*
X1001134Y-1252460D02*
X982086Y-1261984D01*
X982086Y-1261984D02*
X963039Y-1261984D01*
X963039Y-1261984D02*
X943991Y-1252460D01*
X943991Y-1252460D02*
X934467Y-1242936D01*
X934467Y-1242936D02*
X924943Y-1223889D01*
X924943Y-1223889D02*
X915420Y-1185793D01*
X915420Y-1185793D02*
X915420Y-1138174D01*
X915420Y-1138174D02*
X924943Y-1100079D01*
X924943Y-1100079D02*
X934467Y-1081031D01*
X934467Y-1081031D02*
X943991Y-1071508D01*
X943991Y-1071508D02*
X963039Y-1061984D01*
X1115420Y-1261984D02*
X1115420Y-1128650D01*
X1115420Y-1147698D02*
X1124944Y-1138174D01*
X1124944Y-1138174D02*
X1143991Y-1128650D01*
X1143991Y-1128650D02*
X1172563Y-1128650D01*
X1172563Y-1128650D02*
X1191610Y-1138174D01*
X1191610Y-1138174D02*
X1201134Y-1157222D01*
X1201134Y-1157222D02*
X1201134Y-1261984D01*
X1201134Y-1157222D02*
X1210658Y-1138174D01*
X1210658Y-1138174D02*
X1229705Y-1128650D01*
X1229705Y-1128650D02*
X1258277Y-1128650D01*
X1258277Y-1128650D02*
X1277325Y-1138174D01*
X1277325Y-1138174D02*
X1286848Y-1157222D01*
X1286848Y-1157222D02*
X1286848Y-1261984D01*
X1382086Y-1261984D02*
X1382086Y-1128650D01*
X1382086Y-1147698D02*
X1391610Y-1138174D01*
X1391610Y-1138174D02*
X1410658Y-1128650D01*
X1410658Y-1128650D02*
X1439229Y-1128650D01*
X1439229Y-1128650D02*
X1458277Y-1138174D01*
X1458277Y-1138174D02*
X1467801Y-1157222D01*
X1467801Y-1157222D02*
X1467801Y-1261984D01*
X1467801Y-1157222D02*
X1477324Y-1138174D01*
X1477324Y-1138174D02*
X1496372Y-1128650D01*
X1496372Y-1128650D02*
X1524943Y-1128650D01*
X1524943Y-1128650D02*
X1543991Y-1138174D01*
X1543991Y-1138174D02*
X1553515Y-1157222D01*
X1553515Y-1157222D02*
X1553515Y-1261984D01*
X1943991Y-1052460D02*
X1772563Y-1309603D01*
X2201134Y-1061984D02*
X2220182Y-1061984D01*
X2220182Y-1061984D02*
X2239229Y-1071508D01*
X2239229Y-1071508D02*
X2248753Y-1081031D01*
X2248753Y-1081031D02*
X2258277Y-1100079D01*
X2258277Y-1100079D02*
X2267801Y-1138174D01*
X2267801Y-1138174D02*
X2267801Y-1185793D01*
X2267801Y-1185793D02*
X2258277Y-1223889D01*
X2258277Y-1223889D02*
X2248753Y-1242936D01*
X2248753Y-1242936D02*
X2239229Y-1252460D01*
X2239229Y-1252460D02*
X2220182Y-1261984D01*
X2220182Y-1261984D02*
X2201134Y-1261984D01*
X2201134Y-1261984D02*
X2182087Y-1252460D01*
X2182087Y-1252460D02*
X2172563Y-1242936D01*
X2172563Y-1242936D02*
X2163039Y-1223889D01*
X2163039Y-1223889D02*
X2153515Y-1185793D01*
X2153515Y-1185793D02*
X2153515Y-1138174D01*
X2153515Y-1138174D02*
X2163039Y-1100079D01*
X2163039Y-1100079D02*
X2172563Y-1081031D01*
X2172563Y-1081031D02*
X2182087Y-1071508D01*
X2182087Y-1071508D02*
X2201134Y-1061984D01*
X2353515Y-1242936D02*
X2363039Y-1252460D01*
X2363039Y-1252460D02*
X2353515Y-1261984D01*
X2353515Y-1261984D02*
X2343991Y-1252460D01*
X2343991Y-1252460D02*
X2353515Y-1242936D01*
X2353515Y-1242936D02*
X2353515Y-1261984D01*
X2486848Y-1061984D02*
X2505896Y-1061984D01*
X2505896Y-1061984D02*
X2524944Y-1071508D01*
X2524944Y-1071508D02*
X2534468Y-1081031D01*
X2534468Y-1081031D02*
X2543991Y-1100079D01*
X2543991Y-1100079D02*
X2553515Y-1138174D01*
X2553515Y-1138174D02*
X2553515Y-1185793D01*
X2553515Y-1185793D02*
X2543991Y-1223889D01*
X2543991Y-1223889D02*
X2534468Y-1242936D01*
X2534468Y-1242936D02*
X2524944Y-1252460D01*
X2524944Y-1252460D02*
X2505896Y-1261984D01*
X2505896Y-1261984D02*
X2486848Y-1261984D01*
X2486848Y-1261984D02*
X2467801Y-1252460D01*
X2467801Y-1252460D02*
X2458277Y-1242936D01*
X2458277Y-1242936D02*
X2448753Y-1223889D01*
X2448753Y-1223889D02*
X2439229Y-1185793D01*
X2439229Y-1185793D02*
X2439229Y-1138174D01*
X2439229Y-1138174D02*
X2448753Y-1100079D01*
X2448753Y-1100079D02*
X2458277Y-1081031D01*
X2458277Y-1081031D02*
X2467801Y-1071508D01*
X2467801Y-1071508D02*
X2486848Y-1061984D01*
X2667801Y-1147698D02*
X2648753Y-1138174D01*
X2648753Y-1138174D02*
X2639229Y-1128650D01*
X2639229Y-1128650D02*
X2629706Y-1109603D01*
X2629706Y-1109603D02*
X2629706Y-1100079D01*
X2629706Y-1100079D02*
X2639229Y-1081031D01*
X2639229Y-1081031D02*
X2648753Y-1071508D01*
X2648753Y-1071508D02*
X2667801Y-1061984D01*
X2667801Y-1061984D02*
X2705896Y-1061984D01*
X2705896Y-1061984D02*
X2724944Y-1071508D01*
X2724944Y-1071508D02*
X2734468Y-1081031D01*
X2734468Y-1081031D02*
X2743991Y-1100079D01*
X2743991Y-1100079D02*
X2743991Y-1109603D01*
X2743991Y-1109603D02*
X2734468Y-1128650D01*
X2734468Y-1128650D02*
X2724944Y-1138174D01*
X2724944Y-1138174D02*
X2705896Y-1147698D01*
X2705896Y-1147698D02*
X2667801Y-1147698D01*
X2667801Y-1147698D02*
X2648753Y-1157222D01*
X2648753Y-1157222D02*
X2639229Y-1166746D01*
X2639229Y-1166746D02*
X2629706Y-1185793D01*
X2629706Y-1185793D02*
X2629706Y-1223889D01*
X2629706Y-1223889D02*
X2639229Y-1242936D01*
X2639229Y-1242936D02*
X2648753Y-1252460D01*
X2648753Y-1252460D02*
X2667801Y-1261984D01*
X2667801Y-1261984D02*
X2705896Y-1261984D01*
X2705896Y-1261984D02*
X2724944Y-1252460D01*
X2724944Y-1252460D02*
X2734468Y-1242936D01*
X2734468Y-1242936D02*
X2743991Y-1223889D01*
X2743991Y-1223889D02*
X2743991Y-1185793D01*
X2743991Y-1185793D02*
X2734468Y-1166746D01*
X2734468Y-1166746D02*
X2724944Y-1157222D01*
X2724944Y-1157222D02*
X2705896Y-1147698D01*
X2867801Y-1061984D02*
X2886848Y-1061984D01*
X2886848Y-1061984D02*
X2905896Y-1071508D01*
X2905896Y-1071508D02*
X2915420Y-1081031D01*
X2915420Y-1081031D02*
X2924944Y-1100079D01*
X2924944Y-1100079D02*
X2934467Y-1138174D01*
X2934467Y-1138174D02*
X2934467Y-1185793D01*
X2934467Y-1185793D02*
X2924944Y-1223889D01*
X2924944Y-1223889D02*
X2915420Y-1242936D01*
X2915420Y-1242936D02*
X2905896Y-1252460D01*
X2905896Y-1252460D02*
X2886848Y-1261984D01*
X2886848Y-1261984D02*
X2867801Y-1261984D01*
X2867801Y-1261984D02*
X2848753Y-1252460D01*
X2848753Y-1252460D02*
X2839229Y-1242936D01*
X2839229Y-1242936D02*
X2829706Y-1223889D01*
X2829706Y-1223889D02*
X2820182Y-1185793D01*
X2820182Y-1185793D02*
X2820182Y-1138174D01*
X2820182Y-1138174D02*
X2829706Y-1100079D01*
X2829706Y-1100079D02*
X2839229Y-1081031D01*
X2839229Y-1081031D02*
X2848753Y-1071508D01*
X2848753Y-1071508D02*
X2867801Y-1061984D01*
X3001134Y-1061984D02*
X3134467Y-1061984D01*
X3134467Y-1061984D02*
X3048753Y-1261984D01*
X3201134Y-1061984D02*
X3201134Y-1100079D01*
X3277325Y-1061984D02*
X3277325Y-1100079D01*
X3572563Y-1338174D02*
X3563039Y-1328650D01*
X3563039Y-1328650D02*
X3543991Y-1300079D01*
X3543991Y-1300079D02*
X3534468Y-1281031D01*
X3534468Y-1281031D02*
X3524944Y-1252460D01*
X3524944Y-1252460D02*
X3515420Y-1204841D01*
X3515420Y-1204841D02*
X3515420Y-1166746D01*
X3515420Y-1166746D02*
X3524944Y-1119127D01*
X3524944Y-1119127D02*
X3534468Y-1090555D01*
X3534468Y-1090555D02*
X3543991Y-1071508D01*
X3543991Y-1071508D02*
X3563039Y-1042936D01*
X3563039Y-1042936D02*
X3572563Y-1033412D01*
X3629706Y-1061984D02*
X3753515Y-1061984D01*
X3753515Y-1061984D02*
X3686848Y-1138174D01*
X3686848Y-1138174D02*
X3715420Y-1138174D01*
X3715420Y-1138174D02*
X3734468Y-1147698D01*
X3734468Y-1147698D02*
X3743991Y-1157222D01*
X3743991Y-1157222D02*
X3753515Y-1176270D01*
X3753515Y-1176270D02*
X3753515Y-1223889D01*
X3753515Y-1223889D02*
X3743991Y-1242936D01*
X3743991Y-1242936D02*
X3734468Y-1252460D01*
X3734468Y-1252460D02*
X3715420Y-1261984D01*
X3715420Y-1261984D02*
X3658277Y-1261984D01*
X3658277Y-1261984D02*
X3639229Y-1252460D01*
X3639229Y-1252460D02*
X3629706Y-1242936D01*
X3829706Y-1081031D02*
X3839229Y-1071508D01*
X3839229Y-1071508D02*
X3858277Y-1061984D01*
X3858277Y-1061984D02*
X3905896Y-1061984D01*
X3905896Y-1061984D02*
X3924944Y-1071508D01*
X3924944Y-1071508D02*
X3934468Y-1081031D01*
X3934468Y-1081031D02*
X3943991Y-1100079D01*
X3943991Y-1100079D02*
X3943991Y-1119127D01*
X3943991Y-1119127D02*
X3934468Y-1147698D01*
X3934468Y-1147698D02*
X3820182Y-1261984D01*
X3820182Y-1261984D02*
X3943991Y-1261984D01*
X4182087Y-1261984D02*
X4182087Y-1061984D01*
X4267801Y-1261984D02*
X4267801Y-1157222D01*
X4267801Y-1157222D02*
X4258277Y-1138174D01*
X4258277Y-1138174D02*
X4239230Y-1128650D01*
X4239230Y-1128650D02*
X4210658Y-1128650D01*
X4210658Y-1128650D02*
X4191610Y-1138174D01*
X4191610Y-1138174D02*
X4182087Y-1147698D01*
X4391611Y-1261984D02*
X4372563Y-1252460D01*
X4372563Y-1252460D02*
X4363039Y-1242936D01*
X4363039Y-1242936D02*
X4353515Y-1223889D01*
X4353515Y-1223889D02*
X4353515Y-1166746D01*
X4353515Y-1166746D02*
X4363039Y-1147698D01*
X4363039Y-1147698D02*
X4372563Y-1138174D01*
X4372563Y-1138174D02*
X4391611Y-1128650D01*
X4391611Y-1128650D02*
X4420182Y-1128650D01*
X4420182Y-1128650D02*
X4439230Y-1138174D01*
X4439230Y-1138174D02*
X4448753Y-1147698D01*
X4448753Y-1147698D02*
X4458277Y-1166746D01*
X4458277Y-1166746D02*
X4458277Y-1223889D01*
X4458277Y-1223889D02*
X4448753Y-1242936D01*
X4448753Y-1242936D02*
X4439230Y-1252460D01*
X4439230Y-1252460D02*
X4420182Y-1261984D01*
X4420182Y-1261984D02*
X4391611Y-1261984D01*
X4572563Y-1261984D02*
X4553515Y-1252460D01*
X4553515Y-1252460D02*
X4543992Y-1233412D01*
X4543992Y-1233412D02*
X4543992Y-1061984D01*
X4724944Y-1252460D02*
X4705896Y-1261984D01*
X4705896Y-1261984D02*
X4667801Y-1261984D01*
X4667801Y-1261984D02*
X4648753Y-1252460D01*
X4648753Y-1252460D02*
X4639230Y-1233412D01*
X4639230Y-1233412D02*
X4639230Y-1157222D01*
X4639230Y-1157222D02*
X4648753Y-1138174D01*
X4648753Y-1138174D02*
X4667801Y-1128650D01*
X4667801Y-1128650D02*
X4705896Y-1128650D01*
X4705896Y-1128650D02*
X4724944Y-1138174D01*
X4724944Y-1138174D02*
X4734468Y-1157222D01*
X4734468Y-1157222D02*
X4734468Y-1176270D01*
X4734468Y-1176270D02*
X4639230Y-1195317D01*
X4810658Y-1252460D02*
X4829706Y-1261984D01*
X4829706Y-1261984D02*
X4867801Y-1261984D01*
X4867801Y-1261984D02*
X4886849Y-1252460D01*
X4886849Y-1252460D02*
X4896373Y-1233412D01*
X4896373Y-1233412D02*
X4896373Y-1223889D01*
X4896373Y-1223889D02*
X4886849Y-1204841D01*
X4886849Y-1204841D02*
X4867801Y-1195317D01*
X4867801Y-1195317D02*
X4839230Y-1195317D01*
X4839230Y-1195317D02*
X4820182Y-1185793D01*
X4820182Y-1185793D02*
X4810658Y-1166746D01*
X4810658Y-1166746D02*
X4810658Y-1157222D01*
X4810658Y-1157222D02*
X4820182Y-1138174D01*
X4820182Y-1138174D02*
X4839230Y-1128650D01*
X4839230Y-1128650D02*
X4867801Y-1128650D01*
X4867801Y-1128650D02*
X4886849Y-1138174D01*
X4963039Y-1338174D02*
X4972563Y-1328650D01*
X4972563Y-1328650D02*
X4991611Y-1300079D01*
X4991611Y-1300079D02*
X5001134Y-1281031D01*
X5001134Y-1281031D02*
X5010658Y-1252460D01*
X5010658Y-1252460D02*
X5020182Y-1204841D01*
X5020182Y-1204841D02*
X5020182Y-1166746D01*
X5020182Y-1166746D02*
X5010658Y-1119127D01*
X5010658Y-1119127D02*
X5001134Y-1090555D01*
X5001134Y-1090555D02*
X4991611Y-1071508D01*
X4991611Y-1071508D02*
X4972563Y-1042936D01*
X4972563Y-1042936D02*
X4963039Y-1033412D01*
X5324944Y-1338174D02*
X5315420Y-1328650D01*
X5315420Y-1328650D02*
X5296373Y-1300079D01*
X5296373Y-1300079D02*
X5286849Y-1281031D01*
X5286849Y-1281031D02*
X5277325Y-1252460D01*
X5277325Y-1252460D02*
X5267801Y-1204841D01*
X5267801Y-1204841D02*
X5267801Y-1166746D01*
X5267801Y-1166746D02*
X5277325Y-1119127D01*
X5277325Y-1119127D02*
X5286849Y-1090555D01*
X5286849Y-1090555D02*
X5296373Y-1071508D01*
X5296373Y-1071508D02*
X5315420Y-1042936D01*
X5315420Y-1042936D02*
X5324944Y-1033412D01*
X5401134Y-1128650D02*
X5401134Y-1261984D01*
X5401134Y-1147698D02*
X5410658Y-1138174D01*
X5410658Y-1138174D02*
X5429706Y-1128650D01*
X5429706Y-1128650D02*
X5458277Y-1128650D01*
X5458277Y-1128650D02*
X5477325Y-1138174D01*
X5477325Y-1138174D02*
X5486849Y-1157222D01*
X5486849Y-1157222D02*
X5486849Y-1261984D01*
X5610658Y-1261984D02*
X5591611Y-1252460D01*
X5591611Y-1252460D02*
X5582087Y-1242936D01*
X5582087Y-1242936D02*
X5572563Y-1223889D01*
X5572563Y-1223889D02*
X5572563Y-1166746D01*
X5572563Y-1166746D02*
X5582087Y-1147698D01*
X5582087Y-1147698D02*
X5591611Y-1138174D01*
X5591611Y-1138174D02*
X5610658Y-1128650D01*
X5610658Y-1128650D02*
X5639230Y-1128650D01*
X5639230Y-1128650D02*
X5658277Y-1138174D01*
X5658277Y-1138174D02*
X5667801Y-1147698D01*
X5667801Y-1147698D02*
X5677325Y-1166746D01*
X5677325Y-1166746D02*
X5677325Y-1223889D01*
X5677325Y-1223889D02*
X5667801Y-1242936D01*
X5667801Y-1242936D02*
X5658277Y-1252460D01*
X5658277Y-1252460D02*
X5639230Y-1261984D01*
X5639230Y-1261984D02*
X5610658Y-1261984D01*
X5734468Y-1128650D02*
X5810658Y-1128650D01*
X5763039Y-1061984D02*
X5763039Y-1233412D01*
X5763039Y-1233412D02*
X5772563Y-1252460D01*
X5772563Y-1252460D02*
X5791611Y-1261984D01*
X5791611Y-1261984D02*
X5810658Y-1261984D01*
X6029706Y-1128650D02*
X6029706Y-1328650D01*
X6029706Y-1138174D02*
X6048753Y-1128650D01*
X6048753Y-1128650D02*
X6086849Y-1128650D01*
X6086849Y-1128650D02*
X6105896Y-1138174D01*
X6105896Y-1138174D02*
X6115420Y-1147698D01*
X6115420Y-1147698D02*
X6124944Y-1166746D01*
X6124944Y-1166746D02*
X6124944Y-1223889D01*
X6124944Y-1223889D02*
X6115420Y-1242936D01*
X6115420Y-1242936D02*
X6105896Y-1252460D01*
X6105896Y-1252460D02*
X6086849Y-1261984D01*
X6086849Y-1261984D02*
X6048753Y-1261984D01*
X6048753Y-1261984D02*
X6029706Y-1252460D01*
X6239230Y-1261984D02*
X6220182Y-1252460D01*
X6220182Y-1252460D02*
X6210658Y-1233412D01*
X6210658Y-1233412D02*
X6210658Y-1061984D01*
X6401134Y-1261984D02*
X6401134Y-1157222D01*
X6401134Y-1157222D02*
X6391611Y-1138174D01*
X6391611Y-1138174D02*
X6372563Y-1128650D01*
X6372563Y-1128650D02*
X6334468Y-1128650D01*
X6334468Y-1128650D02*
X6315420Y-1138174D01*
X6401134Y-1252460D02*
X6382087Y-1261984D01*
X6382087Y-1261984D02*
X6334468Y-1261984D01*
X6334468Y-1261984D02*
X6315420Y-1252460D01*
X6315420Y-1252460D02*
X6305896Y-1233412D01*
X6305896Y-1233412D02*
X6305896Y-1214365D01*
X6305896Y-1214365D02*
X6315420Y-1195317D01*
X6315420Y-1195317D02*
X6334468Y-1185793D01*
X6334468Y-1185793D02*
X6382087Y-1185793D01*
X6382087Y-1185793D02*
X6401134Y-1176270D01*
X6467801Y-1128650D02*
X6543992Y-1128650D01*
X6496373Y-1061984D02*
X6496373Y-1233412D01*
X6496373Y-1233412D02*
X6505896Y-1252460D01*
X6505896Y-1252460D02*
X6524944Y-1261984D01*
X6524944Y-1261984D02*
X6543992Y-1261984D01*
X6686849Y-1252460D02*
X6667801Y-1261984D01*
X6667801Y-1261984D02*
X6629706Y-1261984D01*
X6629706Y-1261984D02*
X6610658Y-1252460D01*
X6610658Y-1252460D02*
X6601134Y-1233412D01*
X6601134Y-1233412D02*
X6601134Y-1157222D01*
X6601134Y-1157222D02*
X6610658Y-1138174D01*
X6610658Y-1138174D02*
X6629706Y-1128650D01*
X6629706Y-1128650D02*
X6667801Y-1128650D01*
X6667801Y-1128650D02*
X6686849Y-1138174D01*
X6686849Y-1138174D02*
X6696373Y-1157222D01*
X6696373Y-1157222D02*
X6696373Y-1176270D01*
X6696373Y-1176270D02*
X6601134Y-1195317D01*
X6867801Y-1261984D02*
X6867801Y-1061984D01*
X6867801Y-1252460D02*
X6848754Y-1261984D01*
X6848754Y-1261984D02*
X6810658Y-1261984D01*
X6810658Y-1261984D02*
X6791611Y-1252460D01*
X6791611Y-1252460D02*
X6782087Y-1242936D01*
X6782087Y-1242936D02*
X6772563Y-1223889D01*
X6772563Y-1223889D02*
X6772563Y-1166746D01*
X6772563Y-1166746D02*
X6782087Y-1147698D01*
X6782087Y-1147698D02*
X6791611Y-1138174D01*
X6791611Y-1138174D02*
X6810658Y-1128650D01*
X6810658Y-1128650D02*
X6848754Y-1128650D01*
X6848754Y-1128650D02*
X6867801Y-1138174D01*
X6943992Y-1338174D02*
X6953515Y-1328650D01*
X6953515Y-1328650D02*
X6972563Y-1300079D01*
X6972563Y-1300079D02*
X6982087Y-1281031D01*
X6982087Y-1281031D02*
X6991611Y-1252460D01*
X6991611Y-1252460D02*
X7001134Y-1204841D01*
X7001134Y-1204841D02*
X7001134Y-1166746D01*
X7001134Y-1166746D02*
X6991611Y-1119127D01*
X6991611Y-1119127D02*
X6982087Y-1090555D01*
X6982087Y-1090555D02*
X6972563Y-1071508D01*
X6972563Y-1071508D02*
X6953515Y-1042936D01*
X6953515Y-1042936D02*
X6943992Y-1033412D01*
M02*
