%TF.GenerationSoftware,KiCad,Pcbnew,10.0.1*%
%TF.CreationDate,2026-05-08T14:51:55+05:30*%
%TF.ProjectId,X-Vision-HW-Panel,582d5669-7369-46f6-9e2d-48572d50616e,rev?*%
%TF.SameCoordinates,PX29f6300PY7de2900*%
%TF.FileFunction,Legend,Bot*%
%TF.FilePolarity,Positive*%
%FSLAX45Y45*%
G04 Gerber Fmt 4.5, Leading zero omitted, Abs format (unit mm)*
G04 Created by KiCad (PCBNEW 10.0.1) date 2026-05-08 14:51:55*
%MOMM*%
%LPD*%
G01*
G04 APERTURE LIST*
%ADD10C,0.200000*%
%ADD11C,0.150000*%
%ADD12C,0.160000*%
%ADD13C,0.100000*%
G04 APERTURE END LIST*
D10*
X731908Y6087223D02*
X731908Y6041509D01*
X811908Y6064366D02*
X731908Y6064366D01*
X731908Y5999604D02*
X731908Y5984366D01*
X731908Y5984366D02*
X735718Y5976747D01*
X735718Y5976747D02*
X743337Y5969128D01*
X743337Y5969128D02*
X758575Y5965318D01*
X758575Y5965318D02*
X785241Y5965318D01*
X785241Y5965318D02*
X800479Y5969128D01*
X800479Y5969128D02*
X808099Y5976747D01*
X808099Y5976747D02*
X811908Y5984366D01*
X811908Y5984366D02*
X811908Y5999604D01*
X811908Y5999604D02*
X808099Y6007223D01*
X808099Y6007223D02*
X800479Y6014842D01*
X800479Y6014842D02*
X785241Y6018652D01*
X785241Y6018652D02*
X758575Y6018652D01*
X758575Y6018652D02*
X743337Y6014842D01*
X743337Y6014842D02*
X735718Y6007223D01*
X735718Y6007223D02*
X731908Y5999604D01*
X811908Y5931033D02*
X731908Y5931033D01*
X731908Y5931033D02*
X731908Y5900556D01*
X731908Y5900556D02*
X735718Y5892937D01*
X735718Y5892937D02*
X739527Y5889128D01*
X739527Y5889128D02*
X747146Y5885318D01*
X747146Y5885318D02*
X758575Y5885318D01*
X758575Y5885318D02*
X766194Y5889128D01*
X766194Y5889128D02*
X770003Y5892937D01*
X770003Y5892937D02*
X773813Y5900556D01*
X773813Y5900556D02*
X773813Y5931033D01*
X737169Y1687223D02*
X737169Y1641509D01*
X817169Y1664366D02*
X737169Y1664366D01*
X737169Y1599604D02*
X737169Y1584366D01*
X737169Y1584366D02*
X740979Y1576747D01*
X740979Y1576747D02*
X748598Y1569128D01*
X748598Y1569128D02*
X763836Y1565318D01*
X763836Y1565318D02*
X790503Y1565318D01*
X790503Y1565318D02*
X805741Y1569128D01*
X805741Y1569128D02*
X813360Y1576747D01*
X813360Y1576747D02*
X817169Y1584366D01*
X817169Y1584366D02*
X817169Y1599604D01*
X817169Y1599604D02*
X813360Y1607223D01*
X813360Y1607223D02*
X805741Y1614842D01*
X805741Y1614842D02*
X790503Y1618652D01*
X790503Y1618652D02*
X763836Y1618652D01*
X763836Y1618652D02*
X748598Y1614842D01*
X748598Y1614842D02*
X740979Y1607223D01*
X740979Y1607223D02*
X737169Y1599604D01*
X817169Y1531033D02*
X737169Y1531033D01*
X737169Y1531033D02*
X737169Y1500556D01*
X737169Y1500556D02*
X740979Y1492937D01*
X740979Y1492937D02*
X744788Y1489128D01*
X744788Y1489128D02*
X752408Y1485318D01*
X752408Y1485318D02*
X763836Y1485318D01*
X763836Y1485318D02*
X771455Y1489128D01*
X771455Y1489128D02*
X775265Y1492937D01*
X775265Y1492937D02*
X779074Y1500556D01*
X779074Y1500556D02*
X779074Y1531033D01*
X739169Y3889223D02*
X739169Y3843509D01*
X819169Y3866366D02*
X739169Y3866366D01*
X739169Y3801604D02*
X739169Y3786366D01*
X739169Y3786366D02*
X742979Y3778747D01*
X742979Y3778747D02*
X750598Y3771128D01*
X750598Y3771128D02*
X765836Y3767318D01*
X765836Y3767318D02*
X792503Y3767318D01*
X792503Y3767318D02*
X807741Y3771128D01*
X807741Y3771128D02*
X815360Y3778747D01*
X815360Y3778747D02*
X819169Y3786366D01*
X819169Y3786366D02*
X819169Y3801604D01*
X819169Y3801604D02*
X815360Y3809223D01*
X815360Y3809223D02*
X807741Y3816842D01*
X807741Y3816842D02*
X792503Y3820652D01*
X792503Y3820652D02*
X765836Y3820652D01*
X765836Y3820652D02*
X750598Y3816842D01*
X750598Y3816842D02*
X742979Y3809223D01*
X742979Y3809223D02*
X739169Y3801604D01*
X819169Y3733033D02*
X739169Y3733033D01*
X739169Y3733033D02*
X739169Y3702556D01*
X739169Y3702556D02*
X742979Y3694937D01*
X742979Y3694937D02*
X746788Y3691128D01*
X746788Y3691128D02*
X754408Y3687318D01*
X754408Y3687318D02*
X765836Y3687318D01*
X765836Y3687318D02*
X773455Y3691128D01*
X773455Y3691128D02*
X777265Y3694937D01*
X777265Y3694937D02*
X781074Y3702556D01*
X781074Y3702556D02*
X781074Y3733033D01*
X745045Y8291223D02*
X745045Y8245509D01*
X825045Y8268366D02*
X745045Y8268366D01*
X745045Y8203604D02*
X745045Y8188366D01*
X745045Y8188366D02*
X748854Y8180747D01*
X748854Y8180747D02*
X756473Y8173128D01*
X756473Y8173128D02*
X771711Y8169318D01*
X771711Y8169318D02*
X798378Y8169318D01*
X798378Y8169318D02*
X813616Y8173128D01*
X813616Y8173128D02*
X821235Y8180747D01*
X821235Y8180747D02*
X825045Y8188366D01*
X825045Y8188366D02*
X825045Y8203604D01*
X825045Y8203604D02*
X821235Y8211223D01*
X821235Y8211223D02*
X813616Y8218842D01*
X813616Y8218842D02*
X798378Y8222652D01*
X798378Y8222652D02*
X771711Y8222652D01*
X771711Y8222652D02*
X756473Y8218842D01*
X756473Y8218842D02*
X748854Y8211223D01*
X748854Y8211223D02*
X745045Y8203604D01*
X825045Y8135033D02*
X745045Y8135033D01*
X745045Y8135033D02*
X745045Y8104556D01*
X745045Y8104556D02*
X748854Y8096937D01*
X748854Y8096937D02*
X752664Y8093128D01*
X752664Y8093128D02*
X760283Y8089318D01*
X760283Y8089318D02*
X771711Y8089318D01*
X771711Y8089318D02*
X779330Y8093128D01*
X779330Y8093128D02*
X783140Y8096937D01*
X783140Y8096937D02*
X786949Y8104556D01*
X786949Y8104556D02*
X786949Y8135033D01*
X2937169Y6087223D02*
X2937169Y6041509D01*
X3017169Y6064366D02*
X2937169Y6064366D01*
X2937169Y5999604D02*
X2937169Y5984366D01*
X2937169Y5984366D02*
X2940979Y5976747D01*
X2940979Y5976747D02*
X2948598Y5969128D01*
X2948598Y5969128D02*
X2963836Y5965318D01*
X2963836Y5965318D02*
X2990503Y5965318D01*
X2990503Y5965318D02*
X3005741Y5969128D01*
X3005741Y5969128D02*
X3013360Y5976747D01*
X3013360Y5976747D02*
X3017169Y5984366D01*
X3017169Y5984366D02*
X3017169Y5999604D01*
X3017169Y5999604D02*
X3013360Y6007223D01*
X3013360Y6007223D02*
X3005741Y6014842D01*
X3005741Y6014842D02*
X2990503Y6018652D01*
X2990503Y6018652D02*
X2963836Y6018652D01*
X2963836Y6018652D02*
X2948598Y6014842D01*
X2948598Y6014842D02*
X2940979Y6007223D01*
X2940979Y6007223D02*
X2937169Y5999604D01*
X3017169Y5931033D02*
X2937169Y5931033D01*
X2937169Y5931033D02*
X2937169Y5900556D01*
X2937169Y5900556D02*
X2940979Y5892937D01*
X2940979Y5892937D02*
X2944788Y5889128D01*
X2944788Y5889128D02*
X2952408Y5885318D01*
X2952408Y5885318D02*
X2963836Y5885318D01*
X2963836Y5885318D02*
X2971455Y5889128D01*
X2971455Y5889128D02*
X2975265Y5892937D01*
X2975265Y5892937D02*
X2979074Y5900556D01*
X2979074Y5900556D02*
X2979074Y5931033D01*
X2939169Y8289223D02*
X2939169Y8243509D01*
X3019169Y8266366D02*
X2939169Y8266366D01*
X2939169Y8201604D02*
X2939169Y8186366D01*
X2939169Y8186366D02*
X2942979Y8178747D01*
X2942979Y8178747D02*
X2950598Y8171128D01*
X2950598Y8171128D02*
X2965836Y8167318D01*
X2965836Y8167318D02*
X2992503Y8167318D01*
X2992503Y8167318D02*
X3007741Y8171128D01*
X3007741Y8171128D02*
X3015360Y8178747D01*
X3015360Y8178747D02*
X3019169Y8186366D01*
X3019169Y8186366D02*
X3019169Y8201604D01*
X3019169Y8201604D02*
X3015360Y8209223D01*
X3015360Y8209223D02*
X3007741Y8216842D01*
X3007741Y8216842D02*
X2992503Y8220652D01*
X2992503Y8220652D02*
X2965836Y8220652D01*
X2965836Y8220652D02*
X2950598Y8216842D01*
X2950598Y8216842D02*
X2942979Y8209223D01*
X2942979Y8209223D02*
X2939169Y8201604D01*
X3019169Y8133033D02*
X2939169Y8133033D01*
X2939169Y8133033D02*
X2939169Y8102556D01*
X2939169Y8102556D02*
X2942979Y8094937D01*
X2942979Y8094937D02*
X2946788Y8091128D01*
X2946788Y8091128D02*
X2954408Y8087318D01*
X2954408Y8087318D02*
X2965836Y8087318D01*
X2965836Y8087318D02*
X2973455Y8091128D01*
X2973455Y8091128D02*
X2977265Y8094937D01*
X2977265Y8094937D02*
X2981074Y8102556D01*
X2981074Y8102556D02*
X2981074Y8133033D01*
X2939169Y3889223D02*
X2939169Y3843509D01*
X3019169Y3866366D02*
X2939169Y3866366D01*
X2939169Y3801604D02*
X2939169Y3786366D01*
X2939169Y3786366D02*
X2942979Y3778747D01*
X2942979Y3778747D02*
X2950598Y3771128D01*
X2950598Y3771128D02*
X2965836Y3767318D01*
X2965836Y3767318D02*
X2992503Y3767318D01*
X2992503Y3767318D02*
X3007741Y3771128D01*
X3007741Y3771128D02*
X3015360Y3778747D01*
X3015360Y3778747D02*
X3019169Y3786366D01*
X3019169Y3786366D02*
X3019169Y3801604D01*
X3019169Y3801604D02*
X3015360Y3809223D01*
X3015360Y3809223D02*
X3007741Y3816842D01*
X3007741Y3816842D02*
X2992503Y3820652D01*
X2992503Y3820652D02*
X2965836Y3820652D01*
X2965836Y3820652D02*
X2950598Y3816842D01*
X2950598Y3816842D02*
X2942979Y3809223D01*
X2942979Y3809223D02*
X2939169Y3801604D01*
X3019169Y3733033D02*
X2939169Y3733033D01*
X2939169Y3733033D02*
X2939169Y3702556D01*
X2939169Y3702556D02*
X2942979Y3694937D01*
X2942979Y3694937D02*
X2946788Y3691128D01*
X2946788Y3691128D02*
X2954408Y3687318D01*
X2954408Y3687318D02*
X2965836Y3687318D01*
X2965836Y3687318D02*
X2973455Y3691128D01*
X2973455Y3691128D02*
X2977265Y3694937D01*
X2977265Y3694937D02*
X2981074Y3702556D01*
X2981074Y3702556D02*
X2981074Y3733033D01*
X2939169Y1689223D02*
X2939169Y1643509D01*
X3019169Y1666366D02*
X2939169Y1666366D01*
X2939169Y1601604D02*
X2939169Y1586366D01*
X2939169Y1586366D02*
X2942979Y1578747D01*
X2942979Y1578747D02*
X2950598Y1571128D01*
X2950598Y1571128D02*
X2965836Y1567318D01*
X2965836Y1567318D02*
X2992503Y1567318D01*
X2992503Y1567318D02*
X3007741Y1571128D01*
X3007741Y1571128D02*
X3015360Y1578747D01*
X3015360Y1578747D02*
X3019169Y1586366D01*
X3019169Y1586366D02*
X3019169Y1601604D01*
X3019169Y1601604D02*
X3015360Y1609223D01*
X3015360Y1609223D02*
X3007741Y1616842D01*
X3007741Y1616842D02*
X2992503Y1620652D01*
X2992503Y1620652D02*
X2965836Y1620652D01*
X2965836Y1620652D02*
X2950598Y1616842D01*
X2950598Y1616842D02*
X2942979Y1609223D01*
X2942979Y1609223D02*
X2939169Y1601604D01*
X3019169Y1533033D02*
X2939169Y1533033D01*
X2939169Y1533033D02*
X2939169Y1502556D01*
X2939169Y1502556D02*
X2942979Y1494937D01*
X2942979Y1494937D02*
X2946788Y1491128D01*
X2946788Y1491128D02*
X2954408Y1487318D01*
X2954408Y1487318D02*
X2965836Y1487318D01*
X2965836Y1487318D02*
X2973455Y1491128D01*
X2973455Y1491128D02*
X2977265Y1494937D01*
X2977265Y1494937D02*
X2981074Y1502556D01*
X2981074Y1502556D02*
X2981074Y1533033D01*
X5138471Y6089223D02*
X5138471Y6043509D01*
X5218471Y6066366D02*
X5138471Y6066366D01*
X5138471Y6001604D02*
X5138471Y5986366D01*
X5138471Y5986366D02*
X5142281Y5978747D01*
X5142281Y5978747D02*
X5149900Y5971128D01*
X5149900Y5971128D02*
X5165138Y5967318D01*
X5165138Y5967318D02*
X5191805Y5967318D01*
X5191805Y5967318D02*
X5207043Y5971128D01*
X5207043Y5971128D02*
X5214662Y5978747D01*
X5214662Y5978747D02*
X5218471Y5986366D01*
X5218471Y5986366D02*
X5218471Y6001604D01*
X5218471Y6001604D02*
X5214662Y6009223D01*
X5214662Y6009223D02*
X5207043Y6016842D01*
X5207043Y6016842D02*
X5191805Y6020652D01*
X5191805Y6020652D02*
X5165138Y6020652D01*
X5165138Y6020652D02*
X5149900Y6016842D01*
X5149900Y6016842D02*
X5142281Y6009223D01*
X5142281Y6009223D02*
X5138471Y6001604D01*
X5218471Y5933033D02*
X5138471Y5933033D01*
X5138471Y5933033D02*
X5138471Y5902556D01*
X5138471Y5902556D02*
X5142281Y5894937D01*
X5142281Y5894937D02*
X5146090Y5891128D01*
X5146090Y5891128D02*
X5153710Y5887318D01*
X5153710Y5887318D02*
X5165138Y5887318D01*
X5165138Y5887318D02*
X5172757Y5891128D01*
X5172757Y5891128D02*
X5176567Y5894937D01*
X5176567Y5894937D02*
X5180376Y5902556D01*
X5180376Y5902556D02*
X5180376Y5933033D01*
X5139124Y1687223D02*
X5139124Y1641509D01*
X5219124Y1664366D02*
X5139124Y1664366D01*
X5139124Y1599604D02*
X5139124Y1584366D01*
X5139124Y1584366D02*
X5142933Y1576747D01*
X5142933Y1576747D02*
X5150552Y1569128D01*
X5150552Y1569128D02*
X5165790Y1565318D01*
X5165790Y1565318D02*
X5192457Y1565318D01*
X5192457Y1565318D02*
X5207695Y1569128D01*
X5207695Y1569128D02*
X5215314Y1576747D01*
X5215314Y1576747D02*
X5219124Y1584366D01*
X5219124Y1584366D02*
X5219124Y1599604D01*
X5219124Y1599604D02*
X5215314Y1607223D01*
X5215314Y1607223D02*
X5207695Y1614842D01*
X5207695Y1614842D02*
X5192457Y1618652D01*
X5192457Y1618652D02*
X5165790Y1618652D01*
X5165790Y1618652D02*
X5150552Y1614842D01*
X5150552Y1614842D02*
X5142933Y1607223D01*
X5142933Y1607223D02*
X5139124Y1599604D01*
X5219124Y1531033D02*
X5139124Y1531033D01*
X5139124Y1531033D02*
X5139124Y1500556D01*
X5139124Y1500556D02*
X5142933Y1492937D01*
X5142933Y1492937D02*
X5146743Y1489128D01*
X5146743Y1489128D02*
X5154362Y1485318D01*
X5154362Y1485318D02*
X5165790Y1485318D01*
X5165790Y1485318D02*
X5173410Y1489128D01*
X5173410Y1489128D02*
X5177219Y1492937D01*
X5177219Y1492937D02*
X5181029Y1500556D01*
X5181029Y1500556D02*
X5181029Y1531033D01*
X5139170Y8292223D02*
X5139170Y8246509D01*
X5219170Y8269366D02*
X5139170Y8269366D01*
X5139170Y8204604D02*
X5139170Y8189366D01*
X5139170Y8189366D02*
X5142979Y8181747D01*
X5142979Y8181747D02*
X5150598Y8174128D01*
X5150598Y8174128D02*
X5165836Y8170318D01*
X5165836Y8170318D02*
X5192503Y8170318D01*
X5192503Y8170318D02*
X5207741Y8174128D01*
X5207741Y8174128D02*
X5215360Y8181747D01*
X5215360Y8181747D02*
X5219170Y8189366D01*
X5219170Y8189366D02*
X5219170Y8204604D01*
X5219170Y8204604D02*
X5215360Y8212223D01*
X5215360Y8212223D02*
X5207741Y8219842D01*
X5207741Y8219842D02*
X5192503Y8223652D01*
X5192503Y8223652D02*
X5165836Y8223652D01*
X5165836Y8223652D02*
X5150598Y8219842D01*
X5150598Y8219842D02*
X5142979Y8212223D01*
X5142979Y8212223D02*
X5139170Y8204604D01*
X5219170Y8136033D02*
X5139170Y8136033D01*
X5139170Y8136033D02*
X5139170Y8105556D01*
X5139170Y8105556D02*
X5142979Y8097937D01*
X5142979Y8097937D02*
X5146789Y8094128D01*
X5146789Y8094128D02*
X5154408Y8090318D01*
X5154408Y8090318D02*
X5165836Y8090318D01*
X5165836Y8090318D02*
X5173455Y8094128D01*
X5173455Y8094128D02*
X5177265Y8097937D01*
X5177265Y8097937D02*
X5181074Y8105556D01*
X5181074Y8105556D02*
X5181074Y8136033D01*
X5139170Y3889223D02*
X5139170Y3843509D01*
X5219170Y3866366D02*
X5139170Y3866366D01*
X5139170Y3801604D02*
X5139170Y3786366D01*
X5139170Y3786366D02*
X5142979Y3778747D01*
X5142979Y3778747D02*
X5150598Y3771128D01*
X5150598Y3771128D02*
X5165836Y3767318D01*
X5165836Y3767318D02*
X5192503Y3767318D01*
X5192503Y3767318D02*
X5207741Y3771128D01*
X5207741Y3771128D02*
X5215360Y3778747D01*
X5215360Y3778747D02*
X5219170Y3786366D01*
X5219170Y3786366D02*
X5219170Y3801604D01*
X5219170Y3801604D02*
X5215360Y3809223D01*
X5215360Y3809223D02*
X5207741Y3816842D01*
X5207741Y3816842D02*
X5192503Y3820652D01*
X5192503Y3820652D02*
X5165836Y3820652D01*
X5165836Y3820652D02*
X5150598Y3816842D01*
X5150598Y3816842D02*
X5142979Y3809223D01*
X5142979Y3809223D02*
X5139170Y3801604D01*
X5219170Y3733033D02*
X5139170Y3733033D01*
X5139170Y3733033D02*
X5139170Y3702556D01*
X5139170Y3702556D02*
X5142979Y3694937D01*
X5142979Y3694937D02*
X5146789Y3691128D01*
X5146789Y3691128D02*
X5154408Y3687318D01*
X5154408Y3687318D02*
X5165836Y3687318D01*
X5165836Y3687318D02*
X5173455Y3691128D01*
X5173455Y3691128D02*
X5177265Y3694937D01*
X5177265Y3694937D02*
X5181074Y3702556D01*
X5181074Y3702556D02*
X5181074Y3733033D01*
X7339169Y8289223D02*
X7339169Y8243509D01*
X7419169Y8266366D02*
X7339169Y8266366D01*
X7339169Y8201604D02*
X7339169Y8186366D01*
X7339169Y8186366D02*
X7342979Y8178747D01*
X7342979Y8178747D02*
X7350598Y8171128D01*
X7350598Y8171128D02*
X7365836Y8167318D01*
X7365836Y8167318D02*
X7392503Y8167318D01*
X7392503Y8167318D02*
X7407741Y8171128D01*
X7407741Y8171128D02*
X7415360Y8178747D01*
X7415360Y8178747D02*
X7419169Y8186366D01*
X7419169Y8186366D02*
X7419169Y8201604D01*
X7419169Y8201604D02*
X7415360Y8209223D01*
X7415360Y8209223D02*
X7407741Y8216842D01*
X7407741Y8216842D02*
X7392503Y8220652D01*
X7392503Y8220652D02*
X7365836Y8220652D01*
X7365836Y8220652D02*
X7350598Y8216842D01*
X7350598Y8216842D02*
X7342979Y8209223D01*
X7342979Y8209223D02*
X7339169Y8201604D01*
X7419169Y8133033D02*
X7339169Y8133033D01*
X7339169Y8133033D02*
X7339169Y8102556D01*
X7339169Y8102556D02*
X7342979Y8094937D01*
X7342979Y8094937D02*
X7346788Y8091128D01*
X7346788Y8091128D02*
X7354408Y8087318D01*
X7354408Y8087318D02*
X7365836Y8087318D01*
X7365836Y8087318D02*
X7373455Y8091128D01*
X7373455Y8091128D02*
X7377265Y8094937D01*
X7377265Y8094937D02*
X7381074Y8102556D01*
X7381074Y8102556D02*
X7381074Y8133033D01*
X7339169Y6090088D02*
X7339169Y6044373D01*
X7419169Y6067230D02*
X7339169Y6067230D01*
X7339169Y6002468D02*
X7339169Y5987230D01*
X7339169Y5987230D02*
X7342979Y5979611D01*
X7342979Y5979611D02*
X7350598Y5971992D01*
X7350598Y5971992D02*
X7365836Y5968183D01*
X7365836Y5968183D02*
X7392503Y5968183D01*
X7392503Y5968183D02*
X7407741Y5971992D01*
X7407741Y5971992D02*
X7415360Y5979611D01*
X7415360Y5979611D02*
X7419169Y5987230D01*
X7419169Y5987230D02*
X7419169Y6002468D01*
X7419169Y6002468D02*
X7415360Y6010088D01*
X7415360Y6010088D02*
X7407741Y6017707D01*
X7407741Y6017707D02*
X7392503Y6021516D01*
X7392503Y6021516D02*
X7365836Y6021516D01*
X7365836Y6021516D02*
X7350598Y6017707D01*
X7350598Y6017707D02*
X7342979Y6010088D01*
X7342979Y6010088D02*
X7339169Y6002468D01*
X7419169Y5933897D02*
X7339169Y5933897D01*
X7339169Y5933897D02*
X7339169Y5903421D01*
X7339169Y5903421D02*
X7342979Y5895802D01*
X7342979Y5895802D02*
X7346788Y5891992D01*
X7346788Y5891992D02*
X7354408Y5888183D01*
X7354408Y5888183D02*
X7365836Y5888183D01*
X7365836Y5888183D02*
X7373455Y5891992D01*
X7373455Y5891992D02*
X7377265Y5895802D01*
X7377265Y5895802D02*
X7381074Y5903421D01*
X7381074Y5903421D02*
X7381074Y5933897D01*
X7339169Y3889223D02*
X7339169Y3843509D01*
X7419169Y3866366D02*
X7339169Y3866366D01*
X7339169Y3801604D02*
X7339169Y3786366D01*
X7339169Y3786366D02*
X7342979Y3778747D01*
X7342979Y3778747D02*
X7350598Y3771128D01*
X7350598Y3771128D02*
X7365836Y3767318D01*
X7365836Y3767318D02*
X7392503Y3767318D01*
X7392503Y3767318D02*
X7407741Y3771128D01*
X7407741Y3771128D02*
X7415360Y3778747D01*
X7415360Y3778747D02*
X7419169Y3786366D01*
X7419169Y3786366D02*
X7419169Y3801604D01*
X7419169Y3801604D02*
X7415360Y3809223D01*
X7415360Y3809223D02*
X7407741Y3816842D01*
X7407741Y3816842D02*
X7392503Y3820652D01*
X7392503Y3820652D02*
X7365836Y3820652D01*
X7365836Y3820652D02*
X7350598Y3816842D01*
X7350598Y3816842D02*
X7342979Y3809223D01*
X7342979Y3809223D02*
X7339169Y3801604D01*
X7419169Y3733033D02*
X7339169Y3733033D01*
X7339169Y3733033D02*
X7339169Y3702556D01*
X7339169Y3702556D02*
X7342979Y3694937D01*
X7342979Y3694937D02*
X7346788Y3691128D01*
X7346788Y3691128D02*
X7354408Y3687318D01*
X7354408Y3687318D02*
X7365836Y3687318D01*
X7365836Y3687318D02*
X7373455Y3691128D01*
X7373455Y3691128D02*
X7377265Y3694937D01*
X7377265Y3694937D02*
X7381074Y3702556D01*
X7381074Y3702556D02*
X7381074Y3733033D01*
X7339170Y1689223D02*
X7339170Y1643509D01*
X7419170Y1666366D02*
X7339170Y1666366D01*
X7339170Y1601604D02*
X7339170Y1586366D01*
X7339170Y1586366D02*
X7342979Y1578747D01*
X7342979Y1578747D02*
X7350598Y1571128D01*
X7350598Y1571128D02*
X7365836Y1567318D01*
X7365836Y1567318D02*
X7392503Y1567318D01*
X7392503Y1567318D02*
X7407741Y1571128D01*
X7407741Y1571128D02*
X7415360Y1578747D01*
X7415360Y1578747D02*
X7419170Y1586366D01*
X7419170Y1586366D02*
X7419170Y1601604D01*
X7419170Y1601604D02*
X7415360Y1609223D01*
X7415360Y1609223D02*
X7407741Y1616842D01*
X7407741Y1616842D02*
X7392503Y1620652D01*
X7392503Y1620652D02*
X7365836Y1620652D01*
X7365836Y1620652D02*
X7350598Y1616842D01*
X7350598Y1616842D02*
X7342979Y1609223D01*
X7342979Y1609223D02*
X7339170Y1601604D01*
X7419170Y1533033D02*
X7339170Y1533033D01*
X7339170Y1533033D02*
X7339170Y1502557D01*
X7339170Y1502557D02*
X7342979Y1494938D01*
X7342979Y1494938D02*
X7346789Y1491128D01*
X7346789Y1491128D02*
X7354408Y1487318D01*
X7354408Y1487318D02*
X7365836Y1487318D01*
X7365836Y1487318D02*
X7373455Y1491128D01*
X7373455Y1491128D02*
X7377265Y1494938D01*
X7377265Y1494938D02*
X7381074Y1502557D01*
X7381074Y1502557D02*
X7381074Y1533033D01*
%TO.C,D3*%
D11*
X8692000Y6428864D02*
X8652000Y6428864D01*
%TO.C,C14*%
D12*
X3137000Y3975000D02*
X3137000Y3885000D01*
X3137000Y3975000D02*
X3180000Y3975000D01*
X3137000Y3885000D02*
X3179375Y3885000D01*
X3323000Y3975000D02*
X3280281Y3975000D01*
X3323000Y3885000D02*
X3279656Y3885000D01*
X3323000Y3885000D02*
X3323000Y3975000D01*
%TO.C,C16*%
X7525000Y5953864D02*
X7525000Y5911146D01*
X7525000Y5767864D02*
X7525000Y5810864D01*
X7525000Y5767864D02*
X7615000Y5767864D01*
X7615000Y5953864D02*
X7525000Y5953864D01*
X7615000Y5953864D02*
X7615000Y5910521D01*
X7615000Y5767864D02*
X7615000Y5810239D01*
%TO.C,R9*%
D11*
X3840000Y1151000D02*
X3800000Y1151000D01*
X3840000Y1069000D02*
X3800000Y1069000D01*
%TO.C,R7*%
X8679000Y6020864D02*
X8679000Y5980864D01*
X8761000Y6020864D02*
X8761000Y5980864D01*
%TO.C,D3*%
X2097875Y8630000D02*
X2057875Y8630000D01*
%TO.C,C2*%
D12*
X3407000Y7412000D02*
X3407000Y7322000D01*
X3407000Y7412000D02*
X3450000Y7412000D01*
X3407000Y7322000D02*
X3449375Y7322000D01*
X3593000Y7412000D02*
X3550281Y7412000D01*
X3593000Y7322000D02*
X3549656Y7322000D01*
X3593000Y7322000D02*
X3593000Y7412000D01*
%TO.C,R5*%
D11*
X2281739Y5778000D02*
X2281739Y5818000D01*
X2363739Y5778000D02*
X2363739Y5818000D01*
%TO.C,U2*%
X1262739Y5773000D02*
X1262739Y6223000D01*
X1922739Y6223000D02*
X1922739Y5773000D01*
D10*
X1252739Y6378000D02*
G75*
G02*
X1232739Y6378000I-10000J0D01*
G01*
X1232739Y6378000D02*
G75*
G02*
X1252739Y6378000I10000J0D01*
G01*
%TO.C,C5*%
D12*
X3805000Y8813000D02*
X3805000Y8770281D01*
X3805000Y8627000D02*
X3805000Y8670000D01*
X3805000Y8627000D02*
X3895000Y8627000D01*
X3895000Y8813000D02*
X3805000Y8813000D01*
X3895000Y8813000D02*
X3895000Y8769656D01*
X3895000Y8627000D02*
X3895000Y8669375D01*
%TO.C,C16*%
X5325000Y3753000D02*
X5325000Y3710281D01*
X5325000Y3567000D02*
X5325000Y3610000D01*
X5325000Y3567000D02*
X5415000Y3567000D01*
X5415000Y3753000D02*
X5325000Y3753000D01*
X5415000Y3753000D02*
X5415000Y3709656D01*
X5415000Y3567000D02*
X5415000Y3609375D01*
%TO.C,C2*%
X7807000Y7412000D02*
X7807000Y7322000D01*
X7807000Y7412000D02*
X7850000Y7412000D01*
X7807000Y7322000D02*
X7849375Y7322000D01*
X7993000Y7412000D02*
X7950281Y7412000D01*
X7993000Y7322000D02*
X7949656Y7322000D01*
X7993000Y7322000D02*
X7993000Y7412000D01*
%TO.C,C7*%
X7967000Y2145000D02*
X7967000Y2055000D01*
X7967000Y2145000D02*
X8010344Y2145000D01*
X7967000Y2055000D02*
X8009719Y2055000D01*
X8153000Y2145000D02*
X8110625Y2145000D01*
X8153000Y2055000D02*
X8110000Y2055000D01*
X8153000Y2055000D02*
X8153000Y2145000D01*
%TO.C,C9*%
X2173000Y1391000D02*
X2173000Y1348625D01*
X2173000Y1205000D02*
X2173000Y1248344D01*
X2173000Y1205000D02*
X2263000Y1205000D01*
X2263000Y1391000D02*
X2173000Y1391000D01*
X2263000Y1391000D02*
X2263000Y1348000D01*
X2263000Y1205000D02*
X2263000Y1247719D01*
%TO.C,R13*%
D11*
X1267000Y2168000D02*
X1267000Y2128000D01*
X1349000Y2168000D02*
X1349000Y2128000D01*
%TO.C,C7*%
D12*
X3567000Y8745000D02*
X3567000Y8655000D01*
X3567000Y8745000D02*
X3610344Y8745000D01*
X3567000Y8655000D02*
X3609719Y8655000D01*
X3753000Y8745000D02*
X3710625Y8745000D01*
X3753000Y8655000D02*
X3710000Y8655000D01*
X3753000Y8655000D02*
X3753000Y8745000D01*
%TO.C,R14*%
D11*
X6561000Y4328000D02*
X6561000Y4368000D01*
X6643000Y4328000D02*
X6643000Y4368000D01*
%TO.C,R5*%
X2289000Y3580000D02*
X2289000Y3620000D01*
X2371000Y3580000D02*
X2371000Y3620000D01*
%TO.C,C15*%
D12*
X3235000Y3753000D02*
X3235000Y3710281D01*
X3235000Y3567000D02*
X3235000Y3610000D01*
X3235000Y3567000D02*
X3325000Y3567000D01*
X3325000Y3753000D02*
X3235000Y3753000D01*
X3325000Y3753000D02*
X3325000Y3709656D01*
X3325000Y3567000D02*
X3325000Y3609375D01*
%TO.C,R14*%
D11*
X2161000Y4328000D02*
X2161000Y4368000D01*
X2243000Y4328000D02*
X2243000Y4368000D01*
%TO.C,C1*%
D12*
X1200875Y7730000D02*
X1200875Y7687625D01*
X1200875Y7544000D02*
X1200875Y7587344D01*
X1200875Y7544000D02*
X1290875Y7544000D01*
X1290875Y7730000D02*
X1200875Y7730000D01*
X1290875Y7730000D02*
X1290875Y7687000D01*
X1290875Y7544000D02*
X1290875Y7586719D01*
%TO.C,R1*%
D11*
X1307000Y1058000D02*
X1307000Y1018000D01*
X1389000Y1058000D02*
X1389000Y1018000D01*
%TO.C,CON1*%
D13*
X2801250Y5753770D02*
X3161250Y5753770D01*
X3161250Y5071230D01*
X2801250Y5071230D01*
X2801250Y5753770D01*
%TO.C,C11*%
D12*
X3123000Y6431000D02*
X3123000Y6388281D01*
X3123000Y6245000D02*
X3123000Y6288000D01*
X3123000Y6245000D02*
X3213000Y6245000D01*
X3213000Y6431000D02*
X3123000Y6431000D01*
X3213000Y6431000D02*
X3213000Y6387656D01*
X3213000Y6245000D02*
X3213000Y6287375D01*
%TO.C,C5*%
X1605000Y4413000D02*
X1605000Y4370281D01*
X1605000Y4227000D02*
X1605000Y4270000D01*
X1605000Y4227000D02*
X1695000Y4227000D01*
X1695000Y4413000D02*
X1605000Y4413000D01*
X1695000Y4413000D02*
X1695000Y4369656D01*
X1695000Y4227000D02*
X1695000Y4269375D01*
%TO.C,C11*%
X7525000Y4233000D02*
X7525000Y4190281D01*
X7525000Y4047000D02*
X7525000Y4090000D01*
X7525000Y4047000D02*
X7615000Y4047000D01*
X7615000Y4233000D02*
X7525000Y4233000D01*
X7615000Y4233000D02*
X7615000Y4189656D01*
X7615000Y4047000D02*
X7615000Y4089375D01*
%TO.C,CON1*%
D13*
X603250Y3555770D02*
X963250Y3555770D01*
X963250Y2873230D01*
X603250Y2873230D01*
X603250Y3555770D01*
%TO.C,C1*%
D12*
X7795000Y3328000D02*
X7795000Y3285625D01*
X7795000Y3142000D02*
X7795000Y3185344D01*
X7795000Y3142000D02*
X7885000Y3142000D01*
X7885000Y3328000D02*
X7795000Y3328000D01*
X7885000Y3328000D02*
X7885000Y3285000D01*
X7885000Y3142000D02*
X7885000Y3184719D01*
%TO.C,R10*%
D11*
X3938000Y2140000D02*
X3938000Y2100000D01*
X4020000Y2140000D02*
X4020000Y2100000D01*
%TO.C,U2*%
X5670000Y3575000D02*
X5670000Y4025000D01*
X6330000Y4025000D02*
X6330000Y3575000D01*
D10*
X5660000Y4180000D02*
G75*
G02*
X5640000Y4180000I-10000J0D01*
G01*
X5640000Y4180000D02*
G75*
G02*
X5660000Y4180000I10000J0D01*
G01*
D11*
X1275875Y7977000D02*
X1275875Y8427000D01*
X1935875Y8427000D02*
X1935875Y7977000D01*
D10*
X1265875Y8582000D02*
G75*
G02*
X1245875Y8582000I-10000J0D01*
G01*
X1245875Y8582000D02*
G75*
G02*
X1265875Y8582000I10000J0D01*
G01*
%TO.C,C10*%
D12*
X5214302Y6433000D02*
X5214302Y6390281D01*
X5214302Y6247000D02*
X5214302Y6290000D01*
X5214302Y6247000D02*
X5304302Y6247000D01*
X5304302Y6433000D02*
X5214302Y6433000D01*
X5304302Y6433000D02*
X5304302Y6389656D01*
X5304302Y6247000D02*
X5304302Y6289375D01*
%TO.C,C2*%
X1212875Y7414000D02*
X1212875Y7324000D01*
X1212875Y7414000D02*
X1255875Y7414000D01*
X1212875Y7324000D02*
X1255250Y7324000D01*
X1398875Y7414000D02*
X1356157Y7414000D01*
X1398875Y7324000D02*
X1355532Y7324000D01*
X1398875Y7324000D02*
X1398875Y7414000D01*
%TO.C,C11*%
X923000Y2031000D02*
X923000Y1988281D01*
X923000Y1845000D02*
X923000Y1888000D01*
X923000Y1845000D02*
X1013000Y1845000D01*
X1013000Y2031000D02*
X923000Y2031000D01*
X1013000Y2031000D02*
X1013000Y1987656D01*
X1013000Y1845000D02*
X1013000Y1887375D01*
%TO.C,R12*%
D11*
X9000000Y4011000D02*
X8960000Y4011000D01*
X9000000Y3929000D02*
X8960000Y3929000D01*
%TO.C,CON1*%
D13*
X7203250Y3555770D02*
X7563250Y3555770D01*
X7563250Y2873230D01*
X7203250Y2873230D01*
X7203250Y3555770D01*
%TO.C,FB1*%
D12*
X7816000Y7520000D02*
X7816000Y7434000D01*
X7816000Y7520000D02*
X7984000Y7520000D01*
X7984000Y7434000D02*
X7816000Y7434000D01*
X7984000Y7434000D02*
X7984000Y7519000D01*
%TO.C,R14*%
D11*
X2153739Y6526000D02*
X2153739Y6566000D01*
X2235739Y6526000D02*
X2235739Y6566000D01*
%TO.C,D3*%
X8692000Y4228000D02*
X8652000Y4228000D01*
%TO.C,C12*%
D12*
X5434954Y2031000D02*
X5434954Y1988281D01*
X5434954Y1845000D02*
X5434954Y1888000D01*
X5434954Y1845000D02*
X5524954Y1845000D01*
X5524954Y2031000D02*
X5434954Y2031000D01*
X5524954Y2031000D02*
X5524954Y1987656D01*
X5524954Y1845000D02*
X5524954Y1887375D01*
%TO.C,C5*%
X1610875Y8815000D02*
X1610875Y8772281D01*
X1610875Y8629000D02*
X1610875Y8672000D01*
X1610875Y8629000D02*
X1700875Y8629000D01*
X1700875Y8815000D02*
X1610875Y8815000D01*
X1700875Y8815000D02*
X1700875Y8771656D01*
X1700875Y8629000D02*
X1700875Y8671375D01*
%TO.C,C3*%
X1995000Y3133000D02*
X1995000Y3090625D01*
X1995000Y2947000D02*
X1995000Y2990344D01*
X1995000Y2947000D02*
X2085000Y2947000D01*
X2085000Y3133000D02*
X1995000Y3133000D01*
X2085000Y3133000D02*
X2085000Y3090000D01*
X2085000Y2947000D02*
X2085000Y2989719D01*
%TO.C,C11*%
X7525000Y2033000D02*
X7525000Y1990281D01*
X7525000Y1847000D02*
X7525000Y1890000D01*
X7525000Y1847000D02*
X7615000Y1847000D01*
X7615000Y2033000D02*
X7525000Y2033000D01*
X7615000Y2033000D02*
X7615000Y1989656D01*
X7615000Y1847000D02*
X7615000Y1889375D01*
%TO.C,U1*%
D11*
X5960000Y7338000D02*
X6120000Y7338000D01*
X6120000Y7628000D02*
X5960000Y7628000D01*
X6120000Y7449500D02*
X6120000Y7516500D01*
D10*
X5915000Y7328000D02*
G75*
G02*
X5895000Y7328000I-10000J0D01*
G01*
X5895000Y7328000D02*
G75*
G02*
X5915000Y7328000I10000J0D01*
G01*
%TO.C,C8*%
D12*
X2065000Y3593000D02*
X2065000Y3550625D01*
X2065000Y3407000D02*
X2065000Y3450344D01*
X2065000Y3407000D02*
X2155000Y3407000D01*
X2155000Y3593000D02*
X2065000Y3593000D01*
X2155000Y3593000D02*
X2155000Y3550000D01*
X2155000Y3407000D02*
X2155000Y3449719D01*
%TO.C,R9*%
D11*
X8240000Y5551864D02*
X8200000Y5551864D01*
X8240000Y5469864D02*
X8200000Y5469864D01*
%TO.C,C13*%
D12*
X5337000Y8268000D02*
X5337000Y8178000D01*
X5337000Y8268000D02*
X5380344Y8268000D01*
X5337000Y8178000D02*
X5379719Y8178000D01*
X5523000Y8268000D02*
X5480625Y8268000D01*
X5523000Y8178000D02*
X5480000Y8178000D01*
X5523000Y8178000D02*
X5523000Y8268000D01*
%TO.C,C12*%
X7635000Y4233000D02*
X7635000Y4190281D01*
X7635000Y4047000D02*
X7635000Y4090000D01*
X7635000Y4047000D02*
X7725000Y4047000D01*
X7725000Y4233000D02*
X7635000Y4233000D01*
X7725000Y4233000D02*
X7725000Y4189656D01*
X7725000Y4047000D02*
X7725000Y4089375D01*
%TO.C,C3*%
X8595000Y5333864D02*
X8595000Y5291489D01*
X8595000Y5147864D02*
X8595000Y5191208D01*
X8595000Y5147864D02*
X8685000Y5147864D01*
X8685000Y5333864D02*
X8595000Y5333864D01*
X8685000Y5333864D02*
X8685000Y5290864D01*
X8685000Y5147864D02*
X8685000Y5190583D01*
%TO.C,D3*%
D11*
X2092000Y4228000D02*
X2052000Y4228000D01*
%TO.C,R2*%
X1802739Y5549000D02*
X1842739Y5549000D01*
X1802739Y5467000D02*
X1842739Y5467000D01*
%TO.C,C15*%
D12*
X7635000Y3753000D02*
X7635000Y3710281D01*
X7635000Y3567000D02*
X7635000Y3610000D01*
X7635000Y3567000D02*
X7725000Y3567000D01*
X7725000Y3753000D02*
X7635000Y3753000D01*
X7725000Y3753000D02*
X7725000Y3709656D01*
X7725000Y3567000D02*
X7725000Y3609375D01*
%TO.C,R2*%
D11*
X1815875Y7753000D02*
X1855875Y7753000D01*
X1815875Y7671000D02*
X1855875Y7671000D01*
%TO.C,C14*%
D12*
X7537000Y1775000D02*
X7537000Y1685000D01*
X7537000Y1775000D02*
X7580000Y1775000D01*
X7537000Y1685000D02*
X7579375Y1685000D01*
X7723000Y1775000D02*
X7680281Y1775000D01*
X7723000Y1685000D02*
X7679656Y1685000D01*
X7723000Y1685000D02*
X7723000Y1775000D01*
X937000Y3975000D02*
X937000Y3885000D01*
X937000Y3975000D02*
X980000Y3975000D01*
X937000Y3885000D02*
X979375Y3885000D01*
X1123000Y3975000D02*
X1080281Y3975000D01*
X1123000Y3885000D02*
X1079656Y3885000D01*
X1123000Y3885000D02*
X1123000Y3975000D01*
%TO.C,C2*%
X5606302Y5212000D02*
X5606302Y5122000D01*
X5606302Y5212000D02*
X5649302Y5212000D01*
X5606302Y5122000D02*
X5648677Y5122000D01*
X5792302Y5212000D02*
X5749583Y5212000D01*
X5792302Y5122000D02*
X5748958Y5122000D01*
X5792302Y5122000D02*
X5792302Y5212000D01*
%TO.C,C6*%
X7967000Y2255000D02*
X7967000Y2165000D01*
X7967000Y2255000D02*
X8010000Y2255000D01*
X7967000Y2165000D02*
X8009375Y2165000D01*
X8153000Y2255000D02*
X8110281Y2255000D01*
X8153000Y2165000D02*
X8109656Y2165000D01*
X8153000Y2165000D02*
X8153000Y2255000D01*
%TO.C,U2*%
D11*
X7870000Y3575000D02*
X7870000Y4025000D01*
X8530000Y4025000D02*
X8530000Y3575000D01*
D10*
X7860000Y4180000D02*
G75*
G02*
X7840000Y4180000I-10000J0D01*
G01*
X7840000Y4180000D02*
G75*
G02*
X7860000Y4180000I10000J0D01*
G01*
%TO.C,C1*%
D12*
X7795000Y1128000D02*
X7795000Y1085625D01*
X7795000Y942000D02*
X7795000Y985344D01*
X7795000Y942000D02*
X7885000Y942000D01*
X7885000Y1128000D02*
X7795000Y1128000D01*
X7885000Y1128000D02*
X7885000Y1085000D01*
X7885000Y942000D02*
X7885000Y984719D01*
%TO.C,D3*%
D11*
X6491302Y6428000D02*
X6451302Y6428000D01*
%TO.C,C3*%
D12*
X4195000Y3133000D02*
X4195000Y3090625D01*
X4195000Y2947000D02*
X4195000Y2990344D01*
X4195000Y2947000D02*
X4285000Y2947000D01*
X4285000Y3133000D02*
X4195000Y3133000D01*
X4285000Y3133000D02*
X4285000Y3090000D01*
X4285000Y2947000D02*
X4285000Y2989719D01*
%TO.C,C12*%
X5435000Y4233000D02*
X5435000Y4190281D01*
X5435000Y4047000D02*
X5435000Y4090000D01*
X5435000Y4047000D02*
X5525000Y4047000D01*
X5525000Y4233000D02*
X5435000Y4233000D01*
X5525000Y4233000D02*
X5525000Y4189656D01*
X5525000Y4047000D02*
X5525000Y4089375D01*
%TO.C,C16*%
X923000Y1551000D02*
X923000Y1508281D01*
X923000Y1365000D02*
X923000Y1408000D01*
X923000Y1365000D02*
X1013000Y1365000D01*
X1013000Y1551000D02*
X923000Y1551000D01*
X1013000Y1551000D02*
X1013000Y1507656D01*
X1013000Y1365000D02*
X1013000Y1407375D01*
%TO.C,R13*%
D11*
X1269000Y4370000D02*
X1269000Y4330000D01*
X1351000Y4370000D02*
X1351000Y4330000D01*
%TO.C,C3*%
D12*
X4195000Y7533000D02*
X4195000Y7490625D01*
X4195000Y7347000D02*
X4195000Y7390344D01*
X4195000Y7347000D02*
X4285000Y7347000D01*
X4285000Y7533000D02*
X4195000Y7533000D01*
X4285000Y7533000D02*
X4285000Y7490000D01*
X4285000Y7347000D02*
X4285000Y7389719D01*
%TO.C,C6*%
X3567000Y4455000D02*
X3567000Y4365000D01*
X3567000Y4455000D02*
X3610000Y4455000D01*
X3567000Y4365000D02*
X3609375Y4365000D01*
X3753000Y4455000D02*
X3710281Y4455000D01*
X3753000Y4365000D02*
X3709656Y4365000D01*
X3753000Y4365000D02*
X3753000Y4455000D01*
%TO.C,C15*%
X1027739Y5951000D02*
X1027739Y5908281D01*
X1027739Y5765000D02*
X1027739Y5808000D01*
X1027739Y5765000D02*
X1117739Y5765000D01*
X1117739Y5951000D02*
X1027739Y5951000D01*
X1117739Y5951000D02*
X1117739Y5907656D01*
X1117739Y5765000D02*
X1117739Y5807375D01*
%TO.C,R2*%
D11*
X4010000Y3351000D02*
X4050000Y3351000D01*
X4010000Y3269000D02*
X4050000Y3269000D01*
%TO.C,C7*%
D12*
X1359739Y6543000D02*
X1359739Y6453000D01*
X1359739Y6543000D02*
X1403082Y6543000D01*
X1359739Y6453000D02*
X1402457Y6453000D01*
X1545739Y6543000D02*
X1503364Y6543000D01*
X1545739Y6453000D02*
X1502739Y6453000D01*
X1545739Y6453000D02*
X1545739Y6543000D01*
%TO.C,C8*%
X4265000Y7993000D02*
X4265000Y7950625D01*
X4265000Y7807000D02*
X4265000Y7850344D01*
X4265000Y7807000D02*
X4355000Y7807000D01*
X4355000Y7993000D02*
X4265000Y7993000D01*
X4355000Y7993000D02*
X4355000Y7950000D01*
X4355000Y7807000D02*
X4355000Y7849719D01*
%TO.C,R12*%
D11*
X2405875Y8413000D02*
X2365875Y8413000D01*
X2405875Y8331000D02*
X2365875Y8331000D01*
%TO.C,R9*%
X1640000Y3351000D02*
X1600000Y3351000D01*
X1640000Y3269000D02*
X1600000Y3269000D01*
%TO.C,R2*%
X8410000Y5551864D02*
X8450000Y5551864D01*
X8410000Y5469864D02*
X8450000Y5469864D01*
%TO.C,C1*%
D12*
X3393000Y5526000D02*
X3393000Y5483625D01*
X3393000Y5340000D02*
X3393000Y5383344D01*
X3393000Y5340000D02*
X3483000Y5340000D01*
X3483000Y5526000D02*
X3393000Y5526000D01*
X3483000Y5526000D02*
X3483000Y5483000D01*
X3483000Y5340000D02*
X3483000Y5382719D01*
%TO.C,U1*%
D11*
X5959954Y733000D02*
X6119954Y733000D01*
X6119954Y1023000D02*
X5959954Y1023000D01*
X6119954Y844500D02*
X6119954Y911500D01*
D10*
X5914954Y723000D02*
G75*
G02*
X5894954Y723000I-10000J0D01*
G01*
X5894954Y723000D02*
G75*
G02*
X5914954Y723000I10000J0D01*
G01*
%TO.C,R14*%
D11*
X4361000Y8728000D02*
X4361000Y8768000D01*
X4443000Y8728000D02*
X4443000Y8768000D01*
%TO.C,R9*%
X6039302Y5551000D02*
X5999302Y5551000D01*
X6039302Y5469000D02*
X5999302Y5469000D01*
%TO.C,R5*%
X6688302Y5780000D02*
X6688302Y5820000D01*
X6770302Y5780000D02*
X6770302Y5820000D01*
%TO.C,C6*%
D12*
X7967000Y8855000D02*
X7967000Y8765000D01*
X7967000Y8855000D02*
X8010000Y8855000D01*
X7967000Y8765000D02*
X8009375Y8765000D01*
X8153000Y8855000D02*
X8110281Y8855000D01*
X8153000Y8765000D02*
X8109656Y8765000D01*
X8153000Y8765000D02*
X8153000Y8855000D01*
%TO.C,R1*%
D11*
X7909000Y1060000D02*
X7909000Y1020000D01*
X7991000Y1060000D02*
X7991000Y1020000D01*
%TO.C,C10*%
D12*
X815000Y4233000D02*
X815000Y4190281D01*
X815000Y4047000D02*
X815000Y4090000D01*
X815000Y4047000D02*
X905000Y4047000D01*
X905000Y4233000D02*
X815000Y4233000D01*
X905000Y4233000D02*
X905000Y4189656D01*
X905000Y4047000D02*
X905000Y4089375D01*
%TO.C,R11*%
D11*
X6589302Y6211000D02*
X6549302Y6211000D01*
X6589302Y6129000D02*
X6549302Y6129000D01*
%TO.C,U1*%
X8160000Y7335000D02*
X8320000Y7335000D01*
X8320000Y7625000D02*
X8160000Y7625000D01*
X8320000Y7446500D02*
X8320000Y7513500D01*
D10*
X8115000Y7325000D02*
G75*
G02*
X8095000Y7325000I-10000J0D01*
G01*
X8095000Y7325000D02*
G75*
G02*
X8115000Y7325000I10000J0D01*
G01*
%TO.C,R12*%
D11*
X9000000Y8411000D02*
X8960000Y8411000D01*
X9000000Y8329000D02*
X8960000Y8329000D01*
%TO.C,C2*%
D12*
X5606954Y810000D02*
X5606954Y720000D01*
X5606954Y810000D02*
X5649954Y810000D01*
X5606954Y720000D02*
X5649329Y720000D01*
X5792954Y810000D02*
X5750235Y810000D01*
X5792954Y720000D02*
X5749610Y720000D01*
X5792954Y720000D02*
X5792954Y810000D01*
%TO.C,C16*%
X930875Y8155000D02*
X930875Y8112281D01*
X930875Y7969000D02*
X930875Y8012000D01*
X930875Y7969000D02*
X1020875Y7969000D01*
X1020875Y8155000D02*
X930875Y8155000D01*
X1020875Y8155000D02*
X1020875Y8111656D01*
X1020875Y7969000D02*
X1020875Y8011375D01*
%TO.C,C13*%
X7537000Y1665000D02*
X7537000Y1575000D01*
X7537000Y1665000D02*
X7580344Y1665000D01*
X7537000Y1575000D02*
X7579719Y1575000D01*
X7723000Y1665000D02*
X7680625Y1665000D01*
X7723000Y1575000D02*
X7680000Y1575000D01*
X7723000Y1575000D02*
X7723000Y1665000D01*
%TO.C,D3*%
D11*
X4290000Y6426000D02*
X4250000Y6426000D01*
%TO.C,C5*%
D12*
X6004302Y6613000D02*
X6004302Y6570281D01*
X6004302Y6427000D02*
X6004302Y6470000D01*
X6004302Y6427000D02*
X6094302Y6427000D01*
X6094302Y6613000D02*
X6004302Y6613000D01*
X6094302Y6613000D02*
X6094302Y6569656D01*
X6094302Y6427000D02*
X6094302Y6469375D01*
%TO.C,C11*%
X3125000Y2033000D02*
X3125000Y1990281D01*
X3125000Y1847000D02*
X3125000Y1890000D01*
X3125000Y1847000D02*
X3215000Y1847000D01*
X3215000Y2033000D02*
X3125000Y2033000D01*
X3215000Y2033000D02*
X3215000Y1989656D01*
X3215000Y1847000D02*
X3215000Y1889375D01*
%TO.C,C1*%
X3395000Y1128000D02*
X3395000Y1085625D01*
X3395000Y942000D02*
X3395000Y985344D01*
X3395000Y942000D02*
X3485000Y942000D01*
X3485000Y1128000D02*
X3395000Y1128000D01*
X3485000Y1128000D02*
X3485000Y1085000D01*
X3485000Y942000D02*
X3485000Y984719D01*
%TO.C,U1*%
D11*
X1558000Y733000D02*
X1718000Y733000D01*
X1718000Y1023000D02*
X1558000Y1023000D01*
X1718000Y844500D02*
X1718000Y911500D01*
D10*
X1513000Y723000D02*
G75*
G02*
X1493000Y723000I-10000J0D01*
G01*
X1493000Y723000D02*
G75*
G02*
X1513000Y723000I10000J0D01*
G01*
%TO.C,C6*%
D12*
X3567000Y2255000D02*
X3567000Y2165000D01*
X3567000Y2255000D02*
X3610000Y2255000D01*
X3567000Y2165000D02*
X3609375Y2165000D01*
X3753000Y2255000D02*
X3710281Y2255000D01*
X3753000Y2165000D02*
X3709656Y2165000D01*
X3753000Y2165000D02*
X3753000Y2255000D01*
%TO.C,R13*%
D11*
X3469000Y2170000D02*
X3469000Y2130000D01*
X3551000Y2170000D02*
X3551000Y2130000D01*
%TO.C,R12*%
X6800000Y8414000D02*
X6760000Y8414000D01*
X6800000Y8332000D02*
X6760000Y8332000D01*
%TO.C,C7*%
D12*
X3567000Y2145000D02*
X3567000Y2055000D01*
X3567000Y2145000D02*
X3610344Y2145000D01*
X3567000Y2055000D02*
X3609719Y2055000D01*
X3753000Y2145000D02*
X3710625Y2145000D01*
X3753000Y2055000D02*
X3710000Y2055000D01*
X3753000Y2055000D02*
X3753000Y2145000D01*
%TO.C,C9*%
X8775000Y3593000D02*
X8775000Y3550625D01*
X8775000Y3407000D02*
X8775000Y3450344D01*
X8775000Y3407000D02*
X8865000Y3407000D01*
X8865000Y3593000D02*
X8775000Y3593000D01*
X8865000Y3593000D02*
X8865000Y3550000D01*
X8865000Y3407000D02*
X8865000Y3449719D01*
%TO.C,R5*%
D11*
X8889000Y3580000D02*
X8889000Y3620000D01*
X8971000Y3580000D02*
X8971000Y3620000D01*
%TO.C,C15*%
D12*
X3235000Y1553000D02*
X3235000Y1510281D01*
X3235000Y1367000D02*
X3235000Y1410000D01*
X3235000Y1367000D02*
X3325000Y1367000D01*
X3325000Y1553000D02*
X3235000Y1553000D01*
X3325000Y1553000D02*
X3325000Y1509656D01*
X3325000Y1367000D02*
X3325000Y1409375D01*
%TO.C,C8*%
X2070875Y7995000D02*
X2070875Y7952625D01*
X2070875Y7809000D02*
X2070875Y7852344D01*
X2070875Y7809000D02*
X2160875Y7809000D01*
X2160875Y7995000D02*
X2070875Y7995000D01*
X2160875Y7995000D02*
X2160875Y7952000D01*
X2160875Y7809000D02*
X2160875Y7851719D01*
%TO.C,R14*%
D11*
X8761000Y8728000D02*
X8761000Y8768000D01*
X8843000Y8728000D02*
X8843000Y8768000D01*
%TO.C,C6*%
D12*
X7967000Y6655864D02*
X7967000Y6565864D01*
X7967000Y6655864D02*
X8010000Y6655864D01*
X7967000Y6565864D02*
X8009375Y6565864D01*
X8153000Y6655864D02*
X8110281Y6655864D01*
X8153000Y6565864D02*
X8109656Y6565864D01*
X8153000Y6565864D02*
X8153000Y6655864D01*
%TO.C,C4*%
X6279302Y5333000D02*
X6279302Y5290625D01*
X6279302Y5147000D02*
X6279302Y5190344D01*
X6279302Y5147000D02*
X6369302Y5147000D01*
X6369302Y5333000D02*
X6279302Y5333000D01*
X6369302Y5333000D02*
X6369302Y5290000D01*
X6369302Y5147000D02*
X6369302Y5189719D01*
%TO.C,C6*%
X7967000Y4455000D02*
X7967000Y4365000D01*
X7967000Y4455000D02*
X8010000Y4455000D01*
X7967000Y4365000D02*
X8009375Y4365000D01*
X8153000Y4455000D02*
X8110281Y4455000D01*
X8153000Y4365000D02*
X8109656Y4365000D01*
X8153000Y4365000D02*
X8153000Y4455000D01*
%TO.C,C10*%
X813000Y2031000D02*
X813000Y1988281D01*
X813000Y1845000D02*
X813000Y1888000D01*
X813000Y1845000D02*
X903000Y1845000D01*
X903000Y2031000D02*
X813000Y2031000D01*
X903000Y2031000D02*
X903000Y1987656D01*
X903000Y1845000D02*
X903000Y1887375D01*
%TO.C,R4*%
D11*
X6688302Y6030000D02*
X6688302Y5990000D01*
X6770302Y6030000D02*
X6770302Y5990000D01*
%TO.C,R1*%
X7909000Y7660000D02*
X7909000Y7620000D01*
X7991000Y7660000D02*
X7991000Y7620000D01*
%TO.C,R13*%
X7869000Y2170000D02*
X7869000Y2130000D01*
X7951000Y2170000D02*
X7951000Y2130000D01*
%TO.C,R5*%
X4489000Y3580000D02*
X4489000Y3620000D01*
X4571000Y3580000D02*
X4571000Y3620000D01*
%TO.C,R12*%
X4600000Y8411000D02*
X4560000Y8411000D01*
X4600000Y8329000D02*
X4560000Y8329000D01*
%TO.C,U1*%
X1552739Y5133000D02*
X1712739Y5133000D01*
X1712739Y5423000D02*
X1552739Y5423000D01*
X1712739Y5244500D02*
X1712739Y5311500D01*
D10*
X1507739Y5123000D02*
G75*
G02*
X1487739Y5123000I-10000J0D01*
G01*
X1487739Y5123000D02*
G75*
G02*
X1507739Y5123000I10000J0D01*
G01*
%TO.C,C6*%
D12*
X5766302Y6655000D02*
X5766302Y6565000D01*
X5766302Y6655000D02*
X5809302Y6655000D01*
X5766302Y6565000D02*
X5808677Y6565000D01*
X5952302Y6655000D02*
X5909583Y6655000D01*
X5952302Y6565000D02*
X5908958Y6565000D01*
X5952302Y6565000D02*
X5952302Y6655000D01*
%TO.C,C3*%
X4193000Y5331000D02*
X4193000Y5288625D01*
X4193000Y5145000D02*
X4193000Y5188344D01*
X4193000Y5145000D02*
X4283000Y5145000D01*
X4283000Y5331000D02*
X4193000Y5331000D01*
X4283000Y5331000D02*
X4283000Y5288000D01*
X4283000Y5145000D02*
X4283000Y5187719D01*
%TO.C,CON1*%
D13*
X609125Y7957770D02*
X969125Y7957770D01*
X969125Y7275230D01*
X609125Y7275230D01*
X609125Y7957770D01*
%TO.C,R1*%
D11*
X3509000Y7660000D02*
X3509000Y7620000D01*
X3591000Y7660000D02*
X3591000Y7620000D01*
%TO.C,C4*%
D12*
X4078000Y5331000D02*
X4078000Y5288625D01*
X4078000Y5145000D02*
X4078000Y5188344D01*
X4078000Y5145000D02*
X4168000Y5145000D01*
X4168000Y5331000D02*
X4078000Y5331000D01*
X4168000Y5331000D02*
X4168000Y5288000D01*
X4168000Y5145000D02*
X4168000Y5187719D01*
%TO.C,CON1*%
D13*
X5002552Y5755770D02*
X5362552Y5755770D01*
X5362552Y5073230D01*
X5002552Y5073230D01*
X5002552Y5755770D01*
%TO.C,R11*%
D11*
X6590000Y8414000D02*
X6550000Y8414000D01*
X6590000Y8332000D02*
X6550000Y8332000D01*
%TO.C,C4*%
D12*
X6279954Y931000D02*
X6279954Y888625D01*
X6279954Y745000D02*
X6279954Y788344D01*
X6279954Y745000D02*
X6369954Y745000D01*
X6369954Y931000D02*
X6279954Y931000D01*
X6369954Y931000D02*
X6369954Y888000D01*
X6369954Y745000D02*
X6369954Y787719D01*
%TO.C,C9*%
X2175000Y3593000D02*
X2175000Y3550625D01*
X2175000Y3407000D02*
X2175000Y3450344D01*
X2175000Y3407000D02*
X2265000Y3407000D01*
X2265000Y3593000D02*
X2175000Y3593000D01*
X2265000Y3593000D02*
X2265000Y3550000D01*
X2265000Y3407000D02*
X2265000Y3449719D01*
%TO.C,C14*%
X942875Y8377000D02*
X942875Y8287000D01*
X942875Y8377000D02*
X985875Y8377000D01*
X942875Y8287000D02*
X985250Y8287000D01*
X1128875Y8377000D02*
X1086157Y8377000D01*
X1128875Y8287000D02*
X1085532Y8287000D01*
X1128875Y8287000D02*
X1128875Y8377000D01*
%TO.C,R5*%
D11*
X4487000Y5778000D02*
X4487000Y5818000D01*
X4569000Y5778000D02*
X4569000Y5818000D01*
%TO.C,C12*%
D12*
X1033000Y2031000D02*
X1033000Y1988281D01*
X1033000Y1845000D02*
X1033000Y1888000D01*
X1033000Y1845000D02*
X1123000Y1845000D01*
X1123000Y2031000D02*
X1033000Y2031000D01*
X1123000Y2031000D02*
X1123000Y1987656D01*
X1123000Y1845000D02*
X1123000Y1887375D01*
%TO.C,R7*%
D11*
X2071739Y6018000D02*
X2071739Y5978000D01*
X2153739Y6018000D02*
X2153739Y5978000D01*
%TO.C,U2*%
X5670000Y7978000D02*
X5670000Y8428000D01*
X6330000Y8428000D02*
X6330000Y7978000D01*
D10*
X5660000Y8583000D02*
G75*
G02*
X5640000Y8583000I-10000J0D01*
G01*
X5640000Y8583000D02*
G75*
G02*
X5660000Y8583000I10000J0D01*
G01*
%TO.C,R7*%
D11*
X6479000Y8223000D02*
X6479000Y8183000D01*
X6561000Y8223000D02*
X6561000Y8183000D01*
%TO.C,C13*%
D12*
X935000Y1663000D02*
X935000Y1573000D01*
X935000Y1663000D02*
X978344Y1663000D01*
X935000Y1573000D02*
X977719Y1573000D01*
X1121000Y1663000D02*
X1078625Y1663000D01*
X1121000Y1573000D02*
X1078000Y1573000D01*
X1121000Y1573000D02*
X1121000Y1663000D01*
X3137000Y3865000D02*
X3137000Y3775000D01*
X3137000Y3865000D02*
X3180344Y3865000D01*
X3137000Y3775000D02*
X3179719Y3775000D01*
X3323000Y3865000D02*
X3280625Y3865000D01*
X3323000Y3775000D02*
X3280000Y3775000D01*
X3323000Y3775000D02*
X3323000Y3865000D01*
%TO.C,C5*%
X3805000Y2213000D02*
X3805000Y2170281D01*
X3805000Y2027000D02*
X3805000Y2070000D01*
X3805000Y2027000D02*
X3895000Y2027000D01*
X3895000Y2213000D02*
X3805000Y2213000D01*
X3895000Y2213000D02*
X3895000Y2169656D01*
X3895000Y2027000D02*
X3895000Y2069375D01*
%TO.C,R1*%
D11*
X7909000Y5460864D02*
X7909000Y5420864D01*
X7991000Y5460864D02*
X7991000Y5420864D01*
%TO.C,C1*%
D12*
X7795000Y5528864D02*
X7795000Y5486489D01*
X7795000Y5342864D02*
X7795000Y5386208D01*
X7795000Y5342864D02*
X7885000Y5342864D01*
X7885000Y5528864D02*
X7795000Y5528864D01*
X7885000Y5528864D02*
X7885000Y5485864D01*
X7885000Y5342864D02*
X7885000Y5385583D01*
%TO.C,C5*%
X6004954Y2211000D02*
X6004954Y2168281D01*
X6004954Y2025000D02*
X6004954Y2068000D01*
X6004954Y2025000D02*
X6094954Y2025000D01*
X6094954Y2211000D02*
X6004954Y2211000D01*
X6094954Y2211000D02*
X6094954Y2167656D01*
X6094954Y2025000D02*
X6094954Y2067375D01*
%TO.C,R12*%
D11*
X2392739Y6209000D02*
X2352739Y6209000D01*
X2392739Y6127000D02*
X2352739Y6127000D01*
%TO.C,R10*%
X6137302Y6540000D02*
X6137302Y6500000D01*
X6219302Y6540000D02*
X6219302Y6500000D01*
%TO.C,R2*%
X4010000Y7751000D02*
X4050000Y7751000D01*
X4010000Y7669000D02*
X4050000Y7669000D01*
%TO.C,C1*%
D12*
X5595000Y3328000D02*
X5595000Y3285625D01*
X5595000Y3142000D02*
X5595000Y3185344D01*
X5595000Y3142000D02*
X5685000Y3142000D01*
X5685000Y3328000D02*
X5595000Y3328000D01*
X5685000Y3328000D02*
X5685000Y3285000D01*
X5685000Y3142000D02*
X5685000Y3184719D01*
%TO.C,R4*%
D11*
X6688954Y1628000D02*
X6688954Y1588000D01*
X6770954Y1628000D02*
X6770954Y1588000D01*
%TO.C,R14*%
X4361000Y2128000D02*
X4361000Y2168000D01*
X4443000Y2128000D02*
X4443000Y2168000D01*
%TO.C,R7*%
X2077000Y1618000D02*
X2077000Y1578000D01*
X2159000Y1618000D02*
X2159000Y1578000D01*
%TO.C,R11*%
X8790000Y8411000D02*
X8750000Y8411000D01*
X8790000Y8329000D02*
X8750000Y8329000D01*
%TO.C,C2*%
D12*
X1205000Y810000D02*
X1205000Y720000D01*
X1205000Y810000D02*
X1248000Y810000D01*
X1205000Y720000D02*
X1247375Y720000D01*
X1391000Y810000D02*
X1348281Y810000D01*
X1391000Y720000D02*
X1347656Y720000D01*
X1391000Y720000D02*
X1391000Y810000D01*
%TO.C,R12*%
D11*
X6799302Y6211000D02*
X6759302Y6211000D01*
X6799302Y6129000D02*
X6759302Y6129000D01*
%TO.C,C10*%
D12*
X7415000Y4233000D02*
X7415000Y4190281D01*
X7415000Y4047000D02*
X7415000Y4090000D01*
X7415000Y4047000D02*
X7505000Y4047000D01*
X7505000Y4233000D02*
X7415000Y4233000D01*
X7505000Y4233000D02*
X7505000Y4189656D01*
X7505000Y4047000D02*
X7505000Y4089375D01*
%TO.C,CON1*%
D13*
X595989Y5753770D02*
X955989Y5753770D01*
X955989Y5071230D01*
X595989Y5071230D01*
X595989Y5753770D01*
%TO.C,C10*%
D12*
X5215000Y4233000D02*
X5215000Y4190281D01*
X5215000Y4047000D02*
X5215000Y4090000D01*
X5215000Y4047000D02*
X5305000Y4047000D01*
X5305000Y4233000D02*
X5215000Y4233000D01*
X5305000Y4233000D02*
X5305000Y4189656D01*
X5305000Y4047000D02*
X5305000Y4089375D01*
%TO.C,R11*%
D11*
X2190000Y4011000D02*
X2150000Y4011000D01*
X2190000Y3929000D02*
X2150000Y3929000D01*
%TO.C,R1*%
X1309000Y3260000D02*
X1309000Y3220000D01*
X1391000Y3260000D02*
X1391000Y3220000D01*
%TO.C,R4*%
X4487000Y6028000D02*
X4487000Y5988000D01*
X4569000Y6028000D02*
X4569000Y5988000D01*
%TO.C,R1*%
X3507000Y5458000D02*
X3507000Y5418000D01*
X3589000Y5458000D02*
X3589000Y5418000D01*
%TO.C,C16*%
D12*
X5324302Y5953000D02*
X5324302Y5910281D01*
X5324302Y5767000D02*
X5324302Y5810000D01*
X5324302Y5767000D02*
X5414302Y5767000D01*
X5414302Y5953000D02*
X5324302Y5953000D01*
X5414302Y5953000D02*
X5414302Y5909656D01*
X5414302Y5767000D02*
X5414302Y5809375D01*
%TO.C,R9*%
D11*
X8240000Y3351000D02*
X8200000Y3351000D01*
X8240000Y3269000D02*
X8200000Y3269000D01*
%TO.C,R14*%
X2166875Y8730000D02*
X2166875Y8770000D01*
X2248875Y8730000D02*
X2248875Y8770000D01*
%TO.C,C1*%
D12*
X5594302Y5528000D02*
X5594302Y5485625D01*
X5594302Y5342000D02*
X5594302Y5385344D01*
X5594302Y5342000D02*
X5684302Y5342000D01*
X5684302Y5528000D02*
X5594302Y5528000D01*
X5684302Y5528000D02*
X5684302Y5485000D01*
X5684302Y5342000D02*
X5684302Y5384719D01*
%TO.C,R5*%
D11*
X8889000Y1380000D02*
X8889000Y1420000D01*
X8971000Y1380000D02*
X8971000Y1420000D01*
%TO.C,R14*%
X4361000Y4328000D02*
X4361000Y4368000D01*
X4443000Y4328000D02*
X4443000Y4368000D01*
%TO.C,C16*%
D12*
X3125000Y8153000D02*
X3125000Y8110281D01*
X3125000Y7967000D02*
X3125000Y8010000D01*
X3125000Y7967000D02*
X3215000Y7967000D01*
X3215000Y8153000D02*
X3125000Y8153000D01*
X3215000Y8153000D02*
X3215000Y8109656D01*
X3215000Y7967000D02*
X3215000Y8009375D01*
%TO.C,C13*%
X3135000Y6063000D02*
X3135000Y5973000D01*
X3135000Y6063000D02*
X3178344Y6063000D01*
X3135000Y5973000D02*
X3177719Y5973000D01*
X3321000Y6063000D02*
X3278625Y6063000D01*
X3321000Y5973000D02*
X3278000Y5973000D01*
X3321000Y5973000D02*
X3321000Y6063000D01*
%TO.C,R14*%
D11*
X8761000Y6528864D02*
X8761000Y6568864D01*
X8843000Y6528864D02*
X8843000Y6568864D01*
%TO.C,C16*%
D12*
X7525000Y1553000D02*
X7525000Y1510281D01*
X7525000Y1367000D02*
X7525000Y1410000D01*
X7525000Y1367000D02*
X7615000Y1367000D01*
X7615000Y1553000D02*
X7525000Y1553000D01*
X7615000Y1553000D02*
X7615000Y1509656D01*
X7615000Y1367000D02*
X7615000Y1409375D01*
%TO.C,C4*%
X8480000Y3133000D02*
X8480000Y3090625D01*
X8480000Y2947000D02*
X8480000Y2990344D01*
X8480000Y2947000D02*
X8570000Y2947000D01*
X8570000Y3133000D02*
X8480000Y3133000D01*
X8570000Y3133000D02*
X8570000Y3090000D01*
X8570000Y2947000D02*
X8570000Y2989719D01*
%TO.C,R13*%
D11*
X3469000Y8770000D02*
X3469000Y8730000D01*
X3551000Y8770000D02*
X3551000Y8730000D01*
%TO.C,R1*%
X1314875Y7662000D02*
X1314875Y7622000D01*
X1396875Y7662000D02*
X1396875Y7622000D01*
%TO.C,C5*%
D12*
X8205000Y4413000D02*
X8205000Y4370281D01*
X8205000Y4227000D02*
X8205000Y4270000D01*
X8205000Y4227000D02*
X8295000Y4227000D01*
X8295000Y4413000D02*
X8205000Y4413000D01*
X8295000Y4413000D02*
X8295000Y4369656D01*
X8295000Y4227000D02*
X8295000Y4269375D01*
%TO.C,C7*%
X7967000Y4345000D02*
X7967000Y4255000D01*
X7967000Y4345000D02*
X8010344Y4345000D01*
X7967000Y4255000D02*
X8009719Y4255000D01*
X8153000Y4345000D02*
X8110625Y4345000D01*
X8153000Y4255000D02*
X8110000Y4255000D01*
X8153000Y4255000D02*
X8153000Y4345000D01*
%TO.C,R5*%
D11*
X6689000Y7983000D02*
X6689000Y8023000D01*
X6771000Y7983000D02*
X6771000Y8023000D01*
%TO.C,C8*%
D12*
X6464954Y1391000D02*
X6464954Y1348625D01*
X6464954Y1205000D02*
X6464954Y1248344D01*
X6464954Y1205000D02*
X6554954Y1205000D01*
X6554954Y1391000D02*
X6464954Y1391000D01*
X6554954Y1391000D02*
X6554954Y1348000D01*
X6554954Y1205000D02*
X6554954Y1247719D01*
%TO.C,R1*%
D11*
X5708954Y1058000D02*
X5708954Y1018000D01*
X5790954Y1058000D02*
X5790954Y1018000D01*
%TO.C,FB1*%
D12*
X5616000Y3120000D02*
X5616000Y3034000D01*
X5616000Y3120000D02*
X5784000Y3120000D01*
X5784000Y3034000D02*
X5616000Y3034000D01*
X5784000Y3034000D02*
X5784000Y3119000D01*
%TO.C,R11*%
D11*
X2188000Y1809000D02*
X2148000Y1809000D01*
X2188000Y1727000D02*
X2148000Y1727000D01*
%TO.C,U1*%
X5959302Y5135000D02*
X6119302Y5135000D01*
X6119302Y5425000D02*
X5959302Y5425000D01*
X6119302Y5246500D02*
X6119302Y5313500D01*
D10*
X5914302Y5125000D02*
G75*
G02*
X5894302Y5125000I-10000J0D01*
G01*
X5894302Y5125000D02*
G75*
G02*
X5914302Y5125000I10000J0D01*
G01*
%TO.C,CON1*%
D13*
X5003204Y1353770D02*
X5363204Y1353770D01*
X5363204Y671230D01*
X5003204Y671230D01*
X5003204Y1353770D01*
%TO.C,U1*%
D11*
X3760000Y7335000D02*
X3920000Y7335000D01*
X3920000Y7625000D02*
X3760000Y7625000D01*
X3920000Y7446500D02*
X3920000Y7513500D01*
D10*
X3715000Y7325000D02*
G75*
G02*
X3695000Y7325000I-10000J0D01*
G01*
X3695000Y7325000D02*
G75*
G02*
X3715000Y7325000I10000J0D01*
G01*
%TO.C,C16*%
D12*
X3125000Y1553000D02*
X3125000Y1510281D01*
X3125000Y1367000D02*
X3125000Y1410000D01*
X3125000Y1367000D02*
X3215000Y1367000D01*
X3215000Y1553000D02*
X3125000Y1553000D01*
X3215000Y1553000D02*
X3215000Y1509656D01*
X3215000Y1367000D02*
X3215000Y1409375D01*
%TO.C,C2*%
X3407000Y812000D02*
X3407000Y722000D01*
X3407000Y812000D02*
X3450000Y812000D01*
X3407000Y722000D02*
X3449375Y722000D01*
X3593000Y812000D02*
X3550281Y812000D01*
X3593000Y722000D02*
X3549656Y722000D01*
X3593000Y722000D02*
X3593000Y812000D01*
%TO.C,R7*%
D11*
X4279000Y1620000D02*
X4279000Y1580000D01*
X4361000Y1620000D02*
X4361000Y1580000D01*
%TO.C,U2*%
X7870000Y1375000D02*
X7870000Y1825000D01*
X8530000Y1825000D02*
X8530000Y1375000D01*
D10*
X7860000Y1980000D02*
G75*
G02*
X7840000Y1980000I-10000J0D01*
G01*
X7840000Y1980000D02*
G75*
G02*
X7860000Y1980000I10000J0D01*
G01*
%TO.C,R5*%
D11*
X8889000Y5780864D02*
X8889000Y5820864D01*
X8971000Y5780864D02*
X8971000Y5820864D01*
%TO.C,R13*%
X5669000Y4370000D02*
X5669000Y4330000D01*
X5751000Y4370000D02*
X5751000Y4330000D01*
%TO.C,C12*%
D12*
X3235000Y2033000D02*
X3235000Y1990281D01*
X3235000Y1847000D02*
X3235000Y1890000D01*
X3235000Y1847000D02*
X3325000Y1847000D01*
X3325000Y2033000D02*
X3235000Y2033000D01*
X3325000Y2033000D02*
X3325000Y1989656D01*
X3325000Y1847000D02*
X3325000Y1889375D01*
%TO.C,CON1*%
D13*
X5003250Y3555770D02*
X5363250Y3555770D01*
X5363250Y2873230D01*
X5003250Y2873230D01*
X5003250Y3555770D01*
%TO.C,C11*%
D12*
X930875Y8635000D02*
X930875Y8592281D01*
X930875Y8449000D02*
X930875Y8492000D01*
X930875Y8449000D02*
X1020875Y8449000D01*
X1020875Y8635000D02*
X930875Y8635000D01*
X1020875Y8635000D02*
X1020875Y8591656D01*
X1020875Y8449000D02*
X1020875Y8491375D01*
%TO.C,CON1*%
D13*
X7203250Y5756634D02*
X7563250Y5756634D01*
X7563250Y5074094D01*
X7203250Y5074094D01*
X7203250Y5756634D01*
%TO.C,R4*%
D11*
X8889000Y6030864D02*
X8889000Y5990864D01*
X8971000Y6030864D02*
X8971000Y5990864D01*
%TO.C,R13*%
X3469000Y4370000D02*
X3469000Y4330000D01*
X3551000Y4370000D02*
X3551000Y4330000D01*
%TO.C,R10*%
X1736000Y2138000D02*
X1736000Y2098000D01*
X1818000Y2138000D02*
X1818000Y2098000D01*
%TO.C,C9*%
D12*
X2167739Y5791000D02*
X2167739Y5748625D01*
X2167739Y5605000D02*
X2167739Y5648344D01*
X2167739Y5605000D02*
X2257739Y5605000D01*
X2257739Y5791000D02*
X2167739Y5791000D01*
X2257739Y5791000D02*
X2257739Y5748000D01*
X2257739Y5605000D02*
X2257739Y5647719D01*
%TO.C,C14*%
X5337000Y3975000D02*
X5337000Y3885000D01*
X5337000Y3975000D02*
X5380000Y3975000D01*
X5337000Y3885000D02*
X5379375Y3885000D01*
X5523000Y3975000D02*
X5480281Y3975000D01*
X5523000Y3885000D02*
X5479656Y3885000D01*
X5523000Y3885000D02*
X5523000Y3975000D01*
%TO.C,FB1*%
X7816000Y5320864D02*
X7816000Y5234864D01*
X7816000Y5320864D02*
X7984000Y5320864D01*
X7984000Y5234864D02*
X7816000Y5234864D01*
X7984000Y5234864D02*
X7984000Y5319864D01*
%TO.C,D3*%
D11*
X4292000Y8628000D02*
X4252000Y8628000D01*
%TO.C,R1*%
X5709000Y7663000D02*
X5709000Y7623000D01*
X5791000Y7663000D02*
X5791000Y7623000D01*
%TO.C,C7*%
D12*
X3567000Y4345000D02*
X3567000Y4255000D01*
X3567000Y4345000D02*
X3610344Y4345000D01*
X3567000Y4255000D02*
X3609719Y4255000D01*
X3753000Y4345000D02*
X3710625Y4345000D01*
X3753000Y4255000D02*
X3710000Y4255000D01*
X3753000Y4255000D02*
X3753000Y4345000D01*
%TO.C,R1*%
D11*
X3509000Y1060000D02*
X3509000Y1020000D01*
X3591000Y1060000D02*
X3591000Y1020000D01*
%TO.C,U2*%
X7870000Y5775864D02*
X7870000Y6225864D01*
X8530000Y6225864D02*
X8530000Y5775864D01*
D10*
X7860000Y6380864D02*
G75*
G02*
X7840000Y6380864I-10000J0D01*
G01*
X7840000Y6380864D02*
G75*
G02*
X7860000Y6380864I10000J0D01*
G01*
%TO.C,R7*%
D11*
X8679000Y1620000D02*
X8679000Y1580000D01*
X8761000Y1620000D02*
X8761000Y1580000D01*
%TO.C,C2*%
D12*
X5607000Y3012000D02*
X5607000Y2922000D01*
X5607000Y3012000D02*
X5650000Y3012000D01*
X5607000Y2922000D02*
X5649375Y2922000D01*
X5793000Y3012000D02*
X5750281Y3012000D01*
X5793000Y2922000D02*
X5749656Y2922000D01*
X5793000Y2922000D02*
X5793000Y3012000D01*
%TO.C,C3*%
X6394954Y931000D02*
X6394954Y888625D01*
X6394954Y745000D02*
X6394954Y788344D01*
X6394954Y745000D02*
X6484954Y745000D01*
X6484954Y931000D02*
X6394954Y931000D01*
X6484954Y931000D02*
X6484954Y888000D01*
X6484954Y745000D02*
X6484954Y787719D01*
%TO.C,C15*%
X1040875Y8155000D02*
X1040875Y8112281D01*
X1040875Y7969000D02*
X1040875Y8012000D01*
X1040875Y7969000D02*
X1130875Y7969000D01*
X1130875Y8155000D02*
X1040875Y8155000D01*
X1130875Y8155000D02*
X1130875Y8111656D01*
X1130875Y7969000D02*
X1130875Y8011375D01*
%TO.C,C8*%
X8665000Y5793864D02*
X8665000Y5751489D01*
X8665000Y5607864D02*
X8665000Y5651208D01*
X8665000Y5607864D02*
X8755000Y5607864D01*
X8755000Y5793864D02*
X8665000Y5793864D01*
X8755000Y5793864D02*
X8755000Y5750864D01*
X8755000Y5607864D02*
X8755000Y5650583D01*
%TO.C,C13*%
X942875Y8267000D02*
X942875Y8177000D01*
X942875Y8267000D02*
X986219Y8267000D01*
X942875Y8177000D02*
X985594Y8177000D01*
X1128875Y8267000D02*
X1086500Y8267000D01*
X1128875Y8177000D02*
X1085875Y8177000D01*
X1128875Y8177000D02*
X1128875Y8267000D01*
%TO.C,C2*%
X1207000Y3012000D02*
X1207000Y2922000D01*
X1207000Y3012000D02*
X1250000Y3012000D01*
X1207000Y2922000D02*
X1249375Y2922000D01*
X1393000Y3012000D02*
X1350281Y3012000D01*
X1393000Y2922000D02*
X1349656Y2922000D01*
X1393000Y2922000D02*
X1393000Y3012000D01*
%TO.C,C14*%
X7537000Y8375000D02*
X7537000Y8285000D01*
X7537000Y8375000D02*
X7580000Y8375000D01*
X7537000Y8285000D02*
X7579375Y8285000D01*
X7723000Y8375000D02*
X7680281Y8375000D01*
X7723000Y8285000D02*
X7679656Y8285000D01*
X7723000Y8285000D02*
X7723000Y8375000D01*
%TO.C,C6*%
X3565000Y6653000D02*
X3565000Y6563000D01*
X3565000Y6653000D02*
X3608000Y6653000D01*
X3565000Y6563000D02*
X3607375Y6563000D01*
X3751000Y6653000D02*
X3708281Y6653000D01*
X3751000Y6563000D02*
X3707656Y6563000D01*
X3751000Y6563000D02*
X3751000Y6653000D01*
%TO.C,C3*%
X6395000Y7536000D02*
X6395000Y7493625D01*
X6395000Y7350000D02*
X6395000Y7393344D01*
X6395000Y7350000D02*
X6485000Y7350000D01*
X6485000Y7536000D02*
X6395000Y7536000D01*
X6485000Y7536000D02*
X6485000Y7493000D01*
X6485000Y7350000D02*
X6485000Y7392719D01*
%TO.C,R7*%
D11*
X6479000Y3820000D02*
X6479000Y3780000D01*
X6561000Y3820000D02*
X6561000Y3780000D01*
%TO.C,FB1*%
D12*
X3416000Y920000D02*
X3416000Y834000D01*
X3416000Y920000D02*
X3584000Y920000D01*
X3584000Y834000D02*
X3416000Y834000D01*
X3584000Y834000D02*
X3584000Y919000D01*
%TO.C,R7*%
D11*
X2084875Y8222000D02*
X2084875Y8182000D01*
X2166875Y8222000D02*
X2166875Y8182000D01*
%TO.C,R1*%
X1301739Y5458000D02*
X1301739Y5418000D01*
X1383739Y5458000D02*
X1383739Y5418000D01*
%TO.C,R2*%
X6210000Y7754000D02*
X6250000Y7754000D01*
X6210000Y7672000D02*
X6250000Y7672000D01*
%TO.C,CON1*%
D13*
X7203250Y1355770D02*
X7563250Y1355770D01*
X7563250Y673230D01*
X7203250Y673230D01*
X7203250Y1355770D01*
%TO.C,C13*%
D12*
X929739Y6063000D02*
X929739Y5973000D01*
X929739Y6063000D02*
X973082Y6063000D01*
X929739Y5973000D02*
X972457Y5973000D01*
X1115739Y6063000D02*
X1073364Y6063000D01*
X1115739Y5973000D02*
X1072739Y5973000D01*
X1115739Y5973000D02*
X1115739Y6063000D01*
%TO.C,C4*%
X8480000Y7533000D02*
X8480000Y7490625D01*
X8480000Y7347000D02*
X8480000Y7390344D01*
X8480000Y7347000D02*
X8570000Y7347000D01*
X8570000Y7533000D02*
X8480000Y7533000D01*
X8570000Y7533000D02*
X8570000Y7490000D01*
X8570000Y7347000D02*
X8570000Y7389719D01*
%TO.C,C11*%
X3125000Y4233000D02*
X3125000Y4190281D01*
X3125000Y4047000D02*
X3125000Y4090000D01*
X3125000Y4047000D02*
X3215000Y4047000D01*
X3215000Y4233000D02*
X3125000Y4233000D01*
X3215000Y4233000D02*
X3215000Y4189656D01*
X3215000Y4047000D02*
X3215000Y4089375D01*
%TO.C,R2*%
D11*
X4010000Y1151000D02*
X4050000Y1151000D01*
X4010000Y1069000D02*
X4050000Y1069000D01*
%TO.C,C4*%
D12*
X4080000Y3133000D02*
X4080000Y3090625D01*
X4080000Y2947000D02*
X4080000Y2990344D01*
X4080000Y2947000D02*
X4170000Y2947000D01*
X4170000Y3133000D02*
X4080000Y3133000D01*
X4170000Y3133000D02*
X4170000Y3090000D01*
X4170000Y2947000D02*
X4170000Y2989719D01*
%TO.C,C15*%
X3235000Y8153000D02*
X3235000Y8110281D01*
X3235000Y7967000D02*
X3235000Y8010000D01*
X3235000Y7967000D02*
X3325000Y7967000D01*
X3325000Y8153000D02*
X3235000Y8153000D01*
X3325000Y8153000D02*
X3325000Y8109656D01*
X3325000Y7967000D02*
X3325000Y8009375D01*
%TO.C,C4*%
X1878000Y931000D02*
X1878000Y888625D01*
X1878000Y745000D02*
X1878000Y788344D01*
X1878000Y745000D02*
X1968000Y745000D01*
X1968000Y931000D02*
X1878000Y931000D01*
X1968000Y931000D02*
X1968000Y888000D01*
X1968000Y745000D02*
X1968000Y787719D01*
%TO.C,R11*%
D11*
X4390000Y4011000D02*
X4350000Y4011000D01*
X4390000Y3929000D02*
X4350000Y3929000D01*
%TO.C,C8*%
D12*
X4263000Y5791000D02*
X4263000Y5748625D01*
X4263000Y5605000D02*
X4263000Y5648344D01*
X4263000Y5605000D02*
X4353000Y5605000D01*
X4353000Y5791000D02*
X4263000Y5791000D01*
X4353000Y5791000D02*
X4353000Y5748000D01*
X4353000Y5605000D02*
X4353000Y5647719D01*
%TO.C,C9*%
X4373000Y5791000D02*
X4373000Y5748625D01*
X4373000Y5605000D02*
X4373000Y5648344D01*
X4373000Y5605000D02*
X4463000Y5605000D01*
X4463000Y5791000D02*
X4373000Y5791000D01*
X4463000Y5791000D02*
X4463000Y5748000D01*
X4463000Y5605000D02*
X4463000Y5647719D01*
%TO.C,C3*%
X2000875Y7535000D02*
X2000875Y7492625D01*
X2000875Y7349000D02*
X2000875Y7392344D01*
X2000875Y7349000D02*
X2090875Y7349000D01*
X2090875Y7535000D02*
X2000875Y7535000D01*
X2090875Y7535000D02*
X2090875Y7492000D01*
X2090875Y7349000D02*
X2090875Y7391719D01*
%TO.C,R2*%
D11*
X8410000Y1151000D02*
X8450000Y1151000D01*
X8410000Y1069000D02*
X8450000Y1069000D01*
%TO.C,R5*%
X2287000Y1378000D02*
X2287000Y1418000D01*
X2369000Y1378000D02*
X2369000Y1418000D01*
%TO.C,C5*%
D12*
X1597739Y6611000D02*
X1597739Y6568281D01*
X1597739Y6425000D02*
X1597739Y6468000D01*
X1597739Y6425000D02*
X1687739Y6425000D01*
X1687739Y6611000D02*
X1597739Y6611000D01*
X1687739Y6611000D02*
X1687739Y6567656D01*
X1687739Y6425000D02*
X1687739Y6467375D01*
X8205000Y6613864D02*
X8205000Y6571146D01*
X8205000Y6427864D02*
X8205000Y6470864D01*
X8205000Y6427864D02*
X8295000Y6427864D01*
X8295000Y6613864D02*
X8205000Y6613864D01*
X8295000Y6613864D02*
X8295000Y6570521D01*
X8295000Y6427864D02*
X8295000Y6470239D01*
%TO.C,R14*%
D11*
X6560954Y2126000D02*
X6560954Y2166000D01*
X6642954Y2126000D02*
X6642954Y2166000D01*
%TO.C,FB1*%
D12*
X3416000Y3120000D02*
X3416000Y3034000D01*
X3416000Y3120000D02*
X3584000Y3120000D01*
X3584000Y3034000D02*
X3416000Y3034000D01*
X3584000Y3034000D02*
X3584000Y3119000D01*
%TO.C,C14*%
X929739Y6173000D02*
X929739Y6083000D01*
X929739Y6173000D02*
X972739Y6173000D01*
X929739Y6083000D02*
X972114Y6083000D01*
X1115739Y6173000D02*
X1073020Y6173000D01*
X1115739Y6083000D02*
X1072395Y6083000D01*
X1115739Y6083000D02*
X1115739Y6173000D01*
%TO.C,U1*%
D11*
X1565875Y7337000D02*
X1725875Y7337000D01*
X1725875Y7627000D02*
X1565875Y7627000D01*
X1725875Y7448500D02*
X1725875Y7515500D01*
D10*
X1520875Y7327000D02*
G75*
G02*
X1500875Y7327000I-10000J0D01*
G01*
X1500875Y7327000D02*
G75*
G02*
X1520875Y7327000I10000J0D01*
G01*
%TO.C,R1*%
D11*
X3509000Y3260000D02*
X3509000Y3220000D01*
X3591000Y3260000D02*
X3591000Y3220000D01*
%TO.C,C15*%
D12*
X5434954Y1551000D02*
X5434954Y1508281D01*
X5434954Y1365000D02*
X5434954Y1408000D01*
X5434954Y1365000D02*
X5524954Y1365000D01*
X5524954Y1551000D02*
X5434954Y1551000D01*
X5524954Y1551000D02*
X5524954Y1507656D01*
X5524954Y1365000D02*
X5524954Y1407375D01*
%TO.C,FB1*%
X3414000Y5318000D02*
X3414000Y5232000D01*
X3414000Y5318000D02*
X3582000Y5318000D01*
X3582000Y5232000D02*
X3414000Y5232000D01*
X3582000Y5232000D02*
X3582000Y5317000D01*
%TO.C,C11*%
X5325000Y8636000D02*
X5325000Y8593281D01*
X5325000Y8450000D02*
X5325000Y8493000D01*
X5325000Y8450000D02*
X5415000Y8450000D01*
X5415000Y8636000D02*
X5325000Y8636000D01*
X5415000Y8636000D02*
X5415000Y8592656D01*
X5415000Y8450000D02*
X5415000Y8492375D01*
%TO.C,CON1*%
D13*
X2803250Y1355770D02*
X3163250Y1355770D01*
X3163250Y673230D01*
X2803250Y673230D01*
X2803250Y1355770D01*
%TO.C,R7*%
D11*
X8679000Y8220000D02*
X8679000Y8180000D01*
X8761000Y8220000D02*
X8761000Y8180000D01*
%TO.C,C15*%
D12*
X1035000Y3753000D02*
X1035000Y3710281D01*
X1035000Y3567000D02*
X1035000Y3610000D01*
X1035000Y3567000D02*
X1125000Y3567000D01*
X1125000Y3753000D02*
X1035000Y3753000D01*
X1125000Y3753000D02*
X1125000Y3709656D01*
X1125000Y3567000D02*
X1125000Y3609375D01*
%TO.C,C6*%
X5767000Y4455000D02*
X5767000Y4365000D01*
X5767000Y4455000D02*
X5810000Y4455000D01*
X5767000Y4365000D02*
X5809375Y4365000D01*
X5953000Y4455000D02*
X5910281Y4455000D01*
X5953000Y4365000D02*
X5909656Y4365000D01*
X5953000Y4365000D02*
X5953000Y4455000D01*
%TO.C,R10*%
D11*
X1743875Y8742000D02*
X1743875Y8702000D01*
X1825875Y8742000D02*
X1825875Y8702000D01*
%TO.C,R13*%
X5669000Y8773000D02*
X5669000Y8733000D01*
X5751000Y8773000D02*
X5751000Y8733000D01*
%TO.C,C1*%
D12*
X1193000Y1126000D02*
X1193000Y1083625D01*
X1193000Y940000D02*
X1193000Y983344D01*
X1193000Y940000D02*
X1283000Y940000D01*
X1283000Y1126000D02*
X1193000Y1126000D01*
X1283000Y1126000D02*
X1283000Y1083000D01*
X1283000Y940000D02*
X1283000Y982719D01*
%TO.C,R11*%
D11*
X8790000Y6211864D02*
X8750000Y6211864D01*
X8790000Y6129864D02*
X8750000Y6129864D01*
%TO.C,R12*%
X4598000Y6209000D02*
X4558000Y6209000D01*
X4598000Y6127000D02*
X4558000Y6127000D01*
%TO.C,R2*%
X4008000Y5549000D02*
X4048000Y5549000D01*
X4008000Y5467000D02*
X4048000Y5467000D01*
%TO.C,C6*%
D12*
X1359739Y6653000D02*
X1359739Y6563000D01*
X1359739Y6653000D02*
X1402739Y6653000D01*
X1359739Y6563000D02*
X1402114Y6563000D01*
X1545739Y6653000D02*
X1503020Y6653000D01*
X1545739Y6563000D02*
X1502395Y6563000D01*
X1545739Y6563000D02*
X1545739Y6653000D01*
%TO.C,U1*%
D11*
X5960000Y2935000D02*
X6120000Y2935000D01*
X6120000Y3225000D02*
X5960000Y3225000D01*
X6120000Y3046500D02*
X6120000Y3113500D01*
D10*
X5915000Y2925000D02*
G75*
G02*
X5895000Y2925000I-10000J0D01*
G01*
X5895000Y2925000D02*
G75*
G02*
X5915000Y2925000I10000J0D01*
G01*
%TO.C,R10*%
D11*
X6137954Y2138000D02*
X6137954Y2098000D01*
X6219954Y2138000D02*
X6219954Y2098000D01*
%TO.C,C9*%
D12*
X8775000Y1393000D02*
X8775000Y1350625D01*
X8775000Y1207000D02*
X8775000Y1250344D01*
X8775000Y1207000D02*
X8865000Y1207000D01*
X8865000Y1393000D02*
X8775000Y1393000D01*
X8865000Y1393000D02*
X8865000Y1350000D01*
X8865000Y1207000D02*
X8865000Y1249719D01*
%TO.C,C1*%
X3395000Y3328000D02*
X3395000Y3285625D01*
X3395000Y3142000D02*
X3395000Y3185344D01*
X3395000Y3142000D02*
X3485000Y3142000D01*
X3485000Y3328000D02*
X3395000Y3328000D01*
X3485000Y3328000D02*
X3485000Y3285000D01*
X3485000Y3142000D02*
X3485000Y3184719D01*
%TO.C,R5*%
D11*
X4489000Y1380000D02*
X4489000Y1420000D01*
X4571000Y1380000D02*
X4571000Y1420000D01*
%TO.C,C4*%
D12*
X8480000Y933000D02*
X8480000Y890625D01*
X8480000Y747000D02*
X8480000Y790344D01*
X8480000Y747000D02*
X8570000Y747000D01*
X8570000Y933000D02*
X8480000Y933000D01*
X8570000Y933000D02*
X8570000Y890000D01*
X8570000Y747000D02*
X8570000Y789719D01*
%TO.C,R11*%
D11*
X6590000Y4011000D02*
X6550000Y4011000D01*
X6590000Y3929000D02*
X6550000Y3929000D01*
%TO.C,D3*%
X2084739Y6426000D02*
X2044739Y6426000D01*
%TO.C,C12*%
D12*
X3233000Y6431000D02*
X3233000Y6388281D01*
X3233000Y6245000D02*
X3233000Y6288000D01*
X3233000Y6245000D02*
X3323000Y6245000D01*
X3323000Y6431000D02*
X3233000Y6431000D01*
X3323000Y6431000D02*
X3323000Y6387656D01*
X3323000Y6245000D02*
X3323000Y6287375D01*
%TO.C,C9*%
X6575000Y3593000D02*
X6575000Y3550625D01*
X6575000Y3407000D02*
X6575000Y3450344D01*
X6575000Y3407000D02*
X6665000Y3407000D01*
X6665000Y3593000D02*
X6575000Y3593000D01*
X6665000Y3593000D02*
X6665000Y3550000D01*
X6665000Y3407000D02*
X6665000Y3449719D01*
%TO.C,C16*%
X3123000Y5951000D02*
X3123000Y5908281D01*
X3123000Y5765000D02*
X3123000Y5808000D01*
X3123000Y5765000D02*
X3213000Y5765000D01*
X3213000Y5951000D02*
X3123000Y5951000D01*
X3213000Y5951000D02*
X3213000Y5907656D01*
X3213000Y5765000D02*
X3213000Y5807375D01*
%TO.C,C14*%
X5337000Y8378000D02*
X5337000Y8288000D01*
X5337000Y8378000D02*
X5380000Y8378000D01*
X5337000Y8288000D02*
X5379375Y8288000D01*
X5523000Y8378000D02*
X5480281Y8378000D01*
X5523000Y8288000D02*
X5479656Y8288000D01*
X5523000Y8288000D02*
X5523000Y8378000D01*
%TO.C,C1*%
X7795000Y7728000D02*
X7795000Y7685625D01*
X7795000Y7542000D02*
X7795000Y7585344D01*
X7795000Y7542000D02*
X7885000Y7542000D01*
X7885000Y7728000D02*
X7795000Y7728000D01*
X7885000Y7728000D02*
X7885000Y7685000D01*
X7885000Y7542000D02*
X7885000Y7584719D01*
%TO.C,C10*%
X3013000Y6431000D02*
X3013000Y6388281D01*
X3013000Y6245000D02*
X3013000Y6288000D01*
X3013000Y6245000D02*
X3103000Y6245000D01*
X3103000Y6431000D02*
X3013000Y6431000D01*
X3103000Y6431000D02*
X3103000Y6387656D01*
X3103000Y6245000D02*
X3103000Y6287375D01*
%TO.C,C5*%
X3803000Y6611000D02*
X3803000Y6568281D01*
X3803000Y6425000D02*
X3803000Y6468000D01*
X3803000Y6425000D02*
X3893000Y6425000D01*
X3893000Y6611000D02*
X3803000Y6611000D01*
X3893000Y6611000D02*
X3893000Y6567656D01*
X3893000Y6425000D02*
X3893000Y6467375D01*
%TO.C,C14*%
X3135000Y6173000D02*
X3135000Y6083000D01*
X3135000Y6173000D02*
X3178000Y6173000D01*
X3135000Y6083000D02*
X3177375Y6083000D01*
X3321000Y6173000D02*
X3278281Y6173000D01*
X3321000Y6083000D02*
X3277656Y6083000D01*
X3321000Y6083000D02*
X3321000Y6173000D01*
%TO.C,R10*%
D11*
X8338000Y6540864D02*
X8338000Y6500864D01*
X8420000Y6540864D02*
X8420000Y6500864D01*
%TO.C,R12*%
X4600000Y1811000D02*
X4560000Y1811000D01*
X4600000Y1729000D02*
X4560000Y1729000D01*
%TO.C,C7*%
D12*
X1372875Y8747000D02*
X1372875Y8657000D01*
X1372875Y8747000D02*
X1416219Y8747000D01*
X1372875Y8657000D02*
X1415594Y8657000D01*
X1558875Y8747000D02*
X1516500Y8747000D01*
X1558875Y8657000D02*
X1515875Y8657000D01*
X1558875Y8657000D02*
X1558875Y8747000D01*
%TO.C,C16*%
X917739Y5951000D02*
X917739Y5908281D01*
X917739Y5765000D02*
X917739Y5808000D01*
X917739Y5765000D02*
X1007739Y5765000D01*
X1007739Y5951000D02*
X917739Y5951000D01*
X1007739Y5951000D02*
X1007739Y5907656D01*
X1007739Y5765000D02*
X1007739Y5807375D01*
%TO.C,C13*%
X7537000Y3865000D02*
X7537000Y3775000D01*
X7537000Y3865000D02*
X7580344Y3865000D01*
X7537000Y3775000D02*
X7579719Y3775000D01*
X7723000Y3865000D02*
X7680625Y3865000D01*
X7723000Y3775000D02*
X7680000Y3775000D01*
X7723000Y3775000D02*
X7723000Y3865000D01*
%TO.C,C16*%
X7525000Y3753000D02*
X7525000Y3710281D01*
X7525000Y3567000D02*
X7525000Y3610000D01*
X7525000Y3567000D02*
X7615000Y3567000D01*
X7615000Y3753000D02*
X7525000Y3753000D01*
X7615000Y3753000D02*
X7615000Y3709656D01*
X7615000Y3567000D02*
X7615000Y3609375D01*
%TO.C,U2*%
D11*
X1270000Y3575000D02*
X1270000Y4025000D01*
X1930000Y4025000D02*
X1930000Y3575000D01*
D10*
X1260000Y4180000D02*
G75*
G02*
X1240000Y4180000I-10000J0D01*
G01*
X1240000Y4180000D02*
G75*
G02*
X1260000Y4180000I10000J0D01*
G01*
%TO.C,U1*%
D11*
X3758000Y5133000D02*
X3918000Y5133000D01*
X3918000Y5423000D02*
X3758000Y5423000D01*
X3918000Y5244500D02*
X3918000Y5311500D01*
D10*
X3713000Y5123000D02*
G75*
G02*
X3693000Y5123000I-10000J0D01*
G01*
X3693000Y5123000D02*
G75*
G02*
X3713000Y5123000I10000J0D01*
G01*
%TO.C,R4*%
D11*
X2289000Y3830000D02*
X2289000Y3790000D01*
X2371000Y3830000D02*
X2371000Y3790000D01*
%TO.C,C7*%
D12*
X5766302Y6545000D02*
X5766302Y6455000D01*
X5766302Y6545000D02*
X5809646Y6545000D01*
X5766302Y6455000D02*
X5809021Y6455000D01*
X5952302Y6545000D02*
X5909927Y6545000D01*
X5952302Y6455000D02*
X5909302Y6455000D01*
X5952302Y6455000D02*
X5952302Y6545000D01*
%TO.C,R4*%
D11*
X2294875Y8232000D02*
X2294875Y8192000D01*
X2376875Y8232000D02*
X2376875Y8192000D01*
%TO.C,C3*%
D12*
X4195000Y933000D02*
X4195000Y890625D01*
X4195000Y747000D02*
X4195000Y790344D01*
X4195000Y747000D02*
X4285000Y747000D01*
X4285000Y933000D02*
X4195000Y933000D01*
X4285000Y933000D02*
X4285000Y890000D01*
X4285000Y747000D02*
X4285000Y789719D01*
%TO.C,C10*%
X7415000Y6433864D02*
X7415000Y6391146D01*
X7415000Y6247864D02*
X7415000Y6290864D01*
X7415000Y6247864D02*
X7505000Y6247864D01*
X7505000Y6433864D02*
X7415000Y6433864D01*
X7505000Y6433864D02*
X7505000Y6390521D01*
X7505000Y6247864D02*
X7505000Y6290239D01*
%TO.C,C4*%
X1872739Y5331000D02*
X1872739Y5288625D01*
X1872739Y5145000D02*
X1872739Y5188344D01*
X1872739Y5145000D02*
X1962739Y5145000D01*
X1962739Y5331000D02*
X1872739Y5331000D01*
X1962739Y5331000D02*
X1962739Y5288000D01*
X1962739Y5145000D02*
X1962739Y5187719D01*
%TO.C,C15*%
X7635000Y1553000D02*
X7635000Y1510281D01*
X7635000Y1367000D02*
X7635000Y1410000D01*
X7635000Y1367000D02*
X7725000Y1367000D01*
X7725000Y1553000D02*
X7635000Y1553000D01*
X7725000Y1553000D02*
X7725000Y1509656D01*
X7725000Y1367000D02*
X7725000Y1409375D01*
%TO.C,C7*%
X5766954Y2143000D02*
X5766954Y2053000D01*
X5766954Y2143000D02*
X5810298Y2143000D01*
X5766954Y2053000D02*
X5809673Y2053000D01*
X5952954Y2143000D02*
X5910579Y2143000D01*
X5952954Y2053000D02*
X5909954Y2053000D01*
X5952954Y2053000D02*
X5952954Y2143000D01*
%TO.C,C15*%
X7635000Y8153000D02*
X7635000Y8110281D01*
X7635000Y7967000D02*
X7635000Y8010000D01*
X7635000Y7967000D02*
X7725000Y7967000D01*
X7725000Y8153000D02*
X7635000Y8153000D01*
X7725000Y8153000D02*
X7725000Y8109656D01*
X7725000Y7967000D02*
X7725000Y8009375D01*
%TO.C,D3*%
D11*
X8692000Y8628000D02*
X8652000Y8628000D01*
%TO.C,C8*%
D12*
X2057739Y5791000D02*
X2057739Y5748625D01*
X2057739Y5605000D02*
X2057739Y5648344D01*
X2057739Y5605000D02*
X2147739Y5605000D01*
X2147739Y5791000D02*
X2057739Y5791000D01*
X2147739Y5791000D02*
X2147739Y5748000D01*
X2147739Y5605000D02*
X2147739Y5647719D01*
%TO.C,FB1*%
X3416000Y7520000D02*
X3416000Y7434000D01*
X3416000Y7520000D02*
X3584000Y7520000D01*
X3584000Y7434000D02*
X3416000Y7434000D01*
X3584000Y7434000D02*
X3584000Y7519000D01*
%TO.C,C6*%
X1367000Y4455000D02*
X1367000Y4365000D01*
X1367000Y4455000D02*
X1410000Y4455000D01*
X1367000Y4365000D02*
X1409375Y4365000D01*
X1553000Y4455000D02*
X1510281Y4455000D01*
X1553000Y4365000D02*
X1509656Y4365000D01*
X1553000Y4365000D02*
X1553000Y4455000D01*
%TO.C,R7*%
D11*
X4279000Y8220000D02*
X4279000Y8180000D01*
X4361000Y8220000D02*
X4361000Y8180000D01*
%TO.C,R11*%
X8790000Y4011000D02*
X8750000Y4011000D01*
X8790000Y3929000D02*
X8750000Y3929000D01*
%TO.C,C10*%
D12*
X807739Y6431000D02*
X807739Y6388281D01*
X807739Y6245000D02*
X807739Y6288000D01*
X807739Y6245000D02*
X897739Y6245000D01*
X897739Y6431000D02*
X807739Y6431000D01*
X897739Y6431000D02*
X897739Y6387656D01*
X897739Y6245000D02*
X897739Y6287375D01*
%TO.C,C8*%
X8665000Y7993000D02*
X8665000Y7950625D01*
X8665000Y7807000D02*
X8665000Y7850344D01*
X8665000Y7807000D02*
X8755000Y7807000D01*
X8755000Y7993000D02*
X8665000Y7993000D01*
X8755000Y7993000D02*
X8755000Y7950000D01*
X8755000Y7807000D02*
X8755000Y7849719D01*
%TO.C,R2*%
D11*
X1810000Y3351000D02*
X1850000Y3351000D01*
X1810000Y3269000D02*
X1850000Y3269000D01*
%TO.C,C4*%
D12*
X4080000Y933000D02*
X4080000Y890625D01*
X4080000Y747000D02*
X4080000Y790344D01*
X4080000Y747000D02*
X4170000Y747000D01*
X4170000Y933000D02*
X4080000Y933000D01*
X4170000Y933000D02*
X4170000Y890000D01*
X4170000Y747000D02*
X4170000Y789719D01*
%TO.C,C6*%
X1365000Y2253000D02*
X1365000Y2163000D01*
X1365000Y2253000D02*
X1408000Y2253000D01*
X1365000Y2163000D02*
X1407375Y2163000D01*
X1551000Y2253000D02*
X1508281Y2253000D01*
X1551000Y2163000D02*
X1507656Y2163000D01*
X1551000Y2163000D02*
X1551000Y2253000D01*
%TO.C,C16*%
X5325000Y8156000D02*
X5325000Y8113281D01*
X5325000Y7970000D02*
X5325000Y8013000D01*
X5325000Y7970000D02*
X5415000Y7970000D01*
X5415000Y8156000D02*
X5325000Y8156000D01*
X5415000Y8156000D02*
X5415000Y8112656D01*
X5415000Y7970000D02*
X5415000Y8012375D01*
%TO.C,U1*%
D11*
X1560000Y2935000D02*
X1720000Y2935000D01*
X1720000Y3225000D02*
X1560000Y3225000D01*
X1720000Y3046500D02*
X1720000Y3113500D01*
D10*
X1515000Y2925000D02*
G75*
G02*
X1495000Y2925000I-10000J0D01*
G01*
X1495000Y2925000D02*
G75*
G02*
X1515000Y2925000I10000J0D01*
G01*
%TO.C,R13*%
D11*
X3467000Y6568000D02*
X3467000Y6528000D01*
X3549000Y6568000D02*
X3549000Y6528000D01*
%TO.C,C1*%
D12*
X5595000Y7731000D02*
X5595000Y7688625D01*
X5595000Y7545000D02*
X5595000Y7588344D01*
X5595000Y7545000D02*
X5685000Y7545000D01*
X5685000Y7731000D02*
X5595000Y7731000D01*
X5685000Y7731000D02*
X5685000Y7688000D01*
X5685000Y7545000D02*
X5685000Y7587719D01*
%TO.C,C2*%
X7807000Y812000D02*
X7807000Y722000D01*
X7807000Y812000D02*
X7850000Y812000D01*
X7807000Y722000D02*
X7849375Y722000D01*
X7993000Y812000D02*
X7950281Y812000D01*
X7993000Y722000D02*
X7949656Y722000D01*
X7993000Y722000D02*
X7993000Y812000D01*
%TO.C,R1*%
D11*
X5708302Y5460000D02*
X5708302Y5420000D01*
X5790302Y5460000D02*
X5790302Y5420000D01*
%TO.C,U2*%
X7870000Y7975000D02*
X7870000Y8425000D01*
X8530000Y8425000D02*
X8530000Y7975000D01*
D10*
X7860000Y8580000D02*
G75*
G02*
X7840000Y8580000I-10000J0D01*
G01*
X7840000Y8580000D02*
G75*
G02*
X7860000Y8580000I10000J0D01*
G01*
%TO.C,C16*%
D12*
X7525000Y8153000D02*
X7525000Y8110281D01*
X7525000Y7967000D02*
X7525000Y8010000D01*
X7525000Y7967000D02*
X7615000Y7967000D01*
X7615000Y8153000D02*
X7525000Y8153000D01*
X7615000Y8153000D02*
X7615000Y8109656D01*
X7615000Y7967000D02*
X7615000Y8009375D01*
%TO.C,R7*%
D11*
X6478302Y6020000D02*
X6478302Y5980000D01*
X6560302Y6020000D02*
X6560302Y5980000D01*
%TO.C,C11*%
D12*
X925000Y4233000D02*
X925000Y4190281D01*
X925000Y4047000D02*
X925000Y4090000D01*
X925000Y4047000D02*
X1015000Y4047000D01*
X1015000Y4233000D02*
X925000Y4233000D01*
X1015000Y4233000D02*
X1015000Y4189656D01*
X1015000Y4047000D02*
X1015000Y4089375D01*
%TO.C,C7*%
X1365000Y2143000D02*
X1365000Y2053000D01*
X1365000Y2143000D02*
X1408344Y2143000D01*
X1365000Y2053000D02*
X1407719Y2053000D01*
X1551000Y2143000D02*
X1508625Y2143000D01*
X1551000Y2053000D02*
X1508000Y2053000D01*
X1551000Y2053000D02*
X1551000Y2143000D01*
%TO.C,CON1*%
D13*
X2803250Y7955770D02*
X3163250Y7955770D01*
X3163250Y7273230D01*
X2803250Y7273230D01*
X2803250Y7955770D01*
%TO.C,C2*%
D12*
X7807000Y5212864D02*
X7807000Y5122864D01*
X7807000Y5212864D02*
X7850000Y5212864D01*
X7807000Y5122864D02*
X7849375Y5122864D01*
X7993000Y5212864D02*
X7950281Y5212864D01*
X7993000Y5122864D02*
X7949656Y5122864D01*
X7993000Y5122864D02*
X7993000Y5212864D01*
%TO.C,D3*%
D11*
X4292000Y4228000D02*
X4252000Y4228000D01*
%TO.C,C10*%
D12*
X7415000Y8633000D02*
X7415000Y8590281D01*
X7415000Y8447000D02*
X7415000Y8490000D01*
X7415000Y8447000D02*
X7505000Y8447000D01*
X7505000Y8633000D02*
X7415000Y8633000D01*
X7505000Y8633000D02*
X7505000Y8589656D01*
X7505000Y8447000D02*
X7505000Y8489375D01*
%TO.C,C7*%
X5767000Y4345000D02*
X5767000Y4255000D01*
X5767000Y4345000D02*
X5810344Y4345000D01*
X5767000Y4255000D02*
X5809719Y4255000D01*
X5953000Y4345000D02*
X5910625Y4345000D01*
X5953000Y4255000D02*
X5910000Y4255000D01*
X5953000Y4255000D02*
X5953000Y4345000D01*
%TO.C,R11*%
D11*
X2182739Y6209000D02*
X2142739Y6209000D01*
X2182739Y6127000D02*
X2142739Y6127000D01*
%TO.C,C13*%
D12*
X7537000Y6065864D02*
X7537000Y5975864D01*
X7537000Y6065864D02*
X7580344Y6065864D01*
X7537000Y5975864D02*
X7579719Y5975864D01*
X7723000Y6065864D02*
X7680625Y6065864D01*
X7723000Y5975864D02*
X7680000Y5975864D01*
X7723000Y5975864D02*
X7723000Y6065864D01*
%TO.C,R14*%
D11*
X8761000Y4328000D02*
X8761000Y4368000D01*
X8843000Y4328000D02*
X8843000Y4368000D01*
%TO.C,C10*%
D12*
X820875Y8635000D02*
X820875Y8592281D01*
X820875Y8449000D02*
X820875Y8492000D01*
X820875Y8449000D02*
X910875Y8449000D01*
X910875Y8635000D02*
X820875Y8635000D01*
X910875Y8635000D02*
X910875Y8591656D01*
X910875Y8449000D02*
X910875Y8491375D01*
%TO.C,C11*%
X5324302Y6433000D02*
X5324302Y6390281D01*
X5324302Y6247000D02*
X5324302Y6290000D01*
X5324302Y6247000D02*
X5414302Y6247000D01*
X5414302Y6433000D02*
X5324302Y6433000D01*
X5414302Y6433000D02*
X5414302Y6389656D01*
X5414302Y6247000D02*
X5414302Y6289375D01*
%TO.C,R10*%
D11*
X6138000Y8743000D02*
X6138000Y8703000D01*
X6220000Y8743000D02*
X6220000Y8703000D01*
%TO.C,R4*%
X8889000Y8230000D02*
X8889000Y8190000D01*
X8971000Y8230000D02*
X8971000Y8190000D01*
%TO.C,R10*%
X1730739Y6538000D02*
X1730739Y6498000D01*
X1812739Y6538000D02*
X1812739Y6498000D01*
%TO.C,C7*%
D12*
X5767000Y8748000D02*
X5767000Y8658000D01*
X5767000Y8748000D02*
X5810344Y8748000D01*
X5767000Y8658000D02*
X5809719Y8658000D01*
X5953000Y8748000D02*
X5910625Y8748000D01*
X5953000Y8658000D02*
X5910000Y8658000D01*
X5953000Y8658000D02*
X5953000Y8748000D01*
%TO.C,U2*%
D11*
X5669954Y1373000D02*
X5669954Y1823000D01*
X6329954Y1823000D02*
X6329954Y1373000D01*
D10*
X5659954Y1978000D02*
G75*
G02*
X5639954Y1978000I-10000J0D01*
G01*
X5639954Y1978000D02*
G75*
G02*
X5659954Y1978000I10000J0D01*
G01*
%TO.C,C7*%
D12*
X7967000Y8745000D02*
X7967000Y8655000D01*
X7967000Y8745000D02*
X8010344Y8745000D01*
X7967000Y8655000D02*
X8009719Y8655000D01*
X8153000Y8745000D02*
X8110625Y8745000D01*
X8153000Y8655000D02*
X8110000Y8655000D01*
X8153000Y8655000D02*
X8153000Y8745000D01*
%TO.C,C8*%
X8665000Y1393000D02*
X8665000Y1350625D01*
X8665000Y1207000D02*
X8665000Y1250344D01*
X8665000Y1207000D02*
X8755000Y1207000D01*
X8755000Y1393000D02*
X8665000Y1393000D01*
X8755000Y1393000D02*
X8755000Y1350000D01*
X8755000Y1207000D02*
X8755000Y1249719D01*
X6465000Y3593000D02*
X6465000Y3550625D01*
X6465000Y3407000D02*
X6465000Y3450344D01*
X6465000Y3407000D02*
X6555000Y3407000D01*
X6555000Y3593000D02*
X6465000Y3593000D01*
X6555000Y3593000D02*
X6555000Y3550000D01*
X6555000Y3407000D02*
X6555000Y3449719D01*
%TO.C,R5*%
D11*
X8889000Y7980000D02*
X8889000Y8020000D01*
X8971000Y7980000D02*
X8971000Y8020000D01*
%TO.C,R9*%
X8240000Y1151000D02*
X8200000Y1151000D01*
X8240000Y1069000D02*
X8200000Y1069000D01*
%TO.C,FB1*%
D12*
X1216000Y3120000D02*
X1216000Y3034000D01*
X1216000Y3120000D02*
X1384000Y3120000D01*
X1384000Y3034000D02*
X1216000Y3034000D01*
X1384000Y3034000D02*
X1384000Y3119000D01*
%TO.C,R10*%
D11*
X1738000Y4340000D02*
X1738000Y4300000D01*
X1820000Y4340000D02*
X1820000Y4300000D01*
%TO.C,C15*%
D12*
X3233000Y5951000D02*
X3233000Y5908281D01*
X3233000Y5765000D02*
X3233000Y5808000D01*
X3233000Y5765000D02*
X3323000Y5765000D01*
X3323000Y5951000D02*
X3233000Y5951000D01*
X3323000Y5951000D02*
X3323000Y5907656D01*
X3323000Y5765000D02*
X3323000Y5807375D01*
%TO.C,CON1*%
D13*
X7203250Y7955770D02*
X7563250Y7955770D01*
X7563250Y7273230D01*
X7203250Y7273230D01*
X7203250Y7955770D01*
%TO.C,C12*%
D12*
X3235000Y8633000D02*
X3235000Y8590281D01*
X3235000Y8447000D02*
X3235000Y8490000D01*
X3235000Y8447000D02*
X3325000Y8447000D01*
X3325000Y8633000D02*
X3235000Y8633000D01*
X3325000Y8633000D02*
X3325000Y8589656D01*
X3325000Y8447000D02*
X3325000Y8489375D01*
%TO.C,FB1*%
X5615954Y918000D02*
X5615954Y832000D01*
X5615954Y918000D02*
X5783954Y918000D01*
X5783954Y832000D02*
X5615954Y832000D01*
X5783954Y832000D02*
X5783954Y917000D01*
%TO.C,C10*%
X3015000Y2033000D02*
X3015000Y1990281D01*
X3015000Y1847000D02*
X3015000Y1890000D01*
X3015000Y1847000D02*
X3105000Y1847000D01*
X3105000Y2033000D02*
X3015000Y2033000D01*
X3105000Y2033000D02*
X3105000Y1989656D01*
X3105000Y1847000D02*
X3105000Y1889375D01*
%TO.C,C14*%
X5336302Y6175000D02*
X5336302Y6085000D01*
X5336302Y6175000D02*
X5379302Y6175000D01*
X5336302Y6085000D02*
X5378677Y6085000D01*
X5522302Y6175000D02*
X5479583Y6175000D01*
X5522302Y6085000D02*
X5478958Y6085000D01*
X5522302Y6085000D02*
X5522302Y6175000D01*
%TO.C,CON1*%
D13*
X2803250Y3555770D02*
X3163250Y3555770D01*
X3163250Y2873230D01*
X2803250Y2873230D01*
X2803250Y3555770D01*
%TO.C,FB1*%
D12*
X1214000Y918000D02*
X1214000Y832000D01*
X1214000Y918000D02*
X1382000Y918000D01*
X1382000Y832000D02*
X1214000Y832000D01*
X1382000Y832000D02*
X1382000Y917000D01*
%TO.C,R12*%
D11*
X9000000Y6211864D02*
X8960000Y6211864D01*
X9000000Y6129864D02*
X8960000Y6129864D01*
%TO.C,R4*%
X8889000Y1630000D02*
X8889000Y1590000D01*
X8971000Y1630000D02*
X8971000Y1590000D01*
%TO.C,R13*%
X7869000Y4370000D02*
X7869000Y4330000D01*
X7951000Y4370000D02*
X7951000Y4330000D01*
%TO.C,R4*%
X2287000Y1628000D02*
X2287000Y1588000D01*
X2369000Y1628000D02*
X2369000Y1588000D01*
%TO.C,U1*%
X8160000Y2935000D02*
X8320000Y2935000D01*
X8320000Y3225000D02*
X8160000Y3225000D01*
X8320000Y3046500D02*
X8320000Y3113500D01*
D10*
X8115000Y2925000D02*
G75*
G02*
X8095000Y2925000I-10000J0D01*
G01*
X8095000Y2925000D02*
G75*
G02*
X8115000Y2925000I10000J0D01*
G01*
%TO.C,R5*%
D11*
X2294875Y7982000D02*
X2294875Y8022000D01*
X2376875Y7982000D02*
X2376875Y8022000D01*
%TO.C,C14*%
D12*
X7537000Y6175864D02*
X7537000Y6085864D01*
X7537000Y6175864D02*
X7580000Y6175864D01*
X7537000Y6085864D02*
X7579375Y6085864D01*
X7723000Y6175864D02*
X7680281Y6175864D01*
X7723000Y6085864D02*
X7679656Y6085864D01*
X7723000Y6085864D02*
X7723000Y6175864D01*
%TO.C,C2*%
X3407000Y3012000D02*
X3407000Y2922000D01*
X3407000Y3012000D02*
X3450000Y3012000D01*
X3407000Y2922000D02*
X3449375Y2922000D01*
X3593000Y3012000D02*
X3550281Y3012000D01*
X3593000Y2922000D02*
X3549656Y2922000D01*
X3593000Y2922000D02*
X3593000Y3012000D01*
%TO.C,C7*%
X1367000Y4345000D02*
X1367000Y4255000D01*
X1367000Y4345000D02*
X1410344Y4345000D01*
X1367000Y4255000D02*
X1409719Y4255000D01*
X1553000Y4345000D02*
X1510625Y4345000D01*
X1553000Y4255000D02*
X1510000Y4255000D01*
X1553000Y4255000D02*
X1553000Y4345000D01*
%TO.C,R1*%
D11*
X7909000Y3260000D02*
X7909000Y3220000D01*
X7991000Y3260000D02*
X7991000Y3220000D01*
%TO.C,R5*%
X6689000Y3580000D02*
X6689000Y3620000D01*
X6771000Y3580000D02*
X6771000Y3620000D01*
%TO.C,C3*%
D12*
X8595000Y3133000D02*
X8595000Y3090625D01*
X8595000Y2947000D02*
X8595000Y2990344D01*
X8595000Y2947000D02*
X8685000Y2947000D01*
X8685000Y3133000D02*
X8595000Y3133000D01*
X8685000Y3133000D02*
X8685000Y3090000D01*
X8685000Y2947000D02*
X8685000Y2989719D01*
%TO.C,R11*%
D11*
X4388000Y6209000D02*
X4348000Y6209000D01*
X4388000Y6127000D02*
X4348000Y6127000D01*
%TO.C,C14*%
D12*
X5336954Y1773000D02*
X5336954Y1683000D01*
X5336954Y1773000D02*
X5379954Y1773000D01*
X5336954Y1683000D02*
X5379329Y1683000D01*
X5522954Y1773000D02*
X5480236Y1773000D01*
X5522954Y1683000D02*
X5479611Y1683000D01*
X5522954Y1683000D02*
X5522954Y1773000D01*
%TO.C,C9*%
X6575000Y7996000D02*
X6575000Y7953625D01*
X6575000Y7810000D02*
X6575000Y7853344D01*
X6575000Y7810000D02*
X6665000Y7810000D01*
X6665000Y7996000D02*
X6575000Y7996000D01*
X6665000Y7996000D02*
X6665000Y7953000D01*
X6665000Y7810000D02*
X6665000Y7852719D01*
%TO.C,C15*%
X5434302Y5953000D02*
X5434302Y5910281D01*
X5434302Y5767000D02*
X5434302Y5810000D01*
X5434302Y5767000D02*
X5524302Y5767000D01*
X5524302Y5953000D02*
X5434302Y5953000D01*
X5524302Y5953000D02*
X5524302Y5909656D01*
X5524302Y5767000D02*
X5524302Y5809375D01*
X5435000Y8156000D02*
X5435000Y8113281D01*
X5435000Y7970000D02*
X5435000Y8013000D01*
X5435000Y7970000D02*
X5525000Y7970000D01*
X5525000Y8156000D02*
X5435000Y8156000D01*
X5525000Y8156000D02*
X5525000Y8112656D01*
X5525000Y7970000D02*
X5525000Y8012375D01*
%TO.C,FB1*%
X7816000Y920000D02*
X7816000Y834000D01*
X7816000Y920000D02*
X7984000Y920000D01*
X7984000Y834000D02*
X7816000Y834000D01*
X7984000Y834000D02*
X7984000Y919000D01*
%TO.C,C16*%
X5324954Y1551000D02*
X5324954Y1508281D01*
X5324954Y1365000D02*
X5324954Y1408000D01*
X5324954Y1365000D02*
X5414954Y1365000D01*
X5414954Y1551000D02*
X5324954Y1551000D01*
X5414954Y1551000D02*
X5414954Y1507656D01*
X5414954Y1365000D02*
X5414954Y1407375D01*
%TO.C,R2*%
D11*
X6209954Y1149000D02*
X6249954Y1149000D01*
X6209954Y1067000D02*
X6249954Y1067000D01*
%TO.C,R12*%
X2398000Y1809000D02*
X2358000Y1809000D01*
X2398000Y1727000D02*
X2358000Y1727000D01*
%TO.C,C10*%
D12*
X3015000Y4233000D02*
X3015000Y4190281D01*
X3015000Y4047000D02*
X3015000Y4090000D01*
X3015000Y4047000D02*
X3105000Y4047000D01*
X3105000Y4233000D02*
X3015000Y4233000D01*
X3105000Y4233000D02*
X3105000Y4189656D01*
X3105000Y4047000D02*
X3105000Y4089375D01*
%TO.C,C12*%
X7635000Y2033000D02*
X7635000Y1990281D01*
X7635000Y1847000D02*
X7635000Y1890000D01*
X7635000Y1847000D02*
X7725000Y1847000D01*
X7725000Y2033000D02*
X7635000Y2033000D01*
X7725000Y2033000D02*
X7725000Y1989656D01*
X7725000Y1847000D02*
X7725000Y1889375D01*
%TO.C,C1*%
X5594954Y1126000D02*
X5594954Y1083625D01*
X5594954Y940000D02*
X5594954Y983344D01*
X5594954Y940000D02*
X5684954Y940000D01*
X5684954Y1126000D02*
X5594954Y1126000D01*
X5684954Y1126000D02*
X5684954Y1083000D01*
X5684954Y940000D02*
X5684954Y982719D01*
%TO.C,R12*%
D11*
X2400000Y4011000D02*
X2360000Y4011000D01*
X2400000Y3929000D02*
X2360000Y3929000D01*
%TO.C,C12*%
D12*
X1035000Y4233000D02*
X1035000Y4190281D01*
X1035000Y4047000D02*
X1035000Y4090000D01*
X1035000Y4047000D02*
X1125000Y4047000D01*
X1125000Y4233000D02*
X1035000Y4233000D01*
X1125000Y4233000D02*
X1125000Y4189656D01*
X1125000Y4047000D02*
X1125000Y4089375D01*
%TO.C,C9*%
X2180875Y7995000D02*
X2180875Y7952625D01*
X2180875Y7809000D02*
X2180875Y7852344D01*
X2180875Y7809000D02*
X2270875Y7809000D01*
X2270875Y7995000D02*
X2180875Y7995000D01*
X2270875Y7995000D02*
X2270875Y7952000D01*
X2270875Y7809000D02*
X2270875Y7851719D01*
%TO.C,R10*%
D11*
X6138000Y4340000D02*
X6138000Y4300000D01*
X6220000Y4340000D02*
X6220000Y4300000D01*
%TO.C,C11*%
D12*
X3125000Y8633000D02*
X3125000Y8590281D01*
X3125000Y8447000D02*
X3125000Y8490000D01*
X3125000Y8447000D02*
X3215000Y8447000D01*
X3215000Y8633000D02*
X3125000Y8633000D01*
X3215000Y8633000D02*
X3215000Y8589656D01*
X3215000Y8447000D02*
X3215000Y8489375D01*
%TO.C,C4*%
X1880000Y3133000D02*
X1880000Y3090625D01*
X1880000Y2947000D02*
X1880000Y2990344D01*
X1880000Y2947000D02*
X1970000Y2947000D01*
X1970000Y3133000D02*
X1880000Y3133000D01*
X1970000Y3133000D02*
X1970000Y3090000D01*
X1970000Y2947000D02*
X1970000Y2989719D01*
%TO.C,C5*%
X3805000Y4413000D02*
X3805000Y4370281D01*
X3805000Y4227000D02*
X3805000Y4270000D01*
X3805000Y4227000D02*
X3895000Y4227000D01*
X3895000Y4413000D02*
X3805000Y4413000D01*
X3895000Y4413000D02*
X3895000Y4369656D01*
X3895000Y4227000D02*
X3895000Y4269375D01*
%TO.C,U2*%
D11*
X3470000Y7975000D02*
X3470000Y8425000D01*
X4130000Y8425000D02*
X4130000Y7975000D01*
D10*
X3460000Y8580000D02*
G75*
G02*
X3440000Y8580000I-10000J0D01*
G01*
X3440000Y8580000D02*
G75*
G02*
X3460000Y8580000I10000J0D01*
G01*
%TO.C,C7*%
D12*
X7967000Y6545864D02*
X7967000Y6455864D01*
X7967000Y6545864D02*
X8010344Y6545864D01*
X7967000Y6455864D02*
X8009719Y6455864D01*
X8153000Y6545864D02*
X8110625Y6545864D01*
X8153000Y6455864D02*
X8110000Y6455864D01*
X8153000Y6455864D02*
X8153000Y6545864D01*
%TO.C,C6*%
X3567000Y8855000D02*
X3567000Y8765000D01*
X3567000Y8855000D02*
X3610000Y8855000D01*
X3567000Y8765000D02*
X3609375Y8765000D01*
X3753000Y8855000D02*
X3710281Y8855000D01*
X3753000Y8765000D02*
X3709656Y8765000D01*
X3753000Y8765000D02*
X3753000Y8855000D01*
%TO.C,R12*%
D11*
X9000000Y1811000D02*
X8960000Y1811000D01*
X9000000Y1729000D02*
X8960000Y1729000D01*
%TO.C,R10*%
X3936000Y6538000D02*
X3936000Y6498000D01*
X4018000Y6538000D02*
X4018000Y6498000D01*
%TO.C,R2*%
X6210000Y3351000D02*
X6250000Y3351000D01*
X6210000Y3269000D02*
X6250000Y3269000D01*
%TO.C,R14*%
X8761000Y2128000D02*
X8761000Y2168000D01*
X8843000Y2128000D02*
X8843000Y2168000D01*
%TO.C,C5*%
D12*
X8205000Y8813000D02*
X8205000Y8770281D01*
X8205000Y8627000D02*
X8205000Y8670000D01*
X8205000Y8627000D02*
X8295000Y8627000D01*
X8295000Y8813000D02*
X8205000Y8813000D01*
X8295000Y8813000D02*
X8295000Y8769656D01*
X8295000Y8627000D02*
X8295000Y8669375D01*
%TO.C,C13*%
X5337000Y3865000D02*
X5337000Y3775000D01*
X5337000Y3865000D02*
X5380344Y3865000D01*
X5337000Y3775000D02*
X5379719Y3775000D01*
X5523000Y3865000D02*
X5480625Y3865000D01*
X5523000Y3775000D02*
X5480000Y3775000D01*
X5523000Y3775000D02*
X5523000Y3865000D01*
%TO.C,R5*%
D11*
X4489000Y7980000D02*
X4489000Y8020000D01*
X4571000Y7980000D02*
X4571000Y8020000D01*
%TO.C,C4*%
D12*
X6280000Y7536000D02*
X6280000Y7493625D01*
X6280000Y7350000D02*
X6280000Y7393344D01*
X6280000Y7350000D02*
X6370000Y7350000D01*
X6370000Y7536000D02*
X6280000Y7536000D01*
X6370000Y7536000D02*
X6370000Y7493000D01*
X6370000Y7350000D02*
X6370000Y7392719D01*
%TO.C,C15*%
X7635000Y5953864D02*
X7635000Y5911146D01*
X7635000Y5767864D02*
X7635000Y5810864D01*
X7635000Y5767864D02*
X7725000Y5767864D01*
X7725000Y5953864D02*
X7635000Y5953864D01*
X7725000Y5953864D02*
X7725000Y5910521D01*
X7725000Y5767864D02*
X7725000Y5810239D01*
%TO.C,C10*%
X5214954Y2031000D02*
X5214954Y1988281D01*
X5214954Y1845000D02*
X5214954Y1888000D01*
X5214954Y1845000D02*
X5304954Y1845000D01*
X5304954Y2031000D02*
X5214954Y2031000D01*
X5304954Y2031000D02*
X5304954Y1987656D01*
X5304954Y1845000D02*
X5304954Y1887375D01*
%TO.C,FB1*%
X7816000Y3120000D02*
X7816000Y3034000D01*
X7816000Y3120000D02*
X7984000Y3120000D01*
X7984000Y3034000D02*
X7816000Y3034000D01*
X7984000Y3034000D02*
X7984000Y3119000D01*
%TO.C,C3*%
X6395000Y3133000D02*
X6395000Y3090625D01*
X6395000Y2947000D02*
X6395000Y2990344D01*
X6395000Y2947000D02*
X6485000Y2947000D01*
X6485000Y3133000D02*
X6395000Y3133000D01*
X6485000Y3133000D02*
X6485000Y3090000D01*
X6485000Y2947000D02*
X6485000Y2989719D01*
%TO.C,C15*%
X1033000Y1551000D02*
X1033000Y1508281D01*
X1033000Y1365000D02*
X1033000Y1408000D01*
X1033000Y1365000D02*
X1123000Y1365000D01*
X1123000Y1551000D02*
X1033000Y1551000D01*
X1123000Y1551000D02*
X1123000Y1507656D01*
X1123000Y1365000D02*
X1123000Y1407375D01*
%TO.C,R10*%
D11*
X8338000Y2140000D02*
X8338000Y2100000D01*
X8420000Y2140000D02*
X8420000Y2100000D01*
%TO.C,C15*%
D12*
X5435000Y3753000D02*
X5435000Y3710281D01*
X5435000Y3567000D02*
X5435000Y3610000D01*
X5435000Y3567000D02*
X5525000Y3567000D01*
X5525000Y3753000D02*
X5435000Y3753000D01*
X5525000Y3753000D02*
X5525000Y3709656D01*
X5525000Y3567000D02*
X5525000Y3609375D01*
%TO.C,C12*%
X3235000Y4233000D02*
X3235000Y4190281D01*
X3235000Y4047000D02*
X3235000Y4090000D01*
X3235000Y4047000D02*
X3325000Y4047000D01*
X3325000Y4233000D02*
X3235000Y4233000D01*
X3325000Y4233000D02*
X3325000Y4189656D01*
X3325000Y4047000D02*
X3325000Y4089375D01*
%TO.C,C1*%
X3395000Y7728000D02*
X3395000Y7685625D01*
X3395000Y7542000D02*
X3395000Y7585344D01*
X3395000Y7542000D02*
X3485000Y7542000D01*
X3485000Y7728000D02*
X3395000Y7728000D01*
X3485000Y7728000D02*
X3485000Y7685000D01*
X3485000Y7542000D02*
X3485000Y7584719D01*
%TO.C,U2*%
D11*
X5669302Y5775000D02*
X5669302Y6225000D01*
X6329302Y6225000D02*
X6329302Y5775000D01*
D10*
X5659302Y6380000D02*
G75*
G02*
X5639302Y6380000I-10000J0D01*
G01*
X5639302Y6380000D02*
G75*
G02*
X5659302Y6380000I10000J0D01*
G01*
%TO.C,R14*%
D11*
X2159000Y2126000D02*
X2159000Y2166000D01*
X2241000Y2126000D02*
X2241000Y2166000D01*
X6561000Y8731000D02*
X6561000Y8771000D01*
X6643000Y8731000D02*
X6643000Y8771000D01*
%TO.C,C11*%
D12*
X5324954Y2031000D02*
X5324954Y1988281D01*
X5324954Y1845000D02*
X5324954Y1888000D01*
X5324954Y1845000D02*
X5414954Y1845000D01*
X5414954Y2031000D02*
X5324954Y2031000D01*
X5414954Y2031000D02*
X5414954Y1987656D01*
X5414954Y1845000D02*
X5414954Y1887375D01*
%TO.C,D3*%
D11*
X6492000Y8631000D02*
X6452000Y8631000D01*
%TO.C,R13*%
X5668302Y6570000D02*
X5668302Y6530000D01*
X5750302Y6570000D02*
X5750302Y6530000D01*
%TO.C,C5*%
D12*
X8205000Y2213000D02*
X8205000Y2170281D01*
X8205000Y2027000D02*
X8205000Y2070000D01*
X8205000Y2027000D02*
X8295000Y2027000D01*
X8295000Y2213000D02*
X8205000Y2213000D01*
X8295000Y2213000D02*
X8295000Y2169656D01*
X8295000Y2027000D02*
X8295000Y2069375D01*
%TO.C,R13*%
D11*
X1274875Y8772000D02*
X1274875Y8732000D01*
X1356875Y8772000D02*
X1356875Y8732000D01*
%TO.C,C9*%
D12*
X6574954Y1391000D02*
X6574954Y1348625D01*
X6574954Y1205000D02*
X6574954Y1248344D01*
X6574954Y1205000D02*
X6664954Y1205000D01*
X6664954Y1391000D02*
X6574954Y1391000D01*
X6664954Y1391000D02*
X6664954Y1348000D01*
X6664954Y1205000D02*
X6664954Y1247719D01*
%TO.C,R13*%
D11*
X1261739Y6568000D02*
X1261739Y6528000D01*
X1343739Y6568000D02*
X1343739Y6528000D01*
%TO.C,C10*%
D12*
X5215000Y8636000D02*
X5215000Y8593281D01*
X5215000Y8450000D02*
X5215000Y8493000D01*
X5215000Y8450000D02*
X5305000Y8450000D01*
X5305000Y8636000D02*
X5215000Y8636000D01*
X5305000Y8636000D02*
X5305000Y8592656D01*
X5305000Y8450000D02*
X5305000Y8492375D01*
%TO.C,R11*%
D11*
X6589954Y1809000D02*
X6549954Y1809000D01*
X6589954Y1727000D02*
X6549954Y1727000D01*
%TO.C,C1*%
D12*
X1195000Y3328000D02*
X1195000Y3285625D01*
X1195000Y3142000D02*
X1195000Y3185344D01*
X1195000Y3142000D02*
X1285000Y3142000D01*
X1285000Y3328000D02*
X1195000Y3328000D01*
X1285000Y3328000D02*
X1285000Y3285000D01*
X1285000Y3142000D02*
X1285000Y3184719D01*
%TO.C,C13*%
X5336302Y6065000D02*
X5336302Y5975000D01*
X5336302Y6065000D02*
X5379646Y6065000D01*
X5336302Y5975000D02*
X5379021Y5975000D01*
X5522302Y6065000D02*
X5479927Y6065000D01*
X5522302Y5975000D02*
X5479302Y5975000D01*
X5522302Y5975000D02*
X5522302Y6065000D01*
%TO.C,C12*%
X5435000Y8636000D02*
X5435000Y8593281D01*
X5435000Y8450000D02*
X5435000Y8493000D01*
X5435000Y8450000D02*
X5525000Y8450000D01*
X5525000Y8636000D02*
X5435000Y8636000D01*
X5525000Y8636000D02*
X5525000Y8592656D01*
X5525000Y8450000D02*
X5525000Y8492375D01*
%TO.C,R4*%
D11*
X2281739Y6028000D02*
X2281739Y5988000D01*
X2363739Y6028000D02*
X2363739Y5988000D01*
%TO.C,R10*%
X8338000Y4340000D02*
X8338000Y4300000D01*
X8420000Y4340000D02*
X8420000Y4300000D01*
%TO.C,CON1*%
D13*
X601250Y1353770D02*
X961250Y1353770D01*
X961250Y671230D01*
X601250Y671230D01*
X601250Y1353770D01*
%TO.C,C9*%
D12*
X4375000Y7993000D02*
X4375000Y7950625D01*
X4375000Y7807000D02*
X4375000Y7850344D01*
X4375000Y7807000D02*
X4465000Y7807000D01*
X4465000Y7993000D02*
X4375000Y7993000D01*
X4465000Y7993000D02*
X4465000Y7950000D01*
X4465000Y7807000D02*
X4465000Y7849719D01*
%TO.C,D3*%
D11*
X6491954Y2026000D02*
X6451954Y2026000D01*
%TO.C,R5*%
X6688954Y1378000D02*
X6688954Y1418000D01*
X6770954Y1378000D02*
X6770954Y1418000D01*
%TO.C,C2*%
D12*
X7807000Y3012000D02*
X7807000Y2922000D01*
X7807000Y3012000D02*
X7850000Y3012000D01*
X7807000Y2922000D02*
X7849375Y2922000D01*
X7993000Y3012000D02*
X7950281Y3012000D01*
X7993000Y2922000D02*
X7949656Y2922000D01*
X7993000Y2922000D02*
X7993000Y3012000D01*
%TO.C,R7*%
D11*
X6478954Y1618000D02*
X6478954Y1578000D01*
X6560954Y1618000D02*
X6560954Y1578000D01*
%TO.C,C13*%
D12*
X3137000Y1665000D02*
X3137000Y1575000D01*
X3137000Y1665000D02*
X3180344Y1665000D01*
X3137000Y1575000D02*
X3179719Y1575000D01*
X3323000Y1665000D02*
X3280625Y1665000D01*
X3323000Y1575000D02*
X3280000Y1575000D01*
X3323000Y1575000D02*
X3323000Y1665000D01*
%TO.C,R9*%
D11*
X3840000Y7751000D02*
X3800000Y7751000D01*
X3840000Y7669000D02*
X3800000Y7669000D01*
%TO.C,D3*%
X6492000Y4228000D02*
X6452000Y4228000D01*
%TO.C,C13*%
D12*
X3137000Y8265000D02*
X3137000Y8175000D01*
X3137000Y8265000D02*
X3180344Y8265000D01*
X3137000Y8175000D02*
X3179719Y8175000D01*
X3323000Y8265000D02*
X3280625Y8265000D01*
X3323000Y8175000D02*
X3280000Y8175000D01*
X3323000Y8175000D02*
X3323000Y8265000D01*
%TO.C,C12*%
X7635000Y6433864D02*
X7635000Y6391146D01*
X7635000Y6247864D02*
X7635000Y6290864D01*
X7635000Y6247864D02*
X7725000Y6247864D01*
X7725000Y6433864D02*
X7635000Y6433864D01*
X7725000Y6433864D02*
X7725000Y6390521D01*
X7725000Y6247864D02*
X7725000Y6290239D01*
%TO.C,C1*%
X1187739Y5526000D02*
X1187739Y5483625D01*
X1187739Y5340000D02*
X1187739Y5383344D01*
X1187739Y5340000D02*
X1277739Y5340000D01*
X1277739Y5526000D02*
X1187739Y5526000D01*
X1277739Y5526000D02*
X1277739Y5483000D01*
X1277739Y5340000D02*
X1277739Y5382719D01*
%TO.C,C8*%
X2063000Y1391000D02*
X2063000Y1348625D01*
X2063000Y1205000D02*
X2063000Y1248344D01*
X2063000Y1205000D02*
X2153000Y1205000D01*
X2153000Y1391000D02*
X2063000Y1391000D01*
X2153000Y1391000D02*
X2153000Y1348000D01*
X2153000Y1205000D02*
X2153000Y1247719D01*
%TO.C,FB1*%
X1221875Y7522000D02*
X1221875Y7436000D01*
X1221875Y7522000D02*
X1389875Y7522000D01*
X1389875Y7436000D02*
X1221875Y7436000D01*
X1389875Y7436000D02*
X1389875Y7521000D01*
%TO.C,C14*%
X935000Y1773000D02*
X935000Y1683000D01*
X935000Y1773000D02*
X978000Y1773000D01*
X935000Y1683000D02*
X977375Y1683000D01*
X1121000Y1773000D02*
X1078281Y1773000D01*
X1121000Y1683000D02*
X1077656Y1683000D01*
X1121000Y1683000D02*
X1121000Y1773000D01*
%TO.C,C3*%
X1987739Y5331000D02*
X1987739Y5288625D01*
X1987739Y5145000D02*
X1987739Y5188344D01*
X1987739Y5145000D02*
X2077739Y5145000D01*
X2077739Y5331000D02*
X1987739Y5331000D01*
X2077739Y5331000D02*
X2077739Y5288000D01*
X2077739Y5145000D02*
X2077739Y5187719D01*
%TO.C,R10*%
D11*
X3938000Y8740000D02*
X3938000Y8700000D01*
X4020000Y8740000D02*
X4020000Y8700000D01*
%TO.C,C10*%
D12*
X7415000Y2033000D02*
X7415000Y1990281D01*
X7415000Y1847000D02*
X7415000Y1890000D01*
X7415000Y1847000D02*
X7505000Y1847000D01*
X7505000Y2033000D02*
X7415000Y2033000D01*
X7505000Y2033000D02*
X7505000Y1989656D01*
X7505000Y1847000D02*
X7505000Y1889375D01*
%TO.C,C4*%
X8480000Y5333864D02*
X8480000Y5291489D01*
X8480000Y5147864D02*
X8480000Y5191208D01*
X8480000Y5147864D02*
X8570000Y5147864D01*
X8570000Y5333864D02*
X8480000Y5333864D01*
X8570000Y5333864D02*
X8570000Y5290864D01*
X8570000Y5147864D02*
X8570000Y5190583D01*
%TO.C,D3*%
D11*
X8692000Y2028000D02*
X8652000Y2028000D01*
%TO.C,C9*%
D12*
X4375000Y1393000D02*
X4375000Y1350625D01*
X4375000Y1207000D02*
X4375000Y1250344D01*
X4375000Y1207000D02*
X4465000Y1207000D01*
X4465000Y1393000D02*
X4375000Y1393000D01*
X4465000Y1393000D02*
X4465000Y1350000D01*
X4465000Y1207000D02*
X4465000Y1249719D01*
%TO.C,R11*%
D11*
X4390000Y1811000D02*
X4350000Y1811000D01*
X4390000Y1729000D02*
X4350000Y1729000D01*
%TO.C,C14*%
D12*
X3137000Y8375000D02*
X3137000Y8285000D01*
X3137000Y8375000D02*
X3180000Y8375000D01*
X3137000Y8285000D02*
X3179375Y8285000D01*
X3323000Y8375000D02*
X3280281Y8375000D01*
X3323000Y8285000D02*
X3279656Y8285000D01*
X3323000Y8285000D02*
X3323000Y8375000D01*
%TO.C,R14*%
D11*
X6560302Y6528000D02*
X6560302Y6568000D01*
X6642302Y6528000D02*
X6642302Y6568000D01*
%TO.C,R11*%
X8790000Y1811000D02*
X8750000Y1811000D01*
X8790000Y1729000D02*
X8750000Y1729000D01*
%TO.C,CON1*%
D13*
X5003250Y7958770D02*
X5363250Y7958770D01*
X5363250Y7276230D01*
X5003250Y7276230D01*
X5003250Y7958770D01*
%TO.C,C8*%
D12*
X8665000Y3593000D02*
X8665000Y3550625D01*
X8665000Y3407000D02*
X8665000Y3450344D01*
X8665000Y3407000D02*
X8755000Y3407000D01*
X8755000Y3593000D02*
X8665000Y3593000D01*
X8755000Y3593000D02*
X8755000Y3550000D01*
X8755000Y3407000D02*
X8755000Y3449719D01*
%TO.C,R9*%
D11*
X1632739Y5549000D02*
X1592739Y5549000D01*
X1632739Y5467000D02*
X1592739Y5467000D01*
%TO.C,C16*%
D12*
X3125000Y3753000D02*
X3125000Y3710281D01*
X3125000Y3567000D02*
X3125000Y3610000D01*
X3125000Y3567000D02*
X3215000Y3567000D01*
X3215000Y3753000D02*
X3125000Y3753000D01*
X3215000Y3753000D02*
X3215000Y3709656D01*
X3215000Y3567000D02*
X3215000Y3609375D01*
%TO.C,U1*%
D11*
X8160000Y5135864D02*
X8320000Y5135864D01*
X8320000Y5425864D02*
X8160000Y5425864D01*
X8320000Y5247364D02*
X8320000Y5314364D01*
D10*
X8115000Y5125864D02*
G75*
G02*
X8095000Y5125864I-10000J0D01*
G01*
X8095000Y5125864D02*
G75*
G02*
X8115000Y5125864I10000J0D01*
G01*
%TO.C,C8*%
D12*
X6464302Y5793000D02*
X6464302Y5750625D01*
X6464302Y5607000D02*
X6464302Y5650344D01*
X6464302Y5607000D02*
X6554302Y5607000D01*
X6554302Y5793000D02*
X6464302Y5793000D01*
X6554302Y5793000D02*
X6554302Y5750000D01*
X6554302Y5607000D02*
X6554302Y5649719D01*
%TO.C,R1*%
D11*
X5709000Y3260000D02*
X5709000Y3220000D01*
X5791000Y3260000D02*
X5791000Y3220000D01*
%TO.C,R2*%
X8410000Y3351000D02*
X8450000Y3351000D01*
X8410000Y3269000D02*
X8450000Y3269000D01*
%TO.C,U2*%
X1268000Y1373000D02*
X1268000Y1823000D01*
X1928000Y1823000D02*
X1928000Y1373000D01*
D10*
X1258000Y1978000D02*
G75*
G02*
X1238000Y1978000I-10000J0D01*
G01*
X1238000Y1978000D02*
G75*
G02*
X1258000Y1978000I10000J0D01*
G01*
%TO.C,R7*%
D11*
X2079000Y3820000D02*
X2079000Y3780000D01*
X2161000Y3820000D02*
X2161000Y3780000D01*
%TO.C,C12*%
D12*
X1040875Y8635000D02*
X1040875Y8592281D01*
X1040875Y8449000D02*
X1040875Y8492000D01*
X1040875Y8449000D02*
X1130875Y8449000D01*
X1130875Y8635000D02*
X1040875Y8635000D01*
X1130875Y8635000D02*
X1130875Y8591656D01*
X1130875Y8449000D02*
X1130875Y8491375D01*
%TO.C,R11*%
D11*
X2195875Y8413000D02*
X2155875Y8413000D01*
X2195875Y8331000D02*
X2155875Y8331000D01*
%TO.C,C8*%
D12*
X4265000Y3593000D02*
X4265000Y3550625D01*
X4265000Y3407000D02*
X4265000Y3450344D01*
X4265000Y3407000D02*
X4355000Y3407000D01*
X4355000Y3593000D02*
X4265000Y3593000D01*
X4355000Y3593000D02*
X4355000Y3550000D01*
X4355000Y3407000D02*
X4355000Y3449719D01*
%TO.C,U2*%
D11*
X3470000Y1375000D02*
X3470000Y1825000D01*
X4130000Y1825000D02*
X4130000Y1375000D01*
D10*
X3460000Y1980000D02*
G75*
G02*
X3440000Y1980000I-10000J0D01*
G01*
X3440000Y1980000D02*
G75*
G02*
X3460000Y1980000I10000J0D01*
G01*
%TO.C,C12*%
D12*
X1027739Y6431000D02*
X1027739Y6388281D01*
X1027739Y6245000D02*
X1027739Y6288000D01*
X1027739Y6245000D02*
X1117739Y6245000D01*
X1117739Y6431000D02*
X1027739Y6431000D01*
X1117739Y6431000D02*
X1117739Y6387656D01*
X1117739Y6245000D02*
X1117739Y6287375D01*
%TO.C,R11*%
D11*
X4390000Y8411000D02*
X4350000Y8411000D01*
X4390000Y8329000D02*
X4350000Y8329000D01*
%TO.C,U1*%
X3760000Y2935000D02*
X3920000Y2935000D01*
X3920000Y3225000D02*
X3760000Y3225000D01*
X3920000Y3046500D02*
X3920000Y3113500D01*
D10*
X3715000Y2925000D02*
G75*
G02*
X3695000Y2925000I-10000J0D01*
G01*
X3695000Y2925000D02*
G75*
G02*
X3715000Y2925000I10000J0D01*
G01*
%TO.C,C2*%
D12*
X5607000Y7415000D02*
X5607000Y7325000D01*
X5607000Y7415000D02*
X5650000Y7415000D01*
X5607000Y7325000D02*
X5649375Y7325000D01*
X5793000Y7415000D02*
X5750281Y7415000D01*
X5793000Y7325000D02*
X5749656Y7325000D01*
X5793000Y7325000D02*
X5793000Y7415000D01*
%TO.C,R9*%
D11*
X3838000Y5549000D02*
X3798000Y5549000D01*
X3838000Y5467000D02*
X3798000Y5467000D01*
%TO.C,R12*%
X4600000Y4011000D02*
X4560000Y4011000D01*
X4600000Y3929000D02*
X4560000Y3929000D01*
%TO.C,R14*%
X4359000Y6526000D02*
X4359000Y6566000D01*
X4441000Y6526000D02*
X4441000Y6566000D01*
%TO.C,C9*%
D12*
X8775000Y7993000D02*
X8775000Y7950625D01*
X8775000Y7807000D02*
X8775000Y7850344D01*
X8775000Y7807000D02*
X8865000Y7807000D01*
X8865000Y7993000D02*
X8775000Y7993000D01*
X8865000Y7993000D02*
X8865000Y7950000D01*
X8865000Y7807000D02*
X8865000Y7849719D01*
%TO.C,R13*%
D11*
X7869000Y6570864D02*
X7869000Y6530864D01*
X7951000Y6570864D02*
X7951000Y6530864D01*
%TO.C,C5*%
D12*
X1603000Y2211000D02*
X1603000Y2168281D01*
X1603000Y2025000D02*
X1603000Y2068000D01*
X1603000Y2025000D02*
X1693000Y2025000D01*
X1693000Y2211000D02*
X1603000Y2211000D01*
X1693000Y2211000D02*
X1693000Y2167656D01*
X1693000Y2025000D02*
X1693000Y2067375D01*
%TO.C,C4*%
X6280000Y3133000D02*
X6280000Y3090625D01*
X6280000Y2947000D02*
X6280000Y2990344D01*
X6280000Y2947000D02*
X6370000Y2947000D01*
X6370000Y3133000D02*
X6280000Y3133000D01*
X6370000Y3133000D02*
X6370000Y3090000D01*
X6370000Y2947000D02*
X6370000Y2989719D01*
%TO.C,R7*%
D11*
X4277000Y6018000D02*
X4277000Y5978000D01*
X4359000Y6018000D02*
X4359000Y5978000D01*
%TO.C,U1*%
X3760000Y735000D02*
X3920000Y735000D01*
X3920000Y1025000D02*
X3760000Y1025000D01*
X3920000Y846500D02*
X3920000Y913500D01*
D10*
X3715000Y725000D02*
G75*
G02*
X3695000Y725000I-10000J0D01*
G01*
X3695000Y725000D02*
G75*
G02*
X3715000Y725000I10000J0D01*
G01*
%TO.C,R10*%
D11*
X8338000Y8740000D02*
X8338000Y8700000D01*
X8420000Y8740000D02*
X8420000Y8700000D01*
%TO.C,C8*%
D12*
X6465000Y7996000D02*
X6465000Y7953625D01*
X6465000Y7810000D02*
X6465000Y7853344D01*
X6465000Y7810000D02*
X6555000Y7810000D01*
X6555000Y7996000D02*
X6465000Y7996000D01*
X6555000Y7996000D02*
X6555000Y7953000D01*
X6555000Y7810000D02*
X6555000Y7852719D01*
%TO.C,R9*%
D11*
X3840000Y3351000D02*
X3800000Y3351000D01*
X3840000Y3269000D02*
X3800000Y3269000D01*
%TO.C,U1*%
X8160000Y735000D02*
X8320000Y735000D01*
X8320000Y1025000D02*
X8160000Y1025000D01*
X8320000Y846500D02*
X8320000Y913500D01*
D10*
X8115000Y725000D02*
G75*
G02*
X8095000Y725000I-10000J0D01*
G01*
X8095000Y725000D02*
G75*
G02*
X8115000Y725000I10000J0D01*
G01*
%TO.C,C3*%
D12*
X6394302Y5333000D02*
X6394302Y5290625D01*
X6394302Y5147000D02*
X6394302Y5190344D01*
X6394302Y5147000D02*
X6484302Y5147000D01*
X6484302Y5333000D02*
X6394302Y5333000D01*
X6484302Y5333000D02*
X6484302Y5290000D01*
X6484302Y5147000D02*
X6484302Y5189719D01*
%TO.C,FB1*%
X5616000Y7523000D02*
X5616000Y7437000D01*
X5616000Y7523000D02*
X5784000Y7523000D01*
X5784000Y7437000D02*
X5616000Y7437000D01*
X5784000Y7437000D02*
X5784000Y7522000D01*
%TO.C,C9*%
X8775000Y5793864D02*
X8775000Y5751489D01*
X8775000Y5607864D02*
X8775000Y5651208D01*
X8775000Y5607864D02*
X8865000Y5607864D01*
X8865000Y5793864D02*
X8775000Y5793864D01*
X8865000Y5793864D02*
X8865000Y5750864D01*
X8865000Y5607864D02*
X8865000Y5650583D01*
X6574302Y5793000D02*
X6574302Y5750625D01*
X6574302Y5607000D02*
X6574302Y5650344D01*
X6574302Y5607000D02*
X6664302Y5607000D01*
X6664302Y5793000D02*
X6574302Y5793000D01*
X6664302Y5793000D02*
X6664302Y5750000D01*
X6664302Y5607000D02*
X6664302Y5649719D01*
%TO.C,C5*%
X6005000Y8816000D02*
X6005000Y8773281D01*
X6005000Y8630000D02*
X6005000Y8673000D01*
X6005000Y8630000D02*
X6095000Y8630000D01*
X6095000Y8816000D02*
X6005000Y8816000D01*
X6095000Y8816000D02*
X6095000Y8772656D01*
X6095000Y8630000D02*
X6095000Y8672375D01*
%TO.C,C11*%
X5325000Y4233000D02*
X5325000Y4190281D01*
X5325000Y4047000D02*
X5325000Y4090000D01*
X5325000Y4047000D02*
X5415000Y4047000D01*
X5415000Y4233000D02*
X5325000Y4233000D01*
X5415000Y4233000D02*
X5415000Y4189656D01*
X5415000Y4047000D02*
X5415000Y4089375D01*
%TO.C,R4*%
D11*
X4489000Y3830000D02*
X4489000Y3790000D01*
X4571000Y3830000D02*
X4571000Y3790000D01*
X4489000Y1630000D02*
X4489000Y1590000D01*
X4571000Y1630000D02*
X4571000Y1590000D01*
%TO.C,R2*%
X8410000Y7751000D02*
X8450000Y7751000D01*
X8410000Y7669000D02*
X8450000Y7669000D01*
%TO.C,C2*%
D12*
X1199739Y5210000D02*
X1199739Y5120000D01*
X1199739Y5210000D02*
X1242739Y5210000D01*
X1199739Y5120000D02*
X1242114Y5120000D01*
X1385739Y5210000D02*
X1343020Y5210000D01*
X1385739Y5120000D02*
X1342395Y5120000D01*
X1385739Y5120000D02*
X1385739Y5210000D01*
%TO.C,R13*%
D11*
X7869000Y8770000D02*
X7869000Y8730000D01*
X7951000Y8770000D02*
X7951000Y8730000D01*
%TO.C,C11*%
D12*
X917739Y6431000D02*
X917739Y6388281D01*
X917739Y6245000D02*
X917739Y6288000D01*
X917739Y6245000D02*
X1007739Y6245000D01*
X1007739Y6431000D02*
X917739Y6431000D01*
X1007739Y6431000D02*
X1007739Y6387656D01*
X1007739Y6245000D02*
X1007739Y6287375D01*
%TO.C,C8*%
X4265000Y1393000D02*
X4265000Y1350625D01*
X4265000Y1207000D02*
X4265000Y1250344D01*
X4265000Y1207000D02*
X4355000Y1207000D01*
X4355000Y1393000D02*
X4265000Y1393000D01*
X4355000Y1393000D02*
X4355000Y1350000D01*
X4355000Y1207000D02*
X4355000Y1249719D01*
%TO.C,R12*%
D11*
X6800000Y4011000D02*
X6760000Y4011000D01*
X6800000Y3929000D02*
X6760000Y3929000D01*
%TO.C,R9*%
X6039954Y1149000D02*
X5999954Y1149000D01*
X6039954Y1067000D02*
X5999954Y1067000D01*
%TO.C,C11*%
D12*
X7525000Y8633000D02*
X7525000Y8590281D01*
X7525000Y8447000D02*
X7525000Y8490000D01*
X7525000Y8447000D02*
X7615000Y8447000D01*
X7615000Y8633000D02*
X7525000Y8633000D01*
X7615000Y8633000D02*
X7615000Y8589656D01*
X7615000Y8447000D02*
X7615000Y8489375D01*
%TO.C,C6*%
X1372875Y8857000D02*
X1372875Y8767000D01*
X1372875Y8857000D02*
X1415875Y8857000D01*
X1372875Y8767000D02*
X1415250Y8767000D01*
X1558875Y8857000D02*
X1516156Y8857000D01*
X1558875Y8767000D02*
X1515531Y8767000D01*
X1558875Y8767000D02*
X1558875Y8857000D01*
X5767000Y8858000D02*
X5767000Y8768000D01*
X5767000Y8858000D02*
X5810000Y8858000D01*
X5767000Y8768000D02*
X5809375Y8768000D01*
X5953000Y8858000D02*
X5910281Y8858000D01*
X5953000Y8768000D02*
X5909656Y8768000D01*
X5953000Y8768000D02*
X5953000Y8858000D01*
%TO.C,C10*%
X3015000Y8633000D02*
X3015000Y8590281D01*
X3015000Y8447000D02*
X3015000Y8490000D01*
X3015000Y8447000D02*
X3105000Y8447000D01*
X3105000Y8633000D02*
X3015000Y8633000D01*
X3105000Y8633000D02*
X3105000Y8589656D01*
X3105000Y8447000D02*
X3105000Y8489375D01*
%TO.C,C13*%
X5336954Y1663000D02*
X5336954Y1573000D01*
X5336954Y1663000D02*
X5380298Y1663000D01*
X5336954Y1573000D02*
X5379673Y1573000D01*
X5522954Y1663000D02*
X5480579Y1663000D01*
X5522954Y1573000D02*
X5479954Y1573000D01*
X5522954Y1573000D02*
X5522954Y1663000D01*
%TO.C,R7*%
D11*
X8679000Y3820000D02*
X8679000Y3780000D01*
X8761000Y3820000D02*
X8761000Y3780000D01*
%TO.C,C13*%
D12*
X7537000Y8265000D02*
X7537000Y8175000D01*
X7537000Y8265000D02*
X7580344Y8265000D01*
X7537000Y8175000D02*
X7579719Y8175000D01*
X7723000Y8265000D02*
X7680625Y8265000D01*
X7723000Y8175000D02*
X7680000Y8175000D01*
X7723000Y8175000D02*
X7723000Y8265000D01*
%TO.C,C16*%
X925000Y3753000D02*
X925000Y3710281D01*
X925000Y3567000D02*
X925000Y3610000D01*
X925000Y3567000D02*
X1015000Y3567000D01*
X1015000Y3753000D02*
X925000Y3753000D01*
X1015000Y3753000D02*
X1015000Y3709656D01*
X1015000Y3567000D02*
X1015000Y3609375D01*
%TO.C,C6*%
X5766954Y2253000D02*
X5766954Y2163000D01*
X5766954Y2253000D02*
X5809954Y2253000D01*
X5766954Y2163000D02*
X5809329Y2163000D01*
X5952954Y2253000D02*
X5910235Y2253000D01*
X5952954Y2163000D02*
X5909610Y2163000D01*
X5952954Y2163000D02*
X5952954Y2253000D01*
%TO.C,C3*%
X1993000Y931000D02*
X1993000Y888625D01*
X1993000Y745000D02*
X1993000Y788344D01*
X1993000Y745000D02*
X2083000Y745000D01*
X2083000Y931000D02*
X1993000Y931000D01*
X2083000Y931000D02*
X2083000Y888000D01*
X2083000Y745000D02*
X2083000Y787719D01*
%TO.C,R13*%
D11*
X5668954Y2168000D02*
X5668954Y2128000D01*
X5750954Y2168000D02*
X5750954Y2128000D01*
%TO.C,R4*%
X8889000Y3830000D02*
X8889000Y3790000D01*
X8971000Y3830000D02*
X8971000Y3790000D01*
%TO.C,C2*%
D12*
X3405000Y5210000D02*
X3405000Y5120000D01*
X3405000Y5210000D02*
X3448000Y5210000D01*
X3405000Y5120000D02*
X3447375Y5120000D01*
X3591000Y5210000D02*
X3548281Y5210000D01*
X3591000Y5120000D02*
X3547656Y5120000D01*
X3591000Y5120000D02*
X3591000Y5210000D01*
%TO.C,R12*%
D11*
X6799954Y1809000D02*
X6759954Y1809000D01*
X6799954Y1727000D02*
X6759954Y1727000D01*
%TO.C,R7*%
X4279000Y3820000D02*
X4279000Y3780000D01*
X4361000Y3820000D02*
X4361000Y3780000D01*
%TO.C,R4*%
X4489000Y8230000D02*
X4489000Y8190000D01*
X4571000Y8230000D02*
X4571000Y8190000D01*
%TO.C,D3*%
X2090000Y2026000D02*
X2050000Y2026000D01*
%TO.C,R9*%
X6040000Y7754000D02*
X6000000Y7754000D01*
X6040000Y7672000D02*
X6000000Y7672000D01*
%TO.C,R4*%
X6689000Y3830000D02*
X6689000Y3790000D01*
X6771000Y3830000D02*
X6771000Y3790000D01*
%TO.C,U2*%
X3468000Y5773000D02*
X3468000Y6223000D01*
X4128000Y6223000D02*
X4128000Y5773000D01*
D10*
X3458000Y6378000D02*
G75*
G02*
X3438000Y6378000I-10000J0D01*
G01*
X3438000Y6378000D02*
G75*
G02*
X3458000Y6378000I10000J0D01*
G01*
%TO.C,R10*%
D11*
X3938000Y4340000D02*
X3938000Y4300000D01*
X4020000Y4340000D02*
X4020000Y4300000D01*
%TO.C,FB1*%
D12*
X1208739Y5318000D02*
X1208739Y5232000D01*
X1208739Y5318000D02*
X1376739Y5318000D01*
X1376739Y5232000D02*
X1208739Y5232000D01*
X1376739Y5232000D02*
X1376739Y5317000D01*
%TO.C,R9*%
D11*
X8240000Y7751000D02*
X8200000Y7751000D01*
X8240000Y7669000D02*
X8200000Y7669000D01*
%TO.C,R2*%
X1808000Y1149000D02*
X1848000Y1149000D01*
X1808000Y1067000D02*
X1848000Y1067000D01*
%TO.C,C14*%
D12*
X7537000Y3975000D02*
X7537000Y3885000D01*
X7537000Y3975000D02*
X7580000Y3975000D01*
X7537000Y3885000D02*
X7579375Y3885000D01*
X7723000Y3975000D02*
X7680281Y3975000D01*
X7723000Y3885000D02*
X7679656Y3885000D01*
X7723000Y3885000D02*
X7723000Y3975000D01*
%TO.C,R9*%
D11*
X6040000Y3351000D02*
X6000000Y3351000D01*
X6040000Y3269000D02*
X6000000Y3269000D01*
%TO.C,R2*%
X6209302Y5551000D02*
X6249302Y5551000D01*
X6209302Y5469000D02*
X6249302Y5469000D01*
%TO.C,C14*%
D12*
X3137000Y1775000D02*
X3137000Y1685000D01*
X3137000Y1775000D02*
X3180000Y1775000D01*
X3137000Y1685000D02*
X3179375Y1685000D01*
X3323000Y1775000D02*
X3280281Y1775000D01*
X3323000Y1685000D02*
X3279656Y1685000D01*
X3323000Y1685000D02*
X3323000Y1775000D01*
%TO.C,R4*%
D11*
X6689000Y8233000D02*
X6689000Y8193000D01*
X6771000Y8233000D02*
X6771000Y8193000D01*
%TO.C,C12*%
D12*
X5434302Y6433000D02*
X5434302Y6390281D01*
X5434302Y6247000D02*
X5434302Y6290000D01*
X5434302Y6247000D02*
X5524302Y6247000D01*
X5524302Y6433000D02*
X5434302Y6433000D01*
X5524302Y6433000D02*
X5524302Y6389656D01*
X5524302Y6247000D02*
X5524302Y6289375D01*
%TO.C,R9*%
D11*
X1645875Y7753000D02*
X1605875Y7753000D01*
X1645875Y7671000D02*
X1605875Y7671000D01*
%TO.C,C4*%
D12*
X1885875Y7535000D02*
X1885875Y7492625D01*
X1885875Y7349000D02*
X1885875Y7392344D01*
X1885875Y7349000D02*
X1975875Y7349000D01*
X1975875Y7535000D02*
X1885875Y7535000D01*
X1975875Y7535000D02*
X1975875Y7492000D01*
X1975875Y7349000D02*
X1975875Y7391719D01*
%TO.C,U2*%
D11*
X3470000Y3575000D02*
X3470000Y4025000D01*
X4130000Y4025000D02*
X4130000Y3575000D01*
D10*
X3460000Y4180000D02*
G75*
G02*
X3440000Y4180000I-10000J0D01*
G01*
X3440000Y4180000D02*
G75*
G02*
X3460000Y4180000I10000J0D01*
G01*
%TO.C,D3*%
D11*
X4292000Y2028000D02*
X4252000Y2028000D01*
%TO.C,C12*%
D12*
X7635000Y8633000D02*
X7635000Y8590281D01*
X7635000Y8447000D02*
X7635000Y8490000D01*
X7635000Y8447000D02*
X7725000Y8447000D01*
X7725000Y8633000D02*
X7635000Y8633000D01*
X7725000Y8633000D02*
X7725000Y8589656D01*
X7725000Y8447000D02*
X7725000Y8489375D01*
%TO.C,FB1*%
X5615302Y5320000D02*
X5615302Y5234000D01*
X5615302Y5320000D02*
X5783302Y5320000D01*
X5783302Y5234000D02*
X5615302Y5234000D01*
X5783302Y5234000D02*
X5783302Y5319000D01*
%TO.C,C9*%
X4375000Y3593000D02*
X4375000Y3550625D01*
X4375000Y3407000D02*
X4375000Y3450344D01*
X4375000Y3407000D02*
X4465000Y3407000D01*
X4465000Y3593000D02*
X4375000Y3593000D01*
X4465000Y3593000D02*
X4465000Y3550000D01*
X4465000Y3407000D02*
X4465000Y3449719D01*
%TO.C,C11*%
X7525000Y6433864D02*
X7525000Y6391146D01*
X7525000Y6247864D02*
X7525000Y6290864D01*
X7525000Y6247864D02*
X7615000Y6247864D01*
X7615000Y6433864D02*
X7525000Y6433864D01*
X7615000Y6433864D02*
X7615000Y6390521D01*
X7615000Y6247864D02*
X7615000Y6290239D01*
%TO.C,C3*%
X8595000Y7533000D02*
X8595000Y7490625D01*
X8595000Y7347000D02*
X8595000Y7390344D01*
X8595000Y7347000D02*
X8685000Y7347000D01*
X8685000Y7533000D02*
X8595000Y7533000D01*
X8685000Y7533000D02*
X8685000Y7490000D01*
X8685000Y7347000D02*
X8685000Y7389719D01*
%TO.C,C13*%
X937000Y3865000D02*
X937000Y3775000D01*
X937000Y3865000D02*
X980344Y3865000D01*
X937000Y3775000D02*
X979719Y3775000D01*
X1123000Y3865000D02*
X1080625Y3865000D01*
X1123000Y3775000D02*
X1080000Y3775000D01*
X1123000Y3775000D02*
X1123000Y3865000D01*
%TO.C,C7*%
X3565000Y6543000D02*
X3565000Y6453000D01*
X3565000Y6543000D02*
X3608344Y6543000D01*
X3565000Y6453000D02*
X3607719Y6453000D01*
X3751000Y6543000D02*
X3708625Y6543000D01*
X3751000Y6453000D02*
X3708000Y6453000D01*
X3751000Y6453000D02*
X3751000Y6543000D01*
%TO.C,R9*%
D11*
X1638000Y1149000D02*
X1598000Y1149000D01*
X1638000Y1067000D02*
X1598000Y1067000D01*
%TO.C,C3*%
D12*
X8595000Y933000D02*
X8595000Y890625D01*
X8595000Y747000D02*
X8595000Y790344D01*
X8595000Y747000D02*
X8685000Y747000D01*
X8685000Y933000D02*
X8595000Y933000D01*
X8685000Y933000D02*
X8685000Y890000D01*
X8685000Y747000D02*
X8685000Y789719D01*
%TO.C,C5*%
X6005000Y4413000D02*
X6005000Y4370281D01*
X6005000Y4227000D02*
X6005000Y4270000D01*
X6005000Y4227000D02*
X6095000Y4227000D01*
X6095000Y4413000D02*
X6005000Y4413000D01*
X6095000Y4413000D02*
X6095000Y4369656D01*
X6095000Y4227000D02*
X6095000Y4269375D01*
%TO.C,C4*%
X4080000Y7533000D02*
X4080000Y7490625D01*
X4080000Y7347000D02*
X4080000Y7390344D01*
X4080000Y7347000D02*
X4170000Y7347000D01*
X4170000Y7533000D02*
X4080000Y7533000D01*
X4170000Y7533000D02*
X4170000Y7490000D01*
X4170000Y7347000D02*
X4170000Y7389719D01*
%TD*%
M02*
