%TF.GenerationSoftware,KiCad,Pcbnew,10.0.1*%
%TF.CreationDate,2026-05-08T14:51:55+05:30*%
%TF.ProjectId,X-Vision-HW-Panel,582d5669-7369-46f6-9e2d-48572d50616e,rev?*%
%TF.SameCoordinates,PX29f6300PY7de2900*%
%TF.FileFunction,Profile,NP*%
%FSLAX45Y45*%
G04 Gerber Fmt 4.5, Leading zero omitted, Abs format (unit mm)*
G04 Created by KiCad (PCBNEW 10.0.1) date 2026-05-08 14:51:55*
%MOMM*%
%LPD*%
G01*
G04 APERTURE LIST*
%TA.AperFunction,Profile*%
%ADD10C,0.050000*%
%TD*%
G04 APERTURE END LIST*
D10*
X0Y9700000D02*
G75*
G02*
X100000Y9800000I100000J0D01*
G01*
X0Y100000D02*
X0Y9700000D01*
X100000Y9800000D02*
X9700000Y9800000D01*
X100000Y0D02*
G75*
G02*
X0Y100000I0J100000D01*
G01*
X400000Y9300000D02*
X400000Y8350000D01*
X400000Y9300000D02*
G75*
G02*
X500000Y9400000I100000J0D01*
G01*
X400000Y8050000D02*
X400000Y6150000D01*
X400000Y5850000D02*
X400000Y3950000D01*
X400000Y3650000D02*
X400000Y1750000D01*
X400000Y1450000D02*
X400000Y500000D01*
X500000Y400000D02*
G75*
G02*
X400000Y500000I0J100000D01*
G01*
X500000Y400000D02*
X1450000Y400000D01*
X600000Y9100000D02*
G75*
G02*
X700000Y9200000I100000J0D01*
G01*
X600000Y8350000D02*
X400000Y8350000D01*
X600000Y8350000D02*
X600000Y9100000D01*
X600000Y8050000D02*
X400000Y8050000D01*
X600000Y7300000D02*
X600000Y8050000D01*
X600000Y6900000D02*
G75*
G02*
X700000Y7000000I100000J0D01*
G01*
X600000Y6150000D02*
X400000Y6150000D01*
X600000Y6150000D02*
X600000Y6900000D01*
X600000Y5850000D02*
X400000Y5850000D01*
X600000Y5100000D02*
X600000Y5850000D01*
X600000Y4700000D02*
G75*
G02*
X700000Y4800000I100000J0D01*
G01*
X600000Y3950000D02*
X400000Y3950000D01*
X600000Y3950000D02*
X600000Y4700000D01*
X600000Y3650000D02*
X400000Y3650000D01*
X600000Y2900000D02*
X600000Y3650000D01*
X600000Y2500000D02*
G75*
G02*
X700000Y2600000I100000J0D01*
G01*
X600000Y1750000D02*
X400000Y1750000D01*
X600000Y1750000D02*
X600000Y2500000D01*
X600000Y1450000D02*
X400000Y1450000D01*
X600000Y700000D02*
X600000Y1450000D01*
X700000Y9200000D02*
X1450000Y9200000D01*
X700000Y7200000D02*
G75*
G02*
X600000Y7300000I0J100000D01*
G01*
X700000Y7000000D02*
X1450000Y7000000D01*
X700000Y5000000D02*
G75*
G02*
X600000Y5100000I0J100000D01*
G01*
X700000Y4800000D02*
X1450000Y4800000D01*
X700000Y2800000D02*
G75*
G02*
X600000Y2900000I0J100000D01*
G01*
X700000Y2600000D02*
X1450000Y2600000D01*
X700000Y600000D02*
G75*
G02*
X600000Y700000I0J100000D01*
G01*
X1450000Y9400000D02*
X500000Y9400000D01*
X1450000Y9200000D02*
X1450000Y9400000D01*
X1450000Y7200000D02*
X700000Y7200000D01*
X1450000Y7000000D02*
X1450000Y7200000D01*
X1450000Y5000000D02*
X700000Y5000000D01*
X1450000Y4800000D02*
X1450000Y5000000D01*
X1450000Y2800000D02*
X700000Y2800000D01*
X1450000Y2600000D02*
X1450000Y2800000D01*
X1450000Y600000D02*
X700000Y600000D01*
X1450000Y600000D02*
X1450000Y400000D01*
X1750000Y9200000D02*
X1750000Y9400000D01*
X1750000Y9200000D02*
X2500000Y9200000D01*
X1750000Y7000000D02*
X1750000Y7200000D01*
X1750000Y7000000D02*
X2500000Y7000000D01*
X1750000Y4800000D02*
X1750000Y5000000D01*
X1750000Y4800000D02*
X2500000Y4800000D01*
X1750000Y2600000D02*
X1750000Y2800000D01*
X1750000Y2600000D02*
X2500000Y2600000D01*
X1750000Y600000D02*
X1750000Y400000D01*
X1750000Y400000D02*
X3650000Y400000D01*
X2500000Y9200000D02*
G75*
G02*
X2600000Y9100000I0J-100000D01*
G01*
X2500000Y7200000D02*
X1750000Y7200000D01*
X2500000Y7000000D02*
G75*
G02*
X2600000Y6900000I0J-100000D01*
G01*
X2500000Y5000000D02*
X1750000Y5000000D01*
X2500000Y4800000D02*
G75*
G02*
X2600000Y4700000I0J-100000D01*
G01*
X2500000Y2800000D02*
X1750000Y2800000D01*
X2500000Y2600000D02*
G75*
G02*
X2600000Y2500000I0J-100000D01*
G01*
X2500000Y600000D02*
X1750000Y600000D01*
X2600000Y9100000D02*
X2600000Y8350000D01*
X2600000Y8350000D02*
X2800000Y8350000D01*
X2600000Y8050000D02*
X2600000Y7300000D01*
X2600000Y7300000D02*
G75*
G02*
X2500000Y7200000I-100000J0D01*
G01*
X2600000Y6900000D02*
X2600000Y6150000D01*
X2600000Y6150000D02*
X2800000Y6150000D01*
X2600000Y5850000D02*
X2600000Y5100000D01*
X2600000Y5100000D02*
G75*
G02*
X2500000Y5000000I-100000J0D01*
G01*
X2600000Y4700000D02*
X2600000Y3950000D01*
X2600000Y3950000D02*
X2800000Y3950000D01*
X2600000Y3650000D02*
X2600000Y2900000D01*
X2600000Y2900000D02*
G75*
G02*
X2500000Y2800000I-100000J0D01*
G01*
X2600000Y2500000D02*
X2600000Y1750000D01*
X2600000Y1750000D02*
X2800000Y1750000D01*
X2600000Y1450000D02*
X2600000Y700000D01*
X2600000Y700000D02*
G75*
G02*
X2500000Y600000I-100000J0D01*
G01*
X2800000Y9100000D02*
G75*
G02*
X2900000Y9200000I100000J0D01*
G01*
X2800000Y8350000D02*
X2800000Y9100000D01*
X2800000Y8050000D02*
X2600000Y8050000D01*
X2800000Y7300000D02*
X2800000Y8050000D01*
X2800000Y6900000D02*
G75*
G02*
X2900000Y7000000I100000J0D01*
G01*
X2800000Y6150000D02*
X2800000Y6900000D01*
X2800000Y5850000D02*
X2600000Y5850000D01*
X2800000Y5100000D02*
X2800000Y5850000D01*
X2800000Y4700000D02*
G75*
G02*
X2900000Y4800000I100000J0D01*
G01*
X2800000Y3950000D02*
X2800000Y4700000D01*
X2800000Y3650000D02*
X2600000Y3650000D01*
X2800000Y2900000D02*
X2800000Y3650000D01*
X2800000Y2500000D02*
G75*
G02*
X2900000Y2600000I100000J0D01*
G01*
X2800000Y1750000D02*
X2800000Y2500000D01*
X2800000Y1450000D02*
X2600000Y1450000D01*
X2800000Y700000D02*
X2800000Y1450000D01*
X2900000Y9200000D02*
X3650000Y9200000D01*
X2900000Y7200000D02*
G75*
G02*
X2800000Y7300000I0J100000D01*
G01*
X2900000Y7000000D02*
X3650000Y7000000D01*
X2900000Y5000000D02*
G75*
G02*
X2800000Y5100000I0J100000D01*
G01*
X2900000Y4800000D02*
X3650000Y4800000D01*
X2900000Y2800000D02*
G75*
G02*
X2800000Y2900000I0J100000D01*
G01*
X2900000Y2600000D02*
X3650000Y2600000D01*
X2900000Y600000D02*
G75*
G02*
X2800000Y700000I0J100000D01*
G01*
X3650000Y9400000D02*
X1750000Y9400000D01*
X3650000Y9200000D02*
X3650000Y9400000D01*
X3650000Y7200000D02*
X2900000Y7200000D01*
X3650000Y7000000D02*
X3650000Y7200000D01*
X3650000Y5000000D02*
X2900000Y5000000D01*
X3650000Y4800000D02*
X3650000Y5000000D01*
X3650000Y2800000D02*
X2900000Y2800000D01*
X3650000Y2600000D02*
X3650000Y2800000D01*
X3650000Y600000D02*
X2900000Y600000D01*
X3650000Y600000D02*
X3650000Y400000D01*
X3950000Y9200000D02*
X3950000Y9400000D01*
X3950000Y9200000D02*
X4700000Y9200000D01*
X3950000Y7000000D02*
X3950000Y7200000D01*
X3950000Y7000000D02*
X4700000Y7000000D01*
X3950000Y4800000D02*
X3950000Y5000000D01*
X3950000Y4800000D02*
X4700000Y4800000D01*
X3950000Y2600000D02*
X3950000Y2800000D01*
X3950000Y2600000D02*
X4700000Y2600000D01*
X3950000Y600000D02*
X3950000Y400000D01*
X3950000Y400000D02*
X5850000Y400000D01*
X4700000Y9200000D02*
G75*
G02*
X4800000Y9100000I0J-100000D01*
G01*
X4700000Y7200000D02*
X3950000Y7200000D01*
X4700000Y7000000D02*
G75*
G02*
X4800000Y6900000I0J-100000D01*
G01*
X4700000Y5000000D02*
X3950000Y5000000D01*
X4700000Y4800000D02*
G75*
G02*
X4800000Y4700000I0J-100000D01*
G01*
X4700000Y2800000D02*
X3950000Y2800000D01*
X4700000Y2600000D02*
G75*
G02*
X4800000Y2500000I0J-100000D01*
G01*
X4700000Y600000D02*
X3950000Y600000D01*
X4800000Y9100000D02*
X4800000Y8350000D01*
X4800000Y8350000D02*
X5000000Y8350000D01*
X4800000Y8050000D02*
X4800000Y7300000D01*
X4800000Y7300000D02*
G75*
G02*
X4700000Y7200000I-100000J0D01*
G01*
X4800000Y6900000D02*
X4800000Y6150000D01*
X4800000Y6150000D02*
X5000000Y6150000D01*
X4800000Y5850000D02*
X4800000Y5100000D01*
X4800000Y5100000D02*
G75*
G02*
X4700000Y5000000I-100000J0D01*
G01*
X4800000Y4700000D02*
X4800000Y3950000D01*
X4800000Y3950000D02*
X5000000Y3950000D01*
X4800000Y3650000D02*
X4800000Y2900000D01*
X4800000Y2900000D02*
G75*
G02*
X4700000Y2800000I-100000J0D01*
G01*
X4800000Y2500000D02*
X4800000Y1750000D01*
X4800000Y1750000D02*
X5000000Y1750000D01*
X4800000Y1450000D02*
X4800000Y700000D01*
X4800000Y700000D02*
G75*
G02*
X4700000Y600000I-100000J0D01*
G01*
X5000000Y9100000D02*
G75*
G02*
X5100000Y9200000I100000J0D01*
G01*
X5000000Y8350000D02*
X5000000Y9100000D01*
X5000000Y8050000D02*
X4800000Y8050000D01*
X5000000Y7300000D02*
X5000000Y8050000D01*
X5000000Y6900000D02*
G75*
G02*
X5100000Y7000000I100000J0D01*
G01*
X5000000Y6150000D02*
X5000000Y6900000D01*
X5000000Y5850000D02*
X4800000Y5850000D01*
X5000000Y5100000D02*
X5000000Y5850000D01*
X5000000Y4700000D02*
G75*
G02*
X5100000Y4800000I100000J0D01*
G01*
X5000000Y3950000D02*
X5000000Y4700000D01*
X5000000Y3650000D02*
X4800000Y3650000D01*
X5000000Y2900000D02*
X5000000Y3650000D01*
X5000000Y2500000D02*
G75*
G02*
X5100000Y2600000I100000J0D01*
G01*
X5000000Y1750000D02*
X5000000Y2500000D01*
X5000000Y1450000D02*
X4800000Y1450000D01*
X5000000Y700000D02*
X5000000Y1450000D01*
X5100000Y9200000D02*
X5850000Y9200000D01*
X5100000Y7200000D02*
G75*
G02*
X5000000Y7300000I0J100000D01*
G01*
X5100000Y7000000D02*
X5850000Y7000000D01*
X5100000Y5000000D02*
G75*
G02*
X5000000Y5100000I0J100000D01*
G01*
X5100000Y4800000D02*
X5850000Y4800000D01*
X5100000Y2800000D02*
G75*
G02*
X5000000Y2900000I0J100000D01*
G01*
X5100000Y2600000D02*
X5850000Y2600000D01*
X5100000Y600000D02*
G75*
G02*
X5000000Y700000I0J100000D01*
G01*
X5850000Y9400000D02*
X3950000Y9400000D01*
X5850000Y9200000D02*
X5850000Y9400000D01*
X5850000Y7200000D02*
X5100000Y7200000D01*
X5850000Y7000000D02*
X5850000Y7200000D01*
X5850000Y5000000D02*
X5100000Y5000000D01*
X5850000Y4800000D02*
X5850000Y5000000D01*
X5850000Y2800000D02*
X5100000Y2800000D01*
X5850000Y2600000D02*
X5850000Y2800000D01*
X5850000Y600000D02*
X5100000Y600000D01*
X5850000Y600000D02*
X5850000Y400000D01*
X6150000Y9200000D02*
X6150000Y9400000D01*
X6150000Y9200000D02*
X6900000Y9200000D01*
X6150000Y7000000D02*
X6150000Y7200000D01*
X6150000Y7000000D02*
X6900000Y7000000D01*
X6150000Y4800000D02*
X6150000Y5000000D01*
X6150000Y4800000D02*
X6900000Y4800000D01*
X6150000Y2600000D02*
X6150000Y2800000D01*
X6150000Y2600000D02*
X6900000Y2600000D01*
X6150000Y600000D02*
X6150000Y400000D01*
X6150000Y400000D02*
X8050000Y400000D01*
X6900000Y9200000D02*
G75*
G02*
X7000000Y9100000I0J-100000D01*
G01*
X6900000Y7200000D02*
X6150000Y7200000D01*
X6900000Y7000000D02*
G75*
G02*
X7000000Y6900000I0J-100000D01*
G01*
X6900000Y5000000D02*
X6150000Y5000000D01*
X6900000Y4800000D02*
G75*
G02*
X7000000Y4700000I0J-100000D01*
G01*
X6900000Y2800000D02*
X6150000Y2800000D01*
X6900000Y2600000D02*
G75*
G02*
X7000000Y2500000I0J-100000D01*
G01*
X6900000Y600000D02*
X6150000Y600000D01*
X7000000Y9100000D02*
X7000000Y8350000D01*
X7000000Y8350000D02*
X7200000Y8350000D01*
X7000000Y8050000D02*
X7000000Y7300000D01*
X7000000Y7300000D02*
G75*
G02*
X6900000Y7200000I-100000J0D01*
G01*
X7000000Y6900000D02*
X7000000Y6150000D01*
X7000000Y6150000D02*
X7200000Y6150000D01*
X7000000Y5850000D02*
X7000000Y5100000D01*
X7000000Y5100000D02*
G75*
G02*
X6900000Y5000000I-100000J0D01*
G01*
X7000000Y4700000D02*
X7000000Y3950000D01*
X7000000Y3950000D02*
X7200000Y3950000D01*
X7000000Y3650000D02*
X7000000Y2900000D01*
X7000000Y2900000D02*
G75*
G02*
X6900000Y2800000I-100000J0D01*
G01*
X7000000Y2500000D02*
X7000000Y1750000D01*
X7000000Y1750000D02*
X7200000Y1750000D01*
X7000000Y1450000D02*
X7000000Y700000D01*
X7000000Y700000D02*
G75*
G02*
X6900000Y600000I-100000J0D01*
G01*
X7200000Y9100000D02*
G75*
G02*
X7300000Y9200000I100000J0D01*
G01*
X7200000Y8350000D02*
X7200000Y9100000D01*
X7200000Y8050000D02*
X7000000Y8050000D01*
X7200000Y7300000D02*
X7200000Y8050000D01*
X7200000Y6900000D02*
G75*
G02*
X7300000Y7000000I100000J0D01*
G01*
X7200000Y6150000D02*
X7200000Y6900000D01*
X7200000Y5850000D02*
X7000000Y5850000D01*
X7200000Y5100000D02*
X7200000Y5850000D01*
X7200000Y4700000D02*
G75*
G02*
X7300000Y4800000I100000J0D01*
G01*
X7200000Y3950000D02*
X7200000Y4700000D01*
X7200000Y3650000D02*
X7000000Y3650000D01*
X7200000Y2900000D02*
X7200000Y3650000D01*
X7200000Y2500000D02*
G75*
G02*
X7300000Y2600000I100000J0D01*
G01*
X7200000Y1750000D02*
X7200000Y2500000D01*
X7200000Y1450000D02*
X7000000Y1450000D01*
X7200000Y700000D02*
X7200000Y1450000D01*
X7300000Y9200000D02*
X8050000Y9200000D01*
X7300000Y7200000D02*
G75*
G02*
X7200000Y7300000I0J100000D01*
G01*
X7300000Y7000000D02*
X8050000Y7000000D01*
X7300000Y5000000D02*
G75*
G02*
X7200000Y5100000I0J100000D01*
G01*
X7300000Y4800000D02*
X8050000Y4800000D01*
X7300000Y2800000D02*
G75*
G02*
X7200000Y2900000I0J100000D01*
G01*
X7300000Y2600000D02*
X8050000Y2600000D01*
X7300000Y600000D02*
G75*
G02*
X7200000Y700000I0J100000D01*
G01*
X8050000Y9400000D02*
X6150000Y9400000D01*
X8050000Y9200000D02*
X8050000Y9400000D01*
X8050000Y7200000D02*
X7300000Y7200000D01*
X8050000Y7000000D02*
X8050000Y7200000D01*
X8050000Y5000000D02*
X7300000Y5000000D01*
X8050000Y4800000D02*
X8050000Y5000000D01*
X8050000Y2800000D02*
X7300000Y2800000D01*
X8050000Y2600000D02*
X8050000Y2800000D01*
X8050000Y600000D02*
X7300000Y600000D01*
X8050000Y600000D02*
X8050000Y400000D01*
X8350000Y9200000D02*
X8350000Y9400000D01*
X8350000Y9200000D02*
X9100000Y9200000D01*
X8350000Y7000000D02*
X8350000Y7200000D01*
X8350000Y7000000D02*
X9100000Y7000000D01*
X8350000Y4800000D02*
X8350000Y5000000D01*
X8350000Y4800000D02*
X9100000Y4800000D01*
X8350000Y2600000D02*
X8350000Y2800000D01*
X8350000Y2600000D02*
X9100000Y2600000D01*
X8350000Y600000D02*
X8350000Y400000D01*
X8350000Y400000D02*
X9300000Y400000D01*
X9100000Y9200000D02*
G75*
G02*
X9200000Y9100000I0J-100000D01*
G01*
X9100000Y7200000D02*
X8350000Y7200000D01*
X9100000Y7000000D02*
G75*
G02*
X9200000Y6900000I0J-100000D01*
G01*
X9100000Y5000000D02*
X8350000Y5000000D01*
X9100000Y4800000D02*
G75*
G02*
X9200000Y4700000I0J-100000D01*
G01*
X9100000Y2800000D02*
X8350000Y2800000D01*
X9100000Y2600000D02*
G75*
G02*
X9200000Y2500000I0J-100000D01*
G01*
X9100000Y600000D02*
X8350000Y600000D01*
X9200000Y9100000D02*
X9200000Y8350000D01*
X9200000Y8350000D02*
X9400000Y8350000D01*
X9200000Y8050000D02*
X9200000Y7300000D01*
X9200000Y8050000D02*
X9400000Y8050000D01*
X9200000Y7300000D02*
G75*
G02*
X9100000Y7200000I-100000J0D01*
G01*
X9200000Y6900000D02*
X9200000Y6150000D01*
X9200000Y6150000D02*
X9400000Y6150000D01*
X9200000Y5850000D02*
X9200000Y5100000D01*
X9200000Y5850000D02*
X9400000Y5850000D01*
X9200000Y5100000D02*
G75*
G02*
X9100000Y5000000I-100000J0D01*
G01*
X9200000Y4700000D02*
X9200000Y3950000D01*
X9200000Y3950000D02*
X9400000Y3950000D01*
X9200000Y3650000D02*
X9200000Y2900000D01*
X9200000Y3650000D02*
X9400000Y3650000D01*
X9200000Y2900000D02*
G75*
G02*
X9100000Y2800000I-100000J0D01*
G01*
X9200000Y2500000D02*
X9200000Y1750000D01*
X9200000Y1750000D02*
X9400000Y1750000D01*
X9200000Y1450000D02*
X9200000Y700000D01*
X9200000Y1450000D02*
X9400000Y1450000D01*
X9200000Y700000D02*
G75*
G02*
X9100000Y600000I-100000J0D01*
G01*
X9300000Y9400000D02*
X8350000Y9400000D01*
X9300000Y9400000D02*
G75*
G02*
X9400000Y9300000I0J-100000D01*
G01*
X9400000Y8350000D02*
X9400000Y9300000D01*
X9400000Y6150000D02*
X9400000Y8050000D01*
X9400000Y3950000D02*
X9400000Y5850000D01*
X9400000Y1750000D02*
X9400000Y3650000D01*
X9400000Y1450000D02*
X9400000Y500000D01*
X9400000Y500000D02*
G75*
G02*
X9300000Y400000I-100000J0D01*
G01*
X9700000Y9800000D02*
G75*
G02*
X9800000Y9700000I0J-100000D01*
G01*
X9700000Y0D02*
X100000Y0D01*
X9800000Y9700000D02*
X9800000Y100000D01*
X9800000Y100000D02*
G75*
G02*
X9700000Y0I-100000J0D01*
G01*
M02*
