%TF.GenerationSoftware,KiCad,Pcbnew,9.0.7*%
%TF.CreationDate,2026-03-10T13:05:46+05:30*%
%TF.ProjectId,X-Vision-HW,582d5669-7369-46f6-9e2d-48572e6b6963,rev?*%
%TF.SameCoordinates,PXd1d1fd4PY510ff40*%
%TF.FileFunction,OtherDrawing,Comment*%
%FSLAX46Y46*%
G04 Gerber Fmt 4.6, Leading zero omitted, Abs format (unit mm)*
G04 Created by KiCad (PCBNEW 9.0.7) date 2026-03-10 13:05:46*
%MOMM*%
%LPD*%
G01*
G04 APERTURE LIST*
%ADD10C,0.100000*%
G04 APERTURE END LIST*
D10*
X19987500Y3000000D02*
X16987500Y3000000D01*
X-12500Y20000000D02*
X19987500Y0D01*
X9987500Y10000000D02*
X9987500Y10020000D01*
X9987500Y10420000D02*
X9987500Y10440000D01*
X9987500Y10840000D02*
X9987500Y10860000D01*
X9987500Y11260000D02*
X9987500Y11280000D01*
X9987500Y11680000D02*
X9987500Y11700000D01*
X9987500Y12100000D02*
X9987500Y12120000D01*
X9987500Y12520000D02*
X9987500Y12540000D01*
X9987500Y12940000D02*
X9987500Y12960000D01*
X9987500Y13360000D02*
X9987500Y13380000D01*
X9987500Y13780000D02*
X9987500Y13800000D01*
X9987500Y14200000D02*
X9987500Y14220000D01*
X9987500Y14620000D02*
X9987500Y14640000D01*
X9987500Y15040000D02*
X9987500Y15060000D01*
X9987500Y15460000D02*
X9987500Y15480000D01*
X9987500Y15880000D02*
X9987500Y15900000D01*
X9987500Y16300000D02*
X9987500Y16320000D01*
X9987500Y16720000D02*
X9987500Y16740000D01*
X9987500Y17140000D02*
X9987500Y17160000D01*
X9987500Y17560000D02*
X9987500Y17580000D01*
X9987500Y17980000D02*
X9987500Y18000000D01*
X9987500Y18400000D02*
X9987500Y18420000D01*
X9987500Y18820000D02*
X9987500Y18840000D01*
X9987500Y19240000D02*
X9987500Y19260000D01*
X9987500Y19660000D02*
X9987500Y19680000D01*
X9987500Y12700000D02*
X9987500Y14200000D01*
X19987500Y20000000D02*
X-12500Y0D01*
X9987500Y6550000D02*
X9987500Y5050000D01*
X19987500Y0D02*
X19987500Y3000000D01*
X16987500Y3000000D02*
X16987500Y0D01*
X9987500Y10000000D02*
X-12500Y10000000D01*
X9987500Y10000000D02*
X19987500Y10000000D01*
X9987500Y10000000D02*
X9987500Y9980000D01*
X9987500Y9580000D02*
X9987500Y9560000D01*
X9987500Y9160000D02*
X9987500Y9140000D01*
X9987500Y8740000D02*
X9987500Y8720000D01*
X9987500Y8320000D02*
X9987500Y8300000D01*
X9987500Y7900000D02*
X9987500Y7880000D01*
X9987500Y7480000D02*
X9987500Y7460000D01*
X9987500Y7060000D02*
X9987500Y7040000D01*
X9987500Y6640000D02*
X9987500Y6620000D01*
X9987500Y6220000D02*
X9987500Y6200000D01*
X9987500Y5800000D02*
X9987500Y5780000D01*
X9987500Y5380000D02*
X9987500Y5360000D01*
X9987500Y4960000D02*
X9987500Y4940000D01*
X9987500Y4540000D02*
X9987500Y4520000D01*
X9987500Y4120000D02*
X9987500Y4100000D01*
X9987500Y3700000D02*
X9987500Y3680000D01*
X9987500Y3280000D02*
X9987500Y3260000D01*
X9987500Y2860000D02*
X9987500Y2840000D01*
X9987500Y2440000D02*
X9987500Y2420000D01*
X9987500Y2020000D02*
X9987500Y2000000D01*
X9987500Y1600000D02*
X9987500Y1580000D01*
X9987500Y1180000D02*
X9987500Y1160000D01*
X9987500Y760000D02*
X9987500Y740000D01*
X9987500Y340000D02*
X9987500Y320000D01*
M02*
