M48
; DRILL file {KiCad 9.0.7} date 2026-03-10T13:05:43+0530
; FORMAT={-:-/ absolute / metric / decimal}
; #@! TF.CreationDate,2026-03-10T13:05:43+05:30
; #@! TF.GenerationSoftware,Kicad,Pcbnew,9.0.7
; #@! TF.FileFunction,Plated,1,4,PTH
FMAT,2
METRIC
; #@! TA.AperFunction,Plated,PTH,ViaDrill
T1C0.229
; #@! TA.AperFunction,Plated,PTH,ComponentDrill
T2C0.500
; #@! TA.AperFunction,Plated,PTH,ComponentDrill
T3C1.500
%
G90
G05
T1
X0.507Y18.02
X0.507Y16.02
X0.507Y14.02
X0.507Y12.02
X0.507Y10.02
X0.507Y8.02
X0.507Y6.02
X0.507Y4.02
X0.507Y2.02
X1.228Y12.89
X2.007Y19.52
X2.007Y0.52
X4.007Y19.52
X4.007Y0.52
X4.751Y12.143
X5.348Y6.88
X5.583Y11.697
X5.89Y7.76
X5.892Y9.599
X6.007Y19.52
X6.007Y0.52
X6.067Y12.48
X6.117Y16.13
X6.17Y13.155
X6.252Y10.265
X6.487Y7.15
X6.567Y8.43
X6.607Y18.21
X7.147Y14.16
X8.008Y19.52
X8.008Y0.52
X8.207Y17.2
X8.258Y4.41
X8.383Y8.62
X8.973Y11.018
X9.197Y17.05
X9.682Y11.031
X9.918Y15.33
X10.008Y19.52
X10.008Y0.52
X10.838Y11.2
X11.217Y5.72
X11.867Y10.94
X11.891Y9.266
X12.008Y19.52
X12.008Y0.52
X12.417Y17.195
X12.422Y14.566
X12.647Y15.69
X13.267Y15.301
X13.461Y14.508
X13.587Y12.68
X13.628Y7.14
X13.717Y17.17
X13.799Y10.295
X13.807Y8.68
X13.823Y9.461
X14.007Y19.52
X14.007Y0.52
X14.334Y7.516
X14.417Y1.2
X14.433Y10.549
X14.518Y8.97
X14.707Y12.82
X14.977Y17.22
X14.987Y18.62
X16.008Y19.52
X16.008Y0.52
X16.243Y17.171
X16.247Y12.55
X17.027Y6.52
X17.107Y13.32
X17.238Y14.03
X17.28Y12.66
X17.877Y6.65
X17.997Y9.09
X18.008Y19.52
X18.008Y0.52
X18.027Y9.86
X18.057Y7.52
X18.357Y10.89
X19.508Y18.02
X19.508Y16.02
X19.508Y14.02
X19.508Y12.02
X19.508Y10.02
X19.508Y8.02
X19.508Y6.02
X19.508Y4.02
X19.508Y2.02
T2
X4.37Y6.02
X4.37Y4.77
X4.37Y3.52
X4.37Y2.27
T3
X3.007Y17.02
X17.008Y3.02
M30
