%TF.GenerationSoftware,KiCad,Pcbnew,10.0.1*%
%TF.CreationDate,2026-05-08T14:46:53+05:30*%
%TF.ProjectId,X-Vision-HW,582d5669-7369-46f6-9e2d-48572e6b6963,rev?*%
%TF.SameCoordinates,PXd1d0ac3PY5111b03*%
%TF.FileFunction,Copper,L3,Inr*%
%TF.FilePolarity,Positive*%
%FSLAX45Y45*%
G04 Gerber Fmt 4.5, Leading zero omitted, Abs format (unit mm)*
G04 Created by KiCad (PCBNEW 10.0.1) date 2026-05-08 14:46:53*
%MOMM*%
%LPD*%
G01*
G04 APERTURE LIST*
G04 Aperture macros list*
%AMRoundRect*
0 Rectangle with rounded corners*
0 $1 Rounding radius*
0 $2 $3 $4 $5 $6 $7 $8 $9 X,Y pos of 4 corners*
0 Add a 4 corners polygon primitive as box body*
4,1,4,$2,$3,$4,$5,$6,$7,$8,$9,$2,$3,0*
0 Add four circle primitives for the rounded corners*
1,1,$1+$1,$2,$3*
1,1,$1+$1,$4,$5*
1,1,$1+$1,$6,$7*
1,1,$1+$1,$8,$9*
0 Add four rect primitives between the rounded corners*
20,1,$1+$1,$2,$3,$4,$5,0*
20,1,$1+$1,$4,$5,$6,$7,0*
20,1,$1+$1,$6,$7,$8,$9,0*
20,1,$1+$1,$8,$9,$2,$3,0*%
G04 Aperture macros list end*
%TA.AperFunction,ComponentPad*%
%ADD10RoundRect,0.250000X0.400000X-0.250000X0.400000X0.250000X-0.400000X0.250000X-0.400000X-0.250000X0*%
%TD*%
%TA.AperFunction,ViaPad*%
%ADD11C,0.482600*%
%TD*%
%TA.AperFunction,ViaPad*%
%ADD12C,0.600000*%
%TD*%
%TA.AperFunction,Conductor*%
%ADD13C,0.200000*%
%TD*%
%TA.AperFunction,Conductor*%
%ADD14C,0.254000*%
%TD*%
%TA.AperFunction,Conductor*%
%ADD15C,0.152400*%
%TD*%
%TA.AperFunction,Conductor*%
%ADD16C,0.177800*%
%TD*%
G04 APERTURE END LIST*
D10*
%TO.N,/FC_I2C_SDA*%
%TO.C,CON1*%
X437539Y227711D03*
%TO.N,/FC_I2C_SCL*%
X437539Y352711D03*
%TO.N,3v3*%
X437539Y477711D03*
%TO.N,GND*%
X437539Y602711D03*
%TD*%
D11*
%TO.N,GND*%
X1951289Y1002711D03*
X1601289Y52711D03*
X1951289Y202711D03*
X51289Y1202711D03*
X401289Y1952711D03*
X1625289Y1255711D03*
X801289Y1952711D03*
X1359289Y1268711D03*
X201289Y1952711D03*
X51289Y602711D03*
X51289Y202711D03*
X1801289Y52711D03*
X1801289Y1952711D03*
X51289Y802711D03*
X401289Y52711D03*
X201289Y52711D03*
X51289Y1002711D03*
X51289Y1402711D03*
X1951289Y1202711D03*
X607289Y1248711D03*
X1446913Y1105461D03*
X1001289Y1952711D03*
X1201289Y52711D03*
X1951289Y602711D03*
X1951289Y1802711D03*
X992289Y1533711D03*
X1401289Y52711D03*
X601289Y1952711D03*
X1401289Y1952711D03*
X51289Y1602711D03*
X1951289Y1602711D03*
X1951289Y1402711D03*
X801289Y52711D03*
X1001289Y52711D03*
X1951289Y402711D03*
X1703289Y652711D03*
X601289Y52711D03*
X1951289Y802711D03*
X1084289Y1120711D03*
X51289Y1802711D03*
X1452289Y897711D03*
X51289Y402711D03*
X1601289Y1952711D03*
X1201289Y1952711D03*
%TO.N,3v3*%
X1806289Y752711D03*
X625789Y1027211D03*
X920289Y1705711D03*
X1677289Y1496711D03*
X1063289Y416081D03*
X475604Y1215026D03*
X1836289Y1089711D03*
X612289Y1613711D03*
X1449483Y1030413D03*
X1258289Y1574711D03*
X1788289Y665711D03*
X1433984Y752346D03*
%TO.N,1v8*%
X1442289Y120711D03*
X661289Y1821711D03*
X123289Y1289711D03*
X558810Y1170417D03*
%TO.N,/STM_RST*%
X1372289Y1717711D03*
%TO.N,Net-(C15-K)*%
X589762Y960657D03*
%TO.N,/FC_I2C_SCL*%
X617515Y1316201D03*
%TO.N,/FC_I2C_SDA*%
X715289Y1416711D03*
D12*
%TO.N,Net-(D1-A)*%
X989289Y583711D03*
D11*
%TO.N,Net-(D2-A)*%
X1238289Y1476711D03*
%TO.N,/VL_INTR_SWDIO*%
X1728561Y1266672D03*
X838789Y862711D03*
X1486289Y1332284D03*
%TO.N,/Prog_Tx*%
X1327197Y1530803D03*
X1498289Y1722711D03*
%TO.N,/STM_BOOT_SWCLK*%
X1242289Y1720211D03*
X657289Y843711D03*
%TO.N,/Prog_Rx*%
X1346603Y1451511D03*
X1624789Y1717841D03*
%TO.N,/SW_1v8*%
X1159289Y1113711D03*
X826289Y441711D03*
%TO.N,/Sen_I2C_SDA*%
X1803289Y986711D03*
X897873Y1102476D03*
%TO.N,/Sen_I2C_SCL*%
X1800289Y909711D03*
X968789Y1103841D03*
%TO.N,/PAW_LED*%
X1208289Y1062711D03*
D12*
X1362289Y522711D03*
D11*
%TO.N,/Sen_SPI_NSS*%
X1380468Y1030243D03*
%TO.N,/VL_XSHUT*%
X649289Y715711D03*
X1711289Y1332711D03*
%TO.N,/PAW_RST*%
X589579Y776711D03*
%TO.N,/Sen_SPI_SCK*%
X1381289Y868711D03*
%TO.N,/PAW_INTR*%
X1363389Y714711D03*
%TO.N,/Sen_SPI_MISO*%
X1382816Y946781D03*
%TO.N,/Sen_SPI_MOSI*%
X1189669Y927276D03*
%TD*%
%TO.N,3v3*%
D13*
X1804289Y750711D02*
X1432349Y750711D01*
X1432349Y750711D02*
X1431984Y750346D01*
%TO.N,1v8*%
D14*
X121289Y348098D02*
X121289Y1287711D01*
D15*
X121289Y1287711D02*
X653289Y1819711D01*
X653289Y1819711D02*
X659289Y1819711D01*
D14*
X1440289Y118711D02*
X343414Y118711D01*
X227118Y166882D02*
X174596Y219404D01*
X121289Y348098D02*
G75*
G03*
X174598Y219405I182000J3D01*
G01*
X343414Y118711D02*
G75*
G02*
X227115Y166879I-5J164470D01*
G01*
%TO.N,/VL_INTR_SWDIO*%
D15*
X1018389Y1317832D02*
X855388Y1154831D01*
X1486716Y1332711D02*
X1486289Y1332284D01*
X1486289Y1332284D02*
X1485862Y1332711D01*
X1603247Y1332711D02*
X1486716Y1332711D01*
X1485862Y1332711D02*
X1054310Y1332711D01*
X836789Y1109930D02*
X836789Y860711D01*
X1677449Y1279551D02*
X1639168Y1317832D01*
X1726561Y1264672D02*
X1713370Y1264672D01*
X855388Y1154831D02*
G75*
G03*
X836790Y1109930I44901J-44900D01*
G01*
X1639168Y1317832D02*
G75*
G03*
X1603247Y1332709I-35919J-35921D01*
G01*
X1018389Y1317832D02*
G75*
G02*
X1054310Y1332710I35921J-35921D01*
G01*
X1713370Y1264672D02*
G75*
G02*
X1677449Y1279550I-1J50799D01*
G01*
%TO.N,/Prog_Tx*%
X1325197Y1529618D02*
X1325197Y1528803D01*
X1496289Y1700711D02*
X1325197Y1529618D01*
X1496289Y1720711D02*
X1496289Y1700711D01*
%TO.N,/STM_BOOT_SWCLK*%
X1218691Y1621112D02*
X754888Y1157309D01*
X717691Y902112D02*
X657289Y841711D01*
X736289Y1112408D02*
X736289Y947013D01*
X1237248Y1715169D02*
X1237248Y1662449D01*
X657289Y841711D02*
X655289Y841711D01*
X1240289Y1718211D02*
X1242289Y1720211D01*
X1242289Y1720211D02*
X1237248Y1715169D01*
X1237248Y1662449D02*
G75*
G02*
X1218691Y1621112I-63008J3451D01*
G01*
X736289Y947013D02*
G75*
G02*
X717692Y902111I-63500J-3D01*
G01*
X754888Y1157309D02*
G75*
G03*
X736291Y1112408I44901J-44899D01*
G01*
%TO.N,/Prog_Rx*%
X1359288Y1452339D02*
X1347506Y1452339D01*
X1622789Y1715841D02*
X1359288Y1452339D01*
%TO.N,/SW_1v8*%
X1095289Y1049711D02*
X1095289Y953013D01*
X1159289Y1113711D02*
X1095289Y1049711D01*
X824289Y629408D02*
X824289Y439711D01*
X1076691Y908112D02*
X842888Y674309D01*
X842888Y674309D02*
G75*
G03*
X824291Y629408I44901J-44899D01*
G01*
X1095289Y953013D02*
G75*
G02*
X1076692Y908111I-63500J-3D01*
G01*
%TO.N,/Sen_I2C_SDA*%
X901844Y1106446D02*
X895873Y1100476D01*
X1771268Y984711D02*
X1563526Y1192452D01*
X901844Y1112706D02*
X901844Y1106446D01*
X1801289Y984711D02*
X1771268Y984711D01*
X1518625Y1211051D02*
X1026491Y1211051D01*
X981589Y1192452D02*
X901844Y1112706D01*
X1563526Y1192452D02*
G75*
G03*
X1518625Y1211048I-44897J-44901D01*
G01*
X981589Y1192452D02*
G75*
G02*
X1026491Y1211050I44900J-44901D01*
G01*
%TO.N,/Sen_I2C_SCL*%
X975972Y1101841D02*
X966789Y1101841D01*
X1798289Y907711D02*
X1548888Y1157112D01*
X1031244Y1157112D02*
X975972Y1101841D01*
X1503987Y1175711D02*
X1076145Y1175711D01*
X1548888Y1157112D02*
G75*
G03*
X1503987Y1175709I-44899J-44901D01*
G01*
X1031244Y1157112D02*
G75*
G02*
X1076145Y1175714I44906J-44901D01*
G01*
%TO.N,/PAW_LED*%
D16*
X1284289Y986711D02*
X1284289Y600711D01*
X1284289Y600711D02*
X1362289Y522711D01*
X1208289Y1062711D02*
X1284289Y986711D01*
%TO.N,/VL_XSHUT*%
D15*
X647289Y713711D02*
X762691Y829112D01*
X765176Y831666D02*
X769619Y837238D01*
X1670845Y1369155D02*
X1709289Y1330711D01*
X781289Y874013D02*
X781289Y1104408D01*
X1055654Y1384034D02*
X1634924Y1384034D01*
X781289Y1104408D02*
X781337Y1107971D01*
X781239Y870450D02*
X781289Y874013D01*
X780442Y863368D02*
X781239Y870450D01*
X799888Y1149309D02*
X1019733Y1369155D01*
X769619Y837238D02*
X773411Y843272D01*
X792958Y1141185D02*
X797401Y1146757D01*
X786074Y1128729D02*
X789166Y1135150D01*
X773411Y843272D02*
X776503Y849693D01*
X781337Y1107971D02*
X782135Y1115054D01*
X789166Y1135150D02*
X792958Y1141185D01*
X782135Y1115054D02*
X783721Y1122002D01*
X776503Y849693D02*
X778856Y856420D01*
X797401Y1146757D02*
X799888Y1149309D01*
X783721Y1122002D02*
X786074Y1128729D01*
X778856Y856420D02*
X780442Y863368D01*
X762691Y829112D02*
X765176Y831666D01*
X1019733Y1369155D02*
G75*
G02*
X1055654Y1384036I35926J-35924D01*
G01*
X1634924Y1384034D02*
G75*
G02*
X1670848Y1369158I5J-50803D01*
G01*
%TD*%
%TA.AperFunction,Conductor*%
%TO.N,GND*%
G36*
X1708280Y678147D02*
G01*
X1709581Y677253D01*
X1709707Y677151D01*
X1709708Y677151D01*
X1712153Y675171D01*
X1714532Y673536D01*
X1714810Y673345D01*
X1716790Y672202D01*
X1718959Y670516D01*
X1719061Y670412D01*
X1719698Y669720D01*
X1721306Y668112D01*
X1721347Y668070D01*
X1721381Y668000D01*
X1722860Y666074D01*
X1723828Y664397D01*
X1724647Y662979D01*
X1725652Y660552D01*
X1726576Y657102D01*
X1726576Y657101D01*
X1726919Y654497D01*
X1726919Y650925D01*
X1726576Y648321D01*
X1725651Y644869D01*
X1724647Y642443D01*
X1722860Y639349D01*
X1721261Y637265D01*
X1718735Y634739D01*
X1716651Y633140D01*
X1713557Y631354D01*
X1711131Y630349D01*
X1707679Y629424D01*
X1705075Y629081D01*
X1701503Y629081D01*
X1698899Y629424D01*
X1698235Y629601D01*
X1698235Y629601D01*
X1697598Y629772D01*
X1697597Y629772D01*
X1695968Y630209D01*
X1695448Y630348D01*
X1693021Y631353D01*
X1689927Y633140D01*
X1687843Y634739D01*
X1685317Y637265D01*
X1683718Y639349D01*
X1681931Y642443D01*
X1680927Y644869D01*
X1680002Y648320D01*
X1679659Y650924D01*
X1679659Y654498D01*
X1680002Y657101D01*
X1680927Y660553D01*
X1681931Y662979D01*
X1683718Y666073D01*
X1685316Y668156D01*
X1687844Y670684D01*
X1689927Y672282D01*
X1692100Y673536D01*
X1694350Y675171D01*
X1695575Y676061D01*
X1695575Y676061D01*
X1695575Y676061D01*
X1696519Y676911D01*
X1702198Y679440D01*
X1708280Y678147D01*
G37*
%TD.AperFunction*%
%TA.AperFunction,Conductor*%
G36*
X1425530Y921738D02*
G01*
X1426913Y921878D01*
X1427669Y921714D01*
X1429454Y921029D01*
X1435743Y919692D01*
X1436645Y919645D01*
X1436650Y919645D01*
X1436997Y919627D01*
X1440215Y919711D01*
X1443346Y920040D01*
X1446517Y920628D01*
X1447898Y920998D01*
X1450502Y921341D01*
X1454076Y921341D01*
X1456680Y920998D01*
X1458405Y920536D01*
X1460131Y920073D01*
X1462557Y919068D01*
X1465980Y917092D01*
X1468671Y914669D01*
X1468736Y914725D01*
X1468992Y914426D01*
X1470261Y913156D01*
X1471860Y911073D01*
X1473647Y907979D01*
X1474651Y905553D01*
X1474840Y904848D01*
X1474841Y904846D01*
X1475576Y902101D01*
X1475919Y899497D01*
X1475919Y895925D01*
X1475576Y893321D01*
X1474651Y889869D01*
X1473647Y887443D01*
X1471860Y884349D01*
X1470261Y882265D01*
X1467735Y879739D01*
X1465651Y878140D01*
X1462557Y876353D01*
X1460131Y875349D01*
X1456679Y874424D01*
X1454075Y874081D01*
X1450503Y874081D01*
X1447899Y874423D01*
X1441230Y876210D01*
X1440754Y876332D01*
X1440665Y876353D01*
X1440280Y876447D01*
X1440272Y876449D01*
X1439803Y876556D01*
X1439107Y876707D01*
X1439107Y876707D01*
X1438943Y876743D01*
X1438943Y876743D01*
X1438681Y876800D01*
X1433647Y877256D01*
X1432263Y877210D01*
X1431729Y877250D01*
X1429322Y878232D01*
X1426824Y878954D01*
X1426484Y879390D01*
X1425972Y879599D01*
X1424603Y881809D01*
X1423006Y883861D01*
X1422749Y884679D01*
X1422459Y885763D01*
X1422458Y885764D01*
X1418902Y891923D01*
X1418902Y891924D01*
X1416642Y895838D01*
X1416642Y895838D01*
X1413737Y898742D01*
X1411887Y901289D01*
X1411272Y902497D01*
X1410299Y908637D01*
X1410380Y909150D01*
X1413203Y914689D01*
X1414137Y915623D01*
X1417673Y919159D01*
X1419336Y920006D01*
X1420727Y921250D01*
X1422038Y921383D01*
X1423213Y921981D01*
X1425530Y921738D01*
G37*
%TD.AperFunction*%
%TA.AperFunction,Conductor*%
G36*
X1456818Y1146119D02*
G01*
X1460473Y1141089D01*
X1460951Y1137454D01*
X1460797Y1134511D01*
X1460797Y1134509D01*
X1460811Y1134378D01*
X1461230Y1132114D01*
X1461231Y1132108D01*
X1461398Y1131208D01*
X1461497Y1130840D01*
X1461511Y1130770D01*
X1461511Y1130768D01*
X1461623Y1130240D01*
X1461624Y1130239D01*
X1461946Y1129150D01*
X1462095Y1128646D01*
X1462085Y1128643D01*
X1462213Y1128167D01*
X1462360Y1127753D01*
X1462434Y1127501D01*
X1462435Y1127500D01*
X1462539Y1127148D01*
X1462539Y1127147D01*
X1462946Y1126087D01*
X1462946Y1126087D01*
X1462992Y1125967D01*
X1463290Y1125127D01*
X1463469Y1124723D01*
X1463564Y1124477D01*
X1463564Y1124477D01*
X1463780Y1123913D01*
X1464068Y1123367D01*
X1465056Y1121297D01*
X1465056Y1121296D01*
X1465056Y1121296D01*
X1467306Y1117399D01*
X1467306Y1117399D01*
X1468271Y1115728D01*
X1468271Y1115727D01*
X1469276Y1113302D01*
X1470200Y1109851D01*
X1470543Y1107247D01*
X1470543Y1103675D01*
X1470200Y1101071D01*
X1469275Y1097619D01*
X1468270Y1095193D01*
X1466484Y1092099D01*
X1464885Y1090015D01*
X1462359Y1087489D01*
X1460276Y1085890D01*
X1459512Y1085449D01*
X1459007Y1085057D01*
X1455435Y1083281D01*
X1452590Y1082518D01*
X1451304Y1082174D01*
X1448700Y1081831D01*
X1445127Y1081831D01*
X1442523Y1082174D01*
X1438450Y1083265D01*
X1436083Y1083752D01*
X1436082Y1083752D01*
X1434879Y1083926D01*
X1432796Y1084954D01*
X1430573Y1085627D01*
X1430099Y1086284D01*
X1429303Y1086677D01*
X1426819Y1090583D01*
X1426743Y1090803D01*
X1426230Y1092534D01*
X1425310Y1094932D01*
X1425257Y1095083D01*
X1425256Y1095124D01*
X1425044Y1095776D01*
X1423626Y1101071D01*
X1423283Y1103674D01*
X1423283Y1107248D01*
X1423626Y1109852D01*
X1424191Y1111960D01*
X1424550Y1113302D01*
X1425555Y1115728D01*
X1426182Y1116814D01*
X1429074Y1121823D01*
X1431127Y1126779D01*
X1431226Y1127147D01*
X1431981Y1129965D01*
X1432475Y1131809D01*
X1433175Y1137128D01*
X1433175Y1137624D01*
X1433175Y1137981D01*
X1433668Y1139496D01*
X1433668Y1141089D01*
X1434604Y1142379D01*
X1435097Y1143894D01*
X1436386Y1144830D01*
X1437322Y1146119D01*
X1438838Y1146612D01*
X1440127Y1147548D01*
X1443235Y1148041D01*
X1450905Y1148041D01*
X1456818Y1146119D01*
G37*
%TD.AperFunction*%
%TA.AperFunction,Conductor*%
G36*
X1112185Y1147549D02*
G01*
X1112679Y1147388D01*
X1113073Y1147260D01*
X1118103Y1143606D01*
X1120025Y1137693D01*
X1118660Y1132634D01*
X1117831Y1131209D01*
X1117164Y1129965D01*
X1117094Y1129824D01*
X1116513Y1128537D01*
X1114334Y1123231D01*
X1113783Y1121723D01*
X1113727Y1121550D01*
X1113293Y1119995D01*
X1111405Y1112041D01*
X1111318Y1111699D01*
X1109854Y1106371D01*
X1107770Y1102464D01*
X1105257Y1099551D01*
X1105256Y1099550D01*
X1104830Y1098830D01*
X1103284Y1096837D01*
X1098348Y1091901D01*
X1092808Y1089078D01*
X1086667Y1090051D01*
X1083585Y1092480D01*
X1082979Y1093189D01*
X1082979Y1093190D01*
X1081531Y1094426D01*
X1081530Y1094427D01*
X1080045Y1095581D01*
X1080045Y1095582D01*
X1079973Y1095635D01*
X1079498Y1096010D01*
X1079425Y1096071D01*
X1079424Y1096072D01*
X1079346Y1096127D01*
X1079032Y1096351D01*
X1079030Y1096353D01*
X1077376Y1097416D01*
X1077375Y1097417D01*
X1070927Y1101140D01*
X1068844Y1102739D01*
X1066317Y1105265D01*
X1064718Y1107349D01*
X1062737Y1110780D01*
X1062156Y1111959D01*
X1060145Y1116814D01*
X1057541Y1121324D01*
X1054275Y1125580D01*
X1054111Y1125744D01*
X1054082Y1125800D01*
X1054058Y1125827D01*
X1054065Y1125833D01*
X1053099Y1127731D01*
X1051741Y1129499D01*
X1051717Y1130443D01*
X1051288Y1131284D01*
X1051637Y1133486D01*
X1051578Y1135715D01*
X1052113Y1136493D01*
X1052261Y1137425D01*
X1055099Y1140838D01*
X1056658Y1142035D01*
X1057750Y1142764D01*
X1058882Y1143418D01*
X1060061Y1143999D01*
X1065041Y1146062D01*
X1066285Y1146484D01*
X1067549Y1146823D01*
X1068838Y1147079D01*
X1074035Y1147763D01*
X1075164Y1147912D01*
X1075819Y1147976D01*
X1076476Y1148019D01*
X1077133Y1148041D01*
X1081024Y1148041D01*
X1081024Y1148041D01*
X1109077Y1148041D01*
X1112185Y1147549D01*
G37*
%TD.AperFunction*%
%TA.AperFunction,Conductor*%
G36*
X1437555Y1304699D02*
G01*
X1438020Y1304574D01*
X1438249Y1304513D01*
X1441421Y1304306D01*
X1445416Y1303188D01*
X1448243Y1301715D01*
X1449392Y1301014D01*
X1449650Y1300832D01*
X1450102Y1300522D01*
X1450154Y1300488D01*
X1450606Y1300196D01*
X1458362Y1295318D01*
X1460539Y1294126D01*
X1460794Y1294006D01*
X1463105Y1293083D01*
X1463106Y1293083D01*
X1470666Y1290583D01*
X1473897Y1289514D01*
X1474907Y1289209D01*
X1475023Y1289177D01*
X1475670Y1289147D01*
X1477818Y1288815D01*
X1479148Y1288459D01*
X1480182Y1288181D01*
X1480426Y1288108D01*
X1480458Y1288104D01*
X1480473Y1288104D01*
X1480473Y1288104D01*
X1492105Y1288104D01*
X1492106Y1288104D01*
X1494200Y1288665D01*
X1496171Y1288988D01*
X1497449Y1289068D01*
X1503156Y1290583D01*
X1504535Y1291001D01*
X1504689Y1291054D01*
X1506023Y1291562D01*
X1511251Y1293766D01*
X1512781Y1294487D01*
X1512952Y1294576D01*
X1514419Y1295421D01*
X1521621Y1299973D01*
X1521890Y1300137D01*
X1526568Y1302884D01*
X1530902Y1304241D01*
X1533331Y1304425D01*
X1533331Y1304425D01*
X1533619Y1304447D01*
X1534555Y1304517D01*
X1534555Y1304518D01*
X1534997Y1304551D01*
X1535001Y1304551D01*
X1539763Y1304912D01*
X1539771Y1304802D01*
X1540560Y1305041D01*
X1602259Y1305041D01*
X1602915Y1305019D01*
X1603575Y1304976D01*
X1604224Y1304912D01*
X1605115Y1304795D01*
X1607269Y1304511D01*
X1608555Y1304255D01*
X1609822Y1303916D01*
X1611065Y1303494D01*
X1611969Y1303119D01*
X1612980Y1302701D01*
X1614159Y1302119D01*
X1615292Y1301465D01*
X1616386Y1300735D01*
X1617383Y1299969D01*
X1618453Y1299148D01*
X1618453Y1299148D01*
X1618819Y1298867D01*
X1619327Y1298450D01*
X1619820Y1298018D01*
X1619821Y1298018D01*
X1620301Y1297567D01*
X1651058Y1266811D01*
X1653881Y1261271D01*
X1652908Y1255130D01*
X1651948Y1253603D01*
X1651099Y1252487D01*
X1651094Y1252490D01*
X1650935Y1252273D01*
X1650935Y1252272D01*
X1650930Y1252265D01*
X1650884Y1252202D01*
X1650851Y1252161D01*
X1650680Y1251937D01*
X1649927Y1250879D01*
X1649218Y1249814D01*
X1648530Y1248705D01*
X1644860Y1242348D01*
X1643261Y1240265D01*
X1640735Y1237739D01*
X1638651Y1236140D01*
X1635557Y1234353D01*
X1633131Y1233348D01*
X1629679Y1232424D01*
X1627076Y1232081D01*
X1623503Y1232081D01*
X1620899Y1232424D01*
X1611114Y1235045D01*
X1610688Y1234955D01*
X1610044Y1235056D01*
X1610044Y1235056D01*
X1609742Y1235100D01*
X1604938Y1235511D01*
X1599975Y1235332D01*
X1599974Y1235332D01*
X1599838Y1235311D01*
X1593724Y1233325D01*
X1593723Y1233324D01*
X1590964Y1231919D01*
X1590962Y1231917D01*
X1589936Y1231395D01*
X1589361Y1231305D01*
X1586791Y1229723D01*
X1586745Y1229692D01*
X1586743Y1229694D01*
X1586742Y1229693D01*
X1586591Y1229590D01*
X1586419Y1229491D01*
X1586361Y1229432D01*
X1585959Y1229156D01*
X1585949Y1229149D01*
X1585064Y1228542D01*
X1585064Y1228542D01*
X1582908Y1225960D01*
X1582366Y1225362D01*
X1582091Y1225081D01*
X1581894Y1224880D01*
X1576380Y1222006D01*
X1570231Y1222921D01*
X1568801Y1223788D01*
X1566408Y1225527D01*
X1566386Y1225538D01*
X1553622Y1232042D01*
X1539977Y1236475D01*
X1539974Y1236476D01*
X1539972Y1236476D01*
X1539972Y1236476D01*
X1525801Y1238721D01*
X1525801Y1238721D01*
X1525800Y1238721D01*
X1522268Y1238721D01*
X1031370Y1238721D01*
X1026491Y1238721D01*
X1019315Y1238721D01*
X1019315Y1238721D01*
X1019314Y1238721D01*
X1005142Y1236476D01*
X1005142Y1236476D01*
X1005141Y1236476D01*
X1005140Y1236475D01*
X1003584Y1235970D01*
X1003388Y1235970D01*
X1003226Y1235861D01*
X1000476Y1235478D01*
X999638Y1235478D01*
X998122Y1235970D01*
X997367Y1235970D01*
X997013Y1236092D01*
X996264Y1236367D01*
X995815Y1236720D01*
X993725Y1237399D01*
X992099Y1239637D01*
X991374Y1240206D01*
X991174Y1240910D01*
X990070Y1242429D01*
X990070Y1244793D01*
X989674Y1246186D01*
X990070Y1247267D01*
X990070Y1248646D01*
X990160Y1248922D01*
X991446Y1251021D01*
X991814Y1252024D01*
X992233Y1252306D01*
X992613Y1252925D01*
X1037258Y1297570D01*
X1037735Y1298016D01*
X1038230Y1298451D01*
X1038737Y1298867D01*
X1041171Y1300735D01*
X1042264Y1301465D01*
X1043398Y1302120D01*
X1044576Y1302700D01*
X1046492Y1303494D01*
X1047735Y1303916D01*
X1049001Y1304255D01*
X1050289Y1304511D01*
X1052879Y1304852D01*
X1053331Y1304912D01*
X1053982Y1304976D01*
X1054642Y1305019D01*
X1055298Y1305041D01*
X1434954Y1305041D01*
X1437555Y1304699D01*
G37*
%TD.AperFunction*%
%TA.AperFunction,Conductor*%
G36*
X611408Y1272099D02*
G01*
X611630Y1272032D01*
X611699Y1272021D01*
X616378Y1272021D01*
X622291Y1270099D01*
X625745Y1265413D01*
X625813Y1265439D01*
X626210Y1264406D01*
X626596Y1263164D01*
X626647Y1262954D01*
X626648Y1262952D01*
X626897Y1262354D01*
X626898Y1262352D01*
X627143Y1261854D01*
X627143Y1261854D01*
X627665Y1260799D01*
X627665Y1260799D01*
X628073Y1259972D01*
X628073Y1259972D01*
X628074Y1259971D01*
X628647Y1258978D01*
X629652Y1256552D01*
X629744Y1256209D01*
X629744Y1256208D01*
X630576Y1253102D01*
X630577Y1253101D01*
X630919Y1250497D01*
X630919Y1246925D01*
X630576Y1244321D01*
X629651Y1240869D01*
X628647Y1238443D01*
X626860Y1235349D01*
X625261Y1233265D01*
X622735Y1230739D01*
X620651Y1229140D01*
X617557Y1227354D01*
X615131Y1226349D01*
X611680Y1225424D01*
X609076Y1225081D01*
X608538Y1225081D01*
X603221Y1224381D01*
X603220Y1224381D01*
X600379Y1223620D01*
X599003Y1223692D01*
X597689Y1223277D01*
X595975Y1223851D01*
X594170Y1223945D01*
X593099Y1224813D01*
X591792Y1225250D01*
X590958Y1226547D01*
X589339Y1227859D01*
X588182Y1230312D01*
X587941Y1231075D01*
X587931Y1231269D01*
X587690Y1232401D01*
X586774Y1235495D01*
X585646Y1238432D01*
X585572Y1238588D01*
X585413Y1239092D01*
X585413Y1239134D01*
X585290Y1239512D01*
X584002Y1244321D01*
X583659Y1246924D01*
X583659Y1250498D01*
X584002Y1253102D01*
X584927Y1256552D01*
X585932Y1258979D01*
X586504Y1259971D01*
X587718Y1262073D01*
X589317Y1264156D01*
X591365Y1266205D01*
X593770Y1269096D01*
X594229Y1269763D01*
X599161Y1273548D01*
X605123Y1273783D01*
X611408Y1272099D01*
G37*
%TD.AperFunction*%
%TA.AperFunction,Conductor*%
G36*
X996680Y1556998D02*
G01*
X1000131Y1556073D01*
X1002557Y1555068D01*
X1005980Y1553092D01*
X1008671Y1550669D01*
X1008736Y1550725D01*
X1008992Y1550426D01*
X1010261Y1549156D01*
X1011860Y1547073D01*
X1013647Y1543979D01*
X1014652Y1541553D01*
X1015576Y1538101D01*
X1015919Y1535497D01*
X1015919Y1531925D01*
X1015576Y1529321D01*
X1014651Y1525869D01*
X1013647Y1523443D01*
X1011860Y1520349D01*
X1010261Y1518265D01*
X1007735Y1515739D01*
X1006189Y1514474D01*
X1005924Y1514298D01*
X1004888Y1513699D01*
X1004089Y1513078D01*
X1003775Y1512869D01*
X1003156Y1512696D01*
X1000812Y1511531D01*
X996680Y1510424D01*
X994075Y1510081D01*
X990503Y1510081D01*
X987899Y1510423D01*
X987899Y1510424D01*
X984448Y1511348D01*
X982022Y1512353D01*
X978927Y1514140D01*
X976843Y1515739D01*
X974317Y1518265D01*
X972718Y1520349D01*
X970931Y1523443D01*
X969927Y1525869D01*
X969002Y1529320D01*
X968659Y1531924D01*
X968659Y1535498D01*
X969002Y1538102D01*
X969927Y1541552D01*
X969927Y1541553D01*
X970932Y1543979D01*
X972718Y1547073D01*
X974316Y1549156D01*
X976844Y1551684D01*
X978926Y1553282D01*
X982022Y1555069D01*
X984447Y1556073D01*
X987899Y1556998D01*
X990502Y1557341D01*
X994076Y1557341D01*
X996680Y1556998D01*
G37*
%TD.AperFunction*%
%TA.AperFunction,Conductor*%
G36*
X1899751Y1984938D02*
G01*
X1900221Y1984915D01*
X1900241Y1984914D01*
X1900243Y1984914D01*
X1900735Y1984878D01*
X1906510Y1984309D01*
X1915097Y1983463D01*
X1916071Y1983319D01*
X1917038Y1983126D01*
X1917993Y1982887D01*
X1931089Y1978914D01*
X1932018Y1978582D01*
X1932926Y1978206D01*
X1933818Y1977784D01*
X1945886Y1971333D01*
X1946733Y1970826D01*
X1947550Y1970280D01*
X1948343Y1969692D01*
X1958921Y1961011D01*
X1959652Y1960348D01*
X1960348Y1959652D01*
X1961011Y1958921D01*
X1969692Y1948343D01*
X1970279Y1947550D01*
X1970826Y1946733D01*
X1971333Y1945886D01*
X1977784Y1933818D01*
X1978206Y1932926D01*
X1978582Y1932016D01*
X1978915Y1931087D01*
X1982886Y1917994D01*
X1983126Y1917037D01*
X1983318Y1916073D01*
X1983463Y1915096D01*
X1984877Y1900737D01*
X1984914Y1900245D01*
X1984938Y1899753D01*
X1984950Y1899259D01*
X1984950Y100741D01*
X1984938Y100248D01*
X1984914Y99757D01*
X1984877Y99264D01*
X1983463Y84904D01*
X1983318Y83928D01*
X1983126Y82963D01*
X1982886Y82006D01*
X1978915Y68912D01*
X1978582Y67983D01*
X1978205Y67073D01*
X1977783Y66181D01*
X1971333Y54114D01*
X1970825Y53267D01*
X1970279Y52449D01*
X1969692Y51657D01*
X1961011Y41079D01*
X1960348Y40348D01*
X1959652Y39652D01*
X1958921Y38989D01*
X1948343Y30308D01*
X1947551Y29721D01*
X1946733Y29175D01*
X1945886Y28667D01*
X1933819Y22217D01*
X1932927Y21795D01*
X1932017Y21418D01*
X1931088Y21085D01*
X1917994Y17114D01*
X1917037Y16874D01*
X1916072Y16682D01*
X1915096Y16537D01*
X1900736Y15123D01*
X1900245Y15086D01*
X1899753Y15062D01*
X1899259Y15050D01*
X100741Y15050D01*
X100247Y15062D01*
X99755Y15086D01*
X99263Y15123D01*
X84904Y16537D01*
X83927Y16682D01*
X82963Y16874D01*
X82006Y17114D01*
X68913Y21085D01*
X67984Y21418D01*
X67074Y21794D01*
X66182Y22216D01*
X54114Y28667D01*
X53267Y29174D01*
X52449Y29720D01*
X51657Y30308D01*
X41079Y38989D01*
X40348Y39652D01*
X39652Y40348D01*
X38989Y41079D01*
X30308Y51657D01*
X29720Y52450D01*
X29174Y53267D01*
X28667Y54114D01*
X22216Y66182D01*
X21794Y67074D01*
X21418Y67982D01*
X21085Y68912D01*
X17113Y82006D01*
X16874Y82963D01*
X16681Y83930D01*
X16537Y84905D01*
X16433Y85960D01*
X16433Y85961D01*
X16433Y85961D01*
X15122Y99265D01*
X15086Y99757D01*
X15062Y100249D01*
X15050Y100741D01*
X15050Y1889058D01*
X78739Y1889058D01*
X78739Y1343715D01*
X78764Y1342704D01*
X78813Y1341718D01*
X80511Y1334489D01*
X83003Y1328794D01*
X83003Y1328794D01*
X84776Y1325564D01*
X85262Y1324938D01*
X84995Y1324731D01*
X87277Y1320575D01*
X86493Y1314407D01*
X86106Y1313667D01*
X82120Y1306764D01*
X82120Y1306763D01*
X79109Y1295528D01*
X79109Y1283894D01*
X79712Y1281645D01*
X80029Y1279763D01*
X80127Y1278395D01*
X80127Y1278394D01*
X84715Y1261704D01*
X84718Y1261695D01*
X84720Y1261687D01*
X84771Y1261506D01*
X86820Y1254348D01*
X87160Y1252569D01*
X87171Y1252458D01*
X88017Y1241425D01*
X88413Y1239894D01*
X88490Y1239116D01*
X88441Y1238892D01*
X88539Y1238126D01*
X88539Y336038D01*
X88539Y336038D01*
X91240Y312071D01*
X91240Y312070D01*
X91240Y312069D01*
X91240Y312069D01*
X93724Y301183D01*
X96607Y288555D01*
X96607Y288554D01*
X96607Y288554D01*
X96607Y288554D01*
X103086Y270038D01*
X104053Y267274D01*
X104574Y265787D01*
X104574Y265786D01*
X104574Y265785D01*
X115039Y244056D01*
X115039Y244055D01*
X127870Y223634D01*
X127872Y223632D01*
X127872Y223632D01*
X142908Y204777D01*
X142910Y204775D01*
X142910Y204774D01*
X142911Y204774D01*
X148390Y199295D01*
X208423Y139261D01*
X208424Y139261D01*
X211792Y135893D01*
X229110Y122082D01*
X229110Y122082D01*
X229127Y122070D01*
X229199Y122026D01*
X247626Y110447D01*
X247815Y110322D01*
X247865Y110297D01*
X247866Y110297D01*
X247866Y110297D01*
X254195Y107249D01*
X267823Y100686D01*
X288731Y93370D01*
X310327Y88441D01*
X332339Y85961D01*
X337617Y85961D01*
X337620Y85961D01*
X337932Y85961D01*
X339102Y85961D01*
X343414Y85961D01*
X348601Y85961D01*
X1391316Y85961D01*
X1392146Y85926D01*
X1392943Y85860D01*
X1394687Y85431D01*
X1402206Y85093D01*
X1402391Y85078D01*
X1402445Y85055D01*
X1403263Y84967D01*
X1406755Y84367D01*
X1408025Y84063D01*
X1413635Y82326D01*
X1413928Y82238D01*
X1413932Y82237D01*
X1413956Y82230D01*
X1413958Y82230D01*
X1413964Y82228D01*
X1414300Y82132D01*
X1430973Y77549D01*
X1430978Y77548D01*
X1430980Y77547D01*
X1431308Y77460D01*
X1431342Y77451D01*
X1431343Y77451D01*
X1431343Y77451D01*
X1432340Y77402D01*
X1434455Y77072D01*
X1436183Y76608D01*
X1436426Y76535D01*
X1436458Y76531D01*
X1436473Y76531D01*
X1436473Y76531D01*
X1448105Y76531D01*
X1448106Y76531D01*
X1448123Y76535D01*
X1459342Y79541D01*
X1459342Y79541D01*
X1459342Y79542D01*
X1459342Y79542D01*
X1469416Y85358D01*
X1469417Y85358D01*
X1469909Y85642D01*
X1475990Y86935D01*
X1480646Y85148D01*
X1480660Y85170D01*
X1480780Y85097D01*
X1480852Y85069D01*
X1480996Y84964D01*
X1480997Y84964D01*
X1480997Y84963D01*
X1486722Y82046D01*
X1486723Y82046D01*
X1486723Y82046D01*
X1486846Y82006D01*
X1487911Y81660D01*
X1487913Y81659D01*
X1491048Y80906D01*
X1491048Y80906D01*
X1491050Y80906D01*
X1493114Y80579D01*
X1494157Y80414D01*
X1494158Y80414D01*
X1494158Y80414D01*
X1497373Y80161D01*
X1888393Y80161D01*
X1894748Y81168D01*
X1897447Y82046D01*
X1900659Y83090D01*
X1900659Y83090D01*
X1900660Y83090D01*
X1906385Y86008D01*
X1906554Y86131D01*
X1906554Y86131D01*
X1906707Y86242D01*
X1906803Y86311D01*
X1906803Y86312D01*
X1906888Y86374D01*
X1906890Y86375D01*
X1907122Y86544D01*
X1907122Y86544D01*
X1908365Y87446D01*
X1908636Y88100D01*
X1909171Y88680D01*
X1911351Y90859D01*
X1915004Y95887D01*
X1917921Y101614D01*
X1918340Y102903D01*
X1918340Y102903D01*
X1918341Y102903D01*
X1919094Y106039D01*
X1919094Y106040D01*
X1919586Y109149D01*
X1919839Y112363D01*
X1919839Y112364D01*
X1919839Y1574843D01*
X1919839Y1574844D01*
X1919519Y1578457D01*
X1919519Y1578457D01*
X1918897Y1581939D01*
X1917947Y1585439D01*
X1917719Y1586056D01*
X1914578Y1591665D01*
X1914578Y1591665D01*
X1914578Y1591665D01*
X1910730Y1596546D01*
X1910729Y1596547D01*
X1908199Y1599223D01*
X1900169Y1603603D01*
X1900169Y1603603D01*
X1897618Y1604322D01*
X1897447Y1604437D01*
X1897241Y1604437D01*
X1894879Y1606153D01*
X1892449Y1607776D01*
X1892377Y1607970D01*
X1892211Y1608091D01*
X1891308Y1610868D01*
X1890297Y1613610D01*
X1890289Y1614004D01*
X1890289Y1623404D01*
X1892211Y1629317D01*
X1897241Y1632972D01*
X1897241Y1632972D01*
X1901232Y1634268D01*
X1904619Y1635716D01*
X1911507Y1641733D01*
X1915162Y1646762D01*
X1918081Y1652491D01*
X1918340Y1653288D01*
X1919094Y1656424D01*
X1919586Y1659533D01*
X1919839Y1662749D01*
X1919839Y1777843D01*
X1919839Y1777844D01*
X1919519Y1781457D01*
X1919519Y1781457D01*
X1918897Y1784939D01*
X1917947Y1788439D01*
X1917719Y1789056D01*
X1914578Y1794665D01*
X1914578Y1794665D01*
X1914578Y1794665D01*
X1910730Y1799546D01*
X1910729Y1799547D01*
X1908199Y1802223D01*
X1900169Y1806603D01*
X1900169Y1806603D01*
X1897618Y1807322D01*
X1892449Y1810776D01*
X1890297Y1816610D01*
X1890289Y1817004D01*
X1890289Y1829098D01*
X1887407Y1843587D01*
X1881753Y1857236D01*
X1881753Y1857236D01*
X1873546Y1869520D01*
X1863099Y1879967D01*
X1850815Y1888175D01*
X1850815Y1888175D01*
X1850815Y1888175D01*
X1850815Y1888175D01*
X1844059Y1890973D01*
X1841793Y1892908D01*
X1825558Y1896137D01*
X1825558Y1896137D01*
X1822676Y1896711D01*
X1822676Y1896711D01*
X1807903Y1896711D01*
X1807902Y1896711D01*
X1805020Y1896137D01*
X1805020Y1896137D01*
X1803780Y1895891D01*
X1797605Y1896622D01*
X1793040Y1900843D01*
X1792344Y1902434D01*
X1792333Y1902430D01*
X1792249Y1902651D01*
X1792249Y1902651D01*
X1792249Y1902652D01*
X1791047Y1905433D01*
X1790799Y1906044D01*
X1790768Y1906079D01*
X1790721Y1906188D01*
X1787767Y1909515D01*
X1787730Y1909556D01*
X1784782Y1912931D01*
X1782264Y1914760D01*
X1781175Y1915551D01*
X1780824Y1916034D01*
X1778246Y1917581D01*
X1776591Y1918335D01*
X1774023Y1919504D01*
X1774022Y1919504D01*
X1774022Y1919504D01*
X1774022Y1919504D01*
X1773227Y1919763D01*
X1773226Y1919763D01*
X1770091Y1920515D01*
X1766983Y1921008D01*
X1763769Y1921261D01*
X1763768Y1921261D01*
X110187Y1921261D01*
X110187Y1921261D01*
X103838Y1920255D01*
X97925Y1918335D01*
X92198Y1915417D01*
X91777Y1915112D01*
X91777Y1915111D01*
X87230Y1910565D01*
X87229Y1910564D01*
X83576Y1905535D01*
X83575Y1905534D01*
X80656Y1899806D01*
X80656Y1899805D01*
X80237Y1898516D01*
X80237Y1898516D01*
X79485Y1895381D01*
X78992Y1892272D01*
X78992Y1892272D01*
X78739Y1889058D01*
X15050Y1889058D01*
X15050Y1899259D01*
X15062Y1899751D01*
X15086Y1900243D01*
X15122Y1900737D01*
X15133Y1900843D01*
X16537Y1915097D01*
X16681Y1916070D01*
X16874Y1917040D01*
X17113Y1917992D01*
X21086Y1931090D01*
X21418Y1932017D01*
X21794Y1932927D01*
X22215Y1933816D01*
X28668Y1945889D01*
X29174Y1946733D01*
X29721Y1947551D01*
X30307Y1948342D01*
X38991Y1958923D01*
X39651Y1959651D01*
X40350Y1960350D01*
X41078Y1961010D01*
X47453Y1966242D01*
X51658Y1969693D01*
X52449Y1970279D01*
X53267Y1970826D01*
X54111Y1971332D01*
X66184Y1977785D01*
X67073Y1978206D01*
X67983Y1978582D01*
X68910Y1978914D01*
X82008Y1982887D01*
X82961Y1983126D01*
X83929Y1983319D01*
X84902Y1983463D01*
X95092Y1984467D01*
X99266Y1984878D01*
X99753Y1984914D01*
X100251Y1984938D01*
X100741Y1984950D01*
X1899259Y1984950D01*
X1899751Y1984938D01*
G37*
%TD.AperFunction*%
%TD*%
%TA.AperFunction,Conductor*%
%TO.N,/VL_XSHUT*%
G36*
X678474Y754120D02*
G01*
X687706Y744888D01*
X688049Y744061D01*
X687764Y743297D01*
X683165Y737966D01*
X680027Y732565D01*
X680026Y732564D01*
X677304Y722653D01*
X675291Y714171D01*
X675235Y713997D01*
X673056Y708691D01*
X672985Y708547D01*
X669965Y703357D01*
X669252Y702814D01*
X668365Y702934D01*
X668326Y702958D01*
X649111Y715172D01*
X648751Y715532D01*
X637924Y732565D01*
X636574Y734688D01*
X636420Y735570D01*
X636934Y736303D01*
X637029Y736357D01*
X647109Y741484D01*
X647363Y741578D01*
X656204Y743719D01*
X656256Y743730D01*
X658309Y744115D01*
X658310Y744115D01*
X658310Y744115D01*
X659826Y744604D01*
X667374Y747035D01*
X672228Y750087D01*
X676874Y754172D01*
X677722Y754461D01*
X678474Y754120D01*
G37*
%TD.AperFunction*%
%TD*%
%TA.AperFunction,Conductor*%
%TO.N,/Prog_Tx*%
G36*
X1355643Y1569769D02*
G01*
X1355780Y1569707D01*
X1356126Y1569468D01*
X1365044Y1560551D01*
X1365297Y1560171D01*
X1365375Y1559982D01*
X1365392Y1559128D01*
X1365342Y1558993D01*
X1365132Y1558638D01*
X1360711Y1553485D01*
X1360693Y1553465D01*
X1360682Y1553450D01*
X1357596Y1548014D01*
X1355046Y1538011D01*
X1353086Y1529156D01*
X1353061Y1529062D01*
X1353032Y1528968D01*
X1352999Y1528875D01*
X1350908Y1523720D01*
X1350875Y1523646D01*
X1350838Y1523572D01*
X1350799Y1523498D01*
X1347991Y1518658D01*
X1347690Y1518316D01*
X1347548Y1518208D01*
X1346683Y1517977D01*
X1346682Y1517978D01*
X1346530Y1517998D01*
X1346053Y1518173D01*
X1329043Y1529107D01*
X1326718Y1530602D01*
X1326519Y1530763D01*
X1326343Y1530941D01*
X1326184Y1531142D01*
X1323760Y1535000D01*
X1314591Y1549592D01*
X1314429Y1550019D01*
X1314399Y1550194D01*
X1314598Y1551067D01*
X1314677Y1551178D01*
X1315093Y1551540D01*
X1324837Y1556572D01*
X1324953Y1556624D01*
X1325073Y1556671D01*
X1325195Y1556710D01*
X1333822Y1558967D01*
X1333849Y1558973D01*
X1333883Y1558981D01*
X1333911Y1558987D01*
X1335547Y1559327D01*
X1342409Y1561609D01*
X1344682Y1562365D01*
X1344717Y1562376D01*
X1344722Y1562379D01*
X1344722Y1562379D01*
X1344723Y1562379D01*
X1344723Y1562379D01*
X1344737Y1562388D01*
X1344822Y1562440D01*
X1344830Y1562447D01*
X1349634Y1565493D01*
X1352758Y1568246D01*
X1354200Y1569516D01*
X1354595Y1569745D01*
X1354783Y1569810D01*
X1355643Y1569769D01*
G37*
%TD.AperFunction*%
%TD*%
%TA.AperFunction,Conductor*%
%TO.N,1v8*%
G36*
X654023Y1829517D02*
G01*
X654631Y1828942D01*
X658334Y1825444D01*
X658700Y1824626D01*
X658700Y1824622D01*
X659266Y1801561D01*
X658943Y1800726D01*
X658125Y1800363D01*
X657775Y1800407D01*
X654765Y1801265D01*
X654764Y1801265D01*
X654764Y1801265D01*
X654764Y1801265D01*
X654763Y1801265D01*
X645256Y1802465D01*
X645255Y1802465D01*
X643346Y1802446D01*
X642516Y1802780D01*
X642165Y1803604D01*
X642291Y1804145D01*
X647309Y1814029D01*
X650897Y1824054D01*
X652083Y1828942D01*
X652611Y1829665D01*
X653495Y1829803D01*
X654023Y1829517D01*
G37*
%TD.AperFunction*%
%TD*%
%TA.AperFunction,Conductor*%
%TO.N,/VL_INTR_SWDIO*%
G36*
X844127Y910164D02*
G01*
X844468Y909399D01*
X844890Y901456D01*
X846398Y895103D01*
X849029Y889956D01*
X849030Y889955D01*
X852883Y884519D01*
X852883Y884519D01*
X852883Y884518D01*
X856710Y879132D01*
X858138Y877123D01*
X858338Y876250D01*
X857862Y875491D01*
X857810Y875456D01*
X837209Y862413D01*
X836327Y862260D01*
X836306Y862264D01*
X816324Y867126D01*
X815601Y867655D01*
X815463Y868540D01*
X815480Y868599D01*
X818660Y879133D01*
X818743Y879337D01*
X822826Y887118D01*
X827440Y896814D01*
X828703Y902722D01*
X829103Y909407D01*
X829495Y910212D01*
X830271Y910507D01*
X843300Y910507D01*
X844127Y910164D01*
G37*
%TD.AperFunction*%
%TD*%
%TA.AperFunction,Conductor*%
%TO.N,/Prog_Tx*%
G36*
X1512129Y1715058D02*
G01*
X1512183Y1714927D01*
X1513049Y1712392D01*
X1512992Y1711498D01*
X1512320Y1710907D01*
X1512292Y1710898D01*
X1509338Y1709969D01*
X1506559Y1709095D01*
X1506559Y1709095D01*
X1506559Y1709095D01*
X1486923Y1698723D01*
X1486922Y1698723D01*
X1484392Y1696970D01*
X1484205Y1696929D01*
X1484055Y1696809D01*
X1483784Y1696838D01*
X1483516Y1696780D01*
X1483355Y1696884D01*
X1483165Y1696904D01*
X1482993Y1697117D01*
X1482764Y1697265D01*
X1482603Y1697601D01*
X1482460Y1698087D01*
X1482453Y1698111D01*
X1482290Y1698723D01*
X1481311Y1702404D01*
X1481430Y1703291D01*
X1482141Y1703835D01*
X1482998Y1703734D01*
X1483585Y1703417D01*
X1484419Y1702965D01*
X1510567Y1715603D01*
X1511461Y1715654D01*
X1512129Y1715058D01*
G37*
%TD.AperFunction*%
%TD*%
%TA.AperFunction,Conductor*%
%TO.N,/Sen_I2C_SCL*%
G36*
X986186Y1123554D02*
G01*
X986187Y1123554D01*
X986187Y1123554D01*
X986438Y1123531D01*
X988716Y1123324D01*
X989154Y1123196D01*
X989312Y1123113D01*
X989885Y1122425D01*
X989886Y1122424D01*
X989901Y1122373D01*
X989823Y1121487D01*
X983308Y1108923D01*
X979641Y1098976D01*
X978766Y1095409D01*
X978573Y1094995D01*
X978468Y1094851D01*
X977702Y1094387D01*
X977702Y1094387D01*
X977671Y1094382D01*
X976961Y1094497D01*
X976945Y1094506D01*
X976936Y1094510D01*
X976706Y1094665D01*
X976088Y1095198D01*
X973110Y1097766D01*
X972829Y1098126D01*
X972673Y1098437D01*
X972557Y1099108D01*
X973791Y1108922D01*
X973791Y1108923D01*
X975759Y1124585D01*
X975903Y1125018D01*
X975991Y1125173D01*
X976698Y1125722D01*
X976815Y1125754D01*
X977409Y1125760D01*
X986186Y1123554D01*
G37*
%TD.AperFunction*%
%TD*%
%TA.AperFunction,Conductor*%
%TO.N,/SW_1v8*%
G36*
X831627Y489164D02*
G01*
X831968Y488399D01*
X832390Y480456D01*
X833898Y474103D01*
X836529Y468956D01*
X836530Y468955D01*
X840383Y463519D01*
X840383Y463519D01*
X840383Y463518D01*
X844210Y458132D01*
X845638Y456123D01*
X845838Y455250D01*
X845362Y454491D01*
X845310Y454456D01*
X824709Y441413D01*
X823827Y441260D01*
X823806Y441264D01*
X803824Y446126D01*
X803101Y446655D01*
X802963Y447540D01*
X802980Y447599D01*
X806160Y458133D01*
X806243Y458337D01*
X810326Y466118D01*
X814940Y475814D01*
X816203Y481722D01*
X816603Y488407D01*
X816995Y489212D01*
X817771Y489507D01*
X830800Y489507D01*
X831627Y489164D01*
G37*
%TD.AperFunction*%
%TD*%
%TA.AperFunction,Conductor*%
%TO.N,/STM_BOOT_SWCLK*%
G36*
X687143Y881272D02*
G01*
X687279Y881210D01*
X687622Y880972D01*
X696536Y872059D01*
X696789Y871679D01*
X696866Y871494D01*
X696880Y870634D01*
X696828Y870495D01*
X696613Y870136D01*
X692112Y864995D01*
X688840Y859674D01*
X688840Y859674D01*
X688840Y859673D01*
X685687Y849975D01*
X683647Y842650D01*
X683624Y842578D01*
X683599Y842506D01*
X683572Y842435D01*
X681271Y837015D01*
X681240Y836947D01*
X681206Y836880D01*
X681170Y836814D01*
X678076Y831538D01*
X677772Y831197D01*
X677631Y831089D01*
X676764Y830863D01*
X676764Y830863D01*
X676764Y830863D01*
X676600Y830886D01*
X676146Y831049D01*
X658223Y842107D01*
X658021Y842265D01*
X657841Y842441D01*
X657677Y842639D01*
X644687Y862543D01*
X644517Y862966D01*
X644484Y863142D01*
X644668Y864018D01*
X644752Y864140D01*
X645134Y864494D01*
X649988Y867287D01*
X650062Y867326D01*
X650142Y867365D01*
X650218Y867398D01*
X655392Y869428D01*
X655489Y869461D01*
X655593Y869491D01*
X655690Y869515D01*
X664832Y871305D01*
X664856Y871309D01*
X664890Y871315D01*
X664913Y871318D01*
X667866Y871733D01*
X676698Y874371D01*
X681430Y877291D01*
X685700Y881023D01*
X686095Y881250D01*
X686286Y881315D01*
X687143Y881272D01*
G37*
%TD.AperFunction*%
%TD*%
%TA.AperFunction,Conductor*%
%TO.N,/VL_XSHUT*%
G36*
X1712125Y1352054D02*
G01*
X1712570Y1351277D01*
X1712568Y1350967D01*
X1709744Y1330718D01*
X1709391Y1330030D01*
X1704404Y1325301D01*
X1703568Y1324981D01*
X1702750Y1325345D01*
X1702457Y1325898D01*
X1701546Y1330030D01*
X1700707Y1333838D01*
X1700706Y1333838D01*
X1696968Y1343968D01*
X1694142Y1349870D01*
X1694094Y1350764D01*
X1694692Y1351430D01*
X1695224Y1351545D01*
X1703877Y1351346D01*
X1711261Y1352289D01*
X1712125Y1352054D01*
G37*
%TD.AperFunction*%
%TD*%
%TA.AperFunction,Conductor*%
%TO.N,/Sen_I2C_SCL*%
G36*
X1801125Y929054D02*
G01*
X1801570Y928277D01*
X1801568Y927967D01*
X1798744Y907718D01*
X1798391Y907030D01*
X1793404Y902301D01*
X1792568Y901981D01*
X1791750Y902345D01*
X1791457Y902898D01*
X1790546Y907030D01*
X1789707Y910838D01*
X1789706Y910838D01*
X1785968Y920968D01*
X1783142Y926870D01*
X1783094Y927764D01*
X1783692Y928430D01*
X1784224Y928545D01*
X1792877Y928346D01*
X1800261Y929289D01*
X1801125Y929054D01*
G37*
%TD.AperFunction*%
%TD*%
%TA.AperFunction,Conductor*%
%TO.N,3v3*%
G36*
X1766876Y1900218D02*
G01*
X1767673Y1899960D01*
X1767674Y1899959D01*
X1767674Y1899959D01*
X1767674Y1899959D01*
X1770185Y1898135D01*
X1772703Y1896305D01*
X1772703Y1896305D01*
X1772704Y1896304D01*
X1773686Y1893280D01*
X1774625Y1890392D01*
X1774624Y1890392D01*
X1774625Y1890391D01*
X1773662Y1887430D01*
X1772704Y1884479D01*
X1772703Y1884478D01*
X1772317Y1883947D01*
X1769768Y1881496D01*
X1767479Y1879967D01*
X1757033Y1869521D01*
X1748825Y1857236D01*
X1748768Y1857121D01*
X1748688Y1856906D01*
X1743171Y1843587D01*
X1740289Y1829098D01*
X1740289Y1814324D01*
X1743171Y1799834D01*
X1748463Y1787059D01*
X1748463Y1787059D01*
X1748825Y1786185D01*
X1748825Y1786185D01*
X1748825Y1786185D01*
X1757033Y1773901D01*
X1767480Y1763454D01*
X1779763Y1755247D01*
X1793413Y1749593D01*
X1807902Y1746711D01*
X1807902Y1746711D01*
X1822676Y1746711D01*
X1822676Y1746711D01*
X1837166Y1749593D01*
X1850815Y1755247D01*
X1863099Y1763454D01*
X1873546Y1773901D01*
X1879979Y1783530D01*
X1882116Y1785841D01*
X1882774Y1786360D01*
X1888607Y1788512D01*
X1894591Y1786824D01*
X1898440Y1781942D01*
X1898667Y1781326D01*
X1899289Y1777843D01*
X1899289Y1662749D01*
X1898797Y1659639D01*
X1898538Y1658843D01*
X1894883Y1653813D01*
X1888970Y1651892D01*
X1888969Y1651892D01*
X1888969Y1651892D01*
X1883057Y1653814D01*
X1882525Y1654200D01*
X1880074Y1656750D01*
X1878700Y1658807D01*
X1873546Y1666520D01*
X1863099Y1676967D01*
X1853886Y1683123D01*
X1850815Y1685175D01*
X1850815Y1685175D01*
X1849774Y1685606D01*
X1849774Y1685606D01*
X1844059Y1687973D01*
X1841794Y1689908D01*
X1825558Y1693137D01*
X1825558Y1693137D01*
X1822676Y1693711D01*
X1822676Y1693711D01*
X1807903Y1693711D01*
X1807902Y1693711D01*
X1805020Y1693137D01*
X1805020Y1693137D01*
X1793413Y1690829D01*
X1780094Y1685312D01*
X1779879Y1685232D01*
X1779764Y1685175D01*
X1767479Y1676967D01*
X1757033Y1666521D01*
X1756796Y1666284D01*
X1756482Y1665697D01*
X1755170Y1663732D01*
X1755170Y1663732D01*
X1748825Y1654236D01*
X1748768Y1654121D01*
X1748688Y1653906D01*
X1743171Y1640587D01*
X1741650Y1632940D01*
X1740289Y1626098D01*
X1740289Y1611324D01*
X1741078Y1607356D01*
X1743171Y1596834D01*
X1748463Y1584059D01*
X1748463Y1584059D01*
X1748825Y1583185D01*
X1748825Y1583185D01*
X1748825Y1583185D01*
X1749597Y1582030D01*
X1749597Y1582029D01*
X1751672Y1578925D01*
X1757033Y1570901D01*
X1767480Y1560454D01*
X1779763Y1552247D01*
X1793413Y1546593D01*
X1807902Y1543711D01*
X1807902Y1543711D01*
X1822676Y1543711D01*
X1822676Y1543711D01*
X1837166Y1546593D01*
X1850815Y1552247D01*
X1863099Y1560454D01*
X1873546Y1570901D01*
X1879979Y1580530D01*
X1882116Y1582841D01*
X1882774Y1583360D01*
X1888607Y1585512D01*
X1894591Y1583824D01*
X1898440Y1578942D01*
X1898667Y1578326D01*
X1899289Y1574843D01*
X1899289Y112364D01*
X1898797Y109254D01*
X1898378Y107966D01*
X1894725Y102937D01*
X1894475Y102756D01*
X1894306Y102633D01*
X1888393Y100711D01*
X1497373Y100711D01*
X1494264Y101203D01*
X1493075Y101589D01*
X1488045Y105244D01*
X1486127Y110893D01*
X1486100Y111916D01*
X1486418Y114596D01*
X1486409Y114598D01*
X1486430Y114705D01*
X1486440Y114785D01*
X1486469Y114894D01*
X1486469Y114894D01*
X1486469Y126527D01*
X1486469Y126528D01*
X1483459Y137763D01*
X1483458Y137764D01*
X1477642Y147838D01*
X1473523Y151957D01*
X1472270Y154416D01*
X1459342Y161880D01*
X1459341Y161880D01*
X1448106Y164891D01*
X1448106Y164891D01*
X1448106Y164891D01*
X1436473Y164891D01*
X1436472Y164891D01*
X1436472Y164891D01*
X1433422Y164074D01*
X1431881Y163787D01*
X1430236Y163613D01*
X1430235Y163612D01*
X1417640Y159689D01*
X1416066Y159127D01*
X1415891Y159056D01*
X1414358Y158364D01*
X1409568Y155960D01*
X1409114Y155746D01*
X1403486Y153264D01*
X1401467Y152618D01*
X1400709Y152461D01*
X1399247Y152268D01*
X1394416Y151990D01*
X1394416Y151990D01*
X1393423Y151748D01*
X1391037Y151461D01*
X516128Y151461D01*
X513019Y151953D01*
X512208Y152217D01*
X507178Y155872D01*
X505257Y161785D01*
X505263Y161803D01*
X507156Y167667D01*
X507641Y168339D01*
X509234Y169949D01*
X509221Y169962D01*
X509754Y170496D01*
X509754Y170496D01*
X509754Y170496D01*
X517819Y181422D01*
X522304Y194241D01*
X522589Y197284D01*
X522589Y258137D01*
X522304Y261181D01*
X518194Y272925D01*
X517819Y273998D01*
X517819Y273999D01*
X517819Y273999D01*
X515192Y277558D01*
X511209Y282955D01*
X509759Y285749D01*
X509330Y287035D01*
X509284Y293252D01*
X509284Y293252D01*
X509671Y294474D01*
X511167Y297411D01*
X515510Y303295D01*
X517819Y306423D01*
X519095Y310071D01*
X1572050Y310071D01*
X1572050Y289929D01*
X1575200Y270039D01*
X1575201Y270038D01*
X1575201Y270038D01*
X1581424Y250884D01*
X1586348Y241220D01*
X1589924Y234202D01*
X1590567Y232940D01*
X1590567Y232940D01*
X1591591Y231530D01*
X1591592Y231530D01*
X1602405Y216647D01*
X1602405Y216646D01*
X1602405Y216646D01*
X1616646Y202405D01*
X1632940Y190567D01*
X1632940Y190567D01*
X1632940Y190567D01*
X1634403Y189822D01*
X1634403Y189822D01*
X1650884Y181424D01*
X1660458Y178313D01*
X1670037Y175201D01*
X1670037Y175201D01*
X1670038Y175201D01*
X1689557Y172109D01*
X1689857Y172050D01*
X1710070Y172050D01*
X1712294Y172050D01*
X1713298Y172561D01*
X1729962Y175201D01*
X1749116Y181424D01*
X1767060Y190567D01*
X1783354Y202405D01*
X1797595Y216646D01*
X1809433Y232940D01*
X1818576Y250884D01*
X1824799Y270038D01*
X1827950Y289930D01*
X1827950Y310070D01*
X1827950Y310070D01*
X1827950Y310586D01*
X1827763Y311247D01*
X1827361Y313788D01*
X1824799Y329962D01*
X1819013Y347770D01*
X1818576Y349116D01*
X1818576Y349116D01*
X1818576Y349116D01*
X1809449Y367028D01*
X1809434Y367059D01*
X1809432Y367061D01*
X1797595Y383354D01*
X1783353Y397595D01*
X1775220Y403504D01*
X1775207Y403514D01*
X1767060Y409433D01*
X1767060Y409433D01*
X1767059Y409433D01*
X1766969Y409479D01*
X1766969Y409479D01*
X1749116Y418576D01*
X1734659Y423273D01*
X1729963Y424799D01*
X1729962Y424799D01*
X1729962Y424799D01*
X1729961Y424800D01*
X1710071Y427950D01*
X1710070Y427950D01*
X1710070Y427950D01*
X1689930Y427950D01*
X1689930Y427950D01*
X1689929Y427950D01*
X1670039Y424800D01*
X1670038Y424799D01*
X1670037Y424799D01*
X1650884Y418576D01*
X1632941Y409433D01*
X1632940Y409433D01*
X1632939Y409432D01*
X1632938Y409432D01*
X1616646Y397595D01*
X1602405Y383354D01*
X1590568Y367061D01*
X1590568Y367061D01*
X1590567Y367059D01*
X1590567Y367059D01*
X1581424Y349116D01*
X1575201Y329963D01*
X1575201Y329962D01*
X1575200Y329961D01*
X1572050Y310071D01*
X519095Y310071D01*
X522304Y319241D01*
X522589Y322284D01*
X522589Y383137D01*
X522304Y386181D01*
X518555Y396894D01*
X517843Y398928D01*
X517820Y398996D01*
X517819Y398998D01*
X517819Y398999D01*
X517819Y398999D01*
X509754Y409926D01*
X498827Y417990D01*
X498827Y417990D01*
X498823Y417992D01*
X498759Y418014D01*
X489596Y421220D01*
X487802Y421848D01*
X486009Y422475D01*
X486010Y422475D01*
X484902Y422579D01*
X482966Y422761D01*
X482965Y422761D01*
X392113Y422761D01*
X392113Y422761D01*
X389982Y422561D01*
X389069Y422475D01*
X379102Y418988D01*
X376252Y417990D01*
X376251Y417990D01*
X365324Y409926D01*
X357260Y398999D01*
X357260Y398998D01*
X356524Y396895D01*
X352775Y386181D01*
X352775Y386181D01*
X352489Y383137D01*
X352489Y322284D01*
X352671Y320348D01*
X352775Y319241D01*
X357130Y306792D01*
X357131Y306790D01*
X357260Y306423D01*
X357260Y306423D01*
X357260Y306423D01*
X357323Y306338D01*
X357323Y306337D01*
X359568Y303295D01*
X363870Y297467D01*
X365319Y294673D01*
X365748Y293387D01*
X365794Y287170D01*
X365794Y287169D01*
X365407Y285948D01*
X363911Y283012D01*
X357260Y273999D01*
X357260Y273998D01*
X357259Y273998D01*
X352775Y261181D01*
X352775Y261181D01*
X352775Y261181D01*
X352489Y258137D01*
X352489Y197284D01*
X352526Y196894D01*
X352775Y194241D01*
X357260Y181423D01*
X357260Y181423D01*
X357260Y181422D01*
X362818Y173892D01*
X365324Y170496D01*
X365857Y169963D01*
X365841Y169947D01*
X367444Y168320D01*
X367940Y167626D01*
X369817Y161699D01*
X367852Y155800D01*
X362832Y152195D01*
X362044Y151942D01*
X358970Y151461D01*
X343907Y151461D01*
X343581Y151466D01*
X343251Y151477D01*
X342924Y151493D01*
X339588Y151712D01*
X339588Y151712D01*
X338586Y151777D01*
X327206Y152523D01*
X326551Y152588D01*
X325901Y152673D01*
X325252Y152781D01*
X317074Y154407D01*
X317074Y154407D01*
X312500Y155317D01*
X310293Y155756D01*
X309651Y155906D01*
X309015Y156076D01*
X308386Y156267D01*
X293944Y161169D01*
X293328Y161401D01*
X292721Y161653D01*
X292121Y161924D01*
X278442Y168671D01*
X277862Y168980D01*
X277292Y169310D01*
X276734Y169657D01*
X264052Y178130D01*
X263516Y178514D01*
X262994Y178915D01*
X262486Y179332D01*
X250647Y189714D01*
X250404Y189934D01*
X250166Y190157D01*
X249928Y190387D01*
X198102Y242214D01*
X197873Y242450D01*
X197648Y242690D01*
X197428Y242933D01*
X190455Y250884D01*
X185533Y256497D01*
X185116Y257005D01*
X184715Y257528D01*
X184332Y258062D01*
X174585Y272650D01*
X174238Y273208D01*
X174096Y273454D01*
X173908Y273780D01*
X173597Y274360D01*
X165837Y290096D01*
X165567Y290693D01*
X165313Y291305D01*
X165082Y291919D01*
X163634Y296185D01*
X159443Y308533D01*
X159252Y309161D01*
X159081Y309799D01*
X158932Y310437D01*
X155508Y327652D01*
X155402Y328295D01*
X155316Y328948D01*
X155252Y329598D01*
X154071Y347610D01*
X154055Y347932D01*
X154045Y348267D01*
X154039Y348591D01*
X154039Y633137D01*
X352489Y633137D01*
X352489Y632509D01*
X352489Y572284D01*
X352495Y572225D01*
X352764Y569350D01*
X352775Y569241D01*
X357260Y556423D01*
X357260Y556423D01*
X357260Y556423D01*
X365324Y545496D01*
X376251Y537431D01*
X376251Y537431D01*
X376251Y537431D01*
X376254Y537430D01*
X376318Y537408D01*
X377280Y537072D01*
X377280Y537072D01*
X377280Y537071D01*
X380002Y536119D01*
X389069Y532946D01*
X392113Y532661D01*
X392113Y532661D01*
X482965Y532661D01*
X482966Y532661D01*
X486009Y532946D01*
X498827Y537431D01*
X509754Y545496D01*
X517819Y556423D01*
X522304Y569241D01*
X522589Y572284D01*
X522589Y633137D01*
X522304Y636181D01*
X517854Y648897D01*
X517819Y648998D01*
X517819Y648999D01*
X517819Y648999D01*
X509754Y659926D01*
X498827Y667990D01*
X498827Y667990D01*
X498823Y667992D01*
X498759Y668014D01*
X488708Y671531D01*
X488708Y671531D01*
X486632Y672257D01*
X486009Y672475D01*
X482966Y672761D01*
X482965Y672761D01*
X392113Y672761D01*
X392113Y672761D01*
X389982Y672561D01*
X389069Y672475D01*
X379102Y668988D01*
X376252Y667990D01*
X376251Y667990D01*
X365324Y659926D01*
X358556Y650755D01*
X357260Y648999D01*
X357259Y648998D01*
X353466Y638156D01*
X353466Y638155D01*
X353190Y637369D01*
X352775Y636181D01*
X352489Y633137D01*
X154039Y633137D01*
X154039Y1176234D01*
X514630Y1176234D01*
X514630Y1164600D01*
X517640Y1153365D01*
X517640Y1153364D01*
X523457Y1143290D01*
X523457Y1143290D01*
X531683Y1135065D01*
X531682Y1135065D01*
X535809Y1132682D01*
X541757Y1129248D01*
X541757Y1129248D01*
X541757Y1129248D01*
X546612Y1127947D01*
X549487Y1126667D01*
X550624Y1125929D01*
X551627Y1124690D01*
X551827Y1124561D01*
X551912Y1124339D01*
X554537Y1121097D01*
X554939Y1120049D01*
X555608Y1116444D01*
X555608Y993879D01*
X555265Y991275D01*
X554603Y988804D01*
X553598Y986378D01*
X548593Y977710D01*
X548593Y977709D01*
X545582Y966474D01*
X545582Y954840D01*
X547995Y945838D01*
X548593Y943604D01*
X548593Y943604D01*
X548593Y943604D01*
X549162Y942619D01*
X549162Y942618D01*
X553598Y934936D01*
X554603Y932510D01*
X555265Y930039D01*
X555608Y927435D01*
X555608Y810250D01*
X555265Y807646D01*
X554603Y805175D01*
X553598Y802749D01*
X548410Y793764D01*
X548410Y793763D01*
X545399Y782528D01*
X545399Y770894D01*
X548410Y759658D01*
X548410Y759658D01*
X554226Y749584D01*
X554227Y749584D01*
X562452Y741358D01*
X562452Y741358D01*
X562452Y741358D01*
X572527Y735541D01*
X572527Y735541D01*
X572527Y735541D01*
X583472Y732609D01*
X583472Y732609D01*
X583763Y732531D01*
X583763Y732531D01*
X583763Y732531D01*
X593493Y732531D01*
X596602Y732038D01*
X597689Y731685D01*
X597891Y731619D01*
X602919Y727968D01*
X603026Y727820D01*
X604907Y722825D01*
X605067Y721089D01*
X605109Y720168D01*
X605109Y709894D01*
X608120Y698659D01*
X608120Y698658D01*
X613936Y688584D01*
X613936Y688584D01*
X613937Y688584D01*
X622162Y680358D01*
X622162Y680358D01*
X627646Y677192D01*
X632237Y674542D01*
X632237Y674542D01*
X632237Y674541D01*
X643182Y671609D01*
X643182Y671609D01*
X643473Y671531D01*
X643473Y671531D01*
X643473Y671531D01*
X655106Y671531D01*
X655106Y671531D01*
X655107Y671531D01*
X666342Y674541D01*
X666342Y674541D01*
X666342Y674542D01*
X676416Y680358D01*
X684642Y688584D01*
X685713Y690439D01*
X686884Y692068D01*
X687727Y693021D01*
X690747Y698212D01*
X691417Y699460D01*
X691488Y699604D01*
X692066Y700885D01*
X694245Y706191D01*
X694796Y707698D01*
X694852Y707872D01*
X695286Y709426D01*
X697175Y717387D01*
X697261Y717723D01*
X698724Y723051D01*
X700809Y726958D01*
X703322Y729871D01*
X703747Y730590D01*
X705294Y732584D01*
X779815Y807105D01*
X779978Y807202D01*
X782390Y809680D01*
X782739Y810029D01*
X783288Y810539D01*
X783858Y811029D01*
X784445Y811497D01*
X784539Y811566D01*
X785493Y812763D01*
X785811Y813143D01*
X786139Y813514D01*
X786473Y813876D01*
X787546Y814977D01*
X787618Y815108D01*
X788046Y815805D01*
X788504Y816486D01*
X788988Y817147D01*
X789257Y817483D01*
X789746Y818052D01*
X790256Y818602D01*
X790788Y819133D01*
X791111Y819433D01*
X791772Y820486D01*
X792082Y820950D01*
X792412Y821415D01*
X792747Y821860D01*
X793524Y822835D01*
X793701Y823240D01*
X794025Y823913D01*
X794377Y824579D01*
X794755Y825233D01*
X794788Y825287D01*
X798081Y828528D01*
X798425Y828736D01*
X798425Y828737D01*
X798620Y828855D01*
X798835Y828906D01*
X798837Y828908D01*
X798853Y828910D01*
X804671Y830282D01*
X808872Y828969D01*
X811662Y827358D01*
X811662Y827358D01*
X811662Y827358D01*
X816559Y824531D01*
X821736Y821541D01*
X821737Y821541D01*
X821737Y821541D01*
X828372Y819763D01*
X832682Y818609D01*
X832905Y818542D01*
X832973Y818531D01*
X832973Y818531D01*
X844605Y818531D01*
X844606Y818531D01*
X849207Y819763D01*
X855530Y821458D01*
X856013Y821571D01*
X856322Y821670D01*
X859289Y822465D01*
X861663Y824902D01*
X865916Y827358D01*
X874142Y835584D01*
X879958Y845658D01*
X881566Y851658D01*
X882068Y853531D01*
X882606Y855538D01*
X882969Y856894D01*
X882969Y856894D01*
X882969Y868527D01*
X882969Y868528D01*
X879959Y879763D01*
X879958Y879764D01*
X879958Y879764D01*
X876879Y885096D01*
X875858Y886866D01*
X874890Y889025D01*
X869635Y896421D01*
X869633Y896424D01*
X867112Y899981D01*
X865531Y903479D01*
X865521Y903519D01*
X865265Y905303D01*
X864989Y910489D01*
X864739Y911531D01*
X864459Y913885D01*
X864459Y1051736D01*
X864952Y1054844D01*
X865309Y1055946D01*
X868964Y1060975D01*
X869316Y1061090D01*
X874877Y1062897D01*
X875372Y1062897D01*
X880402Y1061549D01*
X880821Y1061307D01*
X880821Y1061307D01*
X880821Y1061307D01*
X889801Y1058901D01*
X891766Y1058374D01*
X891766Y1058374D01*
X892057Y1058296D01*
X892057Y1058296D01*
X892057Y1058296D01*
X903690Y1058296D01*
X903690Y1058296D01*
X903859Y1058342D01*
X911509Y1060391D01*
X914926Y1061307D01*
X925001Y1067123D01*
X925773Y1067896D01*
X928319Y1069746D01*
X929382Y1070288D01*
X935523Y1071261D01*
X938980Y1070037D01*
X941662Y1068488D01*
X941662Y1068488D01*
X949916Y1063723D01*
X949916Y1063723D01*
X951736Y1062672D01*
X953746Y1062133D01*
X962415Y1059810D01*
X962682Y1059739D01*
X962682Y1059739D01*
X962973Y1059661D01*
X962973Y1059661D01*
X962973Y1059661D01*
X974605Y1059661D01*
X974606Y1059661D01*
X975164Y1059810D01*
X985842Y1062671D01*
X985842Y1062671D01*
X985842Y1062672D01*
X985842Y1062672D01*
X986322Y1062800D01*
X986322Y1062800D01*
X989289Y1063595D01*
X991663Y1066032D01*
X995916Y1068488D01*
X1004142Y1076714D01*
X1009958Y1086788D01*
X1012545Y1096440D01*
X1013549Y1098865D01*
X1014829Y1101082D01*
X1016427Y1103164D01*
X1024136Y1110874D01*
X1026682Y1112723D01*
X1027714Y1113249D01*
X1033855Y1114221D01*
X1039394Y1111399D01*
X1039744Y1111049D01*
X1042348Y1106539D01*
X1043099Y1103736D01*
X1043118Y1103663D01*
X1043120Y1103658D01*
X1048936Y1093584D01*
X1048937Y1093584D01*
X1057162Y1085358D01*
X1057162Y1085358D01*
X1067100Y1079620D01*
X1067493Y1079340D01*
X1067573Y1079232D01*
X1068185Y1078799D01*
X1069633Y1077563D01*
X1072882Y1072264D01*
X1072924Y1072087D01*
X1072751Y1066753D01*
X1072588Y1066227D01*
X1071692Y1064180D01*
X1071211Y1063346D01*
X1069505Y1060391D01*
X1069505Y1060391D01*
X1068408Y1056298D01*
X1068408Y1056297D01*
X1067619Y1053354D01*
X1067619Y1053354D01*
X1067619Y1053354D01*
X1067619Y1053354D01*
X1067619Y957892D01*
X1067619Y957892D01*
X1067619Y956446D01*
X1067619Y956215D01*
X1067619Y954001D01*
X1067598Y953344D01*
X1067576Y953013D01*
X1067555Y952687D01*
X1067490Y952033D01*
X1066657Y945707D01*
X1066401Y944417D01*
X1066062Y943154D01*
X1065639Y941907D01*
X1063578Y936931D01*
X1062996Y935751D01*
X1062342Y934618D01*
X1061611Y933525D01*
X1057727Y928462D01*
X1057309Y927952D01*
X1056876Y927459D01*
X1056427Y926980D01*
X1055275Y925828D01*
X826772Y697325D01*
X826772Y697325D01*
X824316Y694869D01*
X824316Y694869D01*
X818248Y688801D01*
X809814Y677193D01*
X809814Y677192D01*
X809813Y677191D01*
X809813Y677191D01*
X803298Y664405D01*
X798865Y650760D01*
X798864Y650757D01*
X798864Y650755D01*
X796619Y636585D01*
X796619Y492951D01*
X796560Y491861D01*
X796479Y491122D01*
X796090Y489635D01*
X795813Y485016D01*
X795787Y484770D01*
X795750Y484690D01*
X795623Y483754D01*
X795594Y483618D01*
X794841Y481403D01*
X792028Y475490D01*
X791852Y475138D01*
X788048Y467889D01*
X788047Y467887D01*
X787226Y466123D01*
X787223Y466118D01*
X787143Y465922D01*
X787140Y465915D01*
X786487Y464073D01*
X783306Y453537D01*
X783142Y452963D01*
X783126Y452905D01*
X783126Y452904D01*
X783074Y451954D01*
X782746Y449904D01*
X782109Y447528D01*
X782109Y435894D01*
X785120Y424658D01*
X785120Y424658D01*
X790936Y414584D01*
X790936Y414584D01*
X799162Y406358D01*
X799162Y406358D01*
X799162Y406358D01*
X809236Y400541D01*
X809237Y400541D01*
X809237Y400541D01*
X820182Y397609D01*
X820182Y397609D01*
X820473Y397531D01*
X820473Y397531D01*
X820473Y397531D01*
X832105Y397531D01*
X832106Y397531D01*
X832346Y397595D01*
X843342Y400541D01*
X843342Y400541D01*
X843342Y400541D01*
X853416Y406358D01*
X861642Y414584D01*
X867458Y424658D01*
X870469Y435894D01*
X870469Y447527D01*
X867458Y458763D01*
X864394Y464072D01*
X863743Y465199D01*
X863743Y465199D01*
X863357Y465866D01*
X862390Y468025D01*
X857135Y475421D01*
X857133Y475424D01*
X854612Y478981D01*
X853031Y482479D01*
X853021Y482519D01*
X852765Y484303D01*
X852489Y489489D01*
X852239Y490531D01*
X851959Y492885D01*
X851959Y590301D01*
X939239Y590301D01*
X939239Y577121D01*
X942650Y564393D01*
X942650Y564392D01*
X949239Y552980D01*
X954451Y547768D01*
X955704Y545309D01*
X958558Y543661D01*
X969347Y537432D01*
X969971Y537072D01*
X969971Y537072D01*
X969971Y537071D01*
X981883Y533880D01*
X982047Y533830D01*
X982079Y533807D01*
X982551Y533696D01*
X982691Y533661D01*
X982700Y533661D01*
X982700Y533661D01*
X995878Y533661D01*
X995878Y533661D01*
X995878Y533661D01*
X995878Y533661D01*
X995879Y533661D01*
X995879Y533661D01*
X995880Y533661D01*
X996026Y533696D01*
X996027Y533696D01*
X996644Y533841D01*
X996862Y533924D01*
X1008607Y537071D01*
X1008607Y537071D01*
X1008608Y537072D01*
X1008608Y537072D01*
X1009087Y537200D01*
X1009088Y537200D01*
X1012054Y537995D01*
X1014429Y540432D01*
X1020021Y543661D01*
X1029339Y552979D01*
X1035928Y564392D01*
X1037257Y569350D01*
X1038027Y572225D01*
X1038027Y572225D01*
X1039339Y577120D01*
X1039339Y577120D01*
X1039339Y577121D01*
X1039339Y577122D01*
X1039339Y590300D01*
X1039339Y590301D01*
X1035929Y603029D01*
X1035928Y603030D01*
X1035928Y603030D01*
X1033095Y607938D01*
X1032754Y608527D01*
X1029339Y614442D01*
X1023677Y620105D01*
X1023286Y620610D01*
X1022713Y622207D01*
X1008608Y630350D01*
X1008607Y630350D01*
X995879Y633761D01*
X995879Y633761D01*
X995878Y633761D01*
X982700Y633761D01*
X982699Y633761D01*
X982699Y633761D01*
X969971Y630350D01*
X969970Y630350D01*
X958558Y623761D01*
X958558Y623761D01*
X949239Y614442D01*
X949239Y614442D01*
X942650Y603030D01*
X942650Y603029D01*
X939239Y590301D01*
X851959Y590301D01*
X851959Y624529D01*
X851959Y624529D01*
X851959Y628421D01*
X851981Y629076D01*
X852024Y629737D01*
X852088Y630387D01*
X852450Y633137D01*
X852921Y636716D01*
X853177Y638004D01*
X853516Y639269D01*
X853938Y640512D01*
X856001Y645493D01*
X856582Y646671D01*
X856712Y646895D01*
X857236Y647803D01*
X857965Y648895D01*
X861854Y653963D01*
X862269Y654468D01*
X862702Y654961D01*
X863150Y655441D01*
X865904Y658194D01*
X865904Y658194D01*
X867318Y659608D01*
X867318Y659609D01*
X1091391Y883681D01*
X1091392Y883682D01*
X1092806Y885096D01*
X1092806Y885096D01*
X1096256Y888546D01*
X1101330Y893620D01*
X1109765Y905230D01*
X1116280Y918016D01*
X1116280Y918016D01*
X1120714Y931663D01*
X1120714Y931664D01*
X1120714Y931664D01*
X1120714Y931664D01*
X1120941Y933093D01*
X1145489Y933093D01*
X1145489Y921459D01*
X1148500Y910224D01*
X1148500Y910223D01*
X1154316Y900149D01*
X1154316Y900149D01*
X1162542Y891923D01*
X1162542Y891923D01*
X1166155Y889838D01*
X1172616Y886107D01*
X1172617Y886107D01*
X1172617Y886107D01*
X1182976Y883331D01*
X1183562Y883174D01*
X1183562Y883174D01*
X1183853Y883096D01*
X1183853Y883096D01*
X1183853Y883096D01*
X1195485Y883096D01*
X1195486Y883096D01*
X1195776Y883174D01*
X1202950Y885096D01*
X1206722Y886107D01*
X1216796Y891923D01*
X1225022Y900149D01*
X1230838Y910223D01*
X1233849Y921460D01*
X1233849Y933093D01*
X1233733Y933525D01*
X1233593Y934048D01*
X1233593Y934048D01*
X1232846Y936837D01*
X1230839Y944329D01*
X1230838Y944329D01*
X1227690Y949782D01*
X1225022Y954403D01*
X1220903Y958522D01*
X1220637Y959045D01*
X1220148Y959368D01*
X1219514Y961060D01*
X1206722Y968445D01*
X1206721Y968446D01*
X1195486Y971456D01*
X1195486Y971456D01*
X1195486Y971456D01*
X1183853Y971456D01*
X1183852Y971456D01*
X1183852Y971456D01*
X1172617Y968446D01*
X1172616Y968445D01*
X1162542Y962629D01*
X1162542Y962629D01*
X1154316Y954403D01*
X1154316Y954403D01*
X1148500Y944329D01*
X1148500Y944329D01*
X1145489Y933093D01*
X1120941Y933093D01*
X1122959Y945838D01*
X1122959Y953013D01*
X1122959Y957892D01*
X1122959Y1032489D01*
X1123452Y1035597D01*
X1124219Y1037958D01*
X1126673Y1041963D01*
X1133685Y1048975D01*
X1134519Y1049809D01*
X1142567Y1057857D01*
X1144639Y1059449D01*
X1145272Y1059816D01*
X1147660Y1061915D01*
X1148166Y1062133D01*
X1148496Y1062574D01*
X1150980Y1063346D01*
X1153370Y1064376D01*
X1153907Y1064255D01*
X1154433Y1064419D01*
X1156897Y1063583D01*
X1159436Y1063011D01*
X1159799Y1062598D01*
X1160321Y1062421D01*
X1161823Y1060296D01*
X1163541Y1058342D01*
X1163910Y1057343D01*
X1164429Y1055672D01*
X1164539Y1055292D01*
X1167120Y1045659D01*
X1167120Y1045658D01*
X1172936Y1035584D01*
X1172937Y1035584D01*
X1181162Y1027358D01*
X1181162Y1027358D01*
X1182347Y1026674D01*
X1182485Y1026551D01*
X1183030Y1026156D01*
X1183030Y1026155D01*
X1185740Y1024187D01*
X1185741Y1024187D01*
X1185741Y1024186D01*
X1189364Y1022063D01*
X1190967Y1021124D01*
X1191530Y1020806D01*
X1191593Y1020772D01*
X1192214Y1020447D01*
X1192280Y1020413D01*
X1192283Y1020412D01*
X1192895Y1020118D01*
X1192938Y1020098D01*
X1192966Y1020085D01*
X1193378Y1019903D01*
X1193559Y1019823D01*
X1198958Y1017540D01*
X1199611Y1017277D01*
X1199684Y1017249D01*
X1200324Y1017016D01*
X1200397Y1016991D01*
X1201033Y1016783D01*
X1201106Y1016760D01*
X1201747Y1016573D01*
X1201748Y1016573D01*
X1201749Y1016572D01*
X1208569Y1014702D01*
X1208973Y1014582D01*
X1214566Y1012794D01*
X1218124Y1010786D01*
X1221290Y1008017D01*
X1221291Y1008016D01*
X1221292Y1008016D01*
X1223455Y1006443D01*
X1224653Y1005420D01*
X1251276Y978797D01*
X1251761Y978130D01*
X1252032Y977950D01*
X1252182Y977550D01*
X1253126Y976250D01*
X1254253Y974039D01*
X1255349Y969472D01*
X1255349Y596900D01*
X1257321Y589541D01*
X1257321Y589540D01*
X1261131Y582941D01*
X1261132Y582941D01*
X1308166Y535906D01*
X1310016Y533361D01*
X1311143Y531149D01*
X1312239Y526582D01*
X1312239Y516121D01*
X1315650Y503393D01*
X1315650Y503392D01*
X1322239Y491979D01*
X1322239Y491979D01*
X1331558Y482661D01*
X1331558Y482661D01*
X1331558Y482661D01*
X1342971Y476071D01*
X1342971Y476071D01*
X1342971Y476071D01*
X1354717Y472924D01*
X1355700Y472661D01*
X1355700Y472661D01*
X1355700Y472661D01*
X1368878Y472661D01*
X1368878Y472661D01*
X1368879Y472661D01*
X1368879Y472661D01*
X1368879Y472661D01*
X1368879Y472661D01*
X1368880Y472661D01*
X1369026Y472696D01*
X1369027Y472696D01*
X1369644Y472841D01*
X1369862Y472924D01*
X1381608Y476071D01*
X1381607Y476071D01*
X1381608Y476071D01*
X1381608Y476072D01*
X1382087Y476200D01*
X1382088Y476200D01*
X1385055Y476995D01*
X1387429Y479432D01*
X1393021Y482661D01*
X1402339Y491979D01*
X1408928Y503392D01*
X1412339Y516121D01*
X1412339Y529300D01*
X1412339Y529300D01*
X1412304Y529449D01*
X1412304Y529449D01*
X1412158Y530066D01*
X1412076Y530284D01*
X1411439Y532661D01*
X1408929Y542029D01*
X1408928Y542030D01*
X1407987Y543661D01*
X1402339Y553442D01*
X1397128Y558654D01*
X1395875Y561113D01*
X1381608Y569350D01*
X1381607Y569350D01*
X1368879Y572761D01*
X1368879Y572761D01*
X1368879Y572761D01*
X1358927Y572761D01*
X1355818Y573253D01*
X1353458Y574020D01*
X1349453Y576474D01*
X1317303Y608625D01*
X1315452Y611172D01*
X1314326Y613383D01*
X1313229Y617950D01*
X1313229Y676511D01*
X1313722Y679619D01*
X1313793Y679838D01*
X1314065Y680676D01*
X1317719Y685706D01*
X1323632Y687627D01*
X1328888Y686145D01*
X1329387Y685840D01*
X1331245Y684375D01*
X1332155Y683465D01*
X1333408Y681006D01*
X1344379Y674672D01*
X1344379Y674672D01*
X1344604Y674542D01*
X1346337Y673542D01*
X1346337Y673542D01*
X1346337Y673541D01*
X1346873Y673398D01*
X1346873Y673398D01*
X1357282Y670609D01*
X1357505Y670542D01*
X1357573Y670531D01*
X1357573Y670531D01*
X1369206Y670531D01*
X1369206Y670531D01*
X1369247Y670542D01*
X1380442Y673541D01*
X1380442Y673541D01*
X1380442Y673542D01*
X1390516Y679358D01*
X1398742Y687584D01*
X1404558Y697658D01*
X1405646Y701716D01*
X1406925Y704590D01*
X1407664Y705728D01*
X1412496Y709640D01*
X1413545Y710043D01*
X1417149Y710711D01*
X1676251Y710711D01*
X1679359Y710218D01*
X1680156Y709960D01*
X1680156Y709959D01*
X1680157Y709959D01*
X1680157Y709959D01*
X1682732Y708088D01*
X1685186Y706305D01*
X1685186Y706305D01*
X1685186Y706304D01*
X1686133Y703388D01*
X1687107Y700392D01*
X1687107Y700392D01*
X1687107Y700391D01*
X1686190Y697570D01*
X1685186Y694479D01*
X1685185Y694478D01*
X1684933Y694132D01*
X1681825Y691333D01*
X1676162Y688064D01*
X1667936Y679838D01*
X1667936Y679838D01*
X1662120Y669764D01*
X1662120Y669763D01*
X1659109Y658528D01*
X1659109Y646894D01*
X1662120Y635659D01*
X1662120Y635658D01*
X1667936Y625584D01*
X1667936Y625584D01*
X1676162Y617358D01*
X1676162Y617358D01*
X1677016Y616865D01*
X1686236Y611542D01*
X1686237Y611542D01*
X1686237Y611541D01*
X1692916Y609752D01*
X1697182Y608609D01*
X1697182Y608609D01*
X1697473Y608531D01*
X1697473Y608531D01*
X1697473Y608531D01*
X1709105Y608531D01*
X1709106Y608531D01*
X1709396Y608609D01*
X1720342Y611541D01*
X1720342Y611541D01*
X1720342Y611542D01*
X1730416Y617358D01*
X1738642Y625584D01*
X1744458Y635658D01*
X1747093Y645491D01*
X1747469Y646894D01*
X1747469Y646895D01*
X1747469Y658527D01*
X1747469Y658527D01*
X1747469Y658528D01*
X1747179Y659609D01*
X1744459Y669763D01*
X1744458Y669764D01*
X1741625Y674672D01*
X1740094Y677323D01*
X1740094Y677323D01*
X1739643Y678104D01*
X1738642Y679838D01*
X1734229Y684251D01*
X1733959Y684570D01*
X1733183Y686466D01*
X1725085Y691142D01*
X1722639Y693122D01*
X1722417Y693368D01*
X1722078Y693745D01*
X1722078Y693746D01*
X1722077Y693746D01*
X1722077Y693747D01*
X1720782Y696656D01*
X1719549Y699424D01*
X1719549Y699425D01*
X1719549Y699427D01*
X1720214Y702551D01*
X1720841Y705506D01*
X1720842Y705507D01*
X1720843Y705508D01*
X1723068Y707511D01*
X1725461Y709666D01*
X1725855Y709842D01*
X1729945Y710711D01*
X1851289Y710711D01*
X1851289Y790711D01*
X1389289Y790711D01*
X1389289Y768213D01*
X1388797Y765104D01*
X1388411Y763915D01*
X1384756Y758885D01*
X1379107Y756968D01*
X1378084Y756941D01*
X1375216Y757280D01*
X1369206Y758891D01*
X1369206Y758891D01*
X1369206Y758891D01*
X1357573Y758891D01*
X1357572Y758891D01*
X1357572Y758891D01*
X1346337Y755880D01*
X1346336Y755880D01*
X1336262Y750064D01*
X1336262Y750063D01*
X1331530Y745331D01*
X1328983Y743481D01*
X1327992Y742976D01*
X1321851Y742004D01*
X1316312Y744827D01*
X1313644Y749592D01*
X1313507Y750161D01*
X1313229Y752508D01*
X1313229Y990520D01*
X1313229Y990521D01*
X1313229Y990521D01*
X1311600Y996602D01*
X1311600Y996602D01*
X1311257Y997881D01*
X1311257Y997881D01*
X1307447Y1004480D01*
X1265456Y1046472D01*
X1264762Y1047241D01*
X1264583Y1047461D01*
X1262887Y1049809D01*
X1260276Y1052762D01*
X1260144Y1052924D01*
X1259969Y1053378D01*
X1258408Y1056086D01*
X1256355Y1062245D01*
X1256227Y1062657D01*
X1253978Y1070530D01*
X1253657Y1071552D01*
X1253618Y1071666D01*
X1253251Y1072653D01*
X1253207Y1072763D01*
X1252794Y1073721D01*
X1252744Y1073830D01*
X1252272Y1074786D01*
X1247222Y1084387D01*
X1244543Y1088278D01*
X1243642Y1089838D01*
X1239267Y1094213D01*
X1239030Y1094487D01*
X1238199Y1096457D01*
X1225342Y1103880D01*
X1225342Y1103880D01*
X1214106Y1106891D01*
X1214053Y1106898D01*
X1212257Y1107304D01*
X1211161Y1107660D01*
X1210724Y1107802D01*
X1210440Y1108009D01*
X1205695Y1111456D01*
X1205391Y1111875D01*
X1203469Y1117788D01*
X1203469Y1119527D01*
X1203469Y1119527D01*
X1203469Y1119528D01*
X1200459Y1130763D01*
X1200458Y1130764D01*
X1199992Y1131571D01*
X1198865Y1134508D01*
X1198751Y1135045D01*
X1198624Y1135641D01*
X1199273Y1141824D01*
X1203433Y1146445D01*
X1203864Y1146694D01*
X1208893Y1148041D01*
X1401464Y1148041D01*
X1404572Y1147549D01*
X1405674Y1147191D01*
X1405674Y1147191D01*
X1405674Y1147191D01*
X1405674Y1147191D01*
X1407962Y1145528D01*
X1410704Y1143537D01*
X1410704Y1143537D01*
X1410704Y1143536D01*
X1411462Y1141203D01*
X1412625Y1137624D01*
X1412625Y1137128D01*
X1411278Y1132098D01*
X1408313Y1126963D01*
X1405744Y1122513D01*
X1405401Y1121234D01*
X1402733Y1111278D01*
X1402733Y1099644D01*
X1405744Y1088409D01*
X1405744Y1088408D01*
X1405744Y1088408D01*
X1405917Y1088108D01*
X1407045Y1085170D01*
X1407276Y1084083D01*
X1406626Y1077899D01*
X1402466Y1073279D01*
X1397173Y1071934D01*
X1396588Y1071950D01*
X1394248Y1072289D01*
X1386285Y1074423D01*
X1386285Y1074423D01*
X1386284Y1074423D01*
X1374652Y1074423D01*
X1374651Y1074423D01*
X1374651Y1074423D01*
X1363416Y1071412D01*
X1363415Y1071412D01*
X1353341Y1065596D01*
X1353341Y1065595D01*
X1345115Y1057370D01*
X1345115Y1057370D01*
X1339299Y1047296D01*
X1339298Y1047295D01*
X1336288Y1036060D01*
X1336288Y1024426D01*
X1339298Y1013190D01*
X1339299Y1013190D01*
X1345115Y1003116D01*
X1352652Y995578D01*
X1354503Y993032D01*
X1355118Y991824D01*
X1356090Y985684D01*
X1356090Y985683D01*
X1356090Y985683D01*
X1356090Y985683D01*
X1356010Y985173D01*
X1353187Y979633D01*
X1347463Y973909D01*
X1341647Y963834D01*
X1341646Y963834D01*
X1338636Y952598D01*
X1338636Y940964D01*
X1341646Y929729D01*
X1341647Y929728D01*
X1347463Y919654D01*
X1350368Y916750D01*
X1352218Y914203D01*
X1352833Y912995D01*
X1353806Y906854D01*
X1353806Y906853D01*
X1353725Y906342D01*
X1350902Y900804D01*
X1345936Y895838D01*
X1340120Y885764D01*
X1340120Y885763D01*
X1337109Y874528D01*
X1337109Y862894D01*
X1340120Y851658D01*
X1340120Y851658D01*
X1345936Y841584D01*
X1345936Y841584D01*
X1345937Y841584D01*
X1354162Y833358D01*
X1354162Y833358D01*
X1360208Y829868D01*
X1364237Y827541D01*
X1364237Y827541D01*
X1364237Y827541D01*
X1374057Y824910D01*
X1375182Y824609D01*
X1375182Y824609D01*
X1375473Y824531D01*
X1375473Y824531D01*
X1375473Y824531D01*
X1387106Y824531D01*
X1387106Y824531D01*
X1387106Y824531D01*
X1388530Y824912D01*
X1397657Y827358D01*
X1397658Y827358D01*
X1397738Y827380D01*
X1398342Y827541D01*
X1408416Y833358D01*
X1416642Y841584D01*
X1421018Y849163D01*
X1421800Y850323D01*
X1423133Y852030D01*
X1423133Y852030D01*
X1423861Y852962D01*
X1429015Y856440D01*
X1429015Y856440D01*
X1429415Y856555D01*
X1434323Y856717D01*
X1434586Y856660D01*
X1434586Y856660D01*
X1435441Y856475D01*
X1435911Y856361D01*
X1446182Y853609D01*
X1446182Y853609D01*
X1446473Y853531D01*
X1446473Y853531D01*
X1446473Y853531D01*
X1458105Y853531D01*
X1458106Y853531D01*
X1458396Y853609D01*
X1468965Y856440D01*
X1469342Y856541D01*
X1479416Y862358D01*
X1487642Y870584D01*
X1493458Y880658D01*
X1496469Y891894D01*
X1496469Y903527D01*
X1496469Y903528D01*
X1496013Y905230D01*
X1496013Y905231D01*
X1494713Y910083D01*
X1493459Y914763D01*
X1493458Y914764D01*
X1491900Y917463D01*
X1487642Y924838D01*
X1483523Y928956D01*
X1482270Y931416D01*
X1469342Y938880D01*
X1469341Y938880D01*
X1458106Y941891D01*
X1458106Y941891D01*
X1458106Y941891D01*
X1446473Y941891D01*
X1446473Y941891D01*
X1446472Y941891D01*
X1446472Y941891D01*
X1446472Y941891D01*
X1441198Y940478D01*
X1438068Y940149D01*
X1437721Y940167D01*
X1436819Y940214D01*
X1431015Y942443D01*
X1427700Y947404D01*
X1427410Y948384D01*
X1426996Y951241D01*
X1426996Y952597D01*
X1426996Y952598D01*
X1426996Y952598D01*
X1423985Y963834D01*
X1423985Y963834D01*
X1419195Y972130D01*
X1418169Y973908D01*
X1410631Y981446D01*
X1408781Y983993D01*
X1408166Y985201D01*
X1407193Y991340D01*
X1407274Y991852D01*
X1410096Y997391D01*
X1415821Y1003115D01*
X1416609Y1004480D01*
X1421637Y1013190D01*
X1422600Y1016783D01*
X1424015Y1022063D01*
X1424397Y1023490D01*
X1424648Y1024426D01*
X1424648Y1024426D01*
X1424648Y1036059D01*
X1424648Y1036059D01*
X1421637Y1047295D01*
X1421637Y1047295D01*
X1421637Y1047296D01*
X1421155Y1048131D01*
X1420913Y1048701D01*
X1420876Y1049126D01*
X1420336Y1050534D01*
X1420105Y1051621D01*
X1420408Y1054511D01*
X1420375Y1054895D01*
X1420464Y1055044D01*
X1420755Y1057804D01*
X1424915Y1062425D01*
X1430208Y1063769D01*
X1430793Y1063754D01*
X1433133Y1063415D01*
X1440806Y1061359D01*
X1440806Y1061359D01*
X1441097Y1061281D01*
X1452730Y1061281D01*
X1452730Y1061281D01*
X1452827Y1061307D01*
X1459188Y1063011D01*
X1463966Y1064291D01*
X1463965Y1064291D01*
X1463966Y1064292D01*
X1463966Y1064292D01*
X1464445Y1064420D01*
X1464445Y1064420D01*
X1464446Y1064420D01*
X1467413Y1065215D01*
X1469787Y1067652D01*
X1474040Y1070108D01*
X1482266Y1078334D01*
X1488082Y1088408D01*
X1491093Y1099644D01*
X1491093Y1111277D01*
X1490406Y1113842D01*
X1488082Y1122513D01*
X1488082Y1122513D01*
X1485765Y1126527D01*
X1482853Y1131572D01*
X1482286Y1133047D01*
X1482263Y1133036D01*
X1482063Y1133486D01*
X1481935Y1133963D01*
X1481725Y1134511D01*
X1481613Y1135038D01*
X1481645Y1135045D01*
X1481248Y1136526D01*
X1481234Y1136658D01*
X1482527Y1142739D01*
X1486506Y1146322D01*
X1486400Y1146506D01*
X1486724Y1146693D01*
X1487001Y1146768D01*
X1487147Y1146899D01*
X1487152Y1146901D01*
X1487341Y1146986D01*
X1487392Y1146872D01*
X1491753Y1148041D01*
X1499107Y1148041D01*
X1499108Y1148041D01*
X1502999Y1148041D01*
X1503654Y1148019D01*
X1504314Y1147976D01*
X1504965Y1147912D01*
X1511293Y1147079D01*
X1512583Y1146822D01*
X1512781Y1146769D01*
X1513846Y1146484D01*
X1515092Y1146061D01*
X1520069Y1143999D01*
X1521249Y1143418D01*
X1522381Y1142764D01*
X1523475Y1142033D01*
X1528539Y1138147D01*
X1529048Y1137730D01*
X1529540Y1137299D01*
X1530020Y1136849D01*
X1531804Y1135064D01*
X1531804Y1135064D01*
X1534187Y1132682D01*
X1534187Y1132682D01*
X1752036Y914833D01*
X1753886Y912286D01*
X1754802Y910489D01*
X1755013Y910075D01*
X1756109Y905508D01*
X1756109Y903894D01*
X1759120Y892658D01*
X1759120Y892658D01*
X1764936Y882584D01*
X1764936Y882584D01*
X1773162Y874358D01*
X1773162Y874358D01*
X1779155Y870898D01*
X1783236Y868541D01*
X1783237Y868541D01*
X1783237Y868541D01*
X1794182Y865609D01*
X1794182Y865609D01*
X1794473Y865531D01*
X1794473Y865531D01*
X1794473Y865531D01*
X1806105Y865531D01*
X1806106Y865531D01*
X1806396Y865609D01*
X1817342Y868541D01*
X1817342Y868541D01*
X1817342Y868541D01*
X1827416Y874358D01*
X1835642Y882584D01*
X1841458Y892658D01*
X1844469Y903894D01*
X1844469Y915527D01*
X1843802Y918016D01*
X1841459Y926763D01*
X1841458Y926764D01*
X1838629Y931663D01*
X1836923Y934618D01*
X1835642Y936837D01*
X1835642Y936838D01*
X1835642Y936838D01*
X1834009Y938471D01*
X1832159Y941017D01*
X1831544Y942225D01*
X1831397Y943154D01*
X1830571Y948365D01*
X1830652Y948877D01*
X1833475Y954416D01*
X1838642Y959584D01*
X1844458Y969658D01*
X1846728Y978130D01*
X1847469Y980894D01*
X1847469Y980894D01*
X1847469Y992527D01*
X1847469Y992527D01*
X1847007Y994253D01*
X1844632Y1003115D01*
X1844459Y1003763D01*
X1844458Y1003764D01*
X1841708Y1008527D01*
X1839460Y1012421D01*
X1838642Y1013837D01*
X1838642Y1013837D01*
X1838642Y1013838D01*
X1838642Y1013838D01*
X1834523Y1017957D01*
X1833270Y1020416D01*
X1820342Y1027880D01*
X1820341Y1027880D01*
X1809106Y1030891D01*
X1809106Y1030891D01*
X1809106Y1030891D01*
X1797473Y1030891D01*
X1797472Y1030891D01*
X1797472Y1030891D01*
X1786239Y1027881D01*
X1786236Y1027880D01*
X1786236Y1027880D01*
X1782251Y1025579D01*
X1779313Y1024451D01*
X1777987Y1024170D01*
X1771804Y1024819D01*
X1771803Y1024820D01*
X1770778Y1025277D01*
X1767756Y1027353D01*
X1597892Y1197217D01*
X1596042Y1199764D01*
X1595662Y1200511D01*
X1595661Y1200512D01*
X1595660Y1200514D01*
X1595145Y1203774D01*
X1594689Y1206652D01*
X1594690Y1206653D01*
X1594690Y1206655D01*
X1596224Y1209662D01*
X1597512Y1212191D01*
X1597514Y1212192D01*
X1597514Y1212194D01*
X1600287Y1213605D01*
X1603052Y1215014D01*
X1603188Y1215035D01*
X1607992Y1214625D01*
X1608236Y1214542D01*
X1608237Y1214541D01*
X1619182Y1211609D01*
X1619405Y1211542D01*
X1619473Y1211531D01*
X1619473Y1211531D01*
X1631105Y1211531D01*
X1631106Y1211531D01*
X1631147Y1211542D01*
X1638848Y1213605D01*
X1642342Y1214542D01*
X1652416Y1220358D01*
X1660642Y1228584D01*
X1666327Y1238430D01*
X1667034Y1239493D01*
X1667203Y1239715D01*
X1667604Y1240185D01*
X1667653Y1240306D01*
X1668098Y1240890D01*
X1670232Y1242369D01*
X1672196Y1244067D01*
X1672949Y1244251D01*
X1673208Y1244431D01*
X1673643Y1244421D01*
X1674290Y1244579D01*
X1674281Y1244618D01*
X1674309Y1244625D01*
X1674436Y1244615D01*
X1675284Y1244823D01*
X1675829Y1244867D01*
X1675859Y1244506D01*
X1678328Y1244316D01*
X1679424Y1244291D01*
X1679511Y1244225D01*
X1680508Y1244148D01*
X1690481Y1240017D01*
X1690482Y1240017D01*
X1690938Y1239828D01*
X1690912Y1239766D01*
X1692508Y1239043D01*
X1693099Y1238675D01*
X1693491Y1238348D01*
X1694430Y1237847D01*
X1694712Y1237671D01*
X1694924Y1237419D01*
X1696509Y1236244D01*
X1697327Y1235426D01*
X1698438Y1233246D01*
X1698716Y1232914D01*
X1698718Y1232887D01*
X1701434Y1231319D01*
X1701434Y1231319D01*
X1711466Y1225527D01*
X1711508Y1225503D01*
X1711508Y1225503D01*
X1711508Y1225502D01*
X1711818Y1225420D01*
X1711818Y1225420D01*
X1712785Y1225160D01*
X1712787Y1225160D01*
X1722453Y1222570D01*
X1722454Y1222570D01*
X1722744Y1222492D01*
X1722745Y1222492D01*
X1722745Y1222492D01*
X1734377Y1222492D01*
X1734377Y1222492D01*
X1734668Y1222570D01*
X1741861Y1224497D01*
X1745614Y1225503D01*
X1755688Y1231319D01*
X1763914Y1239545D01*
X1769730Y1249619D01*
X1771971Y1257981D01*
X1772741Y1260855D01*
X1772741Y1260856D01*
X1772741Y1272488D01*
X1772741Y1272489D01*
X1769730Y1283724D01*
X1769730Y1283725D01*
X1766642Y1289074D01*
X1763914Y1293799D01*
X1757732Y1299980D01*
X1757369Y1300363D01*
X1755324Y1302634D01*
X1755325Y1302634D01*
X1754101Y1303993D01*
X1751573Y1309673D01*
X1751517Y1310201D01*
X1752230Y1315106D01*
X1752458Y1315657D01*
X1752458Y1315658D01*
X1755469Y1326894D01*
X1755469Y1338527D01*
X1754183Y1343328D01*
X1752459Y1349763D01*
X1752458Y1349764D01*
X1748067Y1357370D01*
X1746642Y1359838D01*
X1742523Y1363957D01*
X1741270Y1366416D01*
X1728342Y1373880D01*
X1728341Y1373880D01*
X1717106Y1376891D01*
X1717106Y1376891D01*
X1717106Y1376891D01*
X1708001Y1376891D01*
X1706075Y1377077D01*
X1705251Y1377238D01*
X1704979Y1377389D01*
X1704892Y1377383D01*
X1704502Y1377510D01*
X1704533Y1377605D01*
X1703128Y1378002D01*
X1703099Y1377933D01*
X1702735Y1378084D01*
X1702735Y1378084D01*
X1702735Y1378084D01*
X1702734Y1378084D01*
X1702532Y1378150D01*
X1702440Y1378206D01*
X1702369Y1378236D01*
X1702373Y1378247D01*
X1698527Y1380604D01*
X1692940Y1386192D01*
X1692939Y1386192D01*
X1684946Y1394186D01*
X1672095Y1402772D01*
X1672095Y1402772D01*
X1672094Y1402773D01*
X1672093Y1402773D01*
X1667193Y1404803D01*
X1667193Y1404803D01*
X1664706Y1405833D01*
X1662441Y1407768D01*
X1642653Y1411704D01*
X1638567Y1411704D01*
X1393653Y1411704D01*
X1392066Y1411830D01*
X1391530Y1411915D01*
X1391026Y1412173D01*
X1390570Y1412276D01*
X1390544Y1412196D01*
X1390323Y1412268D01*
X1390343Y1412328D01*
X1389182Y1412591D01*
X1388704Y1412794D01*
X1388704Y1412794D01*
X1388617Y1412831D01*
X1387019Y1414221D01*
X1385994Y1414745D01*
X1385659Y1415404D01*
X1383927Y1416912D01*
X1382492Y1422089D01*
X1382492Y1422616D01*
X1383840Y1427646D01*
X1386660Y1432531D01*
X1387772Y1434458D01*
X1389447Y1440710D01*
X1390603Y1443387D01*
X1390952Y1443953D01*
X1391102Y1444125D01*
X1391738Y1445227D01*
X1391814Y1445351D01*
X1391937Y1445456D01*
X1393262Y1447182D01*
X1607642Y1661562D01*
X1608886Y1662619D01*
X1610436Y1663732D01*
X1610947Y1664099D01*
X1613317Y1666183D01*
X1616875Y1668203D01*
X1620230Y1669284D01*
X1621462Y1669596D01*
X1621592Y1669620D01*
X1621807Y1669662D01*
X1621836Y1669668D01*
X1622003Y1669702D01*
X1622130Y1669728D01*
X1622132Y1669729D01*
X1622134Y1669729D01*
X1622162Y1669735D01*
X1622410Y1669790D01*
X1622440Y1669797D01*
X1622727Y1669864D01*
X1631484Y1671984D01*
X1632655Y1672304D01*
X1632786Y1672344D01*
X1633915Y1672726D01*
X1634042Y1672772D01*
X1635146Y1673218D01*
X1635270Y1673272D01*
X1636348Y1673782D01*
X1646196Y1678791D01*
X1650015Y1681363D01*
X1650598Y1681727D01*
X1651916Y1682488D01*
X1660142Y1690714D01*
X1665959Y1700788D01*
X1668969Y1712024D01*
X1668969Y1723657D01*
X1668334Y1726027D01*
X1667664Y1728527D01*
X1666204Y1733979D01*
X1665959Y1734893D01*
X1665958Y1734894D01*
X1663147Y1739764D01*
X1660142Y1744968D01*
X1656023Y1749086D01*
X1654770Y1751546D01*
X1641842Y1759010D01*
X1641842Y1759010D01*
X1630606Y1762021D01*
X1630606Y1762021D01*
X1630606Y1762021D01*
X1618973Y1762021D01*
X1618972Y1762021D01*
X1618972Y1762021D01*
X1607737Y1759010D01*
X1607736Y1759010D01*
X1597662Y1753194D01*
X1597662Y1753194D01*
X1589437Y1744968D01*
X1589436Y1744968D01*
X1589105Y1744394D01*
X1588551Y1743538D01*
X1586235Y1740329D01*
X1583350Y1735370D01*
X1583007Y1734758D01*
X1582974Y1734696D01*
X1582642Y1734051D01*
X1582606Y1733979D01*
X1582302Y1733333D01*
X1582271Y1733264D01*
X1582001Y1732637D01*
X1579851Y1727403D01*
X1579571Y1726682D01*
X1579539Y1726596D01*
X1579269Y1725812D01*
X1579240Y1725721D01*
X1579009Y1724953D01*
X1578985Y1724865D01*
X1578782Y1724079D01*
X1576905Y1716169D01*
X1576817Y1715827D01*
X1575354Y1710501D01*
X1573270Y1706594D01*
X1570894Y1703840D01*
X1570893Y1703839D01*
X1569427Y1701797D01*
X1568369Y1700552D01*
X1392049Y1524232D01*
X1391619Y1524013D01*
X1391361Y1523605D01*
X1388884Y1522619D01*
X1386509Y1521409D01*
X1386033Y1521485D01*
X1385584Y1521306D01*
X1383001Y1521965D01*
X1380369Y1522382D01*
X1380027Y1522723D01*
X1379560Y1522842D01*
X1377857Y1524894D01*
X1375972Y1526778D01*
X1375897Y1527255D01*
X1375588Y1527626D01*
X1375416Y1530286D01*
X1375000Y1532919D01*
X1375187Y1533829D01*
X1376408Y1538619D01*
X1378521Y1542684D01*
X1380729Y1545258D01*
X1382156Y1547253D01*
X1383225Y1548515D01*
X1443237Y1608527D01*
X1516091Y1681382D01*
X1517080Y1682249D01*
X1518117Y1683045D01*
X1519210Y1683775D01*
X1525158Y1687209D01*
X1525361Y1687318D01*
X1525416Y1687358D01*
X1528887Y1690829D01*
X1533642Y1695584D01*
X1539458Y1705658D01*
X1542469Y1716894D01*
X1542469Y1728527D01*
X1542085Y1729963D01*
X1539459Y1739763D01*
X1539458Y1739764D01*
X1537900Y1742463D01*
X1533642Y1749838D01*
X1529523Y1753956D01*
X1528270Y1756416D01*
X1515342Y1763880D01*
X1515341Y1763880D01*
X1504106Y1766891D01*
X1504106Y1766891D01*
X1504106Y1766891D01*
X1492473Y1766891D01*
X1492472Y1766891D01*
X1492472Y1766891D01*
X1481237Y1763880D01*
X1481236Y1763880D01*
X1471162Y1758064D01*
X1471162Y1758063D01*
X1462936Y1749838D01*
X1462936Y1749838D01*
X1457120Y1739764D01*
X1457120Y1739763D01*
X1454109Y1728528D01*
X1454109Y1716894D01*
X1456258Y1708876D01*
X1456587Y1705745D01*
X1456582Y1705658D01*
X1456486Y1703819D01*
X1454877Y1698867D01*
X1454643Y1698507D01*
X1454269Y1698046D01*
X1454257Y1698015D01*
X1454230Y1697997D01*
X1453319Y1696872D01*
X1343932Y1587485D01*
X1342698Y1586435D01*
X1340614Y1584935D01*
X1340613Y1584934D01*
X1339171Y1583663D01*
X1339171Y1583663D01*
X1338020Y1582649D01*
X1334544Y1580651D01*
X1332920Y1580111D01*
X1330744Y1579387D01*
X1329690Y1579099D01*
X1329427Y1579042D01*
X1329409Y1579038D01*
X1329188Y1578988D01*
X1329160Y1578981D01*
X1329146Y1578978D01*
X1329134Y1578975D01*
X1329128Y1578973D01*
X1329128Y1578973D01*
X1328968Y1578935D01*
X1328916Y1578922D01*
X1328631Y1578850D01*
X1326627Y1578326D01*
X1319994Y1576591D01*
X1319993Y1576590D01*
X1319991Y1576590D01*
X1318916Y1576277D01*
X1318792Y1576237D01*
X1317699Y1575852D01*
X1317582Y1575807D01*
X1316560Y1575382D01*
X1316443Y1575330D01*
X1315410Y1574832D01*
X1305663Y1569798D01*
X1305662Y1569798D01*
X1301884Y1567234D01*
X1301267Y1566848D01*
X1300069Y1566156D01*
X1291844Y1557931D01*
X1291844Y1557931D01*
X1286027Y1547856D01*
X1286027Y1547856D01*
X1283017Y1536621D01*
X1283017Y1524986D01*
X1283017Y1524986D01*
X1284048Y1521137D01*
X1283723Y1514928D01*
X1279810Y1510096D01*
X1273804Y1508487D01*
X1269301Y1509821D01*
X1255342Y1517880D01*
X1255342Y1517880D01*
X1244106Y1520891D01*
X1244106Y1520891D01*
X1244106Y1520891D01*
X1232473Y1520891D01*
X1232472Y1520891D01*
X1232472Y1520891D01*
X1221237Y1517880D01*
X1221236Y1517880D01*
X1211162Y1512064D01*
X1211162Y1512063D01*
X1202937Y1503838D01*
X1202936Y1503838D01*
X1197120Y1493764D01*
X1197120Y1493763D01*
X1194109Y1482528D01*
X1194109Y1470894D01*
X1197120Y1459658D01*
X1197120Y1459658D01*
X1202936Y1449584D01*
X1202937Y1449584D01*
X1211162Y1441358D01*
X1211162Y1441358D01*
X1216868Y1438063D01*
X1221237Y1435541D01*
X1221237Y1435541D01*
X1221237Y1435541D01*
X1227873Y1433763D01*
X1232182Y1432609D01*
X1232182Y1432609D01*
X1232473Y1432531D01*
X1232473Y1432531D01*
X1232473Y1432531D01*
X1244106Y1432531D01*
X1244106Y1432531D01*
X1248707Y1433763D01*
X1255030Y1435458D01*
X1255514Y1435571D01*
X1255822Y1435670D01*
X1258789Y1436465D01*
X1261163Y1438902D01*
X1265416Y1441358D01*
X1273642Y1449584D01*
X1279459Y1459658D01*
X1281845Y1468564D01*
X1282469Y1470894D01*
X1282469Y1470894D01*
X1282469Y1482527D01*
X1282469Y1482528D01*
X1282256Y1483322D01*
X1281426Y1486419D01*
X1281398Y1487864D01*
X1281097Y1489549D01*
X1281148Y1490522D01*
X1281337Y1491013D01*
X1281332Y1491245D01*
X1281540Y1492164D01*
X1282212Y1493292D01*
X1283377Y1496326D01*
X1284422Y1497005D01*
X1284721Y1497507D01*
X1286118Y1498107D01*
X1288591Y1499712D01*
X1289765Y1499672D01*
X1290434Y1499959D01*
X1292043Y1499595D01*
X1294454Y1499513D01*
X1294611Y1499459D01*
X1295733Y1498759D01*
X1296498Y1498586D01*
X1297084Y1497916D01*
X1298465Y1497055D01*
X1300069Y1495451D01*
X1305924Y1492070D01*
X1308898Y1489453D01*
X1308916Y1489429D01*
X1309373Y1488826D01*
X1309387Y1488811D01*
X1309523Y1488632D01*
X1310480Y1485898D01*
X1311422Y1483520D01*
X1311528Y1483532D01*
X1311579Y1483048D01*
X1311541Y1482868D01*
X1311577Y1482764D01*
X1311376Y1482094D01*
X1310286Y1476968D01*
X1305434Y1468564D01*
X1305434Y1468564D01*
X1305434Y1468563D01*
X1302423Y1457328D01*
X1302423Y1445694D01*
X1305434Y1434459D01*
X1305434Y1434458D01*
X1309062Y1428174D01*
X1310190Y1425235D01*
X1310431Y1424103D01*
X1309781Y1417919D01*
X1305622Y1413300D01*
X1305193Y1413052D01*
X1300162Y1411704D01*
X1074294Y1411704D01*
X1071185Y1412196D01*
X1070128Y1412539D01*
X1067918Y1414145D01*
X1065588Y1415573D01*
X1065430Y1415952D01*
X1065098Y1416194D01*
X1064254Y1418793D01*
X1063208Y1421317D01*
X1063304Y1421716D01*
X1063177Y1422107D01*
X1064659Y1427363D01*
X1064965Y1427862D01*
X1066429Y1429719D01*
X1238210Y1601500D01*
X1238241Y1601531D01*
X1238243Y1601530D01*
X1238250Y1601540D01*
X1239123Y1602405D01*
X1244118Y1607356D01*
X1253632Y1621099D01*
X1260478Y1636348D01*
X1264424Y1652590D01*
X1264664Y1657028D01*
X1264721Y1658074D01*
X1264918Y1658807D01*
X1264918Y1661684D01*
X1264930Y1661919D01*
X1264934Y1661990D01*
X1265028Y1663706D01*
X1265408Y1664736D01*
X1265321Y1665319D01*
X1265154Y1666446D01*
X1265154Y1666446D01*
X1265154Y1666448D01*
X1265118Y1666691D01*
X1265118Y1666691D01*
X1265026Y1667311D01*
X1264918Y1668784D01*
X1264918Y1674859D01*
X1265410Y1677967D01*
X1266006Y1679801D01*
X1268843Y1684169D01*
X1269003Y1684314D01*
X1269003Y1684314D01*
X1270918Y1686038D01*
X1271138Y1686549D01*
X1271588Y1687029D01*
X1277642Y1693084D01*
X1277673Y1693137D01*
X1283459Y1703158D01*
X1286469Y1714394D01*
X1286469Y1723528D01*
X1328109Y1723528D01*
X1328109Y1711894D01*
X1331120Y1700658D01*
X1331120Y1700658D01*
X1336936Y1690584D01*
X1336937Y1690584D01*
X1345162Y1682358D01*
X1345162Y1682358D01*
X1355011Y1676672D01*
X1355237Y1676541D01*
X1355237Y1676541D01*
X1355237Y1676541D01*
X1356253Y1676269D01*
X1356516Y1676199D01*
X1361514Y1674859D01*
X1365987Y1673661D01*
X1366182Y1673609D01*
X1366182Y1673609D01*
X1366473Y1673531D01*
X1366473Y1673531D01*
X1366473Y1673531D01*
X1378106Y1673531D01*
X1378106Y1673531D01*
X1378591Y1673661D01*
X1389342Y1676541D01*
X1389342Y1676541D01*
X1389342Y1676541D01*
X1389342Y1676542D01*
X1389822Y1676670D01*
X1389822Y1676670D01*
X1392789Y1677465D01*
X1395163Y1679902D01*
X1399416Y1682358D01*
X1407642Y1690584D01*
X1413458Y1700658D01*
X1415248Y1707337D01*
X1416469Y1711894D01*
X1416469Y1711894D01*
X1416469Y1723527D01*
X1416469Y1723528D01*
X1413459Y1734763D01*
X1413458Y1734764D01*
X1412015Y1737263D01*
X1407642Y1744838D01*
X1403523Y1748956D01*
X1402270Y1751416D01*
X1389342Y1758880D01*
X1389342Y1758880D01*
X1378106Y1761891D01*
X1378106Y1761891D01*
X1378106Y1761891D01*
X1366473Y1761891D01*
X1366472Y1761891D01*
X1366472Y1761891D01*
X1355237Y1758880D01*
X1355236Y1758880D01*
X1345162Y1753064D01*
X1345162Y1753063D01*
X1336937Y1744838D01*
X1336936Y1744838D01*
X1331120Y1734764D01*
X1331120Y1734763D01*
X1328109Y1723528D01*
X1286469Y1723528D01*
X1286469Y1726027D01*
X1285415Y1729962D01*
X1283459Y1737263D01*
X1283458Y1737264D01*
X1279086Y1744838D01*
X1277642Y1747338D01*
X1273179Y1751801D01*
X1272869Y1752178D01*
X1272161Y1753979D01*
X1259342Y1761380D01*
X1259342Y1761380D01*
X1248106Y1764391D01*
X1248106Y1764391D01*
X1248106Y1764391D01*
X1236473Y1764391D01*
X1236472Y1764391D01*
X1236472Y1764391D01*
X1225237Y1761380D01*
X1225236Y1761380D01*
X1215162Y1755564D01*
X1215162Y1755564D01*
X1206937Y1747338D01*
X1206936Y1747338D01*
X1201120Y1737264D01*
X1201120Y1737263D01*
X1198109Y1726028D01*
X1198109Y1714394D01*
X1201120Y1703159D01*
X1201120Y1703158D01*
X1201120Y1703158D01*
X1202564Y1700658D01*
X1205531Y1695517D01*
X1205783Y1695054D01*
X1207133Y1692403D01*
X1207133Y1692403D01*
X1208481Y1689758D01*
X1209578Y1685191D01*
X1209578Y1665072D01*
X1209538Y1664181D01*
X1209460Y1663297D01*
X1209342Y1662414D01*
X1208421Y1657270D01*
X1208130Y1656074D01*
X1207769Y1654906D01*
X1207335Y1653755D01*
X1205310Y1649242D01*
X1204738Y1648153D01*
X1204142Y1647168D01*
X1204105Y1647107D01*
X1203404Y1646095D01*
X1199770Y1641477D01*
X1199374Y1641004D01*
X1198965Y1640546D01*
X1198543Y1640100D01*
X1195226Y1636809D01*
X1195073Y1636642D01*
X1195068Y1636647D01*
X1194764Y1636317D01*
X961220Y1402773D01*
X738772Y1180325D01*
X737028Y1178580D01*
X737027Y1178580D01*
X730249Y1171802D01*
X730248Y1171801D01*
X721814Y1160193D01*
X721814Y1160192D01*
X721813Y1160191D01*
X721813Y1160191D01*
X715900Y1148585D01*
X715075Y1147239D01*
X713649Y1145276D01*
X708619Y1141622D01*
X707330Y1141203D01*
X704221Y1140711D01*
X611292Y1140711D01*
X608184Y1141203D01*
X606994Y1141590D01*
X604582Y1143342D01*
X602122Y1145033D01*
X602076Y1145163D01*
X601965Y1145244D01*
X600047Y1150894D01*
X600020Y1151916D01*
X600359Y1154783D01*
X602990Y1164600D01*
X602990Y1164601D01*
X602990Y1176234D01*
X602990Y1176234D01*
X599979Y1187470D01*
X599979Y1187470D01*
X599979Y1187471D01*
X599638Y1188061D01*
X598510Y1190998D01*
X598424Y1191403D01*
X598269Y1192131D01*
X598919Y1198314D01*
X603078Y1202935D01*
X603509Y1203184D01*
X608538Y1204531D01*
X613106Y1204531D01*
X613106Y1204531D01*
X624342Y1207542D01*
X634416Y1213358D01*
X642642Y1221584D01*
X648459Y1231658D01*
X651469Y1242894D01*
X651469Y1254527D01*
X649594Y1261527D01*
X648459Y1265763D01*
X648458Y1265764D01*
X645871Y1270246D01*
X645621Y1270847D01*
X645587Y1271270D01*
X645069Y1272619D01*
X644787Y1273945D01*
X645437Y1280128D01*
X645894Y1281155D01*
X647970Y1284176D01*
X652868Y1289074D01*
X658684Y1299148D01*
X661695Y1310384D01*
X661695Y1322017D01*
X659818Y1329022D01*
X658684Y1333253D01*
X658684Y1333254D01*
X656615Y1336837D01*
X652868Y1343328D01*
X648749Y1347447D01*
X647496Y1349906D01*
X634568Y1357370D01*
X634567Y1357370D01*
X623332Y1360381D01*
X623332Y1360381D01*
X623332Y1360381D01*
X611699Y1360381D01*
X611698Y1360381D01*
X611698Y1360381D01*
X600463Y1357370D01*
X600462Y1357370D01*
X590388Y1351554D01*
X590388Y1351554D01*
X582162Y1343328D01*
X582162Y1343328D01*
X576346Y1333254D01*
X576346Y1333253D01*
X573335Y1322018D01*
X573335Y1310384D01*
X576346Y1299149D01*
X576346Y1299148D01*
X578608Y1295231D01*
X579735Y1292292D01*
X580017Y1290966D01*
X579368Y1284783D01*
X579097Y1284176D01*
X578911Y1283757D01*
X576834Y1280736D01*
X571936Y1275838D01*
X566120Y1265764D01*
X566120Y1265763D01*
X563109Y1254528D01*
X563109Y1242894D01*
X566120Y1231658D01*
X566120Y1231657D01*
X566461Y1231067D01*
X567589Y1228129D01*
X567830Y1226997D01*
X567180Y1220814D01*
X563021Y1216193D01*
X562592Y1215946D01*
X557561Y1214597D01*
X552993Y1214597D01*
X541757Y1211587D01*
X541757Y1211587D01*
X531683Y1205770D01*
X531683Y1205770D01*
X523457Y1197544D01*
X523457Y1197544D01*
X517640Y1187470D01*
X517640Y1187470D01*
X514630Y1176234D01*
X154039Y1176234D01*
X154039Y1238519D01*
X154094Y1239562D01*
X154172Y1240312D01*
X154569Y1241845D01*
X154857Y1246887D01*
X154881Y1247119D01*
X154915Y1247194D01*
X155033Y1248103D01*
X155186Y1248846D01*
X155832Y1250871D01*
X156058Y1251384D01*
X158440Y1256796D01*
X158571Y1257083D01*
X162078Y1264390D01*
X162751Y1265956D01*
X162820Y1266137D01*
X163362Y1267756D01*
X164241Y1270796D01*
X165041Y1272760D01*
X165417Y1273460D01*
X165488Y1273604D01*
X166066Y1274885D01*
X168245Y1280191D01*
X168796Y1281698D01*
X168852Y1281872D01*
X169286Y1283426D01*
X171175Y1291387D01*
X171261Y1291723D01*
X172724Y1297051D01*
X174809Y1300958D01*
X177322Y1303871D01*
X177747Y1304590D01*
X179294Y1306584D01*
X295238Y1422528D01*
X671109Y1422528D01*
X671109Y1410894D01*
X674120Y1399658D01*
X674120Y1399658D01*
X679936Y1389584D01*
X679937Y1389584D01*
X688162Y1381358D01*
X688162Y1381358D01*
X688162Y1381358D01*
X698237Y1375542D01*
X698237Y1375542D01*
X698237Y1375541D01*
X709182Y1372609D01*
X709182Y1372609D01*
X709473Y1372531D01*
X709473Y1372531D01*
X709473Y1372531D01*
X721105Y1372531D01*
X721106Y1372531D01*
X726184Y1373892D01*
X732030Y1375458D01*
X732513Y1375571D01*
X732822Y1375670D01*
X735789Y1376465D01*
X738163Y1378902D01*
X742416Y1381358D01*
X750642Y1389584D01*
X756458Y1399658D01*
X757293Y1402773D01*
X758835Y1408527D01*
X759469Y1410893D01*
X759469Y1410894D01*
X759469Y1410894D01*
X759469Y1410894D01*
X759469Y1422527D01*
X759469Y1422528D01*
X756459Y1433763D01*
X756458Y1433764D01*
X753976Y1438063D01*
X750642Y1443838D01*
X746523Y1447956D01*
X745270Y1450416D01*
X732342Y1457880D01*
X732341Y1457880D01*
X721106Y1460891D01*
X721106Y1460891D01*
X721106Y1460891D01*
X709473Y1460891D01*
X709472Y1460891D01*
X709472Y1460891D01*
X698237Y1457880D01*
X698236Y1457880D01*
X688162Y1452064D01*
X688162Y1452063D01*
X679937Y1443838D01*
X679936Y1443838D01*
X674120Y1433764D01*
X674120Y1433763D01*
X674120Y1433763D01*
X673529Y1431560D01*
X671109Y1422528D01*
X295238Y1422528D01*
X412237Y1539528D01*
X948109Y1539528D01*
X948109Y1527894D01*
X951120Y1516658D01*
X951120Y1516658D01*
X956936Y1506584D01*
X956936Y1506584D01*
X965162Y1498358D01*
X965162Y1498358D01*
X973120Y1493763D01*
X973581Y1493497D01*
X973581Y1493497D01*
X975236Y1492541D01*
X975237Y1492541D01*
X986086Y1489634D01*
X986182Y1489609D01*
X986182Y1489609D01*
X986473Y1489531D01*
X986473Y1489531D01*
X986473Y1489531D01*
X998105Y1489531D01*
X998106Y1489531D01*
X998106Y1489531D01*
X998492Y1489634D01*
X1009342Y1492541D01*
X1009342Y1492541D01*
X1009342Y1492541D01*
X1009342Y1492542D01*
X1009821Y1492670D01*
X1009822Y1492670D01*
X1012789Y1493465D01*
X1015163Y1495902D01*
X1019416Y1498358D01*
X1027642Y1506584D01*
X1033458Y1516658D01*
X1036469Y1527894D01*
X1036469Y1539527D01*
X1036446Y1539613D01*
X1033459Y1550763D01*
X1033458Y1550764D01*
X1031900Y1553463D01*
X1027642Y1560838D01*
X1023523Y1564956D01*
X1022270Y1567416D01*
X1009342Y1574880D01*
X1009341Y1574880D01*
X998106Y1577891D01*
X998106Y1577891D01*
X998106Y1577891D01*
X986473Y1577891D01*
X986472Y1577891D01*
X986472Y1577891D01*
X975237Y1574880D01*
X975236Y1574880D01*
X965162Y1569064D01*
X965162Y1569063D01*
X956936Y1560838D01*
X956936Y1560838D01*
X951120Y1550764D01*
X951120Y1550763D01*
X948109Y1539528D01*
X412237Y1539528D01*
X600307Y1727598D01*
X978289Y1727598D01*
X978289Y1712824D01*
X978289Y1712823D01*
X978474Y1711894D01*
X980683Y1700788D01*
X981171Y1698334D01*
X986825Y1684685D01*
X986825Y1684685D01*
X987073Y1684314D01*
X987339Y1683916D01*
X987339Y1683915D01*
X995033Y1672401D01*
X995033Y1672401D01*
X1005480Y1661954D01*
X1017763Y1653747D01*
X1031413Y1648093D01*
X1045902Y1645211D01*
X1045902Y1645211D01*
X1060676Y1645211D01*
X1060676Y1645211D01*
X1075166Y1648093D01*
X1088815Y1653747D01*
X1101099Y1661954D01*
X1111546Y1672401D01*
X1119753Y1684685D01*
X1125407Y1698334D01*
X1128289Y1712824D01*
X1128289Y1727598D01*
X1125407Y1742087D01*
X1119753Y1755736D01*
X1111546Y1768020D01*
X1101099Y1778467D01*
X1089548Y1786185D01*
X1088815Y1786675D01*
X1088815Y1786675D01*
X1087953Y1787032D01*
X1087953Y1787032D01*
X1082059Y1789473D01*
X1079794Y1791408D01*
X1063559Y1794637D01*
X1063558Y1794637D01*
X1060676Y1795211D01*
X1060676Y1795211D01*
X1045903Y1795211D01*
X1045902Y1795211D01*
X1043020Y1794637D01*
X1043020Y1794637D01*
X1031413Y1792329D01*
X1018094Y1786812D01*
X1017879Y1786732D01*
X1017764Y1786675D01*
X1008584Y1780542D01*
X1006675Y1779266D01*
X1006675Y1779266D01*
X1005479Y1778467D01*
X994798Y1767785D01*
X994487Y1767203D01*
X994427Y1767114D01*
X994392Y1767061D01*
X994392Y1767061D01*
X986825Y1755737D01*
X986768Y1755621D01*
X986688Y1755406D01*
X981171Y1742087D01*
X979726Y1734823D01*
X979715Y1734763D01*
X978289Y1727598D01*
X600307Y1727598D01*
X646215Y1773505D01*
X648761Y1775355D01*
X650791Y1776389D01*
X655227Y1777485D01*
X658689Y1777530D01*
X658820Y1777531D01*
X667106Y1777531D01*
X667106Y1777531D01*
X678342Y1780541D01*
X688416Y1786358D01*
X696642Y1794584D01*
X702458Y1804658D01*
X705469Y1815894D01*
X705469Y1827527D01*
X704850Y1829838D01*
X702459Y1838763D01*
X702458Y1838764D01*
X699504Y1843880D01*
X699112Y1844559D01*
X696642Y1848837D01*
X696642Y1848837D01*
X696642Y1848838D01*
X696642Y1848838D01*
X692523Y1852957D01*
X691270Y1855416D01*
X678342Y1862880D01*
X678342Y1862880D01*
X667106Y1865891D01*
X667106Y1865891D01*
X667106Y1865891D01*
X655473Y1865891D01*
X655472Y1865891D01*
X655472Y1865891D01*
X644237Y1862880D01*
X644236Y1862880D01*
X634162Y1857064D01*
X634162Y1857063D01*
X625937Y1848838D01*
X625936Y1848838D01*
X620120Y1838764D01*
X620120Y1838763D01*
X617109Y1827527D01*
X617075Y1827269D01*
X616669Y1825474D01*
X615850Y1822953D01*
X613396Y1818949D01*
X436455Y1642008D01*
X433908Y1640157D01*
X433161Y1639777D01*
X427020Y1638805D01*
X421481Y1641628D01*
X418658Y1647168D01*
X418613Y1647454D01*
X418982Y1652134D01*
X424799Y1670038D01*
X427950Y1689930D01*
X427950Y1710070D01*
X427950Y1710070D01*
X427950Y1710586D01*
X427763Y1711247D01*
X427640Y1712024D01*
X424799Y1729962D01*
X423239Y1734763D01*
X421615Y1739762D01*
X418576Y1749116D01*
X411270Y1763454D01*
X409433Y1767060D01*
X409433Y1767060D01*
X399638Y1780541D01*
X397595Y1783354D01*
X383354Y1797595D01*
X368307Y1808527D01*
X367060Y1809433D01*
X367060Y1809433D01*
X367059Y1809433D01*
X366986Y1809470D01*
X349116Y1818576D01*
X334660Y1823273D01*
X329963Y1824799D01*
X329962Y1824799D01*
X329962Y1824799D01*
X329961Y1824800D01*
X310071Y1827950D01*
X310070Y1827950D01*
X310070Y1827950D01*
X289930Y1827950D01*
X289930Y1827950D01*
X289929Y1827950D01*
X270039Y1824800D01*
X270038Y1824799D01*
X270037Y1824799D01*
X250884Y1818576D01*
X232941Y1809433D01*
X232940Y1809433D01*
X232939Y1809432D01*
X232938Y1809432D01*
X216646Y1797595D01*
X202405Y1783354D01*
X190568Y1767061D01*
X190568Y1767061D01*
X190567Y1767059D01*
X190567Y1767059D01*
X181424Y1749116D01*
X175201Y1729963D01*
X175201Y1729962D01*
X175201Y1729962D01*
X172050Y1710071D01*
X172050Y1689929D01*
X174842Y1672304D01*
X175200Y1670039D01*
X175201Y1670037D01*
X176420Y1666284D01*
X181424Y1650884D01*
X188831Y1636347D01*
X188831Y1636347D01*
X190567Y1632941D01*
X190567Y1632939D01*
X191592Y1631530D01*
X202405Y1616647D01*
X202405Y1616646D01*
X216646Y1602405D01*
X217892Y1601500D01*
X232940Y1590567D01*
X232940Y1590567D01*
X233648Y1590207D01*
X233648Y1590206D01*
X250884Y1581424D01*
X258806Y1578850D01*
X270037Y1575201D01*
X270038Y1575201D01*
X270038Y1575201D01*
X289557Y1572109D01*
X289857Y1572050D01*
X310070Y1572050D01*
X312295Y1572050D01*
X313298Y1572561D01*
X329962Y1575201D01*
X339580Y1578326D01*
X347382Y1580861D01*
X347578Y1580861D01*
X347741Y1580970D01*
X350490Y1581353D01*
X351328Y1581353D01*
X352843Y1580861D01*
X353599Y1580861D01*
X353954Y1580738D01*
X354702Y1580464D01*
X355152Y1580111D01*
X357241Y1579432D01*
X358867Y1577193D01*
X359592Y1576624D01*
X359792Y1575920D01*
X360896Y1574402D01*
X360896Y1572038D01*
X361292Y1570643D01*
X360896Y1569563D01*
X360896Y1568184D01*
X360895Y1568183D01*
X360806Y1567909D01*
X359519Y1565809D01*
X359151Y1564806D01*
X358732Y1564525D01*
X358352Y1563905D01*
X140012Y1345565D01*
X137940Y1343973D01*
X137307Y1343606D01*
X137307Y1343606D01*
X134761Y1341369D01*
X131204Y1339349D01*
X127849Y1338268D01*
X126622Y1337957D01*
X126470Y1337928D01*
X125925Y1337818D01*
X125921Y1337818D01*
X125918Y1337817D01*
X125867Y1337806D01*
X125541Y1337731D01*
X125366Y1337691D01*
X116529Y1335552D01*
X115094Y1335114D01*
X114231Y1334851D01*
X114231Y1334851D01*
X114230Y1334851D01*
X113977Y1334757D01*
X113975Y1334757D01*
X113382Y1334497D01*
X107194Y1333887D01*
X101830Y1337030D01*
X99338Y1342726D01*
X99289Y1343713D01*
X99289Y1889057D01*
X99782Y1892166D01*
X100200Y1893455D01*
X103855Y1898485D01*
X104275Y1898790D01*
X110187Y1900711D01*
X1763768Y1900711D01*
X1766876Y1900218D01*
G37*
%TD.AperFunction*%
%TD*%
%TA.AperFunction,Conductor*%
%TO.N,/STM_BOOT_SWCLK*%
G36*
X1237555Y1720581D02*
G01*
X1237611Y1720526D01*
X1247341Y1710167D01*
X1254310Y1702747D01*
X1254627Y1701910D01*
X1254258Y1701093D01*
X1254070Y1700949D01*
X1246192Y1696108D01*
X1242700Y1693107D01*
X1241849Y1692828D01*
X1241050Y1693232D01*
X1240824Y1693635D01*
X1237046Y1705346D01*
X1232530Y1715002D01*
X1230159Y1718912D01*
X1230023Y1719796D01*
X1230552Y1720519D01*
X1231116Y1720687D01*
X1236716Y1720893D01*
X1237555Y1720581D01*
G37*
%TD.AperFunction*%
%TD*%
%TA.AperFunction,Conductor*%
%TO.N,3v3*%
G36*
X1806853Y750711D02*
G01*
X1801582Y729044D01*
X1790217Y732152D01*
X1782452Y735468D01*
X1773579Y738993D01*
X1767159Y740246D01*
X1758493Y740711D01*
X1758493Y760711D01*
X1766601Y761292D01*
X1772649Y762851D01*
X1781623Y767813D01*
X1788927Y772213D01*
X1794434Y774494D01*
X1801582Y776377D01*
X1806853Y750711D01*
G37*
%TD.AperFunction*%
%TD*%
%TA.AperFunction,Conductor*%
%TO.N,1v8*%
G36*
X145716Y1285258D02*
G01*
X146457Y1284756D01*
X146626Y1283876D01*
X146604Y1283787D01*
X143620Y1273462D01*
X143551Y1273280D01*
X139830Y1265527D01*
X135713Y1256172D01*
X134455Y1250054D01*
X134052Y1243018D01*
X133663Y1242211D01*
X132884Y1241914D01*
X109673Y1241914D01*
X108846Y1242257D01*
X108506Y1242995D01*
X107497Y1256171D01*
X107432Y1257017D01*
X104530Y1267151D01*
X99942Y1283841D01*
X100054Y1284730D01*
X100760Y1285280D01*
X100794Y1285288D01*
X121034Y1290213D01*
X121546Y1290222D01*
X145716Y1285258D01*
G37*
%TD.AperFunction*%
%TD*%
%TA.AperFunction,Conductor*%
%TO.N,/Sen_I2C_SDA*%
G36*
X1790127Y1005911D02*
G01*
X1790214Y1005873D01*
X1790737Y1005426D01*
X1803290Y985600D01*
X1803454Y985174D01*
X1803504Y984885D01*
X1803412Y984191D01*
X1803408Y984182D01*
X1803310Y984022D01*
X1803308Y984011D01*
X1803301Y984007D01*
X1803273Y983961D01*
X1790770Y967794D01*
X1790425Y967494D01*
X1790271Y967405D01*
X1790270Y967405D01*
X1790270Y967405D01*
X1789996Y967370D01*
X1789382Y967292D01*
X1789382Y967292D01*
X1789231Y967333D01*
X1788788Y967564D01*
X1788735Y967609D01*
X1788734Y967610D01*
X1788734Y967609D01*
X1783380Y972093D01*
X1783374Y972098D01*
X1779646Y975266D01*
X1776383Y976574D01*
X1776383Y976574D01*
X1776286Y976613D01*
X1776286Y976613D01*
X1776286Y976613D01*
X1776286Y976613D01*
X1776157Y976625D01*
X1776156Y976625D01*
X1771529Y977066D01*
X1771358Y977095D01*
X1771189Y977137D01*
X1771024Y977191D01*
X1766201Y979189D01*
X1765999Y979297D01*
X1765811Y979423D01*
X1765633Y979569D01*
X1760491Y984711D01*
X1755717Y989485D01*
X1755463Y989865D01*
X1755395Y990029D01*
X1755395Y990924D01*
X1755463Y991090D01*
X1755717Y991468D01*
X1764313Y1000065D01*
X1764693Y1000319D01*
X1764760Y1000347D01*
X1764857Y1000387D01*
X1765752Y1000387D01*
X1765837Y1000351D01*
X1766372Y999906D01*
X1771268Y992331D01*
X1771268Y992331D01*
X1775625Y992821D01*
X1778576Y994173D01*
X1782408Y998734D01*
X1783880Y1000914D01*
X1783951Y1001008D01*
X1784031Y1001104D01*
X1784112Y1001191D01*
X1788683Y1005613D01*
X1789067Y1005860D01*
X1789233Y1005926D01*
X1790127Y1005911D01*
G37*
%TD.AperFunction*%
%TD*%
%TA.AperFunction,Conductor*%
%TO.N,/PAW_LED*%
G36*
X1228559Y1075312D02*
G01*
X1228671Y1075233D01*
X1229035Y1074820D01*
X1234085Y1065220D01*
X1234135Y1065111D01*
X1234179Y1065000D01*
X1234219Y1064885D01*
X1236650Y1056375D01*
X1240151Y1045875D01*
X1240151Y1045873D01*
X1240152Y1045873D01*
X1243342Y1040891D01*
X1243344Y1040889D01*
X1243344Y1040889D01*
X1247490Y1036198D01*
X1247719Y1035804D01*
X1247784Y1035616D01*
X1247744Y1034754D01*
X1247689Y1034631D01*
X1247682Y1034617D01*
X1247443Y1034270D01*
X1236738Y1023566D01*
X1236359Y1023312D01*
X1236173Y1023235D01*
X1235315Y1023221D01*
X1235176Y1023273D01*
X1234817Y1023487D01*
X1229674Y1027984D01*
X1229673Y1027984D01*
X1224344Y1031242D01*
X1224344Y1031242D01*
X1224344Y1031242D01*
X1224344Y1031242D01*
X1214622Y1034351D01*
X1207181Y1036391D01*
X1207109Y1036414D01*
X1207035Y1036439D01*
X1206962Y1036467D01*
X1205329Y1037158D01*
X1201563Y1038750D01*
X1201494Y1038782D01*
X1201425Y1038817D01*
X1201358Y1038853D01*
X1196131Y1041916D01*
X1195790Y1042220D01*
X1195682Y1042362D01*
X1195456Y1043228D01*
X1195478Y1043385D01*
X1195649Y1043852D01*
X1207682Y1062782D01*
X1207842Y1062980D01*
X1208020Y1063158D01*
X1208219Y1063318D01*
X1210776Y1064943D01*
X1227085Y1075311D01*
X1227510Y1075476D01*
X1227686Y1075506D01*
X1228559Y1075312D01*
G37*
%TD.AperFunction*%
%TD*%
%TA.AperFunction,Conductor*%
%TO.N,/VL_INTR_SWDIO*%
G36*
X1492211Y1355561D02*
G01*
X1502343Y1352313D01*
X1502920Y1352127D01*
X1503159Y1352020D01*
X1510925Y1347425D01*
X1510971Y1347396D01*
X1512466Y1346405D01*
X1521067Y1342070D01*
X1526719Y1340798D01*
X1532990Y1340400D01*
X1533794Y1340006D01*
X1534086Y1339233D01*
X1534086Y1326176D01*
X1533743Y1325348D01*
X1533004Y1325009D01*
X1531779Y1324916D01*
X1525981Y1324477D01*
X1525981Y1324477D01*
X1525981Y1324477D01*
X1519952Y1322831D01*
X1511059Y1317608D01*
X1503439Y1312791D01*
X1503268Y1312702D01*
X1498040Y1310498D01*
X1497885Y1310445D01*
X1492178Y1308931D01*
X1491291Y1309050D01*
X1490747Y1309762D01*
X1490736Y1309808D01*
X1485781Y1332457D01*
X1485783Y1332965D01*
X1490714Y1354705D01*
X1491231Y1355436D01*
X1492114Y1355587D01*
X1492211Y1355561D01*
G37*
%TD.AperFunction*%
%TD*%
%TA.AperFunction,Conductor*%
%TO.N,1v8*%
G36*
X152474Y1328120D02*
G01*
X161706Y1318889D01*
X162049Y1318061D01*
X161764Y1317297D01*
X157165Y1311966D01*
X154027Y1306565D01*
X154026Y1306564D01*
X151304Y1296653D01*
X149291Y1288171D01*
X149235Y1287997D01*
X147056Y1282691D01*
X146985Y1282547D01*
X143965Y1277357D01*
X143252Y1276814D01*
X142365Y1276934D01*
X142326Y1276958D01*
X123111Y1289173D01*
X122751Y1289532D01*
X111924Y1306565D01*
X110574Y1308688D01*
X110419Y1309570D01*
X110934Y1310303D01*
X111029Y1310357D01*
X121109Y1315484D01*
X121363Y1315579D01*
X130204Y1317719D01*
X130256Y1317730D01*
X132309Y1318115D01*
X132310Y1318115D01*
X132310Y1318115D01*
X133826Y1318604D01*
X141374Y1321035D01*
X146228Y1324088D01*
X150874Y1328172D01*
X151722Y1328461D01*
X152474Y1328120D01*
G37*
%TD.AperFunction*%
%TD*%
%TA.AperFunction,Conductor*%
%TO.N,/Prog_Rx*%
G36*
X1605403Y1730660D02*
G01*
X1605462Y1730652D01*
X1605932Y1730480D01*
X1623323Y1719425D01*
X1624859Y1718448D01*
X1625059Y1718288D01*
X1625236Y1718110D01*
X1625396Y1717911D01*
X1637380Y1699060D01*
X1637545Y1698635D01*
X1637575Y1698459D01*
X1637381Y1697585D01*
X1637306Y1697478D01*
X1636878Y1697107D01*
X1627031Y1692098D01*
X1626907Y1692044D01*
X1626780Y1691997D01*
X1626649Y1691957D01*
X1617892Y1689837D01*
X1617861Y1689830D01*
X1617833Y1689824D01*
X1617803Y1689818D01*
X1615770Y1689437D01*
X1615770Y1689437D01*
X1615770Y1689437D01*
X1615769Y1689436D01*
X1615768Y1689436D01*
X1615766Y1689436D01*
X1606706Y1686517D01*
X1606706Y1686517D01*
X1606705Y1686517D01*
X1606704Y1686516D01*
X1601850Y1683464D01*
X1597379Y1679533D01*
X1596984Y1679305D01*
X1596795Y1679240D01*
X1595935Y1679282D01*
X1595799Y1679343D01*
X1595454Y1679582D01*
X1586537Y1688499D01*
X1586283Y1688878D01*
X1586206Y1689066D01*
X1586190Y1689921D01*
X1586241Y1690057D01*
X1586451Y1690414D01*
X1590914Y1695585D01*
X1594052Y1700987D01*
X1596775Y1710900D01*
X1598777Y1719337D01*
X1598801Y1719423D01*
X1598830Y1719512D01*
X1598861Y1719596D01*
X1599171Y1720353D01*
X1601008Y1724826D01*
X1601039Y1724895D01*
X1601077Y1724970D01*
X1601111Y1725035D01*
X1603997Y1729994D01*
X1604299Y1730336D01*
X1604441Y1730444D01*
X1605306Y1730673D01*
X1605403Y1730660D01*
G37*
%TD.AperFunction*%
%TD*%
%TA.AperFunction,Conductor*%
%TO.N,3v3*%
G36*
X1450697Y772208D02*
G01*
X1458598Y767642D01*
X1459937Y766775D01*
X1468637Y762448D01*
X1474337Y761178D01*
X1481780Y760711D01*
X1481780Y740711D01*
X1473545Y740278D01*
X1467360Y739107D01*
X1457930Y735301D01*
X1453193Y733093D01*
X1438691Y728680D01*
X1433420Y750711D01*
X1438691Y776012D01*
X1450697Y772208D01*
G37*
%TD.AperFunction*%
%TD*%
%TA.AperFunction,Conductor*%
%TO.N,/VL_INTR_SWDIO*%
G36*
X1481298Y1355521D02*
G01*
X1481840Y1354808D01*
X1481850Y1354769D01*
X1486795Y1332965D01*
X1486797Y1332456D01*
X1481859Y1309886D01*
X1481348Y1309151D01*
X1480466Y1308993D01*
X1480350Y1309025D01*
X1469557Y1312594D01*
X1469302Y1312714D01*
X1461545Y1317592D01*
X1461494Y1317626D01*
X1459560Y1318990D01*
X1459560Y1318990D01*
X1459559Y1318991D01*
X1459558Y1318991D01*
X1459558Y1318991D01*
X1451202Y1323346D01*
X1451202Y1323346D01*
X1447513Y1324197D01*
X1445669Y1324623D01*
X1445002Y1324666D01*
X1439587Y1325019D01*
X1438784Y1325415D01*
X1438493Y1326187D01*
X1438493Y1339241D01*
X1438836Y1340069D01*
X1439580Y1340408D01*
X1446601Y1340910D01*
X1452650Y1342465D01*
X1461630Y1347411D01*
X1468835Y1351739D01*
X1468989Y1351817D01*
X1474350Y1354035D01*
X1474499Y1354085D01*
X1480411Y1355642D01*
X1481298Y1355521D01*
G37*
%TD.AperFunction*%
%TD*%
%TA.AperFunction,Conductor*%
%TO.N,/Sen_I2C_SDA*%
G36*
X917309Y1121015D02*
G01*
X917441Y1120526D01*
X917761Y1113487D01*
X918486Y1110578D01*
X919533Y1106375D01*
X919401Y1105490D01*
X918681Y1104957D01*
X918384Y1104923D01*
X894841Y1105202D01*
X894018Y1105554D01*
X894004Y1105568D01*
X889816Y1110003D01*
X889498Y1110840D01*
X889864Y1111657D01*
X890369Y1111938D01*
X900026Y1114473D01*
X910355Y1118700D01*
X915730Y1121510D01*
X916622Y1121589D01*
X917309Y1121015D01*
G37*
%TD.AperFunction*%
%TD*%
%TA.AperFunction,Conductor*%
%TO.N,/Prog_Rx*%
G36*
X1359006Y1473155D02*
G01*
X1364268Y1471397D01*
X1368319Y1470462D01*
X1369048Y1469942D01*
X1369196Y1469059D01*
X1369090Y1468776D01*
X1361447Y1454294D01*
X1358953Y1447682D01*
X1357748Y1444486D01*
X1357733Y1444426D01*
X1357043Y1441589D01*
X1356515Y1440866D01*
X1355630Y1440729D01*
X1355195Y1440937D01*
X1351652Y1443651D01*
X1351204Y1444426D01*
X1351223Y1444839D01*
X1357495Y1472306D01*
X1358013Y1473036D01*
X1358896Y1473186D01*
X1359006Y1473155D01*
G37*
%TD.AperFunction*%
%TD*%
%TA.AperFunction,Conductor*%
%TO.N,1v8*%
G36*
X1437239Y143912D02*
G01*
X1437813Y143224D01*
X1437842Y143111D01*
X1442800Y118968D01*
X1442791Y118456D01*
X1437867Y98215D01*
X1437338Y97493D01*
X1436453Y97355D01*
X1436420Y97364D01*
X1419747Y101947D01*
X1419712Y101957D01*
X1412199Y104283D01*
X1412197Y104283D01*
X1404853Y105545D01*
X1404852Y105545D01*
X1395610Y105960D01*
X1394799Y106340D01*
X1394493Y107129D01*
X1394493Y130306D01*
X1394836Y131133D01*
X1395596Y131474D01*
X1402673Y131881D01*
X1408811Y133152D01*
X1418104Y137251D01*
X1423577Y139998D01*
X1423751Y140068D01*
X1436348Y143993D01*
X1437239Y143912D01*
G37*
%TD.AperFunction*%
%TD*%
%TA.AperFunction,Conductor*%
%TO.N,/VL_INTR_SWDIO*%
G36*
X1706361Y1278686D02*
G01*
X1706887Y1277963D01*
X1706896Y1277927D01*
X1706846Y1277221D01*
X1706787Y1277072D01*
X1716474Y1264961D01*
X1724999Y1254304D01*
X1725209Y1253898D01*
X1725258Y1253727D01*
X1725160Y1252838D01*
X1725075Y1252684D01*
X1724776Y1252331D01*
X1721819Y1249990D01*
X1721413Y1249782D01*
X1721241Y1249733D01*
X1720352Y1249836D01*
X1720212Y1249915D01*
X1719842Y1250239D01*
X1715280Y1256377D01*
X1715280Y1256377D01*
X1715279Y1256378D01*
X1715279Y1256378D01*
X1715278Y1256379D01*
X1715276Y1256382D01*
X1715271Y1256387D01*
X1711504Y1260341D01*
X1707103Y1264962D01*
X1699051Y1272173D01*
X1698777Y1272538D01*
X1698700Y1272698D01*
X1698650Y1273592D01*
X1698678Y1273672D01*
X1699124Y1274251D01*
X1700959Y1275499D01*
X1703285Y1277397D01*
X1703307Y1277415D01*
X1703332Y1277434D01*
X1703361Y1277456D01*
X1704939Y1278605D01*
X1705353Y1278796D01*
X1705477Y1278826D01*
X1706361Y1278686D01*
G37*
%TD.AperFunction*%
%TD*%
%TA.AperFunction,Conductor*%
%TO.N,/SW_1v8*%
G36*
X1140214Y1126488D02*
G01*
X1140253Y1126464D01*
X1159468Y1114249D01*
X1159828Y1113889D01*
X1172004Y1094734D01*
X1172159Y1093852D01*
X1171645Y1093119D01*
X1171548Y1093064D01*
X1161470Y1087937D01*
X1161215Y1087843D01*
X1152378Y1085704D01*
X1152319Y1085691D01*
X1150270Y1085307D01*
X1150269Y1085307D01*
X1141206Y1082387D01*
X1141205Y1082387D01*
X1136350Y1079334D01*
X1131704Y1075250D01*
X1130857Y1074961D01*
X1130105Y1075301D01*
X1120873Y1084533D01*
X1120530Y1085360D01*
X1120814Y1086125D01*
X1125414Y1091455D01*
X1128552Y1096857D01*
X1131275Y1106770D01*
X1133288Y1115250D01*
X1133344Y1115424D01*
X1135523Y1120732D01*
X1135593Y1120873D01*
X1138614Y1126065D01*
X1139326Y1126608D01*
X1140214Y1126488D01*
G37*
%TD.AperFunction*%
%TD*%
M02*
