%TF.GenerationSoftware,KiCad,Pcbnew,10.0.1*%
%TF.CreationDate,2026-05-08T14:46:53+05:30*%
%TF.ProjectId,X-Vision-HW,582d5669-7369-46f6-9e2d-48572e6b6963,rev?*%
%TF.SameCoordinates,PXd1d0ac3PY5111b03*%
%TF.FileFunction,Paste,Bot*%
%TF.FilePolarity,Positive*%
%FSLAX45Y45*%
G04 Gerber Fmt 4.5, Leading zero omitted, Abs format (unit mm)*
G04 Created by KiCad (PCBNEW 10.0.1) date 2026-05-08 14:46:53*
%MOMM*%
%LPD*%
G01*
G04 APERTURE LIST*
G04 Aperture macros list*
%AMRoundRect*
0 Rectangle with rounded corners*
0 $1 Rounding radius*
0 $2 $3 $4 $5 $6 $7 $8 $9 X,Y pos of 4 corners*
0 Add a 4 corners polygon primitive as box body*
4,1,4,$2,$3,$4,$5,$6,$7,$8,$9,$2,$3,0*
0 Add four circle primitives for the rounded corners*
1,1,$1+$1,$2,$3*
1,1,$1+$1,$4,$5*
1,1,$1+$1,$6,$7*
1,1,$1+$1,$8,$9*
0 Add four rect primitives between the rounded corners*
20,1,$1+$1,$2,$3,$4,$5,0*
20,1,$1+$1,$4,$5,$6,$7,0*
20,1,$1+$1,$6,$7,$8,$9,0*
20,1,$1+$1,$8,$9,$2,$3,0*%
G04 Aperture macros list end*
%ADD10RoundRect,0.120000X-0.205000X0.180000X-0.205000X-0.180000X0.205000X-0.180000X0.205000X0.180000X0*%
%ADD11RoundRect,0.140000X0.335000X-0.210000X0.335000X0.210000X-0.335000X0.210000X-0.335000X-0.210000X0*%
%ADD12RoundRect,0.140000X0.140000X0.170000X-0.140000X0.170000X-0.140000X-0.170000X0.140000X-0.170000X0*%
%ADD13RoundRect,0.140000X-0.140000X-0.170000X0.140000X-0.170000X0.140000X0.170000X-0.140000X0.170000X0*%
%ADD14RoundRect,0.120000X0.205000X-0.180000X0.205000X0.180000X-0.205000X0.180000X-0.205000X-0.180000X0*%
%ADD15RoundRect,0.102500X-0.102500X0.677500X-0.102500X-0.677500X0.102500X-0.677500X0.102500X0.677500X0*%
%ADD16RoundRect,0.140000X-0.170000X0.140000X-0.170000X-0.140000X0.170000X-0.140000X0.170000X0.140000X0*%
%ADD17RoundRect,0.120000X-0.180000X-0.205000X0.180000X-0.205000X0.180000X0.205000X-0.180000X0.205000X0*%
%ADD18RoundRect,0.120000X0.180000X0.205000X-0.180000X0.205000X-0.180000X-0.205000X0.180000X-0.205000X0*%
%ADD19RoundRect,0.081000X-0.189000X-0.219000X0.189000X-0.219000X0.189000X0.219000X-0.189000X0.219000X0*%
%ADD20RoundRect,0.140000X0.170000X-0.140000X0.170000X0.140000X-0.170000X0.140000X-0.170000X-0.140000X0*%
%ADD21RoundRect,0.116000X-0.434000X-0.174000X0.434000X-0.174000X0.434000X0.174000X-0.434000X0.174000X0*%
G04 APERTURE END LIST*
D10*
%TO.C,C4*%
X1324289Y290711D03*
X1324289Y190711D03*
%TD*%
D11*
%TO.C,D3*%
X1471289Y1479711D03*
X1471289Y1629711D03*
%TD*%
D12*
%TO.C,R12*%
X1832289Y1170711D03*
X1726289Y1170711D03*
%TD*%
D13*
%TO.C,R2*%
X1176289Y510711D03*
X1282289Y510711D03*
%TD*%
D14*
%TO.C,C10*%
X259289Y1290711D03*
X259289Y1390711D03*
%TD*%
D15*
%TO.C,U2*%
X706789Y1288711D03*
X771789Y1288711D03*
X836789Y1288711D03*
X901789Y1288711D03*
X966789Y1288711D03*
X1031789Y1288711D03*
X1096789Y1288711D03*
X1161789Y1288711D03*
X1226789Y1288711D03*
X1291789Y1288711D03*
X1291789Y712711D03*
X1226789Y712711D03*
X1161789Y712711D03*
X1096789Y712711D03*
X1031789Y712711D03*
X966789Y712711D03*
X901789Y712711D03*
X836789Y712711D03*
X771789Y712711D03*
X706789Y712711D03*
%TD*%
D16*
%TO.C,R7*%
X1519289Y1053711D03*
X1519289Y947711D03*
%TD*%
D14*
%TO.C,C5*%
X1049289Y1470711D03*
X1049289Y1570711D03*
%TD*%
D17*
%TO.C,C2*%
X649289Y167711D03*
X749289Y167711D03*
%TD*%
D14*
%TO.C,C11*%
X369289Y1290711D03*
X369289Y1390711D03*
%TD*%
D18*
%TO.C,C13*%
X479289Y1020711D03*
X379289Y1020711D03*
%TD*%
D19*
%TO.C,FB1*%
X656089Y277711D03*
X742489Y277711D03*
%TD*%
D16*
%TO.C,R10*%
X1178289Y1573711D03*
X1178289Y1467711D03*
%TD*%
D17*
%TO.C,C6*%
X809289Y1610711D03*
X909289Y1610711D03*
%TD*%
D10*
%TO.C,C1*%
X639289Y485711D03*
X639289Y385711D03*
%TD*%
D12*
%TO.C,R11*%
X1622289Y1170711D03*
X1516289Y1170711D03*
%TD*%
D10*
%TO.C,C8*%
X1509289Y750711D03*
X1509289Y650711D03*
%TD*%
D12*
%TO.C,R9*%
X1072289Y510711D03*
X966289Y510711D03*
%TD*%
D10*
%TO.C,C9*%
X1619289Y750711D03*
X1619289Y650711D03*
%TD*%
D17*
%TO.C,C14*%
X379289Y1130711D03*
X479289Y1130711D03*
%TD*%
D16*
%TO.C,R4*%
X1729289Y1063711D03*
X1729289Y957711D03*
%TD*%
D18*
%TO.C,C7*%
X909289Y1500711D03*
X809289Y1500711D03*
%TD*%
D14*
%TO.C,C15*%
X479289Y810711D03*
X479289Y910711D03*
%TD*%
D10*
%TO.C,C3*%
X1439289Y290711D03*
X1439289Y190711D03*
%TD*%
D20*
%TO.C,R5*%
X1729289Y747711D03*
X1729289Y853711D03*
%TD*%
D14*
%TO.C,C12*%
X479289Y1290711D03*
X479289Y1390711D03*
%TD*%
D16*
%TO.C,R1*%
X749289Y493711D03*
X749289Y387711D03*
%TD*%
D21*
%TO.C,U1*%
X904289Y185711D03*
X904289Y280711D03*
X904289Y375711D03*
X1174289Y375711D03*
X1174289Y185711D03*
%TD*%
D16*
%TO.C,R13*%
X709289Y1603711D03*
X709289Y1497711D03*
%TD*%
D20*
%TO.C,R14*%
X1601289Y1495711D03*
X1601289Y1601711D03*
%TD*%
D14*
%TO.C,C16*%
X369289Y810711D03*
X369289Y910711D03*
%TD*%
M02*
