%TF.GenerationSoftware,KiCad,Pcbnew,9.0.7*%
%TF.CreationDate,2026-03-10T13:05:46+05:30*%
%TF.ProjectId,X-Vision-HW,582d5669-7369-46f6-9e2d-48572e6b6963,rev?*%
%TF.SameCoordinates,PXd1d1fd4PY510ff40*%
%TF.FileFunction,Soldermask,Top*%
%TF.FilePolarity,Negative*%
%FSLAX46Y46*%
G04 Gerber Fmt 4.6, Leading zero omitted, Abs format (unit mm)*
G04 Created by KiCad (PCBNEW 9.0.7) date 2026-03-10 13:05:46*
%MOMM*%
%LPD*%
G01*
G04 APERTURE LIST*
G04 Aperture macros list*
%AMRoundRect*
0 Rectangle with rounded corners*
0 $1 Rounding radius*
0 $2 $3 $4 $5 $6 $7 $8 $9 X,Y pos of 4 corners*
0 Add a 4 corners polygon primitive as box body*
4,1,4,$2,$3,$4,$5,$6,$7,$8,$9,$2,$3,0*
0 Add four circle primitives for the rounded corners*
1,1,$1+$1,$2,$3*
1,1,$1+$1,$4,$5*
1,1,$1+$1,$6,$7*
1,1,$1+$1,$8,$9*
0 Add four rect primitives between the rounded corners*
20,1,$1+$1,$2,$3,$4,$5,0*
20,1,$1+$1,$4,$5,$6,$7,0*
20,1,$1+$1,$6,$7,$8,$9,0*
20,1,$1+$1,$8,$9,$2,$3,0*%
G04 Aperture macros list end*
%ADD10C,1.250000*%
%ADD11C,0.991000*%
%ADD12RoundRect,0.054134X-0.220866X0.220866X-0.220866X-0.220866X0.220866X-0.220866X0.220866X0.220866X0*%
%ADD13RoundRect,0.037000X-0.323000X-0.148000X0.323000X-0.148000X0.323000X0.148000X-0.323000X0.148000X0*%
%ADD14RoundRect,0.037000X-0.148000X-0.323000X0.148000X-0.323000X0.148000X0.323000X-0.148000X0.323000X0*%
%ADD15RoundRect,0.038400X-1.171600X-0.921600X1.171600X-0.921600X1.171600X0.921600X-1.171600X0.921600X0*%
%ADD16C,1.400000*%
%ADD17C,2.254000*%
%ADD18RoundRect,0.156000X0.234000X0.359000X-0.234000X0.359000X-0.234000X-0.359000X0.234000X-0.359000X0*%
%ADD19RoundRect,0.225000X0.375000X-0.225000X0.375000X0.225000X-0.375000X0.225000X-0.375000X-0.225000X0*%
G04 APERTURE END LIST*
D10*
X19987500Y1000000D02*
G75*
G02*
X18987500Y0I-1000000J0D01*
G01*
X-12500Y19000000D02*
X-12500Y1000000D01*
X19987500Y1000000D02*
X19987500Y19000000D01*
X18987500Y20000000D02*
G75*
G02*
X19987500Y19000000I0J-1000000D01*
G01*
X18987500Y20000000D02*
X987500Y20000000D01*
X987500Y0D02*
G75*
G02*
X-12500Y1000000I0J1000000D01*
G01*
X-12500Y19000000D02*
G75*
G02*
X987500Y20000000I1000000J0D01*
G01*
X987500Y0D02*
X18987500Y0D01*
D11*
%TO.C,J1*%
X18147500Y16180000D03*
X10527500Y17195000D03*
X18147500Y18210000D03*
X11797500Y16560000D03*
X13067500Y16560000D03*
X14337500Y16560000D03*
X15607500Y16560000D03*
X16877500Y16560000D03*
X16877500Y17830000D03*
X15607500Y17830000D03*
X14337500Y17830000D03*
X13067500Y17830000D03*
X11797500Y17830000D03*
%TD*%
D12*
%TO.C,U3*%
X15707500Y8419947D03*
X15707500Y9219945D03*
X15707500Y10019946D03*
X15707500Y10819947D03*
X15707500Y11619945D03*
X16507473Y11619892D03*
X17307446Y11619945D03*
X17307446Y10819947D03*
X17307446Y10019946D03*
X17307446Y9219945D03*
X17307446Y8419947D03*
X16507473Y8420000D03*
%TD*%
D13*
%TO.C,U4*%
X7600000Y11590000D03*
X7600000Y10940000D03*
X7600000Y10290000D03*
X7600000Y9640000D03*
X7600000Y8990000D03*
X7600000Y8340000D03*
X7600000Y7690000D03*
D14*
X8300000Y6990000D03*
X8950000Y6990000D03*
X9600000Y6990000D03*
X10250000Y6990000D03*
X10900000Y6990000D03*
X11550000Y6990000D03*
X12200000Y6990000D03*
D13*
X12900000Y7690000D03*
X12900000Y8340000D03*
X12900000Y8990000D03*
X12900000Y9640000D03*
X12900000Y10290000D03*
X12900000Y10940000D03*
X12900000Y11590000D03*
D14*
X12200000Y12290000D03*
X11550000Y12290000D03*
X10900000Y12290000D03*
X10250000Y12290000D03*
X9600000Y12290000D03*
X8950000Y12290000D03*
X8300000Y12290000D03*
D15*
X10250000Y9640000D03*
%TD*%
D16*
%TO.C,H3*%
X15187500Y4800000D03*
%TD*%
D17*
%TO.C,REF\u002A\u002A*%
X17007500Y3020000D03*
%TD*%
D18*
%TO.C,D2*%
X10757500Y14220000D03*
X9257500Y14220000D03*
%TD*%
%TO.C,D1*%
X10757500Y5070000D03*
X9257500Y5070000D03*
%TD*%
D17*
%TO.C,REF\u002A\u002A*%
X3007500Y17020000D03*
%TD*%
D16*
%TO.C,H4*%
X4607500Y15420000D03*
%TD*%
D19*
%TO.C,CON1*%
X4370000Y2270000D03*
X4370000Y3520000D03*
X4370000Y4770000D03*
X4370000Y6020000D03*
%TD*%
M02*
