%TF.GenerationSoftware,KiCad,Pcbnew,9.0.7*%
%TF.CreationDate,2026-03-10T13:05:46+05:30*%
%TF.ProjectId,X-Vision-HW,582d5669-7369-46f6-9e2d-48572e6b6963,rev?*%
%TF.SameCoordinates,PXd1d1fd4PY510ff40*%
%TF.FileFunction,AssemblyDrawing,Bot*%
%FSLAX46Y46*%
G04 Gerber Fmt 4.6, Leading zero omitted, Abs format (unit mm)*
G04 Created by KiCad (PCBNEW 9.0.7) date 2026-03-10 13:05:46*
%MOMM*%
%LPD*%
G01*
G04 APERTURE LIST*
%ADD10C,0.150000*%
%ADD11C,0.100000*%
%ADD12C,0.127000*%
%ADD13C,0.200000*%
G04 APERTURE END LIST*
D10*
G36*
X13457218Y3489670D02*
G01*
X13474474Y3489047D01*
X13486637Y3487178D01*
X13495357Y3483918D01*
X13503710Y3477360D01*
X13515837Y3459958D01*
X13530051Y3428414D01*
X13541336Y3385769D01*
X13544704Y3361271D01*
X13545878Y3333928D01*
X13543912Y3297888D01*
X13538228Y3265240D01*
X13529062Y3235559D01*
X13515873Y3207587D01*
X13499149Y3182834D01*
X13478760Y3160968D01*
X13455185Y3142463D01*
X13427513Y3126721D01*
X13395193Y3113817D01*
X13361397Y3105005D01*
X13322737Y3099412D01*
X13278542Y3097440D01*
X13233599Y3099584D01*
X13193682Y3105714D01*
X13158192Y3115465D01*
X13124230Y3129477D01*
X13094977Y3146305D01*
X13069898Y3165877D01*
X13048012Y3188889D01*
X13030006Y3214679D01*
X13015713Y3243546D01*
X13005568Y3274257D01*
X12999346Y3307407D01*
X12997211Y3343380D01*
X13000985Y3385989D01*
X13010840Y3423907D01*
X13024835Y3455268D01*
X13038464Y3474722D01*
X13047806Y3482306D01*
X13057295Y3485566D01*
X13070887Y3487435D01*
X13090231Y3488058D01*
X13111260Y3487215D01*
X13125256Y3484357D01*
X13133096Y3479448D01*
X13135550Y3472890D01*
X13134044Y3466603D01*
X13128296Y3457320D01*
X13112103Y3432920D01*
X13095910Y3397273D01*
X13090598Y3375434D01*
X13088656Y3347887D01*
X13091987Y3317577D01*
X13101588Y3291503D01*
X13117126Y3268695D01*
X13138481Y3249261D01*
X13164363Y3234242D01*
X13196513Y3222847D01*
X13231758Y3216199D01*
X13273193Y3213834D01*
X13318265Y3216419D01*
X13354197Y3223469D01*
X13386200Y3235539D01*
X13410580Y3250910D01*
X13429967Y3270685D01*
X13443590Y3293958D01*
X13451627Y3320263D01*
X13454434Y3350744D01*
X13452658Y3378348D01*
X13447803Y3400313D01*
X13433148Y3436181D01*
X13418677Y3460764D01*
X13413525Y3470091D01*
X13412229Y3475748D01*
X13413877Y3482306D01*
X13420362Y3486372D01*
X13433918Y3488827D01*
X13457218Y3489670D01*
G37*
G36*
X13403079Y3916366D02*
G01*
X13415343Y3913297D01*
X13423918Y3907841D01*
X13426297Y3901646D01*
X13426297Y3854495D01*
X13522431Y3854495D01*
X13529612Y3852041D01*
X13534741Y3843431D01*
X13537818Y3827421D01*
X13538844Y3802032D01*
X13537818Y3777229D01*
X13534741Y3761219D01*
X13529612Y3753012D01*
X13522431Y3750778D01*
X13426297Y3750778D01*
X13426297Y3547922D01*
X13424868Y3537663D01*
X13418274Y3530080D01*
X13403436Y3525573D01*
X13377644Y3524145D01*
X13354783Y3524767D01*
X13337271Y3526819D01*
X13322433Y3530886D01*
X13307595Y3537663D01*
X13018534Y3702417D01*
X13012196Y3709378D01*
X13007726Y3723117D01*
X13005088Y3745465D01*
X13004972Y3749972D01*
X13098035Y3749972D01*
X13339542Y3610204D01*
X13339542Y3750778D01*
X13098035Y3750778D01*
X13098035Y3749972D01*
X13004972Y3749972D01*
X13004245Y3778255D01*
X13005271Y3813902D01*
X13008532Y3837459D01*
X13014027Y3850392D01*
X13021794Y3854495D01*
X13339542Y3854495D01*
X13339542Y3901646D01*
X13341706Y3907305D01*
X13349690Y3912894D01*
X13361535Y3916195D01*
X13383323Y3917620D01*
X13403079Y3916366D01*
G37*
G36*
X17387174Y12580067D02*
G01*
X17411793Y12578052D01*
X17442682Y12571801D01*
X17469349Y12562555D01*
X17493312Y12549658D01*
X17512800Y12533759D01*
X17528477Y12514477D01*
X17540057Y12491737D01*
X17547034Y12466354D01*
X17549510Y12436086D01*
X17547752Y12410285D01*
X17542732Y12387726D01*
X17534329Y12366928D01*
X17522875Y12348745D01*
X17508352Y12332874D01*
X17490488Y12318996D01*
X17470193Y12307716D01*
X17446635Y12298589D01*
X17468946Y12284594D01*
X17488620Y12264664D01*
X17506059Y12237956D01*
X17522032Y12204031D01*
X17566692Y12099214D01*
X17574899Y12076390D01*
X17576950Y12065106D01*
X17575302Y12057485D01*
X17567535Y12052356D01*
X17549473Y12049498D01*
X17517123Y12048656D01*
X17489646Y12049498D01*
X17473452Y12052576D01*
X17465063Y12058328D01*
X17460959Y12066791D01*
X17413405Y12185859D01*
X17396589Y12221690D01*
X17387726Y12236375D01*
X17378381Y12247848D01*
X17367537Y12257096D01*
X17355227Y12263712D01*
X17341458Y12267657D01*
X17324892Y12269061D01*
X17291296Y12269061D01*
X17291296Y12065948D01*
X17288622Y12058548D01*
X17279829Y12053162D01*
X17263416Y12049901D01*
X17237184Y12048656D01*
X17211136Y12049901D01*
X17194539Y12053162D01*
X17185930Y12058474D01*
X17183475Y12065838D01*
X17183475Y12348781D01*
X17291296Y12348781D01*
X17346214Y12348781D01*
X17368364Y12350242D01*
X17386368Y12354277D01*
X17402458Y12361095D01*
X17415054Y12369811D01*
X17425128Y12380835D01*
X17432273Y12393734D01*
X17436540Y12408218D01*
X17438025Y12424839D01*
X17434901Y12449492D01*
X17426118Y12468985D01*
X17411116Y12483882D01*
X17387210Y12494338D01*
X17368562Y12497599D01*
X17339656Y12498844D01*
X17291296Y12498844D01*
X17291296Y12348781D01*
X17183475Y12348781D01*
X17183475Y12546911D01*
X17186023Y12563105D01*
X17192671Y12572923D01*
X17202832Y12578859D01*
X17215459Y12580910D01*
X17352772Y12580910D01*
X17387174Y12580067D01*
G37*
G36*
X17985080Y12091410D02*
G01*
X17983835Y12072213D01*
X17980354Y12059683D01*
X17975225Y12053016D01*
X17968667Y12051000D01*
X17676015Y12051000D01*
X17669860Y12053016D01*
X17664731Y12059683D01*
X17661251Y12072213D01*
X17660042Y12091410D01*
X17661068Y12111011D01*
X17664328Y12123760D01*
X17669457Y12130831D01*
X17676015Y12133066D01*
X17774824Y12133066D01*
X17774824Y12480086D01*
X17689571Y12433192D01*
X17674183Y12427660D01*
X17668734Y12427795D01*
X17664768Y12430114D01*
X17660042Y12442168D01*
X17658833Y12466274D01*
X17659236Y12482431D01*
X17661287Y12493239D01*
X17665794Y12500603D01*
X17673597Y12506758D01*
X17787537Y12580287D01*
X17792666Y12582925D01*
X17800652Y12584573D01*
X17813548Y12585379D01*
X17834248Y12585599D01*
X17859454Y12584976D01*
X17873999Y12582925D01*
X17880556Y12579005D01*
X17882205Y12572850D01*
X17882205Y12133066D01*
X17968704Y12133066D01*
X17975445Y12130831D01*
X17980757Y12123760D01*
X17984054Y12111011D01*
X17985080Y12091410D01*
G37*
G36*
X18415558Y12094598D02*
G01*
X18414532Y12074411D01*
X18411455Y12060746D01*
X18406106Y12053235D01*
X18398742Y12051000D01*
X18093817Y12051000D01*
X18078247Y12052613D01*
X18067585Y12058951D01*
X18061650Y12072616D01*
X18059818Y12095880D01*
X18061027Y12118924D01*
X18065534Y12136034D01*
X18073960Y12150725D01*
X18087296Y12166442D01*
X18179070Y12265360D01*
X18204782Y12293775D01*
X18223327Y12317494D01*
X18249559Y12360432D01*
X18257736Y12379714D01*
X18262491Y12396226D01*
X18265972Y12427330D01*
X18261649Y12453268D01*
X18256294Y12464782D01*
X18248936Y12474628D01*
X18239594Y12482700D01*
X18227833Y12488952D01*
X18214455Y12492777D01*
X18197938Y12494155D01*
X18174571Y12492542D01*
X18155110Y12488036D01*
X18122320Y12474408D01*
X18098726Y12460596D01*
X18089601Y12455567D01*
X18083999Y12454294D01*
X18077624Y12456749D01*
X18073301Y12464992D01*
X18070663Y12480453D01*
X18069637Y12504156D01*
X18070260Y12520020D01*
X18072092Y12531121D01*
X18075389Y12539364D01*
X18082533Y12547827D01*
X18101401Y12559990D01*
X18135216Y12574059D01*
X18179473Y12585599D01*
X18204005Y12589099D01*
X18229921Y12590289D01*
X18269807Y12587516D01*
X18302242Y12579847D01*
X18331109Y12567053D01*
X18353679Y12550758D01*
X18371589Y12530378D01*
X18384234Y12506538D01*
X18391719Y12480223D01*
X18394272Y12451473D01*
X18393032Y12425813D01*
X18389327Y12400659D01*
X18382088Y12375582D01*
X18368847Y12346766D01*
X18351009Y12317690D01*
X18324993Y12282872D01*
X18293882Y12246962D01*
X18249998Y12201540D01*
X18188083Y12137756D01*
X18397130Y12137756D01*
X18404677Y12135301D01*
X18410649Y12127790D01*
X18414313Y12114345D01*
X18415558Y12094598D01*
G37*
G36*
X13199958Y5380067D02*
G01*
X13224577Y5378052D01*
X13255466Y5371801D01*
X13282133Y5362555D01*
X13306096Y5349658D01*
X13325584Y5333759D01*
X13341261Y5314477D01*
X13352841Y5291737D01*
X13359818Y5266354D01*
X13362294Y5236086D01*
X13360536Y5210285D01*
X13355516Y5187726D01*
X13347113Y5166928D01*
X13335659Y5148745D01*
X13321136Y5132874D01*
X13303272Y5118996D01*
X13282977Y5107716D01*
X13259419Y5098589D01*
X13281730Y5084594D01*
X13301404Y5064664D01*
X13318843Y5037956D01*
X13334816Y5004031D01*
X13379476Y4899214D01*
X13387683Y4876390D01*
X13389734Y4865106D01*
X13388086Y4857485D01*
X13380319Y4852356D01*
X13362257Y4849498D01*
X13329907Y4848656D01*
X13302430Y4849498D01*
X13286236Y4852576D01*
X13277847Y4858328D01*
X13273743Y4866791D01*
X13226189Y4985859D01*
X13209373Y5021690D01*
X13200510Y5036375D01*
X13191165Y5047848D01*
X13180321Y5057096D01*
X13168011Y5063712D01*
X13154242Y5067657D01*
X13137676Y5069061D01*
X13104080Y5069061D01*
X13104080Y4865948D01*
X13101406Y4858548D01*
X13092613Y4853162D01*
X13076200Y4849901D01*
X13049968Y4848656D01*
X13023920Y4849901D01*
X13007323Y4853162D01*
X12998714Y4858474D01*
X12996259Y4865838D01*
X12996259Y5148781D01*
X13104080Y5148781D01*
X13158998Y5148781D01*
X13181148Y5150242D01*
X13199152Y5154277D01*
X13215242Y5161095D01*
X13227838Y5169811D01*
X13237912Y5180835D01*
X13245057Y5193734D01*
X13249324Y5208218D01*
X13250809Y5224839D01*
X13247685Y5249492D01*
X13238902Y5268985D01*
X13223900Y5283882D01*
X13199994Y5294338D01*
X13181346Y5297599D01*
X13152440Y5298844D01*
X13104080Y5298844D01*
X13104080Y5148781D01*
X12996259Y5148781D01*
X12996259Y5346911D01*
X12998807Y5363105D01*
X13005455Y5372923D01*
X13015616Y5378859D01*
X13028243Y5380910D01*
X13165556Y5380910D01*
X13199958Y5380067D01*
G37*
G36*
X13802773Y4894598D02*
G01*
X13801748Y4874411D01*
X13798670Y4860746D01*
X13793321Y4853235D01*
X13785957Y4851000D01*
X13481032Y4851000D01*
X13465462Y4852613D01*
X13454801Y4858951D01*
X13448866Y4872616D01*
X13447034Y4895880D01*
X13448243Y4918924D01*
X13452749Y4936034D01*
X13461175Y4950725D01*
X13474511Y4966442D01*
X13566285Y5065360D01*
X13591998Y5093775D01*
X13610542Y5117494D01*
X13636774Y5160432D01*
X13644951Y5179714D01*
X13649706Y5196226D01*
X13653187Y5227330D01*
X13648864Y5253268D01*
X13643509Y5264782D01*
X13636151Y5274628D01*
X13626810Y5282700D01*
X13615048Y5288952D01*
X13601671Y5292777D01*
X13585153Y5294155D01*
X13561786Y5292542D01*
X13542325Y5288036D01*
X13509535Y5274408D01*
X13485942Y5260596D01*
X13476816Y5255567D01*
X13471214Y5254294D01*
X13464839Y5256749D01*
X13460516Y5264992D01*
X13457878Y5280453D01*
X13456852Y5304156D01*
X13457475Y5320020D01*
X13459307Y5331121D01*
X13462604Y5339364D01*
X13469748Y5347827D01*
X13488616Y5359990D01*
X13522432Y5374059D01*
X13566688Y5385599D01*
X13591220Y5389099D01*
X13617137Y5390289D01*
X13657022Y5387516D01*
X13689457Y5379847D01*
X13718325Y5367053D01*
X13740895Y5350758D01*
X13758805Y5330378D01*
X13771449Y5306538D01*
X13778935Y5280223D01*
X13781488Y5251473D01*
X13780247Y5225813D01*
X13776542Y5200659D01*
X13769303Y5175582D01*
X13756062Y5146766D01*
X13738224Y5117690D01*
X13712208Y5082872D01*
X13681097Y5046962D01*
X13637213Y5001540D01*
X13575298Y4937756D01*
X13784345Y4937756D01*
X13791892Y4935301D01*
X13797864Y4927790D01*
X13801528Y4914345D01*
X13802773Y4894598D01*
G37*
G36*
X2757218Y14476885D02*
G01*
X2774474Y14476262D01*
X2786637Y14474393D01*
X2795357Y14471133D01*
X2803710Y14464575D01*
X2815837Y14447173D01*
X2830051Y14415629D01*
X2841336Y14372984D01*
X2844704Y14348486D01*
X2845878Y14321143D01*
X2843912Y14285103D01*
X2838228Y14252455D01*
X2829062Y14222774D01*
X2815873Y14194802D01*
X2799149Y14170049D01*
X2778760Y14148183D01*
X2755185Y14129678D01*
X2727513Y14113936D01*
X2695193Y14101032D01*
X2661397Y14092220D01*
X2622737Y14086627D01*
X2578542Y14084655D01*
X2533599Y14086799D01*
X2493682Y14092929D01*
X2458192Y14102680D01*
X2424230Y14116692D01*
X2394977Y14133520D01*
X2369898Y14153092D01*
X2348012Y14176104D01*
X2330006Y14201894D01*
X2315713Y14230761D01*
X2305568Y14261472D01*
X2299346Y14294622D01*
X2297211Y14330595D01*
X2300985Y14373204D01*
X2310840Y14411122D01*
X2324835Y14442483D01*
X2338464Y14461937D01*
X2347806Y14469521D01*
X2357295Y14472781D01*
X2370887Y14474650D01*
X2390231Y14475273D01*
X2411260Y14474430D01*
X2425256Y14471572D01*
X2433096Y14466663D01*
X2435550Y14460105D01*
X2434044Y14453818D01*
X2428296Y14444535D01*
X2412103Y14420135D01*
X2395910Y14384488D01*
X2390598Y14362649D01*
X2388656Y14335102D01*
X2391987Y14304792D01*
X2401588Y14278718D01*
X2417126Y14255910D01*
X2438481Y14236476D01*
X2464363Y14221457D01*
X2496513Y14210062D01*
X2531758Y14203414D01*
X2573193Y14201049D01*
X2618265Y14203634D01*
X2654197Y14210684D01*
X2686200Y14222754D01*
X2710580Y14238125D01*
X2729967Y14257900D01*
X2743590Y14281173D01*
X2751627Y14307478D01*
X2754434Y14337959D01*
X2752658Y14365563D01*
X2747803Y14387528D01*
X2733148Y14423396D01*
X2718677Y14447979D01*
X2713525Y14457306D01*
X2712229Y14462963D01*
X2713877Y14469521D01*
X2720362Y14473587D01*
X2733918Y14476042D01*
X2757218Y14476885D01*
G37*
G36*
X2796090Y14883512D02*
G01*
X2815287Y14882267D01*
X2827817Y14878786D01*
X2834484Y14873657D01*
X2836500Y14867099D01*
X2836500Y14574447D01*
X2834484Y14568293D01*
X2827817Y14563163D01*
X2815287Y14559683D01*
X2796090Y14558474D01*
X2776489Y14559500D01*
X2763740Y14562760D01*
X2756669Y14567890D01*
X2754434Y14574447D01*
X2754434Y14673256D01*
X2407414Y14673256D01*
X2454308Y14588003D01*
X2459840Y14572616D01*
X2459705Y14567166D01*
X2457386Y14563200D01*
X2445332Y14558474D01*
X2421226Y14557265D01*
X2405069Y14557668D01*
X2394261Y14559720D01*
X2386897Y14564226D01*
X2380742Y14572029D01*
X2307213Y14685969D01*
X2304575Y14691098D01*
X2302927Y14699085D01*
X2302121Y14711981D01*
X2301901Y14732680D01*
X2302524Y14757886D01*
X2304575Y14772431D01*
X2308495Y14778989D01*
X2314650Y14780637D01*
X2754434Y14780637D01*
X2754434Y14867136D01*
X2756669Y14873877D01*
X2763740Y14879189D01*
X2776489Y14882487D01*
X2796090Y14883512D01*
G37*
G36*
X2631342Y15321954D02*
G01*
X2684129Y15314393D01*
X2732612Y15300521D01*
X2771360Y15281018D01*
X2793637Y15263914D01*
X2811960Y15243911D01*
X2826644Y15220751D01*
X2836980Y15195334D01*
X2843545Y15165364D01*
X2845878Y15129966D01*
X2843578Y15093968D01*
X2837187Y15064270D01*
X2827267Y15039803D01*
X2813011Y15017663D01*
X2795238Y14998904D01*
X2773631Y14983237D01*
X2735970Y14965899D01*
X2688049Y14953928D01*
X2635796Y14947759D01*
X2573596Y14945538D01*
X2512092Y14948275D01*
X2459181Y14955979D01*
X2410505Y14970061D01*
X2371766Y14989611D01*
X2349467Y15006717D01*
X2331145Y15026709D01*
X2316482Y15049842D01*
X2306112Y15075281D01*
X2299542Y15105128D01*
X2297513Y15135681D01*
X2381622Y15135681D01*
X2384692Y15113067D01*
X2393272Y15095711D01*
X2407294Y15081984D01*
X2428260Y15070725D01*
X2453153Y15063163D01*
X2486329Y15057792D01*
X2567295Y15054128D01*
X2621317Y15055376D01*
X2660755Y15058635D01*
X2695699Y15064842D01*
X2719666Y15072776D01*
X2738879Y15084295D01*
X2750331Y15097579D01*
X2756815Y15113836D01*
X2759123Y15134069D01*
X2757791Y15149444D01*
X2754031Y15162316D01*
X2747659Y15173814D01*
X2738680Y15183858D01*
X2727443Y15192125D01*
X2712925Y15199208D01*
X2676911Y15209247D01*
X2630713Y15214596D01*
X2573853Y15216025D01*
X2507394Y15213973D01*
X2457312Y15207598D01*
X2421299Y15196937D01*
X2407693Y15189692D01*
X2397778Y15181586D01*
X2390234Y15171904D01*
X2385322Y15161107D01*
X2381622Y15135681D01*
X2297513Y15135681D01*
X2297211Y15140224D01*
X2299512Y15176218D01*
X2305913Y15205983D01*
X2315859Y15230569D01*
X2330110Y15252844D01*
X2347883Y15271674D01*
X2369495Y15287356D01*
X2407138Y15304660D01*
X2455078Y15316445D01*
X2507294Y15322478D01*
X2569493Y15324652D01*
X2631342Y15321954D01*
G37*
G36*
X15614984Y17588384D02*
G01*
X15649848Y17582947D01*
X15680705Y17574315D01*
X15709900Y17561603D01*
X15735446Y17545315D01*
X15757751Y17525369D01*
X15776565Y17502073D01*
X15792441Y17474504D01*
X15805305Y17442058D01*
X15813976Y17408125D01*
X15819527Y17368677D01*
X15821498Y17322916D01*
X15820281Y17287874D01*
X15816772Y17255981D01*
X15810889Y17225393D01*
X15803034Y17198022D01*
X15792875Y17172278D01*
X15780905Y17149296D01*
X15766721Y17128347D01*
X15750973Y17110425D01*
X15776110Y17090138D01*
X15796073Y17076866D01*
X15829045Y17059683D01*
X15850368Y17051294D01*
X15862897Y17044333D01*
X15866552Y17038993D01*
X15869455Y17029532D01*
X15871507Y17000516D01*
X15870078Y16976665D01*
X15866158Y16962707D01*
X15860846Y16956332D01*
X15854691Y16954867D01*
X15840316Y16956463D01*
X15819227Y16962267D01*
X15797138Y16970950D01*
X15771893Y16983443D01*
X15746701Y16998429D01*
X15720052Y17017112D01*
X15694684Y17038429D01*
X15671069Y17062907D01*
X15651066Y17055149D01*
X15625347Y17047960D01*
X15597701Y17043278D01*
X15565739Y17041622D01*
X15524628Y17043523D01*
X15488836Y17048906D01*
X15457699Y17057375D01*
X15428284Y17070040D01*
X15402830Y17086331D01*
X15380872Y17106322D01*
X15362539Y17129758D01*
X15347127Y17157707D01*
X15334747Y17190842D01*
X15326548Y17225434D01*
X15321275Y17265905D01*
X15319396Y17313097D01*
X15319645Y17318593D01*
X15432529Y17318593D01*
X15434262Y17276066D01*
X15439087Y17240191D01*
X15448174Y17207281D01*
X15461216Y17180950D01*
X15479436Y17159367D01*
X15503018Y17143581D01*
X15531319Y17134198D01*
X15569000Y17130721D01*
X15606638Y17134651D01*
X15635422Y17145413D01*
X15659517Y17162810D01*
X15678433Y17185456D01*
X15692233Y17212419D01*
X15701587Y17244661D01*
X15706626Y17279233D01*
X15708365Y17316981D01*
X15706649Y17357264D01*
X15701807Y17392122D01*
X15692693Y17424281D01*
X15679459Y17450338D01*
X15661125Y17471836D01*
X15637474Y17487890D01*
X15609189Y17497610D01*
X15571894Y17501189D01*
X15534259Y17497250D01*
X15505473Y17486461D01*
X15481342Y17469167D01*
X15462425Y17446857D01*
X15448636Y17420318D01*
X15439270Y17388642D01*
X15434248Y17354843D01*
X15432529Y17318593D01*
X15319645Y17318593D01*
X15321328Y17355722D01*
X15326884Y17394120D01*
X15335773Y17428759D01*
X15348779Y17461905D01*
X15365056Y17490810D01*
X15384572Y17515953D01*
X15407656Y17537824D01*
X15434230Y17556149D01*
X15464696Y17571018D01*
X15497071Y17581439D01*
X15533803Y17587991D01*
X15575558Y17590289D01*
X15614984Y17588384D01*
G37*
G36*
X16249742Y17091410D02*
G01*
X16248496Y17072213D01*
X16245015Y17059683D01*
X16239886Y17053016D01*
X16233328Y17051000D01*
X15940677Y17051000D01*
X15934522Y17053016D01*
X15929393Y17059683D01*
X15925912Y17072213D01*
X15924703Y17091410D01*
X15925729Y17111011D01*
X15928990Y17123760D01*
X15934119Y17130831D01*
X15940677Y17133066D01*
X16039485Y17133066D01*
X16039485Y17480086D01*
X15954232Y17433192D01*
X15938845Y17427660D01*
X15933395Y17427795D01*
X15929429Y17430114D01*
X15924703Y17442168D01*
X15923494Y17466274D01*
X15923897Y17482431D01*
X15925949Y17493239D01*
X15930455Y17500603D01*
X15938259Y17506758D01*
X16052198Y17580287D01*
X16057327Y17582925D01*
X16065314Y17584573D01*
X16078210Y17585379D01*
X16098909Y17585599D01*
X16124115Y17584976D01*
X16138660Y17582925D01*
X16145218Y17579005D01*
X16146866Y17572850D01*
X16146866Y17133066D01*
X16233365Y17133066D01*
X16240106Y17130831D01*
X16245418Y17123760D01*
X16248716Y17111011D01*
X16249742Y17091410D01*
G37*
G36*
X9991274Y9948361D02*
G01*
X9987528Y9901264D01*
X9976912Y9861166D01*
X9959037Y9825407D01*
X9934707Y9796063D01*
X9904043Y9772926D01*
X9865831Y9755543D01*
X9823042Y9745289D01*
X9771602Y9741622D01*
X9723116Y9744890D01*
X9681806Y9754115D01*
X9644675Y9770076D01*
X9614578Y9791960D01*
X9590573Y9820154D01*
X9572593Y9855231D01*
X9561895Y9895067D01*
X9558048Y9943855D01*
X9558048Y10266072D01*
X9560503Y10273399D01*
X9569296Y10278748D01*
X9585928Y10282009D01*
X9612160Y10283255D01*
X9637989Y10282009D01*
X9654402Y10278748D01*
X9663195Y10273436D01*
X9665869Y10266072D01*
X9665869Y9953783D01*
X9667943Y9923473D01*
X9673636Y9899195D01*
X9683333Y9877748D01*
X9695984Y9860983D01*
X9711899Y9847783D01*
X9730826Y9838268D01*
X9751892Y9832676D01*
X9776108Y9830721D01*
X9800670Y9832745D01*
X9821611Y9838488D01*
X9840260Y9848116D01*
X9855609Y9861166D01*
X9867811Y9877558D01*
X9877151Y9897949D01*
X9882750Y9920731D01*
X9884735Y9947628D01*
X9884735Y10266072D01*
X9887190Y10273436D01*
X9895799Y10278748D01*
X9912396Y10282009D01*
X9938408Y10283255D01*
X9964016Y10282009D01*
X9980210Y10278748D01*
X9988819Y10273399D01*
X9991274Y10266072D01*
X9991274Y9948361D01*
G37*
G36*
X10440583Y9794598D02*
G01*
X10439557Y9774411D01*
X10436480Y9760746D01*
X10431131Y9753235D01*
X10423767Y9751000D01*
X10118842Y9751000D01*
X10103271Y9752613D01*
X10092610Y9758951D01*
X10086675Y9772616D01*
X10084843Y9795880D01*
X10086052Y9818924D01*
X10090559Y9836034D01*
X10098985Y9850725D01*
X10112321Y9866442D01*
X10204095Y9965360D01*
X10229807Y9993775D01*
X10248352Y10017494D01*
X10274583Y10060432D01*
X10282761Y10079714D01*
X10287516Y10096226D01*
X10290997Y10127330D01*
X10286673Y10153268D01*
X10281319Y10164782D01*
X10273961Y10174628D01*
X10264619Y10182700D01*
X10252858Y10188952D01*
X10239480Y10192777D01*
X10222963Y10194155D01*
X10199596Y10192542D01*
X10180135Y10188036D01*
X10147345Y10174408D01*
X10123751Y10160596D01*
X10114626Y10155567D01*
X10109023Y10154294D01*
X10102649Y10156749D01*
X10098326Y10164992D01*
X10095688Y10180453D01*
X10094662Y10204156D01*
X10095285Y10220020D01*
X10097117Y10231121D01*
X10100414Y10239364D01*
X10107558Y10247827D01*
X10126426Y10259990D01*
X10160241Y10274059D01*
X10204498Y10285599D01*
X10229030Y10289099D01*
X10254946Y10290289D01*
X10294832Y10287516D01*
X10327267Y10279847D01*
X10356134Y10267053D01*
X10378704Y10250758D01*
X10396614Y10230378D01*
X10409259Y10206538D01*
X10416744Y10180223D01*
X10419297Y10151473D01*
X10418057Y10125813D01*
X10414351Y10100659D01*
X10407112Y10075582D01*
X10393872Y10046766D01*
X10376033Y10017690D01*
X10350018Y9982872D01*
X10318907Y9946962D01*
X10275023Y9901540D01*
X10213107Y9837756D01*
X10422155Y9837756D01*
X10429702Y9835301D01*
X10435674Y9827790D01*
X10439337Y9814345D01*
X10440583Y9794598D01*
G37*
G36*
X14730015Y10000587D02*
G01*
X14735144Y9992820D01*
X14738002Y9974758D01*
X14738844Y9942408D01*
X14738002Y9914931D01*
X14734924Y9898737D01*
X14729172Y9890348D01*
X14720709Y9886244D01*
X14601641Y9838690D01*
X14565810Y9821874D01*
X14551125Y9813011D01*
X14539652Y9803666D01*
X14530404Y9792822D01*
X14523788Y9780512D01*
X14519843Y9766743D01*
X14518439Y9750177D01*
X14518439Y9716581D01*
X14721552Y9716581D01*
X14728952Y9713907D01*
X14734338Y9705114D01*
X14737599Y9688701D01*
X14738844Y9662469D01*
X14737599Y9636421D01*
X14734338Y9619824D01*
X14729026Y9611215D01*
X14721662Y9608760D01*
X14240589Y9608760D01*
X14224395Y9611308D01*
X14214577Y9617956D01*
X14208641Y9628117D01*
X14206590Y9640744D01*
X14206590Y9764941D01*
X14288656Y9764941D01*
X14288656Y9716581D01*
X14438719Y9716581D01*
X14438719Y9771499D01*
X14437258Y9793649D01*
X14433223Y9811653D01*
X14426405Y9827743D01*
X14417689Y9840339D01*
X14406665Y9850413D01*
X14393766Y9857558D01*
X14379282Y9861825D01*
X14362661Y9863310D01*
X14338008Y9860186D01*
X14318515Y9851403D01*
X14303618Y9836401D01*
X14293162Y9812495D01*
X14289901Y9793847D01*
X14288656Y9764941D01*
X14206590Y9764941D01*
X14206590Y9778057D01*
X14207433Y9812459D01*
X14209448Y9837078D01*
X14215699Y9867967D01*
X14224945Y9894634D01*
X14237842Y9918597D01*
X14253741Y9938085D01*
X14273023Y9953762D01*
X14295763Y9965342D01*
X14321146Y9972319D01*
X14351414Y9974795D01*
X14377215Y9973037D01*
X14399774Y9968017D01*
X14420572Y9959614D01*
X14438755Y9948160D01*
X14454626Y9933637D01*
X14468504Y9915773D01*
X14479784Y9895478D01*
X14488911Y9871920D01*
X14502906Y9894231D01*
X14522836Y9913905D01*
X14549544Y9931344D01*
X14583469Y9947317D01*
X14688286Y9991977D01*
X14711110Y10000184D01*
X14722394Y10002235D01*
X14730015Y10000587D01*
G37*
G36*
X14252203Y10414871D02*
G01*
X14272975Y10414029D01*
X14289425Y10411794D01*
X14303823Y10407911D01*
X14318405Y10402159D01*
X14722065Y10227549D01*
X14730674Y10221175D01*
X14735803Y10210330D01*
X14738221Y10192488D01*
X14738844Y10165670D01*
X14737415Y10131232D01*
X14732909Y10112584D01*
X14729240Y10107882D01*
X14725142Y10106246D01*
X14713492Y10109104D01*
X14300379Y10296829D01*
X14300379Y10073860D01*
X14297823Y10066645D01*
X14289059Y10060927D01*
X14276048Y10057921D01*
X14253082Y10056640D01*
X14231906Y10057849D01*
X14217288Y10061330D01*
X14209081Y10066679D01*
X14206590Y10073860D01*
X14206590Y10389043D01*
X14208056Y10401353D01*
X14214430Y10409120D01*
X14228389Y10413443D01*
X14252203Y10414871D01*
G37*
G36*
X10657218Y14089670D02*
G01*
X10674474Y14089047D01*
X10686637Y14087178D01*
X10695357Y14083918D01*
X10703710Y14077360D01*
X10715837Y14059958D01*
X10730051Y14028414D01*
X10741336Y13985769D01*
X10744704Y13961271D01*
X10745878Y13933928D01*
X10743912Y13897888D01*
X10738228Y13865240D01*
X10729062Y13835559D01*
X10715873Y13807587D01*
X10699149Y13782834D01*
X10678760Y13760968D01*
X10655185Y13742463D01*
X10627513Y13726721D01*
X10595193Y13713817D01*
X10561397Y13705005D01*
X10522737Y13699412D01*
X10478542Y13697440D01*
X10433599Y13699584D01*
X10393682Y13705714D01*
X10358192Y13715465D01*
X10324230Y13729477D01*
X10294977Y13746305D01*
X10269898Y13765877D01*
X10248012Y13788889D01*
X10230006Y13814679D01*
X10215713Y13843546D01*
X10205568Y13874257D01*
X10199346Y13907407D01*
X10197211Y13943380D01*
X10200985Y13985989D01*
X10210840Y14023907D01*
X10224835Y14055268D01*
X10238464Y14074722D01*
X10247806Y14082306D01*
X10257295Y14085566D01*
X10270887Y14087435D01*
X10290231Y14088058D01*
X10311260Y14087215D01*
X10325256Y14084357D01*
X10333096Y14079448D01*
X10335550Y14072890D01*
X10334044Y14066603D01*
X10328296Y14057320D01*
X10312103Y14032920D01*
X10295910Y13997273D01*
X10290598Y13975434D01*
X10288656Y13947887D01*
X10291987Y13917577D01*
X10301588Y13891503D01*
X10317126Y13868695D01*
X10338481Y13849261D01*
X10364363Y13834242D01*
X10396513Y13822847D01*
X10431758Y13816199D01*
X10473193Y13813834D01*
X10518265Y13816419D01*
X10554197Y13823469D01*
X10586200Y13835539D01*
X10610580Y13850910D01*
X10629967Y13870685D01*
X10643590Y13893958D01*
X10651627Y13920263D01*
X10654434Y13950744D01*
X10652658Y13978348D01*
X10647803Y14000313D01*
X10633148Y14036181D01*
X10618677Y14060764D01*
X10613525Y14070091D01*
X10612229Y14075748D01*
X10613877Y14082306D01*
X10620362Y14086372D01*
X10633918Y14088827D01*
X10657218Y14089670D01*
G37*
G36*
X10564968Y14496297D02*
G01*
X10606257Y14492410D01*
X10641538Y14481313D01*
X10672697Y14463206D01*
X10698324Y14439108D01*
X10718414Y14409568D01*
X10733642Y14373529D01*
X10742704Y14333903D01*
X10745878Y14288496D01*
X10742691Y14241747D01*
X10734668Y14201997D01*
X10724959Y14173091D01*
X10717009Y14158363D01*
X10710268Y14153234D01*
X10701438Y14150559D01*
X10688506Y14149131D01*
X10670041Y14148728D01*
X10650587Y14149534D01*
X10637691Y14152208D01*
X10630693Y14156495D01*
X10628642Y14162246D01*
X10633405Y14174739D01*
X10643883Y14196868D01*
X10654397Y14230280D01*
X10657844Y14250953D01*
X10659123Y14277431D01*
X10657852Y14300597D01*
X10654251Y14320662D01*
X10647720Y14338966D01*
X10638534Y14353672D01*
X10626407Y14365610D01*
X10611423Y14374555D01*
X10594090Y14379988D01*
X10572258Y14381955D01*
X10553391Y14380349D01*
X10537417Y14375800D01*
X10523318Y14367930D01*
X10511515Y14356529D01*
X10502478Y14341994D01*
X10495615Y14322494D01*
X10491748Y14300455D01*
X10490303Y14271716D01*
X10492794Y14228448D01*
X10495249Y14191775D01*
X10493595Y14181121D01*
X10489314Y14174776D01*
X10481867Y14171186D01*
X10467368Y14169647D01*
X10237292Y14169647D01*
X10222384Y14171469D01*
X10213771Y14175985D01*
X10208568Y14183746D01*
X10206590Y14196282D01*
X10206590Y14447498D01*
X10209045Y14454459D01*
X10216775Y14459991D01*
X10230807Y14463288D01*
X10251690Y14464314D01*
X10274386Y14463018D01*
X10287080Y14459991D01*
X10295574Y14454396D01*
X10298035Y14447498D01*
X10298035Y14258967D01*
X10413036Y14258967D01*
X10411021Y14287470D01*
X10410582Y14317182D01*
X10413220Y14358849D01*
X10420584Y14393605D01*
X10433221Y14424889D01*
X10450003Y14449769D01*
X10471615Y14469712D01*
X10498180Y14484391D01*
X10528441Y14493170D01*
X10564968Y14496297D01*
G37*
G36*
X5877169Y1530282D02*
G01*
X5876546Y1513026D01*
X5874677Y1500863D01*
X5871417Y1492143D01*
X5864859Y1483790D01*
X5847457Y1471663D01*
X5815913Y1457449D01*
X5773268Y1446164D01*
X5748770Y1442796D01*
X5721427Y1441622D01*
X5685387Y1443588D01*
X5652739Y1449272D01*
X5623058Y1458438D01*
X5595086Y1471627D01*
X5570333Y1488351D01*
X5548467Y1508740D01*
X5529962Y1532315D01*
X5514220Y1559987D01*
X5501316Y1592307D01*
X5492504Y1626103D01*
X5486911Y1664763D01*
X5484939Y1708958D01*
X5487083Y1753901D01*
X5493213Y1793818D01*
X5502964Y1829308D01*
X5516976Y1863270D01*
X5533804Y1892523D01*
X5553376Y1917602D01*
X5576388Y1939488D01*
X5602178Y1957494D01*
X5631045Y1971787D01*
X5661756Y1981932D01*
X5694906Y1988154D01*
X5730879Y1990289D01*
X5773488Y1986515D01*
X5811406Y1976660D01*
X5842767Y1962665D01*
X5862221Y1949036D01*
X5869805Y1939694D01*
X5873065Y1930205D01*
X5874934Y1916613D01*
X5875557Y1897269D01*
X5874714Y1876240D01*
X5871856Y1862244D01*
X5866947Y1854404D01*
X5860389Y1851950D01*
X5854102Y1853456D01*
X5844819Y1859204D01*
X5820419Y1875397D01*
X5784772Y1891590D01*
X5762933Y1896902D01*
X5735386Y1898844D01*
X5705076Y1895513D01*
X5679002Y1885912D01*
X5656194Y1870374D01*
X5636760Y1849019D01*
X5621741Y1823137D01*
X5610346Y1790987D01*
X5603698Y1755742D01*
X5601333Y1714307D01*
X5603918Y1669235D01*
X5610968Y1633303D01*
X5623038Y1601300D01*
X5638409Y1576920D01*
X5658184Y1557533D01*
X5681457Y1543910D01*
X5707762Y1535873D01*
X5738243Y1533066D01*
X5765847Y1534842D01*
X5787812Y1539697D01*
X5823680Y1554352D01*
X5848263Y1568823D01*
X5857590Y1573975D01*
X5863247Y1575271D01*
X5869805Y1573623D01*
X5873871Y1567138D01*
X5876326Y1553582D01*
X5877169Y1530282D01*
G37*
G36*
X6288706Y1494598D02*
G01*
X6287680Y1474411D01*
X6284602Y1460746D01*
X6279253Y1453235D01*
X6271890Y1451000D01*
X5966965Y1451000D01*
X5951394Y1452613D01*
X5940733Y1458951D01*
X5934798Y1472616D01*
X5932966Y1495880D01*
X5934175Y1518924D01*
X5938681Y1536034D01*
X5947108Y1550725D01*
X5960443Y1566442D01*
X6052218Y1665360D01*
X6077930Y1693775D01*
X6096474Y1717494D01*
X6122706Y1760432D01*
X6130883Y1779714D01*
X6135639Y1796226D01*
X6139119Y1827330D01*
X6134796Y1853268D01*
X6129441Y1864782D01*
X6122083Y1874628D01*
X6112742Y1882700D01*
X6100981Y1888952D01*
X6087603Y1892777D01*
X6071085Y1894155D01*
X6047718Y1892542D01*
X6028257Y1888036D01*
X5995468Y1874408D01*
X5971874Y1860596D01*
X5962749Y1855567D01*
X5957146Y1854294D01*
X5950771Y1856749D01*
X5946448Y1864992D01*
X5943810Y1880453D01*
X5942785Y1904156D01*
X5943407Y1920020D01*
X5945239Y1931121D01*
X5948536Y1939364D01*
X5955681Y1947827D01*
X5974548Y1959990D01*
X6008364Y1974059D01*
X6052621Y1985599D01*
X6077152Y1989099D01*
X6103069Y1990289D01*
X6142954Y1987516D01*
X6175389Y1979847D01*
X6204257Y1967053D01*
X6226827Y1950758D01*
X6244737Y1930378D01*
X6257382Y1906538D01*
X6264867Y1880223D01*
X6267420Y1851473D01*
X6266179Y1825813D01*
X6262474Y1800659D01*
X6255235Y1775582D01*
X6241994Y1746766D01*
X6224156Y1717690D01*
X6198140Y1682872D01*
X6167030Y1646962D01*
X6123146Y1601540D01*
X6061230Y1537756D01*
X6270278Y1537756D01*
X6277825Y1535301D01*
X6283796Y1527790D01*
X6287460Y1514345D01*
X6288706Y1494598D01*
G37*
G36*
X3857218Y14476885D02*
G01*
X3874474Y14476262D01*
X3886637Y14474393D01*
X3895357Y14471133D01*
X3903710Y14464575D01*
X3915837Y14447173D01*
X3930051Y14415629D01*
X3941336Y14372984D01*
X3944704Y14348486D01*
X3945878Y14321143D01*
X3943912Y14285103D01*
X3938228Y14252455D01*
X3929062Y14222774D01*
X3915873Y14194802D01*
X3899149Y14170049D01*
X3878760Y14148183D01*
X3855185Y14129678D01*
X3827513Y14113936D01*
X3795193Y14101032D01*
X3761397Y14092220D01*
X3722737Y14086627D01*
X3678542Y14084655D01*
X3633599Y14086799D01*
X3593682Y14092929D01*
X3558192Y14102680D01*
X3524230Y14116692D01*
X3494977Y14133520D01*
X3469898Y14153092D01*
X3448012Y14176104D01*
X3430006Y14201894D01*
X3415713Y14230761D01*
X3405568Y14261472D01*
X3399346Y14294622D01*
X3397211Y14330595D01*
X3400985Y14373204D01*
X3410840Y14411122D01*
X3424835Y14442483D01*
X3438464Y14461937D01*
X3447806Y14469521D01*
X3457295Y14472781D01*
X3470887Y14474650D01*
X3490231Y14475273D01*
X3511260Y14474430D01*
X3525256Y14471572D01*
X3533096Y14466663D01*
X3535550Y14460105D01*
X3534044Y14453818D01*
X3528296Y14444535D01*
X3512103Y14420135D01*
X3495910Y14384488D01*
X3490598Y14362649D01*
X3488656Y14335102D01*
X3491987Y14304792D01*
X3501588Y14278718D01*
X3517126Y14255910D01*
X3538481Y14236476D01*
X3564363Y14221457D01*
X3596513Y14210062D01*
X3631758Y14203414D01*
X3673193Y14201049D01*
X3718265Y14203634D01*
X3754197Y14210684D01*
X3786200Y14222754D01*
X3810580Y14238125D01*
X3829967Y14257900D01*
X3843590Y14281173D01*
X3851627Y14307478D01*
X3854434Y14337959D01*
X3852658Y14365563D01*
X3847803Y14387528D01*
X3833148Y14423396D01*
X3818677Y14447979D01*
X3813525Y14457306D01*
X3812229Y14462963D01*
X3813877Y14469521D01*
X3820362Y14473587D01*
X3833918Y14476042D01*
X3857218Y14476885D01*
G37*
G36*
X3896090Y14883512D02*
G01*
X3915287Y14882267D01*
X3927817Y14878786D01*
X3934484Y14873657D01*
X3936500Y14867099D01*
X3936500Y14574447D01*
X3934484Y14568293D01*
X3927817Y14563163D01*
X3915287Y14559683D01*
X3896090Y14558474D01*
X3876489Y14559500D01*
X3863740Y14562760D01*
X3856669Y14567890D01*
X3854434Y14574447D01*
X3854434Y14673256D01*
X3507414Y14673256D01*
X3554308Y14588003D01*
X3559840Y14572616D01*
X3559705Y14567166D01*
X3557386Y14563200D01*
X3545332Y14558474D01*
X3521226Y14557265D01*
X3505069Y14557668D01*
X3494261Y14559720D01*
X3486897Y14564226D01*
X3480742Y14572029D01*
X3407213Y14685969D01*
X3404575Y14691098D01*
X3402927Y14699085D01*
X3402121Y14711981D01*
X3401901Y14732680D01*
X3402524Y14757886D01*
X3404575Y14772431D01*
X3408495Y14778989D01*
X3414650Y14780637D01*
X3854434Y14780637D01*
X3854434Y14867136D01*
X3856669Y14873877D01*
X3863740Y14879189D01*
X3876489Y14882487D01*
X3896090Y14883512D01*
G37*
G36*
X3896090Y15309081D02*
G01*
X3915287Y15307835D01*
X3927817Y15304355D01*
X3934484Y15299226D01*
X3936500Y15292668D01*
X3936500Y15000016D01*
X3934484Y14993861D01*
X3927817Y14988732D01*
X3915287Y14985252D01*
X3896090Y14984043D01*
X3876489Y14985069D01*
X3863740Y14988329D01*
X3856669Y14993458D01*
X3854434Y15000016D01*
X3854434Y15098825D01*
X3507414Y15098825D01*
X3554308Y15013572D01*
X3559840Y14998184D01*
X3559705Y14992735D01*
X3557386Y14988769D01*
X3545332Y14984043D01*
X3521226Y14982834D01*
X3505069Y14983237D01*
X3494261Y14985288D01*
X3486897Y14989795D01*
X3480742Y14997598D01*
X3407213Y15111538D01*
X3404575Y15116667D01*
X3402927Y15124653D01*
X3402121Y15137549D01*
X3401901Y15158249D01*
X3402524Y15183455D01*
X3404575Y15197999D01*
X3408495Y15204557D01*
X3414650Y15206206D01*
X3854434Y15206206D01*
X3854434Y15292705D01*
X3856669Y15299446D01*
X3863740Y15304758D01*
X3876489Y15308055D01*
X3896090Y15309081D01*
G37*
G36*
X2764384Y10030282D02*
G01*
X2763761Y10013026D01*
X2761892Y10000863D01*
X2758632Y9992143D01*
X2752074Y9983790D01*
X2734672Y9971663D01*
X2703128Y9957449D01*
X2660483Y9946164D01*
X2635985Y9942796D01*
X2608642Y9941622D01*
X2572602Y9943588D01*
X2539954Y9949272D01*
X2510273Y9958438D01*
X2482301Y9971627D01*
X2457548Y9988351D01*
X2435682Y10008740D01*
X2417177Y10032315D01*
X2401435Y10059987D01*
X2388531Y10092307D01*
X2379719Y10126103D01*
X2374126Y10164763D01*
X2372154Y10208958D01*
X2374298Y10253901D01*
X2380428Y10293818D01*
X2390179Y10329308D01*
X2404191Y10363270D01*
X2421019Y10392523D01*
X2440591Y10417602D01*
X2463603Y10439488D01*
X2489393Y10457494D01*
X2518260Y10471787D01*
X2548971Y10481932D01*
X2582121Y10488154D01*
X2618094Y10490289D01*
X2660703Y10486515D01*
X2698621Y10476660D01*
X2729982Y10462665D01*
X2749436Y10449036D01*
X2757020Y10439694D01*
X2760280Y10430205D01*
X2762149Y10416613D01*
X2762772Y10397269D01*
X2761929Y10376240D01*
X2759071Y10362244D01*
X2754162Y10354404D01*
X2747604Y10351950D01*
X2741317Y10353456D01*
X2732034Y10359204D01*
X2707634Y10375397D01*
X2671987Y10391590D01*
X2650148Y10396902D01*
X2622601Y10398844D01*
X2592291Y10395513D01*
X2566217Y10385912D01*
X2543409Y10370374D01*
X2523975Y10349019D01*
X2508956Y10323137D01*
X2497561Y10290987D01*
X2490913Y10255742D01*
X2488548Y10214307D01*
X2491133Y10169235D01*
X2498183Y10133303D01*
X2510253Y10101300D01*
X2525624Y10076920D01*
X2545399Y10057533D01*
X2568672Y10043910D01*
X2594977Y10035873D01*
X2625458Y10033066D01*
X2653062Y10034842D01*
X2675027Y10039697D01*
X2710895Y10054352D01*
X2735478Y10068823D01*
X2744805Y10073975D01*
X2750462Y10075271D01*
X2757020Y10073623D01*
X2761086Y10067138D01*
X2763541Y10053582D01*
X2764384Y10030282D01*
G37*
G36*
X3171011Y9991410D02*
G01*
X3169766Y9972213D01*
X3166285Y9959683D01*
X3161156Y9953016D01*
X3154598Y9951000D01*
X2861946Y9951000D01*
X2855792Y9953016D01*
X2850662Y9959683D01*
X2847182Y9972213D01*
X2845973Y9991410D01*
X2846999Y10011011D01*
X2850259Y10023760D01*
X2855389Y10030831D01*
X2861946Y10033066D01*
X2960755Y10033066D01*
X2960755Y10380086D01*
X2875502Y10333192D01*
X2860115Y10327660D01*
X2854665Y10327795D01*
X2850699Y10330114D01*
X2845973Y10342168D01*
X2844764Y10366274D01*
X2845167Y10382431D01*
X2847219Y10393239D01*
X2851725Y10400603D01*
X2859528Y10406758D01*
X2973468Y10480287D01*
X2978597Y10482925D01*
X2986584Y10484573D01*
X2999480Y10485379D01*
X3020179Y10485599D01*
X3045385Y10484976D01*
X3059930Y10482925D01*
X3066488Y10479005D01*
X3068136Y10472850D01*
X3068136Y10033066D01*
X3154635Y10033066D01*
X3161376Y10030831D01*
X3166688Y10023760D01*
X3169986Y10011011D01*
X3171011Y9991410D01*
G37*
G36*
X3599035Y10107108D02*
G01*
X3595101Y10068781D01*
X3583867Y10036290D01*
X3565714Y10007895D01*
X3541625Y9984450D01*
X3512470Y9966247D01*
X3476889Y9952539D01*
X3438111Y9944439D01*
X3394530Y9941622D01*
X3343679Y9945688D01*
X3301657Y9955690D01*
X3271542Y9968036D01*
X3255971Y9977708D01*
X3250439Y9985072D01*
X3247179Y9994671D01*
X3245127Y10008556D01*
X3244504Y10028816D01*
X3245513Y10046893D01*
X3247765Y10055964D01*
X3252041Y10061775D01*
X3257620Y10063548D01*
X3271762Y10057942D01*
X3297370Y10045962D01*
X3333824Y10033945D01*
X3355540Y10029845D01*
X3381414Y10028377D01*
X3403189Y10029782D01*
X3421165Y10033689D01*
X3437382Y10040253D01*
X3450474Y10048673D01*
X3461063Y10059411D01*
X3468499Y10072084D01*
X3472908Y10086404D01*
X3474434Y10102675D01*
X3472587Y10120456D01*
X3467254Y10135905D01*
X3458419Y10149513D01*
X3445931Y10161147D01*
X3430508Y10170195D01*
X3410284Y10177377D01*
X3387769Y10181588D01*
X3359689Y10183129D01*
X3313784Y10183129D01*
X3304771Y10184558D01*
X3298616Y10190566D01*
X3295136Y10203169D01*
X3294110Y10224015D01*
X3295136Y10243616D01*
X3298396Y10255413D01*
X3304148Y10261201D01*
X3312538Y10262850D01*
X3358846Y10262850D01*
X3381867Y10264271D01*
X3401052Y10268235D01*
X3418381Y10274982D01*
X3432009Y10283659D01*
X3443046Y10294777D01*
X3451060Y10307913D01*
X3455940Y10322731D01*
X3457618Y10339420D01*
X3453112Y10364443D01*
X3447503Y10375503D01*
X3439776Y10384886D01*
X3429958Y10392437D01*
X3417025Y10398514D01*
X3402378Y10402199D01*
X3384235Y10403534D01*
X3363385Y10401960D01*
X3344082Y10397342D01*
X3310266Y10383787D01*
X3284841Y10370048D01*
X3269490Y10363673D01*
X3263738Y10365102D01*
X3259635Y10370671D01*
X3257180Y10382651D01*
X3256374Y10402911D01*
X3256777Y10420057D01*
X3258426Y10431414D01*
X3261503Y10439254D01*
X3267438Y10446508D01*
X3284255Y10458085D01*
X3316202Y10472960D01*
X3360678Y10485233D01*
X3386481Y10488980D01*
X3415413Y10490289D01*
X3452696Y10487918D01*
X3483667Y10481313D01*
X3511521Y10470123D01*
X3533639Y10455484D01*
X3551448Y10436694D01*
X3564377Y10413975D01*
X3572140Y10388278D01*
X3574855Y10358434D01*
X3573277Y10334930D01*
X3568700Y10313628D01*
X3561038Y10293848D01*
X3550675Y10276625D01*
X3537402Y10261661D01*
X3520963Y10248965D01*
X3502095Y10239128D01*
X3479783Y10231855D01*
X3479783Y10230610D01*
X3506624Y10225293D01*
X3529792Y10216395D01*
X3550433Y10203961D01*
X3567271Y10189027D01*
X3580865Y10171471D01*
X3590828Y10151768D01*
X3596949Y10130399D01*
X3599035Y10107108D01*
G37*
G36*
X5402176Y3036140D02*
G01*
X5401150Y3015221D01*
X5397853Y3001738D01*
X5392724Y2994301D01*
X5386202Y2991810D01*
X5212802Y2991810D01*
X5212802Y2851126D01*
X5375541Y2851126D01*
X5382062Y2849074D01*
X5387192Y2842077D01*
X5390489Y2828924D01*
X5391515Y2808371D01*
X5390489Y2787782D01*
X5387192Y2774226D01*
X5382062Y2766606D01*
X5375541Y2764371D01*
X5212802Y2764371D01*
X5212802Y2566718D01*
X5210348Y2558877D01*
X5201518Y2553345D01*
X5184922Y2549901D01*
X5158690Y2548656D01*
X5132642Y2549901D01*
X5116045Y2553345D01*
X5107216Y2558877D01*
X5104578Y2566681D01*
X5104578Y3046911D01*
X5107126Y3063105D01*
X5113774Y3072923D01*
X5123935Y3078859D01*
X5136562Y3080910D01*
X5386202Y3080910D01*
X5392724Y3078638D01*
X5397853Y3071164D01*
X5401150Y3057279D01*
X5402176Y3036140D01*
G37*
G36*
X5701758Y3078671D02*
G01*
X5737472Y3072703D01*
X5769340Y3062113D01*
X5794442Y3047937D01*
X5814925Y3029107D01*
X5829906Y3005915D01*
X5838982Y2979014D01*
X5842216Y2946088D01*
X5840954Y2927197D01*
X5837270Y2909818D01*
X5831190Y2893492D01*
X5822945Y2878897D01*
X5812496Y2865840D01*
X5799791Y2854313D01*
X5785230Y2844760D01*
X5768430Y2837094D01*
X5790236Y2831411D01*
X5810013Y2822770D01*
X5827878Y2811044D01*
X5843242Y2796355D01*
X5855787Y2778991D01*
X5865553Y2758509D01*
X5871630Y2735953D01*
X5873760Y2709819D01*
X5871733Y2682410D01*
X5865956Y2658638D01*
X5856593Y2636865D01*
X5844451Y2618118D01*
X5829435Y2601798D01*
X5811661Y2587820D01*
X5791793Y2576342D01*
X5769639Y2566937D01*
X5746163Y2559897D01*
X5720656Y2554884D01*
X5693901Y2552022D01*
X5662661Y2551000D01*
X5521684Y2551000D01*
X5509057Y2553051D01*
X5498896Y2558987D01*
X5492248Y2568805D01*
X5489700Y2584999D01*
X5489700Y2633066D01*
X5595470Y2633066D01*
X5673359Y2633066D01*
X5694940Y2634346D01*
X5711241Y2637756D01*
X5725762Y2643651D01*
X5737875Y2651604D01*
X5747886Y2661870D01*
X5755498Y2674465D01*
X5760219Y2688803D01*
X5761872Y2705643D01*
X5760274Y2723342D01*
X5755717Y2738469D01*
X5748109Y2751801D01*
X5737692Y2762722D01*
X5724596Y2771193D01*
X5707357Y2777817D01*
X5687515Y2781645D01*
X5659400Y2783129D01*
X5595470Y2783129D01*
X5595470Y2633066D01*
X5489700Y2633066D01*
X5489700Y2862850D01*
X5595470Y2862850D01*
X5655700Y2862850D01*
X5677803Y2864401D01*
X5692996Y2868382D01*
X5705933Y2875088D01*
X5716150Y2883623D01*
X5724180Y2894113D01*
X5729889Y2906301D01*
X5734395Y2933668D01*
X5733118Y2949179D01*
X5729486Y2962464D01*
X5723290Y2974232D01*
X5714721Y2983677D01*
X5703904Y2990997D01*
X5689918Y2996646D01*
X5673692Y2999908D01*
X5649985Y3001189D01*
X5595470Y3001189D01*
X5595470Y2862850D01*
X5489700Y2862850D01*
X5489700Y3046911D01*
X5492248Y3063105D01*
X5498896Y3072923D01*
X5509057Y3078859D01*
X5521684Y3080910D01*
X5654894Y3080910D01*
X5701758Y3078671D01*
G37*
G36*
X6289547Y2591410D02*
G01*
X6288301Y2572213D01*
X6284821Y2559683D01*
X6279692Y2553016D01*
X6273134Y2551000D01*
X5980482Y2551000D01*
X5974327Y2553016D01*
X5969198Y2559683D01*
X5965717Y2572213D01*
X5964508Y2591410D01*
X5965534Y2611011D01*
X5968795Y2623760D01*
X5973924Y2630831D01*
X5980482Y2633066D01*
X6079290Y2633066D01*
X6079290Y2980086D01*
X5994037Y2933192D01*
X5978650Y2927660D01*
X5973201Y2927795D01*
X5969234Y2930114D01*
X5964508Y2942168D01*
X5963299Y2966274D01*
X5963702Y2982431D01*
X5965754Y2993239D01*
X5970260Y3000603D01*
X5978064Y3006758D01*
X6092003Y3080287D01*
X6097132Y3082925D01*
X6105119Y3084573D01*
X6118015Y3085379D01*
X6138715Y3085599D01*
X6163920Y3084976D01*
X6178465Y3082925D01*
X6185023Y3079005D01*
X6186672Y3072850D01*
X6186672Y2633066D01*
X6273170Y2633066D01*
X6279911Y2630831D01*
X6285224Y2623760D01*
X6288521Y2611011D01*
X6289547Y2591410D01*
G37*
G36*
X12030015Y13687803D02*
G01*
X12035144Y13680036D01*
X12038002Y13661974D01*
X12038844Y13629624D01*
X12038002Y13602147D01*
X12034924Y13585953D01*
X12029172Y13577564D01*
X12020709Y13573460D01*
X11901641Y13525906D01*
X11865810Y13509090D01*
X11851125Y13500227D01*
X11839652Y13490882D01*
X11830404Y13480038D01*
X11823788Y13467728D01*
X11819843Y13453959D01*
X11818439Y13437393D01*
X11818439Y13403797D01*
X12021552Y13403797D01*
X12028952Y13401123D01*
X12034338Y13392330D01*
X12037599Y13375917D01*
X12038844Y13349685D01*
X12037599Y13323637D01*
X12034338Y13307040D01*
X12029026Y13298431D01*
X12021662Y13295976D01*
X11540589Y13295976D01*
X11524395Y13298524D01*
X11514577Y13305172D01*
X11508641Y13315333D01*
X11506590Y13327960D01*
X11506590Y13452157D01*
X11588656Y13452157D01*
X11588656Y13403797D01*
X11738719Y13403797D01*
X11738719Y13458715D01*
X11737258Y13480865D01*
X11733223Y13498869D01*
X11726405Y13514959D01*
X11717689Y13527555D01*
X11706665Y13537629D01*
X11693766Y13544774D01*
X11679282Y13549041D01*
X11662661Y13550526D01*
X11638008Y13547402D01*
X11618515Y13538619D01*
X11603618Y13523617D01*
X11593162Y13499711D01*
X11589901Y13481063D01*
X11588656Y13452157D01*
X11506590Y13452157D01*
X11506590Y13465273D01*
X11507433Y13499675D01*
X11509448Y13524294D01*
X11515699Y13555183D01*
X11524945Y13581850D01*
X11537842Y13605813D01*
X11553741Y13625301D01*
X11573023Y13640978D01*
X11595763Y13652558D01*
X11621146Y13659535D01*
X11651414Y13662011D01*
X11677215Y13660253D01*
X11699774Y13655233D01*
X11720572Y13646830D01*
X11738755Y13635376D01*
X11754626Y13620853D01*
X11768504Y13602989D01*
X11779784Y13582694D01*
X11788911Y13559136D01*
X11802906Y13581447D01*
X11822836Y13601121D01*
X11849544Y13618560D01*
X11883469Y13634533D01*
X11988286Y13679193D01*
X12011110Y13687400D01*
X12022394Y13689451D01*
X12030015Y13687803D01*
G37*
G36*
X11996090Y14097581D02*
G01*
X12015287Y14096336D01*
X12027817Y14092855D01*
X12034484Y14087726D01*
X12036500Y14081168D01*
X12036500Y13788516D01*
X12034484Y13782361D01*
X12027817Y13777232D01*
X12015287Y13773752D01*
X11996090Y13772543D01*
X11976489Y13773569D01*
X11963740Y13776829D01*
X11956669Y13781958D01*
X11954434Y13788516D01*
X11954434Y13887325D01*
X11607414Y13887325D01*
X11654308Y13802072D01*
X11659840Y13786684D01*
X11659705Y13781235D01*
X11657386Y13777269D01*
X11645332Y13772543D01*
X11621226Y13771334D01*
X11605069Y13771737D01*
X11594261Y13773788D01*
X11586897Y13778295D01*
X11580742Y13786098D01*
X11507213Y13900038D01*
X11504575Y13905167D01*
X11502927Y13913153D01*
X11502121Y13926049D01*
X11501901Y13946749D01*
X11502524Y13971955D01*
X11504575Y13986500D01*
X11508495Y13993057D01*
X11514650Y13994706D01*
X11954434Y13994706D01*
X11954434Y14081205D01*
X11956669Y14087946D01*
X11963740Y14093258D01*
X11976489Y14096555D01*
X11996090Y14097581D01*
G37*
G36*
X11831342Y14536023D02*
G01*
X11884129Y14528462D01*
X11932612Y14514589D01*
X11971360Y14495086D01*
X11993637Y14477982D01*
X12011960Y14457980D01*
X12026644Y14434819D01*
X12036980Y14409402D01*
X12043545Y14379433D01*
X12045878Y14344034D01*
X12043578Y14308037D01*
X12037187Y14278339D01*
X12027267Y14253872D01*
X12013011Y14231732D01*
X11995238Y14212973D01*
X11973631Y14197306D01*
X11935970Y14179967D01*
X11888049Y14167996D01*
X11835796Y14161828D01*
X11773596Y14159607D01*
X11712092Y14162344D01*
X11659181Y14170048D01*
X11610505Y14184130D01*
X11571766Y14203680D01*
X11549467Y14220786D01*
X11531145Y14240777D01*
X11516482Y14263911D01*
X11506112Y14289350D01*
X11499542Y14319197D01*
X11497513Y14349750D01*
X11581622Y14349750D01*
X11584692Y14327136D01*
X11593272Y14309779D01*
X11607294Y14296053D01*
X11628260Y14284793D01*
X11653153Y14277232D01*
X11686329Y14271861D01*
X11767295Y14268197D01*
X11821317Y14269444D01*
X11860755Y14272703D01*
X11895699Y14278911D01*
X11919666Y14286845D01*
X11938879Y14298364D01*
X11950331Y14311648D01*
X11956815Y14327904D01*
X11959123Y14348138D01*
X11957791Y14363512D01*
X11954031Y14376384D01*
X11947659Y14387882D01*
X11938680Y14397927D01*
X11927443Y14406193D01*
X11912925Y14413277D01*
X11876911Y14423316D01*
X11830713Y14428665D01*
X11773853Y14430093D01*
X11707394Y14428042D01*
X11657312Y14421667D01*
X11621299Y14411006D01*
X11607693Y14403761D01*
X11597778Y14395655D01*
X11590234Y14385973D01*
X11585322Y14375175D01*
X11581622Y14349750D01*
X11497513Y14349750D01*
X11497211Y14354293D01*
X11499512Y14390286D01*
X11505913Y14420051D01*
X11515859Y14444638D01*
X11530110Y14466913D01*
X11547883Y14485742D01*
X11569495Y14501425D01*
X11607138Y14518729D01*
X11655078Y14530514D01*
X11707294Y14536547D01*
X11769493Y14538720D01*
X11831342Y14536023D01*
G37*
G36*
X8577169Y14130282D02*
G01*
X8576546Y14113026D01*
X8574677Y14100863D01*
X8571417Y14092143D01*
X8564859Y14083790D01*
X8547457Y14071663D01*
X8515913Y14057449D01*
X8473268Y14046164D01*
X8448770Y14042796D01*
X8421427Y14041622D01*
X8385387Y14043588D01*
X8352739Y14049272D01*
X8323058Y14058438D01*
X8295086Y14071627D01*
X8270333Y14088351D01*
X8248467Y14108740D01*
X8229962Y14132315D01*
X8214220Y14159987D01*
X8201316Y14192307D01*
X8192504Y14226103D01*
X8186911Y14264763D01*
X8184939Y14308958D01*
X8187083Y14353901D01*
X8193213Y14393818D01*
X8202964Y14429308D01*
X8216976Y14463270D01*
X8233804Y14492523D01*
X8253376Y14517602D01*
X8276388Y14539488D01*
X8302178Y14557494D01*
X8331045Y14571787D01*
X8361756Y14581932D01*
X8394906Y14588154D01*
X8430879Y14590289D01*
X8473488Y14586515D01*
X8511406Y14576660D01*
X8542767Y14562665D01*
X8562221Y14549036D01*
X8569805Y14539694D01*
X8573065Y14530205D01*
X8574934Y14516613D01*
X8575557Y14497269D01*
X8574714Y14476240D01*
X8571856Y14462244D01*
X8566947Y14454404D01*
X8560389Y14451950D01*
X8554102Y14453456D01*
X8544819Y14459204D01*
X8520419Y14475397D01*
X8484772Y14491590D01*
X8462933Y14496902D01*
X8435386Y14498844D01*
X8405076Y14495513D01*
X8379002Y14485912D01*
X8356194Y14470374D01*
X8336760Y14449019D01*
X8321741Y14423137D01*
X8310346Y14390987D01*
X8303698Y14355742D01*
X8301333Y14314307D01*
X8303918Y14269235D01*
X8310968Y14233303D01*
X8323038Y14201300D01*
X8338409Y14176920D01*
X8358184Y14157533D01*
X8381457Y14143910D01*
X8407762Y14135873D01*
X8438243Y14133066D01*
X8465847Y14134842D01*
X8487812Y14139697D01*
X8523680Y14154352D01*
X8548263Y14168823D01*
X8557590Y14173975D01*
X8563247Y14175271D01*
X8569805Y14173623D01*
X8573871Y14167138D01*
X8576326Y14153582D01*
X8577169Y14130282D01*
G37*
G36*
X8889714Y14588457D02*
G01*
X8919023Y14583767D01*
X8941994Y14577210D01*
X8954487Y14570871D01*
X8959213Y14564973D01*
X8961888Y14557829D01*
X8963317Y14548230D01*
X8963720Y14534345D01*
X8963097Y14513316D01*
X8960825Y14500236D01*
X8956319Y14493459D01*
X8949358Y14491407D01*
X8936645Y14494081D01*
X8917814Y14500017D01*
X8891766Y14505768D01*
X8857144Y14508223D01*
X8825652Y14504926D01*
X8800981Y14495803D01*
X8780159Y14481121D01*
X8763685Y14462025D01*
X8751455Y14439351D01*
X8742802Y14412529D01*
X8737814Y14383881D01*
X8735841Y14353214D01*
X8756541Y14364682D01*
X8781930Y14374500D01*
X8811642Y14381278D01*
X8845677Y14383952D01*
X8884149Y14381002D01*
X8914517Y14372925D01*
X8940950Y14359315D01*
X8961448Y14341454D01*
X8977118Y14319200D01*
X8988303Y14292032D01*
X8994672Y14262037D01*
X8996912Y14227478D01*
X8993760Y14188500D01*
X8984602Y14153363D01*
X8969332Y14121401D01*
X8948552Y14094525D01*
X8922337Y14072669D01*
X8889934Y14055690D01*
X8853395Y14045310D01*
X8809590Y14041622D01*
X8774042Y14043867D01*
X8745257Y14050048D01*
X8719308Y14060452D01*
X8697703Y14074191D01*
X8679492Y14091637D01*
X8664913Y14112513D01*
X8653668Y14136088D01*
X8644653Y14163328D01*
X8638328Y14192327D01*
X8634175Y14224767D01*
X8632158Y14274519D01*
X8737893Y14274519D01*
X8739247Y14232572D01*
X8742802Y14201540D01*
X8749289Y14174101D01*
X8757347Y14155158D01*
X8768510Y14140185D01*
X8781527Y14130831D01*
X8796914Y14125550D01*
X8815342Y14123687D01*
X8833402Y14125498D01*
X8848352Y14130611D01*
X8861309Y14138999D01*
X8871909Y14150249D01*
X8880128Y14163795D01*
X8886270Y14179887D01*
X8889913Y14197329D01*
X8891180Y14216890D01*
X8887479Y14253453D01*
X8882549Y14268262D01*
X8875609Y14280015D01*
X8866169Y14289451D01*
X8853884Y14296355D01*
X8839512Y14300403D01*
X8821094Y14301887D01*
X8798563Y14299835D01*
X8776837Y14294120D01*
X8756321Y14285327D01*
X8737893Y14274519D01*
X8632158Y14274519D01*
X8631317Y14295256D01*
X8634395Y14360395D01*
X8638906Y14394140D01*
X8646265Y14427183D01*
X8656890Y14459228D01*
X8671068Y14489685D01*
X8689355Y14517554D01*
X8712247Y14541709D01*
X8739671Y14561478D01*
X8773320Y14577173D01*
X8811135Y14586792D01*
X8858390Y14590289D01*
X8889714Y14588457D01*
G37*
G36*
X6557218Y5389670D02*
G01*
X6574474Y5389047D01*
X6586637Y5387178D01*
X6595357Y5383918D01*
X6603710Y5377360D01*
X6615837Y5359958D01*
X6630051Y5328414D01*
X6641336Y5285769D01*
X6644704Y5261271D01*
X6645878Y5233928D01*
X6643912Y5197888D01*
X6638228Y5165240D01*
X6629062Y5135559D01*
X6615873Y5107587D01*
X6599149Y5082834D01*
X6578760Y5060968D01*
X6555185Y5042463D01*
X6527513Y5026721D01*
X6495193Y5013817D01*
X6461397Y5005005D01*
X6422737Y4999412D01*
X6378542Y4997440D01*
X6333599Y4999584D01*
X6293682Y5005714D01*
X6258192Y5015465D01*
X6224230Y5029477D01*
X6194977Y5046305D01*
X6169898Y5065877D01*
X6148012Y5088889D01*
X6130006Y5114679D01*
X6115713Y5143546D01*
X6105568Y5174257D01*
X6099346Y5207407D01*
X6097211Y5243380D01*
X6100985Y5285989D01*
X6110840Y5323907D01*
X6124835Y5355268D01*
X6138464Y5374722D01*
X6147806Y5382306D01*
X6157295Y5385566D01*
X6170887Y5387435D01*
X6190231Y5388058D01*
X6211260Y5387215D01*
X6225256Y5384357D01*
X6233096Y5379448D01*
X6235550Y5372890D01*
X6234044Y5366603D01*
X6228296Y5357320D01*
X6212103Y5332920D01*
X6195910Y5297273D01*
X6190598Y5275434D01*
X6188656Y5247887D01*
X6191987Y5217577D01*
X6201588Y5191503D01*
X6217126Y5168695D01*
X6238481Y5149261D01*
X6264363Y5134242D01*
X6296513Y5122847D01*
X6331758Y5116199D01*
X6373193Y5113834D01*
X6418265Y5116419D01*
X6454197Y5123469D01*
X6486200Y5135539D01*
X6510580Y5150910D01*
X6529967Y5170685D01*
X6543590Y5193958D01*
X6551627Y5220263D01*
X6554434Y5250744D01*
X6552658Y5278348D01*
X6547803Y5300313D01*
X6533148Y5336181D01*
X6518677Y5360764D01*
X6513525Y5370091D01*
X6512229Y5375748D01*
X6513877Y5382306D01*
X6520362Y5386372D01*
X6533918Y5388827D01*
X6557218Y5389670D01*
G37*
G36*
X6596090Y5796297D02*
G01*
X6615287Y5795052D01*
X6627817Y5791571D01*
X6634484Y5786442D01*
X6636500Y5779884D01*
X6636500Y5487232D01*
X6634484Y5481078D01*
X6627817Y5475948D01*
X6615287Y5472468D01*
X6596090Y5471259D01*
X6576489Y5472285D01*
X6563740Y5475545D01*
X6556669Y5480675D01*
X6554434Y5487232D01*
X6554434Y5586041D01*
X6207414Y5586041D01*
X6254308Y5500788D01*
X6259840Y5485401D01*
X6259705Y5479951D01*
X6257386Y5475985D01*
X6245332Y5471259D01*
X6221226Y5470050D01*
X6205069Y5470453D01*
X6194261Y5472505D01*
X6186897Y5477011D01*
X6180742Y5484814D01*
X6107213Y5598754D01*
X6104575Y5603883D01*
X6102927Y5611870D01*
X6102121Y5624766D01*
X6101901Y5645465D01*
X6102524Y5670671D01*
X6104575Y5685216D01*
X6108495Y5691774D01*
X6114650Y5693422D01*
X6554434Y5693422D01*
X6554434Y5779921D01*
X6556669Y5786662D01*
X6563740Y5791974D01*
X6576489Y5795272D01*
X6596090Y5796297D01*
G37*
G36*
X15287174Y12580067D02*
G01*
X15311793Y12578052D01*
X15342682Y12571801D01*
X15369349Y12562555D01*
X15393312Y12549658D01*
X15412800Y12533759D01*
X15428477Y12514477D01*
X15440057Y12491737D01*
X15447034Y12466354D01*
X15449510Y12436086D01*
X15447752Y12410285D01*
X15442732Y12387726D01*
X15434329Y12366928D01*
X15422875Y12348745D01*
X15408352Y12332874D01*
X15390488Y12318996D01*
X15370193Y12307716D01*
X15346635Y12298589D01*
X15368946Y12284594D01*
X15388620Y12264664D01*
X15406059Y12237956D01*
X15422032Y12204031D01*
X15466692Y12099214D01*
X15474899Y12076390D01*
X15476950Y12065106D01*
X15475302Y12057485D01*
X15467535Y12052356D01*
X15449473Y12049498D01*
X15417123Y12048656D01*
X15389646Y12049498D01*
X15373452Y12052576D01*
X15365063Y12058328D01*
X15360959Y12066791D01*
X15313405Y12185859D01*
X15296589Y12221690D01*
X15287726Y12236375D01*
X15278381Y12247848D01*
X15267537Y12257096D01*
X15255227Y12263712D01*
X15241458Y12267657D01*
X15224892Y12269061D01*
X15191296Y12269061D01*
X15191296Y12065948D01*
X15188622Y12058548D01*
X15179829Y12053162D01*
X15163416Y12049901D01*
X15137184Y12048656D01*
X15111136Y12049901D01*
X15094539Y12053162D01*
X15085930Y12058474D01*
X15083475Y12065838D01*
X15083475Y12348781D01*
X15191296Y12348781D01*
X15246214Y12348781D01*
X15268364Y12350242D01*
X15286368Y12354277D01*
X15302458Y12361095D01*
X15315054Y12369811D01*
X15325128Y12380835D01*
X15332273Y12393734D01*
X15336540Y12408218D01*
X15338025Y12424839D01*
X15334901Y12449492D01*
X15326118Y12468985D01*
X15311116Y12483882D01*
X15287210Y12494338D01*
X15268562Y12497599D01*
X15239656Y12498844D01*
X15191296Y12498844D01*
X15191296Y12348781D01*
X15083475Y12348781D01*
X15083475Y12546911D01*
X15086023Y12563105D01*
X15092671Y12572923D01*
X15102832Y12578859D01*
X15115459Y12580910D01*
X15252772Y12580910D01*
X15287174Y12580067D01*
G37*
G36*
X15885080Y12091410D02*
G01*
X15883835Y12072213D01*
X15880354Y12059683D01*
X15875225Y12053016D01*
X15868667Y12051000D01*
X15576015Y12051000D01*
X15569860Y12053016D01*
X15564731Y12059683D01*
X15561251Y12072213D01*
X15560042Y12091410D01*
X15561068Y12111011D01*
X15564328Y12123760D01*
X15569457Y12130831D01*
X15576015Y12133066D01*
X15674824Y12133066D01*
X15674824Y12480086D01*
X15589571Y12433192D01*
X15574183Y12427660D01*
X15568734Y12427795D01*
X15564768Y12430114D01*
X15560042Y12442168D01*
X15558833Y12466274D01*
X15559236Y12482431D01*
X15561287Y12493239D01*
X15565794Y12500603D01*
X15573597Y12506758D01*
X15687537Y12580287D01*
X15692666Y12582925D01*
X15700652Y12584573D01*
X15713548Y12585379D01*
X15734248Y12585599D01*
X15759454Y12584976D01*
X15773999Y12582925D01*
X15780556Y12579005D01*
X15782205Y12572850D01*
X15782205Y12133066D01*
X15868704Y12133066D01*
X15875445Y12130831D01*
X15880757Y12123760D01*
X15884054Y12111011D01*
X15885080Y12091410D01*
G37*
G36*
X16310649Y12091410D02*
G01*
X16309403Y12072213D01*
X16305923Y12059683D01*
X16300794Y12053016D01*
X16294236Y12051000D01*
X16001584Y12051000D01*
X15995429Y12053016D01*
X15990300Y12059683D01*
X15986820Y12072213D01*
X15985611Y12091410D01*
X15986636Y12111011D01*
X15989897Y12123760D01*
X15995026Y12130831D01*
X16001584Y12133066D01*
X16100392Y12133066D01*
X16100392Y12480086D01*
X16015139Y12433192D01*
X15999752Y12427660D01*
X15994303Y12427795D01*
X15990337Y12430114D01*
X15985611Y12442168D01*
X15984402Y12466274D01*
X15984805Y12482431D01*
X15986856Y12493239D01*
X15991362Y12500603D01*
X15999166Y12506758D01*
X16113105Y12580287D01*
X16118234Y12582925D01*
X16126221Y12584573D01*
X16139117Y12585379D01*
X16159817Y12585599D01*
X16185023Y12584976D01*
X16199567Y12582925D01*
X16206125Y12579005D01*
X16207774Y12572850D01*
X16207774Y12133066D01*
X16294272Y12133066D01*
X16301014Y12130831D01*
X16306326Y12123760D01*
X16309623Y12111011D01*
X16310649Y12091410D01*
G37*
G36*
X15257218Y5889670D02*
G01*
X15274474Y5889047D01*
X15286637Y5887178D01*
X15295357Y5883918D01*
X15303710Y5877360D01*
X15315837Y5859958D01*
X15330051Y5828414D01*
X15341336Y5785769D01*
X15344704Y5761271D01*
X15345878Y5733928D01*
X15343912Y5697888D01*
X15338228Y5665240D01*
X15329062Y5635559D01*
X15315873Y5607587D01*
X15299149Y5582834D01*
X15278760Y5560968D01*
X15255185Y5542463D01*
X15227513Y5526721D01*
X15195193Y5513817D01*
X15161397Y5505005D01*
X15122737Y5499412D01*
X15078542Y5497440D01*
X15033599Y5499584D01*
X14993682Y5505714D01*
X14958192Y5515465D01*
X14924230Y5529477D01*
X14894977Y5546305D01*
X14869898Y5565877D01*
X14848012Y5588889D01*
X14830006Y5614679D01*
X14815713Y5643546D01*
X14805568Y5674257D01*
X14799346Y5707407D01*
X14797211Y5743380D01*
X14800985Y5785989D01*
X14810840Y5823907D01*
X14824835Y5855268D01*
X14838464Y5874722D01*
X14847806Y5882306D01*
X14857295Y5885566D01*
X14870887Y5887435D01*
X14890231Y5888058D01*
X14911260Y5887215D01*
X14925256Y5884357D01*
X14933096Y5879448D01*
X14935550Y5872890D01*
X14934044Y5866603D01*
X14928296Y5857320D01*
X14912103Y5832920D01*
X14895910Y5797273D01*
X14890598Y5775434D01*
X14888656Y5747887D01*
X14891987Y5717577D01*
X14901588Y5691503D01*
X14917126Y5668695D01*
X14938481Y5649261D01*
X14964363Y5634242D01*
X14996513Y5622847D01*
X15031758Y5616199D01*
X15073193Y5613834D01*
X15118265Y5616419D01*
X15154197Y5623469D01*
X15186200Y5635539D01*
X15210580Y5650910D01*
X15229967Y5670685D01*
X15243590Y5693958D01*
X15251627Y5720263D01*
X15254434Y5750744D01*
X15252658Y5778348D01*
X15247803Y5800313D01*
X15233148Y5836181D01*
X15218677Y5860764D01*
X15213525Y5870091D01*
X15212229Y5875748D01*
X15213877Y5882306D01*
X15220362Y5886372D01*
X15233918Y5888827D01*
X15257218Y5889670D01*
G37*
G36*
X15229077Y6306170D02*
G01*
X15258684Y6296920D01*
X15284702Y6281474D01*
X15306384Y6260027D01*
X15323117Y6233401D01*
X15335840Y6199541D01*
X15343216Y6161962D01*
X15345878Y6116339D01*
X15343477Y6072759D01*
X15336866Y6037241D01*
X15325422Y6005284D01*
X15310451Y5980272D01*
X15290937Y5960139D01*
X15267476Y5945833D01*
X15240593Y5937354D01*
X15208712Y5934366D01*
X15186664Y5936081D01*
X15166323Y5941107D01*
X15147252Y5949491D01*
X15129504Y5961221D01*
X15113298Y5975895D01*
X15097557Y5994413D01*
X15083261Y6015318D01*
X15069090Y6040135D01*
X15044324Y6002400D01*
X15030268Y5986697D01*
X15015271Y5973714D01*
X14998727Y5963275D01*
X14980650Y5955689D01*
X14961273Y5951115D01*
X14939690Y5949534D01*
X14908831Y5952428D01*
X14881768Y5960781D01*
X14857600Y5974761D01*
X14836742Y5994413D01*
X14820228Y6018948D01*
X14807469Y6050357D01*
X14799931Y6085490D01*
X14797654Y6121285D01*
X14876932Y6121285D01*
X14878948Y6098830D01*
X14884351Y6082210D01*
X14892576Y6070031D01*
X14903997Y6060904D01*
X14918151Y6055263D01*
X14935844Y6053251D01*
X14959840Y6057538D01*
X14980540Y6070873D01*
X14999664Y6094211D01*
X15012620Y6116376D01*
X15108401Y6116376D01*
X15128844Y6083147D01*
X15150313Y6059370D01*
X15161977Y6051047D01*
X15174017Y6045228D01*
X15186816Y6041731D01*
X15200762Y6040538D01*
X15221032Y6043022D01*
X15236900Y6049961D01*
X15249415Y6061238D01*
X15258175Y6075996D01*
X15263985Y6096034D01*
X15266158Y6122934D01*
X15263935Y6149215D01*
X15257994Y6168683D01*
X15249012Y6182944D01*
X15236356Y6193840D01*
X15220833Y6200486D01*
X15201568Y6202838D01*
X15186940Y6201519D01*
X15174017Y6197709D01*
X15162090Y6191277D01*
X15150496Y6181699D01*
X15129247Y6154441D01*
X15108401Y6116376D01*
X15012620Y6116376D01*
X15019558Y6128246D01*
X15000743Y6155643D01*
X14982189Y6174371D01*
X14961003Y6186570D01*
X14937895Y6190565D01*
X14912286Y6186461D01*
X14901737Y6181160D01*
X14892979Y6173529D01*
X14886129Y6163884D01*
X14880999Y6151803D01*
X14878020Y6138251D01*
X14876932Y6121285D01*
X14797654Y6121285D01*
X14797211Y6128246D01*
X14799749Y6170416D01*
X14806627Y6203461D01*
X14818355Y6232694D01*
X14833262Y6254898D01*
X14852196Y6272406D01*
X14874404Y6284610D01*
X14899253Y6291766D01*
X14927417Y6294246D01*
X14946393Y6292654D01*
X14964896Y6287871D01*
X14982571Y6280289D01*
X14999481Y6270066D01*
X15015196Y6257447D01*
X15030402Y6241782D01*
X15044124Y6224090D01*
X15056817Y6203681D01*
X15084661Y6248340D01*
X15100201Y6266730D01*
X15116388Y6281533D01*
X15134069Y6293538D01*
X15152621Y6302232D01*
X15172442Y6307577D01*
X15194387Y6309413D01*
X15229077Y6306170D01*
G37*
G36*
X8899958Y5380067D02*
G01*
X8924577Y5378052D01*
X8955466Y5371801D01*
X8982133Y5362555D01*
X9006096Y5349658D01*
X9025584Y5333759D01*
X9041261Y5314477D01*
X9052841Y5291737D01*
X9059818Y5266354D01*
X9062294Y5236086D01*
X9060536Y5210285D01*
X9055516Y5187726D01*
X9047113Y5166928D01*
X9035659Y5148745D01*
X9021136Y5132874D01*
X9003272Y5118996D01*
X8982977Y5107716D01*
X8959419Y5098589D01*
X8981730Y5084594D01*
X9001404Y5064664D01*
X9018843Y5037956D01*
X9034816Y5004031D01*
X9079476Y4899214D01*
X9087683Y4876390D01*
X9089734Y4865106D01*
X9088086Y4857485D01*
X9080319Y4852356D01*
X9062257Y4849498D01*
X9029907Y4848656D01*
X9002430Y4849498D01*
X8986236Y4852576D01*
X8977847Y4858328D01*
X8973743Y4866791D01*
X8926189Y4985859D01*
X8909373Y5021690D01*
X8900510Y5036375D01*
X8891165Y5047848D01*
X8880321Y5057096D01*
X8868011Y5063712D01*
X8854242Y5067657D01*
X8837676Y5069061D01*
X8804080Y5069061D01*
X8804080Y4865948D01*
X8801406Y4858548D01*
X8792613Y4853162D01*
X8776200Y4849901D01*
X8749968Y4848656D01*
X8723920Y4849901D01*
X8707323Y4853162D01*
X8698714Y4858474D01*
X8696259Y4865838D01*
X8696259Y5148781D01*
X8804080Y5148781D01*
X8858998Y5148781D01*
X8881148Y5150242D01*
X8899152Y5154277D01*
X8915242Y5161095D01*
X8927838Y5169811D01*
X8937912Y5180835D01*
X8945057Y5193734D01*
X8949324Y5208218D01*
X8950809Y5224839D01*
X8947685Y5249492D01*
X8938902Y5268985D01*
X8923900Y5283882D01*
X8899994Y5294338D01*
X8881346Y5297599D01*
X8852440Y5298844D01*
X8804080Y5298844D01*
X8804080Y5148781D01*
X8696259Y5148781D01*
X8696259Y5346911D01*
X8698807Y5363105D01*
X8705455Y5372923D01*
X8715616Y5378859D01*
X8728243Y5380910D01*
X8865556Y5380910D01*
X8899958Y5380067D01*
G37*
G36*
X9359654Y5387999D02*
G01*
X9388614Y5381679D01*
X9414730Y5371060D01*
X9436168Y5357133D01*
X9454348Y5339541D01*
X9469361Y5318408D01*
X9481142Y5294694D01*
X9490280Y5267850D01*
X9496657Y5239334D01*
X9500942Y5207656D01*
X9504019Y5140099D01*
X9500722Y5073164D01*
X9495962Y5038894D01*
X9488229Y5005386D01*
X9477266Y4973001D01*
X9462840Y4942335D01*
X9444283Y4914335D01*
X9421001Y4890128D01*
X9393148Y4870419D01*
X9358682Y4854701D01*
X9320071Y4845106D01*
X9272001Y4841622D01*
X9236940Y4844040D01*
X9205176Y4850121D01*
X9180813Y4857778D01*
X9166268Y4866058D01*
X9159710Y4878405D01*
X9157658Y4901046D01*
X9158281Y4922515D01*
X9160736Y4935154D01*
X9165242Y4941089D01*
X9171580Y4942518D01*
X9185539Y4939661D01*
X9207447Y4933103D01*
X9236756Y4926545D01*
X9273246Y4923687D01*
X9305954Y4926956D01*
X9331462Y4935960D01*
X9353088Y4950473D01*
X9369966Y4969080D01*
X9382646Y4991296D01*
X9391692Y5017367D01*
X9397109Y5045283D01*
X9399495Y5075106D01*
X9379369Y5064308D01*
X9353993Y5054406D01*
X9326206Y5047928D01*
X9292920Y5045613D01*
X9252530Y5048603D01*
X9221186Y5056714D01*
X9194089Y5070512D01*
X9173229Y5088734D01*
X9157483Y5111601D01*
X9146374Y5139659D01*
X9140187Y5170775D01*
X9137985Y5207473D01*
X9138631Y5215679D01*
X9243754Y5215679D01*
X9244788Y5194447D01*
X9247637Y5177028D01*
X9252846Y5161379D01*
X9259947Y5149368D01*
X9269547Y5139859D01*
X9281856Y5133028D01*
X9296244Y5129114D01*
X9314645Y5127679D01*
X9337928Y5129511D01*
X9359525Y5134896D01*
X9379695Y5143446D01*
X9397041Y5154130D01*
X9395689Y5196527D01*
X9392131Y5228063D01*
X9385596Y5256050D01*
X9377367Y5275580D01*
X9365990Y5291093D01*
X9352784Y5300786D01*
X9337167Y5306282D01*
X9318346Y5308223D01*
X9299956Y5306424D01*
X9285153Y5301409D01*
X9272401Y5293191D01*
X9261999Y5282175D01*
X9254055Y5268883D01*
X9248260Y5252865D01*
X9244922Y5235446D01*
X9243754Y5215679D01*
X9138631Y5215679D01*
X9141037Y5246259D01*
X9149855Y5280819D01*
X9164728Y5312220D01*
X9185099Y5338741D01*
X9210981Y5360223D01*
X9243314Y5376733D01*
X9279873Y5386721D01*
X9324061Y5390289D01*
X9359654Y5387999D01*
G37*
G36*
X16357218Y5889670D02*
G01*
X16374474Y5889047D01*
X16386637Y5887178D01*
X16395357Y5883918D01*
X16403710Y5877360D01*
X16415837Y5859958D01*
X16430051Y5828414D01*
X16441336Y5785769D01*
X16444704Y5761271D01*
X16445878Y5733928D01*
X16443912Y5697888D01*
X16438228Y5665240D01*
X16429062Y5635559D01*
X16415873Y5607587D01*
X16399149Y5582834D01*
X16378760Y5560968D01*
X16355185Y5542463D01*
X16327513Y5526721D01*
X16295193Y5513817D01*
X16261397Y5505005D01*
X16222737Y5499412D01*
X16178542Y5497440D01*
X16133599Y5499584D01*
X16093682Y5505714D01*
X16058192Y5515465D01*
X16024230Y5529477D01*
X15994977Y5546305D01*
X15969898Y5565877D01*
X15948012Y5588889D01*
X15930006Y5614679D01*
X15915713Y5643546D01*
X15905568Y5674257D01*
X15899346Y5707407D01*
X15897211Y5743380D01*
X15900985Y5785989D01*
X15910840Y5823907D01*
X15924835Y5855268D01*
X15938464Y5874722D01*
X15947806Y5882306D01*
X15957295Y5885566D01*
X15970887Y5887435D01*
X15990231Y5888058D01*
X16011260Y5887215D01*
X16025256Y5884357D01*
X16033096Y5879448D01*
X16035550Y5872890D01*
X16034044Y5866603D01*
X16028296Y5857320D01*
X16012103Y5832920D01*
X15995910Y5797273D01*
X15990598Y5775434D01*
X15988656Y5747887D01*
X15991987Y5717577D01*
X16001588Y5691503D01*
X16017126Y5668695D01*
X16038481Y5649261D01*
X16064363Y5634242D01*
X16096513Y5622847D01*
X16131758Y5616199D01*
X16173193Y5613834D01*
X16218265Y5616419D01*
X16254197Y5623469D01*
X16286200Y5635539D01*
X16310580Y5650910D01*
X16329967Y5670685D01*
X16343590Y5693958D01*
X16351627Y5720263D01*
X16354434Y5750744D01*
X16352658Y5778348D01*
X16347803Y5800313D01*
X16333148Y5836181D01*
X16318677Y5860764D01*
X16313525Y5870091D01*
X16312229Y5875748D01*
X16313877Y5882306D01*
X16320362Y5886372D01*
X16333918Y5888827D01*
X16357218Y5889670D01*
G37*
G36*
X16214336Y6299155D02*
G01*
X16248606Y6294395D01*
X16282114Y6286662D01*
X16314499Y6275699D01*
X16345165Y6261273D01*
X16373165Y6242716D01*
X16397372Y6219434D01*
X16417081Y6191581D01*
X16432799Y6157116D01*
X16442394Y6118505D01*
X16445878Y6070434D01*
X16443460Y6035373D01*
X16437379Y6003609D01*
X16429722Y5979246D01*
X16421442Y5964701D01*
X16409095Y5958143D01*
X16386454Y5956092D01*
X16364985Y5956714D01*
X16352346Y5959169D01*
X16346411Y5963675D01*
X16344982Y5970013D01*
X16347839Y5983972D01*
X16354397Y6005880D01*
X16360955Y6035190D01*
X16363813Y6071679D01*
X16360544Y6104388D01*
X16351540Y6129895D01*
X16337027Y6151521D01*
X16318420Y6168400D01*
X16296204Y6181079D01*
X16270133Y6190125D01*
X16242217Y6195542D01*
X16212394Y6197929D01*
X16223192Y6177802D01*
X16233094Y6152426D01*
X16239572Y6124639D01*
X16241887Y6091353D01*
X16238897Y6050963D01*
X16230786Y6019619D01*
X16216988Y5992523D01*
X16198766Y5971662D01*
X16175899Y5955916D01*
X16147841Y5944808D01*
X16116725Y5938621D01*
X16080027Y5936418D01*
X16041241Y5939470D01*
X16006681Y5948288D01*
X15975280Y5963161D01*
X15948759Y5983532D01*
X15927277Y6009414D01*
X15910767Y6041747D01*
X15900779Y6078306D01*
X15897672Y6116779D01*
X15979277Y6116779D01*
X15981076Y6098389D01*
X15986091Y6083586D01*
X15994309Y6070835D01*
X16005325Y6060432D01*
X16018617Y6052488D01*
X16034635Y6046693D01*
X16052054Y6043355D01*
X16071821Y6042187D01*
X16093053Y6043221D01*
X16110472Y6046071D01*
X16126121Y6051279D01*
X16138132Y6058380D01*
X16147641Y6067980D01*
X16154472Y6080289D01*
X16158386Y6094677D01*
X16159821Y6113079D01*
X16157989Y6136361D01*
X16152604Y6157958D01*
X16144054Y6178129D01*
X16133370Y6195474D01*
X16090973Y6194122D01*
X16059437Y6190565D01*
X16031450Y6184030D01*
X16011920Y6175800D01*
X15996407Y6164423D01*
X15986714Y6151217D01*
X15981218Y6135600D01*
X15979277Y6116779D01*
X15897672Y6116779D01*
X15897211Y6122494D01*
X15899501Y6158088D01*
X15905821Y6187048D01*
X15916440Y6213163D01*
X15930367Y6234602D01*
X15947959Y6252782D01*
X15969092Y6267794D01*
X15992806Y6279575D01*
X16019650Y6288714D01*
X16048166Y6295090D01*
X16079844Y6299375D01*
X16147401Y6302452D01*
X16214336Y6299155D01*
G37*
G36*
X2764384Y11130282D02*
G01*
X2763761Y11113026D01*
X2761892Y11100863D01*
X2758632Y11092143D01*
X2752074Y11083790D01*
X2734672Y11071663D01*
X2703128Y11057449D01*
X2660483Y11046164D01*
X2635985Y11042796D01*
X2608642Y11041622D01*
X2572602Y11043588D01*
X2539954Y11049272D01*
X2510273Y11058438D01*
X2482301Y11071627D01*
X2457548Y11088351D01*
X2435682Y11108740D01*
X2417177Y11132315D01*
X2401435Y11159987D01*
X2388531Y11192307D01*
X2379719Y11226103D01*
X2374126Y11264763D01*
X2372154Y11308958D01*
X2374298Y11353901D01*
X2380428Y11393818D01*
X2390179Y11429308D01*
X2404191Y11463270D01*
X2421019Y11492523D01*
X2440591Y11517602D01*
X2463603Y11539488D01*
X2489393Y11557494D01*
X2518260Y11571787D01*
X2548971Y11581932D01*
X2582121Y11588154D01*
X2618094Y11590289D01*
X2660703Y11586515D01*
X2698621Y11576660D01*
X2729982Y11562665D01*
X2749436Y11549036D01*
X2757020Y11539694D01*
X2760280Y11530205D01*
X2762149Y11516613D01*
X2762772Y11497269D01*
X2761929Y11476240D01*
X2759071Y11462244D01*
X2754162Y11454404D01*
X2747604Y11451950D01*
X2741317Y11453456D01*
X2732034Y11459204D01*
X2707634Y11475397D01*
X2671987Y11491590D01*
X2650148Y11496902D01*
X2622601Y11498844D01*
X2592291Y11495513D01*
X2566217Y11485912D01*
X2543409Y11470374D01*
X2523975Y11449019D01*
X2508956Y11423137D01*
X2497561Y11390987D01*
X2490913Y11355742D01*
X2488548Y11314307D01*
X2491133Y11269235D01*
X2498183Y11233303D01*
X2510253Y11201300D01*
X2525624Y11176920D01*
X2545399Y11157533D01*
X2568672Y11143910D01*
X2594977Y11135873D01*
X2625458Y11133066D01*
X2653062Y11134842D01*
X2675027Y11139697D01*
X2710895Y11154352D01*
X2735478Y11168823D01*
X2744805Y11173975D01*
X2750462Y11175271D01*
X2757020Y11173623D01*
X2761086Y11167138D01*
X2763541Y11153582D01*
X2764384Y11130282D01*
G37*
G36*
X3171011Y11091410D02*
G01*
X3169766Y11072213D01*
X3166285Y11059683D01*
X3161156Y11053016D01*
X3154598Y11051000D01*
X2861946Y11051000D01*
X2855792Y11053016D01*
X2850662Y11059683D01*
X2847182Y11072213D01*
X2845973Y11091410D01*
X2846999Y11111011D01*
X2850259Y11123760D01*
X2855389Y11130831D01*
X2861946Y11133066D01*
X2960755Y11133066D01*
X2960755Y11480086D01*
X2875502Y11433192D01*
X2860115Y11427660D01*
X2854665Y11427795D01*
X2850699Y11430114D01*
X2845973Y11442168D01*
X2844764Y11466274D01*
X2845167Y11482431D01*
X2847219Y11493239D01*
X2851725Y11500603D01*
X2859528Y11506758D01*
X2973468Y11580287D01*
X2978597Y11582925D01*
X2986584Y11584573D01*
X2999480Y11585379D01*
X3020179Y11585599D01*
X3045385Y11584976D01*
X3059930Y11582925D01*
X3066488Y11579005D01*
X3068136Y11572850D01*
X3068136Y11133066D01*
X3154635Y11133066D01*
X3161376Y11130831D01*
X3166688Y11123760D01*
X3169986Y11111011D01*
X3171011Y11091410D01*
G37*
G36*
X3514185Y11582229D02*
G01*
X3537742Y11578968D01*
X3550675Y11573473D01*
X3554778Y11565706D01*
X3554778Y11247958D01*
X3601929Y11247958D01*
X3607587Y11245794D01*
X3613176Y11237810D01*
X3616477Y11225965D01*
X3617903Y11204177D01*
X3616649Y11184421D01*
X3613579Y11172157D01*
X3608124Y11163582D01*
X3601929Y11161203D01*
X3554778Y11161203D01*
X3554778Y11065069D01*
X3552323Y11057888D01*
X3543714Y11052759D01*
X3527704Y11049682D01*
X3502315Y11048656D01*
X3477512Y11049682D01*
X3461502Y11052759D01*
X3453295Y11057888D01*
X3451060Y11065069D01*
X3451060Y11161203D01*
X3248204Y11161203D01*
X3237946Y11162632D01*
X3230362Y11169226D01*
X3225856Y11184064D01*
X3224427Y11209856D01*
X3225050Y11232717D01*
X3226836Y11247958D01*
X3310486Y11247958D01*
X3451060Y11247958D01*
X3451060Y11489465D01*
X3450254Y11489465D01*
X3310486Y11247958D01*
X3226836Y11247958D01*
X3227102Y11250229D01*
X3231168Y11265067D01*
X3237946Y11279905D01*
X3402700Y11568966D01*
X3409661Y11575304D01*
X3423400Y11579774D01*
X3445748Y11582412D01*
X3478538Y11583255D01*
X3514185Y11582229D01*
G37*
G36*
X16930015Y10100587D02*
G01*
X16935144Y10092820D01*
X16938002Y10074758D01*
X16938844Y10042408D01*
X16938002Y10014931D01*
X16934924Y9998737D01*
X16929172Y9990348D01*
X16920709Y9986244D01*
X16801641Y9938690D01*
X16765810Y9921874D01*
X16751125Y9913011D01*
X16739652Y9903666D01*
X16730404Y9892822D01*
X16723788Y9880512D01*
X16719843Y9866743D01*
X16718439Y9850177D01*
X16718439Y9816581D01*
X16921552Y9816581D01*
X16928952Y9813907D01*
X16934338Y9805114D01*
X16937599Y9788701D01*
X16938844Y9762469D01*
X16937599Y9736421D01*
X16934338Y9719824D01*
X16929026Y9711215D01*
X16921662Y9708760D01*
X16440589Y9708760D01*
X16424395Y9711308D01*
X16414577Y9717956D01*
X16408641Y9728117D01*
X16406590Y9740744D01*
X16406590Y9864941D01*
X16488656Y9864941D01*
X16488656Y9816581D01*
X16638719Y9816581D01*
X16638719Y9871499D01*
X16637258Y9893649D01*
X16633223Y9911653D01*
X16626405Y9927743D01*
X16617689Y9940339D01*
X16606665Y9950413D01*
X16593766Y9957558D01*
X16579282Y9961825D01*
X16562661Y9963310D01*
X16538008Y9960186D01*
X16518515Y9951403D01*
X16503618Y9936401D01*
X16493162Y9912495D01*
X16489901Y9893847D01*
X16488656Y9864941D01*
X16406590Y9864941D01*
X16406590Y9878057D01*
X16407433Y9912459D01*
X16409448Y9937078D01*
X16415699Y9967967D01*
X16424945Y9994634D01*
X16437842Y10018597D01*
X16453741Y10038085D01*
X16473023Y10053762D01*
X16495763Y10065342D01*
X16521146Y10072319D01*
X16551414Y10074795D01*
X16577215Y10073037D01*
X16599774Y10068017D01*
X16620572Y10059614D01*
X16638755Y10048160D01*
X16654626Y10033637D01*
X16668504Y10015773D01*
X16679784Y9995478D01*
X16688911Y9971920D01*
X16702906Y9994231D01*
X16722836Y10013905D01*
X16749544Y10031344D01*
X16783469Y10047317D01*
X16888286Y10091977D01*
X16911110Y10100184D01*
X16922394Y10102235D01*
X16930015Y10100587D01*
G37*
G36*
X16803079Y10530434D02*
G01*
X16815343Y10527364D01*
X16823918Y10521909D01*
X16826297Y10515714D01*
X16826297Y10468563D01*
X16922431Y10468563D01*
X16929612Y10466108D01*
X16934741Y10457499D01*
X16937818Y10441489D01*
X16938844Y10416100D01*
X16937818Y10391297D01*
X16934741Y10375287D01*
X16929612Y10367080D01*
X16922431Y10364845D01*
X16826297Y10364845D01*
X16826297Y10161989D01*
X16824868Y10151731D01*
X16818274Y10144147D01*
X16803436Y10139641D01*
X16777644Y10138212D01*
X16754783Y10138835D01*
X16737271Y10140887D01*
X16722433Y10144953D01*
X16707595Y10151731D01*
X16418534Y10316485D01*
X16412196Y10323446D01*
X16407726Y10337185D01*
X16405088Y10359533D01*
X16404972Y10364039D01*
X16498035Y10364039D01*
X16739542Y10224271D01*
X16739542Y10364845D01*
X16498035Y10364845D01*
X16498035Y10364039D01*
X16404972Y10364039D01*
X16404245Y10392323D01*
X16405271Y10427970D01*
X16408532Y10451527D01*
X16414027Y10464460D01*
X16421794Y10468563D01*
X16739542Y10468563D01*
X16739542Y10515714D01*
X16741706Y10521372D01*
X16749690Y10526961D01*
X16761535Y10530262D01*
X16783323Y10531688D01*
X16803079Y10530434D01*
G37*
G36*
X8577169Y16630282D02*
G01*
X8576546Y16613026D01*
X8574677Y16600863D01*
X8571417Y16592143D01*
X8564859Y16583790D01*
X8547457Y16571663D01*
X8515913Y16557449D01*
X8473268Y16546164D01*
X8448770Y16542796D01*
X8421427Y16541622D01*
X8385387Y16543588D01*
X8352739Y16549272D01*
X8323058Y16558438D01*
X8295086Y16571627D01*
X8270333Y16588351D01*
X8248467Y16608740D01*
X8229962Y16632315D01*
X8214220Y16659987D01*
X8201316Y16692307D01*
X8192504Y16726103D01*
X8186911Y16764763D01*
X8184939Y16808958D01*
X8187083Y16853901D01*
X8193213Y16893818D01*
X8202964Y16929308D01*
X8216976Y16963270D01*
X8233804Y16992523D01*
X8253376Y17017602D01*
X8276388Y17039488D01*
X8302178Y17057494D01*
X8331045Y17071787D01*
X8361756Y17081932D01*
X8394906Y17088154D01*
X8430879Y17090289D01*
X8473488Y17086515D01*
X8511406Y17076660D01*
X8542767Y17062665D01*
X8562221Y17049036D01*
X8569805Y17039694D01*
X8573065Y17030205D01*
X8574934Y17016613D01*
X8575557Y16997269D01*
X8574714Y16976240D01*
X8571856Y16962244D01*
X8566947Y16954404D01*
X8560389Y16951950D01*
X8554102Y16953456D01*
X8544819Y16959204D01*
X8520419Y16975397D01*
X8484772Y16991590D01*
X8462933Y16996902D01*
X8435386Y16998844D01*
X8405076Y16995513D01*
X8379002Y16985912D01*
X8356194Y16970374D01*
X8336760Y16949019D01*
X8321741Y16923137D01*
X8310346Y16890987D01*
X8303698Y16855742D01*
X8301333Y16814307D01*
X8303918Y16769235D01*
X8310968Y16733303D01*
X8323038Y16701300D01*
X8338409Y16676920D01*
X8358184Y16657533D01*
X8381457Y16643910D01*
X8407762Y16635873D01*
X8438243Y16633066D01*
X8465847Y16634842D01*
X8487812Y16639697D01*
X8523680Y16654352D01*
X8548263Y16668823D01*
X8557590Y16673975D01*
X8563247Y16675271D01*
X8569805Y16673623D01*
X8573871Y16667138D01*
X8576326Y16653582D01*
X8577169Y16630282D01*
G37*
G36*
X8988303Y17035297D02*
G01*
X8987460Y17014525D01*
X8985225Y16998075D01*
X8981342Y16983677D01*
X8975590Y16969095D01*
X8800981Y16565435D01*
X8794606Y16556826D01*
X8783762Y16551697D01*
X8765920Y16549279D01*
X8739102Y16548656D01*
X8704663Y16550085D01*
X8686016Y16554591D01*
X8681313Y16558260D01*
X8679677Y16562358D01*
X8682535Y16574008D01*
X8870260Y16987121D01*
X8647291Y16987121D01*
X8640076Y16989677D01*
X8634358Y16998441D01*
X8631352Y17011452D01*
X8630072Y17034418D01*
X8631281Y17055594D01*
X8634761Y17070212D01*
X8640110Y17078419D01*
X8647291Y17080910D01*
X8962474Y17080910D01*
X8974784Y17079444D01*
X8982551Y17073070D01*
X8986874Y17059111D01*
X8988303Y17035297D01*
G37*
G36*
X5757218Y8376885D02*
G01*
X5774474Y8376262D01*
X5786637Y8374393D01*
X5795357Y8371133D01*
X5803710Y8364575D01*
X5815837Y8347173D01*
X5830051Y8315629D01*
X5841336Y8272984D01*
X5844704Y8248486D01*
X5845878Y8221143D01*
X5843912Y8185103D01*
X5838228Y8152455D01*
X5829062Y8122774D01*
X5815873Y8094802D01*
X5799149Y8070049D01*
X5778760Y8048183D01*
X5755185Y8029678D01*
X5727513Y8013936D01*
X5695193Y8001032D01*
X5661397Y7992220D01*
X5622737Y7986627D01*
X5578542Y7984655D01*
X5533599Y7986799D01*
X5493682Y7992929D01*
X5458192Y8002680D01*
X5424230Y8016692D01*
X5394977Y8033520D01*
X5369898Y8053092D01*
X5348012Y8076104D01*
X5330006Y8101894D01*
X5315713Y8130761D01*
X5305568Y8161472D01*
X5299346Y8194622D01*
X5297211Y8230595D01*
X5300985Y8273204D01*
X5310840Y8311122D01*
X5324835Y8342483D01*
X5338464Y8361937D01*
X5347806Y8369521D01*
X5357295Y8372781D01*
X5370887Y8374650D01*
X5390231Y8375273D01*
X5411260Y8374430D01*
X5425256Y8371572D01*
X5433096Y8366663D01*
X5435550Y8360105D01*
X5434044Y8353818D01*
X5428296Y8344535D01*
X5412103Y8320135D01*
X5395910Y8284488D01*
X5390598Y8262649D01*
X5388656Y8235102D01*
X5391987Y8204792D01*
X5401588Y8178718D01*
X5417126Y8155910D01*
X5438481Y8136476D01*
X5464363Y8121457D01*
X5496513Y8110062D01*
X5531758Y8103414D01*
X5573193Y8101049D01*
X5618265Y8103634D01*
X5654197Y8110684D01*
X5686200Y8122754D01*
X5710580Y8138125D01*
X5729967Y8157900D01*
X5743590Y8181173D01*
X5751627Y8207478D01*
X5754434Y8237959D01*
X5752658Y8265563D01*
X5747803Y8287528D01*
X5733148Y8323396D01*
X5718677Y8347979D01*
X5713525Y8357306D01*
X5712229Y8362963D01*
X5713877Y8369521D01*
X5720362Y8373587D01*
X5733918Y8376042D01*
X5757218Y8376885D01*
G37*
G36*
X5796090Y8783512D02*
G01*
X5815287Y8782267D01*
X5827817Y8778786D01*
X5834484Y8773657D01*
X5836500Y8767099D01*
X5836500Y8474447D01*
X5834484Y8468293D01*
X5827817Y8463163D01*
X5815287Y8459683D01*
X5796090Y8458474D01*
X5776489Y8459500D01*
X5763740Y8462760D01*
X5756669Y8467890D01*
X5754434Y8474447D01*
X5754434Y8573256D01*
X5407414Y8573256D01*
X5454308Y8488003D01*
X5459840Y8472616D01*
X5459705Y8467166D01*
X5457386Y8463200D01*
X5445332Y8458474D01*
X5421226Y8457265D01*
X5405069Y8457668D01*
X5394261Y8459720D01*
X5386897Y8464226D01*
X5380742Y8472029D01*
X5307213Y8585969D01*
X5304575Y8591098D01*
X5302927Y8599085D01*
X5302121Y8611981D01*
X5301901Y8632680D01*
X5302524Y8657886D01*
X5304575Y8672431D01*
X5308495Y8678989D01*
X5314650Y8680637D01*
X5754434Y8680637D01*
X5754434Y8767136D01*
X5756669Y8773877D01*
X5763740Y8779189D01*
X5776489Y8782487D01*
X5796090Y8783512D01*
G37*
G36*
X5664968Y9209081D02*
G01*
X5706257Y9205194D01*
X5741538Y9194097D01*
X5772697Y9175990D01*
X5798324Y9151892D01*
X5818414Y9122352D01*
X5833642Y9086312D01*
X5842704Y9046687D01*
X5845878Y9001279D01*
X5842691Y8954531D01*
X5834668Y8914781D01*
X5824959Y8885875D01*
X5817009Y8871147D01*
X5810268Y8866018D01*
X5801438Y8863343D01*
X5788506Y8861914D01*
X5770041Y8861511D01*
X5750587Y8862317D01*
X5737691Y8864992D01*
X5730693Y8869278D01*
X5728642Y8875030D01*
X5733405Y8887523D01*
X5743883Y8909652D01*
X5754397Y8943064D01*
X5757844Y8963737D01*
X5759123Y8990215D01*
X5757852Y9013381D01*
X5754251Y9033446D01*
X5747720Y9051750D01*
X5738534Y9066456D01*
X5726407Y9078393D01*
X5711423Y9087338D01*
X5694090Y9092771D01*
X5672258Y9094739D01*
X5653391Y9093133D01*
X5637417Y9088584D01*
X5623318Y9080714D01*
X5611515Y9069313D01*
X5602478Y9054778D01*
X5595615Y9035278D01*
X5591748Y9013239D01*
X5590303Y8984500D01*
X5592794Y8941232D01*
X5595249Y8904559D01*
X5593595Y8893905D01*
X5589314Y8887560D01*
X5581867Y8883970D01*
X5567368Y8882431D01*
X5337292Y8882431D01*
X5322384Y8884253D01*
X5313771Y8888769D01*
X5308568Y8896530D01*
X5306590Y8909065D01*
X5306590Y9160281D01*
X5309045Y9167242D01*
X5316775Y9172774D01*
X5330807Y9176072D01*
X5351690Y9177098D01*
X5374386Y9175802D01*
X5387080Y9172774D01*
X5395574Y9167180D01*
X5398035Y9160281D01*
X5398035Y8971750D01*
X5513036Y8971750D01*
X5511021Y9000253D01*
X5510582Y9029966D01*
X5513220Y9071632D01*
X5520584Y9106389D01*
X5533221Y9137672D01*
X5550003Y9162553D01*
X5571615Y9182496D01*
X5598180Y9197174D01*
X5628441Y9205954D01*
X5664968Y9209081D01*
G37*
G36*
X15430015Y15600587D02*
G01*
X15435144Y15592820D01*
X15438002Y15574758D01*
X15438844Y15542408D01*
X15438002Y15514931D01*
X15434924Y15498737D01*
X15429172Y15490348D01*
X15420709Y15486244D01*
X15301641Y15438690D01*
X15265810Y15421874D01*
X15251125Y15413011D01*
X15239652Y15403666D01*
X15230404Y15392822D01*
X15223788Y15380512D01*
X15219843Y15366743D01*
X15218439Y15350177D01*
X15218439Y15316581D01*
X15421552Y15316581D01*
X15428952Y15313907D01*
X15434338Y15305114D01*
X15437599Y15288701D01*
X15438844Y15262469D01*
X15437599Y15236421D01*
X15434338Y15219824D01*
X15429026Y15211215D01*
X15421662Y15208760D01*
X14940589Y15208760D01*
X14924395Y15211308D01*
X14914577Y15217956D01*
X14908641Y15228117D01*
X14906590Y15240744D01*
X14906590Y15364941D01*
X14988656Y15364941D01*
X14988656Y15316581D01*
X15138719Y15316581D01*
X15138719Y15371499D01*
X15137258Y15393649D01*
X15133223Y15411653D01*
X15126405Y15427743D01*
X15117689Y15440339D01*
X15106665Y15450413D01*
X15093766Y15457558D01*
X15079282Y15461825D01*
X15062661Y15463310D01*
X15038008Y15460186D01*
X15018515Y15451403D01*
X15003618Y15436401D01*
X14993162Y15412495D01*
X14989901Y15393847D01*
X14988656Y15364941D01*
X14906590Y15364941D01*
X14906590Y15378057D01*
X14907433Y15412459D01*
X14909448Y15437078D01*
X14915699Y15467967D01*
X14924945Y15494634D01*
X14937842Y15518597D01*
X14953741Y15538085D01*
X14973023Y15553762D01*
X14995763Y15565342D01*
X15021146Y15572319D01*
X15051414Y15574795D01*
X15077215Y15573037D01*
X15099774Y15568017D01*
X15120572Y15559614D01*
X15138755Y15548160D01*
X15154626Y15533637D01*
X15168504Y15515773D01*
X15179784Y15495478D01*
X15188911Y15471920D01*
X15202906Y15494231D01*
X15222836Y15513905D01*
X15249544Y15531344D01*
X15283469Y15547317D01*
X15388286Y15591977D01*
X15411110Y15600184D01*
X15422394Y15602235D01*
X15430015Y15600587D01*
G37*
G36*
X15299000Y16020329D02*
G01*
X15334137Y16011171D01*
X15366099Y15995901D01*
X15392975Y15975121D01*
X15414831Y15948906D01*
X15431810Y15916503D01*
X15442190Y15879964D01*
X15445878Y15836159D01*
X15443633Y15800610D01*
X15437452Y15771825D01*
X15427048Y15745877D01*
X15413309Y15724271D01*
X15395863Y15706061D01*
X15374987Y15691482D01*
X15351412Y15680236D01*
X15324172Y15671222D01*
X15295173Y15664896D01*
X15262733Y15660744D01*
X15192244Y15657886D01*
X15127105Y15660964D01*
X15093360Y15665475D01*
X15060317Y15672834D01*
X15028272Y15683459D01*
X14997815Y15697637D01*
X14969946Y15715923D01*
X14945791Y15738816D01*
X14926022Y15766240D01*
X14910327Y15799889D01*
X14900708Y15837703D01*
X14897211Y15884959D01*
X14899043Y15916283D01*
X14903733Y15945592D01*
X14910290Y15968563D01*
X14916629Y15981056D01*
X14922527Y15985782D01*
X14929671Y15988457D01*
X14939270Y15989885D01*
X14953155Y15990288D01*
X14974184Y15989666D01*
X14987264Y15987394D01*
X14994041Y15982888D01*
X14996093Y15975927D01*
X14993419Y15963214D01*
X14987483Y15944383D01*
X14981732Y15918334D01*
X14979277Y15883713D01*
X14982574Y15852221D01*
X14991697Y15827549D01*
X15006379Y15806728D01*
X15025475Y15790254D01*
X15048149Y15778024D01*
X15074971Y15769371D01*
X15103619Y15764383D01*
X15134286Y15762410D01*
X15122818Y15783109D01*
X15113000Y15808498D01*
X15106222Y15838211D01*
X15105479Y15847663D01*
X15185613Y15847663D01*
X15187665Y15825131D01*
X15193380Y15803406D01*
X15202173Y15782890D01*
X15212981Y15764461D01*
X15254928Y15765816D01*
X15285960Y15769371D01*
X15313399Y15775858D01*
X15332342Y15783915D01*
X15347315Y15795079D01*
X15356669Y15808095D01*
X15361950Y15823482D01*
X15363813Y15841911D01*
X15362002Y15859971D01*
X15356889Y15874920D01*
X15348501Y15887878D01*
X15337251Y15898478D01*
X15323705Y15906696D01*
X15307613Y15912839D01*
X15290171Y15916482D01*
X15270610Y15917748D01*
X15234047Y15914048D01*
X15219238Y15909118D01*
X15207485Y15902178D01*
X15198049Y15892738D01*
X15191145Y15880452D01*
X15187097Y15866081D01*
X15185613Y15847663D01*
X15105479Y15847663D01*
X15103548Y15872246D01*
X15106498Y15910718D01*
X15114575Y15941086D01*
X15128185Y15967519D01*
X15146046Y15988017D01*
X15168300Y16003687D01*
X15195468Y16014871D01*
X15225463Y16021241D01*
X15260022Y16023481D01*
X15299000Y16020329D01*
G37*
G36*
X14557218Y3489670D02*
G01*
X14574474Y3489047D01*
X14586637Y3487178D01*
X14595357Y3483918D01*
X14603710Y3477360D01*
X14615837Y3459958D01*
X14630051Y3428414D01*
X14641336Y3385769D01*
X14644704Y3361271D01*
X14645878Y3333928D01*
X14643912Y3297888D01*
X14638228Y3265240D01*
X14629062Y3235559D01*
X14615873Y3207587D01*
X14599149Y3182834D01*
X14578760Y3160968D01*
X14555185Y3142463D01*
X14527513Y3126721D01*
X14495193Y3113817D01*
X14461397Y3105005D01*
X14422737Y3099412D01*
X14378542Y3097440D01*
X14333599Y3099584D01*
X14293682Y3105714D01*
X14258192Y3115465D01*
X14224230Y3129477D01*
X14194977Y3146305D01*
X14169898Y3165877D01*
X14148012Y3188889D01*
X14130006Y3214679D01*
X14115713Y3243546D01*
X14105568Y3274257D01*
X14099346Y3307407D01*
X14097211Y3343380D01*
X14100985Y3385989D01*
X14110840Y3423907D01*
X14124835Y3455268D01*
X14138464Y3474722D01*
X14147806Y3482306D01*
X14157295Y3485566D01*
X14170887Y3487435D01*
X14190231Y3488058D01*
X14211260Y3487215D01*
X14225256Y3484357D01*
X14233096Y3479448D01*
X14235550Y3472890D01*
X14234044Y3466603D01*
X14228296Y3457320D01*
X14212103Y3432920D01*
X14195910Y3397273D01*
X14190598Y3375434D01*
X14188656Y3347887D01*
X14191987Y3317577D01*
X14201588Y3291503D01*
X14217126Y3268695D01*
X14238481Y3249261D01*
X14264363Y3234242D01*
X14296513Y3222847D01*
X14331758Y3216199D01*
X14373193Y3213834D01*
X14418265Y3216419D01*
X14454197Y3223469D01*
X14486200Y3235539D01*
X14510580Y3250910D01*
X14529967Y3270685D01*
X14543590Y3293958D01*
X14551627Y3320263D01*
X14554434Y3350744D01*
X14552658Y3378348D01*
X14547803Y3400313D01*
X14533148Y3436181D01*
X14518677Y3460764D01*
X14513525Y3470091D01*
X14512229Y3475748D01*
X14513877Y3482306D01*
X14520362Y3486372D01*
X14533918Y3488827D01*
X14557218Y3489670D01*
G37*
G36*
X14480392Y3898752D02*
G01*
X14518719Y3894818D01*
X14551210Y3883585D01*
X14579605Y3865432D01*
X14603050Y3841343D01*
X14621253Y3812188D01*
X14634961Y3776606D01*
X14643061Y3737828D01*
X14645878Y3694247D01*
X14641812Y3643396D01*
X14631810Y3601374D01*
X14619464Y3571259D01*
X14609792Y3555689D01*
X14602428Y3550156D01*
X14592829Y3546896D01*
X14578944Y3544844D01*
X14558684Y3544221D01*
X14540607Y3545230D01*
X14531536Y3547482D01*
X14525725Y3551758D01*
X14523952Y3557337D01*
X14529558Y3571479D01*
X14541538Y3597088D01*
X14553555Y3633541D01*
X14557655Y3655257D01*
X14559123Y3681132D01*
X14557718Y3702906D01*
X14553811Y3720882D01*
X14547247Y3737099D01*
X14538827Y3750191D01*
X14528089Y3760780D01*
X14515416Y3768216D01*
X14501096Y3772626D01*
X14484825Y3774152D01*
X14467044Y3772304D01*
X14451595Y3766971D01*
X14437987Y3758137D01*
X14426353Y3745648D01*
X14417305Y3730226D01*
X14410123Y3710001D01*
X14405912Y3687486D01*
X14404371Y3659406D01*
X14404371Y3613501D01*
X14402942Y3604488D01*
X14396934Y3598333D01*
X14384331Y3594853D01*
X14363485Y3593827D01*
X14343884Y3594853D01*
X14332087Y3598114D01*
X14326299Y3603865D01*
X14324650Y3612255D01*
X14324650Y3658564D01*
X14323229Y3681584D01*
X14319265Y3700769D01*
X14312518Y3718099D01*
X14303841Y3731727D01*
X14292723Y3742763D01*
X14279587Y3750778D01*
X14264769Y3755657D01*
X14248080Y3757335D01*
X14223057Y3752829D01*
X14211997Y3747221D01*
X14202614Y3739493D01*
X14195063Y3729676D01*
X14188986Y3716742D01*
X14185301Y3702095D01*
X14183966Y3683953D01*
X14185540Y3663102D01*
X14190158Y3643799D01*
X14203713Y3609984D01*
X14217452Y3584558D01*
X14223827Y3569207D01*
X14222398Y3563455D01*
X14216829Y3559352D01*
X14204849Y3556898D01*
X14184589Y3556092D01*
X14167443Y3556495D01*
X14156086Y3558143D01*
X14148246Y3561221D01*
X14140992Y3567156D01*
X14129415Y3583972D01*
X14114540Y3615919D01*
X14102267Y3660395D01*
X14098520Y3686199D01*
X14097211Y3715130D01*
X14099582Y3752414D01*
X14106187Y3783384D01*
X14117377Y3811239D01*
X14132016Y3833356D01*
X14150806Y3851165D01*
X14173525Y3864094D01*
X14199222Y3871858D01*
X14229066Y3874572D01*
X14252570Y3872994D01*
X14273872Y3868417D01*
X14293652Y3860755D01*
X14310875Y3850392D01*
X14325839Y3837119D01*
X14338535Y3820680D01*
X14348372Y3801812D01*
X14355645Y3779500D01*
X14356890Y3779500D01*
X14362207Y3806342D01*
X14371105Y3829509D01*
X14383539Y3850150D01*
X14398473Y3866988D01*
X14416029Y3880582D01*
X14435732Y3890545D01*
X14457101Y3896667D01*
X14480392Y3898752D01*
G37*
G36*
X18230015Y8000587D02*
G01*
X18235144Y7992820D01*
X18238002Y7974758D01*
X18238844Y7942408D01*
X18238002Y7914931D01*
X18234924Y7898737D01*
X18229172Y7890348D01*
X18220709Y7886244D01*
X18101641Y7838690D01*
X18065810Y7821874D01*
X18051125Y7813011D01*
X18039652Y7803666D01*
X18030404Y7792822D01*
X18023788Y7780512D01*
X18019843Y7766743D01*
X18018439Y7750177D01*
X18018439Y7716581D01*
X18221552Y7716581D01*
X18228952Y7713907D01*
X18234338Y7705114D01*
X18237599Y7688701D01*
X18238844Y7662469D01*
X18237599Y7636421D01*
X18234338Y7619824D01*
X18229026Y7611215D01*
X18221662Y7608760D01*
X17740589Y7608760D01*
X17724395Y7611308D01*
X17714577Y7617956D01*
X17708641Y7628117D01*
X17706590Y7640744D01*
X17706590Y7764941D01*
X17788656Y7764941D01*
X17788656Y7716581D01*
X17938719Y7716581D01*
X17938719Y7771499D01*
X17937258Y7793649D01*
X17933223Y7811653D01*
X17926405Y7827743D01*
X17917689Y7840339D01*
X17906665Y7850413D01*
X17893766Y7857558D01*
X17879282Y7861825D01*
X17862661Y7863310D01*
X17838008Y7860186D01*
X17818515Y7851403D01*
X17803618Y7836401D01*
X17793162Y7812495D01*
X17789901Y7793847D01*
X17788656Y7764941D01*
X17706590Y7764941D01*
X17706590Y7778057D01*
X17707433Y7812459D01*
X17709448Y7837078D01*
X17715699Y7867967D01*
X17724945Y7894634D01*
X17737842Y7918597D01*
X17753741Y7938085D01*
X17773023Y7953762D01*
X17795763Y7965342D01*
X17821146Y7972319D01*
X17851414Y7974795D01*
X17877215Y7973037D01*
X17899774Y7968017D01*
X17920572Y7959614D01*
X17938755Y7948160D01*
X17954626Y7933637D01*
X17968504Y7915773D01*
X17979784Y7895478D01*
X17988911Y7871920D01*
X18002906Y7894231D01*
X18022836Y7913905D01*
X18049544Y7931344D01*
X18083469Y7947317D01*
X18188286Y7991977D01*
X18211110Y8000184D01*
X18222394Y8002235D01*
X18230015Y8000587D01*
G37*
G36*
X18064968Y8410365D02*
G01*
X18106257Y8406478D01*
X18141538Y8395381D01*
X18172697Y8377274D01*
X18198324Y8353176D01*
X18218414Y8323636D01*
X18233642Y8287597D01*
X18242704Y8247971D01*
X18245878Y8202563D01*
X18242691Y8155815D01*
X18234668Y8116065D01*
X18224959Y8087159D01*
X18217009Y8072431D01*
X18210268Y8067302D01*
X18201438Y8064627D01*
X18188506Y8063198D01*
X18170041Y8062795D01*
X18150587Y8063601D01*
X18137691Y8066276D01*
X18130693Y8070562D01*
X18128642Y8076314D01*
X18133405Y8088807D01*
X18143883Y8110936D01*
X18154397Y8144348D01*
X18157844Y8165021D01*
X18159123Y8191499D01*
X18157852Y8214665D01*
X18154251Y8234730D01*
X18147720Y8253034D01*
X18138534Y8267740D01*
X18126407Y8279677D01*
X18111423Y8288622D01*
X18094090Y8294055D01*
X18072258Y8296023D01*
X18053391Y8294417D01*
X18037417Y8289868D01*
X18023318Y8281998D01*
X18011515Y8270597D01*
X18002478Y8256062D01*
X17995615Y8236562D01*
X17991748Y8214523D01*
X17990303Y8185784D01*
X17992794Y8142516D01*
X17995249Y8105843D01*
X17993595Y8095189D01*
X17989314Y8088844D01*
X17981867Y8085254D01*
X17967368Y8083715D01*
X17737292Y8083715D01*
X17722384Y8085537D01*
X17713771Y8090053D01*
X17708568Y8097814D01*
X17706590Y8110349D01*
X17706590Y8361565D01*
X17709045Y8368526D01*
X17716775Y8374058D01*
X17730807Y8377356D01*
X17751690Y8378382D01*
X17774386Y8377086D01*
X17787080Y8374058D01*
X17795574Y8368464D01*
X17798035Y8361565D01*
X17798035Y8173034D01*
X17913036Y8173034D01*
X17911021Y8201538D01*
X17910582Y8231250D01*
X17913220Y8272916D01*
X17920584Y8307673D01*
X17933221Y8338956D01*
X17950003Y8363837D01*
X17971615Y8383780D01*
X17998180Y8398458D01*
X18028441Y8407238D01*
X18064968Y8410365D01*
G37*
G36*
X14330015Y15600587D02*
G01*
X14335144Y15592820D01*
X14338002Y15574758D01*
X14338844Y15542408D01*
X14338002Y15514931D01*
X14334924Y15498737D01*
X14329172Y15490348D01*
X14320709Y15486244D01*
X14201641Y15438690D01*
X14165810Y15421874D01*
X14151125Y15413011D01*
X14139652Y15403666D01*
X14130404Y15392822D01*
X14123788Y15380512D01*
X14119843Y15366743D01*
X14118439Y15350177D01*
X14118439Y15316581D01*
X14321552Y15316581D01*
X14328952Y15313907D01*
X14334338Y15305114D01*
X14337599Y15288701D01*
X14338844Y15262469D01*
X14337599Y15236421D01*
X14334338Y15219824D01*
X14329026Y15211215D01*
X14321662Y15208760D01*
X13840589Y15208760D01*
X13824395Y15211308D01*
X13814577Y15217956D01*
X13808641Y15228117D01*
X13806590Y15240744D01*
X13806590Y15364941D01*
X13888656Y15364941D01*
X13888656Y15316581D01*
X14038719Y15316581D01*
X14038719Y15371499D01*
X14037258Y15393649D01*
X14033223Y15411653D01*
X14026405Y15427743D01*
X14017689Y15440339D01*
X14006665Y15450413D01*
X13993766Y15457558D01*
X13979282Y15461825D01*
X13962661Y15463310D01*
X13938008Y15460186D01*
X13918515Y15451403D01*
X13903618Y15436401D01*
X13893162Y15412495D01*
X13889901Y15393847D01*
X13888656Y15364941D01*
X13806590Y15364941D01*
X13806590Y15378057D01*
X13807433Y15412459D01*
X13809448Y15437078D01*
X13815699Y15467967D01*
X13824945Y15494634D01*
X13837842Y15518597D01*
X13853741Y15538085D01*
X13873023Y15553762D01*
X13895763Y15565342D01*
X13921146Y15572319D01*
X13951414Y15574795D01*
X13977215Y15573037D01*
X13999774Y15568017D01*
X14020572Y15559614D01*
X14038755Y15548160D01*
X14054626Y15533637D01*
X14068504Y15515773D01*
X14079784Y15495478D01*
X14088911Y15471920D01*
X14102906Y15494231D01*
X14122836Y15513905D01*
X14149544Y15531344D01*
X14183469Y15547317D01*
X14288286Y15591977D01*
X14311110Y15600184D01*
X14322394Y15602235D01*
X14330015Y15600587D01*
G37*
G36*
X14229077Y16020238D02*
G01*
X14258684Y16010988D01*
X14284702Y15995542D01*
X14306384Y15974095D01*
X14323117Y15947468D01*
X14335840Y15913608D01*
X14343216Y15876029D01*
X14345878Y15830407D01*
X14343477Y15786827D01*
X14336866Y15751309D01*
X14325422Y15719352D01*
X14310451Y15694339D01*
X14290937Y15674207D01*
X14267476Y15659901D01*
X14240593Y15651422D01*
X14208712Y15648434D01*
X14186664Y15650149D01*
X14166323Y15655175D01*
X14147252Y15663558D01*
X14129504Y15675288D01*
X14113298Y15689963D01*
X14097557Y15708481D01*
X14083261Y15729386D01*
X14069090Y15754203D01*
X14044324Y15716468D01*
X14030268Y15700765D01*
X14015271Y15687781D01*
X13998727Y15677343D01*
X13980650Y15669756D01*
X13961273Y15665182D01*
X13939690Y15663601D01*
X13908831Y15666496D01*
X13881768Y15674849D01*
X13857600Y15688828D01*
X13836742Y15708481D01*
X13820228Y15733015D01*
X13807469Y15764425D01*
X13799931Y15799558D01*
X13797654Y15835353D01*
X13876932Y15835353D01*
X13878948Y15812898D01*
X13884351Y15796278D01*
X13892576Y15784099D01*
X13903997Y15774972D01*
X13918151Y15769331D01*
X13935844Y15767319D01*
X13959840Y15771606D01*
X13980540Y15784941D01*
X13999664Y15808279D01*
X14012620Y15830444D01*
X14108401Y15830444D01*
X14128844Y15797214D01*
X14150313Y15773437D01*
X14161977Y15765115D01*
X14174017Y15759296D01*
X14186816Y15755799D01*
X14200762Y15754606D01*
X14221032Y15757090D01*
X14236900Y15764029D01*
X14249415Y15775306D01*
X14258175Y15790064D01*
X14263985Y15810101D01*
X14266158Y15837002D01*
X14263935Y15863283D01*
X14257994Y15882751D01*
X14249012Y15897012D01*
X14236356Y15907907D01*
X14220833Y15914553D01*
X14201568Y15916906D01*
X14186940Y15915587D01*
X14174017Y15911777D01*
X14162090Y15905345D01*
X14150496Y15895766D01*
X14129247Y15868509D01*
X14108401Y15830444D01*
X14012620Y15830444D01*
X14019558Y15842314D01*
X14000743Y15869711D01*
X13982189Y15888439D01*
X13961003Y15900638D01*
X13937895Y15904632D01*
X13912286Y15900529D01*
X13901737Y15895228D01*
X13892979Y15887597D01*
X13886129Y15877952D01*
X13880999Y15865871D01*
X13878020Y15852319D01*
X13876932Y15835353D01*
X13797654Y15835353D01*
X13797211Y15842314D01*
X13799749Y15884483D01*
X13806627Y15917528D01*
X13818355Y15946761D01*
X13833262Y15968966D01*
X13852196Y15986474D01*
X13874404Y15998678D01*
X13899253Y16005834D01*
X13927417Y16008314D01*
X13946393Y16006722D01*
X13964896Y16001939D01*
X13982571Y15994357D01*
X13999481Y15984133D01*
X14015196Y15971515D01*
X14030402Y15955850D01*
X14044124Y15938157D01*
X14056817Y15917748D01*
X14084661Y15962408D01*
X14100201Y15980798D01*
X14116388Y15995601D01*
X14134069Y16007605D01*
X14152621Y16016300D01*
X14172442Y16021645D01*
X14194387Y16023481D01*
X14229077Y16020238D01*
G37*
G36*
X4957218Y14476885D02*
G01*
X4974474Y14476262D01*
X4986637Y14474393D01*
X4995357Y14471133D01*
X5003710Y14464575D01*
X5015837Y14447173D01*
X5030051Y14415629D01*
X5041336Y14372984D01*
X5044704Y14348486D01*
X5045878Y14321143D01*
X5043912Y14285103D01*
X5038228Y14252455D01*
X5029062Y14222774D01*
X5015873Y14194802D01*
X4999149Y14170049D01*
X4978760Y14148183D01*
X4955185Y14129678D01*
X4927513Y14113936D01*
X4895193Y14101032D01*
X4861397Y14092220D01*
X4822737Y14086627D01*
X4778542Y14084655D01*
X4733599Y14086799D01*
X4693682Y14092929D01*
X4658192Y14102680D01*
X4624230Y14116692D01*
X4594977Y14133520D01*
X4569898Y14153092D01*
X4548012Y14176104D01*
X4530006Y14201894D01*
X4515713Y14230761D01*
X4505568Y14261472D01*
X4499346Y14294622D01*
X4497211Y14330595D01*
X4500985Y14373204D01*
X4510840Y14411122D01*
X4524835Y14442483D01*
X4538464Y14461937D01*
X4547806Y14469521D01*
X4557295Y14472781D01*
X4570887Y14474650D01*
X4590231Y14475273D01*
X4611260Y14474430D01*
X4625256Y14471572D01*
X4633096Y14466663D01*
X4635550Y14460105D01*
X4634044Y14453818D01*
X4628296Y14444535D01*
X4612103Y14420135D01*
X4595910Y14384488D01*
X4590598Y14362649D01*
X4588656Y14335102D01*
X4591987Y14304792D01*
X4601588Y14278718D01*
X4617126Y14255910D01*
X4638481Y14236476D01*
X4664363Y14221457D01*
X4696513Y14210062D01*
X4731758Y14203414D01*
X4773193Y14201049D01*
X4818265Y14203634D01*
X4854197Y14210684D01*
X4886200Y14222754D01*
X4910580Y14238125D01*
X4929967Y14257900D01*
X4943590Y14281173D01*
X4951627Y14307478D01*
X4954434Y14337959D01*
X4952658Y14365563D01*
X4947803Y14387528D01*
X4933148Y14423396D01*
X4918677Y14447979D01*
X4913525Y14457306D01*
X4912229Y14462963D01*
X4913877Y14469521D01*
X4920362Y14473587D01*
X4933918Y14476042D01*
X4957218Y14476885D01*
G37*
G36*
X4996090Y14883512D02*
G01*
X5015287Y14882267D01*
X5027817Y14878786D01*
X5034484Y14873657D01*
X5036500Y14867099D01*
X5036500Y14574447D01*
X5034484Y14568293D01*
X5027817Y14563163D01*
X5015287Y14559683D01*
X4996090Y14558474D01*
X4976489Y14559500D01*
X4963740Y14562760D01*
X4956669Y14567890D01*
X4954434Y14574447D01*
X4954434Y14673256D01*
X4607414Y14673256D01*
X4654308Y14588003D01*
X4659840Y14572616D01*
X4659705Y14567166D01*
X4657386Y14563200D01*
X4645332Y14558474D01*
X4621226Y14557265D01*
X4605069Y14557668D01*
X4594261Y14559720D01*
X4586897Y14564226D01*
X4580742Y14572029D01*
X4507213Y14685969D01*
X4504575Y14691098D01*
X4502927Y14699085D01*
X4502121Y14711981D01*
X4501901Y14732680D01*
X4502524Y14757886D01*
X4504575Y14772431D01*
X4508495Y14778989D01*
X4514650Y14780637D01*
X4954434Y14780637D01*
X4954434Y14867136D01*
X4956669Y14873877D01*
X4963740Y14879189D01*
X4976489Y14882487D01*
X4996090Y14883512D01*
G37*
G36*
X4992902Y15313990D02*
G01*
X5013089Y15312965D01*
X5026754Y15309887D01*
X5034265Y15304538D01*
X5036500Y15297174D01*
X5036500Y14992249D01*
X5034887Y14976679D01*
X5028549Y14966018D01*
X5014884Y14960083D01*
X4991620Y14958251D01*
X4968576Y14959460D01*
X4951466Y14963966D01*
X4936775Y14972392D01*
X4921058Y14985728D01*
X4822140Y15077502D01*
X4793725Y15103215D01*
X4770006Y15121759D01*
X4727068Y15147991D01*
X4707786Y15156168D01*
X4691274Y15160923D01*
X4660170Y15164404D01*
X4634232Y15160081D01*
X4622718Y15154726D01*
X4612872Y15147368D01*
X4604800Y15138027D01*
X4598548Y15126265D01*
X4594723Y15112888D01*
X4593345Y15096370D01*
X4594958Y15073003D01*
X4599464Y15053542D01*
X4613092Y15020752D01*
X4626904Y14997159D01*
X4631933Y14988033D01*
X4633206Y14982431D01*
X4630751Y14976056D01*
X4622508Y14971733D01*
X4607047Y14969095D01*
X4583344Y14968069D01*
X4567480Y14968692D01*
X4556379Y14970524D01*
X4548136Y14973821D01*
X4539673Y14980965D01*
X4527510Y14999833D01*
X4513441Y15033648D01*
X4501901Y15077905D01*
X4498401Y15102437D01*
X4497211Y15128354D01*
X4499984Y15168239D01*
X4507653Y15200674D01*
X4520447Y15229542D01*
X4536742Y15252111D01*
X4557122Y15270021D01*
X4580962Y15282666D01*
X4607277Y15290151D01*
X4636027Y15292705D01*
X4661687Y15291464D01*
X4686841Y15287759D01*
X4711918Y15280520D01*
X4740734Y15267279D01*
X4769810Y15249441D01*
X4804628Y15223425D01*
X4840538Y15192314D01*
X4885960Y15148430D01*
X4949744Y15086515D01*
X4949744Y15295562D01*
X4952199Y15303109D01*
X4959710Y15309081D01*
X4973155Y15312745D01*
X4992902Y15313990D01*
G37*
G36*
X7730015Y5500587D02*
G01*
X7735144Y5492820D01*
X7738002Y5474758D01*
X7738844Y5442408D01*
X7738002Y5414931D01*
X7734924Y5398737D01*
X7729172Y5390348D01*
X7720709Y5386244D01*
X7601641Y5338690D01*
X7565810Y5321874D01*
X7551125Y5313011D01*
X7539652Y5303666D01*
X7530404Y5292822D01*
X7523788Y5280512D01*
X7519843Y5266743D01*
X7518439Y5250177D01*
X7518439Y5216581D01*
X7721552Y5216581D01*
X7728952Y5213907D01*
X7734338Y5205114D01*
X7737599Y5188701D01*
X7738844Y5162469D01*
X7737599Y5136421D01*
X7734338Y5119824D01*
X7729026Y5111215D01*
X7721662Y5108760D01*
X7240589Y5108760D01*
X7224395Y5111308D01*
X7214577Y5117956D01*
X7208641Y5128117D01*
X7206590Y5140744D01*
X7206590Y5264941D01*
X7288656Y5264941D01*
X7288656Y5216581D01*
X7438719Y5216581D01*
X7438719Y5271499D01*
X7437258Y5293649D01*
X7433223Y5311653D01*
X7426405Y5327743D01*
X7417689Y5340339D01*
X7406665Y5350413D01*
X7393766Y5357558D01*
X7379282Y5361825D01*
X7362661Y5363310D01*
X7338008Y5360186D01*
X7318515Y5351403D01*
X7303618Y5336401D01*
X7293162Y5312495D01*
X7289901Y5293847D01*
X7288656Y5264941D01*
X7206590Y5264941D01*
X7206590Y5278057D01*
X7207433Y5312459D01*
X7209448Y5337078D01*
X7215699Y5367967D01*
X7224945Y5394634D01*
X7237842Y5418597D01*
X7253741Y5438085D01*
X7273023Y5453762D01*
X7295763Y5465342D01*
X7321146Y5472319D01*
X7351414Y5474795D01*
X7377215Y5473037D01*
X7399774Y5468017D01*
X7420572Y5459614D01*
X7438755Y5448160D01*
X7454626Y5433637D01*
X7468504Y5415773D01*
X7479784Y5395478D01*
X7488911Y5371920D01*
X7502906Y5394231D01*
X7522836Y5413905D01*
X7549544Y5431344D01*
X7583469Y5447317D01*
X7688286Y5491977D01*
X7711110Y5500184D01*
X7722394Y5502235D01*
X7730015Y5500587D01*
G37*
G36*
X7696090Y5910365D02*
G01*
X7715287Y5909120D01*
X7727817Y5905639D01*
X7734484Y5900510D01*
X7736500Y5893952D01*
X7736500Y5601300D01*
X7734484Y5595145D01*
X7727817Y5590016D01*
X7715287Y5586536D01*
X7696090Y5585327D01*
X7676489Y5586353D01*
X7663740Y5589613D01*
X7656669Y5594742D01*
X7654434Y5601300D01*
X7654434Y5700109D01*
X7307414Y5700109D01*
X7354308Y5614856D01*
X7359840Y5599468D01*
X7359705Y5594019D01*
X7357386Y5590053D01*
X7345332Y5585327D01*
X7321226Y5584118D01*
X7305069Y5584521D01*
X7294261Y5586572D01*
X7286897Y5591079D01*
X7280742Y5598882D01*
X7207213Y5712822D01*
X7204575Y5717951D01*
X7202927Y5725937D01*
X7202121Y5738833D01*
X7201901Y5759533D01*
X7202524Y5784739D01*
X7204575Y5799284D01*
X7208495Y5805841D01*
X7214650Y5807490D01*
X7654434Y5807490D01*
X7654434Y5893989D01*
X7656669Y5900730D01*
X7663740Y5906042D01*
X7676489Y5909339D01*
X7696090Y5910365D01*
G37*
G36*
X10391274Y2748361D02*
G01*
X10387528Y2701264D01*
X10376912Y2661166D01*
X10359037Y2625407D01*
X10334707Y2596063D01*
X10304043Y2572926D01*
X10265831Y2555543D01*
X10223042Y2545289D01*
X10171602Y2541622D01*
X10123116Y2544890D01*
X10081806Y2554115D01*
X10044675Y2570076D01*
X10014578Y2591960D01*
X9990573Y2620154D01*
X9972593Y2655231D01*
X9961895Y2695067D01*
X9958048Y2743855D01*
X9958048Y3066072D01*
X9960503Y3073399D01*
X9969296Y3078748D01*
X9985928Y3082009D01*
X10012160Y3083255D01*
X10037989Y3082009D01*
X10054402Y3078748D01*
X10063195Y3073436D01*
X10065869Y3066072D01*
X10065869Y2753783D01*
X10067943Y2723473D01*
X10073636Y2699195D01*
X10083333Y2677748D01*
X10095984Y2660983D01*
X10111899Y2647783D01*
X10130826Y2638268D01*
X10151892Y2632676D01*
X10176108Y2630721D01*
X10200670Y2632745D01*
X10221611Y2638488D01*
X10240260Y2648116D01*
X10255609Y2661166D01*
X10267811Y2677558D01*
X10277151Y2697949D01*
X10282750Y2720731D01*
X10284735Y2747628D01*
X10284735Y3066072D01*
X10287190Y3073436D01*
X10295799Y3078748D01*
X10312396Y3082009D01*
X10338408Y3083255D01*
X10364016Y3082009D01*
X10380210Y3078748D01*
X10388819Y3073399D01*
X10391274Y3066072D01*
X10391274Y2748361D01*
G37*
G36*
X10835674Y2591410D02*
G01*
X10834428Y2572213D01*
X10830948Y2559683D01*
X10825819Y2553016D01*
X10819261Y2551000D01*
X10526609Y2551000D01*
X10520454Y2553016D01*
X10515325Y2559683D01*
X10511844Y2572213D01*
X10510635Y2591410D01*
X10511661Y2611011D01*
X10514922Y2623760D01*
X10520051Y2630831D01*
X10526609Y2633066D01*
X10625417Y2633066D01*
X10625417Y2980086D01*
X10540164Y2933192D01*
X10524777Y2927660D01*
X10519328Y2927795D01*
X10515361Y2930114D01*
X10510635Y2942168D01*
X10509426Y2966274D01*
X10509829Y2982431D01*
X10511881Y2993239D01*
X10516387Y3000603D01*
X10524191Y3006758D01*
X10638130Y3080287D01*
X10643259Y3082925D01*
X10651246Y3084573D01*
X10664142Y3085379D01*
X10684842Y3085599D01*
X10710047Y3084976D01*
X10724592Y3082925D01*
X10731150Y3079005D01*
X10732799Y3072850D01*
X10732799Y2633066D01*
X10819297Y2633066D01*
X10826038Y2630831D01*
X10831351Y2623760D01*
X10834648Y2611011D01*
X10835674Y2591410D01*
G37*
G36*
X7330015Y16587803D02*
G01*
X7335144Y16580036D01*
X7338002Y16561974D01*
X7338844Y16529624D01*
X7338002Y16502147D01*
X7334924Y16485953D01*
X7329172Y16477564D01*
X7320709Y16473460D01*
X7201641Y16425906D01*
X7165810Y16409090D01*
X7151125Y16400227D01*
X7139652Y16390882D01*
X7130404Y16380038D01*
X7123788Y16367728D01*
X7119843Y16353959D01*
X7118439Y16337393D01*
X7118439Y16303797D01*
X7321552Y16303797D01*
X7328952Y16301123D01*
X7334338Y16292330D01*
X7337599Y16275917D01*
X7338844Y16249685D01*
X7337599Y16223637D01*
X7334338Y16207040D01*
X7329026Y16198431D01*
X7321662Y16195976D01*
X6840589Y16195976D01*
X6824395Y16198524D01*
X6814577Y16205172D01*
X6808641Y16215333D01*
X6806590Y16227960D01*
X6806590Y16352157D01*
X6888656Y16352157D01*
X6888656Y16303797D01*
X7038719Y16303797D01*
X7038719Y16358715D01*
X7037258Y16380865D01*
X7033223Y16398869D01*
X7026405Y16414959D01*
X7017689Y16427555D01*
X7006665Y16437629D01*
X6993766Y16444774D01*
X6979282Y16449041D01*
X6962661Y16450526D01*
X6938008Y16447402D01*
X6918515Y16438619D01*
X6903618Y16423617D01*
X6893162Y16399711D01*
X6889901Y16381063D01*
X6888656Y16352157D01*
X6806590Y16352157D01*
X6806590Y16365273D01*
X6807433Y16399675D01*
X6809448Y16424294D01*
X6815699Y16455183D01*
X6824945Y16481850D01*
X6837842Y16505813D01*
X6853741Y16525301D01*
X6873023Y16540978D01*
X6895763Y16552558D01*
X6921146Y16559535D01*
X6951414Y16562011D01*
X6977215Y16560253D01*
X6999774Y16555233D01*
X7020572Y16546830D01*
X7038755Y16535376D01*
X7054626Y16520853D01*
X7068504Y16502989D01*
X7079784Y16482694D01*
X7088911Y16459136D01*
X7102906Y16481447D01*
X7122836Y16501121D01*
X7149544Y16518560D01*
X7183469Y16534533D01*
X7288286Y16579193D01*
X7311110Y16587400D01*
X7322394Y16589451D01*
X7330015Y16587803D01*
G37*
G36*
X7296090Y16997581D02*
G01*
X7315287Y16996336D01*
X7327817Y16992855D01*
X7334484Y16987726D01*
X7336500Y16981168D01*
X7336500Y16688516D01*
X7334484Y16682361D01*
X7327817Y16677232D01*
X7315287Y16673752D01*
X7296090Y16672543D01*
X7276489Y16673569D01*
X7263740Y16676829D01*
X7256669Y16681958D01*
X7254434Y16688516D01*
X7254434Y16787325D01*
X6907414Y16787325D01*
X6954308Y16702072D01*
X6959840Y16686684D01*
X6959705Y16681235D01*
X6957386Y16677269D01*
X6945332Y16672543D01*
X6921226Y16671334D01*
X6905069Y16671737D01*
X6894261Y16673788D01*
X6886897Y16678295D01*
X6880742Y16686098D01*
X6807213Y16800038D01*
X6804575Y16805167D01*
X6802927Y16813153D01*
X6802121Y16826049D01*
X6801901Y16846749D01*
X6802524Y16871955D01*
X6804575Y16886500D01*
X6808495Y16893057D01*
X6814650Y16894706D01*
X7254434Y16894706D01*
X7254434Y16981205D01*
X7256669Y16987946D01*
X7263740Y16993258D01*
X7276489Y16996555D01*
X7296090Y16997581D01*
G37*
G36*
X7180392Y17425605D02*
G01*
X7218719Y17421671D01*
X7251210Y17410437D01*
X7279605Y17392284D01*
X7303050Y17368195D01*
X7321253Y17339040D01*
X7334961Y17303459D01*
X7343061Y17264681D01*
X7345878Y17221100D01*
X7341812Y17170249D01*
X7331810Y17128227D01*
X7319464Y17098112D01*
X7309792Y17082541D01*
X7302428Y17077009D01*
X7292829Y17073748D01*
X7278944Y17071697D01*
X7258684Y17071074D01*
X7240607Y17072083D01*
X7231536Y17074334D01*
X7225725Y17078611D01*
X7223952Y17084190D01*
X7229558Y17098331D01*
X7241538Y17123940D01*
X7253555Y17160393D01*
X7257655Y17182110D01*
X7259123Y17207984D01*
X7257718Y17229759D01*
X7253811Y17247735D01*
X7247247Y17263952D01*
X7238827Y17277044D01*
X7228089Y17287633D01*
X7215416Y17295069D01*
X7201096Y17299478D01*
X7184825Y17301004D01*
X7167044Y17299156D01*
X7151595Y17293823D01*
X7137987Y17284989D01*
X7126353Y17272501D01*
X7117305Y17257078D01*
X7110123Y17236854D01*
X7105912Y17214339D01*
X7104371Y17186259D01*
X7104371Y17140353D01*
X7102942Y17131341D01*
X7096934Y17125186D01*
X7084331Y17121705D01*
X7063485Y17120680D01*
X7043884Y17121705D01*
X7032087Y17124966D01*
X7026299Y17130718D01*
X7024650Y17139108D01*
X7024650Y17185416D01*
X7023229Y17208436D01*
X7019265Y17227621D01*
X7012518Y17244951D01*
X7003841Y17258579D01*
X6992723Y17269616D01*
X6979587Y17277630D01*
X6964769Y17282510D01*
X6948080Y17284188D01*
X6923057Y17279682D01*
X6911997Y17274073D01*
X6902614Y17266346D01*
X6895063Y17256528D01*
X6888986Y17243595D01*
X6885301Y17228948D01*
X6883966Y17210805D01*
X6885540Y17189955D01*
X6890158Y17170652D01*
X6903713Y17136836D01*
X6917452Y17111411D01*
X6923827Y17096060D01*
X6922398Y17090308D01*
X6916829Y17086205D01*
X6904849Y17083750D01*
X6884589Y17082944D01*
X6867443Y17083347D01*
X6856086Y17084996D01*
X6848246Y17088073D01*
X6840992Y17094008D01*
X6829415Y17110824D01*
X6814540Y17142771D01*
X6802267Y17187248D01*
X6798520Y17213051D01*
X6797211Y17241983D01*
X6799582Y17279266D01*
X6806187Y17310236D01*
X6817377Y17338091D01*
X6832016Y17360209D01*
X6850806Y17378017D01*
X6873525Y17390946D01*
X6899222Y17398710D01*
X6929066Y17401425D01*
X6952570Y17399846D01*
X6973872Y17395270D01*
X6993652Y17387607D01*
X7010875Y17377244D01*
X7025839Y17363971D01*
X7038535Y17347532D01*
X7048372Y17328665D01*
X7055645Y17306353D01*
X7056890Y17306353D01*
X7062207Y17333194D01*
X7071105Y17356362D01*
X7083539Y17377003D01*
X7098473Y17393841D01*
X7116029Y17407434D01*
X7135732Y17417398D01*
X7157101Y17423519D01*
X7180392Y17425605D01*
G37*
G36*
X16530015Y15600587D02*
G01*
X16535144Y15592820D01*
X16538002Y15574758D01*
X16538844Y15542408D01*
X16538002Y15514931D01*
X16534924Y15498737D01*
X16529172Y15490348D01*
X16520709Y15486244D01*
X16401641Y15438690D01*
X16365810Y15421874D01*
X16351125Y15413011D01*
X16339652Y15403666D01*
X16330404Y15392822D01*
X16323788Y15380512D01*
X16319843Y15366743D01*
X16318439Y15350177D01*
X16318439Y15316581D01*
X16521552Y15316581D01*
X16528952Y15313907D01*
X16534338Y15305114D01*
X16537599Y15288701D01*
X16538844Y15262469D01*
X16537599Y15236421D01*
X16534338Y15219824D01*
X16529026Y15211215D01*
X16521662Y15208760D01*
X16040589Y15208760D01*
X16024395Y15211308D01*
X16014577Y15217956D01*
X16008641Y15228117D01*
X16006590Y15240744D01*
X16006590Y15364941D01*
X16088656Y15364941D01*
X16088656Y15316581D01*
X16238719Y15316581D01*
X16238719Y15371499D01*
X16237258Y15393649D01*
X16233223Y15411653D01*
X16226405Y15427743D01*
X16217689Y15440339D01*
X16206665Y15450413D01*
X16193766Y15457558D01*
X16179282Y15461825D01*
X16162661Y15463310D01*
X16138008Y15460186D01*
X16118515Y15451403D01*
X16103618Y15436401D01*
X16093162Y15412495D01*
X16089901Y15393847D01*
X16088656Y15364941D01*
X16006590Y15364941D01*
X16006590Y15378057D01*
X16007433Y15412459D01*
X16009448Y15437078D01*
X16015699Y15467967D01*
X16024945Y15494634D01*
X16037842Y15518597D01*
X16053741Y15538085D01*
X16073023Y15553762D01*
X16095763Y15565342D01*
X16121146Y15572319D01*
X16151414Y15574795D01*
X16177215Y15573037D01*
X16199774Y15568017D01*
X16220572Y15559614D01*
X16238755Y15548160D01*
X16254626Y15533637D01*
X16268504Y15515773D01*
X16279784Y15495478D01*
X16288911Y15471920D01*
X16302906Y15494231D01*
X16322836Y15513905D01*
X16349544Y15531344D01*
X16383469Y15547317D01*
X16488286Y15591977D01*
X16511110Y15600184D01*
X16522394Y15602235D01*
X16530015Y15600587D01*
G37*
G36*
X16380392Y16012820D02*
G01*
X16418719Y16008886D01*
X16451210Y15997652D01*
X16479605Y15979499D01*
X16503050Y15955411D01*
X16521253Y15926255D01*
X16534961Y15890674D01*
X16543061Y15851896D01*
X16545878Y15808315D01*
X16541812Y15757464D01*
X16531810Y15715442D01*
X16519464Y15685327D01*
X16509792Y15669756D01*
X16502428Y15664224D01*
X16492829Y15660964D01*
X16478944Y15658912D01*
X16458684Y15658289D01*
X16440607Y15659298D01*
X16431536Y15661550D01*
X16425725Y15665826D01*
X16423952Y15671405D01*
X16429558Y15685547D01*
X16441538Y15711155D01*
X16453555Y15747609D01*
X16457655Y15769325D01*
X16459123Y15795199D01*
X16457718Y15816974D01*
X16453811Y15834950D01*
X16447247Y15851167D01*
X16438827Y15864259D01*
X16428089Y15874848D01*
X16415416Y15882284D01*
X16401096Y15886693D01*
X16384825Y15888219D01*
X16367044Y15886372D01*
X16351595Y15881039D01*
X16337987Y15872204D01*
X16326353Y15859716D01*
X16317305Y15844293D01*
X16310123Y15824069D01*
X16305912Y15801554D01*
X16304371Y15773474D01*
X16304371Y15727569D01*
X16302942Y15718556D01*
X16296934Y15712401D01*
X16284331Y15708921D01*
X16263485Y15707895D01*
X16243884Y15708921D01*
X16232087Y15712181D01*
X16226299Y15717933D01*
X16224650Y15726323D01*
X16224650Y15772631D01*
X16223229Y15795652D01*
X16219265Y15814837D01*
X16212518Y15832166D01*
X16203841Y15845794D01*
X16192723Y15856831D01*
X16179587Y15864845D01*
X16164769Y15869725D01*
X16148080Y15871403D01*
X16123057Y15866897D01*
X16111997Y15861288D01*
X16102614Y15853561D01*
X16095063Y15843743D01*
X16088986Y15830810D01*
X16085301Y15816163D01*
X16083966Y15798020D01*
X16085540Y15777170D01*
X16090158Y15757867D01*
X16103713Y15724051D01*
X16117452Y15698626D01*
X16123827Y15683275D01*
X16122398Y15677523D01*
X16116829Y15673420D01*
X16104849Y15670965D01*
X16084589Y15670159D01*
X16067443Y15670562D01*
X16056086Y15672211D01*
X16048246Y15675288D01*
X16040992Y15681224D01*
X16029415Y15698040D01*
X16014540Y15729987D01*
X16002267Y15774463D01*
X15998520Y15800266D01*
X15997211Y15829198D01*
X15999582Y15866481D01*
X16006187Y15897452D01*
X16017377Y15925306D01*
X16032016Y15947424D01*
X16050806Y15965233D01*
X16073525Y15978162D01*
X16099222Y15985925D01*
X16129066Y15988640D01*
X16152570Y15987062D01*
X16173872Y15982485D01*
X16193652Y15974823D01*
X16210875Y15964460D01*
X16225839Y15951187D01*
X16238535Y15934748D01*
X16248372Y15915880D01*
X16255645Y15893568D01*
X16256890Y15893568D01*
X16262207Y15920410D01*
X16271105Y15943577D01*
X16283539Y15964218D01*
X16298473Y15981056D01*
X16316029Y15994650D01*
X16335732Y16004613D01*
X16357101Y16010734D01*
X16380392Y16012820D01*
G37*
G36*
X3157218Y8376885D02*
G01*
X3174474Y8376262D01*
X3186637Y8374393D01*
X3195357Y8371133D01*
X3203710Y8364575D01*
X3215837Y8347173D01*
X3230051Y8315629D01*
X3241336Y8272984D01*
X3244704Y8248486D01*
X3245878Y8221143D01*
X3243912Y8185103D01*
X3238228Y8152455D01*
X3229062Y8122774D01*
X3215873Y8094802D01*
X3199149Y8070049D01*
X3178760Y8048183D01*
X3155185Y8029678D01*
X3127513Y8013936D01*
X3095193Y8001032D01*
X3061397Y7992220D01*
X3022737Y7986627D01*
X2978542Y7984655D01*
X2933599Y7986799D01*
X2893682Y7992929D01*
X2858192Y8002680D01*
X2824230Y8016692D01*
X2794977Y8033520D01*
X2769898Y8053092D01*
X2748012Y8076104D01*
X2730006Y8101894D01*
X2715713Y8130761D01*
X2705568Y8161472D01*
X2699346Y8194622D01*
X2697211Y8230595D01*
X2700985Y8273204D01*
X2710840Y8311122D01*
X2724835Y8342483D01*
X2738464Y8361937D01*
X2747806Y8369521D01*
X2757295Y8372781D01*
X2770887Y8374650D01*
X2790231Y8375273D01*
X2811260Y8374430D01*
X2825256Y8371572D01*
X2833096Y8366663D01*
X2835550Y8360105D01*
X2834044Y8353818D01*
X2828296Y8344535D01*
X2812103Y8320135D01*
X2795910Y8284488D01*
X2790598Y8262649D01*
X2788656Y8235102D01*
X2791987Y8204792D01*
X2801588Y8178718D01*
X2817126Y8155910D01*
X2838481Y8136476D01*
X2864363Y8121457D01*
X2896513Y8110062D01*
X2931758Y8103414D01*
X2973193Y8101049D01*
X3018265Y8103634D01*
X3054197Y8110684D01*
X3086200Y8122754D01*
X3110580Y8138125D01*
X3129967Y8157900D01*
X3143590Y8181173D01*
X3151627Y8207478D01*
X3154434Y8237959D01*
X3152658Y8265563D01*
X3147803Y8287528D01*
X3133148Y8323396D01*
X3118677Y8347979D01*
X3113525Y8357306D01*
X3112229Y8362963D01*
X3113877Y8369521D01*
X3120362Y8373587D01*
X3133918Y8376042D01*
X3157218Y8376885D01*
G37*
G36*
X3196090Y8783512D02*
G01*
X3215287Y8782267D01*
X3227817Y8778786D01*
X3234484Y8773657D01*
X3236500Y8767099D01*
X3236500Y8474447D01*
X3234484Y8468293D01*
X3227817Y8463163D01*
X3215287Y8459683D01*
X3196090Y8458474D01*
X3176489Y8459500D01*
X3163740Y8462760D01*
X3156669Y8467890D01*
X3154434Y8474447D01*
X3154434Y8573256D01*
X2807414Y8573256D01*
X2854308Y8488003D01*
X2859840Y8472616D01*
X2859705Y8467166D01*
X2857386Y8463200D01*
X2845332Y8458474D01*
X2821226Y8457265D01*
X2805069Y8457668D01*
X2794261Y8459720D01*
X2786897Y8464226D01*
X2780742Y8472029D01*
X2707213Y8585969D01*
X2704575Y8591098D01*
X2702927Y8599085D01*
X2702121Y8611981D01*
X2701901Y8632680D01*
X2702524Y8657886D01*
X2704575Y8672431D01*
X2708495Y8678989D01*
X2714650Y8680637D01*
X3154434Y8680637D01*
X3154434Y8767136D01*
X3156669Y8773877D01*
X3163740Y8779189D01*
X3176489Y8782487D01*
X3196090Y8783512D01*
G37*
G36*
X3099000Y9219045D02*
G01*
X3134137Y9209887D01*
X3166099Y9194617D01*
X3192975Y9173837D01*
X3214831Y9147622D01*
X3231810Y9115219D01*
X3242190Y9078680D01*
X3245878Y9034875D01*
X3243633Y8999326D01*
X3237452Y8970541D01*
X3227048Y8944593D01*
X3213309Y8922987D01*
X3195863Y8904777D01*
X3174987Y8890198D01*
X3151412Y8878952D01*
X3124172Y8869938D01*
X3095173Y8863612D01*
X3062733Y8859460D01*
X2992244Y8856602D01*
X2927105Y8859680D01*
X2893360Y8864191D01*
X2860317Y8871550D01*
X2828272Y8882175D01*
X2797815Y8896353D01*
X2769946Y8914639D01*
X2745791Y8937532D01*
X2726022Y8964956D01*
X2710327Y8998605D01*
X2700708Y9036419D01*
X2697211Y9083675D01*
X2699043Y9114999D01*
X2703733Y9144308D01*
X2710290Y9167279D01*
X2716629Y9179772D01*
X2722527Y9184498D01*
X2729671Y9187173D01*
X2739270Y9188601D01*
X2753155Y9189004D01*
X2774184Y9188382D01*
X2787264Y9186110D01*
X2794041Y9181604D01*
X2796093Y9174643D01*
X2793419Y9161930D01*
X2787483Y9143099D01*
X2781732Y9117050D01*
X2779277Y9082429D01*
X2782574Y9050937D01*
X2791697Y9026265D01*
X2806379Y9005444D01*
X2825475Y8988969D01*
X2848149Y8976740D01*
X2874971Y8968087D01*
X2903619Y8963099D01*
X2934286Y8961126D01*
X2922818Y8981825D01*
X2913000Y9007214D01*
X2906222Y9036927D01*
X2905479Y9046379D01*
X2985613Y9046379D01*
X2987665Y9023847D01*
X2993380Y9002122D01*
X3002173Y8981606D01*
X3012981Y8963177D01*
X3054928Y8964532D01*
X3085960Y8968087D01*
X3113399Y8974574D01*
X3132342Y8982631D01*
X3147315Y8993795D01*
X3156669Y9006811D01*
X3161950Y9022198D01*
X3163813Y9040627D01*
X3162002Y9058687D01*
X3156889Y9073636D01*
X3148501Y9086594D01*
X3137251Y9097193D01*
X3123705Y9105412D01*
X3107613Y9111555D01*
X3090171Y9115198D01*
X3070610Y9116464D01*
X3034047Y9112764D01*
X3019238Y9107834D01*
X3007485Y9100894D01*
X2998049Y9091454D01*
X2991145Y9079168D01*
X2987097Y9064797D01*
X2985613Y9046379D01*
X2905479Y9046379D01*
X2903548Y9070962D01*
X2906498Y9109434D01*
X2914575Y9139802D01*
X2928185Y9166234D01*
X2946046Y9186733D01*
X2968300Y9202403D01*
X2995468Y9213587D01*
X3025463Y9219957D01*
X3060022Y9222197D01*
X3099000Y9219045D01*
G37*
G36*
X2477218Y3552210D02*
G01*
X2494474Y3551587D01*
X2506637Y3549718D01*
X2515357Y3546458D01*
X2523710Y3539900D01*
X2535837Y3522498D01*
X2550051Y3490954D01*
X2561336Y3448309D01*
X2564704Y3423811D01*
X2565878Y3396468D01*
X2563912Y3360428D01*
X2558228Y3327780D01*
X2549062Y3298099D01*
X2535873Y3270127D01*
X2519149Y3245374D01*
X2498760Y3223508D01*
X2475185Y3205003D01*
X2447513Y3189261D01*
X2415193Y3176357D01*
X2381397Y3167545D01*
X2342737Y3161952D01*
X2298542Y3159980D01*
X2253599Y3162124D01*
X2213682Y3168254D01*
X2178192Y3178005D01*
X2144230Y3192017D01*
X2114977Y3208845D01*
X2089898Y3228417D01*
X2068012Y3251429D01*
X2050006Y3277219D01*
X2035713Y3306086D01*
X2025568Y3336797D01*
X2019346Y3369947D01*
X2017211Y3405920D01*
X2020985Y3448529D01*
X2030840Y3486447D01*
X2044835Y3517808D01*
X2058464Y3537262D01*
X2067806Y3544846D01*
X2077295Y3548106D01*
X2090887Y3549975D01*
X2110231Y3550598D01*
X2131260Y3549755D01*
X2145256Y3546897D01*
X2153096Y3541988D01*
X2155550Y3535430D01*
X2154044Y3529143D01*
X2148296Y3519860D01*
X2132103Y3495460D01*
X2115910Y3459813D01*
X2110598Y3437974D01*
X2108656Y3410427D01*
X2111987Y3380117D01*
X2121588Y3354043D01*
X2137126Y3331235D01*
X2158481Y3311801D01*
X2184363Y3296782D01*
X2216513Y3285387D01*
X2251758Y3278739D01*
X2293193Y3276374D01*
X2338265Y3278959D01*
X2374197Y3286009D01*
X2406200Y3298079D01*
X2430580Y3313450D01*
X2449967Y3333225D01*
X2463590Y3356498D01*
X2471627Y3382803D01*
X2474434Y3413284D01*
X2472658Y3440888D01*
X2467803Y3462853D01*
X2453148Y3498721D01*
X2438677Y3523304D01*
X2433525Y3532631D01*
X2432229Y3538288D01*
X2433877Y3544846D01*
X2440362Y3548912D01*
X2453918Y3551367D01*
X2477218Y3552210D01*
G37*
G36*
X2329157Y4099003D02*
G01*
X2368295Y4093425D01*
X2403323Y4084537D01*
X2436869Y4071544D01*
X2466126Y4055277D01*
X2491580Y4035774D01*
X2513679Y4012658D01*
X2532071Y3986083D01*
X2546864Y3955650D01*
X2557153Y3923290D01*
X2563615Y3886684D01*
X2565878Y3845191D01*
X2563931Y3804098D01*
X2558412Y3768308D01*
X2549722Y3737150D01*
X2536825Y3707726D01*
X2520398Y3682269D01*
X2500372Y3660324D01*
X2476941Y3641981D01*
X2449049Y3626571D01*
X2416035Y3614199D01*
X2381589Y3605990D01*
X2341447Y3600721D01*
X2294806Y3598848D01*
X2252180Y3600780D01*
X2213795Y3606336D01*
X2179181Y3615224D01*
X2146027Y3628222D01*
X2117045Y3644498D01*
X2091766Y3664024D01*
X2069763Y3687122D01*
X2051367Y3713697D01*
X2036482Y3744148D01*
X2026061Y3776523D01*
X2019509Y3813254D01*
X2017413Y3851346D01*
X2106311Y3851346D01*
X2110296Y3813724D01*
X2121222Y3784924D01*
X2138689Y3760785D01*
X2161046Y3741876D01*
X2187585Y3728088D01*
X2219261Y3718722D01*
X2253109Y3713705D01*
X2289713Y3711981D01*
X2331889Y3713712D01*
X2367529Y3718539D01*
X2400247Y3727617D01*
X2426550Y3740667D01*
X2448133Y3758888D01*
X2463919Y3782470D01*
X2473302Y3810771D01*
X2476779Y3848452D01*
X2472849Y3886090D01*
X2462087Y3914874D01*
X2444690Y3938969D01*
X2422044Y3957885D01*
X2395106Y3971693D01*
X2363023Y3981039D01*
X2328691Y3986080D01*
X2291325Y3987817D01*
X2250658Y3986099D01*
X2215561Y3981259D01*
X2183243Y3972137D01*
X2157162Y3958911D01*
X2135664Y3940577D01*
X2119610Y3916925D01*
X2109890Y3888640D01*
X2106311Y3851346D01*
X2017413Y3851346D01*
X2017211Y3855010D01*
X2019120Y3894982D01*
X2024560Y3930243D01*
X2033185Y3961365D01*
X2045948Y3990817D01*
X2062300Y4016361D01*
X2082314Y4038448D01*
X2105736Y4056984D01*
X2133448Y4072582D01*
X2166065Y4085160D01*
X2200123Y4093617D01*
X2239640Y4099030D01*
X2285390Y4100950D01*
X2329157Y4099003D01*
G37*
G36*
X2518031Y4629211D02*
G01*
X2534811Y4625913D01*
X2547084Y4617121D01*
X2554265Y4604005D01*
X2556500Y4588618D01*
X2556500Y4542712D01*
X2553678Y4517909D01*
X2549744Y4507948D01*
X2543420Y4498639D01*
X2523234Y4481639D01*
X2489675Y4463174D01*
X2243148Y4331210D01*
X2195667Y4307836D01*
X2146172Y4286550D01*
X2146172Y4285708D01*
X2204753Y4288162D01*
X2264947Y4289005D01*
X2541295Y4289005D01*
X2548659Y4286733D01*
X2554155Y4278966D01*
X2557599Y4263982D01*
X2558844Y4239802D01*
X2557599Y4216025D01*
X2554155Y4201261D01*
X2548623Y4193897D01*
X2541222Y4191845D01*
X2065058Y4191845D01*
X2047732Y4194857D01*
X2036226Y4203092D01*
X2029061Y4215481D01*
X2026590Y4230790D01*
X2026590Y4288602D01*
X2029265Y4314797D01*
X2038057Y4333848D01*
X2055057Y4349638D01*
X2081655Y4364842D01*
X2274582Y4468120D01*
X2309057Y4485926D01*
X2342909Y4502962D01*
X2376175Y4518935D01*
X2408781Y4534103D01*
X2408781Y4534506D01*
X2349137Y4532674D01*
X2289860Y4532051D01*
X2041831Y4532051D01*
X2034467Y4534506D01*
X2028752Y4542712D01*
X2025271Y4557880D01*
X2024245Y4582060D01*
X2025271Y4605434D01*
X2028752Y4619978D01*
X2034504Y4627159D01*
X2041868Y4629211D01*
X2518031Y4629211D01*
G37*
G36*
X2516090Y5073757D02*
G01*
X2535287Y5072512D01*
X2547817Y5069031D01*
X2554484Y5063902D01*
X2556500Y5057344D01*
X2556500Y4764692D01*
X2554484Y4758537D01*
X2547817Y4753408D01*
X2535287Y4749928D01*
X2516090Y4748719D01*
X2496489Y4749745D01*
X2483740Y4753005D01*
X2476669Y4758134D01*
X2474434Y4764692D01*
X2474434Y4863501D01*
X2127414Y4863501D01*
X2174308Y4778248D01*
X2179840Y4762860D01*
X2179705Y4757411D01*
X2177386Y4753445D01*
X2165332Y4748719D01*
X2141226Y4747510D01*
X2125069Y4747913D01*
X2114261Y4749964D01*
X2106897Y4754471D01*
X2100742Y4762274D01*
X2027213Y4876214D01*
X2024575Y4881343D01*
X2022927Y4889329D01*
X2022121Y4902225D01*
X2021901Y4922925D01*
X2022524Y4948131D01*
X2024575Y4962675D01*
X2028495Y4969233D01*
X2034650Y4970882D01*
X2474434Y4970882D01*
X2474434Y5057381D01*
X2476669Y5064122D01*
X2483740Y5069434D01*
X2496489Y5072731D01*
X2516090Y5073757D01*
G37*
D11*
%TO.C,C4*%
X12987500Y2900000D02*
X12987500Y1900000D01*
X12987500Y1900000D02*
X13487500Y1900000D01*
X13487500Y2900000D02*
X12987500Y2900000D01*
X13487500Y1900000D02*
X13487500Y2900000D01*
%TO.C,R12*%
X17262500Y11920000D02*
X17262500Y11480000D01*
X17262500Y11480000D02*
X18312500Y11480000D01*
X18312500Y11920000D02*
X17262500Y11920000D01*
X18312500Y11480000D02*
X18312500Y11920000D01*
%TO.C,R2*%
X11762500Y5320000D02*
X11762500Y4880000D01*
X11762500Y4880000D02*
X12812500Y4880000D01*
X12812500Y5320000D02*
X11762500Y5320000D01*
X12812500Y4880000D02*
X12812500Y5320000D01*
%TO.C,C10*%
X2337500Y13900000D02*
X2337500Y12900000D01*
X2337500Y12900000D02*
X2837500Y12900000D01*
X2837500Y13900000D02*
X2337500Y13900000D01*
X2837500Y12900000D02*
X2837500Y13900000D01*
D12*
%TO.C,Q1*%
X14247500Y17980000D02*
X17167500Y17980000D01*
X14247500Y16680000D02*
X14247500Y17980000D01*
X17167500Y17980000D02*
X17167500Y16680000D01*
X17167500Y16680000D02*
X14247500Y16680000D01*
%TO.C,U2*%
X6687500Y12250000D02*
X6687500Y7750000D01*
X6687500Y7750000D02*
X13287500Y7750000D01*
X13287500Y12250000D02*
X6687500Y12250000D01*
X13287500Y7750000D02*
X13287500Y12250000D01*
D13*
X6587500Y13800000D02*
G75*
G02*
X6387500Y13800000I-100000J0D01*
G01*
X6387500Y13800000D02*
G75*
G02*
X6587500Y13800000I100000J0D01*
G01*
D11*
%TO.C,R7*%
X14967500Y10525000D02*
X14967500Y9475000D01*
X14967500Y9475000D02*
X15407500Y9475000D01*
X15407500Y10525000D02*
X14967500Y10525000D01*
X15407500Y9475000D02*
X15407500Y10525000D01*
%TO.C,C5*%
X10237500Y15700000D02*
X10237500Y14700000D01*
X10237500Y14700000D02*
X10737500Y14700000D01*
X10737500Y15700000D02*
X10237500Y15700000D01*
X10737500Y14700000D02*
X10737500Y15700000D01*
%TO.C,C2*%
X6487500Y1920000D02*
X6487500Y1420000D01*
X6487500Y1420000D02*
X7487500Y1420000D01*
X7487500Y1920000D02*
X6487500Y1920000D01*
X7487500Y1420000D02*
X7487500Y1920000D01*
%TO.C,C11*%
X3437500Y13900000D02*
X3437500Y12900000D01*
X3437500Y12900000D02*
X3937500Y12900000D01*
X3937500Y13900000D02*
X3437500Y13900000D01*
X3937500Y12900000D02*
X3937500Y13900000D01*
%TO.C,C13*%
X3787500Y10450000D02*
X3787500Y9950000D01*
X3787500Y9950000D02*
X4787500Y9950000D01*
X4787500Y10450000D02*
X3787500Y10450000D01*
X4787500Y9950000D02*
X4787500Y10450000D01*
D12*
%TO.C,FB1*%
X6457500Y3050000D02*
X6457500Y2490000D01*
X7517500Y3050000D02*
X6457500Y3050000D01*
X7517500Y3050000D02*
X7517500Y2490000D01*
X7517500Y2490000D02*
X6457500Y2490000D01*
D11*
%TO.C,R10*%
X11557500Y15725000D02*
X11557500Y14675000D01*
X11557500Y14675000D02*
X11997500Y14675000D01*
X11997500Y15725000D02*
X11557500Y15725000D01*
X11997500Y14675000D02*
X11997500Y15725000D01*
%TO.C,C6*%
X8087500Y16350000D02*
X8087500Y15850000D01*
X8087500Y15850000D02*
X9087500Y15850000D01*
X9087500Y16350000D02*
X8087500Y16350000D01*
X9087500Y15850000D02*
X9087500Y16350000D01*
%TO.C,C1*%
X6137500Y4850000D02*
X6137500Y3850000D01*
X6137500Y3850000D02*
X6637500Y3850000D01*
X6637500Y4850000D02*
X6137500Y4850000D01*
X6637500Y3850000D02*
X6637500Y4850000D01*
%TO.C,R11*%
X15162500Y11920000D02*
X15162500Y11480000D01*
X15162500Y11480000D02*
X16212500Y11480000D01*
X16212500Y11920000D02*
X15162500Y11920000D01*
X16212500Y11480000D02*
X16212500Y11920000D01*
%TO.C,C8*%
X14837500Y7500000D02*
X14837500Y6500000D01*
X14837500Y6500000D02*
X15337500Y6500000D01*
X15337500Y7500000D02*
X14837500Y7500000D01*
X15337500Y6500000D02*
X15337500Y7500000D01*
%TO.C,R9*%
X9662500Y5320000D02*
X9662500Y4880000D01*
X9662500Y4880000D02*
X10712500Y4880000D01*
X10712500Y5320000D02*
X9662500Y5320000D01*
X10712500Y4880000D02*
X10712500Y5320000D01*
%TO.C,C9*%
X15937500Y7500000D02*
X15937500Y6500000D01*
X15937500Y6500000D02*
X16437500Y6500000D01*
X16437500Y7500000D02*
X15937500Y7500000D01*
X16437500Y6500000D02*
X16437500Y7500000D01*
%TO.C,C14*%
X3787500Y11550000D02*
X3787500Y11050000D01*
X3787500Y11050000D02*
X4787500Y11050000D01*
X4787500Y11550000D02*
X3787500Y11550000D01*
X4787500Y11050000D02*
X4787500Y11550000D01*
%TO.C,R4*%
X17067500Y10625000D02*
X17067500Y9575000D01*
X17067500Y9575000D02*
X17507500Y9575000D01*
X17507500Y10625000D02*
X17067500Y10625000D01*
X17507500Y9575000D02*
X17507500Y10625000D01*
%TO.C,C7*%
X8087500Y15250000D02*
X8087500Y14750000D01*
X8087500Y14750000D02*
X9087500Y14750000D01*
X9087500Y15250000D02*
X8087500Y15250000D01*
X9087500Y14750000D02*
X9087500Y15250000D01*
%TO.C,C15*%
X4537500Y9100000D02*
X4537500Y8100000D01*
X4537500Y8100000D02*
X5037500Y8100000D01*
X5037500Y9100000D02*
X4537500Y9100000D01*
X5037500Y8100000D02*
X5037500Y9100000D01*
%TO.C,R6*%
X14967500Y15025000D02*
X14967500Y13975000D01*
X14967500Y13975000D02*
X15407500Y13975000D01*
X15407500Y15025000D02*
X14967500Y15025000D01*
X15407500Y13975000D02*
X15407500Y15025000D01*
%TO.C,C3*%
X14137500Y2900000D02*
X14137500Y1900000D01*
X14137500Y1900000D02*
X14637500Y1900000D01*
X14637500Y2900000D02*
X14137500Y2900000D01*
X14637500Y1900000D02*
X14637500Y2900000D01*
%TO.C,R5*%
X17067500Y8525000D02*
X17067500Y7475000D01*
X17067500Y7475000D02*
X17507500Y7475000D01*
X17507500Y8525000D02*
X17067500Y8525000D01*
X17507500Y7475000D02*
X17507500Y8525000D01*
X13817500Y15025000D02*
X13817500Y13975000D01*
X13917500Y13975000D02*
G75*
G02*
X13817500Y13975000I-50000J0D01*
G01*
X13917500Y13975000D02*
X13917500Y15025000D01*
X13917500Y15025000D02*
G75*
G03*
X13817500Y15025000I-50000J0D01*
G01*
X13867500Y13925000D02*
X14307500Y13925000D01*
X14307500Y14025000D02*
G75*
G02*
X14307500Y13925000I0J-50000D01*
G01*
X14307500Y14025000D02*
X13867500Y14025000D01*
X13867500Y14025000D02*
G75*
G03*
X13867500Y13925000I0J-50000D01*
G01*
X14307500Y15075000D02*
X13867500Y15075000D01*
X13867500Y14975000D02*
G75*
G02*
X13867500Y15075000I0J50000D01*
G01*
X13867500Y14975000D02*
X14307500Y14975000D01*
X14307500Y14975000D02*
G75*
G03*
X14307500Y15075000I0J50000D01*
G01*
X14357500Y13975000D02*
X14357500Y15025000D01*
X14257500Y15025000D02*
G75*
G02*
X14357500Y15025000I50000J0D01*
G01*
X14257500Y15025000D02*
X14257500Y13975000D01*
X14257500Y13975000D02*
G75*
G03*
X14357500Y13975000I50000J0D01*
G01*
%TO.C,C12*%
X4537500Y13900000D02*
X4537500Y12900000D01*
X4537500Y12900000D02*
X5037500Y12900000D01*
X5037500Y13900000D02*
X4537500Y13900000D01*
X5037500Y12900000D02*
X5037500Y13900000D01*
%TO.C,R1*%
X7267500Y4925000D02*
X7267500Y3875000D01*
X7267500Y3875000D02*
X7707500Y3875000D01*
X7707500Y4925000D02*
X7267500Y4925000D01*
X7707500Y3875000D02*
X7707500Y4925000D01*
D12*
%TO.C,U1*%
X9587500Y4250000D02*
X9587500Y1350000D01*
X9587500Y1350000D02*
X11187500Y1350000D01*
X11187500Y4250000D02*
X9587500Y4250000D01*
X11187500Y1350000D02*
X11187500Y4250000D01*
D13*
X9137500Y1250000D02*
G75*
G02*
X8937500Y1250000I-100000J0D01*
G01*
X8937500Y1250000D02*
G75*
G02*
X9137500Y1250000I100000J0D01*
G01*
D11*
%TO.C,R13*%
X6867500Y16025000D02*
X6867500Y14975000D01*
X6867500Y14975000D02*
X7307500Y14975000D01*
X7307500Y16025000D02*
X6867500Y16025000D01*
X7307500Y14975000D02*
X7307500Y16025000D01*
%TO.C,R3*%
X16067500Y15025000D02*
X16067500Y13975000D01*
X16067500Y13975000D02*
X16507500Y13975000D01*
X16507500Y15025000D02*
X16067500Y15025000D01*
X16507500Y13975000D02*
X16507500Y15025000D01*
%TO.C,C16*%
X3437500Y9100000D02*
X3437500Y8100000D01*
X3437500Y8100000D02*
X3937500Y8100000D01*
X3937500Y9100000D02*
X3437500Y9100000D01*
X3937500Y8100000D02*
X3937500Y9100000D01*
%TD*%
X13662500Y15425000D02*
X14512500Y13575000D01*
X13662500Y13575000D02*
X14512500Y15425000D01*
M02*
