%TF.GenerationSoftware,KiCad,Pcbnew,10.0.1*%
%TF.CreationDate,2026-05-08T14:46:53+05:30*%
%TF.ProjectId,X-Vision-HW,582d5669-7369-46f6-9e2d-48572e6b6963,rev?*%
%TF.SameCoordinates,PXd1d0ac3PY5111b03*%
%TF.FileFunction,Copper,L2,Inr*%
%TF.FilePolarity,Positive*%
%FSLAX45Y45*%
G04 Gerber Fmt 4.5, Leading zero omitted, Abs format (unit mm)*
G04 Created by KiCad (PCBNEW 10.0.1) date 2026-05-08 14:46:53*
%MOMM*%
%LPD*%
G01*
G04 APERTURE LIST*
G04 Aperture macros list*
%AMRoundRect*
0 Rectangle with rounded corners*
0 $1 Rounding radius*
0 $2 $3 $4 $5 $6 $7 $8 $9 X,Y pos of 4 corners*
0 Add a 4 corners polygon primitive as box body*
4,1,4,$2,$3,$4,$5,$6,$7,$8,$9,$2,$3,0*
0 Add four circle primitives for the rounded corners*
1,1,$1+$1,$2,$3*
1,1,$1+$1,$4,$5*
1,1,$1+$1,$6,$7*
1,1,$1+$1,$8,$9*
0 Add four rect primitives between the rounded corners*
20,1,$1+$1,$2,$3,$4,$5,0*
20,1,$1+$1,$4,$5,$6,$7,0*
20,1,$1+$1,$6,$7,$8,$9,0*
20,1,$1+$1,$8,$9,$2,$3,0*%
G04 Aperture macros list end*
%TA.AperFunction,ComponentPad*%
%ADD10RoundRect,0.250000X0.400000X-0.250000X0.400000X0.250000X-0.400000X0.250000X-0.400000X-0.250000X0*%
%TD*%
%TA.AperFunction,ViaPad*%
%ADD11C,0.482600*%
%TD*%
%TA.AperFunction,ViaPad*%
%ADD12C,0.600000*%
%TD*%
G04 APERTURE END LIST*
D10*
%TO.N,/FC_I2C_SDA*%
%TO.C,CON1*%
X437539Y227711D03*
%TO.N,/FC_I2C_SCL*%
X437539Y352711D03*
%TO.N,3v3*%
X437539Y477711D03*
%TO.N,GND*%
X437539Y602711D03*
%TD*%
D11*
%TO.N,GND*%
X1951289Y1002711D03*
X1601289Y52711D03*
X1951289Y202711D03*
X51289Y1202711D03*
X401289Y1952711D03*
X1625289Y1255711D03*
X801289Y1952711D03*
X1359289Y1268711D03*
X201289Y1952711D03*
X51289Y602711D03*
X51289Y202711D03*
X1801289Y52711D03*
X1801289Y1952711D03*
X51289Y802711D03*
X401289Y52711D03*
X201289Y52711D03*
X51289Y1002711D03*
X51289Y1402711D03*
X1951289Y1202711D03*
X607289Y1248711D03*
X1446913Y1105461D03*
X1001289Y1952711D03*
X1201289Y52711D03*
X1951289Y602711D03*
X1951289Y1802711D03*
X992289Y1533711D03*
X1401289Y52711D03*
X601289Y1952711D03*
X1401289Y1952711D03*
X51289Y1602711D03*
X1951289Y1602711D03*
X1951289Y1402711D03*
X801289Y52711D03*
X1001289Y52711D03*
X1951289Y402711D03*
X1703289Y652711D03*
X601289Y52711D03*
X1951289Y802711D03*
X1084289Y1120711D03*
X51289Y1802711D03*
X1452289Y897711D03*
X51289Y402711D03*
X1601289Y1952711D03*
X1201289Y1952711D03*
%TO.N,3v3*%
X1806289Y752711D03*
X625789Y1027211D03*
X920289Y1705711D03*
X1677289Y1496711D03*
X1063289Y416081D03*
X475604Y1215026D03*
X1836289Y1089711D03*
X612289Y1613711D03*
X1449483Y1030413D03*
X1258289Y1574711D03*
X1788289Y665711D03*
X1433984Y752346D03*
%TO.N,1v8*%
X1442289Y120711D03*
X661289Y1821711D03*
X123289Y1289711D03*
X558810Y1170417D03*
%TO.N,/STM_RST*%
X1372289Y1717711D03*
%TO.N,Net-(C15-K)*%
X589762Y960657D03*
%TO.N,/FC_I2C_SCL*%
X617515Y1316201D03*
%TO.N,/FC_I2C_SDA*%
X715289Y1416711D03*
D12*
%TO.N,Net-(D1-A)*%
X989289Y583711D03*
D11*
%TO.N,Net-(D2-A)*%
X1238289Y1476711D03*
%TO.N,/VL_INTR_SWDIO*%
X1728561Y1266672D03*
X838789Y862711D03*
X1486289Y1332284D03*
%TO.N,/Prog_Tx*%
X1327197Y1530803D03*
X1498289Y1722711D03*
%TO.N,/STM_BOOT_SWCLK*%
X1242289Y1720211D03*
X657289Y843711D03*
%TO.N,/Prog_Rx*%
X1346603Y1451511D03*
X1624789Y1717841D03*
%TO.N,/SW_1v8*%
X1159289Y1113711D03*
X826289Y441711D03*
%TO.N,/Sen_I2C_SDA*%
X1803289Y986711D03*
X897873Y1102476D03*
%TO.N,/Sen_I2C_SCL*%
X1800289Y909711D03*
X968789Y1103841D03*
%TO.N,/PAW_LED*%
X1208289Y1062711D03*
D12*
X1362289Y522711D03*
D11*
%TO.N,/Sen_SPI_NSS*%
X1380468Y1030243D03*
%TO.N,/VL_XSHUT*%
X649289Y715711D03*
X1711289Y1332711D03*
%TO.N,/PAW_RST*%
X589579Y776711D03*
%TO.N,/Sen_SPI_SCK*%
X1381289Y868711D03*
%TO.N,/PAW_INTR*%
X1363389Y714711D03*
%TO.N,/Sen_SPI_MISO*%
X1382816Y946781D03*
%TO.N,/Sen_SPI_MOSI*%
X1189669Y927276D03*
%TD*%
%TA.AperFunction,Conductor*%
%TO.N,GND*%
G36*
X1900491Y1984902D02*
G01*
X1906510Y1984309D01*
X1915587Y1983415D01*
X1917521Y1983030D01*
X1931561Y1978771D01*
X1933382Y1978017D01*
X1946322Y1971100D01*
X1947961Y1970005D01*
X1959303Y1960697D01*
X1960697Y1959303D01*
X1970005Y1947961D01*
X1971100Y1946322D01*
X1978017Y1933382D01*
X1978771Y1931561D01*
X1983030Y1917521D01*
X1983415Y1915587D01*
X1984902Y1900491D01*
X1984950Y1899505D01*
X1984950Y100495D01*
X1984902Y99509D01*
X1984902Y99509D01*
X1983415Y84413D01*
X1983030Y82479D01*
X1978771Y68439D01*
X1978016Y66617D01*
X1971101Y53678D01*
X1970005Y52039D01*
X1960697Y40697D01*
X1959303Y39303D01*
X1947961Y29995D01*
X1946322Y28899D01*
X1933383Y21983D01*
X1931561Y21229D01*
X1917521Y16970D01*
X1915587Y16585D01*
X1900491Y15098D01*
X1899505Y15050D01*
X100495Y15050D01*
X99509Y15098D01*
X84413Y16585D01*
X82479Y16970D01*
X68439Y21229D01*
X66618Y21983D01*
X53678Y28900D01*
X52038Y29995D01*
X40697Y39303D01*
X39303Y40697D01*
X29995Y52039D01*
X28900Y53678D01*
X21983Y66618D01*
X21229Y68439D01*
X16970Y82479D01*
X16585Y84413D01*
X15098Y99509D01*
X15050Y100495D01*
X15050Y126528D01*
X1398109Y126528D01*
X1398109Y114894D01*
X1401120Y103658D01*
X1401120Y103658D01*
X1406936Y93584D01*
X1415162Y85358D01*
X1415162Y85358D01*
X1416799Y84413D01*
X1425236Y79542D01*
X1425237Y79542D01*
X1425237Y79541D01*
X1436472Y76531D01*
X1436473Y76531D01*
X1436473Y76531D01*
X1436473Y76531D01*
X1448105Y76531D01*
X1448106Y76531D01*
X1459342Y79542D01*
X1469416Y85358D01*
X1477642Y93584D01*
X1483458Y103658D01*
X1486469Y114894D01*
X1486469Y126527D01*
X1483458Y137764D01*
X1477642Y147838D01*
X1469416Y156064D01*
X1469416Y156064D01*
X1459342Y161880D01*
X1459342Y161880D01*
X1448106Y164891D01*
X1448106Y164891D01*
X1436473Y164891D01*
X1436472Y164891D01*
X1425237Y161880D01*
X1425236Y161880D01*
X1415162Y156064D01*
X1406936Y147838D01*
X1401120Y137764D01*
X1401120Y137763D01*
X1398109Y126528D01*
X15050Y126528D01*
X15050Y633169D01*
X352219Y633169D01*
X352219Y621761D01*
X414163Y621761D01*
X413533Y621131D01*
X409584Y614290D01*
X407539Y606660D01*
X407539Y598761D01*
X409584Y591131D01*
X413533Y584290D01*
X414163Y583661D01*
X352219Y583661D01*
X352219Y572252D01*
X352506Y569190D01*
X357019Y556295D01*
X364648Y545957D01*
X366614Y540059D01*
X364737Y534132D01*
X364648Y534010D01*
X357260Y523999D01*
X357260Y523998D01*
X354503Y516121D01*
X352775Y511181D01*
X352489Y508137D01*
X352489Y447284D01*
X352775Y444241D01*
X353136Y443208D01*
X357260Y431423D01*
X357260Y431423D01*
X357260Y431422D01*
X359568Y428295D01*
X364816Y421184D01*
X366781Y415286D01*
X364904Y409358D01*
X364816Y409237D01*
X357260Y398999D01*
X357260Y398998D01*
X353745Y388954D01*
X352775Y386181D01*
X352489Y383137D01*
X352489Y322284D01*
X352775Y319241D01*
X357260Y306423D01*
X357260Y306423D01*
X357260Y306423D01*
X359568Y303295D01*
X364816Y296184D01*
X366781Y290286D01*
X364904Y284359D01*
X364816Y284237D01*
X357260Y273999D01*
X357260Y273998D01*
X352775Y261181D01*
X352489Y258137D01*
X352489Y197284D01*
X352775Y194241D01*
X357260Y181423D01*
X357260Y181423D01*
X357260Y181422D01*
X365324Y170496D01*
X376251Y162431D01*
X376251Y162431D01*
X376252Y162431D01*
X377827Y161880D01*
X389069Y157946D01*
X392113Y157661D01*
X392113Y157661D01*
X482965Y157661D01*
X482966Y157661D01*
X486009Y157946D01*
X498827Y162431D01*
X509754Y170496D01*
X517819Y181422D01*
X522304Y194241D01*
X522589Y197284D01*
X522589Y258137D01*
X522304Y261181D01*
X517819Y273999D01*
X510262Y284237D01*
X508297Y290136D01*
X510174Y296063D01*
X510259Y296180D01*
X517819Y306423D01*
X519095Y310070D01*
X1572050Y310070D01*
X1572050Y289930D01*
X1575200Y270039D01*
X1575201Y270037D01*
X1581424Y250884D01*
X1590567Y232940D01*
X1590567Y232940D01*
X1596486Y224793D01*
X1602405Y216646D01*
X1602405Y216646D01*
X1616646Y202405D01*
X1632940Y190567D01*
X1632940Y190567D01*
X1650884Y181424D01*
X1670037Y175201D01*
X1670037Y175201D01*
X1670038Y175201D01*
X1689930Y172050D01*
X1689930Y172050D01*
X1689930Y172050D01*
X1710070Y172050D01*
X1710070Y172050D01*
X1729962Y175201D01*
X1749116Y181424D01*
X1767060Y190567D01*
X1783354Y202405D01*
X1797595Y216646D01*
X1809433Y232940D01*
X1818576Y250884D01*
X1824799Y270038D01*
X1827950Y289930D01*
X1827950Y310070D01*
X1827950Y310070D01*
X1827950Y310070D01*
X1826015Y322285D01*
X1824799Y329962D01*
X1818576Y349116D01*
X1818576Y349116D01*
X1809433Y367060D01*
X1809433Y367060D01*
X1799503Y380728D01*
X1797595Y383354D01*
X1783354Y397595D01*
X1775207Y403514D01*
X1767060Y409433D01*
X1767060Y409433D01*
X1767059Y409433D01*
X1749116Y418576D01*
X1729963Y424799D01*
X1729961Y424799D01*
X1710070Y427950D01*
X1710070Y427950D01*
X1689930Y427950D01*
X1689930Y427950D01*
X1670039Y424799D01*
X1670037Y424799D01*
X1650884Y418576D01*
X1632940Y409433D01*
X1632939Y409432D01*
X1616646Y397595D01*
X1602405Y383354D01*
X1590568Y367061D01*
X1590567Y367060D01*
X1581424Y349116D01*
X1575201Y329963D01*
X1575200Y329961D01*
X1572050Y310070D01*
X519095Y310070D01*
X522304Y319241D01*
X522589Y322284D01*
X522589Y383137D01*
X522304Y386181D01*
X518717Y396431D01*
X517819Y398998D01*
X517819Y398998D01*
X517819Y398999D01*
X510262Y409237D01*
X508297Y415135D01*
X510174Y421063D01*
X510259Y421180D01*
X517819Y431422D01*
X522304Y444241D01*
X522589Y447284D01*
X522589Y447528D01*
X782109Y447528D01*
X782109Y435894D01*
X785120Y424658D01*
X785120Y424658D01*
X790936Y414584D01*
X799162Y406358D01*
X799162Y406358D01*
X799162Y406358D01*
X809236Y400541D01*
X809237Y400541D01*
X809237Y400541D01*
X820472Y397531D01*
X820473Y397531D01*
X820473Y397531D01*
X820473Y397531D01*
X832105Y397531D01*
X832106Y397531D01*
X843342Y400541D01*
X853416Y406358D01*
X861642Y414584D01*
X865865Y421898D01*
X1019109Y421898D01*
X1019109Y410264D01*
X1022120Y399028D01*
X1022120Y399028D01*
X1027936Y388954D01*
X1036162Y380728D01*
X1036162Y380728D01*
X1036162Y380728D01*
X1046236Y374911D01*
X1046237Y374911D01*
X1046237Y374911D01*
X1057472Y371901D01*
X1057473Y371901D01*
X1057473Y371901D01*
X1057473Y371901D01*
X1069106Y371901D01*
X1069106Y371901D01*
X1080342Y374911D01*
X1090416Y380728D01*
X1098642Y388954D01*
X1104459Y399028D01*
X1107246Y409432D01*
X1107469Y410264D01*
X1107469Y410264D01*
X1107469Y421897D01*
X1107469Y421898D01*
X1104459Y433133D01*
X1104458Y433134D01*
X1098642Y443208D01*
X1090416Y451433D01*
X1090417Y451433D01*
X1080342Y457250D01*
X1080342Y457250D01*
X1069106Y460261D01*
X1069106Y460261D01*
X1057473Y460261D01*
X1057472Y460261D01*
X1046237Y457250D01*
X1046236Y457250D01*
X1036162Y451433D01*
X1027936Y443208D01*
X1022120Y433134D01*
X1022120Y433133D01*
X1019109Y421898D01*
X865865Y421898D01*
X867458Y424658D01*
X867593Y425160D01*
X867593Y425160D01*
X867593Y425160D01*
X869271Y431422D01*
X870469Y435894D01*
X870469Y447527D01*
X867458Y458763D01*
X861642Y468838D01*
X853416Y477063D01*
X853416Y477063D01*
X843342Y482880D01*
X843342Y482880D01*
X832106Y485891D01*
X832106Y485891D01*
X820473Y485891D01*
X820472Y485891D01*
X809237Y482880D01*
X809236Y482880D01*
X799162Y477063D01*
X790936Y468838D01*
X785120Y458764D01*
X785120Y458763D01*
X782109Y447528D01*
X522589Y447528D01*
X522589Y508137D01*
X522304Y511181D01*
X517819Y523999D01*
X513906Y529301D01*
X1312239Y529301D01*
X1312239Y516121D01*
X1315650Y503392D01*
X1315650Y503392D01*
X1322239Y491979D01*
X1331558Y482661D01*
X1331558Y482661D01*
X1331558Y482661D01*
X1342971Y476071D01*
X1342971Y476071D01*
X1342971Y476071D01*
X1355700Y472661D01*
X1355700Y472661D01*
X1355700Y472661D01*
X1355700Y472661D01*
X1368878Y472661D01*
X1368879Y472661D01*
X1368879Y472661D01*
X1368879Y472661D01*
X1381608Y476071D01*
X1381607Y476071D01*
X1381608Y476071D01*
X1393021Y482661D01*
X1402339Y491979D01*
X1408928Y503392D01*
X1412339Y516121D01*
X1412339Y529300D01*
X1412339Y529300D01*
X1412339Y529301D01*
X1408929Y542029D01*
X1408928Y542030D01*
X1402339Y553442D01*
X1393021Y562761D01*
X1393021Y562761D01*
X1381608Y569350D01*
X1381608Y569350D01*
X1368879Y572761D01*
X1368879Y572761D01*
X1355700Y572761D01*
X1355700Y572761D01*
X1342971Y569350D01*
X1342971Y569350D01*
X1331558Y562761D01*
X1322239Y553442D01*
X1315650Y542030D01*
X1315650Y542029D01*
X1312239Y529301D01*
X513906Y529301D01*
X510430Y534010D01*
X508465Y539908D01*
X510342Y545836D01*
X510430Y545957D01*
X518060Y556295D01*
X522572Y569190D01*
X522859Y572252D01*
X522859Y583661D01*
X460916Y583661D01*
X461545Y584290D01*
X465015Y590301D01*
X939239Y590301D01*
X939239Y577121D01*
X942650Y564393D01*
X942650Y564392D01*
X949239Y552979D01*
X958558Y543661D01*
X958558Y543661D01*
X964797Y540059D01*
X969971Y537072D01*
X969971Y537072D01*
X969971Y537071D01*
X982699Y533661D01*
X982700Y533661D01*
X982700Y533661D01*
X982700Y533661D01*
X995878Y533661D01*
X995878Y533661D01*
X995879Y533661D01*
X995879Y533661D01*
X1008607Y537071D01*
X1008607Y537071D01*
X1008608Y537072D01*
X1020021Y543661D01*
X1029339Y552979D01*
X1035928Y564392D01*
X1038035Y572252D01*
X1039339Y577121D01*
X1039339Y577122D01*
X1039339Y590300D01*
X1039339Y590301D01*
X1035929Y603029D01*
X1035928Y603030D01*
X1029339Y614442D01*
X1020021Y623761D01*
X1020021Y623761D01*
X1008608Y630350D01*
X1008607Y630350D01*
X995879Y633761D01*
X995878Y633761D01*
X982700Y633761D01*
X982699Y633761D01*
X969971Y630350D01*
X969970Y630350D01*
X958558Y623761D01*
X949239Y614442D01*
X942650Y603030D01*
X942650Y603029D01*
X939239Y590301D01*
X465015Y590301D01*
X465495Y591131D01*
X467539Y598761D01*
X467539Y606660D01*
X465495Y614290D01*
X461545Y621131D01*
X460916Y621761D01*
X522859Y621761D01*
X522859Y633169D01*
X522572Y636231D01*
X518060Y649127D01*
X509947Y660119D01*
X509947Y660119D01*
X498955Y668231D01*
X486060Y672744D01*
X482998Y673031D01*
X456589Y673031D01*
X456589Y626087D01*
X455960Y626717D01*
X449119Y630666D01*
X441489Y632711D01*
X433590Y632711D01*
X425960Y630666D01*
X419119Y626717D01*
X418489Y626087D01*
X418489Y673031D01*
X392081Y673031D01*
X389019Y672744D01*
X376123Y668231D01*
X365131Y660119D01*
X365131Y660119D01*
X357019Y649127D01*
X352506Y636231D01*
X352219Y633169D01*
X15050Y633169D01*
X15050Y782528D01*
X545399Y782528D01*
X545399Y770894D01*
X548410Y759658D01*
X548410Y759658D01*
X554227Y749584D01*
X562452Y741358D01*
X562452Y741358D01*
X572325Y735658D01*
X572527Y735541D01*
X572527Y735541D01*
X572527Y735541D01*
X583762Y732531D01*
X583763Y732531D01*
X583763Y732531D01*
X583763Y732531D01*
X595087Y732531D01*
X601000Y730609D01*
X604654Y725579D01*
X604966Y722186D01*
X605109Y722186D01*
X605109Y709894D01*
X608120Y698658D01*
X608120Y698658D01*
X613937Y688584D01*
X622162Y680358D01*
X622162Y680358D01*
X623894Y679358D01*
X632237Y674542D01*
X632237Y674542D01*
X632237Y674541D01*
X643472Y671531D01*
X643473Y671531D01*
X643473Y671531D01*
X643473Y671531D01*
X655106Y671531D01*
X655106Y671531D01*
X666342Y674542D01*
X676416Y680358D01*
X684642Y688584D01*
X690459Y698658D01*
X693201Y708894D01*
X693469Y709894D01*
X693469Y709894D01*
X693469Y720528D01*
X1319209Y720528D01*
X1319209Y708894D01*
X1322220Y697658D01*
X1322220Y697658D01*
X1328037Y687584D01*
X1336262Y679358D01*
X1336262Y679358D01*
X1344604Y674542D01*
X1346337Y673542D01*
X1346337Y673542D01*
X1346337Y673541D01*
X1357572Y670531D01*
X1357573Y670531D01*
X1357573Y670531D01*
X1357573Y670531D01*
X1369206Y670531D01*
X1369206Y670531D01*
X1372926Y671528D01*
X1744109Y671528D01*
X1744109Y659894D01*
X1747120Y648658D01*
X1747120Y648658D01*
X1752936Y638584D01*
X1761162Y630358D01*
X1761162Y630358D01*
X1761176Y630350D01*
X1771236Y624542D01*
X1771237Y624542D01*
X1771237Y624541D01*
X1782472Y621531D01*
X1782473Y621531D01*
X1782473Y621531D01*
X1782473Y621531D01*
X1794105Y621531D01*
X1794106Y621531D01*
X1805342Y624542D01*
X1815416Y630358D01*
X1823642Y638584D01*
X1829458Y648658D01*
X1832469Y659894D01*
X1832469Y671527D01*
X1832468Y671531D01*
X1829459Y682763D01*
X1829458Y682764D01*
X1826676Y687584D01*
X1823642Y692838D01*
X1820945Y695535D01*
X1818122Y701075D01*
X1819095Y707215D01*
X1823029Y711360D01*
X1823342Y711541D01*
X1833416Y717358D01*
X1841642Y725584D01*
X1847458Y735658D01*
X1850469Y746894D01*
X1850469Y758527D01*
X1850166Y759658D01*
X1847459Y769763D01*
X1847458Y769764D01*
X1845900Y772463D01*
X1841642Y779838D01*
X1833416Y788063D01*
X1833416Y788063D01*
X1823342Y793880D01*
X1823342Y793880D01*
X1812106Y796891D01*
X1812106Y796891D01*
X1800473Y796891D01*
X1800472Y796891D01*
X1789237Y793880D01*
X1789236Y793880D01*
X1779162Y788063D01*
X1770936Y779838D01*
X1765120Y769764D01*
X1765120Y769763D01*
X1762109Y758528D01*
X1762109Y746894D01*
X1765120Y735658D01*
X1765120Y735658D01*
X1770936Y725584D01*
X1773633Y722887D01*
X1776456Y717347D01*
X1775483Y711206D01*
X1771550Y707061D01*
X1761162Y701064D01*
X1752936Y692838D01*
X1747120Y682764D01*
X1747120Y682763D01*
X1744109Y671528D01*
X1372926Y671528D01*
X1380442Y673542D01*
X1390516Y679358D01*
X1398742Y687584D01*
X1404558Y697658D01*
X1406163Y703647D01*
X1409549Y708861D01*
X1415354Y711090D01*
X1418484Y710761D01*
X1428168Y708166D01*
X1428168Y708166D01*
X1439800Y708166D01*
X1439800Y708166D01*
X1442517Y708894D01*
X1451036Y711177D01*
X1451036Y711177D01*
X1451037Y711177D01*
X1461111Y716993D01*
X1469337Y725219D01*
X1475153Y735293D01*
X1478164Y746530D01*
X1478164Y758162D01*
X1478066Y758528D01*
X1475153Y769398D01*
X1475153Y769399D01*
X1469337Y779473D01*
X1461111Y787699D01*
X1461111Y787699D01*
X1451037Y793515D01*
X1451036Y793515D01*
X1439801Y796526D01*
X1439800Y796526D01*
X1428168Y796526D01*
X1428167Y796526D01*
X1416931Y793515D01*
X1416931Y793515D01*
X1406857Y787699D01*
X1398631Y779473D01*
X1392815Y769399D01*
X1392815Y769399D01*
X1391210Y763409D01*
X1387824Y758195D01*
X1382019Y755967D01*
X1378889Y756296D01*
X1369206Y758891D01*
X1369206Y758891D01*
X1357573Y758891D01*
X1357572Y758891D01*
X1346337Y755880D01*
X1346336Y755880D01*
X1336262Y750063D01*
X1328037Y741838D01*
X1322220Y731764D01*
X1322220Y731763D01*
X1319209Y720528D01*
X693469Y720528D01*
X693469Y721527D01*
X693469Y721528D01*
X690459Y732763D01*
X690458Y732764D01*
X688787Y735658D01*
X684642Y742838D01*
X676416Y751063D01*
X676417Y751063D01*
X666342Y756880D01*
X666342Y756880D01*
X655106Y759891D01*
X655106Y759891D01*
X643782Y759891D01*
X637869Y761812D01*
X634214Y766842D01*
X633902Y770235D01*
X633759Y770235D01*
X633759Y782527D01*
X633759Y782527D01*
X631990Y789129D01*
X632316Y795337D01*
X636229Y800169D01*
X642234Y801779D01*
X644311Y801450D01*
X651472Y799531D01*
X651473Y799531D01*
X651473Y799531D01*
X651473Y799531D01*
X663106Y799531D01*
X663106Y799531D01*
X665489Y800169D01*
X674342Y802541D01*
X674342Y802541D01*
X674342Y802541D01*
X684416Y808358D01*
X692642Y816584D01*
X698459Y826658D01*
X700254Y833358D01*
X701469Y837894D01*
X701469Y837894D01*
X701469Y849527D01*
X701469Y849528D01*
X698459Y860763D01*
X698458Y860764D01*
X696500Y864156D01*
X696500Y864156D01*
X693976Y868528D01*
X794609Y868528D01*
X794609Y856894D01*
X797620Y845658D01*
X797620Y845658D01*
X803436Y835584D01*
X811662Y827358D01*
X811662Y827358D01*
X816559Y824531D01*
X821736Y821541D01*
X821737Y821541D01*
X821737Y821541D01*
X832972Y818531D01*
X832973Y818531D01*
X832973Y818531D01*
X832973Y818531D01*
X844605Y818531D01*
X844606Y818531D01*
X845024Y818643D01*
X855842Y821541D01*
X855842Y821541D01*
X855842Y821541D01*
X865916Y827358D01*
X874142Y835584D01*
X879958Y845658D01*
X882969Y856894D01*
X882969Y868527D01*
X882965Y868541D01*
X879959Y879763D01*
X879958Y879764D01*
X876296Y886107D01*
X874142Y889838D01*
X865916Y898063D01*
X865916Y898063D01*
X855842Y903880D01*
X855842Y903880D01*
X844606Y906891D01*
X844606Y906891D01*
X832973Y906891D01*
X832972Y906891D01*
X821737Y903880D01*
X821736Y903880D01*
X811662Y898063D01*
X803436Y889838D01*
X797620Y879764D01*
X797620Y879763D01*
X794609Y868528D01*
X693976Y868528D01*
X692642Y870838D01*
X684416Y879063D01*
X684417Y879063D01*
X674342Y884880D01*
X674342Y884880D01*
X663106Y887891D01*
X663106Y887891D01*
X651473Y887891D01*
X651472Y887891D01*
X640237Y884880D01*
X640236Y884880D01*
X630162Y879063D01*
X621937Y870838D01*
X616120Y860764D01*
X616120Y860763D01*
X613109Y849528D01*
X613109Y837894D01*
X614878Y831293D01*
X614553Y825084D01*
X610640Y820252D01*
X604634Y818643D01*
X602557Y818972D01*
X595396Y820891D01*
X595396Y820891D01*
X595396Y820891D01*
X583763Y820891D01*
X583762Y820891D01*
X572527Y817880D01*
X572526Y817880D01*
X562452Y812063D01*
X554227Y803838D01*
X548410Y793764D01*
X548410Y793763D01*
X545399Y782528D01*
X15050Y782528D01*
X15050Y966474D01*
X545582Y966474D01*
X545582Y954840D01*
X548593Y943604D01*
X548593Y943604D01*
X554410Y933530D01*
X562635Y925304D01*
X562635Y925304D01*
X569294Y921460D01*
X572710Y919488D01*
X572710Y919488D01*
X572710Y919488D01*
X583946Y916477D01*
X583946Y916477D01*
X583946Y916477D01*
X583946Y916477D01*
X595579Y916477D01*
X595579Y916477D01*
X606815Y919488D01*
X616890Y925304D01*
X624679Y933093D01*
X1145489Y933093D01*
X1145489Y921459D01*
X1148500Y910224D01*
X1148500Y910223D01*
X1154316Y900149D01*
X1162542Y891923D01*
X1162542Y891923D01*
X1166155Y889838D01*
X1172616Y886107D01*
X1172617Y886107D01*
X1172617Y886107D01*
X1183852Y883096D01*
X1183853Y883096D01*
X1183853Y883096D01*
X1183853Y883096D01*
X1195485Y883096D01*
X1195486Y883096D01*
X1206722Y886107D01*
X1216796Y891923D01*
X1225022Y900149D01*
X1230838Y910223D01*
X1232514Y916477D01*
X1233849Y921459D01*
X1233849Y921460D01*
X1233849Y933092D01*
X1233849Y933093D01*
X1230839Y944329D01*
X1230838Y944329D01*
X1229097Y947345D01*
X1225022Y954403D01*
X1216796Y962629D01*
X1216796Y962629D01*
X1206722Y968445D01*
X1206722Y968446D01*
X1195486Y971456D01*
X1195486Y971456D01*
X1183853Y971456D01*
X1183852Y971456D01*
X1172617Y968446D01*
X1172616Y968445D01*
X1162542Y962629D01*
X1154316Y954403D01*
X1148500Y944329D01*
X1148500Y944329D01*
X1145489Y933093D01*
X624679Y933093D01*
X625115Y933530D01*
X630932Y943604D01*
X633942Y954840D01*
X633942Y966473D01*
X632250Y972789D01*
X632576Y978997D01*
X636488Y983829D01*
X639363Y985109D01*
X642842Y986041D01*
X652916Y991858D01*
X661142Y1000084D01*
X666959Y1010158D01*
X669969Y1021394D01*
X669969Y1033027D01*
X669111Y1036230D01*
X666959Y1044263D01*
X666958Y1044264D01*
X665110Y1047466D01*
X661142Y1054338D01*
X652916Y1062564D01*
X652917Y1062564D01*
X642842Y1068380D01*
X642842Y1068380D01*
X631606Y1071391D01*
X631606Y1071391D01*
X619973Y1071391D01*
X619972Y1071391D01*
X608737Y1068380D01*
X608736Y1068380D01*
X598662Y1062564D01*
X590437Y1054338D01*
X584620Y1044264D01*
X584620Y1044263D01*
X581609Y1033028D01*
X581609Y1021394D01*
X583301Y1015079D01*
X582976Y1008870D01*
X579063Y1004038D01*
X576188Y1002758D01*
X572710Y1001826D01*
X572709Y1001826D01*
X562635Y996010D01*
X554410Y987784D01*
X548593Y977710D01*
X548593Y977709D01*
X545582Y966474D01*
X15050Y966474D01*
X15050Y1108293D01*
X853693Y1108293D01*
X853693Y1096659D01*
X856704Y1085424D01*
X856704Y1085423D01*
X862521Y1075349D01*
X870746Y1067124D01*
X870746Y1067124D01*
X878610Y1062584D01*
X880821Y1061307D01*
X880821Y1061307D01*
X880821Y1061307D01*
X892057Y1058296D01*
X892057Y1058296D01*
X892057Y1058296D01*
X892057Y1058296D01*
X903690Y1058296D01*
X903690Y1058296D01*
X914926Y1061307D01*
X925001Y1067123D01*
X926900Y1069023D01*
X932440Y1071846D01*
X938581Y1070873D01*
X941127Y1069023D01*
X941662Y1068488D01*
X941662Y1068488D01*
X946672Y1065595D01*
X951736Y1062672D01*
X951737Y1062672D01*
X951737Y1062671D01*
X962972Y1059661D01*
X962973Y1059661D01*
X962973Y1059661D01*
X962973Y1059661D01*
X974605Y1059661D01*
X974606Y1059661D01*
X985842Y1062672D01*
X995916Y1068488D01*
X1004142Y1076714D01*
X1009958Y1086788D01*
X1011464Y1092406D01*
X1012969Y1098024D01*
X1012969Y1098025D01*
X1012969Y1109657D01*
X1012969Y1109658D01*
X1010846Y1117583D01*
X1010324Y1119528D01*
X1115109Y1119528D01*
X1115109Y1107894D01*
X1118120Y1096658D01*
X1118120Y1096658D01*
X1123937Y1086584D01*
X1132162Y1078358D01*
X1132162Y1078358D01*
X1142035Y1072658D01*
X1142237Y1072542D01*
X1142237Y1072542D01*
X1142237Y1072541D01*
X1153472Y1069531D01*
X1153473Y1069531D01*
X1153473Y1069531D01*
X1154049Y1069531D01*
X1159962Y1067609D01*
X1163617Y1062579D01*
X1164109Y1059471D01*
X1164109Y1056894D01*
X1167120Y1045658D01*
X1167120Y1045658D01*
X1172937Y1035584D01*
X1181162Y1027358D01*
X1181162Y1027358D01*
X1190332Y1022063D01*
X1191237Y1021541D01*
X1191237Y1021541D01*
X1191237Y1021541D01*
X1202472Y1018531D01*
X1202473Y1018531D01*
X1202473Y1018531D01*
X1202473Y1018531D01*
X1214106Y1018531D01*
X1214106Y1018531D01*
X1225342Y1021541D01*
X1235416Y1027358D01*
X1243642Y1035584D01*
X1243917Y1036059D01*
X1336288Y1036059D01*
X1336288Y1024426D01*
X1339299Y1013190D01*
X1339299Y1013190D01*
X1345115Y1003115D01*
X1353779Y994451D01*
X1356602Y988912D01*
X1355629Y982771D01*
X1353779Y980225D01*
X1347463Y973909D01*
X1341647Y963834D01*
X1341647Y963834D01*
X1338636Y952598D01*
X1338636Y940964D01*
X1341647Y929729D01*
X1341647Y929728D01*
X1347463Y919654D01*
X1351495Y915623D01*
X1354317Y910083D01*
X1353345Y903942D01*
X1351495Y901396D01*
X1345937Y895838D01*
X1340120Y885764D01*
X1340120Y885763D01*
X1337109Y874528D01*
X1337109Y862894D01*
X1340120Y851658D01*
X1340120Y851658D01*
X1345937Y841584D01*
X1354162Y833358D01*
X1354162Y833358D01*
X1357739Y831293D01*
X1364237Y827541D01*
X1364237Y827541D01*
X1364237Y827541D01*
X1375472Y824531D01*
X1375473Y824531D01*
X1375473Y824531D01*
X1375473Y824531D01*
X1387106Y824531D01*
X1387106Y824531D01*
X1398342Y827541D01*
X1408416Y833358D01*
X1416642Y841584D01*
X1422458Y851658D01*
X1425469Y862894D01*
X1425469Y874527D01*
X1424066Y879764D01*
X1422459Y885763D01*
X1422458Y885764D01*
X1418902Y891923D01*
X1416642Y895838D01*
X1412611Y899869D01*
X1412036Y900998D01*
X1411083Y901832D01*
X1410658Y903701D01*
X1409788Y905409D01*
X1409986Y906660D01*
X1409706Y907895D01*
X1410425Y909431D01*
X1410761Y911550D01*
X1412155Y913610D01*
X1412375Y913861D01*
X1414042Y915528D01*
X1756109Y915528D01*
X1756109Y903894D01*
X1759120Y892658D01*
X1759120Y892658D01*
X1764936Y882584D01*
X1773162Y874358D01*
X1773162Y874358D01*
X1773162Y874358D01*
X1783236Y868541D01*
X1783237Y868541D01*
X1783237Y868541D01*
X1794472Y865531D01*
X1794473Y865531D01*
X1794473Y865531D01*
X1794473Y865531D01*
X1806105Y865531D01*
X1806106Y865531D01*
X1817342Y868541D01*
X1827416Y874358D01*
X1835642Y882584D01*
X1841458Y892658D01*
X1844469Y903894D01*
X1844469Y915527D01*
X1843408Y919488D01*
X1841459Y926763D01*
X1841458Y926764D01*
X1839746Y929729D01*
X1835642Y936838D01*
X1832882Y939597D01*
X1830060Y945137D01*
X1831032Y951278D01*
X1832882Y953824D01*
X1838642Y959584D01*
X1844458Y969658D01*
X1847469Y980894D01*
X1847469Y992527D01*
X1846536Y996010D01*
X1844459Y1003763D01*
X1844458Y1003764D01*
X1840767Y1010158D01*
X1838642Y1013838D01*
X1830416Y1022063D01*
X1830416Y1022063D01*
X1821683Y1027106D01*
X1821683Y1027106D01*
X1820342Y1027880D01*
X1811076Y1030363D01*
X1811075Y1030363D01*
X1809106Y1030891D01*
X1797473Y1030891D01*
X1797472Y1030891D01*
X1786237Y1027880D01*
X1786236Y1027880D01*
X1776162Y1022063D01*
X1767936Y1013838D01*
X1762120Y1003764D01*
X1762120Y1003763D01*
X1759109Y992528D01*
X1759109Y980894D01*
X1762120Y969658D01*
X1762120Y969658D01*
X1767936Y959584D01*
X1770696Y956824D01*
X1773518Y951284D01*
X1772546Y945144D01*
X1770696Y942597D01*
X1764936Y936838D01*
X1759120Y926764D01*
X1759120Y926763D01*
X1756109Y915528D01*
X1414042Y915528D01*
X1418169Y919654D01*
X1423985Y929728D01*
X1426996Y940965D01*
X1426996Y952598D01*
X1426667Y953824D01*
X1423985Y963834D01*
X1423985Y963834D01*
X1419584Y971456D01*
X1418169Y973908D01*
X1416435Y975642D01*
X1413613Y981182D01*
X1414585Y987322D01*
X1418982Y991719D01*
X1425122Y992691D01*
X1428578Y991468D01*
X1432430Y989244D01*
X1432431Y989244D01*
X1443666Y986233D01*
X1443667Y986233D01*
X1443667Y986233D01*
X1443667Y986233D01*
X1455299Y986233D01*
X1455300Y986233D01*
X1459366Y987322D01*
X1464979Y988827D01*
X1466536Y989244D01*
X1476610Y995060D01*
X1484836Y1003286D01*
X1490652Y1013360D01*
X1493663Y1024596D01*
X1493663Y1036229D01*
X1492184Y1041748D01*
X1490653Y1047465D01*
X1490652Y1047466D01*
X1485209Y1056894D01*
X1484836Y1057540D01*
X1476610Y1065766D01*
X1476610Y1065766D01*
X1466536Y1071582D01*
X1466536Y1071582D01*
X1455300Y1074593D01*
X1455300Y1074593D01*
X1443667Y1074593D01*
X1443666Y1074593D01*
X1432431Y1071582D01*
X1432430Y1071582D01*
X1422356Y1065766D01*
X1422356Y1065766D01*
X1422003Y1065413D01*
X1416463Y1062591D01*
X1410323Y1063564D01*
X1407777Y1065414D01*
X1407595Y1065595D01*
X1407595Y1065595D01*
X1397521Y1071412D01*
X1397520Y1071412D01*
X1386285Y1074423D01*
X1386284Y1074423D01*
X1374652Y1074423D01*
X1374651Y1074423D01*
X1363415Y1071412D01*
X1363415Y1071412D01*
X1353341Y1065595D01*
X1345115Y1057370D01*
X1339299Y1047296D01*
X1339299Y1047295D01*
X1336288Y1036059D01*
X1243917Y1036059D01*
X1249459Y1045658D01*
X1252469Y1056894D01*
X1252469Y1068527D01*
X1252336Y1069023D01*
X1249459Y1079763D01*
X1249458Y1079764D01*
X1246191Y1085423D01*
X1243642Y1089838D01*
X1237952Y1095528D01*
X1792109Y1095528D01*
X1792109Y1083894D01*
X1795120Y1072658D01*
X1795120Y1072658D01*
X1799303Y1065413D01*
X1800936Y1062584D01*
X1809162Y1054358D01*
X1819236Y1048541D01*
X1830473Y1045531D01*
X1830473Y1045531D01*
X1842105Y1045531D01*
X1842106Y1045531D01*
X1842580Y1045658D01*
X1853342Y1048541D01*
X1853342Y1048541D01*
X1853342Y1048541D01*
X1863416Y1054358D01*
X1871642Y1062584D01*
X1877458Y1072658D01*
X1879362Y1079763D01*
X1880469Y1083894D01*
X1880469Y1083895D01*
X1880469Y1095527D01*
X1880469Y1095528D01*
X1877459Y1106763D01*
X1877458Y1106764D01*
X1871642Y1116838D01*
X1863416Y1125064D01*
X1863416Y1125064D01*
X1853342Y1130880D01*
X1853342Y1130880D01*
X1842106Y1133891D01*
X1842106Y1133891D01*
X1830473Y1133891D01*
X1830472Y1133891D01*
X1819237Y1130880D01*
X1819236Y1130880D01*
X1809162Y1125064D01*
X1800936Y1116838D01*
X1795120Y1106764D01*
X1795120Y1106763D01*
X1792109Y1095528D01*
X1237952Y1095528D01*
X1235416Y1098064D01*
X1235417Y1098064D01*
X1225342Y1103880D01*
X1225342Y1103880D01*
X1214106Y1106891D01*
X1214106Y1106891D01*
X1213529Y1106891D01*
X1207616Y1108812D01*
X1203962Y1113842D01*
X1203469Y1116951D01*
X1203469Y1119527D01*
X1203469Y1119528D01*
X1200459Y1130763D01*
X1200458Y1130764D01*
X1197975Y1135065D01*
X1194642Y1140838D01*
X1186416Y1149064D01*
X1186417Y1149064D01*
X1176342Y1154880D01*
X1176342Y1154880D01*
X1165106Y1157891D01*
X1165106Y1157891D01*
X1153473Y1157891D01*
X1153472Y1157891D01*
X1142237Y1154880D01*
X1142236Y1154880D01*
X1132162Y1149064D01*
X1123937Y1140838D01*
X1118120Y1130764D01*
X1118120Y1130763D01*
X1115109Y1119528D01*
X1010324Y1119528D01*
X1009958Y1120893D01*
X1009958Y1120894D01*
X1006873Y1126237D01*
X1004142Y1130968D01*
X995916Y1139194D01*
X995916Y1139194D01*
X985842Y1145010D01*
X985842Y1145010D01*
X974606Y1148021D01*
X974606Y1148021D01*
X962973Y1148021D01*
X962972Y1148021D01*
X951737Y1145010D01*
X951736Y1145010D01*
X941662Y1139194D01*
X939762Y1137294D01*
X934223Y1134471D01*
X928082Y1135444D01*
X925536Y1137294D01*
X925001Y1137829D01*
X925001Y1137829D01*
X914926Y1143645D01*
X914926Y1143646D01*
X903690Y1146656D01*
X903690Y1146656D01*
X892057Y1146656D01*
X892057Y1146656D01*
X880821Y1143646D01*
X880820Y1143645D01*
X870746Y1137829D01*
X862521Y1129603D01*
X856704Y1119529D01*
X856704Y1119529D01*
X853693Y1108293D01*
X15050Y1108293D01*
X15050Y1220843D01*
X431424Y1220843D01*
X431424Y1209209D01*
X434435Y1197973D01*
X434435Y1197973D01*
X440252Y1187899D01*
X448477Y1179673D01*
X448477Y1179673D01*
X448477Y1179673D01*
X458552Y1173857D01*
X458552Y1173857D01*
X458552Y1173857D01*
X469787Y1170846D01*
X469788Y1170846D01*
X469788Y1170846D01*
X469788Y1170846D01*
X481421Y1170846D01*
X481421Y1170846D01*
X492657Y1173857D01*
X492657Y1173857D01*
X492657Y1173857D01*
X492657Y1173857D01*
X499540Y1177830D01*
X505621Y1179123D01*
X511301Y1176594D01*
X514410Y1171210D01*
X514630Y1169118D01*
X514630Y1164600D01*
X517640Y1153365D01*
X517640Y1153364D01*
X523457Y1143290D01*
X531683Y1135065D01*
X531682Y1135065D01*
X538930Y1130880D01*
X541757Y1129248D01*
X541757Y1129248D01*
X541757Y1129248D01*
X552993Y1126237D01*
X552993Y1126237D01*
X552993Y1126237D01*
X552994Y1126237D01*
X564626Y1126237D01*
X564626Y1126237D01*
X575863Y1129248D01*
X585937Y1135064D01*
X594163Y1143290D01*
X599979Y1153364D01*
X602990Y1164601D01*
X602990Y1176234D01*
X599979Y1187470D01*
X594163Y1197544D01*
X585937Y1205770D01*
X585937Y1205770D01*
X575863Y1211586D01*
X575862Y1211587D01*
X564627Y1214597D01*
X564626Y1214597D01*
X552993Y1214597D01*
X552993Y1214597D01*
X541757Y1211587D01*
X541757Y1211586D01*
X534874Y1207613D01*
X528793Y1206320D01*
X523113Y1208849D01*
X520004Y1214233D01*
X519784Y1216325D01*
X519784Y1220842D01*
X519784Y1220843D01*
X516774Y1232078D01*
X516773Y1232079D01*
X510957Y1242153D01*
X502731Y1250379D01*
X502732Y1250379D01*
X492657Y1256195D01*
X492657Y1256195D01*
X481421Y1259206D01*
X481421Y1259206D01*
X469788Y1259206D01*
X469787Y1259206D01*
X458552Y1256195D01*
X458551Y1256195D01*
X448477Y1250379D01*
X440252Y1242153D01*
X434435Y1232079D01*
X434435Y1232078D01*
X431424Y1220843D01*
X15050Y1220843D01*
X15050Y1295528D01*
X79109Y1295528D01*
X79109Y1283894D01*
X82120Y1272658D01*
X82120Y1272658D01*
X87936Y1262584D01*
X96162Y1254358D01*
X96162Y1254358D01*
X104371Y1249619D01*
X106236Y1248542D01*
X106237Y1248542D01*
X106237Y1248541D01*
X117472Y1245531D01*
X117473Y1245531D01*
X117473Y1245531D01*
X117473Y1245531D01*
X129105Y1245531D01*
X129106Y1245531D01*
X140342Y1248542D01*
X150416Y1254358D01*
X158642Y1262584D01*
X164459Y1272658D01*
X167469Y1283894D01*
X167469Y1295527D01*
X167086Y1296957D01*
X164459Y1306763D01*
X164458Y1306764D01*
X158642Y1316838D01*
X153462Y1322018D01*
X573335Y1322018D01*
X573335Y1310384D01*
X576346Y1299148D01*
X576346Y1299148D01*
X582162Y1289074D01*
X590388Y1280848D01*
X590388Y1280848D01*
X590388Y1280848D01*
X600462Y1275032D01*
X600462Y1275032D01*
X600463Y1275031D01*
X611698Y1272021D01*
X611698Y1272021D01*
X611699Y1272021D01*
X611699Y1272021D01*
X623331Y1272021D01*
X623332Y1272021D01*
X625711Y1272658D01*
X634568Y1275031D01*
X634567Y1275031D01*
X634568Y1275032D01*
X644642Y1280848D01*
X652868Y1289074D01*
X658684Y1299148D01*
X660294Y1305157D01*
X661695Y1310384D01*
X661695Y1310385D01*
X661695Y1322017D01*
X661695Y1322018D01*
X658684Y1333253D01*
X658684Y1333254D01*
X658410Y1333729D01*
X658410Y1333729D01*
X658270Y1333970D01*
X655886Y1338101D01*
X1442109Y1338101D01*
X1442109Y1326467D01*
X1445120Y1315231D01*
X1445120Y1315231D01*
X1450936Y1305157D01*
X1459162Y1296931D01*
X1459162Y1296931D01*
X1466748Y1292551D01*
X1469236Y1291114D01*
X1469237Y1291114D01*
X1469237Y1291114D01*
X1480472Y1288104D01*
X1480473Y1288104D01*
X1480473Y1288104D01*
X1480473Y1288104D01*
X1492105Y1288104D01*
X1492106Y1288104D01*
X1503342Y1291114D01*
X1513416Y1296931D01*
X1521642Y1305157D01*
X1527458Y1315231D01*
X1530469Y1326467D01*
X1530469Y1338100D01*
X1530469Y1338100D01*
X1530355Y1338528D01*
X1667109Y1338528D01*
X1667109Y1326894D01*
X1670120Y1315658D01*
X1670120Y1315658D01*
X1675936Y1305584D01*
X1684162Y1297358D01*
X1684685Y1296957D01*
X1684525Y1296748D01*
X1687935Y1292963D01*
X1688586Y1286780D01*
X1687458Y1283840D01*
X1687392Y1283725D01*
X1687392Y1283724D01*
X1684381Y1272489D01*
X1684381Y1260855D01*
X1687392Y1249619D01*
X1687392Y1249619D01*
X1693208Y1239545D01*
X1701434Y1231319D01*
X1701434Y1231319D01*
X1701434Y1231319D01*
X1711508Y1225503D01*
X1711508Y1225503D01*
X1711508Y1225502D01*
X1722744Y1222492D01*
X1722744Y1222492D01*
X1722745Y1222492D01*
X1722745Y1222492D01*
X1734377Y1222492D01*
X1734377Y1222492D01*
X1745614Y1225503D01*
X1755688Y1231319D01*
X1763914Y1239545D01*
X1769730Y1249619D01*
X1772741Y1260855D01*
X1772741Y1272488D01*
X1772695Y1272658D01*
X1769730Y1283724D01*
X1769730Y1283725D01*
X1765464Y1291115D01*
X1763914Y1293799D01*
X1755688Y1302025D01*
X1755165Y1302426D01*
X1755325Y1302634D01*
X1751914Y1306423D01*
X1751265Y1312606D01*
X1752393Y1315545D01*
X1752458Y1315658D01*
X1755469Y1326894D01*
X1755469Y1338527D01*
X1754183Y1343328D01*
X1752459Y1349763D01*
X1752458Y1349764D01*
X1748067Y1357370D01*
X1746642Y1359838D01*
X1738416Y1368064D01*
X1738416Y1368064D01*
X1728342Y1373880D01*
X1728342Y1373880D01*
X1717106Y1376891D01*
X1717106Y1376891D01*
X1705473Y1376891D01*
X1705472Y1376891D01*
X1694237Y1373880D01*
X1694236Y1373880D01*
X1684162Y1368064D01*
X1675936Y1359838D01*
X1670120Y1349764D01*
X1670120Y1349763D01*
X1667109Y1338528D01*
X1530355Y1338528D01*
X1527459Y1349336D01*
X1527458Y1349337D01*
X1525900Y1352036D01*
X1521642Y1359411D01*
X1513416Y1367636D01*
X1513416Y1367636D01*
X1503342Y1373453D01*
X1503342Y1373453D01*
X1492106Y1376464D01*
X1492106Y1376464D01*
X1480473Y1376464D01*
X1480472Y1376464D01*
X1469237Y1373453D01*
X1469236Y1373453D01*
X1459162Y1367636D01*
X1450936Y1359411D01*
X1445120Y1349337D01*
X1445120Y1349336D01*
X1442109Y1338101D01*
X655886Y1338101D01*
X652868Y1343328D01*
X644642Y1351554D01*
X644642Y1351554D01*
X634568Y1357370D01*
X634568Y1357370D01*
X623332Y1360381D01*
X623332Y1360381D01*
X611699Y1360381D01*
X611698Y1360381D01*
X600463Y1357370D01*
X600462Y1357370D01*
X590388Y1351554D01*
X582162Y1343328D01*
X576346Y1333254D01*
X576346Y1333253D01*
X573335Y1322018D01*
X153462Y1322018D01*
X150416Y1325064D01*
X150417Y1325064D01*
X140342Y1330880D01*
X140342Y1330880D01*
X129106Y1333891D01*
X129106Y1333891D01*
X117473Y1333891D01*
X117472Y1333891D01*
X106237Y1330880D01*
X106236Y1330880D01*
X96162Y1325064D01*
X87936Y1316838D01*
X82120Y1306764D01*
X82120Y1306763D01*
X79109Y1295528D01*
X15050Y1295528D01*
X15050Y1422528D01*
X671109Y1422528D01*
X671109Y1410894D01*
X674120Y1399658D01*
X674120Y1399658D01*
X679937Y1389584D01*
X688162Y1381358D01*
X688162Y1381358D01*
X696639Y1376464D01*
X698237Y1375542D01*
X698237Y1375542D01*
X698237Y1375541D01*
X709472Y1372531D01*
X709473Y1372531D01*
X709473Y1372531D01*
X709473Y1372531D01*
X721105Y1372531D01*
X721106Y1372531D01*
X732342Y1375542D01*
X742416Y1381358D01*
X750642Y1389584D01*
X756458Y1399658D01*
X759469Y1410894D01*
X759469Y1422527D01*
X756789Y1432531D01*
X756459Y1433763D01*
X756458Y1433764D01*
X754900Y1436463D01*
X750642Y1443838D01*
X742416Y1452063D01*
X742416Y1452063D01*
X732342Y1457880D01*
X732342Y1457880D01*
X721106Y1460891D01*
X721106Y1460891D01*
X709473Y1460891D01*
X709472Y1460891D01*
X698237Y1457880D01*
X698236Y1457880D01*
X688162Y1452063D01*
X679937Y1443838D01*
X674120Y1433764D01*
X674120Y1433763D01*
X671109Y1422528D01*
X15050Y1422528D01*
X15050Y1482528D01*
X1194109Y1482528D01*
X1194109Y1470894D01*
X1197120Y1459658D01*
X1197120Y1459658D01*
X1202937Y1449584D01*
X1211162Y1441358D01*
X1211162Y1441358D01*
X1211162Y1441358D01*
X1221237Y1435541D01*
X1221237Y1435541D01*
X1221237Y1435541D01*
X1232472Y1432531D01*
X1232473Y1432531D01*
X1232473Y1432531D01*
X1232473Y1432531D01*
X1244106Y1432531D01*
X1244106Y1432531D01*
X1248707Y1433763D01*
X1255342Y1435541D01*
X1255342Y1435541D01*
X1255342Y1435541D01*
X1265416Y1441358D01*
X1273642Y1449584D01*
X1279459Y1459658D01*
X1282469Y1470894D01*
X1282469Y1482527D01*
X1282256Y1483322D01*
X1281014Y1487958D01*
X1281340Y1494167D01*
X1285252Y1498999D01*
X1291258Y1500608D01*
X1296478Y1498819D01*
X1297212Y1498308D01*
X1300069Y1495451D01*
X1307391Y1491223D01*
X1307740Y1490981D01*
X1309373Y1488826D01*
X1311183Y1486816D01*
X1311229Y1486377D01*
X1311496Y1486026D01*
X1311550Y1483322D01*
X1311833Y1480632D01*
X1311617Y1480068D01*
X1311622Y1479810D01*
X1311389Y1479476D01*
X1310705Y1477694D01*
X1305434Y1468564D01*
X1305434Y1468563D01*
X1302423Y1457328D01*
X1302423Y1445694D01*
X1305434Y1434458D01*
X1305434Y1434458D01*
X1311250Y1424384D01*
X1319476Y1416158D01*
X1319476Y1416158D01*
X1328594Y1410894D01*
X1329550Y1410342D01*
X1329550Y1410342D01*
X1329551Y1410342D01*
X1340786Y1407331D01*
X1340786Y1407331D01*
X1340787Y1407331D01*
X1340787Y1407331D01*
X1352419Y1407331D01*
X1352420Y1407331D01*
X1363656Y1410342D01*
X1373730Y1416158D01*
X1381956Y1424384D01*
X1387772Y1434458D01*
X1390783Y1445694D01*
X1390783Y1457327D01*
X1390635Y1457880D01*
X1387772Y1468563D01*
X1387772Y1468564D01*
X1386214Y1471263D01*
X1381956Y1478638D01*
X1373730Y1486864D01*
X1366776Y1490878D01*
X1365710Y1492063D01*
X1364330Y1492859D01*
X1363682Y1494315D01*
X1362616Y1495499D01*
X1362450Y1497084D01*
X1361802Y1498539D01*
X1362133Y1500098D01*
X1361966Y1501682D01*
X1362291Y1502528D01*
X1633109Y1502528D01*
X1633109Y1490894D01*
X1636120Y1479658D01*
X1636120Y1479658D01*
X1641936Y1469584D01*
X1650162Y1461358D01*
X1650162Y1461358D01*
X1656186Y1457880D01*
X1660236Y1455541D01*
X1660237Y1455541D01*
X1660237Y1455541D01*
X1671472Y1452531D01*
X1671473Y1452531D01*
X1671473Y1452531D01*
X1671473Y1452531D01*
X1683105Y1452531D01*
X1683106Y1452531D01*
X1694342Y1455541D01*
X1704416Y1461358D01*
X1712642Y1469584D01*
X1718458Y1479658D01*
X1721469Y1490894D01*
X1721469Y1502527D01*
X1721161Y1503676D01*
X1718459Y1513763D01*
X1718458Y1513764D01*
X1712642Y1523838D01*
X1704416Y1532063D01*
X1704416Y1532063D01*
X1694342Y1537880D01*
X1694342Y1537880D01*
X1683106Y1540891D01*
X1683106Y1540891D01*
X1671473Y1540891D01*
X1671472Y1540891D01*
X1660237Y1537880D01*
X1660236Y1537880D01*
X1650162Y1532063D01*
X1641936Y1523838D01*
X1636120Y1513764D01*
X1636120Y1513763D01*
X1633109Y1502528D01*
X1362291Y1502528D01*
X1363094Y1504620D01*
X1368366Y1513751D01*
X1370699Y1522460D01*
X1371376Y1524987D01*
X1371377Y1524987D01*
X1371377Y1536620D01*
X1371376Y1536620D01*
X1368366Y1547856D01*
X1368366Y1547856D01*
X1365831Y1552246D01*
X1362549Y1557931D01*
X1354324Y1566156D01*
X1354324Y1566156D01*
X1344249Y1571973D01*
X1344249Y1571973D01*
X1333013Y1574983D01*
X1333013Y1574983D01*
X1321380Y1574983D01*
X1321380Y1574983D01*
X1314839Y1573231D01*
X1308630Y1573556D01*
X1303798Y1577469D01*
X1302518Y1580344D01*
X1302469Y1580528D01*
X1299459Y1591763D01*
X1293642Y1601838D01*
X1285416Y1610063D01*
X1285417Y1610063D01*
X1275342Y1615880D01*
X1275342Y1615880D01*
X1271630Y1616875D01*
X1264106Y1618891D01*
X1264106Y1618891D01*
X1252473Y1618891D01*
X1252472Y1618891D01*
X1241237Y1615880D01*
X1241236Y1615880D01*
X1231162Y1610063D01*
X1222937Y1601838D01*
X1217120Y1591764D01*
X1217120Y1591763D01*
X1214109Y1580528D01*
X1214109Y1568894D01*
X1217120Y1557658D01*
X1217120Y1557658D01*
X1222779Y1547856D01*
X1222937Y1547584D01*
X1231162Y1539358D01*
X1232249Y1538731D01*
X1232392Y1538648D01*
X1236552Y1534028D01*
X1237202Y1527844D01*
X1234093Y1522460D01*
X1229965Y1520219D01*
X1221237Y1517880D01*
X1221236Y1517880D01*
X1211162Y1512063D01*
X1202937Y1503838D01*
X1197120Y1493764D01*
X1197120Y1493763D01*
X1194109Y1482528D01*
X15050Y1482528D01*
X15050Y1710070D01*
X172050Y1710070D01*
X172050Y1689930D01*
X175200Y1670039D01*
X175201Y1670037D01*
X181424Y1650884D01*
X190567Y1632940D01*
X190567Y1632940D01*
X195537Y1626100D01*
X202405Y1616646D01*
X216646Y1602405D01*
X220719Y1599446D01*
X232940Y1590567D01*
X232940Y1590567D01*
X250884Y1581424D01*
X270037Y1575201D01*
X270038Y1575201D01*
X270038Y1575201D01*
X289930Y1572050D01*
X289930Y1572050D01*
X289930Y1572050D01*
X310070Y1572050D01*
X310070Y1572050D01*
X329962Y1575201D01*
X349116Y1581424D01*
X367060Y1590567D01*
X383354Y1602405D01*
X397595Y1616646D01*
X399688Y1619528D01*
X568109Y1619528D01*
X568109Y1607894D01*
X571120Y1596658D01*
X571120Y1596658D01*
X576937Y1586584D01*
X585162Y1578358D01*
X585162Y1578358D01*
X585162Y1578358D01*
X595237Y1572541D01*
X595237Y1572541D01*
X595237Y1572541D01*
X606472Y1569531D01*
X606473Y1569531D01*
X606473Y1569531D01*
X606473Y1569531D01*
X618106Y1569531D01*
X618106Y1569531D01*
X629342Y1572541D01*
X639416Y1578358D01*
X647642Y1586584D01*
X653459Y1596658D01*
X656469Y1607894D01*
X656469Y1619527D01*
X654709Y1626098D01*
X1740289Y1626098D01*
X1740289Y1611324D01*
X1741005Y1607726D01*
X1743171Y1596834D01*
X1748825Y1583185D01*
X1748825Y1583185D01*
X1748825Y1583185D01*
X1757033Y1570901D01*
X1767480Y1560454D01*
X1779763Y1552247D01*
X1793413Y1546593D01*
X1807902Y1543711D01*
X1807902Y1543711D01*
X1822676Y1543711D01*
X1822676Y1543711D01*
X1837166Y1546593D01*
X1850815Y1552247D01*
X1863099Y1560454D01*
X1873546Y1570901D01*
X1881753Y1583185D01*
X1887407Y1596834D01*
X1890289Y1611324D01*
X1890289Y1626098D01*
X1887407Y1640587D01*
X1881753Y1654236D01*
X1873546Y1666520D01*
X1863099Y1676967D01*
X1851548Y1684685D01*
X1850815Y1685175D01*
X1850815Y1685175D01*
X1842405Y1688658D01*
X1837166Y1690828D01*
X1837166Y1690829D01*
X1837166Y1690829D01*
X1825558Y1693137D01*
X1822676Y1693711D01*
X1807902Y1693711D01*
X1805020Y1693137D01*
X1793413Y1690829D01*
X1779764Y1685175D01*
X1779763Y1685175D01*
X1767479Y1676967D01*
X1757033Y1666521D01*
X1757033Y1666520D01*
X1757033Y1666520D01*
X1755711Y1664541D01*
X1748825Y1654236D01*
X1748825Y1654236D01*
X1743171Y1640587D01*
X1741650Y1632939D01*
X1740289Y1626098D01*
X654709Y1626098D01*
X653459Y1630763D01*
X653458Y1630764D01*
X647787Y1640587D01*
X647642Y1640838D01*
X639416Y1649063D01*
X639417Y1649063D01*
X629342Y1654880D01*
X629342Y1654880D01*
X618106Y1657891D01*
X618106Y1657891D01*
X606473Y1657891D01*
X606472Y1657891D01*
X595237Y1654880D01*
X595236Y1654880D01*
X585162Y1649063D01*
X576937Y1640838D01*
X571120Y1630764D01*
X571120Y1630763D01*
X568109Y1619528D01*
X399688Y1619528D01*
X409433Y1632940D01*
X418576Y1650884D01*
X424799Y1670038D01*
X427950Y1689930D01*
X427950Y1710070D01*
X427719Y1711528D01*
X876109Y1711528D01*
X876109Y1699894D01*
X879120Y1688658D01*
X879120Y1688658D01*
X884936Y1678584D01*
X893162Y1670358D01*
X893162Y1670358D01*
X899808Y1666521D01*
X903236Y1664541D01*
X903237Y1664541D01*
X903237Y1664541D01*
X914472Y1661531D01*
X914473Y1661531D01*
X914473Y1661531D01*
X914473Y1661531D01*
X926105Y1661531D01*
X926106Y1661531D01*
X937342Y1664541D01*
X947416Y1670358D01*
X955642Y1678584D01*
X961458Y1688658D01*
X963106Y1694805D01*
X966492Y1700019D01*
X972296Y1702248D01*
X978302Y1700639D01*
X982117Y1696051D01*
X986825Y1684685D01*
X986825Y1684685D01*
X986825Y1684685D01*
X995033Y1672401D01*
X1005480Y1661954D01*
X1017763Y1653747D01*
X1031413Y1648093D01*
X1045902Y1645211D01*
X1045902Y1645211D01*
X1060676Y1645211D01*
X1060676Y1645211D01*
X1075166Y1648093D01*
X1088815Y1653747D01*
X1101099Y1661954D01*
X1111546Y1672401D01*
X1119753Y1684685D01*
X1125407Y1698334D01*
X1128289Y1712824D01*
X1128289Y1726028D01*
X1198109Y1726028D01*
X1198109Y1714394D01*
X1201120Y1703158D01*
X1201120Y1703158D01*
X1206937Y1693084D01*
X1215162Y1684858D01*
X1215162Y1684858D01*
X1220906Y1681542D01*
X1225237Y1679042D01*
X1225237Y1679042D01*
X1225237Y1679041D01*
X1236472Y1676031D01*
X1236473Y1676031D01*
X1236473Y1676031D01*
X1236473Y1676031D01*
X1248106Y1676031D01*
X1248106Y1676031D01*
X1250012Y1676541D01*
X1259342Y1679041D01*
X1259342Y1679041D01*
X1259342Y1679042D01*
X1269416Y1684858D01*
X1277642Y1693084D01*
X1283459Y1703158D01*
X1286469Y1714394D01*
X1286469Y1723528D01*
X1328109Y1723528D01*
X1328109Y1711894D01*
X1331120Y1700658D01*
X1331120Y1700658D01*
X1336937Y1690584D01*
X1345162Y1682358D01*
X1345162Y1682358D01*
X1355011Y1676672D01*
X1355237Y1676541D01*
X1355237Y1676541D01*
X1355237Y1676541D01*
X1366472Y1673531D01*
X1366473Y1673531D01*
X1366473Y1673531D01*
X1366473Y1673531D01*
X1378106Y1673531D01*
X1378106Y1673531D01*
X1378591Y1673661D01*
X1383724Y1675036D01*
X1389342Y1676541D01*
X1399416Y1682358D01*
X1407642Y1690584D01*
X1413458Y1700658D01*
X1416469Y1711894D01*
X1416469Y1723527D01*
X1415949Y1725468D01*
X1415651Y1726581D01*
X1415651Y1726583D01*
X1415129Y1728528D01*
X1454109Y1728528D01*
X1454109Y1716894D01*
X1457120Y1705658D01*
X1457120Y1705658D01*
X1462936Y1695584D01*
X1471162Y1687358D01*
X1471162Y1687358D01*
X1479822Y1682358D01*
X1481236Y1681541D01*
X1481237Y1681541D01*
X1481237Y1681541D01*
X1492472Y1678531D01*
X1492473Y1678531D01*
X1492473Y1678531D01*
X1492473Y1678531D01*
X1504105Y1678531D01*
X1504106Y1678531D01*
X1504303Y1678584D01*
X1515342Y1681541D01*
X1515342Y1681541D01*
X1515342Y1681541D01*
X1525416Y1687358D01*
X1533642Y1695584D01*
X1539458Y1705658D01*
X1542469Y1716894D01*
X1542469Y1723658D01*
X1580609Y1723658D01*
X1580609Y1712024D01*
X1583620Y1700788D01*
X1583620Y1700788D01*
X1589437Y1690714D01*
X1597662Y1682488D01*
X1597662Y1682488D01*
X1604516Y1678531D01*
X1607737Y1676671D01*
X1607737Y1676671D01*
X1607737Y1676671D01*
X1618972Y1673661D01*
X1618973Y1673661D01*
X1618973Y1673661D01*
X1618973Y1673661D01*
X1630606Y1673661D01*
X1630606Y1673661D01*
X1641842Y1676671D01*
X1651916Y1682488D01*
X1660142Y1690714D01*
X1665959Y1700788D01*
X1668969Y1712024D01*
X1668969Y1723657D01*
X1668334Y1726027D01*
X1665959Y1734893D01*
X1665958Y1734894D01*
X1662396Y1741063D01*
X1660142Y1744968D01*
X1651916Y1753193D01*
X1651917Y1753193D01*
X1641842Y1759010D01*
X1641842Y1759010D01*
X1630606Y1762021D01*
X1630606Y1762021D01*
X1618973Y1762021D01*
X1618972Y1762021D01*
X1607737Y1759010D01*
X1607736Y1759010D01*
X1597662Y1753193D01*
X1589437Y1744968D01*
X1583620Y1734894D01*
X1583620Y1734893D01*
X1580609Y1723658D01*
X1542469Y1723658D01*
X1542469Y1728527D01*
X1542467Y1728535D01*
X1539459Y1739763D01*
X1539458Y1739764D01*
X1537900Y1742463D01*
X1533642Y1749838D01*
X1525416Y1758063D01*
X1525416Y1758063D01*
X1515342Y1763880D01*
X1515342Y1763880D01*
X1504106Y1766891D01*
X1504106Y1766891D01*
X1492473Y1766891D01*
X1492472Y1766891D01*
X1481237Y1763880D01*
X1481236Y1763880D01*
X1471162Y1758063D01*
X1462936Y1749838D01*
X1457120Y1739764D01*
X1457120Y1739763D01*
X1454109Y1728528D01*
X1415129Y1728528D01*
X1413458Y1734763D01*
X1413458Y1734764D01*
X1407642Y1744838D01*
X1399416Y1753063D01*
X1399416Y1753063D01*
X1389342Y1758880D01*
X1389342Y1758880D01*
X1378106Y1761891D01*
X1378106Y1761891D01*
X1366473Y1761891D01*
X1366472Y1761891D01*
X1355237Y1758880D01*
X1355236Y1758880D01*
X1345162Y1753063D01*
X1336937Y1744838D01*
X1331120Y1734764D01*
X1331120Y1734763D01*
X1328109Y1723528D01*
X1286469Y1723528D01*
X1286469Y1726027D01*
X1286321Y1726581D01*
X1283459Y1737263D01*
X1283458Y1737264D01*
X1279086Y1744838D01*
X1277642Y1747338D01*
X1269416Y1755564D01*
X1269417Y1755564D01*
X1259342Y1761380D01*
X1259342Y1761380D01*
X1248106Y1764391D01*
X1248106Y1764391D01*
X1236473Y1764391D01*
X1236472Y1764391D01*
X1225237Y1761380D01*
X1225236Y1761380D01*
X1215162Y1755564D01*
X1206937Y1747338D01*
X1201120Y1737264D01*
X1201120Y1737263D01*
X1198109Y1726028D01*
X1128289Y1726028D01*
X1128289Y1727598D01*
X1125407Y1742087D01*
X1119753Y1755736D01*
X1111546Y1768020D01*
X1101099Y1778467D01*
X1089548Y1786185D01*
X1088815Y1786675D01*
X1088815Y1786675D01*
X1080820Y1789987D01*
X1075166Y1792328D01*
X1075166Y1792329D01*
X1075166Y1792329D01*
X1063558Y1794637D01*
X1060676Y1795211D01*
X1045902Y1795211D01*
X1043020Y1794637D01*
X1031413Y1792329D01*
X1017764Y1786675D01*
X1017763Y1786675D01*
X1005479Y1778467D01*
X995033Y1768021D01*
X986825Y1755736D01*
X986825Y1755736D01*
X981171Y1742087D01*
X978476Y1728535D01*
X975438Y1723111D01*
X969791Y1720508D01*
X963693Y1721721D01*
X959897Y1725468D01*
X955642Y1732838D01*
X947416Y1741063D01*
X947416Y1741063D01*
X937342Y1746880D01*
X937342Y1746880D01*
X926106Y1749891D01*
X926106Y1749891D01*
X914473Y1749891D01*
X914472Y1749891D01*
X903237Y1746880D01*
X903236Y1746880D01*
X893162Y1741063D01*
X884936Y1732838D01*
X879120Y1722764D01*
X879120Y1722763D01*
X876109Y1711528D01*
X427719Y1711528D01*
X426758Y1717592D01*
X424799Y1729962D01*
X423239Y1734763D01*
X418576Y1749116D01*
X409433Y1767060D01*
X409433Y1767060D01*
X399638Y1780541D01*
X397595Y1783354D01*
X383354Y1797595D01*
X373632Y1804658D01*
X367060Y1809433D01*
X367060Y1809433D01*
X367059Y1809433D01*
X349116Y1818576D01*
X349115Y1818576D01*
X348983Y1818619D01*
X348983Y1818619D01*
X329963Y1824799D01*
X329961Y1824799D01*
X312737Y1827528D01*
X617109Y1827528D01*
X617109Y1815894D01*
X620120Y1804658D01*
X620120Y1804658D01*
X625937Y1794584D01*
X634162Y1786358D01*
X634162Y1786358D01*
X639366Y1783354D01*
X644237Y1780541D01*
X644237Y1780541D01*
X644237Y1780541D01*
X655472Y1777531D01*
X655473Y1777531D01*
X655473Y1777531D01*
X655473Y1777531D01*
X667106Y1777531D01*
X667106Y1777531D01*
X678342Y1780541D01*
X688416Y1786358D01*
X696642Y1794584D01*
X702458Y1804658D01*
X705469Y1815894D01*
X705469Y1827527D01*
X705048Y1829098D01*
X1740289Y1829098D01*
X1740289Y1814324D01*
X1743171Y1799834D01*
X1748825Y1786185D01*
X1748825Y1786185D01*
X1748825Y1786185D01*
X1757033Y1773901D01*
X1767480Y1763454D01*
X1779763Y1755247D01*
X1793413Y1749593D01*
X1807902Y1746711D01*
X1807902Y1746711D01*
X1822676Y1746711D01*
X1822676Y1746711D01*
X1837166Y1749593D01*
X1850815Y1755247D01*
X1863099Y1763454D01*
X1873546Y1773901D01*
X1881753Y1786185D01*
X1887407Y1799834D01*
X1890289Y1814324D01*
X1890289Y1829098D01*
X1887407Y1843587D01*
X1881753Y1857236D01*
X1873546Y1869520D01*
X1863099Y1879967D01*
X1850815Y1888175D01*
X1850815Y1888175D01*
X1850815Y1888175D01*
X1850815Y1888175D01*
X1842820Y1891487D01*
X1837166Y1893828D01*
X1837166Y1893829D01*
X1837166Y1893829D01*
X1825558Y1896137D01*
X1822676Y1896711D01*
X1807902Y1896711D01*
X1805020Y1896137D01*
X1793413Y1893829D01*
X1779764Y1888175D01*
X1779763Y1888175D01*
X1767479Y1879967D01*
X1757033Y1869521D01*
X1748825Y1857236D01*
X1748825Y1857236D01*
X1743171Y1843587D01*
X1740289Y1829098D01*
X705048Y1829098D01*
X702458Y1838763D01*
X696642Y1848838D01*
X688416Y1857063D01*
X688417Y1857063D01*
X678342Y1862880D01*
X678342Y1862880D01*
X667106Y1865891D01*
X667106Y1865891D01*
X655473Y1865891D01*
X655472Y1865891D01*
X644237Y1862880D01*
X644236Y1862880D01*
X634162Y1857063D01*
X625937Y1848838D01*
X620120Y1838764D01*
X620120Y1838763D01*
X617109Y1827528D01*
X312737Y1827528D01*
X310070Y1827950D01*
X310070Y1827950D01*
X289930Y1827950D01*
X289930Y1827950D01*
X270039Y1824799D01*
X270037Y1824799D01*
X250884Y1818576D01*
X232940Y1809433D01*
X232939Y1809432D01*
X216646Y1797595D01*
X202405Y1783354D01*
X190568Y1767061D01*
X190567Y1767060D01*
X181424Y1749116D01*
X175201Y1729963D01*
X175200Y1729961D01*
X172050Y1710070D01*
X15050Y1710070D01*
X15050Y1899505D01*
X15098Y1900491D01*
X16585Y1915587D01*
X16585Y1915587D01*
X16970Y1917521D01*
X21229Y1931562D01*
X21983Y1933382D01*
X28900Y1946323D01*
X29995Y1947961D01*
X39303Y1959303D01*
X40697Y1960697D01*
X47453Y1966242D01*
X52039Y1970005D01*
X53677Y1971100D01*
X66618Y1978017D01*
X68438Y1978771D01*
X82479Y1983030D01*
X84412Y1983415D01*
X95092Y1984467D01*
X99509Y1984902D01*
X100495Y1984950D01*
X103435Y1984950D01*
X1896565Y1984950D01*
X1899505Y1984950D01*
X1900491Y1984902D01*
G37*
%TD.AperFunction*%
%TD*%
M02*
