%TF.GenerationSoftware,KiCad,Pcbnew,9.0.7*%
%TF.CreationDate,2026-03-10T13:05:46+05:30*%
%TF.ProjectId,X-Vision-HW,582d5669-7369-46f6-9e2d-48572e6b6963,rev?*%
%TF.SameCoordinates,PXd1d1fd4PY510ff40*%
%TF.FileFunction,Other,User*%
%FSLAX46Y46*%
G04 Gerber Fmt 4.6, Leading zero omitted, Abs format (unit mm)*
G04 Created by KiCad (PCBNEW 9.0.7) date 2026-03-10 13:05:46*
%MOMM*%
%LPD*%
G01*
G04 APERTURE LIST*
%ADD10C,0.050000*%
G04 APERTURE END LIST*
D10*
%TO.C,H3*%
X15697500Y4800000D02*
G75*
G02*
X14677500Y4800000I-510000J0D01*
G01*
X14677500Y4800000D02*
G75*
G02*
X15697500Y4800000I510000J0D01*
G01*
%TO.C,C4*%
X12847500Y3230000D02*
X12847500Y1570000D01*
X12856500Y1570000D02*
X13618500Y1570000D01*
X13618500Y3230000D02*
X12856500Y3230000D01*
X13627500Y1570000D02*
X13627500Y3230000D01*
%TO.C,R12*%
X16907500Y12080000D02*
X16907500Y11320000D01*
X16907500Y11320000D02*
X18667500Y11320000D01*
X18667500Y12080000D02*
X16907500Y12080000D01*
X18667500Y11320000D02*
X18667500Y12080000D01*
%TO.C,R2*%
X11407500Y5480000D02*
X11407500Y4720000D01*
X11407500Y4720000D02*
X13167500Y4720000D01*
X13167500Y5480000D02*
X11407500Y5480000D01*
X13167500Y4720000D02*
X13167500Y5480000D01*
%TO.C,C10*%
X2197500Y14230000D02*
X2197500Y12570000D01*
X2206500Y12570000D02*
X2968500Y12570000D01*
X2968500Y14230000D02*
X2206500Y14230000D01*
X2977500Y12570000D02*
X2977500Y14230000D01*
%TO.C,Q1*%
X14132500Y19055000D02*
X17282500Y19055000D01*
X14132500Y15605000D02*
X14132500Y19055000D01*
X17282500Y19055000D02*
X17282500Y15605000D01*
X17282500Y15605000D02*
X14132500Y15605000D01*
%TO.C,U2*%
X6583900Y13708400D02*
X6583900Y6291600D01*
X6583900Y6291600D02*
X13391100Y6291600D01*
X13391100Y13708400D02*
X6609300Y13708400D01*
X13391100Y6291600D02*
X13391100Y13708400D01*
%TO.C,R7*%
X14807500Y10880000D02*
X14807500Y9120000D01*
X14807500Y9120000D02*
X15567500Y9120000D01*
X15567500Y10880000D02*
X14807500Y10880000D01*
X15567500Y9120000D02*
X15567500Y10880000D01*
%TO.C,C5*%
X10097500Y16030000D02*
X10097500Y14370000D01*
X10106500Y14370000D02*
X10868500Y14370000D01*
X10868500Y16030000D02*
X10106500Y16030000D01*
X10877500Y14370000D02*
X10877500Y16030000D01*
%TO.C,C2*%
X6157500Y2051000D02*
X6157500Y1289000D01*
X6157500Y1280000D02*
X7817500Y1280000D01*
X7817500Y2060000D02*
X6157500Y2060000D01*
X7817500Y1289000D02*
X7817500Y2051000D01*
%TO.C,C11*%
X3297500Y14230000D02*
X3297500Y12570000D01*
X3306500Y12570000D02*
X4068500Y12570000D01*
X4068500Y14230000D02*
X3306500Y14230000D01*
X4077500Y12570000D02*
X4077500Y14230000D01*
%TO.C,C13*%
X3457500Y10581000D02*
X3457500Y9819000D01*
X3457500Y9810000D02*
X5117500Y9810000D01*
X5117500Y10590000D02*
X3457500Y10590000D01*
X5117500Y9819000D02*
X5117500Y10581000D01*
%TO.C,FB1*%
X6137500Y3220000D02*
X6137500Y2320000D01*
X6137500Y3220000D02*
X7837500Y3220000D01*
X6137500Y2320000D02*
X7837500Y2320000D01*
X7837500Y3220000D02*
X7837500Y2320000D01*
%TO.C,R10*%
X11397500Y16080000D02*
X11397500Y14320000D01*
X11397500Y14320000D02*
X12157500Y14320000D01*
X12157500Y16080000D02*
X11397500Y16080000D01*
X12157500Y14320000D02*
X12157500Y16080000D01*
%TO.C,C6*%
X7757500Y16481000D02*
X7757500Y15719000D01*
X7757500Y15710000D02*
X9417500Y15710000D01*
X9417500Y16490000D02*
X7757500Y16490000D01*
X9417500Y15719000D02*
X9417500Y16481000D01*
%TO.C,C1*%
X5997500Y5180000D02*
X5997500Y3520000D01*
X6006500Y3520000D02*
X6768500Y3520000D01*
X6768500Y5180000D02*
X6006500Y5180000D01*
X6777500Y3520000D02*
X6777500Y5180000D01*
%TO.C,R11*%
X14807500Y12080000D02*
X14807500Y11320000D01*
X14807500Y11320000D02*
X16567500Y11320000D01*
X16567500Y12080000D02*
X14807500Y12080000D01*
X16567500Y11320000D02*
X16567500Y12080000D01*
%TO.C,C8*%
X14697500Y7830000D02*
X14697500Y6170000D01*
X14706500Y6170000D02*
X15468500Y6170000D01*
X15468500Y7830000D02*
X14706500Y7830000D01*
X15477500Y6170000D02*
X15477500Y7830000D01*
%TO.C,R9*%
X9307500Y5480000D02*
X9307500Y4720000D01*
X9307500Y4720000D02*
X11067500Y4720000D01*
X11067500Y5480000D02*
X9307500Y5480000D01*
X11067500Y4720000D02*
X11067500Y5480000D01*
%TO.C,C9*%
X15797500Y7830000D02*
X15797500Y6170000D01*
X15806500Y6170000D02*
X16568500Y6170000D01*
X16568500Y7830000D02*
X15806500Y7830000D01*
X16577500Y6170000D02*
X16577500Y7830000D01*
%TO.C,C14*%
X3457500Y11681000D02*
X3457500Y10919000D01*
X3457500Y10910000D02*
X5117500Y10910000D01*
X5117500Y11690000D02*
X3457500Y11690000D01*
X5117500Y10919000D02*
X5117500Y11681000D01*
%TO.C,R4*%
X16907500Y10980000D02*
X16907500Y9220000D01*
X16907500Y9220000D02*
X17667500Y9220000D01*
X17667500Y10980000D02*
X16907500Y10980000D01*
X17667500Y9220000D02*
X17667500Y10980000D01*
%TO.C,C7*%
X7757500Y15381000D02*
X7757500Y14619000D01*
X7757500Y14610000D02*
X9417500Y14610000D01*
X9417500Y15390000D02*
X7757500Y15390000D01*
X9417500Y14619000D02*
X9417500Y15381000D01*
%TO.C,C15*%
X4397500Y9430000D02*
X4397500Y7770000D01*
X4406500Y7770000D02*
X5168500Y7770000D01*
X5168500Y9430000D02*
X4406500Y9430000D01*
X5177500Y7770000D02*
X5177500Y9430000D01*
%TO.C,R6*%
X14807500Y15380000D02*
X14807500Y13620000D01*
X14807500Y13620000D02*
X15567500Y13620000D01*
X15567500Y15380000D02*
X14807500Y15380000D01*
X15567500Y13620000D02*
X15567500Y15380000D01*
%TO.C,C3*%
X13997500Y3230000D02*
X13997500Y1570000D01*
X14006500Y1570000D02*
X14768500Y1570000D01*
X14768500Y3230000D02*
X14006500Y3230000D01*
X14777500Y1570000D02*
X14777500Y3230000D01*
%TO.C,R5*%
X16907500Y8880000D02*
X16907500Y7120000D01*
X16907500Y7120000D02*
X17667500Y7120000D01*
X17667500Y8880000D02*
X16907500Y8880000D01*
X17667500Y7120000D02*
X17667500Y8880000D01*
%TO.C,R8*%
X13707500Y15380000D02*
X13707500Y13620000D01*
X13707500Y13620000D02*
X14467500Y13620000D01*
X14467500Y15380000D02*
X13707500Y15380000D01*
X14467500Y13620000D02*
X14467500Y15380000D01*
%TO.C,C12*%
X4397500Y14230000D02*
X4397500Y12570000D01*
X4406500Y12570000D02*
X5168500Y12570000D01*
X5168500Y14230000D02*
X4406500Y14230000D01*
X5177500Y12570000D02*
X5177500Y14230000D01*
%TO.C,R1*%
X7107500Y5280000D02*
X7107500Y3520000D01*
X7107500Y3520000D02*
X7867500Y3520000D01*
X7867500Y5280000D02*
X7107500Y5280000D01*
X7867500Y3520000D02*
X7867500Y5280000D01*
%TO.C,U1*%
X8437500Y4349400D02*
X8437500Y1250600D01*
X8437500Y1250000D02*
X12337500Y1250600D01*
X12337500Y4350000D02*
X8437500Y4349400D01*
X12337500Y1250600D02*
X12337500Y4349400D01*
%TO.C,R13*%
X6707500Y16380000D02*
X6707500Y14620000D01*
X6707500Y14620000D02*
X7467500Y14620000D01*
X7467500Y16380000D02*
X6707500Y16380000D01*
X7467500Y14620000D02*
X7467500Y16380000D01*
%TO.C,R3*%
X15907500Y15380000D02*
X15907500Y13620000D01*
X15907500Y13620000D02*
X16667500Y13620000D01*
X16667500Y15380000D02*
X15907500Y15380000D01*
X16667500Y13620000D02*
X16667500Y15380000D01*
%TO.C,C16*%
X3297500Y9430000D02*
X3297500Y7770000D01*
X3306500Y7770000D02*
X4068500Y7770000D01*
X4068500Y9430000D02*
X3306500Y9430000D01*
X4077500Y7770000D02*
X4077500Y9430000D01*
%TO.C,H4*%
X5117500Y15420000D02*
G75*
G02*
X4097500Y15420000I-510000J0D01*
G01*
X4097500Y15420000D02*
G75*
G02*
X5117500Y15420000I510000J0D01*
G01*
%TO.C,CON1*%
X20000Y7545000D02*
X20000Y745000D01*
X20000Y745000D02*
X5020000Y745000D01*
X5020000Y7545000D02*
X20000Y7545000D01*
X5020000Y7545000D02*
X5020000Y745000D01*
%TD*%
M02*
