%TF.GenerationSoftware,KiCad,Pcbnew,9.0.7*%
%TF.CreationDate,2026-03-10T13:05:46+05:30*%
%TF.ProjectId,X-Vision-HW,582d5669-7369-46f6-9e2d-48572e6b6963,rev?*%
%TF.SameCoordinates,PXd1d1fd4PY510ff40*%
%TF.FileFunction,Soldermask,Bot*%
%TF.FilePolarity,Negative*%
%FSLAX46Y46*%
G04 Gerber Fmt 4.6, Leading zero omitted, Abs format (unit mm)*
G04 Created by KiCad (PCBNEW 9.0.7) date 2026-03-10 13:05:46*
%MOMM*%
%LPD*%
G01*
G04 APERTURE LIST*
G04 Aperture macros list*
%AMRoundRect*
0 Rectangle with rounded corners*
0 $1 Rounding radius*
0 $2 $3 $4 $5 $6 $7 $8 $9 X,Y pos of 4 corners*
0 Add a 4 corners polygon primitive as box body*
4,1,4,$2,$3,$4,$5,$6,$7,$8,$9,$2,$3,0*
0 Add four circle primitives for the rounded corners*
1,1,$1+$1,$2,$3*
1,1,$1+$1,$4,$5*
1,1,$1+$1,$6,$7*
1,1,$1+$1,$8,$9*
0 Add four rect primitives between the rounded corners*
20,1,$1+$1,$2,$3,$4,$5,0*
20,1,$1+$1,$4,$5,$6,$7,0*
20,1,$1+$1,$6,$7,$8,$9,0*
20,1,$1+$1,$8,$9,$2,$3,0*%
G04 Aperture macros list end*
%ADD10C,1.250000*%
%ADD11C,0.991000*%
%ADD12C,1.400000*%
%ADD13C,2.254000*%
%ADD14RoundRect,0.128000X-0.237000X0.192000X-0.237000X-0.192000X0.237000X-0.192000X0.237000X0.192000X0*%
%ADD15RoundRect,0.160000X0.160000X0.190000X-0.160000X0.190000X-0.160000X-0.190000X0.160000X-0.190000X0*%
%ADD16RoundRect,0.160000X-0.160000X-0.190000X0.160000X-0.190000X0.160000X0.190000X-0.160000X0.190000X0*%
%ADD17RoundRect,0.128000X0.237000X-0.192000X0.237000X0.192000X-0.237000X0.192000X-0.237000X-0.192000X0*%
%ADD18RoundRect,0.134000X0.201000X-0.406000X0.201000X0.406000X-0.201000X0.406000X-0.201000X-0.406000X0*%
%ADD19RoundRect,0.122500X-0.122500X0.697500X-0.122500X-0.697500X0.122500X-0.697500X0.122500X0.697500X0*%
%ADD20RoundRect,0.160000X-0.190000X0.160000X-0.190000X-0.160000X0.190000X-0.160000X0.190000X0.160000X0*%
%ADD21RoundRect,0.128000X-0.192000X-0.237000X0.192000X-0.237000X0.192000X0.237000X-0.192000X0.237000X0*%
%ADD22RoundRect,0.128000X0.192000X0.237000X-0.192000X0.237000X-0.192000X-0.237000X0.192000X-0.237000X0*%
%ADD23RoundRect,0.093000X-0.217000X-0.247000X0.217000X-0.247000X0.217000X0.247000X-0.217000X0.247000X0*%
%ADD24RoundRect,0.160000X0.190000X-0.160000X0.190000X0.160000X-0.190000X0.160000X-0.190000X-0.160000X0*%
%ADD25RoundRect,0.132000X-0.458000X-0.198000X0.458000X-0.198000X0.458000X0.198000X-0.458000X0.198000X0*%
%ADD26RoundRect,0.225000X0.375000X-0.225000X0.375000X0.225000X-0.375000X0.225000X-0.375000X-0.225000X0*%
G04 APERTURE END LIST*
D10*
X18987500Y20000000D02*
X987500Y20000000D01*
X987500Y0D02*
G75*
G02*
X-12500Y1000000I0J1000000D01*
G01*
X19987500Y1000000D02*
G75*
G02*
X18987500Y0I-1000000J0D01*
G01*
X987500Y0D02*
X18987500Y0D01*
X18987500Y20000000D02*
G75*
G02*
X19987500Y19000000I0J-1000000D01*
G01*
X-12500Y19000000D02*
G75*
G02*
X987500Y20000000I1000000J0D01*
G01*
X-12500Y19000000D02*
X-12500Y1000000D01*
X19987500Y1000000D02*
X19987500Y19000000D01*
D11*
%TO.C,J1*%
X18147500Y16180000D03*
X10527500Y17195000D03*
X18147500Y18210000D03*
%TD*%
D12*
%TO.C,H3*%
X15187500Y4800000D03*
%TD*%
D13*
%TO.C,REF\u002A\u002A*%
X17007500Y3020000D03*
%TD*%
%TO.C,REF\u002A\u002A*%
X3007500Y17020000D03*
%TD*%
D14*
%TO.C,C4*%
X13237500Y2880000D03*
X13237500Y1920000D03*
%TD*%
D15*
%TO.C,R12*%
X18317500Y11700000D03*
X17257500Y11700000D03*
%TD*%
D16*
%TO.C,R2*%
X11757500Y5100000D03*
X12817500Y5100000D03*
%TD*%
D17*
%TO.C,C10*%
X2587500Y12920000D03*
X2587500Y13880000D03*
%TD*%
D18*
%TO.C,Q1*%
X16657500Y16230000D03*
X14757500Y16230000D03*
X15707500Y18430000D03*
%TD*%
D19*
%TO.C,U2*%
X7062500Y12880000D03*
X7712500Y12880000D03*
X8362500Y12880000D03*
X9012500Y12880000D03*
X9662500Y12880000D03*
X10312500Y12880000D03*
X10962500Y12880000D03*
X11612500Y12880000D03*
X12262500Y12880000D03*
X12912500Y12880000D03*
X12912500Y7120000D03*
X12262500Y7120000D03*
X11612500Y7120000D03*
X10962500Y7120000D03*
X10312500Y7120000D03*
X9662500Y7120000D03*
X9012500Y7120000D03*
X8362500Y7120000D03*
X7712500Y7120000D03*
X7062500Y7120000D03*
%TD*%
D20*
%TO.C,R7*%
X15187500Y10530000D03*
X15187500Y9470000D03*
%TD*%
D17*
%TO.C,C5*%
X10487500Y14720000D03*
X10487500Y15680000D03*
%TD*%
D21*
%TO.C,C2*%
X6507500Y1670000D03*
X7467500Y1670000D03*
%TD*%
D17*
%TO.C,C11*%
X3687500Y12920000D03*
X3687500Y13880000D03*
%TD*%
D22*
%TO.C,C13*%
X4767500Y10200000D03*
X3807500Y10200000D03*
%TD*%
D23*
%TO.C,FB1*%
X6555500Y2770000D03*
X7419500Y2770000D03*
%TD*%
D24*
%TO.C,R10*%
X11777500Y14670000D03*
X11777500Y15730000D03*
%TD*%
D21*
%TO.C,C6*%
X8107500Y16100000D03*
X9067500Y16100000D03*
%TD*%
D14*
%TO.C,C1*%
X6387500Y4830000D03*
X6387500Y3870000D03*
%TD*%
D15*
%TO.C,R11*%
X16217500Y11700000D03*
X15157500Y11700000D03*
%TD*%
D14*
%TO.C,C8*%
X15087500Y7480000D03*
X15087500Y6520000D03*
%TD*%
D15*
%TO.C,R9*%
X10717500Y5100000D03*
X9657500Y5100000D03*
%TD*%
D14*
%TO.C,C9*%
X16187500Y7480000D03*
X16187500Y6520000D03*
%TD*%
D21*
%TO.C,C14*%
X3807500Y11300000D03*
X4767500Y11300000D03*
%TD*%
D20*
%TO.C,R4*%
X17287500Y10630000D03*
X17287500Y9570000D03*
%TD*%
D22*
%TO.C,C7*%
X9067500Y15000000D03*
X8107500Y15000000D03*
%TD*%
D17*
%TO.C,C15*%
X4787500Y8120000D03*
X4787500Y9080000D03*
%TD*%
D24*
%TO.C,R6*%
X15187500Y13970000D03*
X15187500Y15030000D03*
%TD*%
D14*
%TO.C,C3*%
X14387500Y2880000D03*
X14387500Y1920000D03*
%TD*%
D24*
%TO.C,R5*%
X17287500Y7470000D03*
X17287500Y8530000D03*
%TD*%
%TO.C,R8*%
X14087500Y13970000D03*
X14087500Y15030000D03*
%TD*%
D17*
%TO.C,C12*%
X4787500Y12920000D03*
X4787500Y13880000D03*
%TD*%
D20*
%TO.C,R1*%
X7487500Y4930000D03*
X7487500Y3870000D03*
%TD*%
D25*
%TO.C,U1*%
X9037500Y1850000D03*
X9037500Y2800000D03*
X9037500Y3750000D03*
X11737500Y3750000D03*
X11737500Y1850000D03*
%TD*%
D20*
%TO.C,R13*%
X7087500Y16030000D03*
X7087500Y14970000D03*
%TD*%
D24*
%TO.C,R3*%
X16287500Y13970000D03*
X16287500Y15030000D03*
%TD*%
D17*
%TO.C,C16*%
X3687500Y8120000D03*
X3687500Y9080000D03*
%TD*%
D12*
%TO.C,H4*%
X4607500Y15420000D03*
%TD*%
D26*
%TO.C,CON1*%
X4370000Y2270000D03*
X4370000Y3520000D03*
X4370000Y4770000D03*
X4370000Y6020000D03*
%TD*%
M02*
