%TF.GenerationSoftware,KiCad,Pcbnew,10.0.1*%
%TF.CreationDate,2026-05-08T14:46:53+05:30*%
%TF.ProjectId,X-Vision-HW,582d5669-7369-46f6-9e2d-48572e6b6963,rev?*%
%TF.SameCoordinates,PXd1d0ac3PY5111b03*%
%TF.FileFunction,Other,User*%
%FSLAX45Y45*%
G04 Gerber Fmt 4.5, Leading zero omitted, Abs format (unit mm)*
G04 Created by KiCad (PCBNEW 10.0.1) date 2026-05-08 14:46:53*
%MOMM*%
%LPD*%
G01*
G04 APERTURE LIST*
%ADD10C,0.050000*%
G04 APERTURE END LIST*
%TO.C,J1*%
D10*
X995289Y1881711D02*
X1875289Y1881711D01*
X995289Y1561711D02*
X995289Y1881711D01*
X1875289Y1881711D02*
X1875289Y1561711D01*
X1875289Y1561711D02*
X995289Y1561711D01*
%TO.C,U3*%
X1501289Y1272711D02*
X1801289Y1272711D01*
X1501289Y732711D02*
X1501289Y1272711D01*
X1801289Y1272711D02*
X1801289Y732711D01*
X1801289Y732711D02*
X1501289Y732711D01*
%TO.C,U4*%
X710539Y1279711D02*
X1340539Y1279711D01*
X710539Y649711D02*
X710539Y1279711D01*
X710539Y649711D02*
X1340539Y649711D01*
X1340539Y649711D02*
X1340539Y1279711D01*
%TO.C,H3*%
X1570289Y480711D02*
G75*
G02*
X1468289Y480711I-51000J0D01*
G01*
X1468289Y480711D02*
G75*
G02*
X1570289Y480711I51000J0D01*
G01*
%TO.C,D2*%
X884289Y1476711D02*
X1118289Y1476711D01*
X884289Y1368711D02*
X884289Y1476711D01*
X1118289Y1476711D02*
X1118289Y1368711D01*
X1118289Y1368711D02*
X884289Y1368711D01*
%TO.C,D1*%
X884289Y561711D02*
X1118289Y561711D01*
X884289Y453711D02*
X884289Y561711D01*
X1118289Y561711D02*
X1118289Y453711D01*
X1118289Y453711D02*
X884289Y453711D01*
%TO.C,H4*%
X512289Y1542711D02*
G75*
G02*
X410289Y1542711I-51000J0D01*
G01*
X410289Y1542711D02*
G75*
G02*
X512289Y1542711I51000J0D01*
G01*
%TD*%
M02*
