%TF.GenerationSoftware,KiCad,Pcbnew,10.0.1*%
%TF.CreationDate,2026-05-08T14:46:53+05:30*%
%TF.ProjectId,X-Vision-HW,582d5669-7369-46f6-9e2d-48572e6b6963,rev?*%
%TF.SameCoordinates,PXd1d0ac3PY5111b03*%
%TF.FileFunction,Legend,Bot*%
%TF.FilePolarity,Positive*%
%FSLAX45Y45*%
G04 Gerber Fmt 4.5, Leading zero omitted, Abs format (unit mm)*
G04 Created by KiCad (PCBNEW 10.0.1) date 2026-05-08 14:46:53*
%MOMM*%
%LPD*%
G01*
G04 APERTURE LIST*
%ADD10C,0.200000*%
%ADD11C,0.160000*%
%ADD12C,0.150000*%
%ADD13C,0.100000*%
G04 APERTURE END LIST*
D10*
X138459Y1089934D02*
X138459Y1044220D01*
X218459Y1067077D02*
X138459Y1067077D01*
X138459Y1002315D02*
X138459Y987077D01*
X138459Y987077D02*
X142268Y979458D01*
X142268Y979458D02*
X149887Y971839D01*
X149887Y971839D02*
X165125Y968029D01*
X165125Y968029D02*
X191792Y968029D01*
X191792Y968029D02*
X207030Y971839D01*
X207030Y971839D02*
X214649Y979458D01*
X214649Y979458D02*
X218459Y987077D01*
X218459Y987077D02*
X218459Y1002315D01*
X218459Y1002315D02*
X214649Y1009934D01*
X214649Y1009934D02*
X207030Y1017553D01*
X207030Y1017553D02*
X191792Y1021362D01*
X191792Y1021362D02*
X165125Y1021362D01*
X165125Y1021362D02*
X149887Y1017553D01*
X149887Y1017553D02*
X142268Y1009934D01*
X142268Y1009934D02*
X138459Y1002315D01*
X218459Y933743D02*
X138459Y933743D01*
X138459Y933743D02*
X138459Y903267D01*
X138459Y903267D02*
X142268Y895648D01*
X142268Y895648D02*
X146078Y891839D01*
X146078Y891839D02*
X153697Y888029D01*
X153697Y888029D02*
X165125Y888029D01*
X165125Y888029D02*
X172745Y891839D01*
X172745Y891839D02*
X176554Y895648D01*
X176554Y895648D02*
X180363Y903267D01*
X180363Y903267D02*
X180363Y933743D01*
%TO.C,C4*%
D11*
X1279289Y333711D02*
X1279289Y291336D01*
X1279289Y147711D02*
X1279289Y191054D01*
X1279289Y147711D02*
X1369289Y147711D01*
X1369289Y333711D02*
X1279289Y333711D01*
X1369289Y333711D02*
X1369289Y290711D01*
X1369289Y147711D02*
X1369289Y190429D01*
%TO.C,D3*%
D12*
X1491289Y1428711D02*
X1451289Y1428711D01*
%TO.C,R12*%
X1799289Y1211711D02*
X1759289Y1211711D01*
X1799289Y1129711D02*
X1759289Y1129711D01*
%TO.C,R2*%
X1209289Y551711D02*
X1249289Y551711D01*
X1209289Y469711D02*
X1249289Y469711D01*
%TO.C,C10*%
D11*
X214289Y1433711D02*
X214289Y1390992D01*
X214289Y1247711D02*
X214289Y1290711D01*
X214289Y1247711D02*
X304289Y1247711D01*
X304289Y1433711D02*
X214289Y1433711D01*
X304289Y1433711D02*
X304289Y1390367D01*
X304289Y1247711D02*
X304289Y1290086D01*
%TO.C,U2*%
D12*
X669289Y775711D02*
X669289Y1225711D01*
X1329289Y1225711D02*
X1329289Y775711D01*
D10*
X659289Y1380711D02*
G75*
G02*
X639289Y1380711I-10000J0D01*
G01*
X639289Y1380711D02*
G75*
G02*
X659289Y1380711I10000J0D01*
G01*
%TO.C,R7*%
D12*
X1478289Y1020711D02*
X1478289Y980711D01*
X1560289Y1020711D02*
X1560289Y980711D01*
%TO.C,C5*%
D11*
X1004289Y1613711D02*
X1004289Y1570992D01*
X1004289Y1427711D02*
X1004289Y1470711D01*
X1004289Y1427711D02*
X1094289Y1427711D01*
X1094289Y1613711D02*
X1004289Y1613711D01*
X1094289Y1613711D02*
X1094289Y1570367D01*
X1094289Y1427711D02*
X1094289Y1470086D01*
%TO.C,C2*%
X606289Y212711D02*
X606289Y122711D01*
X606289Y212711D02*
X649289Y212711D01*
X606289Y122711D02*
X648664Y122711D01*
X792289Y212711D02*
X749570Y212711D01*
X792289Y122711D02*
X748945Y122711D01*
X792289Y122711D02*
X792289Y212711D01*
%TO.C,C11*%
X324289Y1433711D02*
X324289Y1390992D01*
X324289Y1247711D02*
X324289Y1290711D01*
X324289Y1247711D02*
X414289Y1247711D01*
X414289Y1433711D02*
X324289Y1433711D01*
X414289Y1433711D02*
X414289Y1390367D01*
X414289Y1247711D02*
X414289Y1290086D01*
%TO.C,C13*%
X336289Y1065711D02*
X336289Y975711D01*
X336289Y1065711D02*
X379633Y1065711D01*
X336289Y975711D02*
X379008Y975711D01*
X522289Y1065711D02*
X479914Y1065711D01*
X522289Y975711D02*
X479289Y975711D01*
X522289Y975711D02*
X522289Y1065711D01*
%TO.C,FB1*%
X615289Y320711D02*
X615289Y234711D01*
X615289Y320711D02*
X783289Y320711D01*
X783289Y234711D02*
X615289Y234711D01*
X783289Y234711D02*
X783289Y319711D01*
%TO.C,R10*%
D12*
X1137289Y1540711D02*
X1137289Y1500711D01*
X1219289Y1540711D02*
X1219289Y1500711D01*
%TO.C,C6*%
D11*
X766289Y1655711D02*
X766289Y1565711D01*
X766289Y1655711D02*
X809289Y1655711D01*
X766289Y1565711D02*
X808664Y1565711D01*
X952289Y1655711D02*
X909570Y1655711D01*
X952289Y1565711D02*
X908945Y1565711D01*
X952289Y1565711D02*
X952289Y1655711D01*
%TO.C,C1*%
X594289Y528711D02*
X594289Y486336D01*
X594289Y342711D02*
X594289Y386054D01*
X594289Y342711D02*
X684289Y342711D01*
X684289Y528711D02*
X594289Y528711D01*
X684289Y528711D02*
X684289Y485711D01*
X684289Y342711D02*
X684289Y385429D01*
%TO.C,R11*%
D12*
X1589289Y1211711D02*
X1549289Y1211711D01*
X1589289Y1129711D02*
X1549289Y1129711D01*
%TO.C,C8*%
D11*
X1464289Y793711D02*
X1464289Y751336D01*
X1464289Y607711D02*
X1464289Y651055D01*
X1464289Y607711D02*
X1554289Y607711D01*
X1554289Y793711D02*
X1464289Y793711D01*
X1554289Y793711D02*
X1554289Y750711D01*
X1554289Y607711D02*
X1554289Y650430D01*
%TO.C,R9*%
D12*
X1039289Y551711D02*
X999289Y551711D01*
X1039289Y469711D02*
X999289Y469711D01*
%TO.C,C9*%
D11*
X1574289Y793711D02*
X1574289Y751336D01*
X1574289Y607711D02*
X1574289Y651055D01*
X1574289Y607711D02*
X1664289Y607711D01*
X1664289Y793711D02*
X1574289Y793711D01*
X1664289Y793711D02*
X1664289Y750711D01*
X1664289Y607711D02*
X1664289Y650430D01*
%TO.C,C14*%
X336289Y1175711D02*
X336289Y1085711D01*
X336289Y1175711D02*
X379289Y1175711D01*
X336289Y1085711D02*
X378664Y1085711D01*
X522289Y1175711D02*
X479570Y1175711D01*
X522289Y1085711D02*
X478945Y1085711D01*
X522289Y1085711D02*
X522289Y1175711D01*
%TO.C,R4*%
D12*
X1688289Y1030711D02*
X1688289Y990711D01*
X1770289Y1030711D02*
X1770289Y990711D01*
%TO.C,C7*%
D11*
X766289Y1545711D02*
X766289Y1455711D01*
X766289Y1545711D02*
X809633Y1545711D01*
X766289Y1455711D02*
X809008Y1455711D01*
X952289Y1545711D02*
X909914Y1545711D01*
X952289Y1455711D02*
X909289Y1455711D01*
X952289Y1455711D02*
X952289Y1545711D01*
%TO.C,C15*%
X434289Y953711D02*
X434289Y910992D01*
X434289Y767711D02*
X434289Y810711D01*
X434289Y767711D02*
X524289Y767711D01*
X524289Y953711D02*
X434289Y953711D01*
X524289Y953711D02*
X524289Y910367D01*
X524289Y767711D02*
X524289Y810086D01*
%TO.C,C3*%
X1394289Y333711D02*
X1394289Y291336D01*
X1394289Y147711D02*
X1394289Y191054D01*
X1394289Y147711D02*
X1484289Y147711D01*
X1484289Y333711D02*
X1394289Y333711D01*
X1484289Y333711D02*
X1484289Y290711D01*
X1484289Y147711D02*
X1484289Y190429D01*
%TO.C,R5*%
D12*
X1688289Y780711D02*
X1688289Y820711D01*
X1770289Y780711D02*
X1770289Y820711D01*
%TO.C,C12*%
D11*
X434289Y1433711D02*
X434289Y1390992D01*
X434289Y1247711D02*
X434289Y1290711D01*
X434289Y1247711D02*
X524289Y1247711D01*
X524289Y1433711D02*
X434289Y1433711D01*
X524289Y1433711D02*
X524289Y1390367D01*
X524289Y1247711D02*
X524289Y1290086D01*
%TO.C,R1*%
D12*
X708289Y460711D02*
X708289Y420711D01*
X790289Y460711D02*
X790289Y420711D01*
%TO.C,U1*%
X959289Y135711D02*
X1119289Y135711D01*
X1119289Y425711D02*
X959289Y425711D01*
X1119289Y247211D02*
X1119289Y314211D01*
D10*
X914289Y125711D02*
G75*
G02*
X894289Y125711I-10000J0D01*
G01*
X894289Y125711D02*
G75*
G02*
X914289Y125711I10000J0D01*
G01*
%TO.C,R13*%
D12*
X668289Y1570711D02*
X668289Y1530711D01*
X750289Y1570711D02*
X750289Y1530711D01*
%TO.C,R14*%
X1560289Y1528711D02*
X1560289Y1568711D01*
X1642289Y1528711D02*
X1642289Y1568711D01*
%TO.C,C16*%
D11*
X324289Y953711D02*
X324289Y910992D01*
X324289Y767711D02*
X324289Y810711D01*
X324289Y767711D02*
X414289Y767711D01*
X414289Y953711D02*
X324289Y953711D01*
X414289Y953711D02*
X414289Y910367D01*
X414289Y767711D02*
X414289Y810086D01*
%TO.C,CON1*%
D13*
X2539Y756481D02*
X362539Y756481D01*
X362539Y73941D01*
X2539Y73941D01*
X2539Y756481D01*
%TD*%
M02*
