%TF.GenerationSoftware,KiCad,Pcbnew,9.0.7*%
%TF.CreationDate,2026-03-10T13:05:46+05:30*%
%TF.ProjectId,X-Vision-HW,582d5669-7369-46f6-9e2d-48572e6b6963,rev?*%
%TF.SameCoordinates,PXd1d1fd4PY510ff40*%
%TF.FileFunction,Paste,Top*%
%TF.FilePolarity,Positive*%
%FSLAX46Y46*%
G04 Gerber Fmt 4.6, Leading zero omitted, Abs format (unit mm)*
G04 Created by KiCad (PCBNEW 9.0.7) date 2026-03-10 13:05:46*
%MOMM*%
%LPD*%
G01*
G04 APERTURE LIST*
G04 Aperture macros list*
%AMRoundRect*
0 Rectangle with rounded corners*
0 $1 Rounding radius*
0 $2 $3 $4 $5 $6 $7 $8 $9 X,Y pos of 4 corners*
0 Add a 4 corners polygon primitive as box body*
4,1,4,$2,$3,$4,$5,$6,$7,$8,$9,$2,$3,0*
0 Add four circle primitives for the rounded corners*
1,1,$1+$1,$2,$3*
1,1,$1+$1,$4,$5*
1,1,$1+$1,$6,$7*
1,1,$1+$1,$8,$9*
0 Add four rect primitives between the rounded corners*
20,1,$1+$1,$2,$3,$4,$5,0*
20,1,$1+$1,$4,$5,$6,$7,0*
20,1,$1+$1,$6,$7,$8,$9,0*
20,1,$1+$1,$8,$9,$2,$3,0*%
G04 Aperture macros list end*
%ADD10C,0.100000*%
%ADD11RoundRect,0.050197X-0.204803X0.204803X-0.204803X-0.204803X0.204803X-0.204803X0.204803X0.204803X0*%
%ADD12RoundRect,0.035000X-0.315000X-0.140000X0.315000X-0.140000X0.315000X0.140000X-0.315000X0.140000X0*%
%ADD13RoundRect,0.035000X-0.140000X-0.315000X0.140000X-0.315000X0.140000X0.315000X-0.140000X0.315000X0*%
%ADD14RoundRect,0.140000X0.210000X0.335000X-0.210000X0.335000X-0.210000X-0.335000X0.210000X-0.335000X0*%
G04 APERTURE END LIST*
%TO.C,U4*%
D10*
X9250000Y10340000D02*
X11250000Y10340000D01*
X11250000Y8940000D01*
X9250000Y8940000D01*
X9250000Y10340000D01*
G36*
X9250000Y10340000D02*
G01*
X11250000Y10340000D01*
X11250000Y8940000D01*
X9250000Y8940000D01*
X9250000Y10340000D01*
G37*
%TD*%
D11*
%TO.C,U3*%
X15707500Y8419947D03*
X15707500Y9219945D03*
X15707500Y10019946D03*
X15707500Y10819947D03*
X15707500Y11619945D03*
X16507473Y11619892D03*
X17307446Y11619945D03*
X17307446Y10819947D03*
X17307446Y10019946D03*
X17307446Y9219945D03*
X17307446Y8419947D03*
X16507473Y8420000D03*
%TD*%
D12*
%TO.C,U4*%
X7600000Y11590000D03*
X7600000Y10940000D03*
X7600000Y10290000D03*
X7600000Y9640000D03*
X7600000Y8990000D03*
X7600000Y8340000D03*
X7600000Y7690000D03*
D13*
X8300000Y6990000D03*
X8950000Y6990000D03*
X9600000Y6990000D03*
X10250000Y6990000D03*
X10900000Y6990000D03*
X11550000Y6990000D03*
X12200000Y6990000D03*
D12*
X12900000Y7690000D03*
X12900000Y8340000D03*
X12900000Y8990000D03*
X12900000Y9640000D03*
X12900000Y10290000D03*
X12900000Y10940000D03*
X12900000Y11590000D03*
D13*
X12200000Y12290000D03*
X11550000Y12290000D03*
X10900000Y12290000D03*
X10250000Y12290000D03*
X9600000Y12290000D03*
X8950000Y12290000D03*
X8300000Y12290000D03*
%TD*%
D14*
%TO.C,D2*%
X10757500Y14220000D03*
X9257500Y14220000D03*
%TD*%
%TO.C,D1*%
X10757500Y5070000D03*
X9257500Y5070000D03*
%TD*%
M02*
