%TF.GenerationSoftware,KiCad,Pcbnew,10.0.1*%
%TF.CreationDate,2026-05-08T14:46:53+05:30*%
%TF.ProjectId,X-Vision-HW,582d5669-7369-46f6-9e2d-48572e6b6963,rev?*%
%TF.SameCoordinates,PXd1d0ac3PY5111b03*%
%TF.FileFunction,Legend,Top*%
%TF.FilePolarity,Positive*%
%FSLAX45Y45*%
G04 Gerber Fmt 4.5, Leading zero omitted, Abs format (unit mm)*
G04 Created by KiCad (PCBNEW 10.0.1) date 2026-05-08 14:46:53*
%MOMM*%
%LPD*%
G01*
G04 APERTURE LIST*
%ADD10C,0.300000*%
%ADD11C,0.100000*%
%ADD12C,0.150000*%
%ADD13C,0.200000*%
%ADD14C,0.000000*%
%ADD15C,0.127000*%
G04 APERTURE END LIST*
D10*
X779289Y1650711D02*
X709289Y1690711D01*
X639289Y1650711D01*
X709289Y1790711D01*
X779289Y1650711D01*
G36*
X779289Y1650711D02*
G01*
X709289Y1690711D01*
X639289Y1650711D01*
X709289Y1790711D01*
X779289Y1650711D01*
G37*
D11*
X96289Y655711D02*
X336289Y655711D01*
X96289Y175711D02*
X96289Y655711D01*
X336289Y655711D02*
X336289Y175711D01*
X336289Y535711D02*
X96289Y535711D01*
X336289Y415711D02*
X96289Y415711D01*
X336289Y295711D02*
X96289Y295711D01*
X336289Y175711D02*
X96289Y175711D01*
D12*
X1479158Y1420262D02*
X1489158Y1417405D01*
X1489158Y1417405D02*
X1492491Y1414548D01*
X1492491Y1414548D02*
X1495824Y1408834D01*
X1495824Y1408834D02*
X1495824Y1400262D01*
X1495824Y1400262D02*
X1492491Y1394548D01*
X1492491Y1394548D02*
X1489158Y1391691D01*
X1489158Y1391691D02*
X1482491Y1388834D01*
X1482491Y1388834D02*
X1455824Y1388834D01*
X1455824Y1388834D02*
X1455824Y1448834D01*
X1455824Y1448834D02*
X1479158Y1448834D01*
X1479158Y1448834D02*
X1485824Y1445976D01*
X1485824Y1445976D02*
X1489158Y1443119D01*
X1489158Y1443119D02*
X1492491Y1437405D01*
X1492491Y1437405D02*
X1492491Y1431691D01*
X1492491Y1431691D02*
X1489158Y1425976D01*
X1489158Y1425976D02*
X1485824Y1423119D01*
X1485824Y1423119D02*
X1479158Y1420262D01*
X1479158Y1420262D02*
X1455824Y1420262D01*
X1539158Y1448834D02*
X1552491Y1448834D01*
X1552491Y1448834D02*
X1559158Y1445976D01*
X1559158Y1445976D02*
X1565824Y1440262D01*
X1565824Y1440262D02*
X1569158Y1428834D01*
X1569158Y1428834D02*
X1569158Y1408834D01*
X1569158Y1408834D02*
X1565824Y1397405D01*
X1565824Y1397405D02*
X1559158Y1391691D01*
X1559158Y1391691D02*
X1552491Y1388834D01*
X1552491Y1388834D02*
X1539158Y1388834D01*
X1539158Y1388834D02*
X1532491Y1391691D01*
X1532491Y1391691D02*
X1525824Y1397405D01*
X1525824Y1397405D02*
X1522491Y1408834D01*
X1522491Y1408834D02*
X1522491Y1428834D01*
X1522491Y1428834D02*
X1525824Y1440262D01*
X1525824Y1440262D02*
X1532491Y1445976D01*
X1532491Y1445976D02*
X1539158Y1448834D01*
X1589158Y1448834D02*
X1629158Y1448834D01*
X1609158Y1388834D02*
X1609158Y1448834D01*
X1642491Y1448834D02*
X1682491Y1448834D01*
X1662491Y1388834D02*
X1662491Y1448834D01*
X1719158Y1448834D02*
X1732491Y1448834D01*
X1732491Y1448834D02*
X1739158Y1445976D01*
X1739158Y1445976D02*
X1745824Y1440262D01*
X1745824Y1440262D02*
X1749158Y1428834D01*
X1749158Y1428834D02*
X1749158Y1408834D01*
X1749158Y1408834D02*
X1745824Y1397405D01*
X1745824Y1397405D02*
X1739158Y1391691D01*
X1739158Y1391691D02*
X1732491Y1388834D01*
X1732491Y1388834D02*
X1719158Y1388834D01*
X1719158Y1388834D02*
X1712491Y1391691D01*
X1712491Y1391691D02*
X1705824Y1397405D01*
X1705824Y1397405D02*
X1702491Y1408834D01*
X1702491Y1408834D02*
X1702491Y1428834D01*
X1702491Y1428834D02*
X1705824Y1440262D01*
X1705824Y1440262D02*
X1712491Y1445976D01*
X1712491Y1445976D02*
X1719158Y1448834D01*
X1779157Y1388834D02*
X1779157Y1448834D01*
X1779157Y1448834D02*
X1802491Y1405976D01*
X1802491Y1405976D02*
X1825824Y1448834D01*
X1825824Y1448834D02*
X1825824Y1388834D01*
D11*
G36*
X181613Y615563D02*
G01*
X181510Y613523D01*
X181221Y612156D01*
X180770Y611442D01*
X180136Y611240D01*
X179547Y611381D01*
X178414Y611980D01*
X175260Y613585D01*
X170567Y615190D01*
X167722Y615733D01*
X164232Y615930D01*
X160510Y615586D01*
X157264Y614596D01*
X154366Y612982D01*
X151937Y610826D01*
X150000Y608178D01*
X148534Y604968D01*
X147653Y601429D01*
X147347Y597406D01*
X147666Y593018D01*
X148556Y589394D01*
X150035Y586163D01*
X151937Y583594D01*
X154321Y581552D01*
X157162Y580070D01*
X160326Y579188D01*
X163906Y578883D01*
X167471Y579297D01*
X169181Y579818D01*
X170750Y580539D01*
X170750Y592951D01*
X160708Y592951D01*
X160079Y593162D01*
X159561Y593878D01*
X159276Y594974D01*
X159151Y597033D01*
X159254Y598971D01*
X159561Y600227D01*
X160052Y600931D01*
X160708Y601158D01*
X178623Y601158D01*
X179792Y600931D01*
X180693Y600249D01*
X181287Y599161D01*
X181492Y597703D01*
X181492Y576513D01*
X181379Y575332D01*
X181059Y574355D01*
X180444Y573559D01*
X179297Y572893D01*
X176000Y571783D01*
X171922Y570797D01*
X167658Y570178D01*
X163335Y569973D01*
X159129Y570188D01*
X155354Y570806D01*
X151959Y571797D01*
X148738Y573220D01*
X145918Y574983D01*
X143456Y577088D01*
X141337Y579538D01*
X139561Y582340D01*
X138125Y585536D01*
X137124Y588906D01*
X136500Y592653D01*
X136282Y596831D01*
X136514Y601144D01*
X137179Y605030D01*
X138250Y608540D01*
X139768Y611871D01*
X141625Y614796D01*
X143822Y617355D01*
X146370Y619568D01*
X149261Y621419D01*
X152534Y622913D01*
X155987Y623964D01*
X159762Y624615D01*
X163906Y624840D01*
X167271Y624712D01*
X170179Y624352D01*
X175117Y623169D01*
X178619Y621667D01*
X180569Y620271D01*
X181030Y619598D01*
X181367Y618641D01*
X181613Y615563D01*
G37*
G36*
X236322Y574758D02*
G01*
X235992Y573080D01*
X235113Y571852D01*
X233801Y571134D01*
X232263Y570911D01*
X227672Y570911D01*
X225192Y571193D01*
X224196Y571586D01*
X223265Y572219D01*
X221565Y574237D01*
X219718Y577593D01*
X206522Y602246D01*
X204184Y606994D01*
X202056Y611944D01*
X201972Y611944D01*
X202217Y606085D01*
X202301Y600066D01*
X202301Y572431D01*
X202074Y571695D01*
X201297Y571145D01*
X199799Y570801D01*
X197381Y570676D01*
X195003Y570801D01*
X193527Y571145D01*
X192790Y571698D01*
X192585Y572439D01*
X192585Y620055D01*
X192886Y621788D01*
X193710Y622938D01*
X194949Y623655D01*
X196480Y623902D01*
X202261Y623902D01*
X204880Y623634D01*
X206786Y622755D01*
X208365Y621055D01*
X209885Y618395D01*
X220213Y599103D01*
X221993Y595655D01*
X223697Y592270D01*
X225294Y588943D01*
X226811Y585683D01*
X226851Y585683D01*
X226668Y591647D01*
X226606Y597575D01*
X226606Y622378D01*
X226851Y623114D01*
X227672Y623686D01*
X229189Y624034D01*
X231607Y624136D01*
X233944Y624034D01*
X235399Y623686D01*
X236117Y623110D01*
X236322Y622374D01*
X236322Y574758D01*
G37*
G36*
X269390Y623696D02*
G01*
X273366Y623125D01*
X276699Y622242D01*
X279874Y620933D01*
X282631Y619295D01*
X285019Y617329D01*
X287071Y615017D01*
X288784Y612349D01*
X290163Y609280D01*
X291114Y606041D01*
X291714Y602364D01*
X291925Y598183D01*
X291692Y593343D01*
X291038Y589220D01*
X290020Y585716D01*
X288526Y582402D01*
X286701Y579603D01*
X284546Y577256D01*
X282037Y575291D01*
X279163Y573687D01*
X275878Y572446D01*
X272443Y571626D01*
X268421Y571099D01*
X263726Y570911D01*
X251061Y570911D01*
X249798Y571116D01*
X248782Y571709D01*
X248117Y572691D01*
X247862Y574311D01*
X247862Y579352D01*
X258604Y579352D01*
X264221Y579352D01*
X268449Y579662D01*
X271676Y580499D01*
X274475Y581952D01*
X276739Y583968D01*
X278484Y586514D01*
X279773Y589731D01*
X280509Y593337D01*
X280777Y597776D01*
X280549Y601467D01*
X279894Y604792D01*
X278732Y607849D01*
X277065Y610412D01*
X274867Y612513D01*
X272064Y614127D01*
X268745Y615091D01*
X264056Y615461D01*
X258604Y615461D01*
X258604Y579352D01*
X247862Y579352D01*
X247862Y620502D01*
X248117Y622121D01*
X248782Y623103D01*
X249798Y623697D01*
X251061Y623902D01*
X264668Y623902D01*
X269390Y623696D01*
G37*
G36*
X184504Y220800D02*
G01*
X184098Y216800D01*
X182947Y213469D01*
X181104Y210568D01*
X178723Y208208D01*
X175869Y206379D01*
X172495Y205035D01*
X168847Y204244D01*
X164871Y203973D01*
X162179Y204086D01*
X159768Y204409D01*
X155609Y205449D01*
X152598Y206732D01*
X150854Y207915D01*
X150415Y208519D01*
X150096Y209435D01*
X149872Y212341D01*
X149953Y214480D01*
X150220Y215880D01*
X150711Y216642D01*
X151429Y216869D01*
X152040Y216736D01*
X153049Y216209D01*
X155730Y214759D01*
X159647Y213304D01*
X162021Y212822D01*
X164915Y212648D01*
X166823Y212771D01*
X168440Y213117D01*
X169905Y213700D01*
X171081Y214451D01*
X172040Y215413D01*
X172741Y216579D01*
X173168Y217903D01*
X173316Y219408D01*
X173063Y221102D01*
X172330Y222500D01*
X171222Y223698D01*
X169769Y224793D01*
X166183Y226676D01*
X162043Y228538D01*
X157903Y230769D01*
X156001Y232142D01*
X154316Y233758D01*
X152902Y235634D01*
X151755Y237872D01*
X151035Y240392D01*
X150773Y243566D01*
X151142Y247216D01*
X152188Y250259D01*
X153859Y252915D01*
X155998Y255051D01*
X158577Y256698D01*
X161654Y257898D01*
X164981Y258600D01*
X168560Y258840D01*
X172330Y258557D01*
X175855Y257799D01*
X178767Y256718D01*
X180445Y255722D01*
X180998Y255033D01*
X181248Y254271D01*
X181390Y253077D01*
X181431Y251289D01*
X181368Y249270D01*
X181163Y247911D01*
X180753Y247127D01*
X180039Y246881D01*
X178602Y247438D01*
X176184Y248658D01*
X172862Y249856D01*
X170922Y250258D01*
X168725Y250398D01*
X167027Y250284D01*
X165651Y249970D01*
X164423Y249451D01*
X163457Y248794D01*
X162688Y247965D01*
X162145Y246988D01*
X161717Y244753D01*
X161963Y243091D01*
X162680Y241701D01*
X163781Y240507D01*
X165263Y239408D01*
X168930Y237524D01*
X173111Y235663D01*
X177291Y233432D01*
X179229Y232057D01*
X180936Y230443D01*
X182370Y228568D01*
X183519Y226347D01*
X184244Y223863D01*
X184504Y220800D01*
G37*
G36*
X214279Y257696D02*
G01*
X218255Y257125D01*
X221588Y256242D01*
X224763Y254933D01*
X227520Y253295D01*
X229908Y251329D01*
X231960Y249017D01*
X233673Y246349D01*
X235052Y243280D01*
X236003Y240041D01*
X236603Y236364D01*
X236814Y232183D01*
X236581Y227343D01*
X235927Y223220D01*
X234909Y219715D01*
X233415Y216402D01*
X231590Y213603D01*
X229435Y211256D01*
X226926Y209291D01*
X224052Y207687D01*
X220767Y206446D01*
X217332Y205626D01*
X213310Y205099D01*
X208615Y204911D01*
X195950Y204911D01*
X194687Y205116D01*
X193671Y205709D01*
X193006Y206691D01*
X192751Y208311D01*
X192751Y213352D01*
X203493Y213352D01*
X209110Y213352D01*
X213338Y213662D01*
X216565Y214498D01*
X219364Y215952D01*
X221628Y217968D01*
X223373Y220514D01*
X224662Y223731D01*
X225398Y227337D01*
X225666Y231776D01*
X225438Y235467D01*
X224783Y238792D01*
X223620Y241849D01*
X221954Y244412D01*
X219756Y246513D01*
X216953Y248127D01*
X213634Y249091D01*
X208945Y249461D01*
X203493Y249461D01*
X203493Y213352D01*
X192751Y213352D01*
X192751Y254502D01*
X193006Y256121D01*
X193671Y257103D01*
X194687Y257697D01*
X195950Y257902D01*
X209556Y257902D01*
X214279Y257696D01*
G37*
G36*
X266768Y258074D02*
G01*
X268999Y257784D01*
X270150Y257110D01*
X270743Y255883D01*
X287138Y208933D01*
X287753Y206600D01*
X287726Y205820D01*
X287424Y205310D01*
X286864Y204985D01*
X285826Y204779D01*
X282672Y204676D01*
X279411Y204739D01*
X277631Y204984D01*
X276770Y205493D01*
X276359Y206354D01*
X272795Y217103D01*
X252872Y217103D01*
X249512Y206640D01*
X249080Y205680D01*
X248219Y205065D01*
X246537Y204760D01*
X243691Y204676D01*
X240738Y204801D01*
X239786Y205031D01*
X239265Y205391D01*
X238994Y205931D01*
X238976Y206721D01*
X239591Y209014D01*
X245264Y225310D01*
X255249Y225310D01*
X270292Y225310D01*
X262793Y247889D01*
X262753Y247889D01*
X255249Y225310D01*
X245264Y225310D01*
X255949Y256008D01*
X256521Y257132D01*
X257569Y257788D01*
X259554Y258074D01*
X262918Y258136D01*
X266768Y258074D01*
G37*
G36*
X197226Y466521D02*
G01*
X196833Y462689D01*
X195710Y459440D01*
X193894Y456600D01*
X191485Y454256D01*
X188570Y452435D01*
X185012Y451065D01*
X181134Y450255D01*
X176776Y449973D01*
X171691Y450379D01*
X167489Y451380D01*
X164477Y452614D01*
X162920Y453581D01*
X162367Y454318D01*
X162041Y455278D01*
X161836Y456666D01*
X161773Y458692D01*
X161874Y460500D01*
X162099Y461407D01*
X162527Y461988D01*
X163085Y462165D01*
X164499Y461605D01*
X167060Y460407D01*
X170705Y459205D01*
X172877Y458795D01*
X175464Y458648D01*
X177642Y458789D01*
X179439Y459180D01*
X181061Y459836D01*
X182370Y460678D01*
X183429Y461752D01*
X184173Y463019D01*
X184614Y464451D01*
X184766Y466078D01*
X184582Y467856D01*
X184048Y469401D01*
X183165Y470762D01*
X181916Y471925D01*
X180374Y472830D01*
X178351Y473548D01*
X176100Y473969D01*
X173292Y474124D01*
X168701Y474124D01*
X167800Y474266D01*
X167185Y474867D01*
X166837Y476128D01*
X166734Y478212D01*
X166837Y480172D01*
X167163Y481352D01*
X167738Y481931D01*
X168577Y482096D01*
X173208Y482096D01*
X175510Y482238D01*
X177428Y482634D01*
X179161Y483309D01*
X180524Y484177D01*
X181628Y485288D01*
X182429Y486602D01*
X182917Y488084D01*
X183085Y489753D01*
X182634Y492255D01*
X182073Y493361D01*
X181301Y494299D01*
X180319Y495054D01*
X179025Y495662D01*
X177561Y496031D01*
X175746Y496164D01*
X173662Y496007D01*
X171731Y495545D01*
X168350Y494189D01*
X165807Y492815D01*
X164272Y492178D01*
X163697Y492321D01*
X163287Y492878D01*
X163041Y494076D01*
X162960Y496102D01*
X163001Y497816D01*
X163166Y498952D01*
X163473Y499736D01*
X164067Y500461D01*
X165748Y501619D01*
X168943Y503107D01*
X173391Y504334D01*
X175971Y504709D01*
X178864Y504840D01*
X182593Y504602D01*
X185690Y503942D01*
X188475Y502823D01*
X190687Y501359D01*
X192468Y499480D01*
X193761Y497208D01*
X194537Y494638D01*
X194808Y491654D01*
X194651Y489304D01*
X194193Y487173D01*
X193427Y485195D01*
X192390Y483473D01*
X191063Y481977D01*
X189419Y480707D01*
X187532Y479723D01*
X185301Y478996D01*
X185301Y478872D01*
X187985Y478340D01*
X190302Y477450D01*
X192366Y476207D01*
X194050Y474713D01*
X195409Y472958D01*
X196406Y470987D01*
X197018Y468851D01*
X197226Y466521D01*
G37*
G36*
X239662Y488936D02*
G01*
X239640Y488445D01*
X239560Y487807D01*
X239395Y487009D01*
X239131Y485986D01*
X228144Y452889D01*
X227591Y451761D01*
X226444Y451087D01*
X224271Y450760D01*
X220685Y450676D01*
X217138Y450779D01*
X214984Y451127D01*
X213859Y451801D01*
X213306Y452889D01*
X202323Y485986D01*
X201931Y487459D01*
X201766Y488404D01*
X201747Y488936D01*
X201971Y489654D01*
X202769Y490167D01*
X204349Y490452D01*
X206869Y490537D01*
X209577Y490434D01*
X211196Y490145D01*
X212035Y489613D01*
X212445Y488774D01*
X220765Y461913D01*
X221011Y460887D01*
X221256Y461913D01*
X229455Y488774D01*
X229844Y489613D01*
X230683Y490145D01*
X232222Y490434D01*
X234742Y490537D01*
X237222Y490452D01*
X238717Y490167D01*
X239457Y489654D01*
X239662Y488936D01*
G37*
G36*
X279527Y466521D02*
G01*
X279133Y462689D01*
X278010Y459440D01*
X276195Y456600D01*
X273786Y454256D01*
X270870Y452435D01*
X267312Y451065D01*
X263434Y450255D01*
X259076Y449973D01*
X253991Y450379D01*
X249789Y451380D01*
X246777Y452614D01*
X245220Y453581D01*
X244667Y454318D01*
X244341Y455278D01*
X244136Y456666D01*
X244073Y458692D01*
X244174Y460500D01*
X244399Y461407D01*
X244827Y461988D01*
X245385Y462165D01*
X246799Y461605D01*
X249360Y460407D01*
X253005Y459205D01*
X255177Y458795D01*
X257764Y458648D01*
X259942Y458789D01*
X261739Y459180D01*
X263361Y459836D01*
X264670Y460678D01*
X265729Y461752D01*
X266473Y463019D01*
X266914Y464451D01*
X267067Y466078D01*
X266882Y467856D01*
X266348Y469401D01*
X265465Y470762D01*
X264216Y471925D01*
X262674Y472830D01*
X260651Y473548D01*
X258400Y473969D01*
X255592Y474124D01*
X251001Y474124D01*
X250100Y474266D01*
X249485Y474867D01*
X249137Y476128D01*
X249034Y478212D01*
X249137Y480172D01*
X249463Y481352D01*
X250038Y481931D01*
X250877Y482096D01*
X255508Y482096D01*
X257810Y482238D01*
X259728Y482634D01*
X261461Y483309D01*
X262824Y484177D01*
X263928Y485288D01*
X264729Y486602D01*
X265217Y488084D01*
X265385Y489753D01*
X264934Y492255D01*
X264373Y493361D01*
X263601Y494299D01*
X262619Y495054D01*
X261325Y495662D01*
X259861Y496031D01*
X258047Y496164D01*
X255961Y496007D01*
X254031Y495545D01*
X250650Y494189D01*
X248107Y492815D01*
X246572Y492178D01*
X245997Y492321D01*
X245586Y492878D01*
X245341Y494076D01*
X245260Y496102D01*
X245301Y497816D01*
X245466Y498952D01*
X245773Y499736D01*
X246367Y500461D01*
X248048Y501619D01*
X251243Y503107D01*
X255691Y504334D01*
X258271Y504709D01*
X261164Y504840D01*
X264893Y504602D01*
X267990Y503942D01*
X270775Y502823D01*
X272987Y501359D01*
X274768Y499480D01*
X276061Y497208D01*
X276837Y494638D01*
X277109Y491654D01*
X276951Y489304D01*
X276493Y487173D01*
X275727Y485195D01*
X274691Y483473D01*
X273363Y481977D01*
X271719Y480707D01*
X269833Y479723D01*
X267601Y478996D01*
X267601Y478872D01*
X270286Y478340D01*
X272602Y477450D01*
X274666Y476207D01*
X276350Y474713D01*
X277710Y472958D01*
X278706Y470987D01*
X279318Y468851D01*
X279527Y466521D01*
G37*
G36*
X197504Y341800D02*
G01*
X197098Y337800D01*
X195947Y334469D01*
X194104Y331568D01*
X191723Y329208D01*
X188869Y327379D01*
X185495Y326035D01*
X181847Y325244D01*
X177871Y324973D01*
X175179Y325086D01*
X172768Y325409D01*
X168609Y326449D01*
X165598Y327732D01*
X163854Y328915D01*
X163415Y329519D01*
X163096Y330435D01*
X162872Y333341D01*
X162953Y335480D01*
X163220Y336880D01*
X163711Y337642D01*
X164429Y337869D01*
X165040Y337736D01*
X166049Y337209D01*
X168730Y335759D01*
X172647Y334304D01*
X175021Y333822D01*
X177915Y333648D01*
X179823Y333771D01*
X181439Y334117D01*
X182905Y334701D01*
X184081Y335451D01*
X185040Y336413D01*
X185741Y337580D01*
X186168Y338903D01*
X186316Y340408D01*
X186063Y342103D01*
X185330Y343500D01*
X184222Y344698D01*
X182769Y345793D01*
X179183Y347677D01*
X175043Y349538D01*
X170903Y351769D01*
X169001Y353142D01*
X167316Y354758D01*
X165902Y356634D01*
X164755Y358872D01*
X164035Y361392D01*
X163773Y364566D01*
X164142Y368216D01*
X165188Y371259D01*
X166859Y373915D01*
X168998Y376051D01*
X171577Y377698D01*
X174654Y378898D01*
X177981Y379600D01*
X181560Y379840D01*
X185330Y379557D01*
X188855Y378799D01*
X191767Y377718D01*
X193445Y376722D01*
X193998Y376033D01*
X194248Y375271D01*
X194390Y374077D01*
X194431Y372289D01*
X194368Y370270D01*
X194163Y368911D01*
X193753Y368127D01*
X193039Y367881D01*
X191602Y368438D01*
X189184Y369658D01*
X185861Y370856D01*
X183922Y371258D01*
X181725Y371398D01*
X180027Y371284D01*
X178651Y370970D01*
X177423Y370451D01*
X176457Y369794D01*
X175688Y368965D01*
X175145Y367988D01*
X174717Y365753D01*
X174963Y364091D01*
X175680Y362701D01*
X176780Y361507D01*
X178263Y360408D01*
X181930Y358524D01*
X186111Y356663D01*
X190291Y354432D01*
X192229Y353057D01*
X193936Y351443D01*
X195370Y349568D01*
X196519Y347347D01*
X197244Y344863D01*
X197504Y341800D01*
G37*
G36*
X242435Y333839D02*
G01*
X242373Y332113D01*
X242186Y330897D01*
X241860Y330025D01*
X241204Y329190D01*
X239464Y327977D01*
X236310Y326556D01*
X232045Y325427D01*
X229596Y325090D01*
X226861Y324973D01*
X223257Y325170D01*
X219992Y325738D01*
X217024Y326655D01*
X214227Y327973D01*
X211752Y329646D01*
X209565Y331685D01*
X207715Y334042D01*
X206141Y336809D01*
X204850Y340041D01*
X203969Y343421D01*
X203410Y347287D01*
X203212Y351706D01*
X203427Y356201D01*
X204040Y360192D01*
X205015Y363741D01*
X206416Y367138D01*
X208099Y370063D01*
X210056Y372571D01*
X212357Y374759D01*
X214936Y376560D01*
X217823Y377989D01*
X220894Y379004D01*
X224209Y379626D01*
X227806Y379840D01*
X232067Y379462D01*
X235859Y378477D01*
X238995Y377077D01*
X240941Y375714D01*
X241699Y374780D01*
X242025Y373831D01*
X242212Y372472D01*
X242274Y370538D01*
X242190Y368435D01*
X241904Y367035D01*
X241413Y366251D01*
X240757Y366006D01*
X240129Y366156D01*
X239200Y366731D01*
X236760Y368350D01*
X233196Y369970D01*
X231012Y370501D01*
X228257Y370695D01*
X225226Y370362D01*
X222619Y369402D01*
X220338Y367848D01*
X218395Y365713D01*
X216893Y363124D01*
X215753Y359909D01*
X215088Y356385D01*
X214852Y352241D01*
X215110Y347734D01*
X215815Y344141D01*
X217022Y340941D01*
X218559Y338503D01*
X220537Y336564D01*
X222864Y335202D01*
X225495Y334398D01*
X228543Y334117D01*
X231303Y334295D01*
X233500Y334780D01*
X237086Y336246D01*
X239545Y337693D01*
X240477Y338208D01*
X241043Y338338D01*
X241699Y338173D01*
X242106Y337525D01*
X242351Y336169D01*
X242435Y333839D01*
G37*
G36*
X279328Y330428D02*
G01*
X279226Y328354D01*
X278918Y326955D01*
X278405Y326156D01*
X277687Y325911D01*
X253382Y325911D01*
X252120Y326116D01*
X251104Y326709D01*
X250439Y327691D01*
X250184Y329311D01*
X250184Y377418D01*
X250448Y378151D01*
X251331Y378685D01*
X252990Y379012D01*
X255595Y379136D01*
X258218Y379012D01*
X259860Y378685D01*
X260739Y378154D01*
X261006Y377418D01*
X261006Y334821D01*
X277687Y334821D01*
X278405Y334594D01*
X278918Y333857D01*
X279226Y332502D01*
X279328Y330428D01*
G37*
D13*
G36*
X797380Y119728D02*
G01*
X798665Y116670D01*
X798719Y115628D01*
X798308Y114926D01*
X797491Y114470D01*
X795929Y114164D01*
X791152Y113998D01*
X787107Y114110D01*
X784787Y114462D01*
X783556Y115141D01*
X782901Y116235D01*
X769619Y141725D01*
X756396Y116235D01*
X755683Y115141D01*
X754452Y114462D01*
X752102Y114110D01*
X748141Y113998D01*
X743744Y114164D01*
X742347Y114470D01*
X741639Y114926D01*
X741317Y115617D01*
X741419Y116670D01*
X742787Y119728D01*
X759727Y150566D01*
X743988Y179548D01*
X742650Y182684D01*
X742548Y183755D01*
X742924Y184433D01*
X743713Y184862D01*
X745244Y185141D01*
X750055Y185278D01*
X754125Y185166D01*
X756503Y184814D01*
X757734Y184130D01*
X758418Y183041D01*
X770821Y159681D01*
X782901Y183041D01*
X783585Y184130D01*
X784733Y184814D01*
X786917Y185166D01*
X790771Y185278D01*
X795084Y185141D01*
X796516Y184856D01*
X797272Y184404D01*
X797640Y183706D01*
X797570Y182655D01*
X796344Y179548D01*
X780605Y150727D01*
X797380Y119728D01*
G37*
G36*
X828404Y141876D02*
G01*
X828219Y138951D01*
X827803Y137450D01*
X827016Y136504D01*
X825888Y136195D01*
X803154Y136195D01*
X801983Y136513D01*
X801185Y137480D01*
X800767Y138999D01*
X800584Y141876D01*
X800767Y144706D01*
X801185Y146194D01*
X801980Y147137D01*
X803154Y147450D01*
X825888Y147450D01*
X827011Y147176D01*
X827803Y146248D01*
X828267Y144499D01*
X828404Y141876D01*
G37*
G36*
X874492Y116836D02*
G01*
X873779Y115332D01*
X872358Y114462D01*
X869681Y114081D01*
X865260Y113998D01*
X861513Y114027D01*
X858866Y114164D01*
X857088Y114487D01*
X855940Y115034D01*
X855231Y115825D01*
X854767Y117002D01*
X833723Y179602D01*
X832932Y182713D01*
X833010Y183748D01*
X833479Y184433D01*
X834308Y184866D01*
X835799Y185141D01*
X840391Y185278D01*
X844328Y185166D01*
X846512Y184785D01*
X847577Y183969D01*
X848153Y182606D01*
X865367Y128135D01*
X865421Y128135D01*
X882308Y182332D01*
X882855Y183832D01*
X883974Y184731D01*
X886245Y185166D01*
X890290Y185278D01*
X894193Y185112D01*
X895439Y184804D01*
X896108Y184320D01*
X896440Y183607D01*
X896435Y182547D01*
X895590Y179494D01*
X874492Y116836D01*
G37*
G36*
X919926Y116289D02*
G01*
X919570Y115307D01*
X918397Y114599D01*
X916209Y114164D01*
X912711Y113998D01*
X909238Y114164D01*
X907025Y114599D01*
X905848Y115307D01*
X905496Y116289D01*
X905496Y182987D01*
X905848Y183964D01*
X907050Y184677D01*
X909268Y185112D01*
X912711Y185278D01*
X916209Y185112D01*
X918397Y184677D01*
X919570Y183964D01*
X919926Y182987D01*
X919926Y116289D01*
G37*
G36*
X977270Y135496D02*
G01*
X976728Y130163D01*
X975194Y125722D01*
X972736Y121854D01*
X969561Y118707D01*
X965756Y116269D01*
X961257Y114477D01*
X956393Y113422D01*
X951092Y113060D01*
X947503Y113211D01*
X944287Y113641D01*
X938743Y115029D01*
X934727Y116738D01*
X932402Y118316D01*
X931818Y119121D01*
X931391Y120343D01*
X931093Y124217D01*
X931201Y127070D01*
X931557Y128936D01*
X932212Y129952D01*
X933169Y130255D01*
X933984Y130078D01*
X935328Y129376D01*
X938904Y127441D01*
X944126Y125502D01*
X947292Y124860D01*
X951150Y124628D01*
X953694Y124792D01*
X955850Y125253D01*
X957804Y126030D01*
X959372Y127031D01*
X960650Y128314D01*
X961584Y129869D01*
X962154Y131634D01*
X962351Y133640D01*
X962014Y135900D01*
X961037Y137763D01*
X959559Y139360D01*
X957623Y140821D01*
X952840Y143332D01*
X947321Y145813D01*
X941801Y148788D01*
X939265Y150619D01*
X937018Y152774D01*
X935134Y155275D01*
X933604Y158260D01*
X932644Y161619D01*
X932295Y165851D01*
X932787Y170718D01*
X934180Y174775D01*
X936408Y178317D01*
X939261Y181165D01*
X942699Y183360D01*
X946803Y184960D01*
X951239Y185896D01*
X956011Y186216D01*
X961037Y185840D01*
X965737Y184828D01*
X969620Y183387D01*
X971857Y182059D01*
X972595Y181140D01*
X972927Y180124D01*
X973118Y178532D01*
X973171Y176148D01*
X973088Y173457D01*
X972815Y171644D01*
X972268Y170599D01*
X971315Y170272D01*
X969400Y171014D01*
X966176Y172641D01*
X961746Y174238D01*
X959159Y174774D01*
X956231Y174961D01*
X953966Y174809D01*
X952132Y174390D01*
X950495Y173697D01*
X949206Y172822D01*
X948181Y171717D01*
X947457Y170413D01*
X946886Y167434D01*
X947214Y165218D01*
X948171Y163365D01*
X949638Y161773D01*
X951614Y160307D01*
X956504Y157796D01*
X962078Y155314D01*
X967651Y152339D01*
X970236Y150506D01*
X972512Y148353D01*
X974424Y145853D01*
X975956Y142892D01*
X976922Y139581D01*
X977270Y135496D01*
G37*
G36*
X1002695Y116289D02*
G01*
X1002339Y115307D01*
X1001166Y114599D01*
X998978Y114164D01*
X995480Y113998D01*
X992007Y114164D01*
X989794Y114599D01*
X988617Y115307D01*
X988265Y116289D01*
X988265Y182987D01*
X988617Y183964D01*
X989819Y184677D01*
X992037Y185112D01*
X995480Y185278D01*
X998978Y185112D01*
X1001166Y184677D01*
X1002339Y183964D01*
X1002695Y182987D01*
X1002695Y116289D01*
G37*
G36*
X1054275Y185961D02*
G01*
X1058976Y185236D01*
X1063126Y184086D01*
X1067053Y182384D01*
X1070459Y180204D01*
X1073404Y177535D01*
X1075875Y174413D01*
X1077955Y170718D01*
X1079632Y166369D01*
X1080760Y161828D01*
X1081481Y156559D01*
X1081737Y150459D01*
X1081478Y144623D01*
X1080734Y139405D01*
X1079549Y134734D01*
X1077817Y130261D01*
X1075648Y126361D01*
X1073047Y122967D01*
X1069965Y120020D01*
X1066422Y117568D01*
X1062364Y115595D01*
X1058049Y114224D01*
X1053169Y113362D01*
X1047636Y113060D01*
X1042157Y113320D01*
X1037385Y114056D01*
X1033231Y115214D01*
X1029307Y116934D01*
X1025913Y119124D01*
X1022987Y121794D01*
X1020541Y124919D01*
X1018487Y128637D01*
X1016837Y133039D01*
X1015743Y137632D01*
X1015040Y142984D01*
X1014790Y149203D01*
X1014821Y149882D01*
X1029875Y149882D01*
X1030105Y144259D01*
X1030749Y139507D01*
X1031959Y135144D01*
X1033700Y131637D01*
X1036129Y128760D01*
X1039273Y126655D01*
X1043047Y125404D01*
X1048071Y124940D01*
X1053089Y125464D01*
X1056927Y126899D01*
X1060140Y129219D01*
X1062662Y132238D01*
X1064503Y135830D01*
X1065749Y140108D01*
X1066421Y144685D01*
X1066653Y149667D01*
X1066424Y155090D01*
X1065778Y159769D01*
X1064562Y164078D01*
X1062799Y167556D01*
X1060354Y170422D01*
X1057201Y172563D01*
X1053429Y173859D01*
X1048457Y174336D01*
X1043440Y173805D01*
X1039600Y172348D01*
X1036382Y170019D01*
X1033861Y167038D01*
X1032022Y163499D01*
X1030773Y159276D01*
X1030104Y154763D01*
X1029875Y149882D01*
X1014821Y149882D01*
X1015048Y154887D01*
X1015789Y160005D01*
X1016974Y164620D01*
X1018707Y169040D01*
X1020877Y172905D01*
X1023480Y176275D01*
X1026560Y179209D01*
X1030103Y181662D01*
X1034164Y183646D01*
X1038480Y185036D01*
X1043378Y185909D01*
X1048945Y186216D01*
X1054275Y185961D01*
G37*
G36*
X1152172Y119440D02*
G01*
X1151732Y117203D01*
X1150560Y115566D01*
X1148811Y114609D01*
X1146760Y114311D01*
X1140639Y114311D01*
X1137332Y114687D01*
X1136004Y115211D01*
X1134762Y116055D01*
X1132496Y118746D01*
X1130034Y123221D01*
X1112439Y156091D01*
X1109322Y162422D01*
X1106484Y169021D01*
X1106372Y169021D01*
X1106699Y161210D01*
X1106811Y153184D01*
X1106811Y116338D01*
X1106508Y115356D01*
X1105473Y114623D01*
X1103475Y114164D01*
X1100251Y113998D01*
X1097081Y114164D01*
X1095112Y114623D01*
X1094130Y115361D01*
X1093857Y116348D01*
X1093857Y179836D01*
X1094258Y182146D01*
X1095356Y183681D01*
X1097008Y184636D01*
X1099049Y184965D01*
X1106758Y184965D01*
X1110250Y184609D01*
X1112790Y183436D01*
X1114896Y181170D01*
X1116923Y177623D01*
X1130693Y151900D01*
X1133067Y147303D01*
X1135339Y142790D01*
X1137469Y138354D01*
X1139491Y134007D01*
X1139545Y134007D01*
X1139300Y141959D01*
X1139217Y149863D01*
X1139217Y182933D01*
X1139545Y183915D01*
X1140639Y184677D01*
X1142661Y185141D01*
X1145885Y185278D01*
X1149002Y185141D01*
X1150941Y184677D01*
X1151899Y183910D01*
X1152172Y182928D01*
X1152172Y119440D01*
G37*
G36*
X1236856Y165011D02*
G01*
X1236827Y164356D01*
X1236719Y163506D01*
X1236499Y162441D01*
X1236148Y161078D01*
X1221498Y116949D01*
X1220760Y115444D01*
X1219231Y114545D01*
X1216335Y114110D01*
X1211552Y113998D01*
X1206824Y114135D01*
X1203952Y114599D01*
X1202452Y115498D01*
X1201714Y116949D01*
X1187069Y161078D01*
X1186547Y163042D01*
X1186327Y164302D01*
X1186303Y165011D01*
X1186601Y165968D01*
X1187665Y166652D01*
X1189771Y167033D01*
X1193132Y167145D01*
X1196741Y167009D01*
X1198901Y166623D01*
X1200019Y165914D01*
X1200566Y164796D01*
X1211660Y128980D01*
X1211987Y127612D01*
X1212314Y128980D01*
X1223247Y164796D01*
X1223765Y165914D01*
X1224883Y166623D01*
X1226935Y167009D01*
X1230296Y167145D01*
X1233603Y167033D01*
X1235596Y166652D01*
X1236582Y165968D01*
X1236856Y165011D01*
G37*
G36*
X1289681Y119699D02*
G01*
X1289515Y117139D01*
X1289051Y115468D01*
X1288367Y114579D01*
X1287492Y114311D01*
X1248472Y114311D01*
X1247651Y114579D01*
X1246968Y115468D01*
X1246504Y117139D01*
X1246342Y119699D01*
X1246479Y122312D01*
X1246914Y124012D01*
X1247598Y124955D01*
X1248472Y125253D01*
X1261647Y125253D01*
X1261647Y171522D01*
X1250280Y165270D01*
X1248228Y164532D01*
X1247501Y164550D01*
X1246972Y164859D01*
X1246342Y166466D01*
X1246181Y169681D01*
X1246235Y171835D01*
X1246508Y173276D01*
X1247109Y174258D01*
X1248150Y175078D01*
X1263342Y184882D01*
X1264026Y185234D01*
X1265090Y185454D01*
X1266810Y185561D01*
X1269570Y185591D01*
X1272931Y185507D01*
X1274870Y185234D01*
X1275744Y184711D01*
X1275964Y183891D01*
X1275964Y125253D01*
X1287497Y125253D01*
X1288396Y124955D01*
X1289104Y124012D01*
X1289544Y122312D01*
X1289681Y119699D01*
G37*
%TO.C,J1*%
X1110289Y1627711D02*
G75*
G02*
X1090289Y1627711I-10000J0D01*
G01*
X1090289Y1627711D02*
G75*
G02*
X1110289Y1627711I10000J0D01*
G01*
D14*
%TO.C,G\u002A\u002A\u002A*%
G36*
X357090Y1071991D02*
G01*
X392509Y1071600D01*
X392943Y1065704D01*
X392981Y1061737D01*
X392541Y1059110D01*
X392335Y1058766D01*
X390639Y1058474D01*
X386440Y1058213D01*
X380152Y1057996D01*
X372193Y1057835D01*
X362980Y1057742D01*
X356481Y1057724D01*
X321670Y1057724D01*
X321670Y1065053D01*
X321670Y1072382D01*
X357090Y1071991D01*
G37*
G36*
X393240Y1258071D02*
G01*
X393006Y1254211D01*
X392429Y1251740D01*
X392266Y1251498D01*
X390591Y1251225D01*
X386410Y1250982D01*
X380139Y1250779D01*
X372193Y1250628D01*
X362989Y1250542D01*
X356481Y1250524D01*
X321670Y1250524D01*
X321670Y1257097D01*
X321670Y1263670D01*
X357455Y1263670D01*
X393240Y1263670D01*
X393240Y1258071D01*
G37*
G36*
X314294Y1310775D02*
G01*
X314221Y1303837D01*
X278218Y1276085D01*
X242214Y1248334D01*
X278291Y1247943D01*
X314367Y1247552D01*
X314367Y1236606D01*
X314367Y1225659D01*
X259229Y1226042D01*
X204091Y1226424D01*
X203659Y1234598D01*
X203228Y1242772D01*
X237254Y1269653D01*
X271279Y1296534D01*
X237320Y1296926D01*
X203361Y1297318D01*
X203361Y1307515D01*
X203361Y1317712D01*
X258864Y1317712D01*
X314367Y1317712D01*
X314294Y1310775D01*
G37*
G36*
X369372Y1443259D02*
G01*
X379383Y1443063D01*
X386623Y1442740D01*
X391041Y1442291D01*
X392561Y1441781D01*
X393150Y1439828D01*
X392501Y1437494D01*
X390397Y1434549D01*
X386624Y1430764D01*
X380967Y1425908D01*
X373209Y1419751D01*
X368726Y1416304D01*
X345770Y1398776D01*
X369505Y1398375D01*
X393240Y1397974D01*
X393240Y1391437D01*
X393240Y1384901D01*
X357455Y1384901D01*
X321670Y1384901D01*
X321670Y1390628D01*
X321740Y1392700D01*
X322158Y1394504D01*
X323234Y1396366D01*
X325278Y1398613D01*
X328603Y1401572D01*
X333517Y1405570D01*
X340332Y1410932D01*
X342853Y1412902D01*
X364036Y1429449D01*
X342853Y1429853D01*
X321670Y1430257D01*
X321670Y1436791D01*
X321670Y1443325D01*
X356638Y1443325D01*
X369372Y1443259D01*
G37*
G36*
X326417Y1035364D02*
G01*
X329120Y1034249D01*
X334065Y1032205D01*
X340794Y1029422D01*
X348850Y1026090D01*
X357774Y1022396D01*
X362202Y1020563D01*
X393240Y1007713D01*
X393240Y1000773D01*
X393240Y993832D01*
X357820Y979260D01*
X322400Y964688D01*
X321951Y971997D01*
X321992Y976786D01*
X322705Y979795D01*
X323159Y980329D01*
X325006Y981155D01*
X329119Y982821D01*
X335027Y985141D01*
X342260Y987931D01*
X349517Y990692D01*
X357400Y993710D01*
X364244Y996403D01*
X369617Y998596D01*
X373087Y1000111D01*
X374228Y1000760D01*
X372934Y1001482D01*
X369323Y1003061D01*
X363811Y1005325D01*
X356817Y1008105D01*
X348758Y1011227D01*
X347954Y1011535D01*
X321670Y1021579D01*
X321670Y1029447D01*
X321670Y1037315D01*
X326417Y1035364D01*
G37*
G36*
X334116Y1222302D02*
G01*
X334585Y1217146D01*
X334699Y1212661D01*
X334586Y1210983D01*
X334085Y1207436D01*
X363662Y1207041D01*
X393240Y1206646D01*
X393240Y1201077D01*
X393005Y1197227D01*
X392425Y1194769D01*
X392266Y1194534D01*
X390567Y1194233D01*
X386413Y1193969D01*
X380268Y1193759D01*
X372598Y1193618D01*
X363869Y1193561D01*
X363054Y1193561D01*
X353168Y1193571D01*
X345833Y1193523D01*
X340679Y1193297D01*
X337338Y1192773D01*
X335440Y1191832D01*
X334615Y1190354D01*
X334494Y1188220D01*
X334708Y1185310D01*
X334773Y1184413D01*
X334642Y1179850D01*
X334081Y1176015D01*
X333134Y1173167D01*
X331328Y1171930D01*
X327664Y1171652D01*
X327396Y1171652D01*
X321670Y1171652D01*
X321670Y1200864D01*
X321670Y1230076D01*
X327407Y1230076D01*
X333145Y1230076D01*
X334116Y1222302D01*
G37*
G36*
X275247Y980669D02*
G01*
X286124Y976620D01*
X295856Y970429D01*
X303995Y962127D01*
X304138Y961941D01*
X307528Y956886D01*
X310119Y951446D01*
X312003Y945156D01*
X313272Y937551D01*
X314020Y928168D01*
X314339Y916542D01*
X314367Y910761D01*
X314367Y883876D01*
X259229Y884259D01*
X258657Y884263D01*
X204091Y884642D01*
X203677Y905820D01*
X223395Y905820D01*
X258657Y905820D01*
X293918Y905820D01*
X293910Y919331D01*
X293746Y926031D01*
X293316Y932247D01*
X292699Y936953D01*
X292434Y938126D01*
X288789Y946556D01*
X282952Y953148D01*
X276493Y957307D01*
X267457Y960497D01*
X258106Y961360D01*
X248974Y960058D01*
X240597Y956754D01*
X233509Y951609D01*
X228246Y944785D01*
X227061Y942336D01*
X226044Y938589D01*
X225121Y932769D01*
X224411Y925722D01*
X224149Y921522D01*
X223395Y905820D01*
X203677Y905820D01*
X203662Y906551D01*
X203722Y921637D01*
X204603Y934233D01*
X206393Y944675D01*
X209176Y953301D01*
X213042Y960447D01*
X218076Y966450D01*
X219418Y967715D01*
X229280Y974834D01*
X240243Y979658D01*
X251858Y982219D01*
X263676Y982545D01*
X275247Y980669D01*
G37*
G36*
X392679Y960325D02*
G01*
X393058Y957170D01*
X392955Y954386D01*
X392534Y950262D01*
X391469Y947759D01*
X389040Y945882D01*
X385527Y944113D01*
X378545Y940777D01*
X378954Y922934D01*
X379364Y905090D01*
X386302Y901776D01*
X390351Y899697D01*
X392408Y897865D01*
X393146Y895330D01*
X393240Y892003D01*
X393014Y887958D01*
X392445Y885340D01*
X392144Y884920D01*
X390569Y885324D01*
X386697Y886784D01*
X380891Y889148D01*
X373514Y892267D01*
X365488Y895746D01*
X364929Y895988D01*
X356301Y899805D01*
X321554Y915314D01*
X321973Y923169D01*
X338589Y923169D01*
X339624Y922393D01*
X342807Y920732D01*
X347602Y918455D01*
X351792Y916566D01*
X365488Y910514D01*
X365488Y922773D01*
X365440Y928345D01*
X365312Y932593D01*
X365129Y934842D01*
X365052Y935033D01*
X363537Y934473D01*
X360087Y933009D01*
X355420Y930962D01*
X350252Y928654D01*
X345302Y926405D01*
X341286Y924538D01*
X338921Y923374D01*
X338589Y923169D01*
X321973Y923169D01*
X321977Y923240D01*
X322400Y931165D01*
X355994Y946166D01*
X365264Y950276D01*
X373706Y953962D01*
X380937Y957063D01*
X386576Y959415D01*
X390241Y960857D01*
X391494Y961245D01*
X392679Y960325D01*
G37*
G36*
X392680Y1166270D02*
G01*
X393057Y1163112D01*
X392955Y1160345D01*
X392534Y1156229D01*
X391468Y1153733D01*
X389037Y1151867D01*
X385527Y1150114D01*
X378544Y1146807D01*
X378954Y1128922D01*
X379364Y1111036D01*
X386302Y1107722D01*
X390351Y1105643D01*
X392408Y1103811D01*
X393146Y1101276D01*
X393240Y1097949D01*
X393014Y1093903D01*
X392445Y1091284D01*
X392144Y1090863D01*
X390569Y1091267D01*
X386697Y1092727D01*
X380892Y1095092D01*
X373516Y1098211D01*
X365488Y1101693D01*
X364933Y1101934D01*
X356312Y1105749D01*
X321576Y1121260D01*
X321985Y1129115D01*
X338589Y1129115D01*
X339624Y1128339D01*
X342807Y1126678D01*
X347602Y1124401D01*
X351792Y1122512D01*
X365488Y1116460D01*
X365488Y1128720D01*
X365440Y1134292D01*
X365312Y1138539D01*
X365129Y1140788D01*
X365052Y1140979D01*
X363537Y1140419D01*
X360087Y1138955D01*
X355420Y1136908D01*
X350252Y1134600D01*
X345302Y1132351D01*
X341286Y1130484D01*
X338921Y1129320D01*
X338589Y1129115D01*
X321985Y1129115D01*
X321988Y1129186D01*
X322400Y1137111D01*
X355994Y1152112D01*
X365264Y1156222D01*
X373706Y1159908D01*
X380937Y1163009D01*
X386576Y1165361D01*
X390241Y1166803D01*
X391494Y1167191D01*
X392680Y1166270D01*
G37*
G36*
X366611Y1359906D02*
G01*
X375203Y1356826D01*
X382641Y1352090D01*
X388348Y1345880D01*
X390808Y1341259D01*
X392491Y1335693D01*
X393654Y1329249D01*
X394140Y1323127D01*
X393794Y1318525D01*
X393774Y1318443D01*
X390464Y1308582D01*
X385831Y1300980D01*
X379520Y1295141D01*
X375120Y1292456D01*
X370953Y1290667D01*
X366240Y1289670D01*
X359968Y1289282D01*
X359632Y1289278D01*
X357455Y1289256D01*
X351142Y1289375D01*
X346608Y1289938D01*
X342715Y1291205D01*
X338327Y1293436D01*
X337737Y1293767D01*
X329857Y1299514D01*
X324455Y1306588D01*
X321345Y1315294D01*
X320442Y1322362D01*
X320599Y1325386D01*
X333421Y1325386D01*
X333866Y1318898D01*
X335413Y1313592D01*
X335510Y1313399D01*
X339725Y1308104D01*
X345557Y1304579D01*
X352395Y1302779D01*
X359632Y1302657D01*
X366657Y1304168D01*
X372861Y1307266D01*
X377634Y1311906D01*
X380027Y1316738D01*
X380881Y1322458D01*
X380554Y1328956D01*
X379189Y1334877D01*
X377815Y1337771D01*
X373023Y1342607D01*
X366623Y1345670D01*
X359310Y1346977D01*
X351784Y1346546D01*
X344743Y1344394D01*
X338884Y1340540D01*
X335779Y1336703D01*
X334064Y1331755D01*
X333421Y1325386D01*
X320599Y1325386D01*
X321001Y1333176D01*
X324002Y1342393D01*
X329461Y1350040D01*
X337395Y1356149D01*
X339672Y1357391D01*
X348268Y1360370D01*
X357440Y1361148D01*
X366611Y1359906D01*
G37*
G36*
X313784Y1444846D02*
G01*
X314168Y1441325D01*
X314358Y1436260D01*
X314367Y1434779D01*
X314367Y1423311D01*
X304143Y1418795D01*
X293918Y1414279D01*
X293918Y1385829D01*
X293918Y1357378D01*
X304143Y1352665D01*
X314367Y1347953D01*
X314367Y1336530D01*
X314305Y1330822D01*
X314032Y1327503D01*
X313418Y1326043D01*
X312333Y1325911D01*
X311811Y1326084D01*
X309948Y1326882D01*
X305723Y1328742D01*
X299439Y1331531D01*
X291398Y1335112D01*
X281903Y1339351D01*
X273470Y1343123D01*
X271257Y1344113D01*
X259761Y1349264D01*
X256673Y1350649D01*
X204091Y1374238D01*
X204091Y1385257D01*
X230381Y1385257D01*
X231160Y1384559D01*
X232198Y1384068D01*
X235005Y1382851D01*
X239861Y1380744D01*
X246137Y1378021D01*
X253202Y1374954D01*
X254847Y1374240D01*
X273470Y1366157D01*
X273470Y1385839D01*
X273394Y1392975D01*
X273186Y1398867D01*
X272875Y1403003D01*
X272491Y1404871D01*
X272374Y1404919D01*
X270721Y1404164D01*
X266862Y1402470D01*
X261276Y1400043D01*
X254443Y1397093D01*
X249725Y1395065D01*
X241720Y1391610D01*
X236094Y1389096D01*
X232537Y1387330D01*
X230736Y1386115D01*
X230381Y1385257D01*
X204091Y1385257D01*
X204091Y1385753D01*
X204091Y1397268D01*
X258133Y1421646D01*
X269885Y1426938D01*
X280810Y1431840D01*
X290621Y1436225D01*
X299030Y1439964D01*
X305751Y1442931D01*
X310496Y1444998D01*
X312979Y1446037D01*
X313271Y1446136D01*
X313784Y1444846D01*
G37*
G36*
X265498Y1208830D02*
G01*
X270767Y1208539D01*
X274765Y1207885D01*
X278314Y1206734D01*
X282240Y1204947D01*
X282397Y1204870D01*
X290347Y1199781D01*
X298107Y1192732D01*
X304827Y1184609D01*
X309477Y1176688D01*
X312754Y1166451D01*
X313988Y1155171D01*
X313123Y1143943D01*
X311455Y1137327D01*
X306219Y1126004D01*
X298881Y1116384D01*
X289821Y1108663D01*
X279418Y1103036D01*
X268049Y1099699D01*
X262929Y1099334D01*
X256093Y1098846D01*
X243929Y1100673D01*
X241687Y1101321D01*
X230242Y1106209D01*
X220606Y1113255D01*
X212610Y1122615D01*
X206655Y1133185D01*
X203678Y1142541D01*
X202547Y1153173D01*
X202848Y1157672D01*
X214992Y1157672D01*
X215420Y1147240D01*
X218298Y1137171D01*
X223651Y1127971D01*
X225431Y1125805D01*
X233658Y1118470D01*
X242933Y1113613D01*
X252832Y1111188D01*
X262929Y1111152D01*
X272798Y1113462D01*
X282013Y1118071D01*
X290148Y1124937D01*
X296284Y1133160D01*
X300451Y1142984D01*
X301856Y1153468D01*
X300488Y1164289D01*
X297656Y1172382D01*
X292996Y1180859D01*
X287276Y1187270D01*
X279735Y1192456D01*
X279166Y1192769D01*
X269303Y1196569D01*
X258806Y1197857D01*
X248292Y1196714D01*
X238377Y1193220D01*
X229678Y1187456D01*
X228181Y1186079D01*
X221396Y1177598D01*
X216992Y1167961D01*
X214992Y1157672D01*
X202848Y1157672D01*
X203277Y1164087D01*
X205880Y1174287D01*
X206127Y1174933D01*
X210837Y1183734D01*
X217676Y1192225D01*
X225892Y1199593D01*
X233174Y1204248D01*
X237294Y1206309D01*
X240746Y1207650D01*
X244356Y1208425D01*
X248951Y1208788D01*
X255356Y1208893D01*
X258133Y1208897D01*
X265498Y1208830D01*
G37*
G36*
X313773Y1092977D02*
G01*
X314177Y1091028D01*
X314339Y1087030D01*
X314367Y1081480D01*
X314367Y1068364D01*
X296109Y1052641D01*
X277852Y1036918D01*
X277852Y1026872D01*
X277852Y1016827D01*
X296109Y1016827D01*
X314367Y1016827D01*
X314367Y1006603D01*
X314367Y996378D01*
X258738Y996378D01*
X240363Y996378D01*
X203109Y996378D01*
X203525Y1016827D01*
X223809Y1016827D01*
X240363Y1016827D01*
X247061Y1016918D01*
X252666Y1017167D01*
X256542Y1017533D01*
X258022Y1017922D01*
X258404Y1019725D01*
X258645Y1023848D01*
X258726Y1029696D01*
X258628Y1036670D01*
X258612Y1037275D01*
X258288Y1045578D01*
X257814Y1051499D01*
X257113Y1055577D01*
X256112Y1058351D01*
X255538Y1059325D01*
X250969Y1063671D01*
X244925Y1066077D01*
X238279Y1066343D01*
X232573Y1064620D01*
X229175Y1062228D01*
X226722Y1058683D01*
X225092Y1053575D01*
X224166Y1046488D01*
X223821Y1037011D01*
X223811Y1034719D01*
X223809Y1016827D01*
X203525Y1016827D01*
X203740Y1027416D01*
X204112Y1040640D01*
X204633Y1051055D01*
X205300Y1058625D01*
X206113Y1063319D01*
X206312Y1063968D01*
X209858Y1070763D01*
X215280Y1077380D01*
X221660Y1082780D01*
X224331Y1084397D01*
X231255Y1086782D01*
X239580Y1087763D01*
X248150Y1087340D01*
X255805Y1085515D01*
X258414Y1084360D01*
X265541Y1079080D01*
X271154Y1071940D01*
X273630Y1066656D01*
X275037Y1063635D01*
X276338Y1062385D01*
X276481Y1062405D01*
X277961Y1063478D01*
X281199Y1066134D01*
X285771Y1070014D01*
X291251Y1074762D01*
X293477Y1076713D01*
X299341Y1081854D01*
X304594Y1086429D01*
X308762Y1090027D01*
X311372Y1092238D01*
X311811Y1092594D01*
X313020Y1093344D01*
X313773Y1092977D01*
G37*
G36*
X272632Y1190102D02*
G01*
X276276Y1187928D01*
X278488Y1186145D01*
X281842Y1183684D01*
X284501Y1182580D01*
X285268Y1182676D01*
X286305Y1182632D01*
X285943Y1180598D01*
X285709Y1178170D01*
X286405Y1177494D01*
X288473Y1176587D01*
X291472Y1174406D01*
X294457Y1171757D01*
X296480Y1169448D01*
X296840Y1168600D01*
X295864Y1167291D01*
X293297Y1167800D01*
X289681Y1169948D01*
X287569Y1171652D01*
X284421Y1174277D01*
X282238Y1175841D01*
X281788Y1176033D01*
X280324Y1174818D01*
X278140Y1171689D01*
X275654Y1167422D01*
X273285Y1162795D01*
X271452Y1158583D01*
X270573Y1155562D01*
X270549Y1155195D01*
X271229Y1152313D01*
X272978Y1148210D01*
X275354Y1143667D01*
X277916Y1139463D01*
X280224Y1136380D01*
X281836Y1135195D01*
X281850Y1135196D01*
X283542Y1136105D01*
X286521Y1138333D01*
X288021Y1139577D01*
X292112Y1142584D01*
X295156Y1143860D01*
X296721Y1143259D01*
X296840Y1142591D01*
X295827Y1140945D01*
X293246Y1138204D01*
X291362Y1136468D01*
X288277Y1133334D01*
X286501Y1130694D01*
X286314Y1129744D01*
X285502Y1128129D01*
X284123Y1127774D01*
X281462Y1126831D01*
X277869Y1124531D01*
X276446Y1123392D01*
X272491Y1120278D01*
X270181Y1119227D01*
X269190Y1120144D01*
X269088Y1121251D01*
X270192Y1123316D01*
X273004Y1126140D01*
X275006Y1127720D01*
X280924Y1132007D01*
X273047Y1137953D01*
X266398Y1142197D01*
X260530Y1143949D01*
X258587Y1143707D01*
X254728Y1143227D01*
X248277Y1140049D01*
X246096Y1138610D01*
X242132Y1135747D01*
X239358Y1133491D01*
X238415Y1132402D01*
X239455Y1131019D01*
X242080Y1128599D01*
X243527Y1127406D01*
X246934Y1124210D01*
X248629Y1121668D01*
X248538Y1120200D01*
X246590Y1120227D01*
X244619Y1121073D01*
X240697Y1123638D01*
X237909Y1126125D01*
X235292Y1128072D01*
X233272Y1128350D01*
X231939Y1128575D01*
X232119Y1130639D01*
X232161Y1133025D01*
X231395Y1133676D01*
X229294Y1134580D01*
X226269Y1136758D01*
X223269Y1139406D01*
X221243Y1141720D01*
X220888Y1142569D01*
X221860Y1143883D01*
X224433Y1143359D01*
X228090Y1141174D01*
X230347Y1139353D01*
X233627Y1136802D01*
X236150Y1136048D01*
X238469Y1137315D01*
X241139Y1140827D01*
X243461Y1144649D01*
X246394Y1151124D01*
X246826Y1155686D01*
X256735Y1155686D01*
X256834Y1153954D01*
X258587Y1153023D01*
X260324Y1153394D01*
X261730Y1155255D01*
X260890Y1156790D01*
X259680Y1157045D01*
X257236Y1156221D01*
X256735Y1155686D01*
X246826Y1155686D01*
X246954Y1157039D01*
X245094Y1163145D01*
X242028Y1168385D01*
X239291Y1172342D01*
X237245Y1175106D01*
X236386Y1176033D01*
X235061Y1175208D01*
X232240Y1173106D01*
X230382Y1171652D01*
X225930Y1168589D01*
X222693Y1167329D01*
X221032Y1167980D01*
X220888Y1168744D01*
X221993Y1170376D01*
X224799Y1172853D01*
X226658Y1174221D01*
X230363Y1177236D01*
X231725Y1179682D01*
X231614Y1180963D01*
X231496Y1182855D01*
X232430Y1182694D01*
X234413Y1182954D01*
X237619Y1184750D01*
X239492Y1186163D01*
X243846Y1189288D01*
X246973Y1190590D01*
X248529Y1189948D01*
X248639Y1189285D01*
X247601Y1187630D01*
X244968Y1184973D01*
X243286Y1183518D01*
X240383Y1180860D01*
X239247Y1178700D01*
X240070Y1176555D01*
X243042Y1173941D01*
X248355Y1170373D01*
X248514Y1170271D01*
X254404Y1167073D01*
X259315Y1166068D01*
X264195Y1167250D01*
X269314Y1170160D01*
X273904Y1173452D01*
X277516Y1176509D01*
X279734Y1178918D01*
X280142Y1180265D01*
X279651Y1180415D01*
X277524Y1181318D01*
X274480Y1183493D01*
X271468Y1186140D01*
X269440Y1188458D01*
X269088Y1189309D01*
X270062Y1190621D01*
X272632Y1190102D01*
G37*
%TO.C,U3*%
D15*
X1516289Y1257711D02*
X1516289Y747711D01*
X1516289Y747711D02*
X1786289Y747711D01*
X1786289Y1257711D02*
X1516289Y1257711D01*
X1786289Y747711D02*
X1786289Y1257711D01*
D13*
X1486289Y847711D02*
G75*
G02*
X1466289Y847711I-10000J0D01*
G01*
X1466289Y847711D02*
G75*
G02*
X1486289Y847711I10000J0D01*
G01*
%TO.C,U4*%
D15*
X715539Y1274711D02*
X715539Y1214711D01*
X715539Y1274711D02*
X775539Y1274711D01*
X715539Y654711D02*
X715539Y714711D01*
X715539Y654711D02*
X775539Y654711D01*
X1335539Y1274711D02*
X1275539Y1274711D01*
X1335539Y1274711D02*
X1335539Y1214711D01*
X1335539Y654711D02*
X1275539Y654711D01*
X1335539Y654711D02*
X1335539Y714711D01*
D13*
X685539Y1159711D02*
G75*
G02*
X665539Y1159711I-10000J0D01*
G01*
X665539Y1159711D02*
G75*
G02*
X685539Y1159711I10000J0D01*
G01*
D14*
%TO.C,G\u002A\u002A\u002A*%
G36*
X1058306Y354382D02*
G01*
X1058108Y354184D01*
X1057910Y354382D01*
X1058108Y354580D01*
X1058306Y354382D01*
G37*
G36*
X1138708Y373394D02*
G01*
X1138510Y373196D01*
X1138312Y373394D01*
X1138510Y373592D01*
X1138708Y373394D01*
G37*
G36*
X1270204Y270416D02*
G01*
X1270006Y270218D01*
X1269808Y270416D01*
X1270006Y270614D01*
X1270204Y270416D01*
G37*
G36*
X1140293Y331023D02*
G01*
X1140293Y328458D01*
X1133262Y328350D01*
X1126232Y328242D01*
X1126034Y315370D01*
X1125836Y302497D01*
X1122370Y302383D01*
X1118905Y302268D01*
X1118905Y315354D01*
X1118905Y328440D01*
X1111974Y328440D01*
X1105042Y328440D01*
X1105042Y331014D01*
X1105042Y333589D01*
X1122668Y333589D01*
X1140293Y333589D01*
X1140293Y331023D01*
G37*
G36*
X871757Y320915D02*
G01*
X871955Y308438D01*
X883557Y308333D01*
X895159Y308228D01*
X895043Y305363D01*
X894927Y302497D01*
X879965Y302393D01*
X875960Y302371D01*
X872685Y302366D01*
X870076Y302379D01*
X868069Y302413D01*
X866603Y302468D01*
X865613Y302547D01*
X865038Y302652D01*
X864813Y302784D01*
X864810Y302791D01*
X864770Y303288D01*
X864737Y304487D01*
X864714Y306298D01*
X864700Y308632D01*
X864696Y311399D01*
X864702Y314508D01*
X864719Y317870D01*
X864722Y318341D01*
X864826Y333391D01*
X868192Y333391D01*
X871559Y333391D01*
X871757Y320915D01*
G37*
G36*
X1029001Y357036D02*
G01*
X1028898Y356258D01*
X1028550Y355275D01*
X1028432Y355033D01*
X1027800Y354239D01*
X1026634Y353154D01*
X1025080Y351896D01*
X1023284Y350579D01*
X1021391Y349319D01*
X1020679Y348881D01*
X1019362Y348047D01*
X1017809Y347002D01*
X1016719Y346233D01*
X1014739Y344801D01*
X1013278Y343768D01*
X1012213Y343067D01*
X1011420Y342636D01*
X1010774Y342407D01*
X1010153Y342318D01*
X1009432Y342302D01*
X1009221Y342302D01*
X1008082Y342370D01*
X1007354Y342542D01*
X1007213Y342682D01*
X1007528Y343018D01*
X1008397Y343699D01*
X1009708Y344644D01*
X1011348Y345769D01*
X1012461Y346509D01*
X1014342Y347760D01*
X1016058Y348928D01*
X1017467Y349914D01*
X1018426Y350620D01*
X1018699Y350843D01*
X1019306Y351307D01*
X1020381Y352053D01*
X1021779Y352987D01*
X1023354Y354018D01*
X1024963Y355050D01*
X1026459Y355992D01*
X1027698Y356750D01*
X1028536Y357230D01*
X1028815Y357353D01*
X1029001Y357036D01*
G37*
G36*
X981839Y325946D02*
G01*
X982253Y325617D01*
X982429Y325442D01*
X982833Y324796D01*
X982630Y324028D01*
X982593Y323957D01*
X982374Y323571D01*
X982105Y323220D01*
X981676Y322816D01*
X980977Y322271D01*
X979900Y321497D01*
X978336Y320406D01*
X977321Y319703D01*
X975642Y318537D01*
X973927Y317342D01*
X972468Y316322D01*
X972066Y316039D01*
X970948Y315282D01*
X970084Y314752D01*
X969689Y314573D01*
X969245Y314342D01*
X968384Y313742D01*
X967408Y312993D01*
X966194Y312096D01*
X965225Y311620D01*
X964171Y311436D01*
X963348Y311413D01*
X962186Y311480D01*
X961432Y311655D01*
X961269Y311810D01*
X961412Y312003D01*
X962061Y312003D01*
X962259Y311805D01*
X962457Y312003D01*
X962259Y312201D01*
X962061Y312003D01*
X961412Y312003D01*
X961575Y312222D01*
X962372Y312898D01*
X963348Y313595D01*
X966404Y315661D01*
X969885Y318071D01*
X970972Y318833D01*
X972098Y319599D01*
X973594Y320582D01*
X975158Y321586D01*
X975329Y321694D01*
X976900Y322719D01*
X978450Y323788D01*
X979665Y324684D01*
X979753Y324753D01*
X980796Y325567D01*
X981422Y325946D01*
X981839Y325946D01*
G37*
G36*
X760770Y333583D02*
G01*
X764078Y333563D01*
X766697Y333527D01*
X768677Y333475D01*
X770069Y333405D01*
X770926Y333314D01*
X771298Y333202D01*
X771314Y333130D01*
X771327Y332833D01*
X771912Y332902D01*
X772849Y332832D01*
X773927Y332096D01*
X773951Y332074D01*
X775109Y331014D01*
X775147Y324108D01*
X775185Y317202D01*
X773908Y316088D01*
X772632Y314974D01*
X761695Y314968D01*
X758788Y314958D01*
X756107Y314934D01*
X753765Y314896D01*
X751874Y314848D01*
X750544Y314792D01*
X749889Y314730D01*
X749876Y314726D01*
X749538Y314604D01*
X749297Y314366D01*
X749133Y313890D01*
X749027Y313054D01*
X748960Y311735D01*
X748911Y309812D01*
X748886Y308494D01*
X748777Y302497D01*
X745311Y302383D01*
X741846Y302268D01*
X741846Y317929D01*
X741846Y322434D01*
X748654Y322434D01*
X748774Y320991D01*
X749008Y320281D01*
X749309Y320094D01*
X749922Y319952D01*
X750938Y319849D01*
X752446Y319782D01*
X754538Y319743D01*
X757302Y319727D01*
X758316Y319726D01*
X761186Y319729D01*
X763369Y319744D01*
X764973Y319780D01*
X766101Y319847D01*
X766862Y319954D01*
X767359Y320112D01*
X767700Y320328D01*
X767971Y320593D01*
X768582Y321745D01*
X768844Y323311D01*
X768763Y325002D01*
X768347Y326524D01*
X767800Y327399D01*
X766822Y328455D01*
X757799Y328348D01*
X748777Y328242D01*
X748662Y324538D01*
X748654Y322434D01*
X741846Y322434D01*
X741846Y333589D01*
X756722Y333589D01*
X760770Y333583D01*
G37*
G36*
X1250726Y333582D02*
G01*
X1254049Y333562D01*
X1256678Y333526D01*
X1258664Y333473D01*
X1260054Y333401D01*
X1260900Y333309D01*
X1261249Y333195D01*
X1261256Y333135D01*
X1261279Y332848D01*
X1261952Y332926D01*
X1262965Y332925D01*
X1263853Y332525D01*
X1264375Y331887D01*
X1264377Y331335D01*
X1264329Y330896D01*
X1264571Y330960D01*
X1264823Y330998D01*
X1265025Y330723D01*
X1265181Y330073D01*
X1265294Y328984D01*
X1265368Y327391D01*
X1265408Y325230D01*
X1265416Y322438D01*
X1265396Y318952D01*
X1265376Y316886D01*
X1265253Y305134D01*
X1264282Y304101D01*
X1263502Y303467D01*
X1262849Y303256D01*
X1262776Y303273D01*
X1262418Y303279D01*
X1262452Y303137D01*
X1262439Y302931D01*
X1262083Y302760D01*
X1261327Y302621D01*
X1260113Y302511D01*
X1258384Y302428D01*
X1256083Y302369D01*
X1253153Y302330D01*
X1249535Y302309D01*
X1245968Y302304D01*
X1241707Y302314D01*
X1238209Y302349D01*
X1235481Y302408D01*
X1233527Y302491D01*
X1232354Y302598D01*
X1231973Y302711D01*
X1231442Y302938D01*
X1230910Y302867D01*
X1230353Y302783D01*
X1230410Y303110D01*
X1230499Y303422D01*
X1230233Y303309D01*
X1229610Y303345D01*
X1228785Y303911D01*
X1227824Y304814D01*
X1227824Y304874D01*
X1264263Y304874D01*
X1264461Y304676D01*
X1264659Y304874D01*
X1264461Y305072D01*
X1264263Y304874D01*
X1227824Y304874D01*
X1227824Y317793D01*
X1227824Y318369D01*
X1227825Y321339D01*
X1227832Y324179D01*
X1227850Y326400D01*
X1227885Y328088D01*
X1227901Y328440D01*
X1234557Y328440D01*
X1234557Y318369D01*
X1234561Y315274D01*
X1234576Y312880D01*
X1234609Y311096D01*
X1234665Y309829D01*
X1234752Y308989D01*
X1234874Y308485D01*
X1235039Y308225D01*
X1235251Y308117D01*
X1235966Y308036D01*
X1237326Y307973D01*
X1239200Y307928D01*
X1241459Y307900D01*
X1243971Y307889D01*
X1246606Y307895D01*
X1249233Y307916D01*
X1251723Y307951D01*
X1253945Y308001D01*
X1255768Y308065D01*
X1257062Y308141D01*
X1257697Y308229D01*
X1257702Y308230D01*
X1258718Y308617D01*
X1258718Y318528D01*
X1258718Y328440D01*
X1246638Y328440D01*
X1234557Y328440D01*
X1227901Y328440D01*
X1227942Y329329D01*
X1228028Y330210D01*
X1228146Y330817D01*
X1228304Y331237D01*
X1228507Y331555D01*
X1228726Y331821D01*
X1229205Y332203D01*
X1263471Y332203D01*
X1263669Y332005D01*
X1263867Y332203D01*
X1263669Y332401D01*
X1263471Y332203D01*
X1229205Y332203D01*
X1229715Y332609D01*
X1230706Y332932D01*
X1231493Y333072D01*
X1231785Y333292D01*
X1232166Y333359D01*
X1233254Y333420D01*
X1234960Y333475D01*
X1237199Y333521D01*
X1239884Y333556D01*
X1242929Y333579D01*
X1246246Y333589D01*
X1246661Y333589D01*
X1250726Y333582D01*
G37*
G36*
X1022431Y347665D02*
G01*
X1023112Y347383D01*
X1023972Y346734D01*
X1025170Y345617D01*
X1025473Y345319D01*
X1026683Y344156D01*
X1027744Y343191D01*
X1028486Y342577D01*
X1028658Y342462D01*
X1029176Y342070D01*
X1030143Y341244D01*
X1031432Y340096D01*
X1032915Y338737D01*
X1033311Y338368D01*
X1037314Y334632D01*
X1037314Y330522D01*
X1037288Y328577D01*
X1037204Y327346D01*
X1037052Y326753D01*
X1036857Y326695D01*
X1036582Y326743D01*
X1036652Y326570D01*
X1036717Y325806D01*
X1036369Y324582D01*
X1035683Y323062D01*
X1034735Y321412D01*
X1033599Y319794D01*
X1033482Y319646D01*
X1032203Y318140D01*
X1030915Y316798D01*
X1029753Y315745D01*
X1028853Y315106D01*
X1028464Y314974D01*
X1028293Y315322D01*
X1028207Y316179D01*
X1028205Y316360D01*
X1028137Y317309D01*
X1027844Y317668D01*
X1027190Y317469D01*
X1026184Y316841D01*
X1025399Y316239D01*
X1024977Y315600D01*
X1024785Y314640D01*
X1024721Y313718D01*
X1024603Y311500D01*
X1022344Y310237D01*
X1019469Y308494D01*
X1016362Y306373D01*
X1013326Y304082D01*
X1013145Y303938D01*
X1011932Y303014D01*
X1010853Y302276D01*
X1010164Y301896D01*
X1009337Y301483D01*
X1008228Y300814D01*
X1007781Y300518D01*
X1006770Y299908D01*
X1005846Y299621D01*
X1004662Y299580D01*
X1003846Y299628D01*
X1002149Y299650D01*
X1000709Y299483D01*
X999699Y299163D01*
X999293Y298724D01*
X999291Y298696D01*
X998970Y298379D01*
X998697Y298339D01*
X998150Y298139D01*
X998153Y297680D01*
X998618Y297173D01*
X999316Y296859D01*
X1000181Y296538D01*
X1000600Y296197D01*
X1000603Y296186D01*
X1000330Y295775D01*
X999544Y295258D01*
X998491Y294750D01*
X997418Y294362D01*
X996574Y294211D01*
X996370Y294237D01*
X995864Y294271D01*
X995867Y294075D01*
X995686Y293791D01*
X994858Y293558D01*
X993528Y293381D01*
X991842Y293266D01*
X989943Y293217D01*
X987976Y293240D01*
X986087Y293341D01*
X984419Y293526D01*
X983845Y293624D01*
X981720Y294193D01*
X980207Y295032D01*
X979156Y296288D01*
X978421Y298107D01*
X978114Y299329D01*
X977808Y300306D01*
X977272Y301677D01*
X976690Y302993D01*
X976098Y304363D01*
X975680Y305540D01*
X975527Y306249D01*
X975342Y307112D01*
X974888Y308194D01*
X974817Y308327D01*
X974159Y309712D01*
X973568Y311270D01*
X973113Y312777D01*
X972862Y314007D01*
X972876Y314718D01*
X973364Y315343D01*
X974241Y316040D01*
X974408Y316146D01*
X975282Y316629D01*
X975821Y316691D01*
X976348Y316347D01*
X976462Y316247D01*
X977234Y315411D01*
X978025Y314316D01*
X978706Y313180D01*
X979146Y312219D01*
X979216Y311652D01*
X979214Y311648D01*
X979160Y311409D01*
X979271Y311486D01*
X979634Y311338D01*
X980258Y310671D01*
X980820Y309902D01*
X982154Y308339D01*
X983683Y307224D01*
X983729Y307201D01*
X984652Y306664D01*
X985135Y306243D01*
X985148Y306111D01*
X985247Y305905D01*
X985578Y305864D01*
X986307Y306119D01*
X987202Y306745D01*
X987324Y306854D01*
X988148Y307510D01*
X988789Y307836D01*
X988858Y307844D01*
X989397Y308054D01*
X989456Y308141D01*
X989864Y308497D01*
X990713Y309009D01*
X990974Y309146D01*
X991965Y309728D01*
X993425Y310684D01*
X995198Y311905D01*
X997124Y313282D01*
X999048Y314707D01*
X999291Y314892D01*
X1000214Y315520D01*
X1001479Y316295D01*
X1002234Y316727D01*
X1003727Y317641D01*
X1003877Y317746D01*
X1028601Y317746D01*
X1028746Y317420D01*
X1028865Y317482D01*
X1028912Y317952D01*
X1028865Y318010D01*
X1028629Y317956D01*
X1028601Y317746D01*
X1003877Y317746D01*
X1005249Y318703D01*
X1005818Y319146D01*
X1006959Y320025D01*
X1008023Y320755D01*
X1008433Y320995D01*
X1009114Y321401D01*
X1010297Y322157D01*
X1011831Y323166D01*
X1013566Y324330D01*
X1014079Y324677D01*
X1016024Y325992D01*
X1017986Y327305D01*
X1019749Y328472D01*
X1021098Y329351D01*
X1021223Y329430D01*
X1022541Y330303D01*
X1023660Y331100D01*
X1024350Y331658D01*
X1024371Y331679D01*
X1024853Y332625D01*
X1025049Y334009D01*
X1024965Y335533D01*
X1024608Y336901D01*
X1024244Y337550D01*
X1023696Y338368D01*
X1023461Y338954D01*
X1023461Y338957D01*
X1023206Y339469D01*
X1022567Y340315D01*
X1022089Y340862D01*
X1021047Y342187D01*
X1020093Y343694D01*
X1019858Y344144D01*
X1018990Y345938D01*
X1019794Y346742D01*
X1020799Y347393D01*
X1021769Y347682D01*
X1022431Y347665D01*
G37*
G36*
X825367Y380714D02*
G01*
X830096Y380694D01*
X834057Y380660D01*
X837244Y380612D01*
X839654Y380551D01*
X841282Y380477D01*
X842125Y380389D01*
X842250Y380325D01*
X842515Y380147D01*
X843539Y380021D01*
X845291Y379947D01*
X847200Y379929D01*
X849514Y379904D01*
X851079Y379828D01*
X851938Y379697D01*
X852135Y379506D01*
X852131Y379500D01*
X852282Y379220D01*
X853200Y379131D01*
X853593Y379141D01*
X855863Y379197D01*
X857749Y379175D01*
X859144Y379080D01*
X859941Y378920D01*
X860076Y378746D01*
X860253Y378537D01*
X861131Y378542D01*
X861631Y378601D01*
X862947Y378669D01*
X863829Y378493D01*
X863941Y378421D01*
X864651Y378130D01*
X865757Y377948D01*
X866026Y377932D01*
X867534Y377873D01*
X869107Y377814D01*
X869244Y377809D01*
X870210Y377711D01*
X870695Y377534D01*
X870705Y377454D01*
X870948Y377279D01*
X871772Y377164D01*
X872427Y377139D01*
X874638Y377059D01*
X876820Y376878D01*
X878705Y376623D01*
X879876Y376369D01*
X880909Y376142D01*
X882376Y375909D01*
X883639Y375753D01*
X885026Y375568D01*
X886105Y375351D01*
X886609Y375166D01*
X887113Y374881D01*
X887204Y374870D01*
X887964Y374866D01*
X889119Y374768D01*
X890450Y374606D01*
X891739Y374412D01*
X892766Y374215D01*
X893313Y374048D01*
X893348Y373996D01*
X893517Y373748D01*
X894038Y373671D01*
X895718Y373608D01*
X896831Y373455D01*
X897281Y373226D01*
X897266Y373136D01*
X897512Y372962D01*
X898360Y372840D01*
X899482Y372800D01*
X900923Y372742D01*
X901603Y372565D01*
X901639Y372369D01*
X901724Y372065D01*
X902309Y372043D01*
X903405Y372071D01*
X904715Y371976D01*
X906027Y371793D01*
X907132Y371555D01*
X907820Y371299D01*
X907932Y371109D01*
X907958Y370851D01*
X908316Y370933D01*
X908965Y370987D01*
X909164Y370854D01*
X909641Y370625D01*
X910647Y370389D01*
X911454Y370264D01*
X913758Y369936D01*
X915642Y369593D01*
X917008Y369259D01*
X917756Y368956D01*
X917855Y368768D01*
X918002Y368530D01*
X918556Y368510D01*
X919553Y368522D01*
X920799Y368403D01*
X922052Y368195D01*
X923070Y367941D01*
X923609Y367683D01*
X923642Y367614D01*
X923884Y367299D01*
X923939Y367302D01*
X924965Y367352D01*
X925802Y367213D01*
X926202Y366941D01*
X926179Y366797D01*
X926125Y366517D01*
X926270Y366571D01*
X926827Y366617D01*
X927865Y366490D01*
X929156Y366244D01*
X930470Y365931D01*
X931578Y365601D01*
X932253Y365309D01*
X932356Y365187D01*
X932668Y365005D01*
X933197Y365092D01*
X933786Y365176D01*
X933768Y364921D01*
X933889Y364600D01*
X934754Y364483D01*
X934827Y364482D01*
X935853Y364374D01*
X936527Y364112D01*
X936547Y364093D01*
X937179Y363805D01*
X938213Y363611D01*
X938370Y363598D01*
X939252Y363459D01*
X939631Y363248D01*
X939621Y363195D01*
X939813Y362975D01*
X940428Y362898D01*
X941264Y362772D01*
X941635Y362548D01*
X942127Y362282D01*
X943117Y362021D01*
X943629Y361931D01*
X944749Y361694D01*
X945501Y361407D01*
X945638Y361291D01*
X946141Y361065D01*
X947141Y360933D01*
X947651Y360918D01*
X948669Y360860D01*
X949218Y360713D01*
X949251Y360621D01*
X949458Y360391D01*
X950212Y360241D01*
X950261Y360237D01*
X951268Y360057D01*
X951905Y359777D01*
X952573Y359462D01*
X953636Y359168D01*
X953847Y359126D01*
X954865Y358861D01*
X955497Y358558D01*
X955553Y358496D01*
X956075Y358227D01*
X956761Y358145D01*
X957420Y358017D01*
X957506Y357749D01*
X957614Y357411D01*
X957978Y357324D01*
X959934Y357053D01*
X962349Y356370D01*
X965313Y355248D01*
X965427Y355201D01*
X966397Y354831D01*
X967821Y354326D01*
X969402Y353790D01*
X969487Y353762D01*
X970853Y353280D01*
X971866Y352860D01*
X972344Y352580D01*
X972359Y352547D01*
X972674Y352411D01*
X973106Y352474D01*
X973845Y352445D01*
X974120Y352239D01*
X974698Y351876D01*
X975155Y351808D01*
X975785Y351637D01*
X975923Y351410D01*
X976270Y351083D01*
X977149Y350705D01*
X977706Y350536D01*
X978935Y350090D01*
X979439Y349578D01*
X979205Y348966D01*
X978225Y348216D01*
X976814Y347453D01*
X975179Y346589D01*
X973543Y345634D01*
X972359Y344863D01*
X971049Y343997D01*
X969413Y343007D01*
X968002Y342213D01*
X966492Y341388D01*
X965053Y340578D01*
X964041Y339984D01*
X962982Y339439D01*
X962092Y339150D01*
X961938Y339135D01*
X961449Y338974D01*
X961452Y338762D01*
X961217Y338438D01*
X960408Y337823D01*
X959151Y337004D01*
X957568Y336066D01*
X957416Y335979D01*
X955594Y334965D01*
X954289Y334295D01*
X953336Y333909D01*
X952570Y333750D01*
X951825Y333757D01*
X951367Y333810D01*
X950206Y334031D01*
X949377Y334306D01*
X949208Y334414D01*
X948559Y334686D01*
X947746Y334777D01*
X946873Y334892D01*
X946444Y335128D01*
X945942Y335428D01*
X944992Y335708D01*
X944806Y335746D01*
X943426Y336146D01*
X942101Y336734D01*
X942101Y336734D01*
X940855Y337270D01*
X939387Y337688D01*
X939061Y337750D01*
X937791Y338055D01*
X936747Y338459D01*
X936525Y338589D01*
X935524Y339031D01*
X934865Y339134D01*
X934072Y339279D01*
X933763Y339495D01*
X933264Y339775D01*
X932280Y340043D01*
X931858Y340118D01*
X930393Y340458D01*
X928978Y340952D01*
X928791Y341036D01*
X927787Y341416D01*
X926266Y341882D01*
X924489Y342355D01*
X923642Y342558D01*
X920995Y343170D01*
X919019Y343640D01*
X917611Y343995D01*
X916670Y344265D01*
X916092Y344479D01*
X915777Y344666D01*
X915642Y344818D01*
X915133Y345115D01*
X914080Y345455D01*
X912869Y345733D01*
X911312Y346046D01*
X909334Y346463D01*
X907282Y346910D01*
X906611Y347060D01*
X904673Y347491D01*
X902740Y347912D01*
X901134Y348253D01*
X900670Y348348D01*
X899442Y348626D01*
X898566Y348880D01*
X898293Y349010D01*
X897788Y349223D01*
X897105Y349352D01*
X895916Y349586D01*
X895125Y349819D01*
X894175Y350059D01*
X892804Y350298D01*
X891864Y350422D01*
X890600Y350612D01*
X889691Y350841D01*
X889389Y351005D01*
X888917Y351215D01*
X887889Y351434D01*
X886709Y351593D01*
X885263Y351788D01*
X884044Y352029D01*
X883441Y352216D01*
X882657Y352457D01*
X881369Y352740D01*
X879876Y352999D01*
X875824Y353616D01*
X872537Y354124D01*
X870000Y354525D01*
X868193Y354824D01*
X867099Y355021D01*
X866806Y355085D01*
X866061Y355209D01*
X864763Y355364D01*
X863149Y355523D01*
X862548Y355575D01*
X861004Y355735D01*
X859814Y355920D01*
X859157Y356099D01*
X859083Y356168D01*
X858772Y356425D01*
X858587Y356432D01*
X857731Y356427D01*
X856437Y356497D01*
X854890Y356622D01*
X853277Y356782D01*
X851781Y356959D01*
X850589Y357131D01*
X849886Y357282D01*
X849776Y357356D01*
X849568Y357629D01*
X848577Y357848D01*
X846813Y358012D01*
X844482Y358114D01*
X842913Y358215D01*
X841572Y358400D01*
X840728Y358629D01*
X840686Y358651D01*
X840083Y358765D01*
X838767Y358863D01*
X836815Y358947D01*
X834306Y359015D01*
X831318Y359070D01*
X827929Y359110D01*
X824217Y359136D01*
X820260Y359148D01*
X816137Y359146D01*
X811926Y359131D01*
X807705Y359103D01*
X803553Y359062D01*
X799547Y359009D01*
X795766Y358943D01*
X792287Y358865D01*
X789190Y358775D01*
X786552Y358673D01*
X784451Y358559D01*
X783433Y358481D01*
X781176Y358273D01*
X779203Y358083D01*
X777646Y357924D01*
X776636Y357810D01*
X776304Y357757D01*
X775792Y357712D01*
X775314Y357742D01*
X774818Y357680D01*
X774852Y357491D01*
X774635Y357303D01*
X773782Y357071D01*
X772446Y356831D01*
X771485Y356699D01*
X769266Y356402D01*
X766749Y356031D01*
X764416Y355657D01*
X764026Y355590D01*
X762008Y355266D01*
X759927Y354973D01*
X758145Y354761D01*
X757688Y354717D01*
X756305Y354553D01*
X755233Y354339D01*
X754738Y354143D01*
X754088Y353877D01*
X753276Y353788D01*
X752404Y353676D01*
X751978Y353444D01*
X751494Y353202D01*
X750485Y352954D01*
X749687Y352825D01*
X748433Y352611D01*
X747495Y352366D01*
X747203Y352230D01*
X746566Y351953D01*
X745526Y351685D01*
X745328Y351647D01*
X743999Y351301D01*
X742797Y350828D01*
X742754Y350805D01*
X741660Y350383D01*
X740751Y350226D01*
X739672Y350038D01*
X738969Y349766D01*
X737722Y349147D01*
X736792Y348775D01*
X735804Y348508D01*
X735509Y348441D01*
X734402Y348156D01*
X733573Y347870D01*
X733541Y347855D01*
X731818Y347057D01*
X730606Y346545D01*
X729711Y346244D01*
X729018Y346092D01*
X727954Y345740D01*
X726736Y345105D01*
X726444Y344915D01*
X725347Y344252D01*
X723842Y343458D01*
X722254Y342702D01*
X722240Y342696D01*
X720234Y341726D01*
X718251Y340593D01*
X716134Y339193D01*
X713725Y337424D01*
X711608Y335774D01*
X708427Y332921D01*
X705663Y329778D01*
X703389Y326461D01*
X701679Y323086D01*
X700606Y319770D01*
X700301Y317889D01*
X700202Y316007D01*
X700218Y313912D01*
X700335Y311825D01*
X700537Y309968D01*
X700810Y308561D01*
X700982Y308062D01*
X701325Y307164D01*
X701712Y305933D01*
X701810Y305584D01*
X702613Y303601D01*
X703975Y301330D01*
X705780Y298900D01*
X707912Y296439D01*
X710257Y294075D01*
X712700Y291938D01*
X715124Y290156D01*
X716299Y289434D01*
X717439Y288786D01*
X718955Y287923D01*
X720534Y287024D01*
X720656Y286955D01*
X722442Y286025D01*
X724421Y285126D01*
X726102Y284476D01*
X727415Y283985D01*
X728369Y283532D01*
X728773Y283211D01*
X728775Y283192D01*
X729066Y282973D01*
X729369Y283035D01*
X729879Y283043D01*
X729964Y282879D01*
X730303Y282593D01*
X730977Y282496D01*
X731670Y282365D01*
X731729Y282073D01*
X731779Y281759D01*
X732003Y281759D01*
X732675Y281691D01*
X733846Y281398D01*
X735282Y280957D01*
X736749Y280445D01*
X738014Y279938D01*
X738819Y279528D01*
X739928Y279011D01*
X741546Y278504D01*
X743393Y278086D01*
X744618Y277896D01*
X746436Y277621D01*
X748011Y277287D01*
X749193Y276937D01*
X749834Y276611D01*
X749890Y276433D01*
X749902Y276231D01*
X750144Y276345D01*
X750827Y276445D01*
X751871Y276296D01*
X752087Y276239D01*
X754335Y275624D01*
X756464Y275117D01*
X758674Y274681D01*
X761167Y274277D01*
X764143Y273869D01*
X765942Y273643D01*
X767511Y273427D01*
X768703Y273220D01*
X769360Y273051D01*
X769433Y272982D01*
X769643Y272887D01*
X770421Y272895D01*
X770791Y272925D01*
X771917Y272931D01*
X772736Y272757D01*
X772846Y272693D01*
X773467Y272489D01*
X774630Y272320D01*
X776084Y272224D01*
X776094Y272224D01*
X777533Y272144D01*
X778669Y272019D01*
X779259Y271875D01*
X779262Y271872D01*
X779930Y271674D01*
X781346Y271463D01*
X783520Y271238D01*
X786460Y271000D01*
X790177Y270747D01*
X792741Y270589D01*
X795112Y270484D01*
X798178Y270405D01*
X801841Y270352D01*
X806005Y270327D01*
X810572Y270331D01*
X815445Y270363D01*
X818089Y270392D01*
X822531Y270447D01*
X826246Y270495D01*
X829298Y270537D01*
X831754Y270577D01*
X833677Y270615D01*
X835133Y270655D01*
X836186Y270698D01*
X836903Y270747D01*
X837347Y270803D01*
X837583Y270870D01*
X837678Y270948D01*
X837695Y271039D01*
X838067Y271148D01*
X839094Y271276D01*
X840636Y271410D01*
X842556Y271537D01*
X843537Y271590D01*
X846135Y271722D01*
X848057Y271827D01*
X849417Y271919D01*
X850331Y272010D01*
X850914Y272116D01*
X851280Y272248D01*
X851545Y272421D01*
X851711Y272557D01*
X852575Y272876D01*
X853979Y272947D01*
X854281Y272930D01*
X855358Y272905D01*
X855982Y272990D01*
X856051Y273089D01*
X856321Y273235D01*
X857181Y273363D01*
X858432Y273459D01*
X859872Y273510D01*
X861300Y273502D01*
X861765Y273482D01*
X862383Y273556D01*
X862471Y273747D01*
X862770Y273885D01*
X863700Y274061D01*
X865104Y274259D01*
X866822Y274461D01*
X868697Y274651D01*
X870569Y274811D01*
X872281Y274923D01*
X873673Y274972D01*
X873860Y274973D01*
X874813Y275060D01*
X875148Y275295D01*
X875123Y275366D01*
X875296Y275631D01*
X876119Y275757D01*
X876390Y275763D01*
X877790Y275864D01*
X879109Y276109D01*
X879161Y276124D01*
X879973Y276283D01*
X881412Y276492D01*
X883313Y276730D01*
X885514Y276976D01*
X887080Y277135D01*
X889346Y277372D01*
X891378Y277613D01*
X893028Y277840D01*
X894144Y278031D01*
X894531Y278135D01*
X895242Y278317D01*
X896515Y278532D01*
X898122Y278751D01*
X899835Y278945D01*
X901427Y279083D01*
X902332Y279132D01*
X903098Y279338D01*
X903322Y279502D01*
X903338Y279653D01*
X903046Y279525D01*
X902687Y279401D01*
X902778Y279561D01*
X903248Y279789D01*
X904311Y280065D01*
X906010Y280397D01*
X908385Y280793D01*
X911478Y281260D01*
X914004Y281621D01*
X915881Y281904D01*
X917466Y282181D01*
X918599Y282420D01*
X919115Y282590D01*
X919120Y282595D01*
X919690Y282801D01*
X920662Y282892D01*
X920714Y282892D01*
X921663Y282983D01*
X922202Y283204D01*
X922215Y283222D01*
X922667Y283394D01*
X923743Y283616D01*
X925280Y283859D01*
X927009Y284080D01*
X928830Y284315D01*
X930346Y284557D01*
X931392Y284777D01*
X931802Y284938D01*
X932309Y285182D01*
X933092Y285268D01*
X934032Y285395D01*
X934182Y285466D01*
X934732Y285466D01*
X934930Y285268D01*
X935128Y285466D01*
X934930Y285664D01*
X934732Y285466D01*
X934182Y285466D01*
X934554Y285643D01*
X935150Y285892D01*
X936222Y286087D01*
X936773Y286138D01*
X937813Y286264D01*
X938389Y286450D01*
X938433Y286555D01*
X938648Y286769D01*
X939416Y286904D01*
X939560Y286913D01*
X940776Y286981D01*
X941472Y287075D01*
X941924Y287244D01*
X942162Y287384D01*
X942924Y287532D01*
X943449Y287445D01*
X944075Y287389D01*
X944238Y287557D01*
X944606Y287744D01*
X945614Y287996D01*
X947115Y288282D01*
X948961Y288573D01*
X949288Y288619D01*
X951231Y288912D01*
X952906Y289209D01*
X954146Y289477D01*
X954786Y289684D01*
X954815Y289704D01*
X955505Y289886D01*
X955768Y289796D01*
X956057Y289732D01*
X955960Y289960D01*
X956034Y290317D01*
X956691Y290417D01*
X957464Y290254D01*
X957701Y289641D01*
X957704Y289526D01*
X957504Y288833D01*
X956772Y288582D01*
X956662Y288574D01*
X955767Y288357D01*
X955316Y288022D01*
X954742Y287718D01*
X954377Y287773D01*
X953842Y287829D01*
X953743Y287695D01*
X953392Y287454D01*
X952486Y287128D01*
X951251Y286780D01*
X949911Y286476D01*
X948903Y286306D01*
X948138Y286046D01*
X947913Y285876D01*
X947905Y285738D01*
X948161Y285860D01*
X948524Y285976D01*
X948411Y285687D01*
X947820Y285371D01*
X946984Y285357D01*
X946255Y285378D01*
X946062Y285200D01*
X946064Y285197D01*
X945870Y284972D01*
X945125Y284872D01*
X945077Y284872D01*
X944145Y284741D01*
X943622Y284442D01*
X943068Y284168D01*
X942628Y284201D01*
X941967Y284186D01*
X941768Y283998D01*
X941326Y283742D01*
X940402Y283610D01*
X940166Y283605D01*
X939270Y283534D01*
X938874Y283359D01*
X938883Y283300D01*
X938624Y283089D01*
X937815Y282794D01*
X936684Y282474D01*
X935459Y282189D01*
X934369Y281997D01*
X933647Y281956D01*
X933319Y281815D01*
X933358Y281684D01*
X933118Y281466D01*
X932344Y281208D01*
X931288Y280969D01*
X930201Y280804D01*
X929335Y280770D01*
X929290Y280774D01*
X928955Y280637D01*
X928989Y280515D01*
X928753Y280281D01*
X927940Y280023D01*
X927302Y279896D01*
X926138Y279697D01*
X925317Y279546D01*
X925127Y279505D01*
X924538Y279427D01*
X923817Y279377D01*
X923144Y279226D01*
X923022Y278973D01*
X922869Y278688D01*
X922352Y278583D01*
X920851Y278480D01*
X920068Y278311D01*
X919929Y278060D01*
X919937Y278046D01*
X919748Y277843D01*
X919017Y277807D01*
X917822Y277688D01*
X916977Y277389D01*
X916070Y277088D01*
X915471Y277114D01*
X915088Y277124D01*
X915129Y276946D01*
X914962Y276679D01*
X914244Y276510D01*
X913213Y276480D01*
X912611Y276534D01*
X912263Y276397D01*
X912310Y276230D01*
X912068Y276016D01*
X911280Y275767D01*
X910190Y275529D01*
X909040Y275351D01*
X908071Y275280D01*
X907644Y275316D01*
X907075Y275221D01*
X906161Y274872D01*
X906060Y274825D01*
X904905Y274416D01*
X903438Y274063D01*
X902848Y273964D01*
X901554Y273730D01*
X900514Y273459D01*
X900197Y273333D01*
X899374Y273092D01*
X898196Y272938D01*
X897936Y272924D01*
X896997Y272814D01*
X896549Y272613D01*
X896551Y272530D01*
X896318Y272342D01*
X895499Y272222D01*
X894776Y272198D01*
X893585Y272122D01*
X892749Y271927D01*
X892541Y271786D01*
X892007Y271551D01*
X891527Y271614D01*
X890914Y271638D01*
X890768Y271432D01*
X890395Y271195D01*
X889362Y271048D01*
X888170Y271010D01*
X886892Y270962D01*
X886036Y270838D01*
X885786Y270664D01*
X885787Y270663D01*
X885631Y270383D01*
X885117Y270279D01*
X883484Y270130D01*
X882575Y269860D01*
X882441Y269745D01*
X881955Y269565D01*
X880958Y269418D01*
X880362Y269374D01*
X879268Y269264D01*
X878594Y269093D01*
X878490Y268996D01*
X878133Y268832D01*
X877211Y268641D01*
X875952Y268451D01*
X874580Y268290D01*
X873322Y268188D01*
X872405Y268172D01*
X872195Y268195D01*
X871517Y268011D01*
X871358Y267837D01*
X870800Y267576D01*
X869608Y267424D01*
X868430Y267396D01*
X867019Y267355D01*
X866187Y267220D01*
X866023Y267034D01*
X865801Y266821D01*
X864912Y266687D01*
X863835Y266653D01*
X862606Y266608D01*
X861803Y266489D01*
X861604Y266343D01*
X861432Y266098D01*
X860934Y266023D01*
X858735Y265975D01*
X857250Y265884D01*
X856402Y265739D01*
X856112Y265531D01*
X856143Y265415D01*
X856067Y265141D01*
X855309Y265109D01*
X854879Y265152D01*
X853496Y265160D01*
X851945Y264956D01*
X851538Y264862D01*
X850119Y264610D01*
X848759Y264553D01*
X848412Y264585D01*
X847522Y264636D01*
X847324Y264413D01*
X847366Y264330D01*
X847248Y264111D01*
X846530Y263969D01*
X845141Y263896D01*
X843636Y263880D01*
X841991Y263849D01*
X840717Y263764D01*
X839969Y263640D01*
X839842Y263534D01*
X839610Y263301D01*
X838602Y263120D01*
X836835Y262993D01*
X834324Y262922D01*
X834068Y262919D01*
X832934Y262867D01*
X832274Y262762D01*
X832209Y262655D01*
X832001Y262544D01*
X831144Y262418D01*
X829780Y262289D01*
X828051Y262164D01*
X826101Y262054D01*
X824071Y261967D01*
X822104Y261914D01*
X820842Y261902D01*
X819401Y261852D01*
X818269Y261722D01*
X817682Y261539D01*
X817673Y261531D01*
X817189Y261434D01*
X815997Y261341D01*
X814181Y261256D01*
X811827Y261180D01*
X809017Y261113D01*
X805837Y261057D01*
X802372Y261013D01*
X798704Y260982D01*
X794920Y260967D01*
X791102Y260967D01*
X787336Y260985D01*
X784126Y261016D01*
X781610Y261061D01*
X779384Y261126D01*
X777561Y261207D01*
X776255Y261297D01*
X775580Y261391D01*
X775512Y261430D01*
X775146Y261583D01*
X774174Y261720D01*
X772778Y261820D01*
X772244Y261841D01*
X769210Y261999D01*
X765510Y262302D01*
X761258Y262737D01*
X759444Y262944D01*
X758300Y263145D01*
X757630Y263396D01*
X757545Y263572D01*
X757369Y263808D01*
X756602Y263881D01*
X756446Y263874D01*
X754578Y263820D01*
X753210Y263881D01*
X752441Y264049D01*
X752332Y264262D01*
X752173Y264525D01*
X751465Y264615D01*
X750210Y264669D01*
X749173Y264801D01*
X747878Y264973D01*
X746872Y265041D01*
X746145Y265161D01*
X745967Y265405D01*
X745761Y265648D01*
X744891Y265823D01*
X743486Y265907D01*
X742926Y265911D01*
X742447Y266072D01*
X742455Y266281D01*
X742308Y266573D01*
X741770Y266680D01*
X739641Y266889D01*
X737291Y267390D01*
X735845Y267756D01*
X734258Y268156D01*
X733924Y268240D01*
X732714Y268577D01*
X731771Y268898D01*
X731548Y268996D01*
X730838Y269267D01*
X729675Y269621D01*
X728894Y269831D01*
X727797Y270180D01*
X727144Y270525D01*
X727056Y270716D01*
X726930Y270962D01*
X726541Y270969D01*
X725611Y270976D01*
X724555Y271166D01*
X723667Y271463D01*
X723237Y271791D01*
X723230Y271833D01*
X722892Y272109D01*
X722252Y272198D01*
X721243Y272392D01*
X720088Y272866D01*
X719975Y272927D01*
X718693Y273549D01*
X717266Y274112D01*
X717091Y274170D01*
X715772Y274656D01*
X714262Y275300D01*
X712736Y276016D01*
X711368Y276716D01*
X710331Y277316D01*
X709799Y277729D01*
X709764Y277807D01*
X709522Y278013D01*
X709393Y277957D01*
X708852Y277996D01*
X707927Y278364D01*
X707512Y278583D01*
X705335Y279815D01*
X703739Y280713D01*
X702617Y281339D01*
X701861Y281752D01*
X701632Y281874D01*
X700930Y282303D01*
X699810Y283050D01*
X698494Y283967D01*
X698266Y284130D01*
X693688Y287671D01*
X689633Y291354D01*
X686152Y295120D01*
X683295Y298908D01*
X681112Y302658D01*
X679655Y306309D01*
X679652Y306320D01*
X679183Y307819D01*
X678756Y309084D01*
X678453Y309866D01*
X678428Y309918D01*
X678305Y310538D01*
X678209Y311756D01*
X678140Y313416D01*
X678099Y315360D01*
X678086Y317433D01*
X678100Y319478D01*
X678142Y321339D01*
X678212Y322859D01*
X678310Y323882D01*
X678310Y323885D01*
X678474Y323885D01*
X678673Y323687D01*
X678871Y323885D01*
X678673Y324083D01*
X678474Y323885D01*
X678310Y323885D01*
X678419Y324247D01*
X678678Y324738D01*
X678923Y325719D01*
X678992Y326153D01*
X679211Y327266D01*
X679609Y328564D01*
X680241Y330194D01*
X681163Y332304D01*
X681751Y333589D01*
X682234Y334494D01*
X683005Y335786D01*
X683947Y337290D01*
X684947Y338830D01*
X685890Y340227D01*
X686661Y341307D01*
X687145Y341893D01*
X687160Y341906D01*
X687530Y342299D01*
X688226Y343085D01*
X688705Y343639D01*
X689933Y344936D01*
X691640Y346556D01*
X693660Y348359D01*
X695831Y350206D01*
X697989Y351955D01*
X699969Y353468D01*
X701248Y354368D01*
X703724Y355972D01*
X706135Y357448D01*
X708384Y358743D01*
X709859Y359531D01*
X951367Y359531D01*
X951565Y359333D01*
X951763Y359531D01*
X951565Y359729D01*
X951367Y359531D01*
X709859Y359531D01*
X710372Y359805D01*
X712002Y360583D01*
X713174Y361023D01*
X713792Y361073D01*
X713802Y361068D01*
X714056Y361037D01*
X713960Y361252D01*
X713987Y361657D01*
X714206Y361710D01*
X714816Y361875D01*
X715888Y362308D01*
X717092Y362866D01*
X718344Y363422D01*
X719328Y363755D01*
X719817Y363795D01*
X719992Y363834D01*
X719902Y364025D01*
X719983Y364396D01*
X720633Y364570D01*
X721349Y364529D01*
X721631Y364787D01*
X721646Y364921D01*
X721932Y365191D01*
X722215Y365141D01*
X722781Y365140D01*
X722908Y365285D01*
X723351Y365599D01*
X724022Y365758D01*
X725015Y366046D01*
X725559Y366386D01*
X726284Y366723D01*
X726669Y366688D01*
X727034Y366690D01*
X726990Y366863D01*
X727111Y367174D01*
X727540Y367255D01*
X728297Y367415D01*
X728345Y367453D01*
X728775Y367453D01*
X728973Y367255D01*
X729171Y367453D01*
X728973Y367651D01*
X728775Y367453D01*
X728345Y367453D01*
X728556Y367616D01*
X729033Y367874D01*
X729972Y368151D01*
X731046Y368373D01*
X731929Y368466D01*
X732191Y368443D01*
X732597Y368663D01*
X732757Y368873D01*
X733330Y369218D01*
X734320Y369397D01*
X734445Y369402D01*
X735305Y369495D01*
X735656Y369686D01*
X735644Y369730D01*
X735836Y369950D01*
X736452Y370027D01*
X737295Y370163D01*
X737676Y370406D01*
X738193Y370629D01*
X738452Y370577D01*
X739081Y370620D01*
X739244Y370775D01*
X739770Y371002D01*
X740141Y370933D01*
X740578Y370884D01*
X740501Y371148D01*
X740574Y371479D01*
X741364Y371608D01*
X741601Y371611D01*
X742602Y371723D01*
X743219Y371997D01*
X743252Y372040D01*
X743795Y372280D01*
X744497Y372222D01*
X745178Y372152D01*
X745222Y372388D01*
X745407Y372649D01*
X746324Y372784D01*
X746995Y372800D01*
X748198Y372868D01*
X748766Y373057D01*
X748777Y373196D01*
X748936Y373489D01*
X749750Y373668D01*
X751087Y373710D01*
X751657Y373688D01*
X752261Y373782D01*
X752327Y374011D01*
X752504Y374281D01*
X753311Y374453D01*
X754587Y374497D01*
X754817Y374490D01*
X755276Y374723D01*
X755312Y374869D01*
X755649Y375097D01*
X756463Y375097D01*
X756491Y375093D01*
X757354Y375070D01*
X757781Y375257D01*
X757782Y375259D01*
X758208Y375465D01*
X759162Y375605D01*
X759764Y375635D01*
X760812Y375713D01*
X761397Y375872D01*
X761445Y375978D01*
X761711Y376165D01*
X762587Y376376D01*
X763895Y376571D01*
X764126Y376597D01*
X765568Y376760D01*
X766692Y376896D01*
X767273Y376979D01*
X767293Y376984D01*
X767832Y377035D01*
X768879Y377085D01*
X769594Y377107D01*
X770690Y377187D01*
X771334Y377338D01*
X771414Y377454D01*
X771513Y377619D01*
X772100Y377741D01*
X773263Y377828D01*
X775090Y377889D01*
X776231Y377912D01*
X777346Y378013D01*
X777705Y378271D01*
X777665Y378385D01*
X777737Y378624D01*
X778434Y378657D01*
X779472Y378543D01*
X780720Y378419D01*
X781276Y378498D01*
X781282Y378697D01*
X781421Y378922D01*
X782210Y379064D01*
X783705Y379130D01*
X784621Y379137D01*
X786442Y379177D01*
X787585Y379294D01*
X788000Y379481D01*
X787988Y379533D01*
X788251Y379713D01*
X789271Y379841D01*
X791015Y379913D01*
X792741Y379929D01*
X794997Y379959D01*
X796553Y380046D01*
X797375Y380187D01*
X797494Y380325D01*
X797825Y380421D01*
X798945Y380504D01*
X800849Y380574D01*
X803533Y380630D01*
X806992Y380673D01*
X811224Y380703D01*
X816224Y380718D01*
X819872Y380721D01*
X825367Y380714D01*
G37*
G36*
X1220858Y380312D02*
G01*
X1224011Y380275D01*
X1226465Y380214D01*
X1228195Y380131D01*
X1229178Y380025D01*
X1229409Y379929D01*
X1229786Y379746D01*
X1230843Y379613D01*
X1232469Y379541D01*
X1233468Y379531D01*
X1235772Y379502D01*
X1238015Y379427D01*
X1240069Y379315D01*
X1241802Y379176D01*
X1243084Y379019D01*
X1243785Y378854D01*
X1243871Y378751D01*
X1244133Y378635D01*
X1244981Y378612D01*
X1245921Y378664D01*
X1247198Y378730D01*
X1247805Y378642D01*
X1247849Y378383D01*
X1247839Y378366D01*
X1247844Y377996D01*
X1248278Y377962D01*
X1249437Y378025D01*
X1250717Y378010D01*
X1251892Y377930D01*
X1252738Y377803D01*
X1253029Y377643D01*
X1253025Y377633D01*
X1253240Y377425D01*
X1254019Y377302D01*
X1254288Y377291D01*
X1255655Y377195D01*
X1256917Y377001D01*
X1256935Y376997D01*
X1258043Y376793D01*
X1259496Y376583D01*
X1260196Y376498D01*
X1261321Y376328D01*
X1262007Y376136D01*
X1262116Y376019D01*
X1262366Y375841D01*
X1263177Y375693D01*
X1263560Y375658D01*
X1264769Y375494D01*
X1265726Y375232D01*
X1265856Y375171D01*
X1266632Y374916D01*
X1267868Y374665D01*
X1268766Y374537D01*
X1270030Y374319D01*
X1270682Y374052D01*
X1270727Y373873D01*
X1270736Y373660D01*
X1270921Y373744D01*
X1271517Y373793D01*
X1272607Y373638D01*
X1273656Y373392D01*
X1276098Y372721D01*
X1277899Y372216D01*
X1279183Y371840D01*
X1280074Y371553D01*
X1280695Y371317D01*
X1281170Y371094D01*
X1281294Y371029D01*
X1282240Y370622D01*
X1283587Y370159D01*
X1284462Y369900D01*
X1286152Y369389D01*
X1287925Y368784D01*
X1288621Y368522D01*
X1291439Y367404D01*
X1293589Y366535D01*
X1295141Y365881D01*
X1296168Y365413D01*
X1296742Y365097D01*
X1296934Y364902D01*
X1296926Y364859D01*
X1297130Y364656D01*
X1297783Y364581D01*
X1298649Y364444D01*
X1299063Y364186D01*
X1299509Y363837D01*
X1300488Y363239D01*
X1301823Y362497D01*
X1302484Y362149D01*
X1304881Y360890D01*
X1306945Y359770D01*
X1308582Y358843D01*
X1309699Y358161D01*
X1310202Y357778D01*
X1310207Y357771D01*
X1310601Y357433D01*
X1311491Y356764D01*
X1312717Y355882D01*
X1313375Y355420D01*
X1316576Y352927D01*
X1319817Y349929D01*
X1322866Y346661D01*
X1325492Y343361D01*
X1326251Y342268D01*
X1327256Y340717D01*
X1328048Y339411D01*
X1328550Y338485D01*
X1328685Y338073D01*
X1328682Y338070D01*
X1328745Y337659D01*
X1329062Y337253D01*
X1329457Y336533D01*
X1329444Y336092D01*
X1329445Y335726D01*
X1329619Y335770D01*
X1329937Y335658D01*
X1330010Y335276D01*
X1330185Y334452D01*
X1330362Y334163D01*
X1330753Y333331D01*
X1331064Y331857D01*
X1331294Y329889D01*
X1331444Y327572D01*
X1331514Y325053D01*
X1331504Y322480D01*
X1331413Y319997D01*
X1331242Y317752D01*
X1330990Y315892D01*
X1330659Y314563D01*
X1330358Y314003D01*
X1330058Y313311D01*
X1330010Y312891D01*
X1329835Y312389D01*
X1329553Y312437D01*
X1329281Y312483D01*
X1329367Y312280D01*
X1329480Y311690D01*
X1329392Y310898D01*
X1329174Y310222D01*
X1328895Y309983D01*
X1328862Y309998D01*
X1328612Y309823D01*
X1328538Y309462D01*
X1328291Y308716D01*
X1327734Y307673D01*
X1327465Y307255D01*
X1326852Y306282D01*
X1326489Y305568D01*
X1326446Y305404D01*
X1326189Y304699D01*
X1325479Y303541D01*
X1324412Y302048D01*
X1323079Y300342D01*
X1321574Y298543D01*
X1319992Y296771D01*
X1318634Y295355D01*
X1317764Y294530D01*
X1316516Y293406D01*
X1315071Y292138D01*
X1313613Y290885D01*
X1312322Y289804D01*
X1311380Y289053D01*
X1311195Y288917D01*
X1309260Y287601D01*
X1307077Y286209D01*
X1304752Y284797D01*
X1302392Y283425D01*
X1300101Y282150D01*
X1297986Y281031D01*
X1296153Y280124D01*
X1294706Y279488D01*
X1293752Y279182D01*
X1293443Y279188D01*
X1293187Y279254D01*
X1293269Y279133D01*
X1293192Y278767D01*
X1292625Y278340D01*
X1291842Y277995D01*
X1291116Y277876D01*
X1290924Y277914D01*
X1290461Y277878D01*
X1290403Y277722D01*
X1290076Y277309D01*
X1289314Y276887D01*
X1288133Y276396D01*
X1286985Y275909D01*
X1285822Y275497D01*
X1284806Y275271D01*
X1283982Y275070D01*
X1283634Y274850D01*
X1283151Y274589D01*
X1282135Y274234D01*
X1281059Y273929D01*
X1279638Y273507D01*
X1278416Y273049D01*
X1277836Y272758D01*
X1276747Y272276D01*
X1275955Y272108D01*
X1275206Y271929D01*
X1274957Y271684D01*
X1274623Y271525D01*
X1273809Y271596D01*
X1273719Y271615D01*
X1272879Y271722D01*
X1272719Y271511D01*
X1272752Y271448D01*
X1272673Y271083D01*
X1271895Y270941D01*
X1270863Y270995D01*
X1270019Y270802D01*
X1269392Y270398D01*
X1268597Y269970D01*
X1268020Y269967D01*
X1267599Y270002D01*
X1267632Y269817D01*
X1267475Y269540D01*
X1266718Y269426D01*
X1266686Y269425D01*
X1265771Y269317D01*
X1265276Y269066D01*
X1264803Y268831D01*
X1263815Y268564D01*
X1262581Y268317D01*
X1261375Y268144D01*
X1260466Y268100D01*
X1260405Y268104D01*
X1260062Y267975D01*
X1260091Y267862D01*
X1259816Y267685D01*
X1258951Y267453D01*
X1257692Y267201D01*
X1256237Y266963D01*
X1254782Y266773D01*
X1253525Y266664D01*
X1253050Y266650D01*
X1252316Y266537D01*
X1252183Y266257D01*
X1252006Y265996D01*
X1251172Y265868D01*
X1250843Y265861D01*
X1249774Y265761D01*
X1249076Y265514D01*
X1248991Y265428D01*
X1248459Y265184D01*
X1247474Y265121D01*
X1247185Y265141D01*
X1246213Y265183D01*
X1245681Y265108D01*
X1245647Y265065D01*
X1245269Y264843D01*
X1244203Y264692D01*
X1242572Y264629D01*
X1241765Y264526D01*
X1241489Y264289D01*
X1241506Y264249D01*
X1241256Y264069D01*
X1240345Y263942D01*
X1238904Y263883D01*
X1238518Y263880D01*
X1237068Y263842D01*
X1236013Y263740D01*
X1235523Y263594D01*
X1235514Y263538D01*
X1235288Y263322D01*
X1234482Y263121D01*
X1233311Y262958D01*
X1231987Y262852D01*
X1230724Y262826D01*
X1229735Y262901D01*
X1229557Y262938D01*
X1228818Y263029D01*
X1228756Y262786D01*
X1228479Y262623D01*
X1227568Y262444D01*
X1226181Y262261D01*
X1224474Y262088D01*
X1222607Y261939D01*
X1220735Y261828D01*
X1219018Y261767D01*
X1217611Y261771D01*
X1217212Y261791D01*
X1216394Y261767D01*
X1216094Y261592D01*
X1216109Y261555D01*
X1215833Y261377D01*
X1214792Y261221D01*
X1213011Y261088D01*
X1210516Y260977D01*
X1207333Y260891D01*
X1203488Y260828D01*
X1199007Y260791D01*
X1193916Y260780D01*
X1188254Y260795D01*
X1184451Y260816D01*
X1180744Y260841D01*
X1177241Y260870D01*
X1174050Y260900D01*
X1171277Y260932D01*
X1169031Y260963D01*
X1167419Y260994D01*
X1166914Y261007D01*
X1165254Y261092D01*
X1163963Y261219D01*
X1163196Y261370D01*
X1163057Y261488D01*
X1162845Y261691D01*
X1162056Y261794D01*
X1161586Y261796D01*
X1160263Y261796D01*
X1158571Y261846D01*
X1156663Y261935D01*
X1154693Y262053D01*
X1152815Y262189D01*
X1151182Y262332D01*
X1149948Y262472D01*
X1149266Y262598D01*
X1149183Y262658D01*
X1148917Y262806D01*
X1148053Y262916D01*
X1146904Y262961D01*
X1144788Y262992D01*
X1143355Y263046D01*
X1142498Y263138D01*
X1142108Y263279D01*
X1142077Y263482D01*
X1142102Y263527D01*
X1141928Y263788D01*
X1141006Y263885D01*
X1140435Y263877D01*
X1138273Y263827D01*
X1136822Y263858D01*
X1136001Y263979D01*
X1135733Y264197D01*
X1135776Y264338D01*
X1135738Y264617D01*
X1135054Y264625D01*
X1134654Y264568D01*
X1133309Y264550D01*
X1131891Y264810D01*
X1131751Y264855D01*
X1130303Y265150D01*
X1128794Y265173D01*
X1128677Y265159D01*
X1127644Y265092D01*
X1127327Y265272D01*
X1127369Y265381D01*
X1127295Y265663D01*
X1248420Y265663D01*
X1248618Y265465D01*
X1248816Y265663D01*
X1248618Y265861D01*
X1248420Y265663D01*
X1127295Y265663D01*
X1127283Y265707D01*
X1126736Y265765D01*
X1125168Y265737D01*
X1123850Y265816D01*
X1122954Y265984D01*
X1122652Y266218D01*
X1122668Y266257D01*
X1122493Y266528D01*
X1121675Y266675D01*
X1121404Y266686D01*
X1120183Y266735D01*
X1119190Y266811D01*
X1119103Y266822D01*
X1118296Y266923D01*
X1117012Y267081D01*
X1115835Y267224D01*
X1114555Y267430D01*
X1113660Y267671D01*
X1113360Y267875D01*
X1113038Y268134D01*
X1112667Y268144D01*
X1111730Y268131D01*
X1110515Y268240D01*
X1109242Y268434D01*
X1108134Y268672D01*
X1107411Y268916D01*
X1107261Y269095D01*
X1107228Y269227D01*
X1264659Y269227D01*
X1264857Y269029D01*
X1265055Y269227D01*
X1264857Y269425D01*
X1264659Y269227D01*
X1107228Y269227D01*
X1107185Y269395D01*
X1106963Y269405D01*
X1105821Y269337D01*
X1104809Y269418D01*
X1104159Y269614D01*
X1104062Y269837D01*
X1103972Y270082D01*
X1103316Y269998D01*
X1102366Y269919D01*
X1101804Y270062D01*
X1100937Y270391D01*
X1100693Y270429D01*
X1099106Y270617D01*
X1097722Y270875D01*
X1096733Y271159D01*
X1096330Y271424D01*
X1096329Y271438D01*
X1096005Y271636D01*
X1095339Y271568D01*
X1094547Y271521D01*
X1094348Y271784D01*
X1094028Y272142D01*
X1093655Y272177D01*
X1092443Y272126D01*
X1091471Y272209D01*
X1090956Y272399D01*
X1090942Y272530D01*
X1090723Y272745D01*
X1089931Y272897D01*
X1089500Y272926D01*
X1088372Y273056D01*
X1087578Y273301D01*
X1087457Y273386D01*
X1087008Y273584D01*
X1087615Y273584D01*
X1087813Y273386D01*
X1088011Y273584D01*
X1087813Y273782D01*
X1087615Y273584D01*
X1087008Y273584D01*
X1086796Y273678D01*
X1085928Y273782D01*
X1085182Y273869D01*
X1084978Y274079D01*
X1084978Y274079D01*
X1084748Y274268D01*
X1083952Y274383D01*
X1083588Y274397D01*
X1082522Y274497D01*
X1081827Y274720D01*
X1081746Y274793D01*
X1081189Y275166D01*
X1081080Y275182D01*
X1079979Y275287D01*
X1078690Y275501D01*
X1077475Y275767D01*
X1076592Y276032D01*
X1076304Y276196D01*
X1075778Y276473D01*
X1075116Y276555D01*
X1074382Y276680D01*
X1074149Y276914D01*
X1073833Y277117D01*
X1073357Y277065D01*
X1072726Y277059D01*
X1072565Y277257D01*
X1072254Y277615D01*
X1072070Y277636D01*
X1070859Y277663D01*
X1070094Y277820D01*
X1069938Y278054D01*
X1069826Y278299D01*
X1069651Y278337D01*
X1291592Y278337D01*
X1291790Y278139D01*
X1291988Y278337D01*
X1291790Y278535D01*
X1291592Y278337D01*
X1069651Y278337D01*
X1069077Y278461D01*
X1067704Y278555D01*
X1067225Y278742D01*
X1067232Y278955D01*
X1067112Y279274D01*
X1066746Y279357D01*
X1065250Y279548D01*
X1063339Y279970D01*
X1061328Y280543D01*
X1059530Y281184D01*
X1059296Y281282D01*
X1058516Y281552D01*
X1057247Y281924D01*
X1055834Y282300D01*
X1054546Y282677D01*
X1053662Y283031D01*
X1053359Y283290D01*
X1053366Y283305D01*
X1053177Y283525D01*
X1052440Y283599D01*
X1052425Y283599D01*
X1051428Y283711D01*
X1050106Y284031D01*
X1048718Y284474D01*
X1047528Y284954D01*
X1046798Y285386D01*
X1046727Y285463D01*
X1046460Y285625D01*
X1046430Y285517D01*
X1046183Y285440D01*
X1045830Y285664D01*
X1045352Y285928D01*
X1045236Y285832D01*
X1045019Y285775D01*
X1044760Y285981D01*
X1044005Y286361D01*
X1043351Y286456D01*
X1042729Y286591D01*
X1042660Y286850D01*
X1042532Y287126D01*
X1041990Y287171D01*
X1040891Y287304D01*
X1039126Y287818D01*
X1036717Y288705D01*
X1036056Y288969D01*
X1035353Y289355D01*
X1035165Y289672D01*
X1035000Y289815D01*
X1034601Y289755D01*
X1033712Y289843D01*
X1033314Y290089D01*
X1032449Y290605D01*
X1031967Y290745D01*
X1031015Y291133D01*
X1030581Y291463D01*
X1030333Y291803D01*
X1030581Y291803D01*
X1030779Y291605D01*
X1030977Y291803D01*
X1030779Y292001D01*
X1030581Y291803D01*
X1030333Y291803D01*
X1030219Y291961D01*
X1030461Y292394D01*
X1030779Y292652D01*
X1031542Y293143D01*
X1032740Y293824D01*
X1033948Y294460D01*
X1035524Y295312D01*
X1037354Y296375D01*
X1039010Y297399D01*
X1040286Y298205D01*
X1041294Y298811D01*
X1041863Y299114D01*
X1041919Y299131D01*
X1042365Y299337D01*
X1043142Y299837D01*
X1043194Y299873D01*
X1044023Y300399D01*
X1045319Y301157D01*
X1046851Y302011D01*
X1047414Y302315D01*
X1049021Y303225D01*
X1050517Y304155D01*
X1051643Y304942D01*
X1051881Y305135D01*
X1052067Y305270D01*
X1052365Y305270D01*
X1052563Y305072D01*
X1052761Y305270D01*
X1052563Y305468D01*
X1052365Y305270D01*
X1052067Y305270D01*
X1053704Y306460D01*
X1055579Y307395D01*
X1057270Y307827D01*
X1057612Y307844D01*
X1058550Y307741D01*
X1059739Y307476D01*
X1060969Y307117D01*
X1062031Y306731D01*
X1062714Y306385D01*
X1062834Y306167D01*
X1062925Y305979D01*
X1063132Y305966D01*
X1064339Y305923D01*
X1064857Y305672D01*
X1064821Y305436D01*
X1064889Y305121D01*
X1065293Y305100D01*
X1065856Y305113D01*
X1066536Y304969D01*
X1067522Y304607D01*
X1069006Y303969D01*
X1069253Y303859D01*
X1070550Y303340D01*
X1071758Y302948D01*
X1072026Y302881D01*
X1073161Y302583D01*
X1073951Y302318D01*
X1074713Y302078D01*
X1075990Y301738D01*
X1077521Y301367D01*
X1077714Y301323D01*
X1079922Y300764D01*
X1082172Y300073D01*
X1084748Y299160D01*
X1085833Y298751D01*
X1088697Y297815D01*
X1091972Y296991D01*
X1094623Y296379D01*
X1096574Y295891D01*
X1097903Y295507D01*
X1098688Y295206D01*
X1098741Y295179D01*
X1099469Y294948D01*
X1100675Y294705D01*
X1101617Y294566D01*
X1102876Y294356D01*
X1103783Y294108D01*
X1104081Y293935D01*
X1104593Y293686D01*
X1105484Y293586D01*
X1106858Y293467D01*
X1108498Y293162D01*
X1110053Y292750D01*
X1111172Y292310D01*
X1111181Y292305D01*
X1112007Y291980D01*
X1113449Y291583D01*
X1115558Y291104D01*
X1118380Y290530D01*
X1119895Y290238D01*
X1121252Y289969D01*
X1122240Y289752D01*
X1122664Y289631D01*
X1122668Y289626D01*
X1123036Y289536D01*
X1124045Y289350D01*
X1125555Y289092D01*
X1127423Y288784D01*
X1129509Y288451D01*
X1131669Y288114D01*
X1133764Y287797D01*
X1134946Y287624D01*
X1136423Y287376D01*
X1137640Y287110D01*
X1138335Y286884D01*
X1138338Y286882D01*
X1138987Y286706D01*
X1140217Y286514D01*
X1141821Y286336D01*
X1142788Y286254D01*
X1144390Y286099D01*
X1145617Y285914D01*
X1146311Y285726D01*
X1146403Y285618D01*
X1146285Y285266D01*
X1146309Y285248D01*
X1147268Y285119D01*
X1148875Y284939D01*
X1150991Y284720D01*
X1153476Y284476D01*
X1156189Y284219D01*
X1158989Y283963D01*
X1161737Y283721D01*
X1164292Y283505D01*
X1166513Y283329D01*
X1168216Y283209D01*
X1170444Y283049D01*
X1172387Y282875D01*
X1173910Y282703D01*
X1174881Y282545D01*
X1175168Y282444D01*
X1175593Y282385D01*
X1176740Y282333D01*
X1178539Y282291D01*
X1180919Y282257D01*
X1183810Y282233D01*
X1187142Y282218D01*
X1190845Y282215D01*
X1194848Y282223D01*
X1198536Y282240D01*
X1204132Y282279D01*
X1209017Y282327D01*
X1213273Y282389D01*
X1216980Y282470D01*
X1220222Y282572D01*
X1223078Y282700D01*
X1225631Y282858D01*
X1227962Y283050D01*
X1230151Y283280D01*
X1231763Y283486D01*
X1301889Y283486D01*
X1302087Y283288D01*
X1302285Y283486D01*
X1302087Y283684D01*
X1301889Y283486D01*
X1231763Y283486D01*
X1232282Y283552D01*
X1234435Y283870D01*
X1235548Y284047D01*
X1237028Y284275D01*
X1238965Y284554D01*
X1241031Y284838D01*
X1241885Y284951D01*
X1243597Y285192D01*
X1245021Y285429D01*
X1245970Y285627D01*
X1246242Y285718D01*
X1246818Y285890D01*
X1247932Y286089D01*
X1249212Y286257D01*
X1250603Y286455D01*
X1251691Y286686D01*
X1252205Y286881D01*
X1252843Y287122D01*
X1253913Y287303D01*
X1254246Y287332D01*
X1255217Y287448D01*
X1255719Y287601D01*
X1255739Y287657D01*
X1256047Y287807D01*
X1256980Y288048D01*
X1258384Y288341D01*
X1259639Y288572D01*
X1261445Y288904D01*
X1263049Y289228D01*
X1264231Y289498D01*
X1264659Y289619D01*
X1265939Y290039D01*
X1267479Y290512D01*
X1269071Y290976D01*
X1270508Y291375D01*
X1271583Y291647D01*
X1272068Y291736D01*
X1272402Y291909D01*
X1272373Y292017D01*
X1272603Y292289D01*
X1273337Y292689D01*
X1274323Y293110D01*
X1275309Y293444D01*
X1276044Y293586D01*
X1276059Y293586D01*
X1276609Y293740D01*
X1277695Y294156D01*
X1279134Y294761D01*
X1280058Y295170D01*
X1281603Y295849D01*
X1282885Y296383D01*
X1283728Y296699D01*
X1283948Y296754D01*
X1284422Y296945D01*
X1285430Y297462D01*
X1286829Y298223D01*
X1288475Y299147D01*
X1290225Y300150D01*
X1291933Y301151D01*
X1293457Y302068D01*
X1294653Y302818D01*
X1295156Y303156D01*
X1296230Y304011D01*
X1297654Y305280D01*
X1299278Y306814D01*
X1300951Y308462D01*
X1302521Y310076D01*
X1303838Y311504D01*
X1304750Y312599D01*
X1304903Y312811D01*
X1305541Y313860D01*
X1306372Y315382D01*
X1307263Y317131D01*
X1307730Y318100D01*
X1309487Y321821D01*
X1309275Y327606D01*
X1309184Y330065D01*
X1309107Y331843D01*
X1309030Y333050D01*
X1308938Y333797D01*
X1308816Y334194D01*
X1308649Y334352D01*
X1308422Y334381D01*
X1308359Y334381D01*
X1307893Y334700D01*
X1307830Y334985D01*
X1307660Y335611D01*
X1307210Y336718D01*
X1306569Y338091D01*
X1306429Y338372D01*
X1305417Y340033D01*
X1303958Y341980D01*
X1302214Y344036D01*
X1300346Y346023D01*
X1298517Y347764D01*
X1296887Y349080D01*
X1296352Y349433D01*
X1294963Y350334D01*
X1293555Y351334D01*
X1293255Y351563D01*
X1292412Y352123D01*
X1291106Y352881D01*
X1289498Y353754D01*
X1287753Y354660D01*
X1286033Y355516D01*
X1284501Y356239D01*
X1283321Y356746D01*
X1282655Y356954D01*
X1282629Y356955D01*
X1282016Y357231D01*
X1281722Y357512D01*
X1281001Y358020D01*
X1280188Y358323D01*
X1279216Y358607D01*
X1277868Y359063D01*
X1276937Y359405D01*
X1275261Y360038D01*
X1274069Y360476D01*
X1273105Y360806D01*
X1272115Y361117D01*
X1270996Y361452D01*
X1268227Y362248D01*
X1265810Y362896D01*
X1263886Y363360D01*
X1262774Y363577D01*
X1261823Y363813D01*
X1261278Y364112D01*
X1261265Y364130D01*
X1260739Y364409D01*
X1260147Y364482D01*
X1259309Y364601D01*
X1258951Y364779D01*
X1258362Y365023D01*
X1258139Y365076D01*
X1295948Y365076D01*
X1296146Y364878D01*
X1296344Y365076D01*
X1296146Y365274D01*
X1295948Y365076D01*
X1258139Y365076D01*
X1257048Y365335D01*
X1255072Y365703D01*
X1252496Y366117D01*
X1249383Y366564D01*
X1248222Y366720D01*
X1246364Y366994D01*
X1244804Y367276D01*
X1243705Y367532D01*
X1243228Y367730D01*
X1243227Y367733D01*
X1242740Y368046D01*
X1242633Y368040D01*
X1241963Y368007D01*
X1240807Y368049D01*
X1239357Y368148D01*
X1237804Y368286D01*
X1236343Y368444D01*
X1235164Y368604D01*
X1234461Y368748D01*
X1234350Y368823D01*
X1234079Y368975D01*
X1233192Y369104D01*
X1231864Y369187D01*
X1231498Y369198D01*
X1229989Y369274D01*
X1228777Y369409D01*
X1228090Y369576D01*
X1228043Y369606D01*
X1227537Y369720D01*
X1226364Y369847D01*
X1224647Y369976D01*
X1222512Y370099D01*
X1220083Y370207D01*
X1219414Y370231D01*
X1216964Y370333D01*
X1214829Y370454D01*
X1213122Y370583D01*
X1211952Y370713D01*
X1211431Y370835D01*
X1211417Y370867D01*
X1211090Y370953D01*
X1210051Y371030D01*
X1208382Y371097D01*
X1206164Y371151D01*
X1203477Y371190D01*
X1200402Y371211D01*
X1198317Y371215D01*
X1195001Y371205D01*
X1192041Y371177D01*
X1189515Y371132D01*
X1187500Y371072D01*
X1186076Y371000D01*
X1185320Y370918D01*
X1185218Y370865D01*
X1184910Y370744D01*
X1183919Y370613D01*
X1182355Y370479D01*
X1180326Y370353D01*
X1177942Y370242D01*
X1177419Y370222D01*
X1174926Y370117D01*
X1172659Y369994D01*
X1170755Y369862D01*
X1169349Y369732D01*
X1168576Y369613D01*
X1168520Y369595D01*
X1167732Y369433D01*
X1166393Y369289D01*
X1164745Y369188D01*
X1164091Y369165D01*
X1162550Y369096D01*
X1161386Y368992D01*
X1160765Y368869D01*
X1160710Y368807D01*
X1160408Y368680D01*
X1159465Y368534D01*
X1158032Y368387D01*
X1156425Y368269D01*
X1154473Y368127D01*
X1152675Y367958D01*
X1151263Y367786D01*
X1150590Y367668D01*
X1149704Y367521D01*
X1148210Y367338D01*
X1146291Y367139D01*
X1144127Y366944D01*
X1143263Y366873D01*
X1141136Y366689D01*
X1139262Y366493D01*
X1137796Y366306D01*
X1136894Y366145D01*
X1136712Y366086D01*
X1136066Y365918D01*
X1134839Y365730D01*
X1133245Y365554D01*
X1132355Y365477D01*
X1130685Y365318D01*
X1129303Y365131D01*
X1128409Y364946D01*
X1128200Y364858D01*
X1127594Y364653D01*
X1126493Y364491D01*
X1125725Y364435D01*
X1124567Y364333D01*
X1123817Y364172D01*
X1123658Y364055D01*
X1123305Y363841D01*
X1122420Y363638D01*
X1121974Y363576D01*
X1119190Y363243D01*
X1116516Y362898D01*
X1114076Y362559D01*
X1111995Y362245D01*
X1110397Y361975D01*
X1109409Y361766D01*
X1109201Y361699D01*
X1108428Y361497D01*
X1107132Y361285D01*
X1105581Y361107D01*
X1105438Y361094D01*
X1103951Y360927D01*
X1102764Y360731D01*
X1102108Y360544D01*
X1102072Y360522D01*
X1101507Y360336D01*
X1100380Y360132D01*
X1098921Y359949D01*
X1098705Y359927D01*
X1097218Y359752D01*
X1096032Y359554D01*
X1095375Y359372D01*
X1095339Y359350D01*
X1094800Y359186D01*
X1093657Y358973D01*
X1092094Y358741D01*
X1090784Y358577D01*
X1088363Y358289D01*
X1086633Y358056D01*
X1085497Y357862D01*
X1084857Y357685D01*
X1084616Y357508D01*
X1084640Y357361D01*
X1084366Y357199D01*
X1083532Y357003D01*
X1082367Y356805D01*
X1081101Y356639D01*
X1079962Y356537D01*
X1079181Y356532D01*
X1079049Y356555D01*
X1078622Y356360D01*
X1078550Y356269D01*
X1078029Y356007D01*
X1076892Y355700D01*
X1075310Y355382D01*
X1073457Y355084D01*
X1071504Y354838D01*
X1070188Y354715D01*
X1068804Y354560D01*
X1067732Y354351D01*
X1067237Y354152D01*
X1066588Y353880D01*
X1065776Y353788D01*
X1064902Y353674D01*
X1064474Y353439D01*
X1063998Y353224D01*
X1062957Y352997D01*
X1061579Y352806D01*
X1060165Y352619D01*
X1059057Y352405D01*
X1058504Y352215D01*
X1057904Y351986D01*
X1056818Y351747D01*
X1056128Y351637D01*
X1054828Y351439D01*
X1053777Y351243D01*
X1053454Y351165D01*
X1052898Y351217D01*
X1052761Y351781D01*
X1053024Y352458D01*
X1053577Y352600D01*
X1054139Y352732D01*
X1054183Y352939D01*
X1054351Y353122D01*
X1055010Y353080D01*
X1055689Y353046D01*
X1055829Y353236D01*
X1056008Y353507D01*
X1056743Y353672D01*
X1056771Y353674D01*
X1057956Y353952D01*
X1058801Y354367D01*
X1059816Y354841D01*
X1060578Y354977D01*
X1061687Y355154D01*
X1062272Y355373D01*
X1063288Y355881D01*
X1063797Y356134D01*
X1064564Y356398D01*
X1065819Y356718D01*
X1067064Y356980D01*
X1068429Y357278D01*
X1069486Y357582D01*
X1069970Y357803D01*
X1070642Y358080D01*
X1071234Y358145D01*
X1072028Y358285D01*
X1072114Y358343D01*
X1072565Y358343D01*
X1072763Y358145D01*
X1072961Y358343D01*
X1072763Y358541D01*
X1072565Y358343D01*
X1072114Y358343D01*
X1072338Y358495D01*
X1072828Y358755D01*
X1073826Y359018D01*
X1074441Y359127D01*
X1075656Y359370D01*
X1076159Y359531D01*
X1076921Y359531D01*
X1077119Y359333D01*
X1077317Y359531D01*
X1094745Y359531D01*
X1094943Y359333D01*
X1095141Y359531D01*
X1094943Y359729D01*
X1094745Y359531D01*
X1077317Y359531D01*
X1077119Y359729D01*
X1076921Y359531D01*
X1076159Y359531D01*
X1076564Y359662D01*
X1076793Y359791D01*
X1077466Y360041D01*
X1078556Y360185D01*
X1078867Y360196D01*
X1079818Y360274D01*
X1080285Y360443D01*
X1080289Y360519D01*
X1080564Y360721D01*
X1081457Y361011D01*
X1082803Y361339D01*
X1083562Y361496D01*
X1085202Y361841D01*
X1085477Y361908D01*
X1108607Y361908D01*
X1108805Y361710D01*
X1109003Y361908D01*
X1108805Y362106D01*
X1108607Y361908D01*
X1085477Y361908D01*
X1086598Y362180D01*
X1087525Y362457D01*
X1087709Y362535D01*
X1088674Y362851D01*
X1089115Y362898D01*
X1089886Y363096D01*
X1090388Y363096D01*
X1090586Y362898D01*
X1090784Y363096D01*
X1090586Y363294D01*
X1090388Y363096D01*
X1089886Y363096D01*
X1089960Y363115D01*
X1090253Y363318D01*
X1090892Y363589D01*
X1091964Y363747D01*
X1092308Y363761D01*
X1093261Y363848D01*
X1093725Y364040D01*
X1093726Y364133D01*
X1093923Y364360D01*
X1094684Y364478D01*
X1094904Y364482D01*
X1096092Y364621D01*
X1097578Y364976D01*
X1098393Y365239D01*
X1100347Y365832D01*
X1102396Y366268D01*
X1104245Y366496D01*
X1105384Y366492D01*
X1106015Y366549D01*
X1106077Y366787D01*
X1106284Y367063D01*
X1107132Y367327D01*
X1107914Y367461D01*
X1109244Y367692D01*
X1110329Y367969D01*
X1110703Y368115D01*
X1111512Y368346D01*
X1112742Y368502D01*
X1113358Y368533D01*
X1114433Y368613D01*
X1115052Y368768D01*
X1115116Y368881D01*
X1115323Y369118D01*
X1116057Y369332D01*
X1117057Y369486D01*
X1118059Y369545D01*
X1118799Y369471D01*
X1118938Y369413D01*
X1119238Y369338D01*
X1119141Y369570D01*
X1119237Y369886D01*
X1120049Y370048D01*
X1120565Y370074D01*
X1121694Y370090D01*
X1122477Y370074D01*
X1122610Y370060D01*
X1123175Y370231D01*
X1123474Y370435D01*
X1124235Y370763D01*
X1125201Y370905D01*
X1125980Y371011D01*
X1126227Y371221D01*
X1126220Y371235D01*
X1126486Y371407D01*
X1127335Y371600D01*
X1128558Y371788D01*
X1129947Y371945D01*
X1131294Y372046D01*
X1132390Y372064D01*
X1132713Y372043D01*
X1133349Y372095D01*
X1133401Y372340D01*
X1133615Y372583D01*
X1134379Y372826D01*
X1135453Y373032D01*
X1136595Y373159D01*
X1137564Y373169D01*
X1137988Y373094D01*
X1138686Y373129D01*
X1139628Y373473D01*
X1141161Y373847D01*
X1141955Y373773D01*
X1142762Y373681D01*
X1142937Y373874D01*
X1142927Y373890D01*
X1143162Y374114D01*
X1144008Y374342D01*
X1145289Y374546D01*
X1146825Y374699D01*
X1148438Y374776D01*
X1148866Y374780D01*
X1149759Y374871D01*
X1150188Y375094D01*
X1150194Y375129D01*
X1150555Y375276D01*
X1151502Y375451D01*
X1152828Y375633D01*
X1154328Y375798D01*
X1155798Y375924D01*
X1157032Y375989D01*
X1157824Y375972D01*
X1157874Y375964D01*
X1158385Y376181D01*
X1158468Y376288D01*
X1158960Y376500D01*
X1160064Y376721D01*
X1161602Y376929D01*
X1163394Y377104D01*
X1165261Y377224D01*
X1166915Y377268D01*
X1167958Y377335D01*
X1168533Y377497D01*
X1168575Y377612D01*
X1168829Y377782D01*
X1169721Y377911D01*
X1171098Y377989D01*
X1172807Y378009D01*
X1174694Y377962D01*
X1174894Y377954D01*
X1175892Y377981D01*
X1176189Y378209D01*
X1176136Y378347D01*
X1176195Y378598D01*
X1176839Y378708D01*
X1178159Y378691D01*
X1178431Y378678D01*
X1179709Y378650D01*
X1180571Y378709D01*
X1180830Y378840D01*
X1181132Y378948D01*
X1182089Y379038D01*
X1183564Y379103D01*
X1185420Y379135D01*
X1186039Y379137D01*
X1187980Y379160D01*
X1189581Y379222D01*
X1190704Y379316D01*
X1191214Y379432D01*
X1191226Y379471D01*
X1191519Y379617D01*
X1192543Y379755D01*
X1194234Y379882D01*
X1196531Y379998D01*
X1199371Y380099D01*
X1202693Y380184D01*
X1206434Y380251D01*
X1210531Y380297D01*
X1214924Y380321D01*
X1217031Y380324D01*
X1220858Y380312D01*
G37*
%TO.C,D2*%
D12*
X1127289Y1402711D02*
X1127289Y1442711D01*
%TO.C,D1*%
X1127289Y487711D02*
X1127289Y527711D01*
%TD*%
M02*
