%TF.GenerationSoftware,KiCad,Pcbnew,9.0.7*%
%TF.CreationDate,2026-03-10T13:05:46+05:30*%
%TF.ProjectId,X-Vision-HW,582d5669-7369-46f6-9e2d-48572e6b6963,rev?*%
%TF.SameCoordinates,PXd1d1fd4PY510ff40*%
%TF.FileFunction,AssemblyDrawing,Top*%
%FSLAX46Y46*%
G04 Gerber Fmt 4.6, Leading zero omitted, Abs format (unit mm)*
G04 Created by KiCad (PCBNEW 9.0.7) date 2026-03-10 13:05:46*
%MOMM*%
%LPD*%
G01*
G04 APERTURE LIST*
%ADD10C,0.187500*%
%ADD11C,0.200000*%
%ADD12C,0.127000*%
%ADD13C,0.050000*%
%ADD14C,0.100000*%
G04 APERTURE END LIST*
D10*
G36*
X14644010Y17091933D02*
G01*
X14641783Y17047996D01*
X14635537Y17010600D01*
X14623921Y16976641D01*
X14606869Y16949051D01*
X14583774Y16926898D01*
X14553838Y16910353D01*
X14518826Y16900630D01*
X14472917Y16897027D01*
X14442418Y16899408D01*
X14414757Y16905453D01*
X14392958Y16913330D01*
X14380685Y16920841D01*
X14375556Y16927756D01*
X14371938Y16937235D01*
X14369923Y16951844D01*
X14369420Y16973872D01*
X14370198Y17003272D01*
X14372763Y17022232D01*
X14377846Y17031940D01*
X14386318Y17034780D01*
X14397080Y17031437D01*
X14410910Y17024522D01*
X14428862Y17017606D01*
X14452951Y17014263D01*
X14477268Y17018110D01*
X14486809Y17023325D01*
X14494670Y17031437D01*
X14500524Y17041979D01*
X14505158Y17056807D01*
X14508775Y17097840D01*
X14508775Y17553552D01*
X14512073Y17562528D01*
X14522835Y17568939D01*
X14543580Y17572786D01*
X14576415Y17574068D01*
X14608655Y17572786D01*
X14629401Y17568939D01*
X14640666Y17562528D01*
X14644010Y17553552D01*
X14644010Y17091933D01*
G37*
G36*
X15198822Y16959263D02*
G01*
X15197265Y16935266D01*
X15192915Y16919604D01*
X15186503Y16911269D01*
X15178306Y16908750D01*
X14812491Y16908750D01*
X14804798Y16911269D01*
X14798386Y16919604D01*
X14794036Y16935266D01*
X14792524Y16959263D01*
X14793807Y16983764D01*
X14797883Y16999700D01*
X14804294Y17008539D01*
X14812491Y17011332D01*
X14936002Y17011332D01*
X14936002Y17445108D01*
X14829436Y17386490D01*
X14810202Y17379574D01*
X14803390Y17379743D01*
X14798432Y17382643D01*
X14792524Y17397709D01*
X14791013Y17427843D01*
X14791517Y17448039D01*
X14794082Y17461548D01*
X14799714Y17470753D01*
X14809469Y17478447D01*
X14951893Y17570359D01*
X14958304Y17573656D01*
X14968288Y17575717D01*
X14984408Y17576724D01*
X15010282Y17576999D01*
X15041790Y17576220D01*
X15059970Y17573656D01*
X15068168Y17568756D01*
X15070229Y17561062D01*
X15070229Y17011332D01*
X15178352Y17011332D01*
X15186778Y17008539D01*
X15193419Y16999700D01*
X15197540Y16983764D01*
X15198822Y16959263D01*
G37*
G36*
X16612216Y9855451D02*
G01*
X16607534Y9796580D01*
X16594265Y9746458D01*
X16571920Y9701759D01*
X16541508Y9665079D01*
X16503177Y9636158D01*
X16455413Y9614429D01*
X16401927Y9601611D01*
X16337626Y9597027D01*
X16277019Y9601113D01*
X16225382Y9612643D01*
X16178968Y9632595D01*
X16141347Y9659950D01*
X16111341Y9695193D01*
X16088865Y9739039D01*
X16075492Y9788834D01*
X16070684Y9849818D01*
X16070684Y10252590D01*
X16073753Y10261749D01*
X16084744Y10268435D01*
X16105535Y10272511D01*
X16138324Y10274068D01*
X16170610Y10272511D01*
X16191127Y10268435D01*
X16202117Y10261795D01*
X16205461Y10252590D01*
X16205461Y9862229D01*
X16208053Y9824342D01*
X16215169Y9793993D01*
X16227290Y9767184D01*
X16243104Y9746229D01*
X16262998Y9729729D01*
X16286656Y9717835D01*
X16312990Y9710845D01*
X16343259Y9708402D01*
X16373962Y9710931D01*
X16400137Y9718110D01*
X16423450Y9730145D01*
X16442636Y9746458D01*
X16457888Y9766948D01*
X16469563Y9792436D01*
X16476562Y9820913D01*
X16479043Y9854535D01*
X16479043Y10252590D01*
X16482111Y10261795D01*
X16492873Y10268435D01*
X16513619Y10272511D01*
X16546134Y10274068D01*
X16578145Y10272511D01*
X16598386Y10268435D01*
X16609148Y10261749D01*
X16612216Y10252590D01*
X16612216Y9855451D01*
G37*
G36*
X17170785Y9803885D02*
G01*
X17165867Y9755977D01*
X17151825Y9715363D01*
X17129134Y9679869D01*
X17099023Y9650562D01*
X17062579Y9627808D01*
X17018102Y9610674D01*
X16969630Y9600549D01*
X16915154Y9597027D01*
X16851590Y9602110D01*
X16799062Y9614612D01*
X16761418Y9630045D01*
X16741955Y9642135D01*
X16735040Y9651340D01*
X16730964Y9663339D01*
X16728400Y9680695D01*
X16727621Y9706020D01*
X16728883Y9728617D01*
X16731697Y9739955D01*
X16737043Y9747219D01*
X16744016Y9749434D01*
X16761693Y9742428D01*
X16793704Y9727453D01*
X16839271Y9712432D01*
X16866416Y9707306D01*
X16898759Y9705471D01*
X16925977Y9707228D01*
X16948447Y9712111D01*
X16968719Y9720317D01*
X16985084Y9730841D01*
X16998320Y9744263D01*
X17007615Y9760105D01*
X17013127Y9778005D01*
X17015034Y9798344D01*
X17012724Y9820570D01*
X17006058Y9839881D01*
X16995015Y9856891D01*
X16979405Y9871434D01*
X16960127Y9882744D01*
X16934846Y9891721D01*
X16906703Y9896985D01*
X16871602Y9898911D01*
X16814221Y9898911D01*
X16802955Y9900697D01*
X16795261Y9908207D01*
X16790911Y9923961D01*
X16789628Y9950019D01*
X16790911Y9974519D01*
X16794986Y9989266D01*
X16802176Y9996501D01*
X16812664Y9998562D01*
X16870549Y9998562D01*
X16899324Y10000339D01*
X16923306Y10005294D01*
X16944968Y10013727D01*
X16962003Y10024574D01*
X16975798Y10038471D01*
X16985816Y10054891D01*
X16991916Y10073414D01*
X16994014Y10094275D01*
X16988381Y10125553D01*
X16981370Y10139379D01*
X16971711Y10151107D01*
X16959439Y10160546D01*
X16943272Y10168143D01*
X16924963Y10172749D01*
X16902285Y10174417D01*
X16876222Y10172449D01*
X16852094Y10166677D01*
X16809824Y10149733D01*
X16778042Y10132560D01*
X16758854Y10124591D01*
X16751664Y10126377D01*
X16746535Y10133338D01*
X16743466Y10148313D01*
X16742459Y10173638D01*
X16742963Y10195071D01*
X16745024Y10209267D01*
X16748870Y10219068D01*
X16756289Y10228135D01*
X16777309Y10242606D01*
X16817243Y10261199D01*
X16872839Y10276541D01*
X16905093Y10281224D01*
X16941257Y10282861D01*
X16987862Y10279897D01*
X17026574Y10271641D01*
X17061393Y10257654D01*
X17089040Y10239355D01*
X17111301Y10215868D01*
X17127462Y10187469D01*
X17137167Y10155348D01*
X17140560Y10118043D01*
X17138587Y10088663D01*
X17132866Y10062035D01*
X17123288Y10037310D01*
X17110335Y10015781D01*
X17093743Y9997076D01*
X17073194Y9981206D01*
X17049610Y9968910D01*
X17021720Y9959819D01*
X17021720Y9958262D01*
X17055272Y9951617D01*
X17084231Y9940493D01*
X17110032Y9924951D01*
X17131080Y9906284D01*
X17148072Y9884338D01*
X17160526Y9859710D01*
X17168178Y9832999D01*
X17170785Y9803885D01*
G37*
G36*
X10112216Y9655451D02*
G01*
X10107534Y9596580D01*
X10094265Y9546458D01*
X10071920Y9501759D01*
X10041508Y9465079D01*
X10003177Y9436158D01*
X9955413Y9414429D01*
X9901927Y9401611D01*
X9837626Y9397027D01*
X9777019Y9401113D01*
X9725382Y9412643D01*
X9678968Y9432595D01*
X9641347Y9459950D01*
X9611341Y9495193D01*
X9588865Y9539039D01*
X9575492Y9588834D01*
X9570684Y9649818D01*
X9570684Y10052590D01*
X9573753Y10061749D01*
X9584744Y10068435D01*
X9605535Y10072511D01*
X9638324Y10074068D01*
X9670610Y10072511D01*
X9691127Y10068435D01*
X9702117Y10061795D01*
X9705461Y10052590D01*
X9705461Y9662229D01*
X9708053Y9624342D01*
X9715169Y9593993D01*
X9727290Y9567184D01*
X9743104Y9546229D01*
X9762998Y9529729D01*
X9786656Y9517835D01*
X9812990Y9510845D01*
X9843259Y9508402D01*
X9873962Y9510931D01*
X9900137Y9518110D01*
X9923450Y9530145D01*
X9942636Y9546458D01*
X9957888Y9566948D01*
X9969563Y9592436D01*
X9976562Y9620913D01*
X9979043Y9654535D01*
X9979043Y10052590D01*
X9982111Y10061795D01*
X9992873Y10068435D01*
X10013619Y10072511D01*
X10046134Y10074068D01*
X10078145Y10072511D01*
X10098386Y10068435D01*
X10109148Y10061749D01*
X10112216Y10052590D01*
X10112216Y9655451D01*
G37*
G36*
X10564722Y10072786D02*
G01*
X10594169Y10068710D01*
X10610335Y10061841D01*
X10615464Y10052132D01*
X10615464Y9654947D01*
X10674402Y9654947D01*
X10681475Y9652242D01*
X10688462Y9642262D01*
X10692588Y9627457D01*
X10694369Y9600222D01*
X10692802Y9575527D01*
X10688965Y9560196D01*
X10682146Y9549477D01*
X10674402Y9546503D01*
X10615464Y9546503D01*
X10615464Y9426336D01*
X10612395Y9417360D01*
X10601633Y9410949D01*
X10581621Y9407102D01*
X10549884Y9405820D01*
X10518881Y9407102D01*
X10498868Y9410949D01*
X10488610Y9417360D01*
X10485816Y9426336D01*
X10485816Y9546503D01*
X10232247Y9546503D01*
X10219424Y9548289D01*
X10209944Y9556533D01*
X10204311Y9575080D01*
X10202525Y9607320D01*
X10203304Y9635896D01*
X10205535Y9654947D01*
X10310099Y9654947D01*
X10485816Y9654947D01*
X10485816Y9956831D01*
X10484809Y9956831D01*
X10310099Y9654947D01*
X10205535Y9654947D01*
X10205868Y9657787D01*
X10210952Y9676334D01*
X10219424Y9694881D01*
X10425366Y10056208D01*
X10434068Y10064130D01*
X10451241Y10069717D01*
X10479176Y10073015D01*
X10520163Y10074068D01*
X10564722Y10072786D01*
G37*
G36*
X9752005Y15368571D02*
G01*
X9801705Y15361423D01*
X9843369Y15350392D01*
X9883054Y15334024D01*
X9917523Y15313551D01*
X9947370Y15288980D01*
X9973019Y15260079D01*
X9994434Y15226724D01*
X10011667Y15188367D01*
X10023561Y15147884D01*
X10031062Y15101911D01*
X10033695Y15049652D01*
X10030782Y14989155D01*
X10022610Y14937619D01*
X10009881Y14893810D01*
X9991211Y14852389D01*
X9968401Y14817402D01*
X9941463Y14788068D01*
X9910091Y14763504D01*
X9874175Y14743459D01*
X9833111Y14727939D01*
X9790172Y14717693D01*
X9739890Y14711100D01*
X9681207Y14708750D01*
X9522892Y14708750D01*
X9507108Y14711314D01*
X9494407Y14718734D01*
X9486097Y14731006D01*
X9482912Y14751249D01*
X9482912Y14814263D01*
X9617185Y14814263D01*
X9687389Y14814263D01*
X9740241Y14818145D01*
X9780583Y14828597D01*
X9815564Y14846766D01*
X9843872Y14871966D01*
X9865678Y14903790D01*
X9881791Y14944002D01*
X9890997Y14989075D01*
X9894339Y15044569D01*
X9891500Y15090708D01*
X9883302Y15132268D01*
X9868776Y15170476D01*
X9847948Y15202518D01*
X9820472Y15228780D01*
X9785437Y15248955D01*
X9743946Y15261008D01*
X9685328Y15265624D01*
X9617185Y15265624D01*
X9617185Y14814263D01*
X9482912Y14814263D01*
X9482912Y15328639D01*
X9486097Y15348881D01*
X9494407Y15361154D01*
X9507108Y15368574D01*
X9522892Y15371137D01*
X9692976Y15371137D01*
X9752005Y15368571D01*
G37*
G36*
X10562130Y14763247D02*
G01*
X10560847Y14738014D01*
X10557001Y14720932D01*
X10550314Y14711544D01*
X10541109Y14708750D01*
X10159953Y14708750D01*
X10140490Y14710766D01*
X10127164Y14718688D01*
X10119745Y14735770D01*
X10117455Y14764850D01*
X10118966Y14793655D01*
X10124599Y14815042D01*
X10135132Y14833406D01*
X10151802Y14853052D01*
X10266519Y14976700D01*
X10298660Y15012218D01*
X10321840Y15041867D01*
X10354630Y15095540D01*
X10364852Y15119643D01*
X10370796Y15140282D01*
X10375146Y15179162D01*
X10369743Y15211585D01*
X10363049Y15225978D01*
X10353852Y15238284D01*
X10342175Y15248375D01*
X10327473Y15256190D01*
X10310751Y15260971D01*
X10290104Y15262693D01*
X10260895Y15260678D01*
X10236569Y15255045D01*
X10195582Y15238009D01*
X10166090Y15220745D01*
X10154683Y15214458D01*
X10147680Y15212868D01*
X10139712Y15215936D01*
X10134308Y15226240D01*
X10131010Y15245566D01*
X10129728Y15275195D01*
X10130507Y15295025D01*
X10132796Y15308901D01*
X10136918Y15319205D01*
X10145848Y15329784D01*
X10169433Y15344988D01*
X10211702Y15362573D01*
X10267023Y15376999D01*
X10297688Y15381373D01*
X10330084Y15382861D01*
X10379940Y15379395D01*
X10420484Y15369809D01*
X10456569Y15353817D01*
X10484781Y15333447D01*
X10507168Y15307973D01*
X10522974Y15278172D01*
X10532331Y15245279D01*
X10535522Y15209341D01*
X10533972Y15177266D01*
X10529340Y15145823D01*
X10520291Y15114478D01*
X10503740Y15078458D01*
X10481443Y15042113D01*
X10448923Y14998590D01*
X10410035Y14953702D01*
X10355180Y14896924D01*
X10277785Y14817194D01*
X10539094Y14817194D01*
X10548528Y14814126D01*
X10555993Y14804738D01*
X10560573Y14787931D01*
X10562130Y14763247D01*
G37*
G36*
X9652005Y4568571D02*
G01*
X9701705Y4561423D01*
X9743369Y4550392D01*
X9783054Y4534024D01*
X9817523Y4513551D01*
X9847370Y4488980D01*
X9873019Y4460079D01*
X9894434Y4426724D01*
X9911667Y4388367D01*
X9923561Y4347884D01*
X9931062Y4301911D01*
X9933695Y4249652D01*
X9930782Y4189155D01*
X9922610Y4137619D01*
X9909881Y4093810D01*
X9891211Y4052389D01*
X9868401Y4017402D01*
X9841463Y3988068D01*
X9810091Y3963504D01*
X9774175Y3943459D01*
X9733111Y3927939D01*
X9690172Y3917693D01*
X9639890Y3911100D01*
X9581207Y3908750D01*
X9422892Y3908750D01*
X9407108Y3911314D01*
X9394407Y3918734D01*
X9386097Y3931006D01*
X9382912Y3951249D01*
X9382912Y4014263D01*
X9517185Y4014263D01*
X9587389Y4014263D01*
X9640241Y4018145D01*
X9680583Y4028597D01*
X9715564Y4046766D01*
X9743872Y4071966D01*
X9765678Y4103790D01*
X9781791Y4144002D01*
X9790997Y4189075D01*
X9794339Y4244569D01*
X9791500Y4290708D01*
X9783302Y4332268D01*
X9768776Y4370476D01*
X9747948Y4402518D01*
X9720472Y4428780D01*
X9685437Y4448955D01*
X9643946Y4461008D01*
X9585328Y4465624D01*
X9517185Y4465624D01*
X9517185Y4014263D01*
X9382912Y4014263D01*
X9382912Y4528639D01*
X9386097Y4548881D01*
X9394407Y4561154D01*
X9407108Y4568574D01*
X9422892Y4571137D01*
X9592976Y4571137D01*
X9652005Y4568571D01*
G37*
G36*
X10455993Y3959263D02*
G01*
X10454436Y3935266D01*
X10450085Y3919604D01*
X10443674Y3911269D01*
X10435477Y3908750D01*
X10069662Y3908750D01*
X10061968Y3911269D01*
X10055557Y3919604D01*
X10051206Y3935266D01*
X10049695Y3959263D01*
X10050977Y3983764D01*
X10055053Y3999700D01*
X10061464Y4008539D01*
X10069662Y4011332D01*
X10193172Y4011332D01*
X10193172Y4445108D01*
X10086606Y4386490D01*
X10067372Y4379574D01*
X10060560Y4379743D01*
X10055603Y4382643D01*
X10049695Y4397709D01*
X10048184Y4427843D01*
X10048688Y4448039D01*
X10051252Y4461548D01*
X10056885Y4470753D01*
X10066639Y4478447D01*
X10209063Y4570359D01*
X10215475Y4573656D01*
X10225458Y4575717D01*
X10241578Y4576724D01*
X10267453Y4576999D01*
X10298960Y4576220D01*
X10317141Y4573656D01*
X10325338Y4568756D01*
X10327399Y4561062D01*
X10327399Y4011332D01*
X10435522Y4011332D01*
X10443949Y4008539D01*
X10450589Y3999700D01*
X10454711Y3983764D01*
X10455993Y3959263D01*
G37*
D11*
%TO.C,J1*%
X11097500Y16270000D02*
G75*
G02*
X10897500Y16270000I-100000J0D01*
G01*
X10897500Y16270000D02*
G75*
G02*
X11097500Y16270000I100000J0D01*
G01*
D12*
%TO.C,U3*%
X15237473Y12496446D02*
X15237473Y7543446D01*
X15237473Y7543446D02*
X17777473Y7543446D01*
X17777473Y12496446D02*
X15237473Y12496446D01*
X17777473Y7543446D02*
X17777473Y12496446D01*
D11*
X14857500Y8470000D02*
G75*
G02*
X14657500Y8470000I-100000J0D01*
G01*
X14657500Y8470000D02*
G75*
G02*
X14857500Y8470000I100000J0D01*
G01*
D13*
%TO.C,U4*%
X7200000Y9640000D02*
X10250000Y9640000D01*
D12*
X7200000Y6590000D02*
X7200000Y12690000D01*
D13*
X10005000Y10022000D02*
X8105000Y10022000D01*
X10005000Y10022000D02*
X10005000Y11922000D01*
X10005000Y9640000D02*
X10005000Y10022000D01*
X10250000Y12690000D02*
X10250000Y9640000D01*
X10250000Y10022000D02*
X10005000Y10022000D01*
D12*
X13300000Y12690000D02*
X7200000Y12690000D01*
X13300000Y6590000D02*
X7200000Y6590000D01*
X13300000Y6590000D02*
X13300000Y12690000D01*
D11*
X6850000Y11590000D02*
G75*
G02*
X6650000Y11590000I-100000J0D01*
G01*
X6650000Y11590000D02*
G75*
G02*
X6850000Y11590000I100000J0D01*
G01*
D13*
X11905000Y10022000D02*
G75*
G02*
X8105000Y10022000I-1900000J0D01*
G01*
X8105000Y10022000D02*
G75*
G02*
X11905000Y10022000I1900000J0D01*
G01*
D14*
%TO.C,D2*%
X9207500Y14620000D02*
X9207500Y13820000D01*
X9207500Y13820000D02*
X10507500Y13820000D01*
X10507500Y13820000D02*
X10807500Y14120000D01*
X10807500Y14620000D02*
X9207500Y14620000D01*
X10807500Y14120000D02*
X10807500Y14620000D01*
%TO.C,D1*%
X9207500Y5470000D02*
X9207500Y4670000D01*
X9207500Y4670000D02*
X10507500Y4670000D01*
X10507500Y4670000D02*
X10807500Y4970000D01*
X10807500Y5470000D02*
X9207500Y5470000D01*
X10807500Y4970000D02*
X10807500Y5470000D01*
%TD*%
M02*
