M48
; DRILL file KiCad 10.0.1 date 2026-05-08T14:46:49
; FORMAT={-:-/ absolute / metric / decimal}
; #@! TF.CreationDate,2026-05-08T14:46:49+05:30
; #@! TF.GenerationSoftware,Kicad,Pcbnew,10.0.1
; #@! TF.FileFunction,Plated,1,4,PTH
FMAT,2
METRIC
; #@! TA.AperFunction,Plated,PTH,ViaDrill
T1C0.229
; #@! TA.AperFunction,Plated,PTH,ViaDrill
T2C0.300
; #@! TA.AperFunction,Plated,PTH,ComponentDrill
T3C0.600
%
G90
G05
T1
X0.513Y18.027
X0.513Y16.027
X0.513Y14.027
X0.513Y12.027
X0.513Y10.027
X0.513Y8.027
X0.513Y6.027
X0.513Y4.027
X0.513Y2.027
X1.233Y12.897
X2.013Y19.527
X2.013Y0.527
X4.013Y19.527
X4.013Y0.527
X4.756Y12.15
X5.588Y11.704
X5.896Y7.767
X5.898Y9.607
X6.013Y19.527
X6.013Y0.527
X6.073Y12.487
X6.123Y16.137
X6.175Y13.162
X6.258Y10.272
X6.493Y7.157
X6.573Y8.437
X6.613Y18.217
X7.153Y14.167
X8.013Y19.527
X8.013Y0.527
X8.263Y4.417
X8.388Y8.627
X8.979Y11.025
X9.203Y17.057
X9.688Y11.038
X9.923Y15.337
X10.013Y19.527
X10.013Y0.527
X10.633Y4.161
X10.843Y11.207
X11.593Y11.137
X11.897Y9.273
X12.013Y19.527
X12.013Y0.527
X12.083Y10.627
X12.383Y14.767
X12.423Y17.202
X12.583Y15.747
X13.272Y15.308
X13.466Y14.515
X13.593Y12.687
X13.634Y7.147
X13.723Y17.177
X13.805Y10.302
X13.813Y8.687
X13.828Y9.468
X14.013Y19.527
X14.013Y0.527
X14.34Y7.523
X14.423Y1.207
X14.469Y11.055
X14.495Y10.304
X14.523Y8.977
X14.863Y13.323
X14.983Y17.227
X16.013Y19.527
X16.013Y0.527
X16.248Y17.178
X16.253Y12.557
X16.773Y14.967
X17.033Y6.527
X17.113Y13.327
X17.286Y12.667
X17.883Y6.657
X18.003Y9.097
X18.013Y19.527
X18.013Y0.527
X18.033Y9.867
X18.063Y7.527
X18.363Y10.897
X19.513Y18.027
X19.513Y16.027
X19.513Y14.027
X19.513Y12.027
X19.513Y10.027
X19.513Y8.027
X19.513Y6.027
X19.513Y4.027
X19.513Y2.027
T2
X9.893Y5.837
X13.623Y5.227
T3
X4.375Y6.027
X4.375Y4.777
X4.375Y3.527
X4.375Y2.277
M30
