%TF.GenerationSoftware,KiCad,Pcbnew,10.0.1*%
%TF.CreationDate,2026-05-08T14:46:53+05:30*%
%TF.ProjectId,X-Vision-HW,582d5669-7369-46f6-9e2d-48572e6b6963,rev?*%
%TF.SameCoordinates,PXd1d0ac3PY5111b03*%
%TF.FileFunction,Copper,L1,Top*%
%TF.FilePolarity,Positive*%
%FSLAX45Y45*%
G04 Gerber Fmt 4.5, Leading zero omitted, Abs format (unit mm)*
G04 Created by KiCad (PCBNEW 10.0.1) date 2026-05-08 14:46:53*
%MOMM*%
%LPD*%
G01*
G04 APERTURE LIST*
G04 Aperture macros list*
%AMRoundRect*
0 Rectangle with rounded corners*
0 $1 Rounding radius*
0 $2 $3 $4 $5 $6 $7 $8 $9 X,Y pos of 4 corners*
0 Add a 4 corners polygon primitive as box body*
4,1,4,$2,$3,$4,$5,$6,$7,$8,$9,$2,$3,0*
0 Add four circle primitives for the rounded corners*
1,1,$1+$1,$2,$3*
1,1,$1+$1,$4,$5*
1,1,$1+$1,$6,$7*
1,1,$1+$1,$8,$9*
0 Add four rect primitives between the rounded corners*
20,1,$1+$1,$2,$3,$4,$5,0*
20,1,$1+$1,$4,$5,$6,$7,0*
20,1,$1+$1,$6,$7,$8,$9,0*
20,1,$1+$1,$8,$9,$2,$3,0*%
G04 Aperture macros list end*
%TA.AperFunction,SMDPad,CuDef*%
%ADD10C,0.787000*%
%TD*%
%TA.AperFunction,SMDPad,CuDef*%
%ADD11RoundRect,0.050197X-0.204803X0.204803X-0.204803X-0.204803X0.204803X-0.204803X0.204803X0.204803X0*%
%TD*%
%TA.AperFunction,SMDPad,CuDef*%
%ADD12RoundRect,0.035000X-0.315000X-0.140000X0.315000X-0.140000X0.315000X0.140000X-0.315000X0.140000X0*%
%TD*%
%TA.AperFunction,SMDPad,CuDef*%
%ADD13RoundRect,0.035000X-0.140000X-0.315000X0.140000X-0.315000X0.140000X0.315000X-0.140000X0.315000X0*%
%TD*%
%TA.AperFunction,SMDPad,CuDef*%
%ADD14RoundRect,0.038000X-1.162000X-0.912000X1.162000X-0.912000X1.162000X0.912000X-1.162000X0.912000X0*%
%TD*%
%TA.AperFunction,SMDPad,CuDef*%
%ADD15C,1.000000*%
%TD*%
%TA.AperFunction,SMDPad,CuDef*%
%ADD16RoundRect,0.140000X0.210000X0.335000X-0.210000X0.335000X-0.210000X-0.335000X0.210000X-0.335000X0*%
%TD*%
%TA.AperFunction,ComponentPad*%
%ADD17RoundRect,0.250000X0.400000X-0.250000X0.400000X0.250000X-0.400000X0.250000X-0.400000X-0.250000X0*%
%TD*%
%TA.AperFunction,ViaPad*%
%ADD18C,0.482600*%
%TD*%
%TA.AperFunction,ViaPad*%
%ADD19C,0.600000*%
%TD*%
%TA.AperFunction,Conductor*%
%ADD20C,0.200000*%
%TD*%
%TA.AperFunction,Conductor*%
%ADD21C,0.152400*%
%TD*%
%TA.AperFunction,Conductor*%
%ADD22C,0.254000*%
%TD*%
%TA.AperFunction,Conductor*%
%ADD23C,0.203200*%
%TD*%
%TA.AperFunction,Conductor*%
%ADD24C,0.177800*%
%TD*%
G04 APERTURE END LIST*
D10*
%TO.P,J1,1,1_1*%
%TO.N,3v3*%
X1180289Y1656711D03*
%TO.P,J1,2,2_2*%
%TO.N,/STM_RST*%
X1307289Y1656711D03*
%TO.P,J1,3,3_3*%
%TO.N,/VL_INTR_SWDIO*%
X1434289Y1656711D03*
%TO.P,J1,4,4_4*%
%TO.N,unconnected-(J1-Pad4)*%
X1561289Y1656711D03*
%TO.P,J1,5,5_5*%
%TO.N,unconnected-(J1-Pad5)*%
X1688289Y1656711D03*
%TO.P,J1,6,6_6*%
%TO.N,GND*%
X1688289Y1783711D03*
%TO.P,J1,7,7_7*%
%TO.N,/Prog_Rx*%
X1561289Y1783711D03*
%TO.P,J1,8,8_8*%
%TO.N,/Prog_Tx*%
X1434289Y1783711D03*
%TO.P,J1,9,9_9*%
%TO.N,/STM_BOOT_SWCLK*%
X1307289Y1783711D03*
%TO.P,J1,10,10_10*%
%TO.N,1v8*%
X1180289Y1783711D03*
%TD*%
D11*
%TO.P,U3,1,AVDDVCSEL_1*%
%TO.N,3v3*%
X1571289Y842705D03*
%TO.P,U3,2,AVSSVCSEL_2*%
%TO.N,GND*%
X1571289Y922705D03*
%TO.P,U3,3,GND_3*%
X1571289Y1002705D03*
%TO.P,U3,4,GND2_4*%
X1571289Y1082705D03*
%TO.P,U3,5,XSHUT_5*%
%TO.N,/VL_XSHUT*%
X1571289Y1162705D03*
%TO.P,U3,6,GND3_6*%
%TO.N,GND*%
X1651287Y1162700D03*
%TO.P,U3,7,GPIO1_7*%
%TO.N,/VL_INTR_SWDIO*%
X1731284Y1162705D03*
%TO.P,U3,8*%
%TO.N,unconnected-(U3-Pad8)*%
X1731284Y1082705D03*
%TO.P,U3,9,SDA_9*%
%TO.N,/Sen_I2C_SDA*%
X1731284Y1002705D03*
%TO.P,U3,10,SCL_10*%
%TO.N,/Sen_I2C_SCL*%
X1731284Y922705D03*
%TO.P,U3,11,AVDD_11*%
%TO.N,3v3*%
X1731284Y842705D03*
%TO.P,U3,12,GND4_12*%
%TO.N,GND*%
X1651287Y842711D03*
%TD*%
D12*
%TO.P,U4,1,GND_1*%
%TO.N,GND*%
X760539Y1159711D03*
%TO.P,U4,2,VDD_2*%
%TO.N,1v8*%
X760539Y1094711D03*
%TO.P,U4,3,VDDIO_3*%
%TO.N,3v3*%
X760539Y1029711D03*
%TO.P,U4,4,VREG_4*%
%TO.N,Net-(C15-K)*%
X760539Y964711D03*
%TO.P,U4,5*%
%TO.N,unconnected-(U4-Pad5)*%
X760539Y899711D03*
%TO.P,U4,6*%
%TO.N,unconnected-(U4-Pad6)*%
X760539Y834711D03*
%TO.P,U4,7,NRESET_7*%
%TO.N,/PAW_RST*%
X760539Y769711D03*
D13*
%TO.P,U4,8*%
%TO.N,unconnected-(U4-Pad8)*%
X830539Y699711D03*
%TO.P,U4,9*%
%TO.N,unconnected-(U4-Pad9)*%
X895539Y699711D03*
%TO.P,U4,10*%
%TO.N,unconnected-(U4-Pad10)*%
X960539Y699711D03*
%TO.P,U4,11*%
%TO.N,unconnected-(U4-Pad11)*%
X1025539Y699711D03*
%TO.P,U4,12*%
%TO.N,unconnected-(U4-Pad12)*%
X1090539Y699711D03*
%TO.P,U4,13*%
%TO.N,unconnected-(U4-Pad13)*%
X1155539Y699711D03*
%TO.P,U4,14*%
%TO.N,unconnected-(U4-Pad14)*%
X1220539Y699711D03*
D12*
%TO.P,U4,15,MOTION_15*%
%TO.N,/PAW_INTR*%
X1290539Y769711D03*
%TO.P,U4,16,MOSI_16*%
%TO.N,/Sen_SPI_MOSI*%
X1290539Y834711D03*
%TO.P,U4,17,SCLK_17*%
%TO.N,/Sen_SPI_SCK*%
X1290539Y899711D03*
%TO.P,U4,18,MISO_18*%
%TO.N,/Sen_SPI_MISO*%
X1290539Y964711D03*
%TO.P,U4,19,NCS_19*%
%TO.N,/Sen_SPI_NSS*%
X1290539Y1029711D03*
%TO.P,U4,20,LED_N_20*%
%TO.N,/PAW_LED*%
X1290539Y1094711D03*
%TO.P,U4,21,GND_21*%
%TO.N,GND*%
X1290539Y1159711D03*
D13*
%TO.P,U4,22*%
%TO.N,unconnected-(U4-Pad22)*%
X1220539Y1229711D03*
%TO.P,U4,23*%
%TO.N,unconnected-(U4-Pad23)*%
X1155539Y1229711D03*
%TO.P,U4,24*%
%TO.N,unconnected-(U4-Pad24)*%
X1090539Y1229711D03*
%TO.P,U4,25*%
%TO.N,unconnected-(U4-Pad25)*%
X1025539Y1229711D03*
%TO.P,U4,26*%
%TO.N,unconnected-(U4-Pad26)*%
X960539Y1229711D03*
%TO.P,U4,27*%
%TO.N,unconnected-(U4-Pad27)*%
X895539Y1229711D03*
%TO.P,U4,28*%
%TO.N,unconnected-(U4-Pad28)*%
X830539Y1229711D03*
D14*
%TO.P,U4,29,GND_29*%
%TO.N,GND*%
X1025539Y964711D03*
%TD*%
D15*
%TO.P,H3,1*%
%TO.N,N/C*%
X1519289Y480711D03*
%TD*%
D16*
%TO.P,D2,1,K_1*%
%TO.N,/PAW_LED*%
X1076289Y1422711D03*
%TO.P,D2,2,A_2*%
%TO.N,Net-(D2-A)*%
X926289Y1422711D03*
%TD*%
%TO.P,D1,1,K_1*%
%TO.N,/PAW_LED*%
X1076289Y507711D03*
%TO.P,D1,2,A_2*%
%TO.N,Net-(D1-A)*%
X926289Y507711D03*
%TD*%
D15*
%TO.P,H4,1*%
%TO.N,N/C*%
X461289Y1542711D03*
%TD*%
D17*
%TO.P,CON1,1,1_1*%
%TO.N,/FC_I2C_SDA*%
X437539Y227711D03*
%TO.P,CON1,2,2_2*%
%TO.N,/FC_I2C_SCL*%
X437539Y352711D03*
%TO.P,CON1,3,3_3*%
%TO.N,3v3*%
X437539Y477711D03*
%TO.P,CON1,4,4_4*%
%TO.N,GND*%
X437539Y602711D03*
%TD*%
D18*
%TO.N,GND*%
X1951289Y1002711D03*
X1601289Y52711D03*
X1951289Y202711D03*
X51289Y1202711D03*
X401289Y1952711D03*
X1625289Y1255711D03*
X801289Y1952711D03*
X1359289Y1268711D03*
X201289Y1952711D03*
X51289Y602711D03*
X51289Y202711D03*
X1801289Y52711D03*
X1801289Y1952711D03*
X51289Y802711D03*
X401289Y52711D03*
X201289Y52711D03*
X51289Y1002711D03*
X51289Y1402711D03*
X1951289Y1202711D03*
X607289Y1248711D03*
X1446913Y1105461D03*
X1001289Y1952711D03*
X1201289Y52711D03*
X1951289Y602711D03*
X1951289Y1802711D03*
X992289Y1533711D03*
X1401289Y52711D03*
X601289Y1952711D03*
X1401289Y1952711D03*
X51289Y1602711D03*
X1951289Y1602711D03*
X1951289Y1402711D03*
X801289Y52711D03*
X1001289Y52711D03*
X1951289Y402711D03*
X1703289Y652711D03*
X601289Y52711D03*
X1951289Y802711D03*
X1084289Y1120711D03*
X51289Y1802711D03*
X1452289Y897711D03*
X51289Y402711D03*
X1601289Y1952711D03*
X1201289Y1952711D03*
%TO.N,3v3*%
X1806289Y752711D03*
X625789Y1027211D03*
X920289Y1705711D03*
X1677289Y1496711D03*
X1063289Y416081D03*
X475604Y1215026D03*
X1836289Y1089711D03*
X612289Y1613711D03*
X1449483Y1030413D03*
X1258289Y1574711D03*
X1788289Y665711D03*
X1433984Y752346D03*
%TO.N,1v8*%
X1442289Y120711D03*
X661289Y1821711D03*
X123289Y1289711D03*
X558810Y1170417D03*
%TO.N,/STM_RST*%
X1372289Y1717711D03*
%TO.N,Net-(C15-K)*%
X589762Y960657D03*
%TO.N,/FC_I2C_SCL*%
X617515Y1316201D03*
%TO.N,/FC_I2C_SDA*%
X715289Y1416711D03*
D19*
%TO.N,Net-(D1-A)*%
X989289Y583711D03*
D18*
%TO.N,Net-(D2-A)*%
X1238289Y1476711D03*
%TO.N,/VL_INTR_SWDIO*%
X1728561Y1266672D03*
X838789Y862711D03*
X1486289Y1332284D03*
%TO.N,/Prog_Tx*%
X1327197Y1530803D03*
X1498289Y1722711D03*
%TO.N,/STM_BOOT_SWCLK*%
X1242289Y1720211D03*
X657289Y843711D03*
%TO.N,/Prog_Rx*%
X1346603Y1451511D03*
X1624789Y1717841D03*
%TO.N,/SW_1v8*%
X1159289Y1113711D03*
X826289Y441711D03*
%TO.N,/Sen_I2C_SDA*%
X1803289Y986711D03*
X897873Y1102476D03*
%TO.N,/Sen_I2C_SCL*%
X1800289Y909711D03*
X968789Y1103841D03*
%TO.N,/PAW_LED*%
X1208289Y1062711D03*
D19*
X1362289Y522711D03*
D18*
%TO.N,/Sen_SPI_NSS*%
X1380468Y1030243D03*
%TO.N,/VL_XSHUT*%
X649289Y715711D03*
X1711289Y1332711D03*
%TO.N,/PAW_RST*%
X589579Y776711D03*
%TO.N,/Sen_SPI_SCK*%
X1381289Y868711D03*
%TO.N,/PAW_INTR*%
X1363389Y714711D03*
%TO.N,/Sen_SPI_MISO*%
X1382816Y946781D03*
%TO.N,/Sen_SPI_MOSI*%
X1189669Y927276D03*
%TD*%
%TO.N,GND*%
D20*
X1651287Y733016D02*
X1651287Y842711D01*
X1703289Y654711D02*
X1669885Y688115D01*
X1571289Y922705D02*
X1571289Y1002705D01*
X1571289Y1002705D02*
X1571289Y1082705D01*
X1703289Y652711D02*
X1703289Y654711D01*
X1310289Y1159711D02*
X1290539Y1159711D01*
X1669885Y688115D02*
G75*
G02*
X1651284Y733016I44904J44906D01*
G01*
%TO.N,3v3*%
D21*
X971331Y1634711D02*
X1158289Y1634711D01*
D22*
X628289Y1029711D02*
X760539Y1029711D01*
D23*
X1433984Y752405D02*
X1505685Y824107D01*
D20*
X1433984Y752346D02*
X1433984Y752405D01*
D23*
X1550587Y842705D02*
X1571289Y842705D01*
D20*
X1806289Y764711D02*
X1731284Y839716D01*
D21*
X1158289Y1634711D02*
X1180289Y1656711D01*
D20*
X1806289Y752711D02*
X1806289Y764711D01*
D22*
X625789Y1027211D02*
X628289Y1029711D01*
D20*
X1731284Y839716D02*
X1731284Y842705D01*
D21*
X920289Y1705711D02*
X920289Y1685753D01*
X935168Y1649832D02*
X935410Y1649590D01*
X920289Y1685753D02*
G75*
G03*
X935167Y1649831I50800J-2D01*
G01*
X935410Y1649590D02*
G75*
G03*
X971331Y1634712I35919J35921D01*
G01*
D23*
X1550587Y842705D02*
G75*
G03*
X1505688Y824104I3J-63495D01*
G01*
%TO.N,1v8*%
D22*
X662592Y1094711D02*
X760539Y1094711D01*
D21*
X1160888Y1803112D02*
X1180289Y1783711D01*
D22*
X558810Y1170417D02*
X560583Y1170417D01*
D21*
X661289Y1821711D02*
X1115987Y1821711D01*
D22*
X560583Y1170417D02*
X617691Y1113309D01*
D21*
X1160888Y1803112D02*
G75*
G03*
X1115987Y1821709I-44899J-44901D01*
G01*
D22*
X617691Y1113309D02*
G75*
G03*
X662592Y1094713I44899J44901D01*
G01*
%TO.N,/STM_RST*%
D21*
X1307289Y1656711D02*
X1311289Y1656711D01*
X1311289Y1656711D02*
X1372289Y1717711D01*
%TO.N,Net-(C15-K)*%
D22*
X756485Y960657D02*
X760539Y964711D01*
X589762Y960657D02*
X756485Y960657D01*
%TO.N,/FC_I2C_SCL*%
D21*
X475691Y1309112D02*
X303228Y1136649D01*
X303228Y427022D02*
X358941Y371309D01*
X284629Y1091748D02*
X284629Y471923D01*
X403842Y352711D02*
X437539Y352711D01*
X606005Y1327711D02*
X520592Y1327711D01*
X617515Y1316201D02*
X606005Y1327711D01*
X303228Y427022D02*
G75*
G02*
X284631Y471923I44901J44899D01*
G01*
X358941Y371309D02*
G75*
G03*
X403842Y352712I44899J44901D01*
G01*
X303228Y1136649D02*
G75*
G03*
X284631Y1091748I44901J-44899D01*
G01*
X475691Y1309112D02*
G75*
G02*
X520592Y1327709I44899J-44901D01*
G01*
%TO.N,/FC_I2C_SDA*%
X249289Y1109408D02*
X249289Y382263D01*
X403842Y227711D02*
X437539Y227711D01*
X267888Y337362D02*
X358941Y246309D01*
X511691Y1398112D02*
X267888Y1154309D01*
X715289Y1416711D02*
X556592Y1416711D01*
X358941Y246309D02*
G75*
G03*
X403842Y227712I44899J44901D01*
G01*
X511691Y1398112D02*
G75*
G02*
X556592Y1416709I44899J-44901D01*
G01*
X267888Y1154309D02*
G75*
G03*
X249291Y1109408I44901J-44899D01*
G01*
X267888Y337362D02*
G75*
G02*
X249291Y382263I44901J44899D01*
G01*
%TO.N,Net-(D1-A)*%
D24*
X926289Y520711D02*
X926289Y507711D01*
X989289Y583711D02*
X926289Y520711D01*
%TO.N,Net-(D2-A)*%
X1025866Y1487832D02*
X960745Y1422711D01*
X960745Y1422711D02*
X926289Y1422711D01*
X1191247Y1502711D02*
X1061788Y1502711D01*
X1238289Y1476711D02*
X1227168Y1487832D01*
X1191247Y1502711D02*
G75*
G02*
X1227169Y1487833I2J-50800D01*
G01*
X1061788Y1502711D02*
G75*
G03*
X1025867Y1487831I2J-50800D01*
G01*
%TO.N,/VL_INTR_SWDIO*%
X1486289Y1583669D02*
X1486289Y1332284D01*
D21*
X1728561Y1266672D02*
X1728289Y1266400D01*
X1728289Y1163711D02*
X1729295Y1162705D01*
X1729295Y1162705D02*
X1731284Y1162705D01*
X1728289Y1266400D02*
X1728289Y1163711D01*
D24*
X1434289Y1656711D02*
X1471410Y1619590D01*
X1486289Y1583669D02*
G75*
G03*
X1471411Y1619591I-50800J2D01*
G01*
%TO.N,/Prog_Tx*%
D21*
X1495289Y1722711D02*
X1434289Y1783711D01*
X1498289Y1722711D02*
X1495289Y1722711D01*
%TO.N,/STM_BOOT_SWCLK*%
X1297980Y1783711D02*
X1307289Y1783711D01*
X1242289Y1728020D02*
X1297980Y1783711D01*
X1242289Y1720211D02*
X1242289Y1728020D01*
%TO.N,/Prog_Rx*%
X1567289Y1783711D02*
X1561289Y1783711D01*
X1624789Y1717841D02*
X1624789Y1726211D01*
X1624789Y1726211D02*
X1567289Y1783711D01*
%TO.N,/Sen_I2C_SDA*%
X1803289Y986711D02*
X1803289Y1000705D01*
X1803289Y1000705D02*
X1801289Y1002705D01*
X1801289Y1002705D02*
X1731284Y1002705D01*
X1734278Y999711D02*
X1731284Y1002705D01*
%TO.N,/Sen_I2C_SCL*%
X1800289Y909711D02*
X1812956Y909711D01*
X1731289Y922711D02*
X1731284Y922705D01*
X1787295Y922705D02*
X1731284Y922705D01*
X1800289Y909711D02*
X1787295Y922705D01*
%TO.N,/PAW_LED*%
D24*
X1290539Y1094711D02*
X1338247Y1094711D01*
X1355289Y515711D02*
X1084289Y515711D01*
X1084289Y515711D02*
X1076289Y507711D01*
X1416410Y1313590D02*
X1369168Y1360832D01*
X1096410Y1390590D02*
X1076289Y1410711D01*
X1076289Y1410711D02*
X1076289Y1422711D01*
X1290539Y1094711D02*
X1261331Y1094711D01*
X1362289Y522711D02*
X1355289Y515711D01*
D21*
X1287051Y1091222D02*
X1290539Y1094711D01*
D24*
X1225410Y1079832D02*
X1208289Y1062711D01*
X1374168Y1109590D02*
X1416410Y1151832D01*
X1431289Y1187753D02*
X1431289Y1277669D01*
X1333247Y1375711D02*
X1132331Y1375711D01*
X1261331Y1094711D02*
G75*
G03*
X1225409Y1079833I-2J-50800D01*
G01*
X1132331Y1375711D02*
G75*
G02*
X1096409Y1390589I-2J50800D01*
G01*
X1374168Y1109590D02*
G75*
G02*
X1338247Y1094712I-35919J35921D01*
G01*
X1431289Y1277669D02*
G75*
G03*
X1416411Y1313591I-50800J2D01*
G01*
X1416410Y1151832D02*
G75*
G03*
X1431288Y1187753I-35921J35919D01*
G01*
X1333247Y1375711D02*
G75*
G02*
X1369169Y1360833I2J-50800D01*
G01*
%TO.N,/Sen_SPI_NSS*%
D21*
X1372196Y1029711D02*
X1290539Y1029711D01*
X1372728Y1030243D02*
X1372196Y1029711D01*
X1380468Y1030243D02*
X1372728Y1030243D01*
%TO.N,/VL_XSHUT*%
X1572888Y1277309D02*
X1609691Y1314112D01*
X1654592Y1332711D02*
X1711289Y1332711D01*
X1554289Y1179705D02*
X1554289Y1232408D01*
X1571289Y1162705D02*
X1554289Y1179705D01*
X1609691Y1314112D02*
G75*
G02*
X1654592Y1332709I44899J-44901D01*
G01*
X1554289Y1232408D02*
G75*
G02*
X1572887Y1277311I63500J3D01*
G01*
%TO.N,/PAW_RST*%
X596579Y769711D02*
X760539Y769711D01*
X589579Y776711D02*
X596579Y769711D01*
%TO.N,/Sen_SPI_SCK*%
X1381289Y868711D02*
X1365168Y884832D01*
X1329247Y899711D02*
X1290539Y899711D01*
X1329247Y899711D02*
G75*
G02*
X1365169Y884833I2J-50800D01*
G01*
%TO.N,/PAW_INTR*%
D20*
X1308389Y769711D02*
X1290539Y769711D01*
X1363389Y714711D02*
X1308389Y769711D01*
%TO.N,/Sen_SPI_MISO*%
D21*
X1384219Y948781D02*
X1375289Y957711D01*
X1382816Y946781D02*
X1384219Y948184D01*
X1375289Y957711D02*
X1297539Y957711D01*
X1384219Y948184D02*
X1384219Y948781D01*
X1297539Y957711D02*
X1290539Y964711D01*
X1384816Y948781D02*
X1384816Y953973D01*
X1382816Y946781D02*
X1384816Y948781D01*
%TO.N,/Sen_SPI_MOSI*%
X1190724Y927276D02*
X1201289Y916711D01*
D24*
X1290539Y834711D02*
X1241331Y834711D01*
X1205410Y849590D02*
X1204548Y850452D01*
D21*
X1189669Y927276D02*
X1190724Y927276D01*
D24*
X1189669Y886373D02*
X1189669Y927276D01*
X1204548Y850452D02*
G75*
G02*
X1189671Y886373I35921J35919D01*
G01*
X1205410Y849590D02*
G75*
G03*
X1241331Y834712I35919J35921D01*
G01*
%TD*%
%TA.AperFunction,Conductor*%
%TO.N,3v3*%
G36*
X1548002Y866328D02*
G01*
X1559548Y860001D01*
X1566918Y855962D01*
X1567479Y855264D01*
X1567381Y854374D01*
X1567373Y854359D01*
X1547921Y820040D01*
X1547215Y819489D01*
X1546327Y819599D01*
X1546116Y819752D01*
X1543431Y822195D01*
X1543431Y822196D01*
X1543431Y822196D01*
X1538887Y825104D01*
X1538887Y825104D01*
X1538887Y825104D01*
X1534554Y826730D01*
X1534553Y826730D01*
X1530308Y827243D01*
X1530307Y827243D01*
X1530307Y827243D01*
X1527362Y826816D01*
X1526494Y827037D01*
X1526181Y827389D01*
X1517076Y843156D01*
X1516960Y844044D01*
X1517505Y844754D01*
X1517630Y844817D01*
X1524572Y847778D01*
X1534777Y855073D01*
X1546641Y866157D01*
X1547479Y866472D01*
X1548002Y866328D01*
G37*
%TD.AperFunction*%
%TD*%
%TA.AperFunction,Conductor*%
%TO.N,3v3*%
G36*
X909097Y1702424D02*
G01*
X932888Y1685131D01*
X933093Y1684981D01*
X933560Y1684218D01*
X933351Y1683347D01*
X933284Y1683263D01*
X928752Y1678102D01*
X928750Y1678101D01*
X927153Y1675869D01*
X926393Y1675396D01*
X925521Y1675599D01*
X925254Y1675864D01*
X924689Y1676645D01*
X908512Y1693234D01*
X904054Y1696711D01*
X903612Y1697490D01*
X903851Y1698353D01*
X903923Y1698438D01*
X904109Y1698634D01*
X907559Y1702282D01*
X908376Y1702647D01*
X909097Y1702424D01*
G37*
%TD.AperFunction*%
%TD*%
%TA.AperFunction,Conductor*%
%TO.N,/FC_I2C_SDA*%
G36*
X709812Y1440011D02*
G01*
X710586Y1439561D01*
X710681Y1439437D01*
X710892Y1438982D01*
X714171Y1424262D01*
X715768Y1417091D01*
X715796Y1416836D01*
X715796Y1416585D01*
X715768Y1416331D01*
X710912Y1394529D01*
X710728Y1394111D01*
X710625Y1393965D01*
X709870Y1393485D01*
X709816Y1393475D01*
X709741Y1393462D01*
X709177Y1393502D01*
X698671Y1396923D01*
X698544Y1396973D01*
X698421Y1397030D01*
X698301Y1397094D01*
X690615Y1401783D01*
X690588Y1401801D01*
X690557Y1401821D01*
X690534Y1401836D01*
X688829Y1403003D01*
X688828Y1403003D01*
X688827Y1403004D01*
X688825Y1403005D01*
X680353Y1407349D01*
X680352Y1407349D01*
X674824Y1408609D01*
X674822Y1408609D01*
X674761Y1408623D01*
X674761Y1408623D01*
X674760Y1408623D01*
X674681Y1408628D01*
X674681Y1408628D01*
X668820Y1409005D01*
X668379Y1409123D01*
X668199Y1409211D01*
X667621Y1409848D01*
X667568Y1409988D01*
X667493Y1410401D01*
X667493Y1423011D01*
X667582Y1423458D01*
X667660Y1423646D01*
X667661Y1423647D01*
X668254Y1424262D01*
X668386Y1424323D01*
X668787Y1424426D01*
X670463Y1424549D01*
X675598Y1424927D01*
X675599Y1424927D01*
X675599Y1424927D01*
X675601Y1424928D01*
X679409Y1425937D01*
X681637Y1426528D01*
X681637Y1426528D01*
X681637Y1426528D01*
X681638Y1426528D01*
X681692Y1426542D01*
X681693Y1426543D01*
X681977Y1426618D01*
X682320Y1426916D01*
X687535Y1429884D01*
X690572Y1431612D01*
X691996Y1432489D01*
X697954Y1436162D01*
X698030Y1436205D01*
X698114Y1436248D01*
X698194Y1436285D01*
X703416Y1438467D01*
X703484Y1438492D01*
X703562Y1438519D01*
X703633Y1438541D01*
X709181Y1440007D01*
X709635Y1440035D01*
X709812Y1440011D01*
G37*
%TD.AperFunction*%
%TD*%
%TA.AperFunction,Conductor*%
%TO.N,/Prog_Tx*%
G36*
X1469884Y1798294D02*
G01*
X1470706Y1797943D01*
X1470804Y1797844D01*
X1471084Y1797378D01*
X1475885Y1782199D01*
X1475909Y1782112D01*
X1475929Y1782023D01*
X1475947Y1781934D01*
X1477908Y1769133D01*
X1477909Y1769130D01*
X1479628Y1758246D01*
X1484108Y1747274D01*
X1488585Y1740871D01*
X1490601Y1738644D01*
X1494185Y1734685D01*
X1494420Y1734294D01*
X1494485Y1734110D01*
X1494453Y1733242D01*
X1494390Y1733099D01*
X1494147Y1732746D01*
X1485245Y1723844D01*
X1484866Y1723591D01*
X1484678Y1723513D01*
X1483823Y1723497D01*
X1483686Y1723548D01*
X1483330Y1723758D01*
X1474193Y1731636D01*
X1469447Y1734294D01*
X1465454Y1736529D01*
X1465454Y1736529D01*
X1462845Y1737289D01*
X1462845Y1737289D01*
X1458189Y1738644D01*
X1457983Y1738810D01*
X1448874Y1740091D01*
X1448863Y1740092D01*
X1436581Y1741945D01*
X1436493Y1741961D01*
X1436404Y1741982D01*
X1436317Y1742005D01*
X1427076Y1744899D01*
X1420661Y1746908D01*
X1420260Y1747127D01*
X1420124Y1747241D01*
X1420124Y1747241D01*
X1419709Y1748034D01*
X1419697Y1748172D01*
X1419776Y1748712D01*
X1423612Y1758246D01*
X1433708Y1783342D01*
X1433957Y1783723D01*
X1434250Y1784022D01*
X1434648Y1784288D01*
X1469257Y1798212D01*
X1469706Y1798296D01*
X1469884Y1798294D01*
G37*
%TD.AperFunction*%
%TD*%
%TA.AperFunction,Conductor*%
%TO.N,/Sen_I2C_SDA*%
G36*
X1765676Y1009157D02*
G01*
X1765922Y1009053D01*
X1766151Y1008923D01*
X1766368Y1008766D01*
X1769391Y1005984D01*
X1769509Y1005858D01*
X1769619Y1005722D01*
X1769717Y1005580D01*
X1773962Y998325D01*
X1774111Y997894D01*
X1774135Y997718D01*
X1773909Y996851D01*
X1773909Y996851D01*
X1773880Y996813D01*
X1773107Y996361D01*
X1773077Y996357D01*
X1763215Y995256D01*
X1762761Y995295D01*
X1762590Y995344D01*
X1762590Y995345D01*
X1762590Y995345D01*
X1761890Y995904D01*
X1761830Y996013D01*
X1761685Y996578D01*
X1761685Y1008531D01*
X1761773Y1008978D01*
X1761804Y1009053D01*
X1761842Y1009143D01*
X1762474Y1009776D01*
X1762544Y1009805D01*
X1763320Y1009846D01*
X1765676Y1009157D01*
G37*
%TD.AperFunction*%
%TD*%
%TA.AperFunction,Conductor*%
%TO.N,3v3*%
G36*
X637646Y1011986D02*
G01*
X637948Y1011690D01*
X639712Y1009192D01*
X639909Y1008319D01*
X639431Y1007562D01*
X639280Y1007471D01*
X636212Y1005935D01*
X636203Y1005934D01*
X636197Y1005927D01*
X635755Y1005902D01*
X635319Y1005871D01*
X635312Y1005877D01*
X635303Y1005876D01*
X634974Y1006169D01*
X634642Y1006457D01*
X634634Y1006472D01*
X634524Y1006700D01*
X634468Y1007579D01*
X635594Y1010955D01*
X635732Y1011237D01*
X636022Y1011668D01*
X636768Y1012163D01*
X637646Y1011986D01*
G37*
%TD.AperFunction*%
%TA.AperFunction,Conductor*%
G36*
X673050Y1041945D02*
G01*
X673559Y1041208D01*
X673586Y1040962D01*
X673586Y1018286D01*
X673243Y1017458D01*
X672416Y1017116D01*
X672315Y1017120D01*
X666175Y1017648D01*
X666005Y1017676D01*
X656566Y1019922D01*
X656432Y1019962D01*
X646917Y1023467D01*
X646763Y1023537D01*
X646294Y1023791D01*
X645730Y1024487D01*
X645823Y1025378D01*
X646033Y1025656D01*
X655098Y1034518D01*
X655312Y1034683D01*
X664971Y1040490D01*
X665326Y1040630D01*
X672169Y1042105D01*
X673050Y1041945D01*
G37*
%TD.AperFunction*%
%TA.AperFunction,Conductor*%
G36*
X625331Y1050953D02*
G01*
X625750Y1050162D01*
X625755Y1050022D01*
X625460Y1038709D01*
X625096Y1037891D01*
X624260Y1037570D01*
X623537Y1037845D01*
X619775Y1041014D01*
X619520Y1041316D01*
X616829Y1045894D01*
X616668Y1046516D01*
X616696Y1047684D01*
X616900Y1048316D01*
X617542Y1049253D01*
X618031Y1049661D01*
X620557Y1050786D01*
X620922Y1050882D01*
X624476Y1051217D01*
X625331Y1050953D01*
G37*
%TD.AperFunction*%
%TD*%
%TA.AperFunction,Conductor*%
%TO.N,/PAW_LED*%
G36*
X1111079Y1411667D02*
G01*
X1111344Y1410952D01*
X1111409Y1408129D01*
X1112757Y1402663D01*
X1115141Y1397814D01*
X1115141Y1397814D01*
X1115141Y1397813D01*
X1118993Y1392869D01*
X1123480Y1388960D01*
X1131643Y1384934D01*
X1132234Y1384261D01*
X1132296Y1383857D01*
X1131931Y1368304D01*
X1131569Y1367485D01*
X1130734Y1367162D01*
X1130468Y1367199D01*
X1127705Y1367916D01*
X1126854Y1368136D01*
X1117388Y1370405D01*
X1105698Y1373207D01*
X1105697Y1373207D01*
X1086398Y1375847D01*
X1086397Y1375847D01*
X1074195Y1375275D01*
X1073353Y1375579D01*
X1072972Y1376389D01*
X1072978Y1376577D01*
X1073605Y1381999D01*
X1074024Y1382769D01*
X1109432Y1411830D01*
X1110289Y1412090D01*
X1111079Y1411667D01*
G37*
%TD.AperFunction*%
%TD*%
%TA.AperFunction,Conductor*%
%TO.N,/FC_I2C_SDA*%
G36*
X341562Y274334D02*
G01*
X341943Y274078D01*
X354136Y261823D01*
X363485Y252426D01*
X363547Y252400D01*
X363548Y252400D01*
X363569Y252391D01*
X363642Y252381D01*
X365538Y251839D01*
X367481Y253014D01*
X371625Y259036D01*
X373311Y261800D01*
X373341Y261846D01*
X373376Y261898D01*
X373410Y261944D01*
X378645Y268796D01*
X378987Y269098D01*
X379141Y269187D01*
X380027Y269306D01*
X380076Y269293D01*
X380788Y268751D01*
X380795Y268739D01*
X417654Y203614D01*
X417797Y203181D01*
X417819Y203004D01*
X417580Y202142D01*
X417539Y202089D01*
X416847Y201661D01*
X375676Y193392D01*
X375219Y193391D01*
X375001Y193434D01*
X374301Y193867D01*
X374228Y193961D01*
X374048Y194297D01*
X371478Y201817D01*
X371012Y203181D01*
X366588Y216126D01*
X366576Y216162D01*
X364626Y222578D01*
X360078Y233663D01*
X360077Y233664D01*
X360077Y233664D01*
X354396Y240193D01*
X354393Y240196D01*
X354372Y240214D01*
X353600Y240880D01*
X353570Y240907D01*
X353535Y240939D01*
X353507Y240967D01*
X342048Y252426D01*
X331168Y263305D01*
X330915Y263685D01*
X330847Y263849D01*
X330847Y264744D01*
X330915Y264910D01*
X331168Y265289D01*
X339959Y274080D01*
X340339Y274333D01*
X340407Y274361D01*
X340504Y274401D01*
X341398Y274401D01*
X341562Y274334D01*
G37*
%TD.AperFunction*%
%TD*%
%TA.AperFunction,Conductor*%
%TO.N,/STM_BOOT_SWCLK*%
G36*
X1292718Y1798879D02*
G01*
X1292741Y1798866D01*
X1292961Y1798701D01*
X1302709Y1789431D01*
X1302968Y1789067D01*
X1303143Y1788682D01*
X1303246Y1788246D01*
X1304837Y1749277D01*
X1304766Y1748826D01*
X1304705Y1748659D01*
X1304099Y1748001D01*
X1304010Y1747960D01*
X1303341Y1747865D01*
X1302931Y1747928D01*
X1302931Y1747928D01*
X1295858Y1749010D01*
X1295845Y1749012D01*
X1295830Y1749015D01*
X1283058Y1749791D01*
X1271508Y1749381D01*
X1271259Y1749342D01*
X1270803Y1749361D01*
X1270656Y1749396D01*
X1269933Y1749924D01*
X1269783Y1750753D01*
X1269803Y1750857D01*
X1269945Y1751232D01*
X1277148Y1763411D01*
X1288155Y1789050D01*
X1290868Y1798063D01*
X1291082Y1798465D01*
X1291195Y1798604D01*
X1291983Y1799027D01*
X1291983Y1799027D01*
X1292015Y1799030D01*
X1292718Y1798879D01*
G37*
%TD.AperFunction*%
%TD*%
%TA.AperFunction,Conductor*%
%TO.N,/Sen_I2C_SCL*%
G36*
X1802872Y926551D02*
G01*
X1802992Y926310D01*
X1803903Y923770D01*
X1803860Y922876D01*
X1803234Y922288D01*
X1776231Y911570D01*
X1776231Y911570D01*
X1775942Y910294D01*
X1775425Y909563D01*
X1774542Y909412D01*
X1773811Y909929D01*
X1773761Y910017D01*
X1772152Y913148D01*
X1770933Y915272D01*
X1770819Y916160D01*
X1771366Y916869D01*
X1771627Y916980D01*
X1791750Y922714D01*
X1794211Y923770D01*
X1800786Y926592D01*
X1801254Y926896D01*
X1802134Y927059D01*
X1802872Y926551D01*
G37*
%TD.AperFunction*%
%TD*%
%TA.AperFunction,Conductor*%
%TO.N,Net-(C15-K)*%
G36*
X727055Y977401D02*
G01*
X756786Y962578D01*
X758162Y961892D01*
X758523Y961613D01*
X758619Y961502D01*
X758754Y961098D01*
X758906Y960699D01*
X758895Y960676D01*
X758903Y960653D01*
X758538Y959882D01*
X758458Y959807D01*
X758114Y959583D01*
X730072Y947650D01*
X729626Y947557D01*
X729358Y947554D01*
X728645Y947788D01*
X728605Y947818D01*
X728390Y948026D01*
X727617Y948998D01*
X727354Y949329D01*
X727256Y949661D01*
X723461Y950405D01*
X714248Y948997D01*
X709632Y948224D01*
X709176Y948238D01*
X709002Y948278D01*
X708273Y948797D01*
X708216Y948888D01*
X708039Y949507D01*
X708039Y971835D01*
X708128Y972283D01*
X708132Y972291D01*
X708197Y972448D01*
X708467Y972719D01*
X708829Y973081D01*
X708951Y973131D01*
X709510Y973214D01*
X711727Y973000D01*
X719345Y972520D01*
X723789Y973969D01*
X725070Y975646D01*
X725212Y976404D01*
X725381Y976827D01*
X725479Y976977D01*
X726217Y977483D01*
X726291Y977499D01*
X727055Y977401D01*
G37*
%TD.AperFunction*%
%TD*%
%TA.AperFunction,Conductor*%
%TO.N,3v3*%
G36*
X727860Y1046740D02*
G01*
X728341Y1046609D01*
X735847Y1042682D01*
X736365Y1042411D01*
X758452Y1030855D01*
X758807Y1030569D01*
X758915Y1030439D01*
X759183Y1029585D01*
X758845Y1028861D01*
X758784Y1028801D01*
X758499Y1028591D01*
X728355Y1012820D01*
X727917Y1012691D01*
X727495Y1012653D01*
X727030Y1012706D01*
X716223Y1016200D01*
X716223Y1016200D01*
X716221Y1016201D01*
X716221Y1016201D01*
X709326Y1016883D01*
X708889Y1017016D01*
X708702Y1017116D01*
X708153Y1017754D01*
X708108Y1017880D01*
X708039Y1018273D01*
X708039Y1041071D01*
X708128Y1041518D01*
X708132Y1041527D01*
X708204Y1041701D01*
X708807Y1042321D01*
X708948Y1042384D01*
X709360Y1042484D01*
X711392Y1042596D01*
X712904Y1042680D01*
X712921Y1042681D01*
X712929Y1042682D01*
X712933Y1042682D01*
X712934Y1042682D01*
X712934Y1042682D01*
X712936Y1042682D01*
X712939Y1042682D01*
X712953Y1042686D01*
X719347Y1043987D01*
X727000Y1046697D01*
X727451Y1046762D01*
X727860Y1046740D01*
G37*
%TD.AperFunction*%
%TD*%
%TA.AperFunction,Conductor*%
%TO.N,/Sen_I2C_SCL*%
G36*
X1754339Y947410D02*
G01*
X1754644Y947293D01*
X1763285Y942520D01*
X1763370Y942469D01*
X1763450Y942415D01*
X1763529Y942357D01*
X1770506Y936791D01*
X1776563Y932093D01*
X1780301Y930938D01*
X1781237Y930649D01*
X1781638Y930432D01*
X1781852Y930254D01*
X1782241Y929636D01*
X1782249Y929601D01*
X1782265Y929472D01*
X1782270Y929462D01*
X1782267Y929453D01*
X1782284Y929319D01*
X1782284Y916174D01*
X1782195Y915726D01*
X1782087Y915467D01*
X1781612Y914914D01*
X1781585Y914897D01*
X1781334Y914784D01*
X1776394Y913214D01*
X1776372Y913201D01*
X1776337Y913170D01*
X1770496Y908612D01*
X1770485Y908602D01*
X1764632Y903848D01*
X1764555Y903791D01*
X1764475Y903736D01*
X1764394Y903685D01*
X1754708Y898170D01*
X1754275Y898026D01*
X1754027Y897994D01*
X1753266Y898160D01*
X1753198Y898202D01*
X1752943Y898416D01*
X1737243Y915941D01*
X1732038Y921751D01*
X1731806Y922144D01*
X1731735Y922347D01*
X1731758Y923183D01*
X1731807Y923302D01*
X1732016Y923634D01*
X1737109Y929319D01*
X1752909Y946956D01*
X1753273Y947230D01*
X1753503Y947340D01*
X1754269Y947426D01*
X1754339Y947410D01*
G37*
%TD.AperFunction*%
%TD*%
%TA.AperFunction,Conductor*%
%TO.N,/Sen_SPI_NSS*%
G36*
X1374985Y1053540D02*
G01*
X1374985Y1053540D01*
X1375063Y1053495D01*
X1375759Y1053091D01*
X1375852Y1052969D01*
X1376066Y1052508D01*
X1380949Y1030091D01*
X1380975Y1029837D01*
X1380974Y1029586D01*
X1380945Y1029331D01*
X1376095Y1008045D01*
X1375909Y1007628D01*
X1375805Y1007483D01*
X1375048Y1007007D01*
X1374915Y1006984D01*
X1374362Y1007023D01*
X1363912Y1010360D01*
X1363791Y1010406D01*
X1363789Y1010407D01*
X1363672Y1010459D01*
X1363557Y1010519D01*
X1361270Y1011862D01*
X1355861Y1015038D01*
X1355839Y1015051D01*
X1355809Y1015069D01*
X1355785Y1015085D01*
X1354362Y1016021D01*
X1354362Y1016021D01*
X1345731Y1020352D01*
X1345730Y1020352D01*
X1340063Y1021624D01*
X1334000Y1022007D01*
X1333559Y1022124D01*
X1333380Y1022212D01*
X1332800Y1022849D01*
X1332747Y1022990D01*
X1332672Y1023403D01*
X1332672Y1036014D01*
X1332761Y1036461D01*
X1332839Y1036650D01*
X1333431Y1037265D01*
X1333562Y1037326D01*
X1333961Y1037429D01*
X1340776Y1037949D01*
X1346803Y1039606D01*
X1355685Y1044862D01*
X1363313Y1049714D01*
X1363395Y1049761D01*
X1363485Y1049808D01*
X1363566Y1049847D01*
X1368705Y1052018D01*
X1368777Y1052045D01*
X1368856Y1052072D01*
X1368933Y1052096D01*
X1374353Y1053535D01*
X1374808Y1053564D01*
X1374985Y1053540D01*
G37*
%TD.AperFunction*%
%TD*%
%TA.AperFunction,Conductor*%
%TO.N,/VL_XSHUT*%
G36*
X1705812Y1356011D02*
G01*
X1706586Y1355561D01*
X1706681Y1355437D01*
X1706892Y1354982D01*
X1710171Y1340263D01*
X1711768Y1333091D01*
X1711796Y1332837D01*
X1711796Y1332585D01*
X1711768Y1332331D01*
X1706912Y1310529D01*
X1706728Y1310111D01*
X1706625Y1309965D01*
X1705870Y1309485D01*
X1705816Y1309475D01*
X1705741Y1309462D01*
X1705177Y1309502D01*
X1694671Y1312923D01*
X1694544Y1312973D01*
X1694421Y1313030D01*
X1694301Y1313094D01*
X1686615Y1317784D01*
X1686588Y1317801D01*
X1686557Y1317821D01*
X1686534Y1317836D01*
X1684828Y1319003D01*
X1684828Y1319003D01*
X1684827Y1319004D01*
X1684825Y1319005D01*
X1676353Y1323349D01*
X1676352Y1323349D01*
X1670824Y1324609D01*
X1670822Y1324609D01*
X1670761Y1324623D01*
X1670761Y1324623D01*
X1670760Y1324623D01*
X1670681Y1324628D01*
X1670681Y1324628D01*
X1664820Y1325005D01*
X1664379Y1325123D01*
X1664199Y1325211D01*
X1663621Y1325848D01*
X1663568Y1325988D01*
X1663493Y1326401D01*
X1663493Y1339011D01*
X1663582Y1339458D01*
X1663660Y1339646D01*
X1663660Y1339647D01*
X1664253Y1340262D01*
X1664386Y1340323D01*
X1664787Y1340426D01*
X1666463Y1340549D01*
X1671598Y1340927D01*
X1671599Y1340927D01*
X1671599Y1340927D01*
X1671601Y1340928D01*
X1675409Y1341937D01*
X1677637Y1342528D01*
X1677637Y1342528D01*
X1677637Y1342528D01*
X1677637Y1342528D01*
X1677692Y1342542D01*
X1677693Y1342543D01*
X1677977Y1342618D01*
X1678320Y1342916D01*
X1683535Y1345884D01*
X1686572Y1347612D01*
X1687996Y1348489D01*
X1693954Y1352162D01*
X1694030Y1352205D01*
X1694114Y1352248D01*
X1694194Y1352285D01*
X1699416Y1354467D01*
X1699484Y1354493D01*
X1699562Y1354519D01*
X1699633Y1354541D01*
X1705181Y1356007D01*
X1705635Y1356035D01*
X1705812Y1356011D01*
G37*
%TD.AperFunction*%
%TD*%
%TA.AperFunction,Conductor*%
%TO.N,/STM_RST*%
G36*
X1359757Y1714877D02*
G01*
X1359899Y1714813D01*
X1360251Y1714572D01*
X1369149Y1705674D01*
X1369403Y1705294D01*
X1369479Y1705109D01*
X1369493Y1704249D01*
X1369440Y1704109D01*
X1369225Y1703750D01*
X1361142Y1694544D01*
X1355930Y1685870D01*
X1355929Y1685869D01*
X1353133Y1677788D01*
X1353133Y1677787D01*
X1351570Y1670059D01*
X1351566Y1670053D01*
X1349589Y1660081D01*
X1349574Y1660015D01*
X1349557Y1659949D01*
X1349537Y1659883D01*
X1344090Y1643032D01*
X1343867Y1642633D01*
X1343752Y1642498D01*
X1342955Y1642090D01*
X1342799Y1642078D01*
X1342302Y1642146D01*
X1309669Y1654149D01*
X1309280Y1654387D01*
X1308974Y1654669D01*
X1308694Y1655064D01*
X1292822Y1691701D01*
X1292726Y1692147D01*
X1292723Y1692326D01*
X1293052Y1693157D01*
X1293151Y1693260D01*
X1293602Y1693549D01*
X1301567Y1696358D01*
X1301623Y1696376D01*
X1301691Y1696396D01*
X1301746Y1696410D01*
X1309741Y1698259D01*
X1309808Y1698273D01*
X1309883Y1698285D01*
X1309953Y1698294D01*
X1323556Y1699655D01*
X1335653Y1700974D01*
X1346340Y1705140D01*
X1352497Y1709373D01*
X1358315Y1714612D01*
X1358706Y1714845D01*
X1358892Y1714911D01*
X1359757Y1714877D01*
G37*
%TD.AperFunction*%
%TD*%
%TA.AperFunction,Conductor*%
%TO.N,1v8*%
G36*
X579141Y1183060D02*
G01*
X579279Y1182960D01*
X579599Y1182613D01*
X584549Y1174361D01*
X584575Y1174315D01*
X584600Y1174270D01*
X584625Y1174221D01*
X588053Y1167093D01*
X591805Y1159586D01*
X595890Y1153728D01*
X595891Y1153727D01*
X595896Y1153720D01*
X595908Y1153708D01*
X601566Y1147485D01*
X601802Y1147093D01*
X601867Y1146910D01*
X601836Y1146042D01*
X601773Y1145898D01*
X601530Y1145544D01*
X585462Y1129475D01*
X585082Y1129222D01*
X584901Y1129147D01*
X584035Y1129135D01*
X583890Y1129190D01*
X583527Y1129413D01*
X578390Y1134028D01*
X578389Y1134029D01*
X578388Y1134029D01*
X573179Y1137553D01*
X573179Y1137553D01*
X573179Y1137553D01*
X573118Y1137580D01*
X573097Y1137588D01*
X563801Y1141467D01*
X558798Y1143255D01*
X558719Y1143286D01*
X558642Y1143320D01*
X558566Y1143357D01*
X546738Y1149645D01*
X546385Y1149933D01*
X546271Y1150071D01*
X546009Y1150926D01*
X546022Y1151061D01*
X546206Y1151586D01*
X559086Y1171377D01*
X559247Y1171573D01*
X559428Y1171751D01*
X559629Y1171907D01*
X577667Y1183076D01*
X578094Y1183236D01*
X578270Y1183265D01*
X579141Y1183060D01*
G37*
%TD.AperFunction*%
%TD*%
%TA.AperFunction,Conductor*%
%TO.N,/Sen_SPI_MISO*%
G36*
X1384780Y962398D02*
G01*
X1384924Y962051D01*
X1385739Y958624D01*
X1385598Y957739D01*
X1385113Y957301D01*
X1358793Y944510D01*
X1358706Y944379D01*
X1358469Y944219D01*
X1358289Y943996D01*
X1358112Y943978D01*
X1357964Y943878D01*
X1357683Y943933D01*
X1357398Y943903D01*
X1357260Y944015D01*
X1357085Y944049D01*
X1356702Y944466D01*
X1356542Y944762D01*
X1356522Y944799D01*
X1353556Y950767D01*
X1353495Y951660D01*
X1354083Y952335D01*
X1354270Y952409D01*
X1372416Y957791D01*
X1381760Y961899D01*
X1383168Y962774D01*
X1384052Y962920D01*
X1384780Y962398D01*
G37*
%TD.AperFunction*%
%TD*%
%TA.AperFunction,Conductor*%
%TO.N,3v3*%
G36*
X1824087Y768808D02*
G01*
X1824290Y768611D01*
X1826546Y765817D01*
X1826800Y765189D01*
X1826984Y763196D01*
X1826902Y762931D01*
X1826906Y762654D01*
X1826775Y762520D01*
X1826719Y762341D01*
X1826280Y762013D01*
X1824524Y761261D01*
X1824008Y761168D01*
X1819306Y761391D01*
X1819093Y761421D01*
X1819071Y761427D01*
X1818345Y761950D01*
X1818201Y762834D01*
X1818409Y763273D01*
X1822448Y768585D01*
X1823221Y769036D01*
X1824087Y768808D01*
G37*
%TD.AperFunction*%
%TA.AperFunction,Conductor*%
G36*
X1787342Y797490D02*
G01*
X1787471Y797338D01*
X1788721Y795568D01*
X1788876Y795259D01*
X1789979Y791911D01*
X1790038Y791582D01*
X1790280Y783943D01*
X1790261Y783691D01*
X1788756Y775606D01*
X1788708Y775427D01*
X1788470Y774758D01*
X1787869Y774094D01*
X1786975Y774049D01*
X1786836Y774109D01*
X1783746Y775684D01*
X1783562Y775801D01*
X1773579Y783517D01*
X1773134Y784294D01*
X1773369Y785159D01*
X1773467Y785270D01*
X1785688Y797491D01*
X1786515Y797833D01*
X1787342Y797490D01*
G37*
%TD.AperFunction*%
%TD*%
%TA.AperFunction,Conductor*%
%TO.N,/Prog_Rx*%
G36*
X1576710Y1797802D02*
G01*
X1576993Y1797321D01*
X1581969Y1780741D01*
X1581970Y1780740D01*
X1587516Y1767437D01*
X1594215Y1754083D01*
X1594215Y1754082D01*
X1596085Y1750967D01*
X1596216Y1750081D01*
X1595683Y1749361D01*
X1594898Y1749209D01*
X1584098Y1750919D01*
X1562884Y1750948D01*
X1562883Y1750948D01*
X1561472Y1750762D01*
X1559263Y1750471D01*
X1558398Y1750702D01*
X1557950Y1751478D01*
X1557957Y1751828D01*
X1558343Y1754082D01*
X1563916Y1786645D01*
X1564252Y1787285D01*
X1575056Y1797823D01*
X1575887Y1798155D01*
X1576710Y1797802D01*
G37*
%TD.AperFunction*%
%TD*%
%TA.AperFunction,Conductor*%
%TO.N,/Sen_SPI_MOSI*%
G36*
X1189888Y927756D02*
G01*
X1211866Y922894D01*
X1212284Y922710D01*
X1212411Y922621D01*
X1212430Y922608D01*
X1212911Y921853D01*
X1212935Y921720D01*
X1212900Y921168D01*
X1209710Y910917D01*
X1209668Y910803D01*
X1209621Y910692D01*
X1209568Y910585D01*
X1205297Y902913D01*
X1205296Y902910D01*
X1200366Y893030D01*
X1200366Y893030D01*
X1200365Y893030D01*
X1200365Y893029D01*
X1199134Y887287D01*
X1199134Y887287D01*
X1198907Y883201D01*
X1198794Y882759D01*
X1198671Y882503D01*
X1198170Y881979D01*
X1198147Y881967D01*
X1198012Y881913D01*
X1198004Y881906D01*
X1197995Y881906D01*
X1197896Y881867D01*
X1182749Y877810D01*
X1182635Y877802D01*
X1182636Y877798D01*
X1182588Y877788D01*
X1182476Y877791D01*
X1182296Y877779D01*
X1182256Y877785D01*
X1182258Y877798D01*
X1182060Y877804D01*
X1182024Y877813D01*
X1182011Y877817D01*
X1182011Y877817D01*
X1181975Y877826D01*
X1181645Y878078D01*
X1181366Y878264D01*
X1181344Y878247D01*
X1181269Y878345D01*
X1181038Y878900D01*
X1180944Y879598D01*
X1180940Y879631D01*
X1180936Y879668D01*
X1180933Y879697D01*
X1180928Y879764D01*
X1180342Y887720D01*
X1178845Y893756D01*
X1178845Y893756D01*
X1178845Y893756D01*
X1178845Y893756D01*
X1174146Y902755D01*
X1172693Y905285D01*
X1170268Y909505D01*
X1170232Y909571D01*
X1170197Y909644D01*
X1170165Y909715D01*
X1169722Y910803D01*
X1169699Y910859D01*
X1167965Y915120D01*
X1167939Y915191D01*
X1167914Y915264D01*
X1167893Y915336D01*
X1166368Y921172D01*
X1166341Y921627D01*
X1166365Y921803D01*
X1166818Y922576D01*
X1166944Y922672D01*
X1167394Y922881D01*
X1189131Y927755D01*
X1189384Y927783D01*
X1189635Y927783D01*
X1189888Y927756D01*
G37*
%TD.AperFunction*%
%TD*%
%TA.AperFunction,Conductor*%
%TO.N,Net-(C15-K)*%
G36*
X595852Y983957D02*
G01*
X605556Y981385D01*
X605623Y981365D01*
X605690Y981343D01*
X605755Y981319D01*
X613360Y978283D01*
X621866Y975099D01*
X621917Y975076D01*
X621937Y975072D01*
X621937Y975072D01*
X626147Y974276D01*
X628549Y973821D01*
X635961Y973439D01*
X636217Y973426D01*
X636659Y973314D01*
X636699Y973295D01*
X636836Y973230D01*
X636999Y973053D01*
X637025Y973041D01*
X637034Y973016D01*
X637425Y972594D01*
X637481Y972449D01*
X637559Y972029D01*
X637559Y949249D01*
X637470Y948801D01*
X637389Y948606D01*
X636808Y947996D01*
X636687Y947939D01*
X636303Y947832D01*
X622978Y946510D01*
X622978Y946510D01*
X622975Y946509D01*
X613378Y943037D01*
X613367Y943033D01*
X613363Y943032D01*
X609858Y941543D01*
X609795Y941518D01*
X609732Y941496D01*
X609669Y941476D01*
X595894Y937411D01*
X595439Y937370D01*
X595262Y937389D01*
X594476Y937816D01*
X594386Y937927D01*
X594154Y938408D01*
X589283Y960277D01*
X589255Y960531D01*
X589255Y960782D01*
X589283Y961037D01*
X594155Y982909D01*
X594339Y983326D01*
X594441Y983472D01*
X595196Y983951D01*
X595350Y983978D01*
X595852Y983957D01*
G37*
%TD.AperFunction*%
%TD*%
%TA.AperFunction,Conductor*%
%TO.N,Net-(D1-A)*%
G36*
X962740Y594723D02*
G01*
X989078Y584149D01*
X989718Y583523D01*
X989728Y583499D01*
X1000312Y557135D01*
X1000302Y556239D01*
X999662Y555613D01*
X999609Y555593D01*
X989300Y552028D01*
X989182Y551994D01*
X980348Y549939D01*
X980330Y549935D01*
X976160Y549035D01*
X976159Y549035D01*
X966065Y545315D01*
X966064Y545314D01*
X960189Y541360D01*
X960189Y541360D01*
X954156Y535923D01*
X953312Y535624D01*
X952545Y535965D01*
X941537Y546974D01*
X941194Y547801D01*
X941488Y548576D01*
X947676Y555567D01*
X951765Y562173D01*
X954039Y568321D01*
X955515Y574761D01*
X956423Y578999D01*
X956451Y579106D01*
X961191Y593991D01*
X961768Y594676D01*
X962661Y594751D01*
X962740Y594723D01*
G37*
%TD.AperFunction*%
%TD*%
%TA.AperFunction,Conductor*%
%TO.N,/PAW_LED*%
G36*
X1279743Y1110007D02*
G01*
X1280537Y1109593D01*
X1280806Y1108739D01*
X1280550Y1108104D01*
X1257239Y1079352D01*
X1256452Y1078925D01*
X1255593Y1079180D01*
X1255546Y1079221D01*
X1254326Y1080327D01*
X1254325Y1080328D01*
X1254325Y1080328D01*
X1252932Y1081047D01*
X1251316Y1081882D01*
X1248374Y1082433D01*
X1244138Y1081855D01*
X1243272Y1082082D01*
X1242966Y1082429D01*
X1235088Y1096075D01*
X1234971Y1096963D01*
X1235516Y1097674D01*
X1235571Y1097703D01*
X1238605Y1099236D01*
X1242710Y1102446D01*
X1246997Y1105855D01*
X1247148Y1105957D01*
X1250933Y1108104D01*
X1257383Y1111765D01*
X1258063Y1111912D01*
X1279743Y1110007D01*
G37*
%TD.AperFunction*%
%TD*%
%TA.AperFunction,Conductor*%
%TO.N,3v3*%
G36*
X1755756Y849771D02*
G01*
X1756556Y849371D01*
X1756609Y849310D01*
X1756892Y848620D01*
X1757379Y841169D01*
X1757380Y841168D01*
X1757380Y841166D01*
X1760013Y833017D01*
X1760014Y833015D01*
X1760014Y833015D01*
X1764021Y825173D01*
X1764022Y825173D01*
X1764022Y825172D01*
X1771004Y815170D01*
X1771401Y814602D01*
X1775676Y809812D01*
X1777668Y807581D01*
X1777900Y807188D01*
X1777965Y807001D01*
X1777929Y806137D01*
X1777866Y805997D01*
X1777626Y805648D01*
X1765369Y793391D01*
X1764989Y793137D01*
X1764809Y793063D01*
X1763940Y793052D01*
X1763876Y793077D01*
X1763795Y793108D01*
X1763431Y793331D01*
X1756227Y799839D01*
X1756226Y799840D01*
X1741851Y809812D01*
X1741851Y809812D01*
X1741850Y809812D01*
X1741850Y809812D01*
X1737557Y811692D01*
X1729612Y815170D01*
X1729368Y815424D01*
X1719547Y816928D01*
X1719118Y817083D01*
X1718965Y817176D01*
X1718435Y817897D01*
X1718419Y817964D01*
X1718508Y818764D01*
X1729398Y840638D01*
X1729677Y840999D01*
X1730000Y841280D01*
X1730399Y841508D01*
X1755125Y849727D01*
X1755578Y849784D01*
X1755756Y849771D01*
G37*
%TD.AperFunction*%
%TD*%
%TA.AperFunction,Conductor*%
%TO.N,1v8*%
G36*
X727860Y1111741D02*
G01*
X728341Y1111609D01*
X735847Y1107682D01*
X736365Y1107411D01*
X758452Y1095855D01*
X758807Y1095569D01*
X758915Y1095439D01*
X759183Y1094585D01*
X758845Y1093861D01*
X758784Y1093801D01*
X758499Y1093591D01*
X728355Y1077820D01*
X727917Y1077691D01*
X727495Y1077654D01*
X727030Y1077706D01*
X716223Y1081201D01*
X716223Y1081201D01*
X716221Y1081201D01*
X716221Y1081201D01*
X709326Y1081883D01*
X708889Y1082016D01*
X708702Y1082116D01*
X708153Y1082754D01*
X708108Y1082880D01*
X708039Y1083274D01*
X708039Y1106071D01*
X708128Y1106518D01*
X708132Y1106527D01*
X708204Y1106701D01*
X708807Y1107321D01*
X708948Y1107384D01*
X709360Y1107484D01*
X711392Y1107597D01*
X712904Y1107680D01*
X712921Y1107681D01*
X712929Y1107682D01*
X712933Y1107682D01*
X712934Y1107682D01*
X712934Y1107682D01*
X712936Y1107682D01*
X712939Y1107683D01*
X712953Y1107686D01*
X719347Y1108987D01*
X727000Y1111697D01*
X727451Y1111762D01*
X727860Y1111741D01*
G37*
%TD.AperFunction*%
%TD*%
%TA.AperFunction,Conductor*%
%TO.N,/PAW_RST*%
G36*
X611775Y785607D02*
G01*
X611888Y785417D01*
X612576Y783966D01*
X612577Y783965D01*
X617775Y775709D01*
X617926Y774826D01*
X617408Y774095D01*
X617136Y773969D01*
X603075Y769540D01*
X603075Y769539D01*
X603075Y769539D01*
X593464Y765129D01*
X593464Y765129D01*
X593463Y765128D01*
X590332Y763229D01*
X589447Y763093D01*
X588725Y763622D01*
X588559Y764126D01*
X588351Y766484D01*
X588124Y769053D01*
X588393Y769907D01*
X588598Y770100D01*
X610140Y785861D01*
X611010Y786072D01*
X611775Y785607D01*
G37*
%TD.AperFunction*%
%TD*%
%TA.AperFunction,Conductor*%
%TO.N,/Sen_I2C_SDA*%
G36*
X1754339Y1027410D02*
G01*
X1754644Y1027293D01*
X1763285Y1022521D01*
X1763370Y1022469D01*
X1763450Y1022415D01*
X1763529Y1022357D01*
X1770506Y1016791D01*
X1776563Y1012093D01*
X1780301Y1010938D01*
X1781237Y1010649D01*
X1781638Y1010432D01*
X1781852Y1010254D01*
X1782241Y1009636D01*
X1782249Y1009602D01*
X1782265Y1009472D01*
X1782270Y1009463D01*
X1782267Y1009454D01*
X1782284Y1009319D01*
X1782284Y996174D01*
X1782195Y995726D01*
X1782087Y995467D01*
X1781612Y994914D01*
X1781585Y994897D01*
X1781334Y994784D01*
X1776394Y993214D01*
X1776372Y993201D01*
X1776337Y993170D01*
X1770496Y988612D01*
X1770485Y988603D01*
X1764632Y983848D01*
X1764555Y983791D01*
X1764475Y983736D01*
X1764394Y983685D01*
X1754708Y978170D01*
X1754275Y978026D01*
X1754027Y977995D01*
X1753266Y978160D01*
X1753198Y978202D01*
X1752943Y978416D01*
X1737243Y995941D01*
X1732038Y1001752D01*
X1731806Y1002144D01*
X1731735Y1002347D01*
X1731758Y1003183D01*
X1731807Y1003302D01*
X1732016Y1003634D01*
X1737109Y1009319D01*
X1752909Y1026957D01*
X1753273Y1027230D01*
X1753503Y1027340D01*
X1754269Y1027426D01*
X1754339Y1027410D01*
G37*
%TD.AperFunction*%
%TD*%
%TA.AperFunction,Conductor*%
%TO.N,GND*%
G36*
X1683688Y689079D02*
G01*
X1688897Y685559D01*
X1698281Y681654D01*
X1703437Y679818D01*
X1716695Y672774D01*
X1704688Y653312D01*
X1683226Y639305D01*
X1677419Y650433D01*
X1675009Y659194D01*
X1674698Y660594D01*
X1671550Y669852D01*
X1668393Y674804D01*
X1663421Y680437D01*
X1677563Y694579D01*
X1683688Y689079D01*
G37*
%TD.AperFunction*%
%TD*%
%TA.AperFunction,Conductor*%
%TO.N,/Sen_SPI_SCK*%
G36*
X1325352Y914222D02*
G01*
X1325450Y914128D01*
X1325748Y913662D01*
X1326466Y911563D01*
X1326490Y911495D01*
X1326490Y911492D01*
X1326491Y911492D01*
X1326623Y911100D01*
X1326623Y911100D01*
X1326624Y911100D01*
X1327310Y909071D01*
X1327310Y909071D01*
X1327310Y909071D01*
X1328653Y907865D01*
X1328686Y907835D01*
X1328960Y907469D01*
X1329133Y907108D01*
X1329247Y906603D01*
X1329247Y892929D01*
X1329158Y892481D01*
X1329022Y892151D01*
X1328617Y891644D01*
X1327582Y890912D01*
X1327582Y890911D01*
X1326490Y887928D01*
X1325761Y885797D01*
X1325532Y885402D01*
X1325414Y885269D01*
X1324610Y884875D01*
X1324610Y884874D01*
X1324610Y884874D01*
X1324475Y884866D01*
X1323930Y884963D01*
X1323235Y885269D01*
X1315507Y888672D01*
X1293084Y898546D01*
X1292710Y898808D01*
X1292615Y898907D01*
X1292457Y899314D01*
X1292290Y899716D01*
X1292295Y899729D01*
X1292291Y899742D01*
X1292633Y900543D01*
X1292716Y900627D01*
X1293071Y900870D01*
X1323895Y914443D01*
X1324340Y914542D01*
X1324518Y914546D01*
X1325352Y914222D01*
G37*
%TD.AperFunction*%
%TD*%
%TA.AperFunction,Conductor*%
%TO.N,1v8*%
G36*
X667221Y1844978D02*
G01*
X677973Y1841477D01*
X678219Y1841364D01*
X682861Y1838531D01*
X685979Y1836628D01*
X686030Y1836595D01*
X687180Y1835809D01*
X687752Y1835418D01*
X687752Y1835417D01*
X687753Y1835417D01*
X696226Y1831073D01*
X696226Y1831073D01*
X701817Y1829798D01*
X707991Y1829401D01*
X708794Y1829006D01*
X709086Y1828234D01*
X709086Y1815178D01*
X708743Y1814350D01*
X708001Y1814011D01*
X700980Y1813494D01*
X700980Y1813494D01*
X694942Y1811894D01*
X694941Y1811894D01*
X686006Y1806810D01*
X678587Y1802236D01*
X678424Y1802153D01*
X673132Y1799942D01*
X672980Y1799890D01*
X667173Y1798355D01*
X666286Y1798475D01*
X665743Y1799188D01*
X665732Y1799232D01*
X665082Y1802153D01*
X660782Y1821457D01*
X660782Y1821965D01*
X665717Y1844120D01*
X666231Y1844853D01*
X667113Y1845008D01*
X667221Y1844978D01*
G37*
%TD.AperFunction*%
%TD*%
%TA.AperFunction,Conductor*%
%TO.N,Net-(D2-A)*%
G36*
X957133Y1465945D02*
G01*
X957144Y1465936D01*
X962243Y1461827D01*
X970276Y1455571D01*
X975861Y1453026D01*
X977944Y1453164D01*
X978766Y1453675D01*
X979192Y1453836D01*
X979326Y1453858D01*
X979444Y1453878D01*
X980202Y1453747D01*
X980265Y1453712D01*
X980313Y1453676D01*
X980316Y1453675D01*
X980318Y1453672D01*
X980525Y1453516D01*
X991399Y1442642D01*
X991653Y1442263D01*
X991732Y1442072D01*
X991749Y1441221D01*
X991701Y1441089D01*
X991496Y1440737D01*
X984178Y1432073D01*
X972872Y1412535D01*
X960858Y1385292D01*
X960596Y1384919D01*
X960467Y1384795D01*
X959632Y1384472D01*
X959632Y1384472D01*
X959620Y1384472D01*
X959516Y1384474D01*
X958931Y1384647D01*
X947051Y1391940D01*
X937420Y1397852D01*
X937085Y1398162D01*
X936926Y1398381D01*
X936704Y1399091D01*
X936704Y1399137D01*
X936720Y1399243D01*
X936718Y1399252D01*
X936722Y1399259D01*
X936747Y1399429D01*
X945870Y1432073D01*
X955125Y1465194D01*
X955331Y1465601D01*
X955441Y1465741D01*
X956221Y1466180D01*
X956270Y1466186D01*
X957133Y1465945D01*
G37*
%TD.AperFunction*%
%TD*%
%TA.AperFunction,Conductor*%
%TO.N,/Prog_Tx*%
G36*
X1469003Y1759733D02*
G01*
X1469366Y1759511D01*
X1474893Y1754549D01*
X1475096Y1754367D01*
X1475096Y1754366D01*
X1480642Y1750963D01*
X1480643Y1750962D01*
X1480643Y1750962D01*
X1486119Y1749205D01*
X1486119Y1749205D01*
X1486120Y1749205D01*
X1491572Y1748291D01*
X1491572Y1748291D01*
X1494438Y1747811D01*
X1494438Y1747811D01*
X1501545Y1746620D01*
X1501972Y1746459D01*
X1502123Y1746364D01*
X1502643Y1745635D01*
X1502643Y1745635D01*
X1502676Y1745491D01*
X1502677Y1744969D01*
X1497349Y1721523D01*
X1497163Y1721106D01*
X1496920Y1720763D01*
X1496572Y1720439D01*
X1479478Y1710065D01*
X1479050Y1709909D01*
X1478874Y1709882D01*
X1478004Y1710094D01*
X1478003Y1710095D01*
X1477882Y1710183D01*
X1477544Y1710573D01*
X1472466Y1720013D01*
X1472419Y1720110D01*
X1472376Y1720212D01*
X1472339Y1720314D01*
X1472197Y1720763D01*
X1469713Y1728621D01*
X1469236Y1729949D01*
X1466106Y1738672D01*
X1466105Y1738673D01*
X1464762Y1740743D01*
X1462806Y1743758D01*
X1462805Y1743759D01*
X1458941Y1748113D01*
X1458490Y1748622D01*
X1458259Y1749015D01*
X1458195Y1749203D01*
X1458205Y1749444D01*
X1458197Y1749468D01*
X1458207Y1749489D01*
X1458233Y1750065D01*
X1458295Y1750204D01*
X1458535Y1750551D01*
X1467432Y1759448D01*
X1467811Y1759701D01*
X1467888Y1759733D01*
X1467993Y1759776D01*
X1468859Y1759788D01*
X1469003Y1759733D01*
G37*
%TD.AperFunction*%
%TD*%
%TA.AperFunction,Conductor*%
%TO.N,/VL_INTR_SWDIO*%
G36*
X1750402Y1262366D02*
G01*
X1750963Y1262243D01*
X1751697Y1261730D01*
X1751854Y1260848D01*
X1751823Y1260735D01*
X1748279Y1249958D01*
X1748161Y1249705D01*
X1743334Y1241946D01*
X1743300Y1241895D01*
X1742005Y1240038D01*
X1742004Y1240036D01*
X1737653Y1231638D01*
X1736377Y1226084D01*
X1735980Y1219970D01*
X1735585Y1219166D01*
X1734813Y1218875D01*
X1721758Y1218875D01*
X1720931Y1219218D01*
X1720591Y1219961D01*
X1720590Y1219970D01*
X1720084Y1226983D01*
X1718512Y1233028D01*
X1713516Y1241991D01*
X1709098Y1249276D01*
X1709018Y1249434D01*
X1708905Y1249705D01*
X1706803Y1254769D01*
X1706752Y1254919D01*
X1705204Y1260791D01*
X1705324Y1261679D01*
X1706037Y1262221D01*
X1706074Y1262230D01*
X1728035Y1267178D01*
X1728544Y1267179D01*
X1750402Y1262366D01*
G37*
%TD.AperFunction*%
%TD*%
%TA.AperFunction,Conductor*%
%TO.N,/Sen_SPI_SCK*%
G36*
X1358948Y887255D02*
G01*
X1382785Y886681D01*
X1386185Y887093D01*
X1386640Y887058D01*
X1386812Y887010D01*
X1387516Y886458D01*
X1387582Y886341D01*
X1387732Y885804D01*
X1387904Y880427D01*
X1387829Y879977D01*
X1387752Y879771D01*
X1387203Y879149D01*
X1387141Y879117D01*
X1387095Y879092D01*
X1386729Y878971D01*
X1358054Y874503D01*
X1357598Y874522D01*
X1357425Y874564D01*
X1356702Y875092D01*
X1356639Y875195D01*
X1356469Y875769D01*
X1356341Y880194D01*
X1356283Y882210D01*
X1355789Y886022D01*
X1355820Y886477D01*
X1355866Y886650D01*
X1355887Y886676D01*
X1356412Y887358D01*
X1356475Y887394D01*
X1357248Y887534D01*
X1358948Y887255D01*
G37*
%TD.AperFunction*%
%TD*%
%TA.AperFunction,Conductor*%
%TO.N,/PAW_LED*%
G36*
X1323943Y1111601D02*
G01*
X1331845Y1106789D01*
X1331932Y1106730D01*
X1333901Y1105273D01*
X1337498Y1103889D01*
X1338147Y1103272D01*
X1338247Y1102797D01*
X1338247Y1086699D01*
X1337905Y1085872D01*
X1337404Y1085576D01*
X1335111Y1084909D01*
X1335111Y1084909D01*
X1331920Y1082681D01*
X1331859Y1082641D01*
X1323944Y1077821D01*
X1323059Y1077684D01*
X1322793Y1077784D01*
X1309174Y1084909D01*
X1292421Y1093674D01*
X1291847Y1094361D01*
X1291926Y1095253D01*
X1292421Y1095747D01*
X1322793Y1111638D01*
X1323685Y1111718D01*
X1323943Y1111601D01*
G37*
%TD.AperFunction*%
%TD*%
%TA.AperFunction,Conductor*%
%TO.N,/STM_BOOT_SWCLK*%
G36*
X1261819Y1739838D02*
G01*
X1261961Y1739376D01*
X1262512Y1733223D01*
X1262512Y1733222D01*
X1264409Y1726621D01*
X1264309Y1725731D01*
X1263608Y1725173D01*
X1263360Y1725130D01*
X1238311Y1723514D01*
X1237463Y1723803D01*
X1237369Y1723895D01*
X1233569Y1728082D01*
X1233267Y1728925D01*
X1233650Y1729734D01*
X1234110Y1729992D01*
X1245202Y1733204D01*
X1255607Y1737739D01*
X1260229Y1740296D01*
X1261119Y1740396D01*
X1261819Y1739838D01*
G37*
%TD.AperFunction*%
%TD*%
%TA.AperFunction,Conductor*%
%TO.N,/STM_RST*%
G36*
X1352903Y1730530D02*
G01*
X1352962Y1730522D01*
X1353432Y1730350D01*
X1370823Y1719295D01*
X1372359Y1718318D01*
X1372559Y1718158D01*
X1372736Y1717980D01*
X1372896Y1717781D01*
X1384880Y1698930D01*
X1385045Y1698505D01*
X1385075Y1698329D01*
X1384881Y1697455D01*
X1384806Y1697348D01*
X1384378Y1696977D01*
X1374531Y1691968D01*
X1374407Y1691914D01*
X1374280Y1691867D01*
X1374149Y1691827D01*
X1365392Y1689707D01*
X1365361Y1689700D01*
X1365333Y1689694D01*
X1365303Y1689688D01*
X1363270Y1689307D01*
X1363270Y1689307D01*
X1363270Y1689307D01*
X1363269Y1689306D01*
X1363268Y1689306D01*
X1363266Y1689306D01*
X1354206Y1686387D01*
X1354206Y1686387D01*
X1354205Y1686387D01*
X1354205Y1686386D01*
X1349350Y1683334D01*
X1344879Y1679403D01*
X1344484Y1679175D01*
X1344295Y1679110D01*
X1343435Y1679152D01*
X1343299Y1679213D01*
X1342954Y1679452D01*
X1334037Y1688369D01*
X1333783Y1688748D01*
X1333706Y1688936D01*
X1333690Y1689791D01*
X1333741Y1689927D01*
X1333951Y1690284D01*
X1338414Y1695455D01*
X1341552Y1700857D01*
X1344275Y1710770D01*
X1346277Y1719207D01*
X1346301Y1719293D01*
X1346330Y1719382D01*
X1346361Y1719466D01*
X1346671Y1720223D01*
X1348508Y1724696D01*
X1348539Y1724765D01*
X1348577Y1724840D01*
X1348611Y1724905D01*
X1351497Y1729864D01*
X1351799Y1730206D01*
X1351941Y1730314D01*
X1352806Y1730543D01*
X1352903Y1730530D01*
G37*
%TD.AperFunction*%
%TD*%
%TA.AperFunction,Conductor*%
%TO.N,/PAW_INTR*%
G36*
X1324391Y777371D02*
G01*
X1324832Y777258D01*
X1325066Y777146D01*
X1325610Y776610D01*
X1325639Y776551D01*
X1325740Y776250D01*
X1327026Y769453D01*
X1331131Y762200D01*
X1331159Y762141D01*
X1339347Y753126D01*
X1342013Y750190D01*
X1343091Y749133D01*
X1343348Y748755D01*
X1343418Y748592D01*
X1343426Y747696D01*
X1343426Y747696D01*
X1343426Y747696D01*
X1343426Y747696D01*
X1343362Y747536D01*
X1343104Y747146D01*
X1330957Y735000D01*
X1330578Y734747D01*
X1330414Y734678D01*
X1330413Y734678D01*
X1330413Y734678D01*
X1330413Y734678D01*
X1329966Y734678D01*
X1329518Y734678D01*
X1329456Y734704D01*
X1329358Y734744D01*
X1328971Y735006D01*
X1327940Y736057D01*
X1327940Y736057D01*
X1327939Y736058D01*
X1317605Y745669D01*
X1308863Y750841D01*
X1306391Y751279D01*
X1306391Y751280D01*
X1302273Y752010D01*
X1301847Y752176D01*
X1301629Y752315D01*
X1301155Y752912D01*
X1301134Y752973D01*
X1301119Y753045D01*
X1301116Y753049D01*
X1301117Y753055D01*
X1301070Y753285D01*
X1299496Y777159D01*
X1299555Y777611D01*
X1299612Y777780D01*
X1300202Y778453D01*
X1300312Y778507D01*
X1300891Y778626D01*
X1324391Y777371D01*
G37*
%TD.AperFunction*%
%TD*%
%TA.AperFunction,Conductor*%
%TO.N,/PAW_INTR*%
G36*
X1337287Y754926D02*
G01*
X1337648Y754708D01*
X1340064Y752571D01*
X1342753Y750192D01*
X1342754Y750191D01*
X1342780Y750168D01*
X1342792Y750160D01*
X1342814Y750146D01*
X1342830Y750136D01*
X1348051Y746800D01*
X1357613Y743349D01*
X1364042Y741364D01*
X1364136Y741331D01*
X1364235Y741290D01*
X1364328Y741247D01*
X1375455Y735470D01*
X1375812Y735184D01*
X1375926Y735048D01*
X1376196Y734195D01*
X1376185Y734061D01*
X1376007Y733534D01*
X1363996Y714641D01*
X1363836Y714441D01*
X1363659Y714264D01*
X1363459Y714104D01*
X1344581Y702103D01*
X1344155Y701938D01*
X1343980Y701907D01*
X1343106Y702102D01*
X1342990Y702183D01*
X1342633Y702584D01*
X1337559Y711953D01*
X1337514Y712047D01*
X1337471Y712146D01*
X1337435Y712241D01*
X1334752Y720486D01*
X1331119Y730389D01*
X1331116Y730398D01*
X1331115Y730398D01*
X1331115Y730400D01*
X1331115Y730400D01*
X1331115Y730400D01*
X1328910Y733785D01*
X1327780Y735519D01*
X1327780Y735519D01*
X1323408Y740439D01*
X1323178Y740832D01*
X1323112Y741020D01*
X1323151Y741882D01*
X1323213Y742021D01*
X1323453Y742369D01*
X1335721Y754637D01*
X1336100Y754890D01*
X1336284Y754966D01*
X1337146Y754979D01*
X1337287Y754926D01*
G37*
%TD.AperFunction*%
%TD*%
%TA.AperFunction,Conductor*%
%TO.N,/Sen_SPI_MISO*%
G36*
X1325389Y974254D02*
G01*
X1325444Y974206D01*
X1325830Y973521D01*
X1326011Y972464D01*
X1327304Y970272D01*
X1330747Y967696D01*
X1335082Y966198D01*
X1341765Y965470D01*
X1342200Y965333D01*
X1342389Y965229D01*
X1342930Y964592D01*
X1342973Y964471D01*
X1343039Y964082D01*
X1343039Y951555D01*
X1342950Y951107D01*
X1342882Y950943D01*
X1342882Y950942D01*
X1342882Y950942D01*
X1342825Y950886D01*
X1342249Y950309D01*
X1342248Y950309D01*
X1342109Y950252D01*
X1341602Y950164D01*
X1339871Y950253D01*
X1339753Y950259D01*
X1338817Y950307D01*
X1338817Y950307D01*
X1331459Y950622D01*
X1331458Y950622D01*
X1331458Y950622D01*
X1331458Y950622D01*
X1331457Y950622D01*
X1326399Y949903D01*
X1326399Y949903D01*
X1324713Y949664D01*
X1322718Y947833D01*
X1322327Y947596D01*
X1322020Y947484D01*
X1321250Y947473D01*
X1312887Y950252D01*
X1293349Y956744D01*
X1292952Y956969D01*
X1292857Y957052D01*
X1292455Y957852D01*
X1292737Y958702D01*
X1292820Y958797D01*
X1293181Y959078D01*
X1323923Y974405D01*
X1324363Y974525D01*
X1324541Y974537D01*
X1325389Y974254D01*
G37*
%TD.AperFunction*%
%TD*%
%TA.AperFunction,Conductor*%
%TO.N,/PAW_RST*%
G36*
X728252Y786655D02*
G01*
X757323Y771446D01*
X758658Y770747D01*
X759232Y770060D01*
X759152Y769168D01*
X758658Y768674D01*
X728253Y752766D01*
X727361Y752686D01*
X727152Y752775D01*
X717132Y758218D01*
X717080Y758248D01*
X713599Y760378D01*
X708865Y761836D01*
X708175Y762407D01*
X708039Y762954D01*
X708039Y776419D01*
X708382Y777247D01*
X708923Y777554D01*
X711000Y778078D01*
X712420Y778437D01*
X715252Y780100D01*
X717090Y781180D01*
X717121Y781197D01*
X727152Y786647D01*
X728042Y786740D01*
X728252Y786655D01*
G37*
%TD.AperFunction*%
%TD*%
%TA.AperFunction,Conductor*%
%TO.N,/Prog_Rx*%
G36*
X1606990Y1738453D02*
G01*
X1613870Y1734903D01*
X1619021Y1732245D01*
X1628999Y1728591D01*
X1628999Y1728591D01*
X1629000Y1728591D01*
X1633055Y1727597D01*
X1633777Y1727067D01*
X1633913Y1726182D01*
X1633650Y1725683D01*
X1630120Y1721713D01*
X1629314Y1721323D01*
X1629140Y1721325D01*
X1603850Y1723610D01*
X1603057Y1724026D01*
X1602790Y1724881D01*
X1602826Y1725082D01*
X1604324Y1730571D01*
X1605295Y1737574D01*
X1605748Y1738346D01*
X1606614Y1738572D01*
X1606990Y1738453D01*
G37*
%TD.AperFunction*%
%TD*%
%TA.AperFunction,Conductor*%
%TO.N,/VL_INTR_SWDIO*%
G36*
X1735629Y1213362D02*
G01*
X1735970Y1212599D01*
X1736072Y1210719D01*
X1738657Y1201672D01*
X1744417Y1193857D01*
X1748568Y1190586D01*
X1752401Y1188506D01*
X1752965Y1187811D01*
X1752872Y1186920D01*
X1752665Y1186645D01*
X1729124Y1163428D01*
X1728294Y1163091D01*
X1727469Y1163439D01*
X1727468Y1163441D01*
X1706751Y1184511D01*
X1706416Y1185341D01*
X1706539Y1185854D01*
X1710562Y1193914D01*
X1710621Y1194018D01*
X1714953Y1200808D01*
X1714954Y1200810D01*
X1714957Y1200815D01*
X1718907Y1207199D01*
X1718908Y1207200D01*
X1719860Y1210719D01*
X1720435Y1212841D01*
X1720982Y1213550D01*
X1721565Y1213705D01*
X1734801Y1213705D01*
X1735629Y1213362D01*
G37*
%TD.AperFunction*%
%TD*%
%TA.AperFunction,Conductor*%
%TO.N,/Sen_SPI_MOSI*%
G36*
X1258402Y851577D02*
G01*
X1275371Y842699D01*
X1288452Y835855D01*
X1288807Y835569D01*
X1288915Y835439D01*
X1289035Y835058D01*
X1289188Y834689D01*
X1289167Y834638D01*
X1289183Y834585D01*
X1288845Y833861D01*
X1288784Y833801D01*
X1288499Y833591D01*
X1258468Y817879D01*
X1258030Y817751D01*
X1257687Y817720D01*
X1257009Y817865D01*
X1248739Y822513D01*
X1248705Y822533D01*
X1248674Y822551D01*
X1248642Y822571D01*
X1246268Y824121D01*
X1246249Y824133D01*
X1246245Y824136D01*
X1246245Y824136D01*
X1246244Y824136D01*
X1246244Y824136D01*
X1246243Y824136D01*
X1242342Y825474D01*
X1241947Y825704D01*
X1241731Y825894D01*
X1241365Y826512D01*
X1241360Y826531D01*
X1241343Y826689D01*
X1241338Y826699D01*
X1241341Y826707D01*
X1241331Y826790D01*
X1241331Y842466D01*
X1241420Y842914D01*
X1241521Y843158D01*
X1242020Y843725D01*
X1242069Y843754D01*
X1242353Y843870D01*
X1244910Y844543D01*
X1248666Y846866D01*
X1248687Y846879D01*
X1248702Y846888D01*
X1248716Y846896D01*
X1256944Y851520D01*
X1257378Y851661D01*
X1257720Y851702D01*
X1258402Y851577D01*
G37*
%TD.AperFunction*%
%TD*%
%TA.AperFunction,Conductor*%
%TO.N,1v8*%
G36*
X1183325Y1819474D02*
G01*
X1183554Y1819442D01*
X1184324Y1818985D01*
X1184326Y1818983D01*
X1190188Y1811116D01*
X1190384Y1810705D01*
X1190428Y1810532D01*
X1190298Y1809646D01*
X1190298Y1809645D01*
X1190272Y1809601D01*
X1189554Y1809066D01*
X1189552Y1809065D01*
X1143428Y1797484D01*
X1141821Y1794320D01*
X1141698Y1794126D01*
X1141653Y1794069D01*
X1141583Y1794030D01*
X1141530Y1793973D01*
X1141540Y1793962D01*
X1141516Y1793941D01*
X1141509Y1793949D01*
X1141403Y1793833D01*
X1141335Y1793786D01*
X1141334Y1793785D01*
X1141318Y1793771D01*
X1141315Y1793770D01*
X1141312Y1793768D01*
X1141312Y1793769D01*
X1141260Y1793752D01*
X1141227Y1793701D01*
X1140842Y1793617D01*
X1140466Y1793495D01*
X1140353Y1793509D01*
X1140198Y1793537D01*
X1139547Y1793892D01*
X1139532Y1793908D01*
X1139515Y1793926D01*
X1139452Y1794014D01*
X1139444Y1794019D01*
X1139442Y1794028D01*
X1139341Y1794169D01*
X1137948Y1796761D01*
X1137903Y1796857D01*
X1137859Y1796961D01*
X1137822Y1797062D01*
X1137688Y1797484D01*
X1136103Y1802505D01*
X1136102Y1802507D01*
X1133336Y1811149D01*
X1132606Y1812789D01*
X1132506Y1813234D01*
X1132501Y1813413D01*
X1132821Y1814246D01*
X1132822Y1814248D01*
X1132858Y1814285D01*
X1133669Y1814650D01*
X1144898Y1815015D01*
X1182340Y1819343D01*
X1182341Y1819343D01*
X1182341Y1819343D01*
X1182341Y1819343D01*
X1182341Y1819343D01*
X1182798Y1819460D01*
X1183253Y1819485D01*
X1183325Y1819474D01*
G37*
%TD.AperFunction*%
%TD*%
%TA.AperFunction,Conductor*%
%TO.N,/VL_INTR_SWDIO*%
G36*
X1472237Y1661627D02*
G01*
X1472410Y1661579D01*
X1472410Y1661579D01*
X1472410Y1661579D01*
X1472410Y1661579D01*
X1472707Y1661347D01*
X1473115Y1661028D01*
X1473116Y1661027D01*
X1473178Y1660916D01*
X1473329Y1660362D01*
X1473465Y1652897D01*
X1473462Y1652790D01*
X1473454Y1652684D01*
X1473441Y1652577D01*
X1472282Y1645602D01*
X1472279Y1645586D01*
X1471450Y1640984D01*
X1472010Y1634156D01*
X1473028Y1632160D01*
X1473028Y1632160D01*
X1474006Y1630244D01*
X1474017Y1630229D01*
X1474037Y1630207D01*
X1476852Y1626875D01*
X1477073Y1626476D01*
X1477136Y1626279D01*
X1477082Y1625431D01*
X1477023Y1625304D01*
X1476789Y1624969D01*
X1466030Y1614210D01*
X1465651Y1613956D01*
X1465452Y1613874D01*
X1464616Y1613852D01*
X1464494Y1613894D01*
X1464150Y1614086D01*
X1459735Y1617631D01*
X1459712Y1617652D01*
X1459685Y1617671D01*
X1459685Y1617671D01*
X1459685Y1617671D01*
X1459685Y1617671D01*
X1454881Y1619496D01*
X1454881Y1619497D01*
X1454880Y1619497D01*
X1450748Y1619571D01*
X1450670Y1619572D01*
X1450670Y1619572D01*
X1450269Y1619580D01*
X1450269Y1619580D01*
X1450269Y1619580D01*
X1450268Y1619580D01*
X1450268Y1619580D01*
X1445405Y1618720D01*
X1445395Y1618718D01*
X1443879Y1618439D01*
X1443879Y1618439D01*
X1440398Y1617798D01*
X1440296Y1617784D01*
X1440195Y1617775D01*
X1440092Y1617770D01*
X1430717Y1617708D01*
X1430269Y1617794D01*
X1430104Y1617861D01*
X1429466Y1618490D01*
X1429420Y1618598D01*
X1429337Y1619196D01*
X1429374Y1619496D01*
X1429374Y1619497D01*
X1432012Y1640984D01*
X1433841Y1655881D01*
X1433984Y1656315D01*
X1434112Y1656541D01*
X1434682Y1657046D01*
X1434741Y1657070D01*
X1434813Y1657089D01*
X1434817Y1657092D01*
X1434823Y1657092D01*
X1435045Y1657150D01*
X1471783Y1661660D01*
X1472237Y1661627D01*
G37*
%TD.AperFunction*%
%TD*%
%TA.AperFunction,Conductor*%
%TO.N,/Sen_SPI_NSS*%
G36*
X1324068Y1046570D02*
G01*
X1333933Y1041211D01*
X1333961Y1041195D01*
X1333988Y1041179D01*
X1334011Y1041165D01*
X1337479Y1039044D01*
X1341992Y1037653D01*
X1342393Y1037437D01*
X1342607Y1037260D01*
X1342996Y1036642D01*
X1343004Y1036607D01*
X1343020Y1036478D01*
X1343026Y1036468D01*
X1343023Y1036459D01*
X1343039Y1036324D01*
X1343039Y1023235D01*
X1342950Y1022787D01*
X1342850Y1022546D01*
X1342348Y1021977D01*
X1342294Y1021946D01*
X1342002Y1021829D01*
X1338658Y1020985D01*
X1338658Y1020985D01*
X1333998Y1018247D01*
X1333980Y1018237D01*
X1333964Y1018228D01*
X1333948Y1018219D01*
X1324131Y1012886D01*
X1323696Y1012751D01*
X1323348Y1012714D01*
X1322683Y1012841D01*
X1307118Y1020985D01*
X1292627Y1028566D01*
X1292272Y1028852D01*
X1292163Y1028983D01*
X1291895Y1029837D01*
X1292233Y1030559D01*
X1292294Y1030620D01*
X1292578Y1030830D01*
X1322620Y1046548D01*
X1323058Y1046676D01*
X1323405Y1046707D01*
X1324068Y1046570D01*
G37*
%TD.AperFunction*%
%TD*%
%TA.AperFunction,Conductor*%
%TO.N,/FC_I2C_SCL*%
G36*
X619648Y1332169D02*
G01*
X619787Y1331850D01*
X620641Y1328665D01*
X620524Y1327777D01*
X619999Y1327299D01*
X593411Y1315091D01*
X593411Y1315091D01*
X593400Y1314985D01*
X592976Y1314197D01*
X592118Y1313939D01*
X591330Y1314363D01*
X591180Y1314598D01*
X590608Y1315796D01*
X590608Y1315796D01*
X590607Y1315797D01*
X587950Y1320505D01*
X587842Y1321394D01*
X588394Y1322099D01*
X588639Y1322203D01*
X607619Y1327773D01*
X616893Y1331822D01*
X618036Y1332539D01*
X618919Y1332688D01*
X619648Y1332169D01*
G37*
%TD.AperFunction*%
%TD*%
%TA.AperFunction,Conductor*%
%TO.N,3v3*%
G36*
X1461012Y792727D02*
G01*
X1461152Y792665D01*
X1461499Y792425D01*
X1473992Y779932D01*
X1474246Y779553D01*
X1474322Y779369D01*
X1474335Y778506D01*
X1474281Y778364D01*
X1474063Y778004D01*
X1469520Y772874D01*
X1466138Y767606D01*
X1462652Y758067D01*
X1462648Y758056D01*
X1460676Y751744D01*
X1460641Y751647D01*
X1460601Y751551D01*
X1460558Y751458D01*
X1454744Y740279D01*
X1454458Y739923D01*
X1454321Y739808D01*
X1453468Y739539D01*
X1453334Y739550D01*
X1452808Y739729D01*
X1451943Y740279D01*
X1433884Y751769D01*
X1433684Y751929D01*
X1433507Y752106D01*
X1433347Y752306D01*
X1421374Y771157D01*
X1421209Y771582D01*
X1421178Y771758D01*
X1421373Y772632D01*
X1421455Y772749D01*
X1421853Y773104D01*
X1431179Y778182D01*
X1431269Y778225D01*
X1431366Y778267D01*
X1431458Y778303D01*
X1439655Y781031D01*
X1449458Y784689D01*
X1454603Y788052D01*
X1459569Y792469D01*
X1459962Y792700D01*
X1460150Y792765D01*
X1461012Y792727D01*
G37*
%TD.AperFunction*%
%TD*%
%TA.AperFunction,Conductor*%
%TO.N,/PAW_LED*%
G36*
X1194763Y1081697D02*
G01*
X1194864Y1081645D01*
X1195322Y1081226D01*
X1199698Y1074261D01*
X1199857Y1073853D01*
X1199860Y1073840D01*
X1199875Y1073748D01*
X1199878Y1073741D01*
X1199890Y1073675D01*
X1199809Y1073289D01*
X1199766Y1072898D01*
X1199717Y1072859D01*
X1199705Y1072799D01*
X1199378Y1072586D01*
X1199069Y1072338D01*
X1198997Y1072317D01*
X1198954Y1072311D01*
X1198954Y1072310D01*
X1198954Y1072311D01*
X1198680Y1072270D01*
X1197326Y1072257D01*
X1197153Y1072268D01*
X1197091Y1072277D01*
X1196982Y1072292D01*
X1196813Y1072329D01*
X1191375Y1073936D01*
X1191105Y1074054D01*
X1190857Y1074202D01*
X1190625Y1074385D01*
X1190492Y1074520D01*
X1190485Y1074527D01*
X1190106Y1074912D01*
X1189900Y1075196D01*
X1189745Y1075498D01*
X1189633Y1075830D01*
X1189563Y1076224D01*
X1189560Y1076612D01*
X1189562Y1076618D01*
X1189619Y1076979D01*
X1189744Y1077347D01*
X1190687Y1079102D01*
X1190806Y1079281D01*
X1190941Y1079448D01*
X1191091Y1079602D01*
X1193303Y1081490D01*
X1193701Y1081712D01*
X1193871Y1081767D01*
X1194763Y1081697D01*
G37*
%TD.AperFunction*%
%TA.AperFunction,Conductor*%
G36*
X1241750Y1100164D02*
G01*
X1241820Y1100154D01*
X1242595Y1099707D01*
X1242596Y1099707D01*
X1242704Y1099565D01*
X1242906Y1099156D01*
X1246702Y1084986D01*
X1246732Y1084530D01*
X1246698Y1084270D01*
X1246361Y1083592D01*
X1246319Y1083550D01*
X1246253Y1083500D01*
X1246250Y1083495D01*
X1246244Y1083493D01*
X1246069Y1083361D01*
X1239854Y1079865D01*
X1239779Y1079827D01*
X1239704Y1079791D01*
X1239626Y1079758D01*
X1231532Y1076640D01*
X1231471Y1076618D01*
X1231428Y1076604D01*
X1231409Y1076598D01*
X1231345Y1076579D01*
X1229967Y1076220D01*
X1229511Y1076194D01*
X1229335Y1076218D01*
X1228563Y1076671D01*
X1228524Y1076722D01*
X1228290Y1077513D01*
X1228708Y1083250D01*
X1228728Y1083396D01*
X1228758Y1083543D01*
X1228797Y1083685D01*
X1231824Y1092560D01*
X1231916Y1092763D01*
X1232027Y1092956D01*
X1232156Y1093137D01*
X1236461Y1098118D01*
X1236641Y1098286D01*
X1236836Y1098433D01*
X1237046Y1098560D01*
X1239346Y1099628D01*
X1239437Y1099665D01*
X1239533Y1099700D01*
X1239626Y1099730D01*
X1241188Y1100148D01*
X1241643Y1100178D01*
X1241750Y1100164D01*
G37*
%TD.AperFunction*%
%TD*%
%TA.AperFunction,Conductor*%
%TO.N,/VL_INTR_SWDIO*%
G36*
X1494912Y1379737D02*
G01*
X1495252Y1378988D01*
X1495724Y1371960D01*
X1497188Y1365888D01*
X1501863Y1356818D01*
X1505703Y1350076D01*
X1505771Y1349937D01*
X1508002Y1344434D01*
X1508050Y1344290D01*
X1509649Y1338165D01*
X1509526Y1337278D01*
X1508812Y1336737D01*
X1508771Y1336727D01*
X1486544Y1331777D01*
X1486035Y1331777D01*
X1463863Y1336715D01*
X1463130Y1337229D01*
X1462975Y1338111D01*
X1463000Y1338204D01*
X1466293Y1348808D01*
X1466387Y1349028D01*
X1466892Y1349937D01*
X1470715Y1356817D01*
X1475665Y1366719D01*
X1476932Y1372502D01*
X1477332Y1378982D01*
X1477725Y1379787D01*
X1478499Y1380080D01*
X1494085Y1380080D01*
X1494912Y1379737D01*
G37*
%TD.AperFunction*%
%TD*%
%TA.AperFunction,Conductor*%
%TO.N,Net-(D1-A)*%
G36*
X976088Y581609D02*
G01*
X987112Y570585D01*
X987455Y569758D01*
X987127Y568946D01*
X986501Y568296D01*
X986500Y568295D01*
X986500Y568295D01*
X977125Y555582D01*
X974998Y552697D01*
X974998Y552696D01*
X966309Y535087D01*
X966308Y535086D01*
X961862Y519264D01*
X961349Y507565D01*
X960970Y506753D01*
X960128Y506447D01*
X959961Y506467D01*
X920488Y513993D01*
X919740Y514485D01*
X919561Y514907D01*
X918667Y519264D01*
X911570Y553853D01*
X911740Y554732D01*
X912481Y555234D01*
X912677Y555257D01*
X922353Y555582D01*
X931982Y557635D01*
X941569Y560940D01*
X952107Y565864D01*
X961706Y571537D01*
X974535Y581699D01*
X975396Y581944D01*
X976088Y581609D01*
G37*
%TD.AperFunction*%
%TD*%
%TA.AperFunction,Conductor*%
%TO.N,/VL_XSHUT*%
G36*
X1561750Y1213362D02*
G01*
X1562076Y1212733D01*
X1563552Y1204135D01*
X1563552Y1204134D01*
X1567774Y1195239D01*
X1567774Y1195239D01*
X1567774Y1195239D01*
X1573211Y1190003D01*
X1577850Y1188735D01*
X1578558Y1188187D01*
X1578670Y1187298D01*
X1578370Y1186781D01*
X1555529Y1163850D01*
X1554702Y1163505D01*
X1553874Y1163847D01*
X1553619Y1164229D01*
X1546004Y1182666D01*
X1546005Y1183562D01*
X1546061Y1183678D01*
X1547416Y1186137D01*
X1547931Y1191523D01*
X1547733Y1195239D01*
X1547202Y1205196D01*
X1546747Y1212462D01*
X1547037Y1213309D01*
X1547842Y1213703D01*
X1547915Y1213705D01*
X1560923Y1213705D01*
X1561750Y1213362D01*
G37*
%TD.AperFunction*%
%TD*%
%TA.AperFunction,Conductor*%
%TO.N,/FC_I2C_SCL*%
G36*
X341778Y399244D02*
G01*
X341780Y399242D01*
X363485Y377426D01*
X363485Y377426D01*
X363485Y377426D01*
X365538Y376839D01*
X367481Y378014D01*
X371625Y384036D01*
X373325Y386823D01*
X373392Y386921D01*
X378786Y393981D01*
X379561Y394430D01*
X380426Y394200D01*
X380734Y393847D01*
X417769Y328412D01*
X417878Y327523D01*
X417327Y326817D01*
X416981Y326688D01*
X375448Y318346D01*
X374569Y318519D01*
X374110Y319114D01*
X371478Y326817D01*
X366588Y341126D01*
X366576Y341162D01*
X364626Y347579D01*
X360078Y358663D01*
X360077Y358664D01*
X360077Y358664D01*
X354396Y365193D01*
X354396Y365193D01*
X353584Y365893D01*
X353522Y365952D01*
X342048Y377426D01*
X331004Y388470D01*
X330661Y389297D01*
X331004Y390124D01*
X340124Y399244D01*
X340951Y399586D01*
X341778Y399244D01*
G37*
%TD.AperFunction*%
%TD*%
%TA.AperFunction,Conductor*%
%TO.N,/PAW_LED*%
G36*
X1108001Y549947D02*
G01*
X1108464Y549647D01*
X1111050Y546919D01*
X1114798Y543448D01*
X1118902Y539648D01*
X1118902Y539648D01*
X1126007Y533068D01*
X1126008Y533067D01*
X1126008Y533067D01*
X1136757Y526582D01*
X1145130Y524842D01*
X1145549Y524664D01*
X1145754Y524524D01*
X1146217Y523892D01*
X1146240Y523813D01*
X1146289Y523478D01*
X1146289Y508102D01*
X1146200Y507654D01*
X1146118Y507455D01*
X1145543Y506848D01*
X1145427Y506792D01*
X1145049Y506684D01*
X1140095Y506140D01*
X1127755Y501969D01*
X1118512Y495803D01*
X1118509Y495798D01*
X1113247Y488879D01*
X1113247Y488879D01*
X1113118Y488709D01*
X1113118Y488709D01*
X1113118Y488708D01*
X1113063Y488468D01*
X1113063Y488467D01*
X1111882Y483302D01*
X1111882Y483302D01*
X1111812Y482997D01*
X1111626Y482581D01*
X1111522Y482435D01*
X1111516Y482431D01*
X1111514Y482424D01*
X1111139Y482195D01*
X1110764Y481959D01*
X1110756Y481958D01*
X1110751Y481957D01*
X1110749Y481956D01*
X1110000Y482088D01*
X1109937Y482123D01*
X1109881Y482165D01*
X1109878Y482166D01*
X1109876Y482169D01*
X1109677Y482319D01*
X1077138Y514764D01*
X1076884Y515144D01*
X1076809Y515325D01*
X1076795Y516190D01*
X1076850Y516335D01*
X1077071Y516697D01*
X1106454Y549589D01*
X1106818Y549864D01*
X1106979Y549941D01*
X1107873Y549991D01*
X1107873Y549991D01*
X1108001Y549947D01*
G37*
%TD.AperFunction*%
%TD*%
%TA.AperFunction,Conductor*%
%TO.N,3v3*%
G36*
X1139154Y1656875D02*
G01*
X1139408Y1656812D01*
X1140129Y1656281D01*
X1140263Y1655955D01*
X1141215Y1652061D01*
X1141215Y1652061D01*
X1160650Y1644759D01*
X1186265Y1635134D01*
X1186918Y1634523D01*
X1186948Y1633628D01*
X1186936Y1633596D01*
X1184065Y1626582D01*
X1183434Y1625947D01*
X1182577Y1625928D01*
X1164970Y1632421D01*
X1164970Y1632421D01*
X1164970Y1632421D01*
X1157278Y1634489D01*
X1149361Y1636617D01*
X1149359Y1636617D01*
X1137479Y1639034D01*
X1132813Y1639984D01*
X1132812Y1639984D01*
X1132811Y1639984D01*
X1129182Y1640477D01*
X1128408Y1640928D01*
X1128180Y1641793D01*
X1128397Y1642330D01*
X1130188Y1644757D01*
X1132992Y1649399D01*
X1133036Y1649466D01*
X1134859Y1652061D01*
X1137915Y1656412D01*
X1138671Y1656892D01*
X1139154Y1656875D01*
G37*
%TD.AperFunction*%
%TD*%
%TA.AperFunction,Conductor*%
%TO.N,GND*%
G36*
X1899751Y1984938D02*
G01*
X1900221Y1984915D01*
X1900241Y1984914D01*
X1900243Y1984914D01*
X1900735Y1984878D01*
X1906510Y1984309D01*
X1915097Y1983463D01*
X1916071Y1983319D01*
X1917038Y1983126D01*
X1917993Y1982887D01*
X1931089Y1978914D01*
X1932018Y1978582D01*
X1932926Y1978206D01*
X1933818Y1977784D01*
X1945886Y1971333D01*
X1946733Y1970826D01*
X1947550Y1970280D01*
X1948343Y1969692D01*
X1958921Y1961011D01*
X1959652Y1960348D01*
X1960348Y1959652D01*
X1961011Y1958921D01*
X1969692Y1948343D01*
X1970279Y1947550D01*
X1970826Y1946733D01*
X1971333Y1945886D01*
X1977784Y1933818D01*
X1978206Y1932926D01*
X1978582Y1932016D01*
X1978915Y1931087D01*
X1982886Y1917994D01*
X1983126Y1917037D01*
X1983318Y1916073D01*
X1983463Y1915096D01*
X1984877Y1900737D01*
X1984914Y1900245D01*
X1984938Y1899753D01*
X1984950Y1899259D01*
X1984950Y100741D01*
X1984938Y100248D01*
X1984914Y99757D01*
X1984877Y99264D01*
X1983463Y84904D01*
X1983318Y83928D01*
X1983126Y82963D01*
X1982886Y82006D01*
X1978915Y68912D01*
X1978582Y67983D01*
X1978205Y67073D01*
X1977783Y66181D01*
X1971333Y54114D01*
X1970825Y53267D01*
X1970279Y52449D01*
X1969692Y51657D01*
X1961011Y41079D01*
X1960348Y40348D01*
X1959652Y39652D01*
X1958921Y38989D01*
X1948343Y30308D01*
X1947551Y29721D01*
X1946733Y29175D01*
X1945886Y28667D01*
X1933819Y22217D01*
X1932927Y21795D01*
X1932017Y21418D01*
X1931088Y21085D01*
X1917994Y17114D01*
X1917037Y16874D01*
X1916072Y16682D01*
X1915096Y16537D01*
X1900736Y15123D01*
X1900245Y15086D01*
X1899753Y15062D01*
X1899259Y15050D01*
X100741Y15050D01*
X100247Y15062D01*
X99755Y15086D01*
X99263Y15123D01*
X84904Y16537D01*
X83927Y16682D01*
X82963Y16874D01*
X82006Y17114D01*
X68913Y21085D01*
X67984Y21418D01*
X67074Y21794D01*
X66182Y22216D01*
X54114Y28667D01*
X53267Y29174D01*
X52449Y29720D01*
X51657Y30308D01*
X41079Y38989D01*
X40348Y39652D01*
X39652Y40348D01*
X38989Y41079D01*
X30308Y51657D01*
X29720Y52450D01*
X29174Y53267D01*
X28667Y54114D01*
X22216Y66182D01*
X21794Y67074D01*
X21418Y67982D01*
X21085Y68912D01*
X17113Y82006D01*
X16874Y82963D01*
X16682Y83928D01*
X16537Y84904D01*
X15122Y99265D01*
X15086Y99757D01*
X15062Y100249D01*
X15050Y100741D01*
X15050Y126528D01*
X1398109Y126528D01*
X1398109Y114894D01*
X1401120Y103658D01*
X1401120Y103658D01*
X1406936Y93584D01*
X1406936Y93584D01*
X1415162Y85358D01*
X1415162Y85358D01*
X1416799Y84413D01*
X1425236Y79542D01*
X1425237Y79542D01*
X1425237Y79541D01*
X1436183Y76608D01*
X1436426Y76535D01*
X1436458Y76531D01*
X1436473Y76531D01*
X1436473Y76531D01*
X1448105Y76531D01*
X1448106Y76531D01*
X1448123Y76535D01*
X1459342Y79541D01*
X1459342Y79541D01*
X1459342Y79542D01*
X1469416Y85358D01*
X1477642Y93584D01*
X1483458Y103658D01*
X1486469Y114894D01*
X1486469Y126527D01*
X1483458Y137764D01*
X1477642Y147838D01*
X1473523Y151957D01*
X1472270Y154416D01*
X1459342Y161880D01*
X1459341Y161880D01*
X1448106Y164891D01*
X1448106Y164891D01*
X1448106Y164891D01*
X1436473Y164891D01*
X1436472Y164891D01*
X1436472Y164891D01*
X1425237Y161880D01*
X1425236Y161880D01*
X1415162Y156064D01*
X1415162Y156064D01*
X1406936Y147838D01*
X1406936Y147838D01*
X1401120Y137764D01*
X1401120Y137763D01*
X1398109Y126528D01*
X15050Y126528D01*
X15050Y1116585D01*
X221619Y1116585D01*
X221619Y375087D01*
X223864Y360916D01*
X223864Y360914D01*
X223865Y360911D01*
X228298Y347266D01*
X234813Y334480D01*
X238096Y329963D01*
X243248Y322870D01*
X243249Y322870D01*
X248322Y317796D01*
X251772Y314346D01*
X251772Y314346D01*
X313130Y252989D01*
X313920Y252072D01*
X313926Y252077D01*
X314083Y251887D01*
X314083Y251886D01*
X316637Y248774D01*
X338976Y226436D01*
X338981Y226431D01*
X339238Y226178D01*
X339258Y226158D01*
X339534Y225897D01*
X340200Y225202D01*
X341159Y224099D01*
X341264Y223979D01*
X342981Y221195D01*
X345066Y216115D01*
X345384Y215221D01*
X346913Y210190D01*
X347014Y209868D01*
X347027Y209827D01*
X347144Y209476D01*
X351512Y196692D01*
X351513Y196690D01*
X351566Y196535D01*
X354602Y187651D01*
X355945Y184572D01*
X356125Y184236D01*
X356387Y183832D01*
X356727Y182934D01*
X356730Y182887D01*
X356816Y182691D01*
X357236Y181491D01*
X357258Y181427D01*
X357260Y181423D01*
X357260Y181422D01*
X365324Y170496D01*
X376251Y162431D01*
X376251Y162431D01*
X376251Y162431D01*
X376254Y162430D01*
X376319Y162408D01*
X377827Y161880D01*
X389069Y157946D01*
X392113Y157661D01*
X392113Y157661D01*
X482965Y157661D01*
X482966Y157661D01*
X486009Y157946D01*
X498827Y162431D01*
X509754Y170496D01*
X517819Y181422D01*
X522304Y194241D01*
X522589Y197284D01*
X522589Y258137D01*
X522304Y261181D01*
X517819Y273999D01*
X515192Y277558D01*
X511209Y282955D01*
X509759Y285749D01*
X509330Y287035D01*
X509284Y293252D01*
X509284Y293252D01*
X509671Y294474D01*
X511167Y297411D01*
X517264Y305671D01*
X517819Y306423D01*
X519095Y310071D01*
X1572050Y310071D01*
X1572050Y289929D01*
X1575200Y270039D01*
X1575201Y270038D01*
X1575201Y270038D01*
X1581424Y250884D01*
X1590567Y232940D01*
X1590567Y232940D01*
X1592562Y230194D01*
X1602405Y216646D01*
X1602405Y216646D01*
X1616646Y202405D01*
X1632940Y190567D01*
X1632940Y190567D01*
X1632941Y190566D01*
X1632972Y190551D01*
X1650884Y181424D01*
X1662661Y177598D01*
X1670037Y175201D01*
X1670037Y175201D01*
X1670038Y175201D01*
X1689557Y172109D01*
X1689857Y172050D01*
X1710070Y172050D01*
X1712294Y172050D01*
X1713298Y172561D01*
X1729962Y175201D01*
X1749116Y181424D01*
X1767060Y190567D01*
X1783354Y202405D01*
X1797595Y216646D01*
X1809433Y232940D01*
X1818576Y250884D01*
X1824799Y270038D01*
X1827950Y289930D01*
X1827950Y310070D01*
X1827950Y310070D01*
X1827950Y310586D01*
X1827764Y311246D01*
X1824799Y329962D01*
X1824799Y329963D01*
X1824799Y329964D01*
X1818576Y349116D01*
X1809792Y366354D01*
X1809433Y367060D01*
X1809433Y367060D01*
X1799503Y380728D01*
X1797595Y383354D01*
X1783354Y397595D01*
X1783353Y397595D01*
X1774543Y403996D01*
X1774529Y404006D01*
X1767060Y409433D01*
X1767060Y409433D01*
X1767059Y409433D01*
X1766970Y409479D01*
X1766969Y409479D01*
X1749116Y418576D01*
X1734659Y423273D01*
X1729963Y424799D01*
X1729962Y424799D01*
X1729962Y424799D01*
X1729961Y424800D01*
X1710071Y427950D01*
X1710070Y427950D01*
X1710070Y427950D01*
X1689930Y427950D01*
X1689930Y427950D01*
X1689929Y427950D01*
X1670039Y424800D01*
X1670038Y424799D01*
X1670037Y424799D01*
X1650884Y418576D01*
X1632941Y409433D01*
X1632940Y409433D01*
X1632939Y409432D01*
X1632939Y409432D01*
X1616646Y397595D01*
X1602405Y383354D01*
X1590568Y367061D01*
X1590568Y367061D01*
X1590567Y367059D01*
X1590567Y367059D01*
X1581424Y349116D01*
X1575201Y329963D01*
X1575200Y329962D01*
X1572050Y310071D01*
X519095Y310071D01*
X522304Y319241D01*
X522589Y322284D01*
X522589Y383137D01*
X522304Y386181D01*
X518523Y396986D01*
X518332Y397531D01*
X517971Y398564D01*
X517971Y398564D01*
X517801Y399050D01*
X517618Y399318D01*
X517618Y399319D01*
X517372Y399604D01*
X511209Y407955D01*
X509759Y410749D01*
X509330Y412034D01*
X509284Y418252D01*
X509284Y418252D01*
X509671Y419474D01*
X511167Y422411D01*
X512826Y424658D01*
X517819Y431422D01*
X522304Y444241D01*
X522589Y447284D01*
X522589Y508137D01*
X522304Y511181D01*
X518717Y521431D01*
X517819Y523998D01*
X517819Y523998D01*
X517819Y523999D01*
X517818Y523999D01*
X517800Y524050D01*
X517618Y524319D01*
X517372Y524604D01*
X515089Y527697D01*
X511376Y532728D01*
X509927Y535521D01*
X509498Y536807D01*
X509452Y543024D01*
X509839Y544247D01*
X511335Y547183D01*
X511377Y547240D01*
X518060Y556295D01*
X522572Y569190D01*
X522859Y572252D01*
X522859Y583661D01*
X476604Y583661D01*
X470691Y585582D01*
X467036Y590612D01*
X466544Y593721D01*
X466544Y595045D01*
X467539Y598761D01*
X467539Y606660D01*
X466544Y610376D01*
X466544Y611701D01*
X467115Y613460D01*
X467212Y615306D01*
X468052Y616344D01*
X468465Y617614D01*
X469961Y618701D01*
X471125Y620138D01*
X472499Y620545D01*
X473495Y621268D01*
X474941Y621268D01*
X476604Y621761D01*
X522859Y621761D01*
X522859Y633169D01*
X522859Y633170D01*
X522572Y636231D01*
X522572Y636231D01*
X522572Y636231D01*
X518060Y649127D01*
X516506Y651232D01*
X509947Y660119D01*
X509947Y660119D01*
X498955Y668231D01*
X486060Y672744D01*
X485185Y672826D01*
X482998Y673031D01*
X482997Y673031D01*
X456589Y673031D01*
X456589Y641775D01*
X454668Y635862D01*
X449638Y632208D01*
X446529Y631715D01*
X445205Y631715D01*
X441489Y632711D01*
X433590Y632711D01*
X429874Y631715D01*
X428549Y631715D01*
X426790Y632287D01*
X424944Y632383D01*
X423906Y633224D01*
X422636Y633636D01*
X421549Y635133D01*
X420112Y636296D01*
X419705Y637671D01*
X418982Y638666D01*
X418982Y640113D01*
X418489Y641775D01*
X418489Y673031D01*
X392081Y673031D01*
X389893Y672826D01*
X389018Y672744D01*
X376123Y668231D01*
X365131Y660119D01*
X365131Y660119D01*
X357019Y649127D01*
X352506Y636232D01*
X352506Y636231D01*
X352219Y633169D01*
X352219Y621761D01*
X398475Y621761D01*
X404388Y619839D01*
X408042Y614809D01*
X408535Y611701D01*
X408535Y610376D01*
X407539Y606660D01*
X407539Y598761D01*
X408535Y595045D01*
X408535Y593721D01*
X407963Y591962D01*
X407867Y590115D01*
X407026Y589078D01*
X406614Y587808D01*
X405117Y586721D01*
X403954Y585284D01*
X402579Y584877D01*
X401584Y584153D01*
X400137Y584153D01*
X398475Y583661D01*
X352219Y583661D01*
X352219Y572252D01*
X352219Y572251D01*
X352506Y569190D01*
X355182Y561542D01*
X357019Y556295D01*
X363639Y547324D01*
X363702Y547240D01*
X365152Y544445D01*
X365580Y543159D01*
X365627Y536943D01*
X365240Y535721D01*
X363743Y532784D01*
X357261Y524001D01*
X357260Y523998D01*
X357260Y523998D01*
X354503Y516121D01*
X352775Y511181D01*
X352775Y511181D01*
X352489Y508137D01*
X352489Y447283D01*
X352699Y445050D01*
X352775Y444241D01*
X352775Y444241D01*
X352866Y443980D01*
X353007Y443082D01*
X352950Y442721D01*
X353127Y441743D01*
X353138Y441279D01*
X352813Y441271D01*
X352518Y436905D01*
X348533Y432132D01*
X342504Y430614D01*
X340288Y431016D01*
X339968Y431112D01*
X335748Y433633D01*
X327659Y441723D01*
X327658Y441723D01*
X325141Y444241D01*
X324331Y445050D01*
X323491Y445890D01*
X323043Y446368D01*
X322609Y446863D01*
X322193Y447371D01*
X318307Y452435D01*
X317576Y453529D01*
X316923Y454661D01*
X316341Y455841D01*
X314279Y460817D01*
X313856Y462063D01*
X313518Y463327D01*
X313261Y464616D01*
X312428Y470944D01*
X312364Y471596D01*
X312321Y472255D01*
X312299Y472911D01*
X312299Y474284D01*
X312299Y476802D01*
X312299Y476802D01*
X312299Y1086869D01*
X312299Y1086869D01*
X312299Y1090761D01*
X312321Y1091416D01*
X312364Y1092076D01*
X312428Y1092727D01*
X313261Y1099056D01*
X313518Y1100344D01*
X313856Y1101608D01*
X314279Y1102853D01*
X316341Y1107833D01*
X316923Y1109011D01*
X317296Y1109657D01*
X317576Y1110143D01*
X318305Y1111235D01*
X322195Y1116303D01*
X322608Y1116807D01*
X323043Y1117303D01*
X323490Y1117780D01*
X326244Y1120534D01*
X326244Y1120534D01*
X327658Y1121948D01*
X327658Y1121949D01*
X414489Y1208780D01*
X417035Y1210629D01*
X418066Y1211155D01*
X424207Y1212127D01*
X429747Y1209305D01*
X429747Y1209305D01*
X430097Y1208954D01*
X432701Y1204445D01*
X434309Y1198442D01*
X434435Y1197973D01*
X434435Y1197973D01*
X440252Y1187899D01*
X448477Y1179673D01*
X448477Y1179673D01*
X458520Y1173875D01*
X458552Y1173857D01*
X458552Y1173857D01*
X458552Y1173857D01*
X458855Y1173775D01*
X459828Y1173514D01*
X459831Y1173514D01*
X469497Y1170924D01*
X469497Y1170924D01*
X469788Y1170846D01*
X469788Y1170846D01*
X469788Y1170846D01*
X481421Y1170846D01*
X481421Y1170846D01*
X484689Y1171722D01*
X491378Y1173514D01*
X492725Y1173691D01*
X493803Y1174518D01*
X498160Y1177034D01*
X501098Y1178162D01*
X502230Y1178402D01*
X508413Y1177753D01*
X513034Y1173593D01*
X513282Y1173164D01*
X514630Y1168133D01*
X514630Y1164601D01*
X517640Y1153365D01*
X517640Y1153364D01*
X523457Y1143290D01*
X523457Y1143290D01*
X531683Y1135065D01*
X531682Y1135065D01*
X533233Y1134170D01*
X533388Y1134015D01*
X533741Y1133727D01*
X537092Y1131499D01*
X548920Y1125212D01*
X549580Y1124876D01*
X549622Y1124856D01*
X549652Y1124841D01*
X549654Y1124840D01*
X549656Y1124839D01*
X550332Y1124525D01*
X550409Y1124491D01*
X551099Y1124201D01*
X551179Y1124169D01*
X551445Y1124069D01*
X551881Y1123904D01*
X551882Y1123904D01*
X551883Y1123903D01*
X555660Y1122553D01*
X556134Y1122384D01*
X556623Y1122195D01*
X562438Y1119768D01*
X564201Y1118816D01*
X565133Y1118186D01*
X566219Y1117337D01*
X569793Y1114126D01*
X572212Y1112323D01*
X573314Y1111370D01*
X599889Y1084795D01*
X602575Y1082844D01*
X604800Y1080619D01*
X605481Y1079682D01*
X607402Y1073769D01*
X605481Y1067856D01*
X605481Y1067856D01*
X605481Y1067856D01*
X605480Y1067856D01*
X605041Y1067251D01*
X601932Y1064452D01*
X598663Y1062564D01*
X598663Y1062564D01*
X590436Y1054338D01*
X590436Y1054338D01*
X584620Y1044264D01*
X584620Y1044263D01*
X581609Y1033028D01*
X581609Y1033028D01*
X581609Y1021394D01*
X582313Y1018769D01*
X582889Y1016618D01*
X583218Y1013488D01*
X583213Y1013391D01*
X583147Y1012134D01*
X580920Y1006331D01*
X580594Y1005928D01*
X575380Y1002542D01*
X575379Y1002541D01*
X572713Y1001827D01*
X572710Y1001826D01*
X572709Y1001826D01*
X562635Y996010D01*
X554410Y987784D01*
X554409Y987784D01*
X548593Y977710D01*
X548593Y977709D01*
X545582Y966474D01*
X545582Y954840D01*
X548593Y943605D01*
X548593Y943604D01*
X554409Y933530D01*
X554410Y933530D01*
X562635Y925304D01*
X562635Y925304D01*
X562635Y925304D01*
X572710Y919488D01*
X572710Y919488D01*
X572710Y919488D01*
X583253Y916663D01*
X583655Y916555D01*
X583655Y916555D01*
X583946Y916477D01*
X583946Y916477D01*
X583946Y916477D01*
X595579Y916477D01*
X595579Y916477D01*
X595790Y916533D01*
X596272Y916663D01*
X597507Y916880D01*
X597505Y916890D01*
X597504Y916898D01*
X597504Y916898D01*
X597503Y916910D01*
X597744Y916944D01*
X597747Y916945D01*
X599059Y917195D01*
X601708Y917701D01*
X601709Y917701D01*
X601710Y917701D01*
X612740Y920956D01*
X615483Y921765D01*
X615552Y921787D01*
X616038Y921937D01*
X616039Y921938D01*
X616040Y921938D01*
X616096Y921956D01*
X616659Y922149D01*
X616673Y922154D01*
X616720Y922171D01*
X617285Y922382D01*
X617348Y922407D01*
X617892Y922629D01*
X620629Y923791D01*
X621134Y923990D01*
X626377Y925887D01*
X628805Y926437D01*
X638332Y927383D01*
X640219Y927736D01*
X642068Y927907D01*
X694000Y927907D01*
X697109Y927415D01*
X698398Y926996D01*
X703280Y923539D01*
X703283Y923536D01*
X703328Y923414D01*
X703428Y923341D01*
X703933Y921787D01*
X705334Y918016D01*
X705472Y915683D01*
X705489Y915091D01*
X705489Y884322D01*
X703568Y878408D01*
X698538Y874754D01*
X692321Y874754D01*
X690399Y875609D01*
X674342Y884880D01*
X674342Y884880D01*
X663106Y887891D01*
X663106Y887891D01*
X663106Y887891D01*
X651473Y887891D01*
X651472Y887891D01*
X651472Y887891D01*
X640237Y884880D01*
X640236Y884880D01*
X630162Y879064D01*
X630162Y879063D01*
X621937Y870838D01*
X621936Y870838D01*
X616120Y860764D01*
X616120Y860763D01*
X613109Y849528D01*
X613109Y849528D01*
X613109Y837894D01*
X614325Y833358D01*
X614466Y832832D01*
X614795Y829701D01*
X614734Y828545D01*
X612506Y822741D01*
X607292Y819355D01*
X607291Y819355D01*
X607291Y819355D01*
X607291Y819355D01*
X606814Y819227D01*
X601606Y819227D01*
X597779Y820252D01*
X595397Y820890D01*
X595396Y820891D01*
X595396Y820891D01*
X595396Y820891D01*
X583763Y820891D01*
X583762Y820891D01*
X583762Y820891D01*
X572527Y817880D01*
X572526Y817880D01*
X562452Y812064D01*
X562452Y812063D01*
X554227Y803838D01*
X554226Y803838D01*
X548410Y793764D01*
X548410Y793763D01*
X548410Y793763D01*
X547986Y792180D01*
X545399Y782528D01*
X545399Y770894D01*
X548410Y759658D01*
X548410Y759658D01*
X554226Y749584D01*
X554227Y749584D01*
X562452Y741358D01*
X562452Y741358D01*
X572325Y735658D01*
X572527Y735541D01*
X572527Y735541D01*
X572527Y735541D01*
X572960Y735425D01*
X572960Y735425D01*
X573255Y735346D01*
X573806Y735199D01*
X573806Y735199D01*
X583472Y732609D01*
X583472Y732609D01*
X583763Y732531D01*
X583763Y732531D01*
X583763Y732531D01*
X593493Y732531D01*
X596602Y732038D01*
X597741Y731668D01*
X597891Y731619D01*
X602919Y727968D01*
X603026Y727820D01*
X604907Y722825D01*
X605067Y721089D01*
X605109Y720168D01*
X605109Y709894D01*
X608120Y698659D01*
X608120Y698658D01*
X613936Y688584D01*
X613937Y688584D01*
X622162Y680358D01*
X622162Y680358D01*
X623894Y679358D01*
X632237Y674542D01*
X632237Y674542D01*
X632237Y674541D01*
X643182Y671609D01*
X643182Y671609D01*
X643473Y671531D01*
X643473Y671531D01*
X643473Y671531D01*
X655106Y671531D01*
X655106Y671531D01*
X655397Y671609D01*
X666342Y674541D01*
X666342Y674541D01*
X666342Y674542D01*
X676416Y680358D01*
X684642Y688584D01*
X690459Y698658D01*
X691650Y703103D01*
X693201Y708893D01*
X693201Y708894D01*
X693469Y709893D01*
X693469Y709894D01*
X693469Y709894D01*
X693469Y721527D01*
X693469Y721528D01*
X691778Y727839D01*
X691449Y730968D01*
X691515Y732217D01*
X693743Y738022D01*
X698702Y741335D01*
X698900Y741394D01*
X698935Y741393D01*
X698958Y741408D01*
X699528Y741378D01*
X705115Y741232D01*
X706797Y740456D01*
X706800Y740454D01*
X706852Y740424D01*
X706857Y740421D01*
X706858Y740421D01*
X707320Y740162D01*
X707322Y740161D01*
X707322Y740161D01*
X717342Y734718D01*
X718163Y734322D01*
X718888Y733972D01*
X718888Y733972D01*
X719139Y733851D01*
X719348Y733763D01*
X719720Y733614D01*
X719850Y733527D01*
X720026Y733492D01*
X720132Y733450D01*
X720354Y733420D01*
X720382Y733409D01*
X720771Y733344D01*
X726720Y732161D01*
X781336Y732161D01*
X784445Y731668D01*
X785734Y731249D01*
X790762Y727597D01*
X791067Y727177D01*
X792989Y721265D01*
X792989Y665891D01*
X794182Y659894D01*
X794356Y659022D01*
X794355Y659022D01*
X798039Y653509D01*
X799561Y651232D01*
X799561Y651232D01*
X807350Y646027D01*
X814220Y644661D01*
X814220Y644661D01*
X846859Y644661D01*
X846859Y644661D01*
X853728Y646027D01*
X856126Y647629D01*
X858983Y648947D01*
X860497Y649374D01*
X866337Y649259D01*
X867306Y648944D01*
X869785Y647741D01*
X872350Y646027D01*
X879220Y644661D01*
X879220Y644661D01*
X911859Y644661D01*
X911859Y644661D01*
X918728Y646027D01*
X921126Y647629D01*
X923983Y648947D01*
X925497Y649374D01*
X931337Y649259D01*
X932306Y648944D01*
X934785Y647741D01*
X937350Y646027D01*
X944220Y644661D01*
X944220Y644661D01*
X955620Y644661D01*
X956457Y644389D01*
X958728Y644168D01*
X959525Y643910D01*
X960814Y642973D01*
X961533Y642739D01*
X962124Y642021D01*
X964555Y640255D01*
X966477Y634342D01*
X965793Y632239D01*
X965829Y631941D01*
X965510Y631368D01*
X964556Y628429D01*
X964555Y628429D01*
X964304Y628083D01*
X963059Y626962D01*
X962807Y626508D01*
X962287Y626267D01*
X961197Y625284D01*
X960989Y625164D01*
X960987Y625163D01*
X959071Y624057D01*
X958558Y623761D01*
X949239Y614442D01*
X949239Y614442D01*
X942650Y603029D01*
X942650Y603029D01*
X942489Y602429D01*
X942326Y601883D01*
X942032Y600992D01*
X941609Y600226D01*
X936870Y585341D01*
X936866Y585329D01*
X936838Y585242D01*
X935029Y582777D01*
X933245Y580289D01*
X933181Y580256D01*
X933161Y580228D01*
X933078Y580202D01*
X930563Y578883D01*
X928473Y578162D01*
X927051Y577672D01*
X925870Y577343D01*
X920717Y576245D01*
X918957Y576030D01*
X911989Y575796D01*
X910256Y575664D01*
X910062Y575641D01*
X908890Y575485D01*
X908888Y575496D01*
X907031Y575261D01*
X901300Y575261D01*
X897167Y574717D01*
X896340Y574608D01*
X896340Y574608D01*
X885459Y569534D01*
X885458Y569533D01*
X876967Y561042D01*
X876966Y561042D01*
X871892Y550159D01*
X871892Y550159D01*
X871239Y545201D01*
X871239Y545201D01*
X871239Y485121D01*
X870746Y482011D01*
X870494Y481234D01*
X866839Y476204D01*
X860925Y474284D01*
X855897Y475632D01*
X843342Y482880D01*
X843341Y482880D01*
X832106Y485891D01*
X832106Y485891D01*
X832106Y485891D01*
X820473Y485891D01*
X820472Y485891D01*
X820472Y485891D01*
X809237Y482880D01*
X809236Y482880D01*
X799162Y477064D01*
X799162Y477063D01*
X790936Y468838D01*
X790936Y468838D01*
X785120Y458764D01*
X785120Y458763D01*
X782109Y447528D01*
X782109Y435894D01*
X785120Y424658D01*
X785120Y424658D01*
X790936Y414584D01*
X790936Y414584D01*
X799162Y406358D01*
X799162Y406358D01*
X799162Y406358D01*
X809236Y400541D01*
X809237Y400541D01*
X809237Y400541D01*
X819043Y397914D01*
X820182Y397609D01*
X820182Y397609D01*
X820473Y397531D01*
X820473Y397531D01*
X820473Y397531D01*
X832105Y397531D01*
X832106Y397531D01*
X832346Y397595D01*
X843342Y400541D01*
X843342Y400541D01*
X843342Y400541D01*
X853416Y406358D01*
X861642Y414584D01*
X867458Y424658D01*
X870469Y435894D01*
X870469Y435895D01*
X870555Y436548D01*
X870635Y436537D01*
X870962Y438602D01*
X871319Y439703D01*
X874974Y444733D01*
X876034Y445077D01*
X880887Y446654D01*
X881585Y446654D01*
X885837Y445711D01*
X896341Y440813D01*
X896341Y440813D01*
X896341Y440813D01*
X898820Y440487D01*
X901299Y440161D01*
X951279Y440161D01*
X956238Y440813D01*
X967121Y445888D01*
X975612Y454379D01*
X980686Y465262D01*
X981339Y470221D01*
X981339Y503247D01*
X981371Y504046D01*
X981435Y504853D01*
X981879Y506663D01*
X982245Y515010D01*
X982259Y515187D01*
X982317Y515326D01*
X982603Y517109D01*
X982936Y518297D01*
X984678Y524494D01*
X988127Y529666D01*
X992083Y531570D01*
X993839Y531979D01*
X994872Y532248D01*
X994990Y532281D01*
X994990Y532282D01*
X994991Y532282D01*
X995646Y532489D01*
X996016Y532606D01*
X1006325Y536171D01*
X1006804Y536344D01*
X1006858Y536364D01*
X1006858Y536364D01*
X1006876Y536371D01*
X1011676Y536928D01*
X1012037Y536881D01*
X1012037Y536881D01*
X1012158Y536866D01*
X1017780Y534211D01*
X1020528Y529745D01*
X1020825Y528745D01*
X1021239Y525887D01*
X1021239Y470221D01*
X1021421Y468838D01*
X1021892Y465262D01*
X1021892Y465262D01*
X1027152Y453981D01*
X1027120Y453966D01*
X1027769Y452474D01*
X1028318Y450680D01*
X1028391Y445050D01*
X1028171Y444254D01*
X1027189Y441913D01*
X1022120Y433134D01*
X1022120Y433133D01*
X1019109Y421898D01*
X1019109Y410264D01*
X1022120Y399028D01*
X1022120Y399028D01*
X1027936Y388954D01*
X1027936Y388954D01*
X1036162Y380728D01*
X1036162Y380728D01*
X1045932Y375087D01*
X1046236Y374911D01*
X1046237Y374911D01*
X1046237Y374911D01*
X1046269Y374903D01*
X1046269Y374903D01*
X1047515Y374569D01*
X1047516Y374569D01*
X1057182Y371979D01*
X1057182Y371979D01*
X1057473Y371901D01*
X1057473Y371901D01*
X1057473Y371901D01*
X1069106Y371901D01*
X1069106Y371901D01*
X1069397Y371979D01*
X1075695Y373666D01*
X1080342Y374911D01*
X1090416Y380728D01*
X1098642Y388954D01*
X1104459Y399028D01*
X1107246Y409432D01*
X1107469Y410264D01*
X1107469Y410264D01*
X1107469Y421897D01*
X1107469Y421897D01*
X1105424Y429531D01*
X1105095Y432660D01*
X1105166Y434015D01*
X1107394Y439818D01*
X1107929Y440478D01*
X1111495Y443265D01*
X1117121Y445888D01*
X1125612Y454379D01*
X1130687Y465262D01*
X1131339Y470221D01*
X1131339Y474270D01*
X1132282Y477171D01*
X1133192Y480086D01*
X1133241Y480124D01*
X1133261Y480183D01*
X1138178Y483800D01*
X1143525Y485607D01*
X1145647Y486076D01*
X1146164Y486133D01*
X1147294Y486257D01*
X1148947Y486582D01*
X1150886Y486771D01*
X1321688Y486771D01*
X1324794Y486279D01*
X1324923Y486237D01*
X1326845Y485381D01*
X1331558Y482661D01*
X1341864Y476711D01*
X1341864Y476711D01*
X1342971Y476071D01*
X1345601Y475367D01*
X1354717Y472924D01*
X1355700Y472661D01*
X1355700Y472661D01*
X1355700Y472661D01*
X1368878Y472661D01*
X1368878Y472661D01*
X1368879Y472661D01*
X1368879Y472661D01*
X1368879Y472661D01*
X1368879Y472661D01*
X1368880Y472661D01*
X1369026Y472696D01*
X1369027Y472696D01*
X1369644Y472841D01*
X1369862Y472924D01*
X1381608Y476071D01*
X1381607Y476071D01*
X1381608Y476071D01*
X1381608Y476072D01*
X1382087Y476200D01*
X1382088Y476200D01*
X1385055Y476995D01*
X1387429Y479432D01*
X1393021Y482661D01*
X1397970Y487610D01*
X1449239Y487610D01*
X1449239Y487183D01*
X1449239Y473811D01*
X1449615Y471923D01*
X1449954Y470220D01*
X1451931Y460278D01*
X1457212Y447530D01*
X1457212Y447530D01*
X1458308Y445888D01*
X1458479Y445633D01*
X1458480Y445632D01*
X1463143Y438653D01*
X1464878Y436056D01*
X1474635Y426299D01*
X1486108Y418633D01*
X1492482Y415993D01*
X1498528Y413489D01*
X1498802Y413363D01*
X1507976Y411539D01*
X1512390Y410661D01*
X1512390Y410661D01*
X1526188Y410661D01*
X1526189Y410661D01*
X1539722Y413353D01*
X1552470Y418633D01*
X1563943Y426299D01*
X1573701Y436056D01*
X1581367Y447530D01*
X1586647Y460278D01*
X1589339Y473811D01*
X1589339Y487610D01*
X1586647Y501143D01*
X1585716Y503392D01*
X1581503Y513562D01*
X1581423Y513776D01*
X1581367Y513891D01*
X1581367Y513892D01*
X1581367Y513892D01*
X1579877Y516121D01*
X1579877Y516122D01*
X1573701Y525365D01*
X1563943Y535122D01*
X1556708Y539957D01*
X1556707Y539957D01*
X1556555Y540059D01*
X1552470Y542788D01*
X1552470Y542788D01*
X1551395Y543234D01*
X1551395Y543234D01*
X1539722Y548069D01*
X1527705Y550459D01*
X1527705Y550459D01*
X1526189Y550761D01*
X1526189Y550761D01*
X1512390Y550761D01*
X1512390Y550761D01*
X1510874Y550459D01*
X1510874Y550459D01*
X1498856Y548069D01*
X1486439Y542925D01*
X1486224Y542845D01*
X1486109Y542789D01*
X1474635Y535122D01*
X1464878Y525365D01*
X1457211Y513891D01*
X1457155Y513776D01*
X1457075Y513561D01*
X1451931Y501144D01*
X1450351Y493202D01*
X1450351Y493197D01*
X1450338Y493134D01*
X1449239Y487610D01*
X1397970Y487610D01*
X1402339Y491979D01*
X1408928Y503392D01*
X1412339Y516121D01*
X1412339Y529300D01*
X1412339Y529300D01*
X1412304Y529449D01*
X1412304Y529449D01*
X1412158Y530066D01*
X1412076Y530284D01*
X1411622Y531979D01*
X1408929Y542029D01*
X1408928Y542030D01*
X1408928Y542030D01*
X1405795Y547456D01*
X1405795Y547456D01*
X1405442Y548069D01*
X1402339Y553442D01*
X1396695Y559086D01*
X1396318Y559568D01*
X1395723Y561201D01*
X1381608Y569350D01*
X1381607Y569350D01*
X1368879Y572761D01*
X1368879Y572761D01*
X1368879Y572761D01*
X1355700Y572761D01*
X1355700Y572761D01*
X1355699Y572761D01*
X1342971Y569350D01*
X1342971Y569350D01*
X1331558Y562761D01*
X1331557Y562760D01*
X1325495Y556698D01*
X1325494Y556697D01*
X1325092Y556295D01*
X1322239Y553442D01*
X1320490Y550412D01*
X1320022Y549824D01*
X1319680Y549598D01*
X1318884Y548615D01*
X1317451Y547324D01*
X1312811Y544960D01*
X1312391Y544871D01*
X1310298Y544651D01*
X1151794Y544651D01*
X1149721Y544867D01*
X1149398Y544935D01*
X1149312Y544962D01*
X1146078Y545634D01*
X1146063Y545637D01*
X1146051Y545639D01*
X1146051Y545639D01*
X1146026Y545645D01*
X1146001Y545659D01*
X1142902Y546875D01*
X1139309Y549043D01*
X1137670Y550276D01*
X1132865Y554725D01*
X1132865Y554726D01*
X1125504Y561542D01*
X1123378Y563785D01*
X1120521Y566158D01*
X1120321Y566343D01*
X1120305Y566372D01*
X1120044Y566610D01*
X1117121Y569533D01*
X1117121Y569533D01*
X1106238Y574608D01*
X1105411Y574717D01*
X1101280Y575261D01*
X1101279Y575261D01*
X1051219Y575261D01*
X1049385Y575429D01*
X1047812Y575721D01*
X1047645Y575812D01*
X1042350Y578686D01*
X1042224Y578819D01*
X1039708Y583527D01*
X1039587Y584063D01*
X1039339Y586281D01*
X1039339Y590300D01*
X1039339Y590300D01*
X1039339Y590301D01*
X1039256Y590612D01*
X1037072Y598761D01*
X1035929Y603029D01*
X1035928Y603030D01*
X1033832Y606660D01*
X1029339Y614442D01*
X1020021Y623761D01*
X1020021Y623761D01*
X1018668Y624542D01*
X1018668Y624542D01*
X1017715Y625092D01*
X1015269Y627073D01*
X1014708Y627695D01*
X1014060Y629151D01*
X1013555Y629712D01*
X1013476Y630464D01*
X1012180Y633375D01*
X1013472Y639457D01*
X1018092Y643617D01*
X1018485Y643792D01*
X1022576Y644661D01*
X1041859Y644661D01*
X1041859Y644661D01*
X1048728Y646027D01*
X1051126Y647629D01*
X1053983Y648947D01*
X1055497Y649374D01*
X1061337Y649259D01*
X1062306Y648944D01*
X1064785Y647741D01*
X1067351Y646027D01*
X1074220Y644661D01*
X1074220Y644661D01*
X1106859Y644661D01*
X1106859Y644661D01*
X1113728Y646027D01*
X1116126Y647629D01*
X1118983Y648947D01*
X1120497Y649374D01*
X1126337Y649259D01*
X1127306Y648944D01*
X1129785Y647741D01*
X1132351Y646027D01*
X1139220Y644661D01*
X1139220Y644661D01*
X1171859Y644661D01*
X1171859Y644661D01*
X1178728Y646027D01*
X1181126Y647629D01*
X1183983Y648947D01*
X1185497Y649374D01*
X1191337Y649259D01*
X1192306Y648944D01*
X1194785Y647741D01*
X1197351Y646027D01*
X1204220Y644661D01*
X1204220Y644661D01*
X1236859Y644661D01*
X1236859Y644661D01*
X1243728Y646027D01*
X1251518Y651232D01*
X1256723Y659022D01*
X1258089Y665891D01*
X1258089Y720507D01*
X1258582Y723616D01*
X1259001Y724905D01*
X1262655Y729935D01*
X1263075Y730240D01*
X1268987Y732161D01*
X1295928Y732161D01*
X1298440Y731815D01*
X1298444Y731831D01*
X1298623Y731790D01*
X1298645Y731787D01*
X1298684Y731776D01*
X1299810Y731576D01*
X1303175Y730329D01*
X1303841Y729935D01*
X1304299Y729664D01*
X1306028Y728372D01*
X1309199Y725423D01*
X1309868Y724738D01*
X1310900Y723577D01*
X1311810Y722385D01*
X1312002Y722090D01*
X1313017Y720065D01*
X1315264Y713940D01*
X1315385Y713589D01*
X1317895Y705880D01*
X1318203Y705001D01*
X1318239Y704905D01*
X1318585Y704045D01*
X1318629Y703943D01*
X1319012Y703104D01*
X1319058Y703008D01*
X1319437Y702267D01*
X1319489Y702167D01*
X1324563Y692797D01*
X1327174Y689078D01*
X1328037Y687584D01*
X1332403Y683218D01*
X1332633Y682953D01*
X1333476Y680966D01*
X1344604Y674542D01*
X1344604Y674542D01*
X1346336Y673542D01*
X1357282Y670609D01*
X1357282Y670609D01*
X1357573Y670531D01*
X1357573Y670531D01*
X1357573Y670531D01*
X1369206Y670531D01*
X1369206Y670531D01*
X1369497Y670609D01*
X1380442Y673541D01*
X1380442Y673541D01*
X1380442Y673542D01*
X1390516Y679358D01*
X1398742Y687584D01*
X1404558Y697658D01*
X1405751Y702109D01*
X1407031Y704983D01*
X1407769Y706121D01*
X1412600Y710033D01*
X1413084Y710218D01*
X1419293Y710544D01*
X1428168Y708166D01*
X1428168Y708166D01*
X1439800Y708166D01*
X1439800Y708166D01*
X1442517Y708894D01*
X1450725Y711093D01*
X1451208Y711206D01*
X1451517Y711305D01*
X1454483Y712100D01*
X1456857Y714537D01*
X1461111Y716993D01*
X1469337Y725219D01*
X1469798Y726018D01*
X1470663Y727283D01*
X1470774Y727421D01*
X1472975Y730797D01*
X1476844Y738236D01*
X1478789Y741974D01*
X1478821Y742041D01*
X1479189Y742788D01*
X1479233Y742882D01*
X1479598Y743714D01*
X1479599Y743715D01*
X1479637Y743808D01*
X1479741Y744076D01*
X1479969Y744667D01*
X1480004Y744764D01*
X1480290Y745614D01*
X1482049Y751243D01*
X1482200Y751687D01*
X1484278Y757374D01*
X1485260Y759354D01*
X1485535Y759782D01*
X1486470Y761018D01*
X1489446Y764378D01*
X1491130Y766666D01*
X1492119Y767817D01*
X1501903Y777601D01*
X1523204Y798902D01*
X1525750Y800752D01*
X1526958Y801367D01*
X1533098Y802340D01*
X1533995Y802197D01*
X1538010Y800626D01*
X1538276Y800449D01*
X1541027Y798610D01*
X1548340Y797155D01*
X1548340Y797155D01*
X1594238Y797155D01*
X1594238Y797155D01*
X1601551Y798610D01*
X1604135Y800337D01*
X1606993Y801654D01*
X1608507Y802081D01*
X1614346Y801966D01*
X1615315Y801651D01*
X1617795Y800449D01*
X1617963Y800336D01*
X1620547Y798610D01*
X1620919Y798361D01*
X1620919Y798361D01*
X1620919Y798361D01*
X1628311Y796891D01*
X1632237Y796891D01*
X1632237Y888531D01*
X1629074Y888531D01*
X1626918Y888765D01*
X1625204Y889141D01*
X1620014Y892094D01*
X1620011Y892097D01*
X1619951Y892220D01*
X1619840Y892285D01*
X1619164Y893830D01*
X1617421Y897397D01*
X1617233Y898587D01*
X1617109Y900160D01*
X1617109Y903655D01*
X1525469Y903655D01*
X1525469Y899729D01*
X1526939Y892338D01*
X1527580Y891380D01*
X1528918Y889376D01*
X1530236Y886519D01*
X1530261Y886431D01*
X1530017Y880218D01*
X1527447Y876348D01*
X1522213Y871458D01*
X1521195Y870625D01*
X1515857Y866809D01*
X1514573Y866029D01*
X1512775Y865113D01*
X1512156Y864824D01*
X1509567Y863719D01*
X1508439Y863197D01*
X1508325Y863140D01*
X1508325Y863140D01*
X1508243Y863099D01*
X1508241Y863098D01*
X1508174Y863042D01*
X1506324Y861826D01*
X1501471Y859353D01*
X1501471Y859353D01*
X1489539Y850684D01*
X1449286Y810431D01*
X1448562Y809774D01*
X1448332Y809585D01*
X1445911Y807824D01*
X1442496Y804786D01*
X1442345Y804662D01*
X1442273Y804634D01*
X1441460Y804012D01*
X1441068Y803756D01*
X1439081Y802751D01*
X1437978Y802340D01*
X1432982Y800476D01*
X1432644Y800356D01*
X1424968Y797801D01*
X1424110Y797494D01*
X1424020Y797459D01*
X1423164Y797110D01*
X1423072Y797069D01*
X1422278Y796704D01*
X1422187Y796660D01*
X1421352Y796230D01*
X1412026Y791152D01*
X1412026Y791152D01*
X1408708Y788815D01*
X1407946Y788328D01*
X1406857Y787699D01*
X1406857Y787699D01*
X1398631Y779473D01*
X1398631Y779473D01*
X1392815Y769399D01*
X1392814Y769397D01*
X1391622Y764949D01*
X1390623Y762532D01*
X1390205Y761807D01*
X1390118Y761728D01*
X1390011Y761563D01*
X1389967Y761592D01*
X1388400Y760178D01*
X1386843Y758311D01*
X1386133Y758132D01*
X1385589Y757642D01*
X1383171Y757385D01*
X1380814Y756790D01*
X1379922Y757040D01*
X1379407Y756985D01*
X1378734Y757372D01*
X1376852Y757899D01*
X1373797Y759485D01*
X1372990Y759882D01*
X1372943Y759904D01*
X1372899Y759924D01*
X1372898Y759925D01*
X1372035Y760302D01*
X1372033Y760303D01*
X1372032Y760303D01*
X1371936Y760343D01*
X1371065Y760677D01*
X1370972Y760710D01*
X1370103Y761000D01*
X1364363Y762772D01*
X1363915Y762922D01*
X1362872Y763298D01*
X1358239Y764971D01*
X1356237Y765957D01*
X1355854Y766201D01*
X1354607Y767142D01*
X1353849Y767813D01*
X1353067Y768585D01*
X1352328Y769399D01*
X1348708Y773384D01*
X1346291Y778171D01*
X1346281Y778224D01*
X1345931Y780070D01*
X1345842Y780412D01*
X1345785Y780696D01*
X1345813Y780930D01*
X1345589Y782673D01*
X1345589Y786030D01*
X1345257Y787699D01*
X1344223Y792899D01*
X1344223Y792900D01*
X1343646Y793763D01*
X1342774Y795069D01*
X1342621Y795297D01*
X1341303Y798155D01*
X1340778Y800019D01*
X1341022Y806231D01*
X1342095Y808338D01*
X1344223Y811522D01*
X1345589Y818391D01*
X1345589Y820015D01*
X1346671Y824501D01*
X1346657Y824508D01*
X1346689Y824573D01*
X1346695Y824601D01*
X1346921Y825041D01*
X1347294Y825412D01*
X1347364Y825721D01*
X1347393Y825763D01*
X1347543Y825660D01*
X1349072Y827183D01*
X1351192Y829358D01*
X1351270Y829372D01*
X1351326Y829428D01*
X1354324Y829896D01*
X1356313Y830238D01*
X1356313Y830451D01*
X1356502Y830451D01*
X1356913Y830341D01*
X1357319Y830410D01*
X1357323Y830410D01*
X1357762Y830346D01*
X1357748Y830245D01*
X1358271Y829977D01*
X1361532Y829103D01*
X1363090Y828204D01*
X1363619Y827797D01*
X1363627Y827794D01*
X1363627Y827794D01*
X1364845Y827289D01*
X1364854Y827286D01*
X1365516Y827199D01*
X1371257Y825660D01*
X1374884Y824688D01*
X1375182Y824609D01*
X1375182Y824609D01*
X1375473Y824531D01*
X1375473Y824531D01*
X1375473Y824531D01*
X1387106Y824531D01*
X1387106Y824531D01*
X1387694Y824688D01*
X1397657Y827358D01*
X1398342Y827541D01*
X1408416Y833358D01*
X1416642Y841584D01*
X1422458Y851658D01*
X1425469Y862894D01*
X1425469Y874527D01*
X1425317Y875096D01*
X1422459Y885763D01*
X1422458Y885764D01*
X1418602Y892443D01*
X1416642Y895838D01*
X1413737Y898742D01*
X1411887Y901289D01*
X1411272Y902497D01*
X1410299Y908638D01*
X1410380Y909150D01*
X1413203Y914689D01*
X1415048Y916533D01*
X1418169Y919654D01*
X1423985Y929728D01*
X1426996Y940965D01*
X1426996Y952598D01*
X1426996Y952598D01*
X1426897Y952967D01*
X1426897Y952968D01*
X1423985Y963833D01*
X1423985Y963834D01*
X1423985Y963834D01*
X1423169Y965248D01*
X1420589Y969717D01*
X1420588Y969717D01*
X1420409Y970028D01*
X1418169Y973908D01*
X1416882Y975195D01*
X1416344Y975991D01*
X1416247Y976324D01*
X1415712Y977061D01*
X1415371Y977731D01*
X1415054Y979730D01*
X1525469Y979730D01*
X1526939Y972338D01*
X1528624Y969816D01*
X1528756Y969619D01*
X1530074Y966761D01*
X1530501Y965248D01*
X1530386Y959408D01*
X1530071Y958439D01*
X1528868Y955959D01*
X1526939Y953072D01*
X1525469Y945681D01*
X1525469Y941755D01*
X1552239Y941755D01*
X1590339Y941755D01*
X1617109Y941755D01*
X1617109Y945681D01*
X1615639Y953072D01*
X1615137Y953824D01*
X1613822Y955791D01*
X1612505Y958649D01*
X1612241Y959584D01*
X1612078Y960163D01*
X1612192Y966002D01*
X1612507Y966972D01*
X1613709Y969450D01*
X1615639Y972338D01*
X1617109Y979730D01*
X1617109Y983655D01*
X1590339Y983655D01*
X1590339Y941755D01*
X1552239Y941755D01*
X1552239Y983655D01*
X1525469Y983655D01*
X1525469Y979730D01*
X1415054Y979730D01*
X1414796Y981358D01*
X1414621Y981965D01*
X1414676Y982117D01*
X1414398Y983872D01*
X1417221Y989412D01*
X1422760Y992235D01*
X1427669Y991790D01*
X1427684Y991784D01*
X1429379Y991005D01*
X1432429Y989244D01*
X1432430Y989244D01*
X1432430Y989244D01*
X1432430Y989244D01*
X1432431Y989244D01*
X1437447Y987899D01*
X1443376Y986311D01*
X1443376Y986311D01*
X1443667Y986233D01*
X1443667Y986233D01*
X1443667Y986233D01*
X1455299Y986233D01*
X1455300Y986233D01*
X1459366Y987322D01*
X1466224Y989160D01*
X1466707Y989273D01*
X1467016Y989372D01*
X1469907Y990147D01*
X1472009Y992394D01*
X1472178Y992501D01*
X1476610Y995060D01*
X1484836Y1003286D01*
X1490652Y1013360D01*
X1493663Y1024596D01*
X1493663Y1036229D01*
X1491928Y1042705D01*
X1490653Y1047465D01*
X1490652Y1047466D01*
X1489094Y1050165D01*
X1484836Y1057540D01*
X1482646Y1059730D01*
X1525469Y1059730D01*
X1526939Y1052338D01*
X1527420Y1051620D01*
X1528756Y1049619D01*
X1530074Y1046761D01*
X1530501Y1045248D01*
X1530386Y1039408D01*
X1530071Y1038440D01*
X1528868Y1035959D01*
X1526939Y1033072D01*
X1525753Y1027106D01*
X1525469Y1025681D01*
X1525469Y1021755D01*
X1552239Y1021755D01*
X1590339Y1021755D01*
X1617109Y1021755D01*
X1617109Y1025681D01*
X1615639Y1033073D01*
X1613822Y1035792D01*
X1612505Y1038650D01*
X1612291Y1039408D01*
X1612078Y1040163D01*
X1612192Y1046002D01*
X1612507Y1046972D01*
X1613709Y1049451D01*
X1615639Y1052338D01*
X1617109Y1059730D01*
X1617109Y1063655D01*
X1590339Y1063655D01*
X1590339Y1021755D01*
X1552239Y1021755D01*
X1552239Y1063655D01*
X1525469Y1063655D01*
X1525469Y1059730D01*
X1482646Y1059730D01*
X1480717Y1061659D01*
X1479464Y1064118D01*
X1466536Y1071582D01*
X1466535Y1071582D01*
X1455300Y1074593D01*
X1455300Y1074593D01*
X1455300Y1074593D01*
X1443667Y1074593D01*
X1443666Y1074593D01*
X1443666Y1074593D01*
X1432431Y1071582D01*
X1432430Y1071582D01*
X1422356Y1065766D01*
X1422355Y1065765D01*
X1421942Y1065490D01*
X1421920Y1065523D01*
X1420909Y1064856D01*
X1420865Y1064833D01*
X1419910Y1064347D01*
X1419857Y1064308D01*
X1419479Y1064111D01*
X1416743Y1063653D01*
X1414047Y1063004D01*
X1413635Y1063132D01*
X1413347Y1063084D01*
X1412614Y1063449D01*
X1409802Y1064321D01*
X1405661Y1066712D01*
X1405440Y1066843D01*
X1405216Y1066981D01*
X1405002Y1067092D01*
X1400538Y1069670D01*
X1400060Y1069964D01*
X1397029Y1071947D01*
X1397031Y1071952D01*
X1395766Y1072773D01*
X1393821Y1075192D01*
X1391882Y1077588D01*
X1391881Y1077605D01*
X1391870Y1077618D01*
X1391718Y1080728D01*
X1391557Y1083796D01*
X1391686Y1084276D01*
X1394290Y1088784D01*
X1394632Y1089126D01*
X1398240Y1092734D01*
X1434883Y1129377D01*
X1436874Y1131368D01*
X1441312Y1135806D01*
X1448689Y1145960D01*
X1454387Y1157143D01*
X1458266Y1169080D01*
X1460229Y1181477D01*
X1460229Y1182687D01*
X1525454Y1182687D01*
X1525596Y1181969D01*
X1525632Y1181722D01*
X1525609Y1181586D01*
X1525739Y1180258D01*
X1525739Y1139756D01*
X1526005Y1138420D01*
X1527194Y1132444D01*
X1527194Y1132443D01*
X1528918Y1129862D01*
X1530236Y1127004D01*
X1530663Y1125491D01*
X1530548Y1119651D01*
X1530234Y1118683D01*
X1529031Y1116203D01*
X1526940Y1113073D01*
X1526939Y1113073D01*
X1525685Y1106764D01*
X1525469Y1105681D01*
X1525469Y1101755D01*
X1617109Y1101755D01*
X1617109Y1104914D01*
X1617343Y1107069D01*
X1617719Y1108785D01*
X1620830Y1114119D01*
X1620833Y1114122D01*
X1620852Y1114131D01*
X1620862Y1114148D01*
X1620863Y1114149D01*
X1621185Y1114290D01*
X1625975Y1116568D01*
X1627166Y1116756D01*
X1628738Y1116880D01*
X1632237Y1116880D01*
X1632237Y1208520D01*
X1628311Y1208520D01*
X1620919Y1207050D01*
X1620919Y1207050D01*
X1617962Y1205074D01*
X1615104Y1203756D01*
X1613241Y1203231D01*
X1607028Y1203475D01*
X1604921Y1204549D01*
X1604567Y1204786D01*
X1601551Y1206801D01*
X1601551Y1206801D01*
X1595693Y1207966D01*
X1594238Y1208255D01*
X1594238Y1208255D01*
X1592881Y1208255D01*
X1588381Y1209329D01*
X1588379Y1209324D01*
X1588359Y1209334D01*
X1588340Y1209338D01*
X1587764Y1209630D01*
X1587390Y1210001D01*
X1587131Y1210060D01*
X1587106Y1210078D01*
X1587190Y1210200D01*
X1585575Y1211806D01*
X1583957Y1213392D01*
X1583834Y1213304D01*
X1583833Y1213306D01*
X1583736Y1213608D01*
X1583388Y1213950D01*
X1583387Y1213950D01*
X1583103Y1214495D01*
X1583263Y1214579D01*
X1583100Y1215595D01*
X1581959Y1219153D01*
X1581959Y1227529D01*
X1581959Y1227529D01*
X1581959Y1231421D01*
X1581981Y1232076D01*
X1582024Y1232736D01*
X1582088Y1233385D01*
X1582239Y1234537D01*
X1582921Y1239715D01*
X1583178Y1241005D01*
X1583516Y1242269D01*
X1583938Y1243512D01*
X1586001Y1248493D01*
X1586582Y1249671D01*
X1586588Y1249680D01*
X1587236Y1250803D01*
X1587965Y1251895D01*
X1591855Y1256963D01*
X1592268Y1257467D01*
X1592703Y1257963D01*
X1593150Y1258440D01*
X1595904Y1261194D01*
X1595904Y1261194D01*
X1597319Y1262609D01*
X1597319Y1262608D01*
X1597320Y1262611D01*
X1625806Y1291096D01*
X1625806Y1291096D01*
X1628562Y1293852D01*
X1629037Y1294297D01*
X1629533Y1294732D01*
X1630036Y1295145D01*
X1635105Y1299035D01*
X1636197Y1299764D01*
X1637329Y1300418D01*
X1638507Y1300999D01*
X1643488Y1303062D01*
X1644731Y1303484D01*
X1645996Y1303823D01*
X1647284Y1304079D01*
X1652482Y1304763D01*
X1653611Y1304912D01*
X1654266Y1304976D01*
X1654922Y1305019D01*
X1655580Y1305041D01*
X1659371Y1305041D01*
X1660996Y1304908D01*
X1663500Y1304498D01*
X1666650Y1304295D01*
X1670593Y1303208D01*
X1673730Y1301600D01*
X1674822Y1300950D01*
X1674928Y1300877D01*
X1675150Y1300727D01*
X1675174Y1300711D01*
X1675377Y1300578D01*
X1675394Y1300567D01*
X1675400Y1300563D01*
X1675406Y1300559D01*
X1675651Y1300403D01*
X1675663Y1300395D01*
X1675664Y1300395D01*
X1675672Y1300390D01*
X1675677Y1300387D01*
X1675678Y1300386D01*
X1675911Y1300242D01*
X1683194Y1295797D01*
X1687241Y1291078D01*
X1687740Y1284880D01*
X1687438Y1283857D01*
X1687392Y1283725D01*
X1684381Y1272489D01*
X1684381Y1260855D01*
X1684931Y1258800D01*
X1685255Y1256815D01*
X1685333Y1255553D01*
X1686881Y1249680D01*
X1687280Y1248352D01*
X1687331Y1248200D01*
X1687824Y1246888D01*
X1690040Y1241552D01*
X1690687Y1240145D01*
X1690766Y1239989D01*
X1691527Y1238619D01*
X1695653Y1231815D01*
X1695839Y1231497D01*
X1698562Y1226612D01*
X1699808Y1222438D01*
X1700030Y1219373D01*
X1698550Y1213355D01*
X1697885Y1212280D01*
X1697592Y1211806D01*
X1697519Y1211690D01*
X1696228Y1209667D01*
X1691428Y1205715D01*
X1685222Y1205339D01*
X1682158Y1206713D01*
X1681654Y1207050D01*
X1681654Y1207050D01*
X1674262Y1208520D01*
X1670337Y1208520D01*
X1670337Y1116880D01*
X1672306Y1116880D01*
X1673458Y1116814D01*
X1676519Y1116461D01*
X1682174Y1113875D01*
X1685211Y1108542D01*
X1685518Y1107089D01*
X1685734Y1105015D01*
X1685734Y1059756D01*
X1687188Y1052444D01*
X1687423Y1052005D01*
X1687739Y1051620D01*
X1689076Y1049619D01*
X1690393Y1046761D01*
X1690740Y1045531D01*
X1690820Y1045248D01*
X1690705Y1039408D01*
X1690391Y1038440D01*
X1689188Y1035960D01*
X1687188Y1032967D01*
X1687188Y1032967D01*
X1686602Y1030020D01*
X1685734Y1025654D01*
X1685734Y979756D01*
X1685739Y979730D01*
X1687188Y972444D01*
X1687188Y972443D01*
X1689075Y969619D01*
X1690393Y966761D01*
X1690474Y966474D01*
X1690820Y965248D01*
X1690705Y959408D01*
X1690391Y958440D01*
X1689188Y955960D01*
X1687188Y952967D01*
X1687188Y952967D01*
X1685734Y945654D01*
X1685734Y900444D01*
X1685500Y898287D01*
X1685161Y896743D01*
X1682017Y891380D01*
X1676455Y888903D01*
X1673695Y888593D01*
X1672575Y888531D01*
X1670337Y888531D01*
X1670337Y796891D01*
X1674262Y796891D01*
X1674262Y796891D01*
X1681654Y798361D01*
X1684611Y800337D01*
X1687468Y801654D01*
X1688983Y802081D01*
X1694821Y801966D01*
X1695790Y801652D01*
X1698270Y800449D01*
X1701022Y798610D01*
X1708335Y797155D01*
X1713054Y797155D01*
X1714765Y797009D01*
X1715159Y796941D01*
X1716436Y796614D01*
X1721865Y795783D01*
X1721963Y795766D01*
X1722064Y795713D01*
X1724285Y795069D01*
X1725480Y794546D01*
X1730884Y792180D01*
X1732583Y791231D01*
X1741758Y784866D01*
X1742899Y784074D01*
X1743909Y783274D01*
X1744574Y782673D01*
X1749656Y778082D01*
X1752131Y776228D01*
X1753212Y775291D01*
X1758538Y769965D01*
X1760388Y767419D01*
X1761264Y765700D01*
X1762346Y760607D01*
X1762324Y760179D01*
X1762136Y758980D01*
X1762187Y758971D01*
X1762109Y758529D01*
X1762109Y758526D01*
X1762109Y746894D01*
X1765120Y735658D01*
X1765120Y735658D01*
X1765120Y735658D01*
X1770936Y725584D01*
X1772507Y724013D01*
X1774357Y721467D01*
X1774924Y720353D01*
X1775897Y714212D01*
X1773258Y708861D01*
X1772554Y708119D01*
X1770287Y706332D01*
X1761162Y701064D01*
X1752936Y692838D01*
X1752936Y692838D01*
X1747120Y682764D01*
X1747120Y682763D01*
X1744109Y671528D01*
X1744109Y659894D01*
X1747120Y648659D01*
X1747120Y648658D01*
X1752936Y638584D01*
X1752936Y638584D01*
X1761162Y630358D01*
X1761162Y630358D01*
X1761176Y630350D01*
X1771236Y624542D01*
X1771237Y624542D01*
X1771237Y624541D01*
X1781614Y621761D01*
X1782182Y621609D01*
X1782182Y621609D01*
X1782473Y621531D01*
X1782473Y621531D01*
X1782473Y621531D01*
X1794105Y621531D01*
X1794106Y621531D01*
X1794396Y621609D01*
X1799724Y623036D01*
X1805342Y624542D01*
X1815416Y630358D01*
X1823642Y638584D01*
X1829458Y648658D01*
X1832469Y659894D01*
X1832469Y671527D01*
X1832469Y671528D01*
X1832469Y671529D01*
X1832455Y671578D01*
X1831662Y674541D01*
X1829459Y682763D01*
X1829458Y682764D01*
X1826676Y687584D01*
X1823642Y692838D01*
X1822072Y694408D01*
X1820222Y696954D01*
X1819654Y698069D01*
X1818682Y704209D01*
X1821320Y709560D01*
X1822025Y710303D01*
X1824294Y712091D01*
X1824528Y712226D01*
X1824529Y712227D01*
X1833416Y717358D01*
X1841642Y725584D01*
X1847458Y735658D01*
X1847459Y735658D01*
X1847459Y735658D01*
X1850469Y746894D01*
X1850469Y746894D01*
X1850469Y758511D01*
X1850469Y758527D01*
X1850469Y758528D01*
X1847459Y769763D01*
X1847458Y769764D01*
X1846097Y772121D01*
X1845844Y772910D01*
X1845842Y772916D01*
X1845588Y773544D01*
X1842536Y778725D01*
X1841654Y779817D01*
X1841642Y779838D01*
X1841618Y779862D01*
X1840391Y781382D01*
X1840279Y781520D01*
X1838609Y783351D01*
X1838607Y783353D01*
X1838405Y783549D01*
X1837952Y783961D01*
X1836692Y786172D01*
X1825047Y792895D01*
X1825047Y792896D01*
X1823342Y793880D01*
X1823342Y793880D01*
X1823342Y793880D01*
X1821522Y794368D01*
X1820829Y794657D01*
X1820386Y795037D01*
X1819676Y795228D01*
X1817495Y796487D01*
X1815411Y798086D01*
X1804550Y808947D01*
X1803702Y809910D01*
X1803183Y810583D01*
X1803182Y810584D01*
X1803054Y810736D01*
X1802665Y811184D01*
X1802665Y811184D01*
X1802665Y811184D01*
X1802189Y811522D01*
X1802145Y811553D01*
X1800854Y812643D01*
X1795627Y817870D01*
X1794616Y819051D01*
X1792998Y821267D01*
X1787949Y826922D01*
X1787204Y827864D01*
X1782074Y835214D01*
X1781365Y836394D01*
X1779428Y840183D01*
X1778814Y841667D01*
X1778103Y843867D01*
X1777638Y846303D01*
X1777398Y849960D01*
X1777398Y849960D01*
X1777398Y849961D01*
X1777372Y850075D01*
X1777093Y851279D01*
X1776834Y853548D01*
X1776834Y855553D01*
X1777326Y858661D01*
X1777712Y859851D01*
X1778649Y861140D01*
X1778755Y861466D01*
X1779033Y861668D01*
X1781366Y864881D01*
X1787017Y866799D01*
X1788039Y866826D01*
X1790906Y866486D01*
X1794182Y865609D01*
X1794182Y865609D01*
X1794473Y865531D01*
X1794473Y865531D01*
X1794473Y865531D01*
X1806105Y865531D01*
X1806106Y865531D01*
X1806396Y865609D01*
X1817342Y868541D01*
X1817342Y868541D01*
X1817342Y868541D01*
X1827416Y874358D01*
X1835642Y882584D01*
X1841458Y892658D01*
X1844469Y903894D01*
X1844469Y915527D01*
X1844200Y916533D01*
X1841459Y926763D01*
X1841458Y926764D01*
X1839087Y930870D01*
X1835642Y936838D01*
X1834009Y938471D01*
X1832159Y941017D01*
X1831544Y942225D01*
X1831524Y942346D01*
X1830571Y948365D01*
X1830652Y948877D01*
X1833475Y954416D01*
X1838642Y959584D01*
X1844458Y969658D01*
X1847164Y979756D01*
X1847164Y979756D01*
X1847469Y980892D01*
X1847469Y980892D01*
X1847469Y980894D01*
X1847469Y980894D01*
X1847469Y992527D01*
X1847469Y992528D01*
X1844459Y1003763D01*
X1844458Y1003764D01*
X1840767Y1010158D01*
X1838642Y1013838D01*
X1834523Y1017956D01*
X1833270Y1020416D01*
X1821553Y1027181D01*
X1820696Y1027675D01*
X1817786Y1030907D01*
X1817459Y1030642D01*
X1816125Y1030572D01*
X1814904Y1030029D01*
X1813680Y1030125D01*
X1813680Y1030020D01*
X1813679Y1030020D01*
X1811698Y1030281D01*
X1811250Y1030316D01*
X1811226Y1030323D01*
X1811077Y1030362D01*
X1811076Y1030363D01*
X1811076Y1030363D01*
X1811075Y1030363D01*
X1809674Y1030738D01*
X1809106Y1030891D01*
X1809106Y1030891D01*
X1797473Y1030891D01*
X1797473Y1030891D01*
X1797463Y1030888D01*
X1796175Y1030632D01*
X1794878Y1030461D01*
X1793566Y1030375D01*
X1789967Y1030375D01*
X1784054Y1032297D01*
X1783801Y1032487D01*
X1783266Y1032901D01*
X1783159Y1032986D01*
X1776831Y1038034D01*
X1773407Y1043224D01*
X1773687Y1049435D01*
X1774740Y1051486D01*
X1775379Y1052443D01*
X1776834Y1059756D01*
X1776834Y1065193D01*
X1777326Y1068301D01*
X1777585Y1069098D01*
X1777757Y1069335D01*
X1777768Y1069427D01*
X1778024Y1069703D01*
X1781239Y1074128D01*
X1787152Y1076050D01*
X1793065Y1074129D01*
X1793066Y1074128D01*
X1793066Y1074128D01*
X1793413Y1073876D01*
X1796211Y1070768D01*
X1797590Y1068380D01*
X1797590Y1068380D01*
X1800936Y1062584D01*
X1809162Y1054358D01*
X1809162Y1054358D01*
X1818882Y1048746D01*
X1820119Y1047372D01*
X1821669Y1046366D01*
X1822099Y1045246D01*
X1824675Y1046393D01*
X1828330Y1046105D01*
X1830473Y1045531D01*
X1830473Y1045531D01*
X1842105Y1045531D01*
X1842106Y1045531D01*
X1844074Y1046058D01*
X1853030Y1048458D01*
X1853513Y1048571D01*
X1853822Y1048670D01*
X1856789Y1049465D01*
X1859163Y1051902D01*
X1863416Y1054358D01*
X1871642Y1062584D01*
X1877458Y1072658D01*
X1880260Y1083114D01*
X1880469Y1083894D01*
X1880469Y1083895D01*
X1880469Y1095527D01*
X1880469Y1095528D01*
X1877459Y1106763D01*
X1877458Y1106764D01*
X1873877Y1112967D01*
X1871642Y1116838D01*
X1867523Y1120957D01*
X1866270Y1123416D01*
X1853342Y1130880D01*
X1853341Y1130880D01*
X1842106Y1133891D01*
X1842106Y1133891D01*
X1842106Y1133891D01*
X1830473Y1133891D01*
X1830472Y1133891D01*
X1830472Y1133891D01*
X1819237Y1130880D01*
X1819236Y1130880D01*
X1809162Y1125064D01*
X1809162Y1125064D01*
X1800936Y1116838D01*
X1795996Y1108281D01*
X1794930Y1106773D01*
X1793538Y1105145D01*
X1788235Y1101900D01*
X1782037Y1102391D01*
X1777311Y1106432D01*
X1776025Y1109721D01*
X1775946Y1110120D01*
X1775507Y1112324D01*
X1775379Y1112968D01*
X1775379Y1112968D01*
X1773183Y1116254D01*
X1771586Y1120445D01*
X1771554Y1120666D01*
X1771528Y1120940D01*
X1771504Y1121028D01*
X1771447Y1121433D01*
X1771610Y1122355D01*
X1771842Y1125940D01*
X1772177Y1126971D01*
X1773380Y1129451D01*
X1775379Y1132443D01*
X1776834Y1139756D01*
X1776834Y1185654D01*
X1775379Y1192967D01*
X1769838Y1201260D01*
X1763901Y1205227D01*
X1763179Y1205757D01*
X1763117Y1205808D01*
X1762198Y1206571D01*
X1762110Y1206619D01*
X1761692Y1206956D01*
X1761672Y1206986D01*
X1761469Y1207141D01*
X1759940Y1208446D01*
X1759982Y1208495D01*
X1756668Y1213437D01*
X1756620Y1213604D01*
X1756582Y1218122D01*
X1756407Y1218151D01*
X1756487Y1218638D01*
X1756487Y1218639D01*
X1756698Y1221885D01*
X1757804Y1225862D01*
X1759327Y1228801D01*
X1760009Y1229928D01*
X1760156Y1230139D01*
X1760445Y1230565D01*
X1760479Y1230617D01*
X1760784Y1231092D01*
X1765610Y1238851D01*
X1766781Y1241011D01*
X1766899Y1241264D01*
X1767800Y1243538D01*
X1771344Y1254315D01*
X1771643Y1255305D01*
X1771674Y1255419D01*
X1771754Y1257172D01*
X1772741Y1260855D01*
X1772741Y1272488D01*
X1772695Y1272658D01*
X1769730Y1283724D01*
X1769730Y1283725D01*
X1765464Y1291115D01*
X1763914Y1293799D01*
X1757732Y1299980D01*
X1757369Y1300363D01*
X1755324Y1302634D01*
X1755325Y1302634D01*
X1754101Y1303993D01*
X1753869Y1304514D01*
X1751573Y1309673D01*
X1751517Y1310201D01*
X1752230Y1315106D01*
X1752458Y1315657D01*
X1752458Y1315658D01*
X1752775Y1316837D01*
X1755469Y1326894D01*
X1755469Y1326895D01*
X1755469Y1338527D01*
X1755469Y1338527D01*
X1755409Y1338751D01*
X1752459Y1349763D01*
X1752458Y1349764D01*
X1750185Y1353701D01*
X1746642Y1359838D01*
X1742523Y1363957D01*
X1741270Y1366416D01*
X1728342Y1373880D01*
X1728341Y1373880D01*
X1717106Y1376891D01*
X1717106Y1376891D01*
X1717106Y1376891D01*
X1705473Y1376891D01*
X1705472Y1376891D01*
X1704831Y1376719D01*
X1703832Y1376505D01*
X1699930Y1375875D01*
X1699929Y1375874D01*
X1694385Y1374409D01*
X1693703Y1374216D01*
X1693630Y1374194D01*
X1692979Y1373986D01*
X1692897Y1373959D01*
X1692678Y1373880D01*
X1692218Y1373715D01*
X1692216Y1373714D01*
X1692150Y1373690D01*
X1691489Y1373427D01*
X1686276Y1371249D01*
X1685804Y1371041D01*
X1685524Y1370917D01*
X1685523Y1370916D01*
X1685520Y1370915D01*
X1685446Y1370881D01*
X1684731Y1370531D01*
X1684651Y1370490D01*
X1683924Y1370098D01*
X1683849Y1370056D01*
X1683171Y1369656D01*
X1677265Y1366015D01*
X1677262Y1366014D01*
X1676244Y1365386D01*
X1675941Y1365207D01*
X1671143Y1362477D01*
X1666906Y1361188D01*
X1663280Y1360921D01*
X1663279Y1360921D01*
X1660791Y1360513D01*
X1659165Y1360381D01*
X1647415Y1360381D01*
X1633245Y1358136D01*
X1633243Y1358136D01*
X1633240Y1358135D01*
X1619595Y1353702D01*
X1606809Y1347187D01*
X1606809Y1347187D01*
X1606808Y1347186D01*
X1606807Y1347186D01*
X1595200Y1338752D01*
X1595199Y1338752D01*
X1590125Y1333678D01*
X1590125Y1333678D01*
X1587249Y1330801D01*
X1587247Y1330800D01*
X1571678Y1315231D01*
X1556772Y1300325D01*
X1554990Y1298542D01*
X1554989Y1298542D01*
X1548249Y1291802D01*
X1548248Y1291801D01*
X1539814Y1280193D01*
X1539814Y1280192D01*
X1539813Y1280191D01*
X1539813Y1280191D01*
X1533298Y1267405D01*
X1528865Y1253760D01*
X1528864Y1253757D01*
X1528864Y1253755D01*
X1526619Y1239585D01*
X1526619Y1239584D01*
X1526619Y1214017D01*
X1526237Y1211179D01*
X1526619Y1205071D01*
X1526619Y1191564D01*
X1526571Y1190577D01*
X1526474Y1189597D01*
X1526329Y1188622D01*
X1525739Y1185654D01*
X1525691Y1185162D01*
X1525649Y1185167D01*
X1525486Y1183720D01*
X1525455Y1183582D01*
X1525454Y1182687D01*
X1460229Y1182687D01*
X1460229Y1187753D01*
X1460229Y1192855D01*
X1460229Y1278824D01*
X1460721Y1281932D01*
X1461108Y1283122D01*
X1464762Y1288151D01*
X1470412Y1290070D01*
X1471435Y1290096D01*
X1474301Y1289757D01*
X1480183Y1288181D01*
X1480405Y1288115D01*
X1480473Y1288104D01*
X1480473Y1288104D01*
X1492105Y1288104D01*
X1492106Y1288104D01*
X1495751Y1289080D01*
X1499127Y1289985D01*
X1503342Y1291114D01*
X1513416Y1296931D01*
X1521642Y1305157D01*
X1527458Y1315231D01*
X1530469Y1326467D01*
X1530469Y1338100D01*
X1530355Y1338528D01*
X1529931Y1340110D01*
X1529606Y1342119D01*
X1529533Y1343355D01*
X1527934Y1349481D01*
X1527552Y1350768D01*
X1527504Y1350913D01*
X1527046Y1352158D01*
X1526823Y1352708D01*
X1525933Y1354901D01*
X1524814Y1357660D01*
X1524266Y1358893D01*
X1524199Y1359032D01*
X1524198Y1359034D01*
X1523561Y1360245D01*
X1523560Y1360246D01*
X1523560Y1360247D01*
X1520034Y1366437D01*
X1519837Y1366801D01*
X1517147Y1372019D01*
X1516052Y1375955D01*
X1515756Y1380363D01*
X1515599Y1380989D01*
X1515534Y1381249D01*
X1515229Y1383704D01*
X1515229Y1502528D01*
X1633109Y1502528D01*
X1633109Y1490894D01*
X1636120Y1479658D01*
X1636120Y1479658D01*
X1641936Y1469584D01*
X1641936Y1469584D01*
X1650162Y1461358D01*
X1650162Y1461358D01*
X1656186Y1457880D01*
X1656714Y1457575D01*
X1656714Y1457575D01*
X1657143Y1457327D01*
X1660236Y1455541D01*
X1660237Y1455541D01*
X1660237Y1455541D01*
X1667274Y1453656D01*
X1671182Y1452609D01*
X1671182Y1452609D01*
X1671473Y1452531D01*
X1671473Y1452531D01*
X1671473Y1452531D01*
X1683105Y1452531D01*
X1683106Y1452531D01*
X1683396Y1452609D01*
X1691876Y1454881D01*
X1694342Y1455541D01*
X1704416Y1461358D01*
X1712642Y1469584D01*
X1718458Y1479658D01*
X1721469Y1490894D01*
X1721469Y1502527D01*
X1721161Y1503676D01*
X1718459Y1513763D01*
X1718458Y1513764D01*
X1716082Y1517880D01*
X1712642Y1523838D01*
X1708523Y1527956D01*
X1707270Y1530416D01*
X1694342Y1537880D01*
X1694341Y1537880D01*
X1683106Y1540891D01*
X1683106Y1540891D01*
X1683106Y1540891D01*
X1671473Y1540891D01*
X1671472Y1540891D01*
X1671472Y1540891D01*
X1660237Y1537880D01*
X1660236Y1537880D01*
X1650162Y1532064D01*
X1650162Y1532063D01*
X1641936Y1523838D01*
X1641936Y1523838D01*
X1636120Y1513764D01*
X1636120Y1513763D01*
X1633109Y1502528D01*
X1515229Y1502528D01*
X1515229Y1590460D01*
X1515043Y1591121D01*
X1514789Y1592724D01*
X1514460Y1594803D01*
X1514460Y1597949D01*
X1514641Y1599093D01*
X1515364Y1600513D01*
X1515432Y1600943D01*
X1515741Y1601251D01*
X1517464Y1604633D01*
X1523002Y1607455D01*
X1523196Y1607486D01*
X1528129Y1607033D01*
X1528306Y1606970D01*
X1529977Y1606200D01*
X1538215Y1601444D01*
X1538362Y1601359D01*
X1538653Y1601281D01*
X1553469Y1597311D01*
X1553469Y1597311D01*
X1553469Y1597311D01*
X1553469Y1597311D01*
X1569109Y1597311D01*
X1569109Y1597311D01*
X1573429Y1598468D01*
X1583634Y1601203D01*
X1583983Y1601274D01*
X1584561Y1601451D01*
X1585069Y1601587D01*
X1585949Y1602359D01*
X1597762Y1609179D01*
X1608821Y1620238D01*
X1615281Y1631427D01*
X1617261Y1633872D01*
X1618121Y1634647D01*
X1623801Y1637176D01*
X1629882Y1635883D01*
X1630311Y1635636D01*
X1633994Y1631953D01*
X1640757Y1620238D01*
X1651817Y1609179D01*
X1665215Y1601444D01*
X1665362Y1601359D01*
X1665653Y1601281D01*
X1680469Y1597311D01*
X1680469Y1597311D01*
X1680469Y1597311D01*
X1680469Y1597311D01*
X1696109Y1597311D01*
X1696109Y1597311D01*
X1700429Y1598468D01*
X1710634Y1601203D01*
X1710983Y1601274D01*
X1711561Y1601451D01*
X1712069Y1601587D01*
X1712949Y1602359D01*
X1724524Y1609041D01*
X1724984Y1609291D01*
X1725359Y1609483D01*
X1725360Y1609483D01*
X1727211Y1610426D01*
X1733351Y1611400D01*
X1738891Y1608578D01*
X1739160Y1608309D01*
X1741913Y1603158D01*
X1743171Y1596834D01*
X1748463Y1584059D01*
X1748463Y1584059D01*
X1748825Y1583185D01*
X1748825Y1583185D01*
X1748825Y1583185D01*
X1749597Y1582030D01*
X1749597Y1582029D01*
X1751852Y1578655D01*
X1757033Y1570901D01*
X1767480Y1560454D01*
X1779763Y1552247D01*
X1793413Y1546593D01*
X1807902Y1543711D01*
X1807902Y1543711D01*
X1822676Y1543711D01*
X1822676Y1543711D01*
X1837166Y1546593D01*
X1850815Y1552247D01*
X1863099Y1560454D01*
X1873546Y1570901D01*
X1881753Y1583185D01*
X1887407Y1596834D01*
X1890289Y1611324D01*
X1890289Y1626098D01*
X1887407Y1640587D01*
X1881753Y1654236D01*
X1873546Y1666520D01*
X1863099Y1676967D01*
X1850815Y1685175D01*
X1850815Y1685175D01*
X1850815Y1685175D01*
X1850815Y1685175D01*
X1849701Y1685636D01*
X1849701Y1685636D01*
X1844059Y1687973D01*
X1841793Y1689908D01*
X1825328Y1693183D01*
X1822676Y1693711D01*
X1822676Y1693711D01*
X1807902Y1693711D01*
X1807902Y1693711D01*
X1805250Y1693183D01*
X1805250Y1693183D01*
X1793412Y1690829D01*
X1780094Y1685312D01*
X1779879Y1685232D01*
X1779764Y1685175D01*
X1767479Y1676967D01*
X1762691Y1672178D01*
X1760144Y1670328D01*
X1759113Y1669803D01*
X1752972Y1668830D01*
X1747432Y1671653D01*
X1747082Y1672003D01*
X1744479Y1676513D01*
X1743641Y1679638D01*
X1742730Y1681216D01*
X1735821Y1693183D01*
X1735821Y1693183D01*
X1724762Y1704243D01*
X1714667Y1710071D01*
X1713844Y1710546D01*
X1711398Y1712527D01*
X1710623Y1713387D01*
X1708094Y1719067D01*
X1709387Y1725148D01*
X1709635Y1725578D01*
X1713317Y1729259D01*
X1714891Y1730168D01*
X1664295Y1780764D01*
X1661348Y1783711D01*
X1715230Y1783711D01*
X1715230Y1783711D01*
X1715230Y1783711D01*
X1741832Y1757109D01*
X1743893Y1760679D01*
X1744542Y1763100D01*
X1745822Y1765976D01*
X1746452Y1766947D01*
X1751284Y1770859D01*
X1753120Y1770956D01*
X1757493Y1771185D01*
X1757971Y1771057D01*
X1762481Y1768453D01*
X1767480Y1763454D01*
X1779763Y1755247D01*
X1793413Y1749593D01*
X1807902Y1746711D01*
X1807902Y1746711D01*
X1822676Y1746711D01*
X1822676Y1746711D01*
X1837166Y1749593D01*
X1850815Y1755247D01*
X1863099Y1763454D01*
X1873546Y1773901D01*
X1881753Y1786185D01*
X1887407Y1799834D01*
X1890289Y1814324D01*
X1890289Y1829098D01*
X1887407Y1843587D01*
X1881753Y1857236D01*
X1873546Y1869520D01*
X1863099Y1879967D01*
X1850815Y1888175D01*
X1850815Y1888175D01*
X1850815Y1888175D01*
X1850815Y1888175D01*
X1844059Y1890973D01*
X1841793Y1892908D01*
X1825558Y1896137D01*
X1825558Y1896137D01*
X1822676Y1896711D01*
X1822676Y1896711D01*
X1807903Y1896711D01*
X1807902Y1896711D01*
X1805020Y1896137D01*
X1805020Y1896137D01*
X1793413Y1893829D01*
X1780094Y1888312D01*
X1779879Y1888232D01*
X1779764Y1888175D01*
X1767479Y1879967D01*
X1757033Y1869521D01*
X1748825Y1857236D01*
X1748768Y1857121D01*
X1748688Y1856906D01*
X1743171Y1843587D01*
X1740289Y1829098D01*
X1740289Y1814949D01*
X1740055Y1812793D01*
X1739490Y1810215D01*
X1736777Y1805258D01*
X1715230Y1783711D01*
X1661348Y1783711D01*
X1634746Y1810313D01*
X1634142Y1809266D01*
X1632161Y1806819D01*
X1631301Y1806045D01*
X1625621Y1803516D01*
X1619540Y1804809D01*
X1619539Y1804809D01*
X1619539Y1804809D01*
X1619111Y1805056D01*
X1615429Y1808738D01*
X1608821Y1820183D01*
X1597762Y1831243D01*
X1587350Y1837253D01*
X1661687Y1837253D01*
X1661687Y1837253D01*
X1688289Y1810652D01*
X1714891Y1837253D01*
X1714891Y1837253D01*
X1714891Y1837253D01*
X1711321Y1839314D01*
X1711320Y1839315D01*
X1696146Y1843381D01*
X1696145Y1843381D01*
X1680433Y1843381D01*
X1680433Y1843381D01*
X1665258Y1839315D01*
X1665257Y1839314D01*
X1661687Y1837253D01*
X1587350Y1837253D01*
X1584217Y1839063D01*
X1584217Y1839063D01*
X1584216Y1839063D01*
X1569110Y1843111D01*
X1569110Y1843111D01*
X1569109Y1843111D01*
X1553469Y1843111D01*
X1553469Y1843111D01*
X1553468Y1843111D01*
X1538362Y1839063D01*
X1538362Y1839063D01*
X1538362Y1839063D01*
X1527679Y1832895D01*
X1527679Y1832895D01*
X1524817Y1831243D01*
X1513757Y1820183D01*
X1513699Y1820102D01*
X1513606Y1819922D01*
X1507298Y1808995D01*
X1505317Y1806549D01*
X1504457Y1805775D01*
X1498777Y1803246D01*
X1492696Y1804538D01*
X1492267Y1804786D01*
X1488585Y1808468D01*
X1485489Y1813829D01*
X1485489Y1813830D01*
X1482704Y1818654D01*
X1481821Y1820183D01*
X1481821Y1820183D01*
X1481821Y1820183D01*
X1470762Y1831243D01*
X1457217Y1839063D01*
X1457217Y1839063D01*
X1457216Y1839063D01*
X1442110Y1843111D01*
X1442110Y1843111D01*
X1442109Y1843111D01*
X1426469Y1843111D01*
X1426469Y1843111D01*
X1426468Y1843111D01*
X1411362Y1839063D01*
X1411362Y1839063D01*
X1411362Y1839063D01*
X1400679Y1832895D01*
X1400679Y1832895D01*
X1397817Y1831243D01*
X1386757Y1820183D01*
X1386699Y1820102D01*
X1386606Y1819922D01*
X1380298Y1808995D01*
X1378317Y1806549D01*
X1377457Y1805775D01*
X1371777Y1803246D01*
X1365696Y1804538D01*
X1365267Y1804786D01*
X1361585Y1808468D01*
X1358490Y1813829D01*
X1358489Y1813830D01*
X1355704Y1818654D01*
X1354821Y1820183D01*
X1354821Y1820183D01*
X1354821Y1820183D01*
X1343762Y1831243D01*
X1330217Y1839063D01*
X1330217Y1839063D01*
X1330216Y1839063D01*
X1315110Y1843111D01*
X1315110Y1843111D01*
X1315110Y1843111D01*
X1299469Y1843111D01*
X1299469Y1843111D01*
X1299468Y1843111D01*
X1284362Y1839063D01*
X1284362Y1839063D01*
X1284362Y1839063D01*
X1273679Y1832895D01*
X1273679Y1832895D01*
X1270817Y1831243D01*
X1259757Y1820183D01*
X1259699Y1820102D01*
X1259606Y1819922D01*
X1253298Y1808995D01*
X1251317Y1806549D01*
X1250457Y1805775D01*
X1244777Y1803246D01*
X1238696Y1804538D01*
X1238267Y1804786D01*
X1234585Y1808468D01*
X1231490Y1813829D01*
X1231489Y1813830D01*
X1228704Y1818654D01*
X1227821Y1820183D01*
X1227821Y1820183D01*
X1227821Y1820183D01*
X1216762Y1831243D01*
X1203217Y1839063D01*
X1203217Y1839063D01*
X1203216Y1839063D01*
X1188110Y1843111D01*
X1188110Y1843111D01*
X1188110Y1843111D01*
X1172469Y1843111D01*
X1172469Y1843111D01*
X1172469Y1843111D01*
X1172468Y1843111D01*
X1163131Y1840609D01*
X1160001Y1840280D01*
X1157383Y1840417D01*
X1153342Y1841500D01*
X1150984Y1842701D01*
X1137339Y1847135D01*
X1137336Y1847136D01*
X1137334Y1847136D01*
X1137334Y1847136D01*
X1123163Y1849381D01*
X1123163Y1849381D01*
X1123162Y1849381D01*
X1119630Y1849381D01*
X712609Y1849381D01*
X711409Y1849452D01*
X710703Y1849537D01*
X709310Y1849909D01*
X705651Y1850144D01*
X705374Y1850177D01*
X704832Y1850429D01*
X701985Y1851214D01*
X698849Y1852822D01*
X697760Y1853470D01*
X697637Y1853554D01*
X697170Y1853864D01*
X697121Y1853896D01*
X696687Y1854168D01*
X696683Y1854170D01*
X688923Y1858906D01*
X688923Y1858906D01*
X688922Y1858906D01*
X686813Y1860030D01*
X686568Y1860143D01*
X686567Y1860144D01*
X686566Y1860144D01*
X686565Y1860144D01*
X684337Y1861016D01*
X684337Y1861017D01*
X684336Y1861017D01*
X677305Y1863307D01*
X673583Y1864519D01*
X672635Y1864802D01*
X672528Y1864832D01*
X672231Y1864845D01*
X671835Y1864864D01*
X669700Y1865196D01*
X667106Y1865891D01*
X655472Y1865891D01*
X644237Y1862880D01*
X644236Y1862880D01*
X634162Y1857064D01*
X634162Y1857063D01*
X625937Y1848838D01*
X625936Y1848838D01*
X620120Y1838764D01*
X620120Y1838763D01*
X617109Y1827528D01*
X617109Y1815894D01*
X620120Y1804658D01*
X620120Y1804658D01*
X625936Y1794584D01*
X625937Y1794584D01*
X634162Y1786358D01*
X634162Y1786358D01*
X643851Y1780764D01*
X644237Y1780541D01*
X644237Y1780541D01*
X644237Y1780541D01*
X652195Y1778409D01*
X655182Y1777609D01*
X655182Y1777609D01*
X655473Y1777531D01*
X655473Y1777531D01*
X655473Y1777531D01*
X667105Y1777531D01*
X667106Y1777531D01*
X667106Y1777531D01*
X669176Y1778085D01*
X671155Y1778409D01*
X672425Y1778488D01*
X678231Y1780022D01*
X679585Y1780431D01*
X679737Y1780482D01*
X681054Y1780980D01*
X686346Y1783191D01*
X687807Y1783870D01*
X687864Y1783899D01*
X687969Y1783953D01*
X687970Y1783954D01*
X689370Y1784743D01*
X696336Y1789036D01*
X696632Y1789212D01*
X701435Y1791945D01*
X705671Y1793234D01*
X709509Y1793516D01*
X710184Y1793690D01*
X710319Y1793724D01*
X712822Y1794041D01*
X995173Y1794041D01*
X998281Y1793548D01*
X999338Y1793205D01*
X1004368Y1789551D01*
X1006290Y1783638D01*
X1004808Y1778382D01*
X1004502Y1777883D01*
X1003038Y1776025D01*
X994796Y1767784D01*
X994483Y1767197D01*
X994048Y1766547D01*
X994048Y1766546D01*
X986825Y1755736D01*
X986768Y1755621D01*
X986688Y1755406D01*
X981171Y1742088D01*
X978787Y1730098D01*
X977697Y1727146D01*
X977205Y1726267D01*
X972640Y1722047D01*
X966466Y1721316D01*
X961362Y1724022D01*
X961091Y1724290D01*
X960864Y1724514D01*
X959218Y1726644D01*
X955642Y1732838D01*
X951523Y1736956D01*
X950270Y1739416D01*
X937342Y1746880D01*
X937341Y1746880D01*
X926106Y1749891D01*
X926106Y1749891D01*
X926106Y1749891D01*
X914473Y1749891D01*
X914472Y1749891D01*
X914472Y1749891D01*
X903237Y1746880D01*
X903236Y1746880D01*
X893162Y1741064D01*
X893162Y1741063D01*
X884936Y1732838D01*
X884936Y1732838D01*
X879120Y1722764D01*
X879120Y1722763D01*
X876109Y1711528D01*
X876109Y1699894D01*
X879120Y1688658D01*
X879120Y1688658D01*
X884936Y1678584D01*
X891175Y1672345D01*
X892933Y1669974D01*
X894280Y1667455D01*
X895274Y1664676D01*
X895635Y1662864D01*
X895635Y1662864D01*
X899208Y1654236D01*
X901550Y1648584D01*
X901550Y1648583D01*
X901551Y1648582D01*
X901551Y1648582D01*
X909356Y1636901D01*
X910138Y1635731D01*
X912929Y1632940D01*
X915845Y1630024D01*
X921309Y1624559D01*
X934161Y1615972D01*
X934161Y1615972D01*
X934162Y1615971D01*
X948442Y1610056D01*
X963603Y1607041D01*
X967688Y1607041D01*
X1143500Y1607041D01*
X1146104Y1606698D01*
X1148575Y1606036D01*
X1151001Y1605031D01*
X1157086Y1601518D01*
X1157328Y1601368D01*
X1157362Y1601359D01*
X1157362Y1601359D01*
X1157362Y1601359D01*
X1157362Y1601359D01*
X1157362Y1601358D01*
X1172469Y1597311D01*
X1172469Y1597311D01*
X1172469Y1597311D01*
X1172469Y1597311D01*
X1188109Y1597311D01*
X1188109Y1597311D01*
X1188110Y1597311D01*
X1189658Y1597725D01*
X1201763Y1600969D01*
X1203575Y1601281D01*
X1203913Y1601307D01*
X1203913Y1601307D01*
X1205642Y1601444D01*
X1211688Y1599993D01*
X1215726Y1595266D01*
X1215828Y1595020D01*
X1216552Y1590246D01*
X1216546Y1590181D01*
X1216246Y1588501D01*
X1214109Y1580528D01*
X1214109Y1568894D01*
X1217120Y1557658D01*
X1217120Y1557658D01*
X1222936Y1547584D01*
X1224955Y1545565D01*
X1225043Y1545391D01*
X1225214Y1545296D01*
X1226805Y1543018D01*
X1227185Y1542272D01*
X1227434Y1540699D01*
X1227777Y1540026D01*
X1227829Y1539656D01*
X1227924Y1538864D01*
X1227814Y1538302D01*
X1228158Y1536131D01*
X1226902Y1533668D01*
X1226724Y1532763D01*
X1226187Y1532265D01*
X1225335Y1530591D01*
X1223229Y1529519D01*
X1222168Y1528533D01*
X1221024Y1528396D01*
X1219795Y1527769D01*
X1219795Y1527769D01*
X1219509Y1527724D01*
X1217056Y1527917D01*
X1215995Y1527789D01*
X1215553Y1528036D01*
X1214828Y1528093D01*
X1209923Y1529686D01*
X1209920Y1529687D01*
X1209919Y1529688D01*
X1200913Y1531114D01*
X1197524Y1531651D01*
X1197523Y1531651D01*
X1055511Y1531651D01*
X1055511Y1531651D01*
X1052529Y1531178D01*
X1043116Y1529688D01*
X1043115Y1529687D01*
X1043112Y1529686D01*
X1031178Y1525809D01*
X1019996Y1520111D01*
X1019994Y1520110D01*
X1013919Y1515697D01*
X1009840Y1512733D01*
X1009840Y1512733D01*
X1009840Y1512732D01*
X1006637Y1509530D01*
X1006637Y1509530D01*
X1006565Y1509458D01*
X1006560Y1509453D01*
X982621Y1485513D01*
X980074Y1483663D01*
X978866Y1483048D01*
X972727Y1482075D01*
X972222Y1482155D01*
X972222Y1482155D01*
X972216Y1482156D01*
X968024Y1484290D01*
X967842Y1484028D01*
X967820Y1484043D01*
X967814Y1484034D01*
X967813Y1484034D01*
X967717Y1484116D01*
X967180Y1484491D01*
X967123Y1484532D01*
X967120Y1484533D01*
X959776Y1487958D01*
X956238Y1489608D01*
X955411Y1489717D01*
X951280Y1490261D01*
X951279Y1490261D01*
X901300Y1490261D01*
X901300Y1490261D01*
X897167Y1489717D01*
X896340Y1489608D01*
X896340Y1489608D01*
X885459Y1484534D01*
X885458Y1484533D01*
X876967Y1476042D01*
X876966Y1476042D01*
X871892Y1465159D01*
X871892Y1465159D01*
X871239Y1460201D01*
X871239Y1385221D01*
X871534Y1382984D01*
X871892Y1380262D01*
X871892Y1380262D01*
X876429Y1370532D01*
X876682Y1369991D01*
X876967Y1369379D01*
X885458Y1360888D01*
X896341Y1355814D01*
X896341Y1355814D01*
X896341Y1355813D01*
X896341Y1355813D01*
X896408Y1355782D01*
X896555Y1355756D01*
X896993Y1355728D01*
X898820Y1355487D01*
X901299Y1355161D01*
X951279Y1355161D01*
X956238Y1355814D01*
X967121Y1360888D01*
X975612Y1369379D01*
X976852Y1372040D01*
X977566Y1373274D01*
X977551Y1373283D01*
X977682Y1373491D01*
X977682Y1373492D01*
X977683Y1373492D01*
X979661Y1377000D01*
X991000Y1402713D01*
X991497Y1403691D01*
X1000606Y1419433D01*
X1001628Y1420885D01*
X1003494Y1423095D01*
X1008777Y1426372D01*
X1014978Y1425918D01*
X1019728Y1421906D01*
X1021239Y1416603D01*
X1021239Y1385221D01*
X1021534Y1382984D01*
X1021892Y1380262D01*
X1021892Y1380262D01*
X1026429Y1370532D01*
X1026682Y1369991D01*
X1026967Y1369379D01*
X1035458Y1360888D01*
X1046341Y1355814D01*
X1046341Y1355814D01*
X1046341Y1355813D01*
X1046341Y1355813D01*
X1046408Y1355782D01*
X1046555Y1355756D01*
X1046993Y1355728D01*
X1048820Y1355487D01*
X1051299Y1355161D01*
X1072415Y1355161D01*
X1075156Y1354748D01*
X1083979Y1355161D01*
X1085307Y1355161D01*
X1086670Y1355068D01*
X1099005Y1353381D01*
X1101492Y1352708D01*
X1101721Y1352613D01*
X1101722Y1352613D01*
X1113658Y1348734D01*
X1113658Y1348734D01*
X1113659Y1348734D01*
X1113659Y1348734D01*
X1113659Y1348734D01*
X1114010Y1348679D01*
X1114180Y1348631D01*
X1114440Y1348610D01*
X1126055Y1346771D01*
X1126056Y1346771D01*
X1126056Y1346771D01*
X1127926Y1346771D01*
X1128154Y1346760D01*
X1128199Y1346743D01*
X1128792Y1346711D01*
X1129101Y1346677D01*
X1129101Y1346677D01*
X1129101Y1346677D01*
X1129101Y1346677D01*
X1129208Y1346679D01*
X1130474Y1346771D01*
X1332259Y1346771D01*
X1332915Y1346749D01*
X1333573Y1346706D01*
X1334225Y1346642D01*
X1336940Y1346285D01*
X1338227Y1346029D01*
X1339492Y1345690D01*
X1340737Y1345267D01*
X1342345Y1344601D01*
X1343525Y1344019D01*
X1344658Y1343365D01*
X1345750Y1342635D01*
X1347922Y1340969D01*
X1348428Y1340553D01*
X1348923Y1340119D01*
X1349404Y1339669D01*
X1395248Y1293825D01*
X1395698Y1293344D01*
X1396132Y1292849D01*
X1396548Y1292343D01*
X1398213Y1290172D01*
X1398943Y1289079D01*
X1398947Y1289074D01*
X1399598Y1287946D01*
X1400179Y1286767D01*
X1400845Y1285160D01*
X1401268Y1283914D01*
X1401607Y1282650D01*
X1401863Y1281360D01*
X1402145Y1279220D01*
X1402145Y1279220D01*
X1402220Y1278648D01*
X1402285Y1277994D01*
X1402328Y1277339D01*
X1402349Y1276681D01*
X1402349Y1188741D01*
X1402328Y1188084D01*
X1402306Y1187753D01*
X1402285Y1187427D01*
X1402220Y1186773D01*
X1401863Y1184062D01*
X1401607Y1182772D01*
X1401268Y1181509D01*
X1400845Y1180263D01*
X1400179Y1178655D01*
X1399597Y1177475D01*
X1399292Y1176946D01*
X1398944Y1176343D01*
X1398213Y1175249D01*
X1396549Y1173080D01*
X1396132Y1172572D01*
X1395698Y1172077D01*
X1395250Y1171599D01*
X1394954Y1171302D01*
X1394951Y1171299D01*
X1363725Y1140074D01*
X1361178Y1138223D01*
X1359970Y1137608D01*
X1353833Y1136635D01*
X1353565Y1136678D01*
X1348831Y1138775D01*
X1348519Y1139026D01*
X1347048Y1140483D01*
X1345630Y1142211D01*
X1345630Y1142211D01*
X1235449Y1142211D01*
X1236601Y1136417D01*
X1236601Y1136417D01*
X1236956Y1135886D01*
X1237283Y1134727D01*
X1238028Y1133782D01*
X1238107Y1131806D01*
X1238644Y1129902D01*
X1238227Y1128773D01*
X1238275Y1127570D01*
X1237224Y1126055D01*
X1236492Y1124069D01*
X1234822Y1122399D01*
X1234681Y1122287D01*
X1234206Y1121939D01*
X1230028Y1118617D01*
X1229990Y1118586D01*
X1229990Y1118586D01*
X1229955Y1118559D01*
X1228540Y1117453D01*
X1227059Y1116492D01*
X1226472Y1116180D01*
X1226472Y1116180D01*
X1226470Y1116179D01*
X1226470Y1116179D01*
X1226259Y1116052D01*
X1226258Y1116052D01*
X1226146Y1115984D01*
X1226144Y1115987D01*
X1225730Y1115744D01*
X1225585Y1115645D01*
X1225141Y1115301D01*
X1225059Y1115243D01*
X1224462Y1114841D01*
X1224268Y1114694D01*
X1224217Y1114651D01*
X1223991Y1114492D01*
X1223903Y1114465D01*
X1222773Y1113759D01*
X1221426Y1113073D01*
X1219538Y1112111D01*
X1219538Y1112110D01*
X1219187Y1111931D01*
X1219143Y1112018D01*
X1215844Y1110840D01*
X1215500Y1110793D01*
X1209380Y1111892D01*
X1205075Y1116378D01*
X1204855Y1117982D01*
X1203002Y1121270D01*
X1202821Y1121948D01*
X1200459Y1130763D01*
X1200458Y1130764D01*
X1197975Y1135065D01*
X1194642Y1140838D01*
X1190031Y1145449D01*
X1189611Y1146005D01*
X1189086Y1147522D01*
X1176343Y1154880D01*
X1176342Y1154880D01*
X1176342Y1154880D01*
X1176342Y1154880D01*
X1176341Y1154880D01*
X1176339Y1154881D01*
X1175276Y1155166D01*
X1174255Y1155747D01*
X1172401Y1156446D01*
X1171655Y1156930D01*
X1171209Y1157481D01*
X1170853Y1157683D01*
X1170242Y1158280D01*
X1169653Y1159402D01*
X1167742Y1161762D01*
X1167667Y1163185D01*
X1167352Y1163785D01*
X1167561Y1165216D01*
X1167416Y1167971D01*
X1168124Y1169078D01*
X1168250Y1169938D01*
X1169483Y1171201D01*
X1170698Y1173099D01*
X1170833Y1173212D01*
X1171980Y1173759D01*
X1172592Y1174387D01*
X1173687Y1174574D01*
X1175306Y1175346D01*
X1178728Y1176027D01*
X1181612Y1177954D01*
X1185868Y1179561D01*
X1186136Y1179596D01*
X1186346Y1179613D01*
X1186423Y1179635D01*
X1186818Y1179688D01*
X1187683Y1179529D01*
X1191260Y1179284D01*
X1191650Y1179157D01*
X1191650Y1179157D01*
X1192297Y1178947D01*
X1192305Y1178944D01*
X1194785Y1177741D01*
X1197186Y1176137D01*
X1197351Y1176027D01*
X1204220Y1174661D01*
X1204220Y1174661D01*
X1236859Y1174661D01*
X1236859Y1174661D01*
X1236859Y1174661D01*
X1243728Y1176027D01*
X1243728Y1176027D01*
X1243964Y1176125D01*
X1244695Y1176284D01*
X1244784Y1176068D01*
X1247511Y1176895D01*
X1247909Y1176982D01*
X1248260Y1176946D01*
X1250044Y1177211D01*
X1273039Y1177211D01*
X1308039Y1177211D01*
X1345630Y1177211D01*
X1345630Y1177211D01*
X1344477Y1183005D01*
X1339213Y1190884D01*
X1331333Y1196149D01*
X1331333Y1196149D01*
X1324386Y1197531D01*
X1308039Y1197531D01*
X1308039Y1177211D01*
X1273039Y1177211D01*
X1273039Y1195141D01*
X1273039Y1197531D01*
X1268149Y1197531D01*
X1266008Y1198227D01*
X1265344Y1198442D01*
X1260315Y1202096D01*
X1260011Y1202515D01*
X1258089Y1208428D01*
X1258089Y1263530D01*
X1256916Y1269428D01*
X1256867Y1269923D01*
X1256723Y1270399D01*
X1256723Y1270400D01*
X1251518Y1278189D01*
X1251518Y1278189D01*
X1251518Y1278190D01*
X1245376Y1282294D01*
X1245375Y1282294D01*
X1243728Y1283394D01*
X1243728Y1283394D01*
X1243728Y1283394D01*
X1241489Y1283840D01*
X1237918Y1284550D01*
X1237918Y1284550D01*
X1236859Y1284761D01*
X1236859Y1284761D01*
X1236858Y1284761D01*
X1204220Y1284761D01*
X1204220Y1284761D01*
X1204219Y1284761D01*
X1204219Y1284761D01*
X1203898Y1284697D01*
X1203898Y1284697D01*
X1203161Y1284550D01*
X1197351Y1283394D01*
X1193930Y1281109D01*
X1192771Y1280692D01*
X1192550Y1280685D01*
X1192095Y1280475D01*
X1190582Y1280048D01*
X1184742Y1280163D01*
X1183958Y1280417D01*
X1183773Y1280477D01*
X1181293Y1281680D01*
X1178728Y1283394D01*
X1178728Y1283395D01*
X1172918Y1284550D01*
X1171859Y1284761D01*
X1171859Y1284761D01*
X1171858Y1284761D01*
X1139220Y1284761D01*
X1139220Y1284761D01*
X1139219Y1284761D01*
X1139219Y1284761D01*
X1138898Y1284697D01*
X1138898Y1284697D01*
X1138161Y1284550D01*
X1132351Y1283394D01*
X1128930Y1281109D01*
X1127771Y1280692D01*
X1127550Y1280685D01*
X1127095Y1280475D01*
X1125582Y1280048D01*
X1119742Y1280163D01*
X1118958Y1280417D01*
X1118773Y1280477D01*
X1116293Y1281680D01*
X1113728Y1283394D01*
X1113728Y1283395D01*
X1107918Y1284550D01*
X1106859Y1284761D01*
X1106859Y1284761D01*
X1106858Y1284761D01*
X1074220Y1284761D01*
X1074220Y1284761D01*
X1074219Y1284761D01*
X1074219Y1284761D01*
X1073898Y1284697D01*
X1073898Y1284697D01*
X1073161Y1284550D01*
X1067351Y1283394D01*
X1063930Y1281109D01*
X1062771Y1280692D01*
X1062550Y1280685D01*
X1062095Y1280475D01*
X1060582Y1280048D01*
X1054742Y1280163D01*
X1053958Y1280417D01*
X1053773Y1280477D01*
X1051293Y1281680D01*
X1048728Y1283394D01*
X1048728Y1283395D01*
X1042918Y1284550D01*
X1041859Y1284761D01*
X1041859Y1284761D01*
X1041858Y1284761D01*
X1009220Y1284761D01*
X1009220Y1284761D01*
X1009219Y1284761D01*
X1009219Y1284761D01*
X1008898Y1284697D01*
X1008898Y1284697D01*
X1008161Y1284550D01*
X1002350Y1283394D01*
X998930Y1281109D01*
X997771Y1280692D01*
X997550Y1280685D01*
X997095Y1280475D01*
X995582Y1280048D01*
X989742Y1280163D01*
X988958Y1280417D01*
X988773Y1280477D01*
X986293Y1281680D01*
X983728Y1283394D01*
X983728Y1283395D01*
X977918Y1284550D01*
X976859Y1284761D01*
X976859Y1284761D01*
X976858Y1284761D01*
X944220Y1284761D01*
X944220Y1284761D01*
X944219Y1284761D01*
X944219Y1284761D01*
X943898Y1284697D01*
X943898Y1284697D01*
X943161Y1284550D01*
X937350Y1283394D01*
X933930Y1281109D01*
X932771Y1280692D01*
X932550Y1280685D01*
X932095Y1280475D01*
X930582Y1280048D01*
X924742Y1280163D01*
X923958Y1280417D01*
X923773Y1280477D01*
X921293Y1281680D01*
X918728Y1283394D01*
X918728Y1283395D01*
X912918Y1284550D01*
X911859Y1284761D01*
X911859Y1284761D01*
X911858Y1284761D01*
X879220Y1284761D01*
X879220Y1284761D01*
X879219Y1284761D01*
X879219Y1284761D01*
X878898Y1284697D01*
X878898Y1284697D01*
X878161Y1284550D01*
X872350Y1283394D01*
X868930Y1281109D01*
X867771Y1280692D01*
X867550Y1280685D01*
X867095Y1280475D01*
X865582Y1280048D01*
X859742Y1280163D01*
X858958Y1280417D01*
X858773Y1280477D01*
X856293Y1281680D01*
X853728Y1283394D01*
X853728Y1283395D01*
X847918Y1284550D01*
X846859Y1284761D01*
X846859Y1284761D01*
X846858Y1284761D01*
X814220Y1284761D01*
X814220Y1284761D01*
X814219Y1284761D01*
X814219Y1284761D01*
X813161Y1284550D01*
X807350Y1283394D01*
X799561Y1278190D01*
X794355Y1270399D01*
X792989Y1263530D01*
X792989Y1209184D01*
X792497Y1206075D01*
X792078Y1204786D01*
X788425Y1199758D01*
X788175Y1199576D01*
X788006Y1199453D01*
X782093Y1197531D01*
X778039Y1197531D01*
X778039Y1177211D01*
X801035Y1177211D01*
X803170Y1176982D01*
X803568Y1176895D01*
X806295Y1176068D01*
X806384Y1176284D01*
X807115Y1176125D01*
X807350Y1176027D01*
X807350Y1176027D01*
X814220Y1174661D01*
X814220Y1174661D01*
X846859Y1174661D01*
X846859Y1174661D01*
X853728Y1176027D01*
X856126Y1177629D01*
X858983Y1178947D01*
X860497Y1179374D01*
X866337Y1179259D01*
X867306Y1178944D01*
X869785Y1177741D01*
X872350Y1176027D01*
X879220Y1174661D01*
X879220Y1174661D01*
X911859Y1174661D01*
X911859Y1174661D01*
X918728Y1176027D01*
X921126Y1177629D01*
X923983Y1178947D01*
X925497Y1179374D01*
X931337Y1179259D01*
X932306Y1178944D01*
X934785Y1177741D01*
X937350Y1176027D01*
X944220Y1174661D01*
X944220Y1174661D01*
X976859Y1174661D01*
X976859Y1174661D01*
X983728Y1176027D01*
X986126Y1177629D01*
X988983Y1178947D01*
X990497Y1179374D01*
X996337Y1179259D01*
X997306Y1178944D01*
X999785Y1177741D01*
X1002350Y1176027D01*
X1009220Y1174661D01*
X1009220Y1174661D01*
X1041859Y1174661D01*
X1041859Y1174661D01*
X1048728Y1176027D01*
X1051126Y1177629D01*
X1053983Y1178947D01*
X1055497Y1179374D01*
X1061337Y1179259D01*
X1062306Y1178944D01*
X1064785Y1177741D01*
X1067351Y1176027D01*
X1074220Y1174661D01*
X1074220Y1174661D01*
X1106859Y1174661D01*
X1106859Y1174661D01*
X1113728Y1176027D01*
X1116126Y1177629D01*
X1118983Y1178947D01*
X1120847Y1179472D01*
X1127059Y1179228D01*
X1129166Y1178155D01*
X1132351Y1176027D01*
X1139220Y1174661D01*
X1139220Y1174661D01*
X1139712Y1174612D01*
X1139698Y1174476D01*
X1143450Y1173545D01*
X1143635Y1173450D01*
X1144140Y1172940D01*
X1144758Y1172739D01*
X1144849Y1172673D01*
X1145009Y1172554D01*
X1146232Y1170831D01*
X1148012Y1169035D01*
X1148153Y1168123D01*
X1148607Y1167483D01*
X1148583Y1165330D01*
X1148959Y1162890D01*
X1148546Y1162089D01*
X1148537Y1161266D01*
X1147191Y1159456D01*
X1146113Y1157363D01*
X1146089Y1157339D01*
X1145097Y1156641D01*
X1144827Y1156277D01*
X1144384Y1156139D01*
X1143337Y1155402D01*
X1142611Y1155056D01*
X1142607Y1155063D01*
X1142374Y1154942D01*
X1142237Y1154881D01*
X1132162Y1149064D01*
X1123937Y1140838D01*
X1123936Y1140838D01*
X1119590Y1133309D01*
X1118120Y1130764D01*
X1118120Y1130763D01*
X1117606Y1128844D01*
X1115109Y1119528D01*
X1115109Y1107894D01*
X1115881Y1105015D01*
X1118120Y1096658D01*
X1118120Y1096658D01*
X1118120Y1096658D01*
X1118624Y1095786D01*
X1118934Y1094949D01*
X1118955Y1094462D01*
X1119344Y1093538D01*
X1119580Y1092430D01*
X1119192Y1088742D01*
X1119192Y1088737D01*
X1119191Y1088736D01*
X1118930Y1086246D01*
X1114771Y1081627D01*
X1114342Y1081379D01*
X1109311Y1080031D01*
X1044589Y1080031D01*
X1044589Y849391D01*
X1144115Y849391D01*
X1144115Y849391D01*
X1151150Y850790D01*
X1153808Y852566D01*
X1156665Y853883D01*
X1157970Y854251D01*
X1164181Y854008D01*
X1164386Y853932D01*
X1168682Y850875D01*
X1168993Y850496D01*
X1170180Y848681D01*
X1172270Y844580D01*
X1172270Y844580D01*
X1176137Y839256D01*
X1179647Y834426D01*
X1183172Y830901D01*
X1184400Y829672D01*
X1187641Y826432D01*
X1187641Y826432D01*
X1189384Y824688D01*
X1198898Y817776D01*
X1198899Y817776D01*
X1199538Y817311D01*
X1210721Y811613D01*
X1210721Y811613D01*
X1210722Y811613D01*
X1216260Y809813D01*
X1222659Y807734D01*
X1228013Y806886D01*
X1228447Y806777D01*
X1228797Y806558D01*
X1230564Y805984D01*
X1231717Y805396D01*
X1233514Y803599D01*
X1233714Y803474D01*
X1233764Y803349D01*
X1236113Y801000D01*
X1237140Y795250D01*
X1236918Y793371D01*
X1236794Y792591D01*
X1235489Y786030D01*
X1235489Y766414D01*
X1234997Y763305D01*
X1234846Y762842D01*
X1234578Y762016D01*
X1230925Y756987D01*
X1230675Y756806D01*
X1230506Y756683D01*
X1224594Y754761D01*
X1204220Y754761D01*
X1203080Y754534D01*
X1203080Y754534D01*
X1203079Y754534D01*
X1197351Y753394D01*
X1194953Y751792D01*
X1192095Y750475D01*
X1190582Y750048D01*
X1184742Y750163D01*
X1184274Y750315D01*
X1183773Y750477D01*
X1181293Y751680D01*
X1178728Y753394D01*
X1178728Y753394D01*
X1175051Y754126D01*
X1173225Y754489D01*
X1173225Y754489D01*
X1171859Y754761D01*
X1171859Y754761D01*
X1139220Y754761D01*
X1138080Y754534D01*
X1138080Y754534D01*
X1138079Y754534D01*
X1132351Y753394D01*
X1129953Y751792D01*
X1127095Y750475D01*
X1125582Y750048D01*
X1119742Y750163D01*
X1119274Y750315D01*
X1118773Y750477D01*
X1116293Y751680D01*
X1113728Y753394D01*
X1113728Y753394D01*
X1110051Y754126D01*
X1108225Y754489D01*
X1108225Y754489D01*
X1106859Y754761D01*
X1106859Y754761D01*
X1074220Y754761D01*
X1073080Y754534D01*
X1073080Y754534D01*
X1073079Y754534D01*
X1067351Y753394D01*
X1064953Y751792D01*
X1062095Y750475D01*
X1060582Y750048D01*
X1054742Y750163D01*
X1054274Y750315D01*
X1053773Y750477D01*
X1051293Y751680D01*
X1048728Y753394D01*
X1048728Y753394D01*
X1045051Y754126D01*
X1043225Y754489D01*
X1043225Y754489D01*
X1041859Y754761D01*
X1041859Y754761D01*
X1009220Y754761D01*
X1008080Y754534D01*
X1008079Y754534D01*
X1008079Y754534D01*
X1002350Y753394D01*
X999953Y751792D01*
X997095Y750475D01*
X995582Y750048D01*
X989742Y750163D01*
X989274Y750315D01*
X988773Y750477D01*
X986293Y751680D01*
X983728Y753394D01*
X983728Y753394D01*
X980051Y754126D01*
X978225Y754489D01*
X978225Y754489D01*
X976859Y754761D01*
X976859Y754761D01*
X944220Y754761D01*
X943080Y754534D01*
X943079Y754534D01*
X943079Y754534D01*
X937350Y753394D01*
X934953Y751792D01*
X932095Y750475D01*
X930582Y750048D01*
X924742Y750163D01*
X924274Y750315D01*
X923773Y750477D01*
X921293Y751680D01*
X918728Y753394D01*
X918728Y753394D01*
X915051Y754126D01*
X913225Y754489D01*
X913225Y754489D01*
X911859Y754761D01*
X911859Y754761D01*
X879220Y754761D01*
X878080Y754534D01*
X878079Y754534D01*
X878079Y754534D01*
X872350Y753394D01*
X869953Y751792D01*
X867095Y750475D01*
X865582Y750048D01*
X859742Y750163D01*
X859274Y750315D01*
X858773Y750477D01*
X856293Y751680D01*
X853728Y753394D01*
X853728Y753394D01*
X850051Y754126D01*
X848225Y754489D01*
X848225Y754489D01*
X846859Y754761D01*
X846859Y754761D01*
X846859Y754761D01*
X827243Y754761D01*
X824134Y755253D01*
X823267Y755535D01*
X822844Y755672D01*
X822119Y756199D01*
X817815Y759326D01*
X817511Y759745D01*
X815589Y765658D01*
X815589Y786030D01*
X815257Y787699D01*
X814223Y792899D01*
X814208Y792921D01*
X813646Y793763D01*
X812621Y795297D01*
X811421Y797767D01*
X811358Y797959D01*
X811152Y798693D01*
X811063Y798865D01*
X810869Y799459D01*
X810866Y802278D01*
X810695Y805102D01*
X810751Y805317D01*
X810863Y805566D01*
X810863Y805677D01*
X810993Y805856D01*
X812125Y808382D01*
X814223Y811522D01*
X814226Y811538D01*
X814259Y811609D01*
X814602Y812437D01*
X814636Y812423D01*
X816156Y815710D01*
X816145Y815718D01*
X816183Y815769D01*
X816209Y815825D01*
X816626Y816351D01*
X816902Y816534D01*
X816962Y816672D01*
X817045Y816756D01*
X817122Y816680D01*
X819118Y818006D01*
X821573Y819723D01*
X821576Y819724D01*
X821970Y819844D01*
X825625Y820256D01*
X825913Y820235D01*
X827795Y819918D01*
X829383Y819493D01*
X832972Y818531D01*
X832973Y818531D01*
X844606Y818531D01*
X844606Y818531D01*
X845024Y818643D01*
X847204Y819227D01*
X851030Y820252D01*
X855842Y821541D01*
X865916Y827358D01*
X874142Y835584D01*
X879958Y845658D01*
X880111Y846228D01*
X881392Y849104D01*
X882022Y850075D01*
X886854Y853988D01*
X893062Y854313D01*
X894118Y854030D01*
X897103Y852678D01*
X899928Y850790D01*
X906964Y849391D01*
X1006489Y849391D01*
X1006489Y945661D01*
X885219Y945661D01*
X885219Y904641D01*
X884726Y901531D01*
X884645Y901280D01*
X880990Y896251D01*
X875076Y894330D01*
X870048Y895678D01*
X855842Y903880D01*
X855841Y903880D01*
X844606Y906891D01*
X844606Y906891D01*
X844606Y906891D01*
X832973Y906891D01*
X832973Y906891D01*
X832972Y906891D01*
X832972Y906891D01*
X832971Y906890D01*
X829792Y906038D01*
X826661Y905710D01*
X826268Y905730D01*
X825308Y905780D01*
X819505Y908008D01*
X819319Y908158D01*
X815932Y913372D01*
X815647Y915539D01*
X815638Y915538D01*
X815610Y915817D01*
X815589Y915977D01*
X815589Y916030D01*
X815407Y916945D01*
X814223Y922899D01*
X813879Y923414D01*
X812231Y925881D01*
X810635Y930193D01*
X810632Y930193D01*
X810630Y930207D01*
X810607Y930270D01*
X810537Y930849D01*
X810537Y930870D01*
X810533Y930886D01*
X810509Y931090D01*
X810563Y931366D01*
X810535Y931437D01*
X810535Y931558D01*
X810601Y931558D01*
X810891Y933032D01*
X811294Y935448D01*
X811002Y935543D01*
X811244Y936287D01*
X811244Y936287D01*
X811306Y936476D01*
X812509Y938957D01*
X813850Y940964D01*
X814223Y941522D01*
X815589Y948391D01*
X815589Y981030D01*
X814223Y987899D01*
X812621Y990297D01*
X811303Y993155D01*
X810876Y994668D01*
X810991Y1000507D01*
X811306Y1001476D01*
X812509Y1003957D01*
X814223Y1006522D01*
X815589Y1013391D01*
X815589Y1046030D01*
X814223Y1052900D01*
X813491Y1053995D01*
X812621Y1055297D01*
X811303Y1058155D01*
X810876Y1059668D01*
X810991Y1065507D01*
X811306Y1066477D01*
X812509Y1068957D01*
X814223Y1071522D01*
X815589Y1078391D01*
X815589Y1108293D01*
X853693Y1108293D01*
X853693Y1096659D01*
X856704Y1085424D01*
X856704Y1085423D01*
X859690Y1080252D01*
X859690Y1080252D01*
X859691Y1080251D01*
X862521Y1075349D01*
X870746Y1067123D01*
X878644Y1062564D01*
X878809Y1062468D01*
X881255Y1060488D01*
X882546Y1059055D01*
X884910Y1054415D01*
X884999Y1053995D01*
X885061Y1053405D01*
X885075Y1053375D01*
X885068Y1053343D01*
X885219Y1051902D01*
X885219Y983761D01*
X1006489Y983761D01*
X1006489Y1076759D01*
X1006832Y1079363D01*
X1007494Y1081835D01*
X1008499Y1084260D01*
X1009958Y1086788D01*
X1011307Y1091820D01*
X1012191Y1095121D01*
X1012603Y1096658D01*
X1012969Y1098024D01*
X1012969Y1098025D01*
X1012969Y1109657D01*
X1012969Y1109658D01*
X1009959Y1120893D01*
X1009958Y1120894D01*
X1009931Y1120940D01*
X1009678Y1121379D01*
X1008218Y1123909D01*
X1004142Y1130968D01*
X999491Y1135619D01*
X999044Y1136224D01*
X998563Y1137665D01*
X985842Y1145010D01*
X985841Y1145010D01*
X974606Y1148021D01*
X974606Y1148021D01*
X974606Y1148021D01*
X962973Y1148021D01*
X962972Y1148021D01*
X962972Y1148021D01*
X951737Y1145010D01*
X951736Y1145010D01*
X941662Y1139193D01*
X940889Y1138420D01*
X938343Y1136571D01*
X937280Y1136029D01*
X931139Y1135057D01*
X927683Y1136281D01*
X914926Y1143646D01*
X914926Y1143646D01*
X903690Y1146656D01*
X903690Y1146656D01*
X903690Y1146656D01*
X892057Y1146656D01*
X892057Y1146656D01*
X892056Y1146656D01*
X880821Y1143646D01*
X880820Y1143646D01*
X870746Y1137829D01*
X870746Y1137829D01*
X862521Y1129603D01*
X862520Y1129603D01*
X856704Y1119529D01*
X856704Y1119529D01*
X853693Y1108293D01*
X815589Y1108293D01*
X815589Y1111030D01*
X814223Y1117900D01*
X811898Y1121379D01*
X811039Y1124426D01*
X811153Y1130264D01*
X811468Y1131235D01*
X812671Y1133714D01*
X814477Y1136417D01*
X815630Y1142211D01*
X705449Y1142211D01*
X705680Y1141046D01*
X705804Y1137901D01*
X705645Y1136555D01*
X703098Y1130970D01*
X703095Y1130967D01*
X703058Y1130945D01*
X703041Y1130908D01*
X702462Y1130584D01*
X698192Y1128000D01*
X697374Y1127787D01*
X694834Y1127461D01*
X663580Y1127461D01*
X662923Y1127482D01*
X662266Y1127525D01*
X661613Y1127590D01*
X660899Y1127684D01*
X659755Y1127834D01*
X656600Y1128250D01*
X655309Y1128506D01*
X654828Y1128635D01*
X654047Y1128845D01*
X652801Y1129268D01*
X649189Y1130764D01*
X649189Y1130764D01*
X649188Y1130764D01*
X649049Y1130821D01*
X647870Y1131403D01*
X646737Y1132057D01*
X645643Y1132788D01*
X641632Y1135866D01*
X641125Y1136282D01*
X640630Y1136716D01*
X640149Y1137166D01*
X619512Y1157804D01*
X618964Y1158397D01*
X618751Y1158648D01*
X616771Y1161309D01*
X612314Y1166211D01*
X612207Y1166338D01*
X612185Y1166390D01*
X611616Y1167103D01*
X609936Y1169513D01*
X609189Y1170770D01*
X609112Y1170924D01*
X606539Y1176071D01*
X606478Y1176196D01*
X605990Y1177211D01*
X705449Y1177211D01*
X705449Y1177211D01*
X705449Y1177211D01*
X743039Y1177211D01*
X743039Y1197531D01*
X726693Y1197531D01*
X726693Y1197531D01*
X725540Y1197302D01*
X719745Y1196149D01*
X711866Y1190884D01*
X706601Y1183005D01*
X706601Y1183005D01*
X705449Y1177211D01*
X605990Y1177211D01*
X603144Y1183127D01*
X602921Y1183577D01*
X602897Y1183625D01*
X602847Y1183720D01*
X602684Y1184029D01*
X602662Y1184070D01*
X602443Y1184466D01*
X602419Y1184508D01*
X602418Y1184511D01*
X602172Y1184933D01*
X597222Y1193184D01*
X594844Y1196365D01*
X594163Y1197544D01*
X589834Y1201873D01*
X589637Y1202094D01*
X588736Y1204154D01*
X575863Y1211587D01*
X575862Y1211587D01*
X564627Y1214597D01*
X564627Y1214597D01*
X564626Y1214597D01*
X552993Y1214597D01*
X552993Y1214597D01*
X552993Y1214597D01*
X541757Y1211587D01*
X541756Y1211586D01*
X536254Y1208410D01*
X533315Y1207281D01*
X532183Y1207041D01*
X526000Y1207691D01*
X521380Y1211851D01*
X521379Y1211852D01*
X521379Y1211852D01*
X521132Y1212280D01*
X519784Y1217310D01*
X519784Y1220842D01*
X519784Y1220842D01*
X519784Y1220843D01*
X517179Y1230565D01*
X516774Y1232078D01*
X516773Y1232079D01*
X512463Y1239545D01*
X510957Y1242153D01*
X506838Y1246272D01*
X505585Y1248731D01*
X492658Y1256195D01*
X492657Y1256195D01*
X492657Y1256195D01*
X492657Y1256195D01*
X492656Y1256195D01*
X492655Y1256196D01*
X486773Y1257772D01*
X484767Y1258548D01*
X483855Y1259018D01*
X483683Y1259192D01*
X483445Y1259346D01*
X483463Y1259374D01*
X482133Y1260142D01*
X482030Y1260225D01*
X480834Y1262068D01*
X479480Y1263435D01*
X479336Y1264377D01*
X478645Y1265440D01*
X478780Y1268000D01*
X478537Y1269581D01*
X478900Y1270284D01*
X478926Y1270783D01*
X478720Y1270838D01*
X478817Y1271200D01*
X478961Y1271451D01*
X478972Y1271649D01*
X479046Y1271843D01*
X479162Y1271799D01*
X481420Y1275711D01*
X490391Y1284682D01*
X490392Y1284682D01*
X490393Y1284683D01*
X490393Y1284683D01*
X491806Y1286096D01*
X491806Y1286096D01*
X494560Y1288850D01*
X495037Y1289297D01*
X495533Y1289732D01*
X496037Y1290145D01*
X501105Y1294035D01*
X502197Y1294764D01*
X503329Y1295418D01*
X504507Y1295999D01*
X509488Y1298062D01*
X510731Y1298484D01*
X511996Y1298823D01*
X513284Y1299079D01*
X519614Y1299912D01*
X520264Y1299976D01*
X520924Y1300019D01*
X521580Y1300041D01*
X525471Y1300041D01*
X525471Y1300041D01*
X568429Y1300041D01*
X571537Y1299549D01*
X573372Y1298953D01*
X577739Y1296116D01*
X578026Y1295798D01*
X578028Y1295796D01*
X578375Y1295318D01*
X578401Y1295298D01*
X578411Y1295267D01*
X579263Y1294095D01*
X582158Y1289081D01*
X582162Y1289074D01*
X586281Y1284955D01*
X587534Y1282496D01*
X590388Y1280848D01*
X595894Y1277669D01*
X600462Y1275032D01*
X600462Y1275032D01*
X600463Y1275031D01*
X611408Y1272099D01*
X611630Y1272032D01*
X611699Y1272021D01*
X611699Y1272021D01*
X623331Y1272021D01*
X623332Y1272021D01*
X625711Y1272658D01*
X628950Y1273526D01*
X634568Y1275032D01*
X644642Y1280848D01*
X652868Y1289074D01*
X658684Y1299148D01*
X661695Y1310384D01*
X661695Y1322017D01*
X660503Y1326467D01*
X658684Y1333253D01*
X658684Y1333254D01*
X654846Y1339902D01*
X652868Y1343328D01*
X648749Y1347447D01*
X647496Y1349906D01*
X634568Y1357370D01*
X634567Y1357370D01*
X623332Y1360381D01*
X623332Y1360381D01*
X623332Y1360381D01*
X611699Y1360381D01*
X611698Y1360381D01*
X611698Y1360381D01*
X600463Y1357370D01*
X600462Y1357370D01*
X600138Y1357213D01*
X600127Y1357237D01*
X598072Y1356386D01*
X595601Y1355724D01*
X592997Y1355381D01*
X533971Y1355381D01*
X530862Y1355873D01*
X529804Y1356217D01*
X524775Y1359872D01*
X522854Y1365785D01*
X523339Y1367504D01*
X523283Y1367856D01*
X523630Y1368538D01*
X524336Y1371040D01*
X524642Y1371539D01*
X526106Y1373396D01*
X526391Y1373681D01*
X526391Y1373681D01*
X526391Y1373682D01*
X526392Y1373682D01*
X526392Y1373682D01*
X527806Y1375096D01*
X527806Y1375096D01*
X530560Y1377850D01*
X531037Y1378297D01*
X531533Y1378732D01*
X532037Y1379145D01*
X537105Y1383035D01*
X538197Y1383764D01*
X539329Y1384418D01*
X540508Y1384999D01*
X545488Y1387062D01*
X546731Y1387484D01*
X547996Y1387823D01*
X549284Y1388079D01*
X555614Y1388912D01*
X556264Y1388976D01*
X556924Y1389019D01*
X557580Y1389041D01*
X561471Y1389041D01*
X561471Y1389041D01*
X663369Y1389041D01*
X664462Y1388981D01*
X664730Y1388952D01*
X667500Y1388498D01*
X670874Y1388281D01*
X671096Y1388257D01*
X671580Y1388039D01*
X674593Y1387208D01*
X677730Y1385600D01*
X678822Y1384950D01*
X678928Y1384877D01*
X679150Y1384727D01*
X679174Y1384711D01*
X679377Y1384578D01*
X679395Y1384567D01*
X679400Y1384563D01*
X679406Y1384559D01*
X679651Y1384403D01*
X679663Y1384395D01*
X679664Y1384395D01*
X679672Y1384390D01*
X679677Y1384387D01*
X679678Y1384386D01*
X679911Y1384242D01*
X682835Y1382457D01*
X687596Y1379552D01*
X688625Y1378964D01*
X688743Y1378901D01*
X689824Y1378364D01*
X689946Y1378308D01*
X691051Y1377838D01*
X691052Y1377837D01*
X691179Y1377788D01*
X692308Y1377383D01*
X702814Y1373962D01*
X707197Y1373107D01*
X707312Y1373085D01*
X707990Y1372928D01*
X709182Y1372609D01*
X709426Y1372535D01*
X709458Y1372531D01*
X709473Y1372531D01*
X709473Y1372531D01*
X721105Y1372531D01*
X721106Y1372531D01*
X722588Y1372928D01*
X728116Y1374409D01*
X732342Y1375542D01*
X742416Y1381358D01*
X750642Y1389584D01*
X756458Y1399658D01*
X758514Y1407331D01*
X759469Y1410894D01*
X759469Y1410894D01*
X759469Y1422527D01*
X759469Y1422528D01*
X756459Y1433763D01*
X756458Y1433764D01*
X754185Y1437701D01*
X750642Y1443838D01*
X746523Y1447957D01*
X745270Y1450416D01*
X732342Y1457880D01*
X732341Y1457880D01*
X721106Y1460891D01*
X721106Y1460891D01*
X721106Y1460891D01*
X709473Y1460891D01*
X709472Y1460891D01*
X708831Y1460719D01*
X707832Y1460505D01*
X703930Y1459875D01*
X703929Y1459874D01*
X698385Y1458409D01*
X697703Y1458216D01*
X697630Y1458194D01*
X696979Y1457986D01*
X696897Y1457958D01*
X696678Y1457880D01*
X696219Y1457715D01*
X696216Y1457714D01*
X696150Y1457689D01*
X695489Y1457427D01*
X690276Y1455249D01*
X689735Y1455010D01*
X689524Y1454917D01*
X689523Y1454916D01*
X689520Y1454915D01*
X689446Y1454881D01*
X688731Y1454531D01*
X688651Y1454490D01*
X687924Y1454098D01*
X687849Y1454056D01*
X687172Y1453656D01*
X681265Y1450015D01*
X681263Y1450014D01*
X680244Y1449386D01*
X679941Y1449207D01*
X675143Y1446477D01*
X670907Y1445187D01*
X667280Y1444921D01*
X667279Y1444921D01*
X664791Y1444513D01*
X663165Y1444381D01*
X549415Y1444381D01*
X535245Y1442136D01*
X535243Y1442136D01*
X535240Y1442135D01*
X521595Y1437701D01*
X508809Y1431187D01*
X508809Y1431187D01*
X508808Y1431186D01*
X508807Y1431186D01*
X497199Y1422752D01*
X492438Y1417990D01*
X492125Y1417678D01*
X489249Y1414801D01*
X489247Y1414800D01*
X370194Y1295747D01*
X251772Y1177325D01*
X251772Y1177325D01*
X249316Y1174869D01*
X249316Y1174869D01*
X243248Y1168801D01*
X234814Y1157193D01*
X234814Y1157192D01*
X234813Y1157191D01*
X234813Y1157191D01*
X228298Y1144405D01*
X223865Y1130760D01*
X223864Y1130757D01*
X223864Y1130755D01*
X221619Y1116585D01*
X15050Y1116585D01*
X15050Y1295528D01*
X79109Y1295528D01*
X79109Y1283894D01*
X82120Y1272659D01*
X82120Y1272658D01*
X87936Y1262584D01*
X87936Y1262584D01*
X96162Y1254358D01*
X96162Y1254358D01*
X104371Y1249619D01*
X104824Y1249357D01*
X104825Y1249357D01*
X106236Y1248542D01*
X117182Y1245609D01*
X117182Y1245609D01*
X117473Y1245531D01*
X117473Y1245531D01*
X117473Y1245531D01*
X129105Y1245531D01*
X129106Y1245531D01*
X129396Y1245609D01*
X134724Y1247036D01*
X140342Y1248542D01*
X150416Y1254358D01*
X158642Y1262584D01*
X164459Y1272658D01*
X167469Y1283894D01*
X167469Y1295527D01*
X167086Y1296957D01*
X164459Y1306763D01*
X164458Y1306764D01*
X161085Y1312606D01*
X158642Y1316838D01*
X154523Y1320957D01*
X153270Y1323416D01*
X140342Y1330880D01*
X140342Y1330880D01*
X129106Y1333891D01*
X129106Y1333891D01*
X129106Y1333891D01*
X117473Y1333891D01*
X117472Y1333891D01*
X117472Y1333891D01*
X106237Y1330880D01*
X106236Y1330880D01*
X96162Y1325064D01*
X96162Y1325064D01*
X87936Y1316838D01*
X87936Y1316838D01*
X82120Y1306764D01*
X82120Y1306763D01*
X79109Y1295528D01*
X15050Y1295528D01*
X15050Y1549610D01*
X391239Y1549610D01*
X391239Y1535811D01*
X391846Y1532763D01*
X393931Y1522278D01*
X393931Y1522278D01*
X398849Y1510404D01*
X398850Y1510404D01*
X399212Y1509530D01*
X399212Y1509530D01*
X399212Y1509530D01*
X399984Y1508374D01*
X399984Y1508374D01*
X406878Y1498057D01*
X406878Y1498056D01*
X416635Y1488299D01*
X425829Y1482156D01*
X428108Y1480633D01*
X428109Y1480633D01*
X432925Y1478638D01*
X432925Y1478638D01*
X440527Y1475489D01*
X440802Y1475363D01*
X448810Y1473771D01*
X454390Y1472661D01*
X454390Y1472661D01*
X468188Y1472661D01*
X468189Y1472661D01*
X481722Y1475353D01*
X494470Y1480633D01*
X505943Y1488299D01*
X515701Y1498056D01*
X523367Y1509530D01*
X528647Y1522278D01*
X531339Y1535811D01*
X531339Y1549610D01*
X528647Y1563143D01*
X526928Y1567294D01*
X524990Y1571973D01*
X524958Y1572050D01*
X524298Y1573643D01*
X523367Y1575892D01*
X515701Y1587365D01*
X505943Y1597122D01*
X505943Y1597122D01*
X499733Y1601272D01*
X499603Y1601359D01*
X494470Y1604788D01*
X494470Y1604788D01*
X487958Y1607486D01*
X481722Y1610069D01*
X481722Y1610069D01*
X480460Y1610320D01*
X480457Y1610320D01*
X480457Y1610320D01*
X475412Y1611324D01*
X472012Y1612000D01*
X468189Y1612761D01*
X468188Y1612761D01*
X454390Y1612761D01*
X454390Y1612761D01*
X451007Y1612088D01*
X440856Y1610069D01*
X428439Y1604925D01*
X428224Y1604845D01*
X428109Y1604789D01*
X416635Y1597122D01*
X406878Y1587365D01*
X399211Y1575891D01*
X399155Y1575776D01*
X399075Y1575561D01*
X393931Y1563144D01*
X391764Y1552247D01*
X391239Y1549610D01*
X15050Y1549610D01*
X15050Y1710071D01*
X172050Y1710071D01*
X172050Y1689929D01*
X175200Y1670039D01*
X175200Y1670039D01*
X175201Y1670037D01*
X176343Y1666521D01*
X181424Y1650884D01*
X189541Y1634954D01*
X189768Y1634507D01*
X190567Y1632940D01*
X192686Y1630024D01*
X192856Y1629789D01*
X192856Y1629789D01*
X202405Y1616647D01*
X202405Y1616646D01*
X216646Y1602405D01*
X220560Y1599562D01*
X232940Y1590567D01*
X232940Y1590567D01*
X233643Y1590209D01*
X233643Y1590209D01*
X250884Y1581424D01*
X255184Y1580027D01*
X270037Y1575201D01*
X270038Y1575201D01*
X270038Y1575201D01*
X289557Y1572109D01*
X289857Y1572050D01*
X310070Y1572050D01*
X312295Y1572050D01*
X313298Y1572561D01*
X329962Y1575201D01*
X349116Y1581424D01*
X367060Y1590567D01*
X383354Y1602405D01*
X397595Y1616646D01*
X399688Y1619528D01*
X568109Y1619528D01*
X568109Y1607894D01*
X571120Y1596658D01*
X571120Y1596658D01*
X576936Y1586584D01*
X576937Y1586584D01*
X585162Y1578358D01*
X585162Y1578358D01*
X585162Y1578358D01*
X595237Y1572541D01*
X595237Y1572541D01*
X595237Y1572541D01*
X606182Y1569609D01*
X606182Y1569609D01*
X606473Y1569531D01*
X606473Y1569531D01*
X606473Y1569531D01*
X618106Y1569531D01*
X618106Y1569531D01*
X618397Y1569609D01*
X629342Y1572541D01*
X629342Y1572541D01*
X629342Y1572541D01*
X639416Y1578358D01*
X647642Y1586584D01*
X653459Y1596658D01*
X655879Y1605693D01*
X656469Y1607894D01*
X656469Y1607894D01*
X656469Y1619527D01*
X656469Y1619528D01*
X653459Y1630763D01*
X653458Y1630764D01*
X651297Y1634507D01*
X647642Y1640838D01*
X643523Y1644956D01*
X642270Y1647416D01*
X629342Y1654880D01*
X629342Y1654880D01*
X618106Y1657891D01*
X618106Y1657891D01*
X618106Y1657891D01*
X606473Y1657891D01*
X606472Y1657891D01*
X606472Y1657891D01*
X595237Y1654880D01*
X595236Y1654880D01*
X585162Y1649064D01*
X585162Y1649063D01*
X576937Y1640838D01*
X576936Y1640838D01*
X571120Y1630764D01*
X571120Y1630763D01*
X568109Y1619528D01*
X399688Y1619528D01*
X409433Y1632940D01*
X418576Y1650884D01*
X424799Y1670038D01*
X427950Y1689930D01*
X427950Y1710070D01*
X427950Y1710070D01*
X427950Y1710586D01*
X427763Y1711247D01*
X427719Y1711528D01*
X425511Y1725468D01*
X424799Y1729961D01*
X424799Y1729962D01*
X423197Y1734893D01*
X418576Y1749116D01*
X411450Y1763100D01*
X409695Y1766546D01*
X409433Y1767060D01*
X399638Y1780541D01*
X399476Y1780764D01*
X397713Y1783190D01*
X397595Y1783354D01*
X383354Y1797595D01*
X373632Y1804658D01*
X367060Y1809433D01*
X367060Y1809433D01*
X367059Y1809433D01*
X366970Y1809478D01*
X366970Y1809479D01*
X349116Y1818576D01*
X334660Y1823273D01*
X329963Y1824799D01*
X329962Y1824799D01*
X329962Y1824799D01*
X329961Y1824800D01*
X310071Y1827950D01*
X310070Y1827950D01*
X310070Y1827950D01*
X289930Y1827950D01*
X289930Y1827950D01*
X289929Y1827950D01*
X270039Y1824800D01*
X270038Y1824799D01*
X270037Y1824799D01*
X250884Y1818576D01*
X232941Y1809433D01*
X232940Y1809433D01*
X232939Y1809432D01*
X232938Y1809432D01*
X216646Y1797595D01*
X202405Y1783354D01*
X190568Y1767061D01*
X190568Y1767061D01*
X190567Y1767059D01*
X190567Y1767059D01*
X181424Y1749116D01*
X175201Y1729963D01*
X175201Y1729962D01*
X175200Y1729961D01*
X172050Y1710071D01*
X15050Y1710071D01*
X15050Y1899259D01*
X15062Y1899751D01*
X15086Y1900243D01*
X15122Y1900737D01*
X16537Y1915096D01*
X16681Y1916070D01*
X16874Y1917040D01*
X17113Y1917992D01*
X21086Y1931090D01*
X21418Y1932017D01*
X21794Y1932927D01*
X22215Y1933816D01*
X28668Y1945889D01*
X29174Y1946733D01*
X29721Y1947551D01*
X30307Y1948342D01*
X38991Y1958923D01*
X39651Y1959651D01*
X40350Y1960350D01*
X41078Y1961010D01*
X47453Y1966242D01*
X51658Y1969693D01*
X52449Y1970279D01*
X53267Y1970826D01*
X54111Y1971332D01*
X66184Y1977785D01*
X67073Y1978206D01*
X67983Y1978582D01*
X68910Y1978914D01*
X82008Y1982887D01*
X82961Y1983126D01*
X83929Y1983319D01*
X84902Y1983463D01*
X95092Y1984467D01*
X99266Y1984878D01*
X99753Y1984914D01*
X100251Y1984938D01*
X100741Y1984950D01*
X1899259Y1984950D01*
X1899751Y1984938D01*
G37*
%TD.AperFunction*%
%TD*%
M02*
