%TF.GenerationSoftware,KiCad,Pcbnew,10.0.1*%
%TF.CreationDate,2026-05-08T14:46:53+05:30*%
%TF.ProjectId,X-Vision-HW,582d5669-7369-46f6-9e2d-48572e6b6963,rev?*%
%TF.SameCoordinates,PXd1d0ac3PY5111b03*%
%TF.FileFunction,Soldermask,Bot*%
%TF.FilePolarity,Negative*%
%FSLAX45Y45*%
G04 Gerber Fmt 4.5, Leading zero omitted, Abs format (unit mm)*
G04 Created by KiCad (PCBNEW 10.0.1) date 2026-05-08 14:46:53*
%MOMM*%
%LPD*%
G01*
G04 APERTURE LIST*
G04 Aperture macros list*
%AMRoundRect*
0 Rectangle with rounded corners*
0 $1 Rounding radius*
0 $2 $3 $4 $5 $6 $7 $8 $9 X,Y pos of 4 corners*
0 Add a 4 corners polygon primitive as box body*
4,1,4,$2,$3,$4,$5,$6,$7,$8,$9,$2,$3,0*
0 Add four circle primitives for the rounded corners*
1,1,$1+$1,$2,$3*
1,1,$1+$1,$4,$5*
1,1,$1+$1,$6,$7*
1,1,$1+$1,$8,$9*
0 Add four rect primitives between the rounded corners*
20,1,$1+$1,$2,$3,$4,$5,0*
20,1,$1+$1,$4,$5,$6,$7,0*
20,1,$1+$1,$6,$7,$8,$9,0*
20,1,$1+$1,$8,$9,$2,$3,0*%
G04 Aperture macros list end*
%ADD10C,1.250000*%
%ADD11C,0.991000*%
%ADD12C,1.400000*%
%ADD13C,2.050000*%
%ADD14RoundRect,0.136000X-0.229000X0.204000X-0.229000X-0.204000X0.229000X-0.204000X0.229000X0.204000X0*%
%ADD15RoundRect,0.156000X0.359000X-0.234000X0.359000X0.234000X-0.359000X0.234000X-0.359000X-0.234000X0*%
%ADD16RoundRect,0.160000X0.160000X0.190000X-0.160000X0.190000X-0.160000X-0.190000X0.160000X-0.190000X0*%
%ADD17RoundRect,0.160000X-0.160000X-0.190000X0.160000X-0.190000X0.160000X0.190000X-0.160000X0.190000X0*%
%ADD18RoundRect,0.136000X0.229000X-0.204000X0.229000X0.204000X-0.229000X0.204000X-0.229000X-0.204000X0*%
%ADD19RoundRect,0.122500X-0.122500X0.697500X-0.122500X-0.697500X0.122500X-0.697500X0.122500X0.697500X0*%
%ADD20RoundRect,0.160000X-0.190000X0.160000X-0.190000X-0.160000X0.190000X-0.160000X0.190000X0.160000X0*%
%ADD21RoundRect,0.136000X-0.204000X-0.229000X0.204000X-0.229000X0.204000X0.229000X-0.204000X0.229000X0*%
%ADD22RoundRect,0.136000X0.204000X0.229000X-0.204000X0.229000X-0.204000X-0.229000X0.204000X-0.229000X0*%
%ADD23RoundRect,0.093000X-0.217000X-0.247000X0.217000X-0.247000X0.217000X0.247000X-0.217000X0.247000X0*%
%ADD24RoundRect,0.160000X0.190000X-0.160000X0.190000X0.160000X-0.190000X0.160000X-0.190000X-0.160000X0*%
%ADD25RoundRect,0.132000X-0.458000X-0.198000X0.458000X-0.198000X0.458000X0.198000X-0.458000X0.198000X0*%
%ADD26RoundRect,0.275000X0.425000X-0.275000X0.425000X0.275000X-0.425000X0.275000X-0.425000X-0.275000X0*%
G04 APERTURE END LIST*
D10*
X-711Y1900711D02*
X-711Y100711D01*
X-711Y1900711D02*
G75*
G02*
X99289Y2000711I100000J0D01*
G01*
X99289Y711D02*
G75*
G02*
X-711Y100711I0J100000D01*
G01*
X99289Y711D02*
X1899289Y711D01*
X1899289Y2000711D02*
X99289Y2000711D01*
X1899289Y2000711D02*
G75*
G02*
X1999289Y1900711I0J-100000D01*
G01*
X1999289Y100711D02*
G75*
G02*
X1899289Y711I-100000J0D01*
G01*
X1999289Y100711D02*
X1999289Y1900711D01*
D11*
%TO.C,J1*%
X1815289Y1618711D03*
X1053289Y1720211D03*
X1815289Y1821711D03*
%TD*%
D12*
%TO.C,H3*%
X1519289Y480711D03*
%TD*%
D13*
%TO.C,REF\u002A\u002A*%
X1700000Y300000D03*
%TD*%
%TO.C,REF\u002A\u002A*%
X300000Y1700000D03*
%TD*%
D14*
%TO.C,C4*%
X1324289Y290711D03*
X1324289Y190711D03*
%TD*%
D15*
%TO.C,D3*%
X1471289Y1479711D03*
X1471289Y1629711D03*
%TD*%
D16*
%TO.C,R12*%
X1832289Y1170711D03*
X1726289Y1170711D03*
%TD*%
D17*
%TO.C,R2*%
X1176289Y510711D03*
X1282289Y510711D03*
%TD*%
D18*
%TO.C,C10*%
X259289Y1290711D03*
X259289Y1390711D03*
%TD*%
D19*
%TO.C,U2*%
X706789Y1288711D03*
X771789Y1288711D03*
X836789Y1288711D03*
X901789Y1288711D03*
X966789Y1288711D03*
X1031789Y1288711D03*
X1096789Y1288711D03*
X1161789Y1288711D03*
X1226789Y1288711D03*
X1291789Y1288711D03*
X1291789Y712711D03*
X1226789Y712711D03*
X1161789Y712711D03*
X1096789Y712711D03*
X1031789Y712711D03*
X966789Y712711D03*
X901789Y712711D03*
X836789Y712711D03*
X771789Y712711D03*
X706789Y712711D03*
%TD*%
D20*
%TO.C,R7*%
X1519289Y1053711D03*
X1519289Y947711D03*
%TD*%
D18*
%TO.C,C5*%
X1049289Y1470711D03*
X1049289Y1570711D03*
%TD*%
D21*
%TO.C,C2*%
X649289Y167711D03*
X749289Y167711D03*
%TD*%
D18*
%TO.C,C11*%
X369289Y1290711D03*
X369289Y1390711D03*
%TD*%
D22*
%TO.C,C13*%
X479289Y1020711D03*
X379289Y1020711D03*
%TD*%
D23*
%TO.C,FB1*%
X656089Y277711D03*
X742489Y277711D03*
%TD*%
D20*
%TO.C,R10*%
X1178289Y1573711D03*
X1178289Y1467711D03*
%TD*%
D21*
%TO.C,C6*%
X809289Y1610711D03*
X909289Y1610711D03*
%TD*%
D14*
%TO.C,C1*%
X639289Y485711D03*
X639289Y385711D03*
%TD*%
D16*
%TO.C,R11*%
X1622289Y1170711D03*
X1516289Y1170711D03*
%TD*%
D14*
%TO.C,C8*%
X1509289Y750711D03*
X1509289Y650711D03*
%TD*%
D16*
%TO.C,R9*%
X1072289Y510711D03*
X966289Y510711D03*
%TD*%
D14*
%TO.C,C9*%
X1619289Y750711D03*
X1619289Y650711D03*
%TD*%
D21*
%TO.C,C14*%
X379289Y1130711D03*
X479289Y1130711D03*
%TD*%
D20*
%TO.C,R4*%
X1729289Y1063711D03*
X1729289Y957711D03*
%TD*%
D22*
%TO.C,C7*%
X909289Y1500711D03*
X809289Y1500711D03*
%TD*%
D18*
%TO.C,C15*%
X479289Y810711D03*
X479289Y910711D03*
%TD*%
D14*
%TO.C,C3*%
X1439289Y290711D03*
X1439289Y190711D03*
%TD*%
D24*
%TO.C,R5*%
X1729289Y747711D03*
X1729289Y853711D03*
%TD*%
D18*
%TO.C,C12*%
X479289Y1290711D03*
X479289Y1390711D03*
%TD*%
D20*
%TO.C,R1*%
X749289Y493711D03*
X749289Y387711D03*
%TD*%
D25*
%TO.C,U1*%
X904289Y185711D03*
X904289Y280711D03*
X904289Y375711D03*
X1174289Y375711D03*
X1174289Y185711D03*
%TD*%
D20*
%TO.C,R13*%
X709289Y1603711D03*
X709289Y1497711D03*
%TD*%
D24*
%TO.C,R14*%
X1601289Y1495711D03*
X1601289Y1601711D03*
%TD*%
D18*
%TO.C,C16*%
X369289Y810711D03*
X369289Y910711D03*
%TD*%
D12*
%TO.C,H4*%
X461289Y1542711D03*
%TD*%
D26*
%TO.C,CON1*%
X437539Y227711D03*
X437539Y352711D03*
X437539Y477711D03*
X437539Y602711D03*
%TD*%
M02*
