%TF.GenerationSoftware,KiCad,Pcbnew,9.0.7*%
%TF.CreationDate,2026-03-10T13:05:46+05:30*%
%TF.ProjectId,X-Vision-HW,582d5669-7369-46f6-9e2d-48572e6b6963,rev?*%
%TF.SameCoordinates,PXd1d1fd4PY510ff40*%
%TF.FileFunction,Legend,Top*%
%TF.FilePolarity,Positive*%
%FSLAX46Y46*%
G04 Gerber Fmt 4.6, Leading zero omitted, Abs format (unit mm)*
G04 Created by KiCad (PCBNEW 9.0.7) date 2026-03-10 13:05:46*
%MOMM*%
%LPD*%
G01*
G04 APERTURE LIST*
%ADD10C,0.300000*%
%ADD11C,0.200000*%
%ADD12C,0.100000*%
%ADD13C,0.150000*%
%ADD14C,0.000000*%
%ADD15C,0.127000*%
G04 APERTURE END LIST*
D10*
X7787500Y16500000D02*
X7087500Y16900000D01*
X6387500Y16500000D01*
X7087500Y17900000D01*
X7787500Y16500000D01*
G36*
X7787500Y16500000D02*
G01*
X7087500Y16900000D01*
X6387500Y16500000D01*
X7087500Y17900000D01*
X7787500Y16500000D01*
G37*
D11*
G36*
X7968407Y1190174D02*
G01*
X7981254Y1159594D01*
X7981802Y1149177D01*
X7977688Y1142155D01*
X7969513Y1137597D01*
X7953899Y1134535D01*
X7906125Y1132874D01*
X7865678Y1133998D01*
X7842475Y1137515D01*
X7830165Y1144305D01*
X7823620Y1155247D01*
X7690800Y1410139D01*
X7558567Y1155247D01*
X7551435Y1144305D01*
X7539125Y1137515D01*
X7515629Y1133998D01*
X7476013Y1132874D01*
X7432049Y1134535D01*
X7418081Y1137593D01*
X7410996Y1142155D01*
X7407775Y1149064D01*
X7408797Y1159594D01*
X7422475Y1190174D01*
X7591882Y1498555D01*
X7434492Y1788373D01*
X7421107Y1819734D01*
X7420087Y1830446D01*
X7423843Y1837222D01*
X7431741Y1841512D01*
X7447046Y1844305D01*
X7495162Y1845673D01*
X7535853Y1844549D01*
X7559642Y1841032D01*
X7571952Y1834193D01*
X7578790Y1823300D01*
X7702817Y1589706D01*
X7823620Y1823300D01*
X7830458Y1834193D01*
X7841938Y1841032D01*
X7863773Y1844549D01*
X7902315Y1845673D01*
X7945448Y1844305D01*
X7959766Y1841456D01*
X7967332Y1836929D01*
X7971007Y1829956D01*
X7970312Y1819441D01*
X7958051Y1788373D01*
X7800661Y1500167D01*
X7968407Y1190174D01*
G37*
G36*
X8278644Y1411653D02*
G01*
X8276800Y1382406D01*
X8272636Y1367396D01*
X8264767Y1357930D01*
X8253487Y1354842D01*
X8026146Y1354842D01*
X8014436Y1358021D01*
X8006460Y1367689D01*
X8002279Y1382884D01*
X8000451Y1411653D01*
X8002281Y1439953D01*
X8006460Y1454835D01*
X8014410Y1464266D01*
X8026146Y1467389D01*
X8253487Y1467389D01*
X8264722Y1464654D01*
X8272636Y1455372D01*
X8277276Y1437885D01*
X8278644Y1411653D01*
G37*
G36*
X8739530Y1161255D02*
G01*
X8732398Y1146210D01*
X8718183Y1137515D01*
X8691414Y1133705D01*
X8647206Y1132874D01*
X8609740Y1133167D01*
X8583264Y1134535D01*
X8565483Y1137759D01*
X8554003Y1143230D01*
X8546920Y1151144D01*
X8542280Y1162916D01*
X8331840Y1788910D01*
X8323927Y1820027D01*
X8324710Y1830369D01*
X8329398Y1837222D01*
X8337684Y1841553D01*
X8352601Y1844305D01*
X8398518Y1845673D01*
X8437890Y1844549D01*
X8459726Y1840739D01*
X8470375Y1832581D01*
X8476139Y1818952D01*
X8648281Y1274242D01*
X8648818Y1274242D01*
X8817688Y1816217D01*
X8823159Y1831213D01*
X8834345Y1840201D01*
X8857060Y1844549D01*
X8897506Y1845673D01*
X8936536Y1844012D01*
X8949000Y1840930D01*
X8955685Y1836098D01*
X8959009Y1828964D01*
X8958958Y1818366D01*
X8950507Y1787836D01*
X8739530Y1161255D01*
G37*
G36*
X9193871Y1155784D02*
G01*
X9190305Y1145966D01*
X9178581Y1138883D01*
X9156697Y1134535D01*
X9121721Y1132874D01*
X9086990Y1134535D01*
X9064862Y1138883D01*
X9053089Y1145966D01*
X9049572Y1155784D01*
X9049572Y1822763D01*
X9053089Y1832532D01*
X9065106Y1839664D01*
X9087283Y1844012D01*
X9121721Y1845673D01*
X9156697Y1844012D01*
X9178581Y1839664D01*
X9190305Y1832532D01*
X9193871Y1822763D01*
X9193871Y1155784D01*
G37*
G36*
X9767304Y1347857D02*
G01*
X9761889Y1294528D01*
X9746543Y1250111D01*
X9721970Y1211429D01*
X9690221Y1179964D01*
X9652168Y1155581D01*
X9607178Y1137661D01*
X9558542Y1127113D01*
X9505525Y1123495D01*
X9469635Y1124999D01*
X9437479Y1129308D01*
X9382035Y1143181D01*
X9341882Y1160278D01*
X9318630Y1176056D01*
X9312783Y1184105D01*
X9308518Y1196328D01*
X9305539Y1235065D01*
X9306613Y1263593D01*
X9310179Y1282253D01*
X9316725Y1292414D01*
X9326299Y1295442D01*
X9334447Y1293669D01*
X9347890Y1286649D01*
X9383647Y1267305D01*
X9435867Y1247913D01*
X9467529Y1241490D01*
X9506111Y1239169D01*
X9531545Y1240809D01*
X9553103Y1245421D01*
X9572643Y1253197D01*
X9588323Y1263202D01*
X9601106Y1276033D01*
X9610451Y1291583D01*
X9616151Y1309232D01*
X9618121Y1329294D01*
X9614748Y1351891D01*
X9604980Y1370522D01*
X9590202Y1386492D01*
X9570835Y1401102D01*
X9523012Y1426210D01*
X9467814Y1451025D01*
X9412615Y1480774D01*
X9387256Y1499082D01*
X9364792Y1520634D01*
X9345943Y1545646D01*
X9330647Y1575491D01*
X9321045Y1609087D01*
X9317555Y1651402D01*
X9322473Y1700068D01*
X9336411Y1740648D01*
X9358691Y1776059D01*
X9387213Y1804542D01*
X9421599Y1826495D01*
X9462636Y1842497D01*
X9506994Y1851858D01*
X9554715Y1855051D01*
X9604980Y1851290D01*
X9651973Y1841178D01*
X9690807Y1826768D01*
X9713180Y1813481D01*
X9720556Y1804298D01*
X9723878Y1794137D01*
X9725783Y1778213D01*
X9726320Y1754375D01*
X9725490Y1727459D01*
X9722754Y1709336D01*
X9717283Y1698883D01*
X9707758Y1695610D01*
X9688609Y1703035D01*
X9656369Y1719301D01*
X9612063Y1735275D01*
X9586202Y1740633D01*
X9556913Y1742504D01*
X9534272Y1740984D01*
X9515929Y1736789D01*
X9499553Y1729865D01*
X9486669Y1721109D01*
X9476420Y1710060D01*
X9469181Y1697026D01*
X9463466Y1667229D01*
X9466751Y1645076D01*
X9476313Y1626538D01*
X9490984Y1610619D01*
X9510751Y1595959D01*
X9559649Y1570850D01*
X9615385Y1546035D01*
X9671121Y1516287D01*
X9696971Y1497956D01*
X9719726Y1476426D01*
X9738848Y1451425D01*
X9754164Y1421813D01*
X9763828Y1388702D01*
X9767304Y1347857D01*
G37*
G36*
X10021561Y1155784D02*
G01*
X10017995Y1145966D01*
X10006271Y1138883D01*
X9984387Y1134535D01*
X9949412Y1132874D01*
X9914680Y1134535D01*
X9892552Y1138883D01*
X9880779Y1145966D01*
X9877262Y1155784D01*
X9877262Y1822763D01*
X9880779Y1832532D01*
X9892796Y1839664D01*
X9914973Y1844012D01*
X9949412Y1845673D01*
X9984387Y1844012D01*
X10006271Y1839664D01*
X10017995Y1832532D01*
X10021561Y1822763D01*
X10021561Y1155784D01*
G37*
G36*
X10537356Y1852506D02*
G01*
X10584370Y1845253D01*
X10625867Y1833753D01*
X10665136Y1816736D01*
X10699195Y1794933D01*
X10728644Y1768248D01*
X10753358Y1737019D01*
X10774156Y1700069D01*
X10790926Y1656580D01*
X10802203Y1611169D01*
X10809419Y1558480D01*
X10811980Y1497480D01*
X10809384Y1439124D01*
X10801946Y1386940D01*
X10790095Y1340236D01*
X10772772Y1295508D01*
X10751082Y1256499D01*
X10725078Y1222560D01*
X10694256Y1193094D01*
X10658824Y1168571D01*
X10618246Y1148848D01*
X10575099Y1135129D01*
X10526292Y1126513D01*
X10470968Y1123495D01*
X10416177Y1126092D01*
X10368457Y1133450D01*
X10326913Y1145037D01*
X10287680Y1162233D01*
X10253739Y1184136D01*
X10224478Y1210837D01*
X10200021Y1242079D01*
X10179474Y1279268D01*
X10162978Y1323286D01*
X10152033Y1369215D01*
X10145008Y1422737D01*
X10142510Y1484926D01*
X10142818Y1491716D01*
X10293354Y1491716D01*
X10295662Y1435481D01*
X10302098Y1387961D01*
X10314202Y1344337D01*
X10331603Y1309266D01*
X10355896Y1280489D01*
X10387339Y1259441D01*
X10425074Y1246930D01*
X10475315Y1242295D01*
X10525499Y1247535D01*
X10563878Y1261883D01*
X10596004Y1285080D01*
X10621226Y1315275D01*
X10639636Y1351192D01*
X10652098Y1393970D01*
X10658819Y1439745D01*
X10661135Y1489566D01*
X10658844Y1543789D01*
X10652391Y1590585D01*
X10640229Y1633676D01*
X10622594Y1668450D01*
X10598148Y1697114D01*
X10566613Y1718520D01*
X10528900Y1731480D01*
X10479174Y1736252D01*
X10429011Y1730938D01*
X10390612Y1716370D01*
X10358426Y1693081D01*
X10333215Y1663272D01*
X10314830Y1627886D01*
X10302342Y1585652D01*
X10295652Y1540521D01*
X10293354Y1491716D01*
X10142818Y1491716D01*
X10145086Y1541759D01*
X10152494Y1592940D01*
X10164345Y1639092D01*
X10181676Y1683297D01*
X10203377Y1721940D01*
X10229412Y1755645D01*
X10260209Y1784983D01*
X10295642Y1809510D01*
X10336243Y1829357D01*
X10379410Y1843252D01*
X10428385Y1851988D01*
X10484059Y1855051D01*
X10537356Y1852506D01*
G37*
G36*
X11516327Y1187291D02*
G01*
X11511931Y1164919D01*
X11500207Y1148555D01*
X11482719Y1138980D01*
X11462203Y1136000D01*
X11400996Y1136000D01*
X11367925Y1139762D01*
X11354643Y1145008D01*
X11342231Y1153439D01*
X11319565Y1180355D01*
X11294945Y1225100D01*
X11118993Y1553802D01*
X11087827Y1617110D01*
X11059446Y1683104D01*
X11058323Y1683104D01*
X11061596Y1604996D01*
X11062719Y1524737D01*
X11062719Y1156273D01*
X11059691Y1146454D01*
X11049335Y1139127D01*
X11029356Y1134535D01*
X10997116Y1132874D01*
X10965413Y1134535D01*
X10945727Y1139127D01*
X10935908Y1146503D01*
X10933173Y1156370D01*
X10933173Y1791255D01*
X10937189Y1814357D01*
X10948169Y1829699D01*
X10964687Y1839251D01*
X10985099Y1842546D01*
X11062182Y1842546D01*
X11097109Y1838980D01*
X11122510Y1827257D01*
X11143564Y1804591D01*
X11163836Y1769127D01*
X11301540Y1511890D01*
X11325280Y1465924D01*
X11347995Y1420788D01*
X11369293Y1376433D01*
X11389516Y1332958D01*
X11390054Y1332958D01*
X11387611Y1412483D01*
X11386781Y1491520D01*
X11386781Y1822225D01*
X11390054Y1832044D01*
X11400996Y1839664D01*
X11421219Y1844305D01*
X11453459Y1845673D01*
X11484624Y1844305D01*
X11504017Y1839664D01*
X11513592Y1831995D01*
X11516327Y1822176D01*
X11516327Y1187291D01*
G37*
G36*
X12363166Y1643000D02*
G01*
X12362873Y1636454D01*
X12361798Y1627954D01*
X12359600Y1617305D01*
X12356083Y1603677D01*
X12209586Y1162379D01*
X12202210Y1147333D01*
X12186920Y1138345D01*
X12157953Y1133998D01*
X12110130Y1132874D01*
X12062845Y1134242D01*
X12034122Y1138883D01*
X12019125Y1147871D01*
X12011749Y1162379D01*
X11865301Y1603677D01*
X11860075Y1623314D01*
X11857876Y1635917D01*
X11857632Y1643000D01*
X11860612Y1652574D01*
X11871261Y1659413D01*
X11892315Y1663223D01*
X11925922Y1664347D01*
X11962021Y1662979D01*
X11983613Y1659120D01*
X11994799Y1652037D01*
X12000270Y1640850D01*
X12111205Y1282693D01*
X12114478Y1269015D01*
X12117751Y1282693D01*
X12227074Y1640850D01*
X12232252Y1652037D01*
X12243438Y1659120D01*
X12263954Y1662979D01*
X12297562Y1664347D01*
X12330633Y1663223D01*
X12350563Y1659413D01*
X12360430Y1652574D01*
X12363166Y1643000D01*
G37*
G36*
X12891414Y1189880D02*
G01*
X12889754Y1164284D01*
X12885113Y1147578D01*
X12878274Y1138687D01*
X12869530Y1136000D01*
X12479328Y1136000D01*
X12471121Y1138687D01*
X12464282Y1147578D01*
X12459642Y1164284D01*
X12458030Y1189880D01*
X12459398Y1216014D01*
X12463745Y1233014D01*
X12470584Y1242442D01*
X12479328Y1245421D01*
X12611072Y1245421D01*
X12611072Y1708115D01*
X12497402Y1645589D01*
X12476885Y1638213D01*
X12469620Y1638393D01*
X12464331Y1641485D01*
X12458030Y1657557D01*
X12456418Y1689699D01*
X12456955Y1711241D01*
X12459691Y1725652D01*
X12465699Y1735470D01*
X12476104Y1743677D01*
X12628023Y1841716D01*
X12634862Y1845233D01*
X12645511Y1847431D01*
X12662705Y1848506D01*
X12690305Y1848799D01*
X12723913Y1847968D01*
X12743306Y1845233D01*
X12752049Y1840006D01*
X12754248Y1831800D01*
X12754248Y1245421D01*
X12869579Y1245421D01*
X12878567Y1242442D01*
X12885650Y1233014D01*
X12890047Y1216014D01*
X12891414Y1189880D01*
G37*
D12*
G36*
X2359652Y2160893D02*
G01*
X2355591Y2120896D01*
X2344082Y2087583D01*
X2325652Y2058572D01*
X2301840Y2034973D01*
X2273300Y2016686D01*
X2239558Y2003246D01*
X2203081Y1995335D01*
X2163318Y1992622D01*
X2136401Y1993749D01*
X2112283Y1996981D01*
X2070701Y2007386D01*
X2040586Y2020209D01*
X2023147Y2032042D01*
X2018761Y2038079D01*
X2015563Y2047246D01*
X2013328Y2076299D01*
X2014134Y2097695D01*
X2016809Y2111690D01*
X2021718Y2119310D01*
X2028899Y2121582D01*
X2035010Y2120252D01*
X2045092Y2114987D01*
X2071910Y2100479D01*
X2111074Y2085935D01*
X2134821Y2081117D01*
X2163757Y2079377D01*
X2182833Y2080607D01*
X2199002Y2084066D01*
X2213656Y2089898D01*
X2225416Y2097402D01*
X2235004Y2107025D01*
X2242013Y2118688D01*
X2246288Y2131924D01*
X2247765Y2146971D01*
X2245235Y2163918D01*
X2237909Y2177892D01*
X2226826Y2189869D01*
X2212301Y2200826D01*
X2176434Y2219658D01*
X2135034Y2238269D01*
X2093635Y2260580D01*
X2074617Y2274312D01*
X2057768Y2290476D01*
X2043631Y2309235D01*
X2032159Y2331618D01*
X2024958Y2356815D01*
X2022341Y2388551D01*
X2026029Y2425051D01*
X2036482Y2455486D01*
X2053193Y2482044D01*
X2074584Y2503407D01*
X2100373Y2519872D01*
X2131151Y2531873D01*
X2164419Y2538894D01*
X2200211Y2541289D01*
X2237909Y2538468D01*
X2273154Y2530884D01*
X2302280Y2520076D01*
X2319059Y2510111D01*
X2324591Y2503223D01*
X2327083Y2495603D01*
X2328511Y2483660D01*
X2328914Y2465781D01*
X2328292Y2445594D01*
X2326240Y2432002D01*
X2322137Y2424162D01*
X2314993Y2421707D01*
X2300631Y2427276D01*
X2276451Y2439476D01*
X2243222Y2451456D01*
X2223826Y2455475D01*
X2201859Y2456878D01*
X2184879Y2455738D01*
X2171121Y2452592D01*
X2158839Y2447399D01*
X2149176Y2440832D01*
X2141489Y2432545D01*
X2136060Y2422770D01*
X2131774Y2400422D01*
X2134238Y2383807D01*
X2141409Y2369904D01*
X2152412Y2357964D01*
X2167238Y2346969D01*
X2203911Y2328138D01*
X2245713Y2309527D01*
X2287515Y2287215D01*
X2306902Y2273467D01*
X2323968Y2257320D01*
X2338311Y2238569D01*
X2349797Y2216360D01*
X2357045Y2191527D01*
X2359652Y2160893D01*
G37*
G36*
X2657395Y2529857D02*
G01*
X2697155Y2524139D01*
X2730486Y2515313D01*
X2762234Y2502219D01*
X2789810Y2485841D01*
X2813688Y2466184D01*
X2834207Y2443063D01*
X2851338Y2416379D01*
X2865125Y2385694D01*
X2874640Y2353307D01*
X2880641Y2316529D01*
X2882747Y2274722D01*
X2880417Y2226324D01*
X2873879Y2185095D01*
X2863696Y2150048D01*
X2848760Y2116911D01*
X2830512Y2088921D01*
X2808961Y2065455D01*
X2783864Y2045803D01*
X2755131Y2029767D01*
X2722280Y2017351D01*
X2687929Y2009154D01*
X2647704Y2003880D01*
X2600757Y2002000D01*
X2474105Y2002000D01*
X2461478Y2004051D01*
X2451317Y2009987D01*
X2444669Y2019805D01*
X2442121Y2035999D01*
X2442121Y2086411D01*
X2549539Y2086411D01*
X2605703Y2086411D01*
X2647984Y2089516D01*
X2680258Y2097878D01*
X2708243Y2112413D01*
X2730889Y2132573D01*
X2748334Y2158032D01*
X2761224Y2190202D01*
X2768589Y2226260D01*
X2771263Y2270655D01*
X2768991Y2307567D01*
X2762433Y2340814D01*
X2750812Y2371381D01*
X2734150Y2397014D01*
X2712169Y2418024D01*
X2684141Y2434164D01*
X2650948Y2443807D01*
X2604054Y2447499D01*
X2549539Y2447499D01*
X2549539Y2086411D01*
X2442121Y2086411D01*
X2442121Y2497911D01*
X2444669Y2514105D01*
X2451317Y2523923D01*
X2461478Y2529859D01*
X2474105Y2531910D01*
X2610172Y2531910D01*
X2657395Y2529857D01*
G37*
G36*
X3182287Y2533632D02*
G01*
X3204598Y2530737D01*
X3216102Y2523996D01*
X3222037Y2511723D01*
X3385985Y2042227D01*
X3392140Y2018890D01*
X3391863Y2011098D01*
X3388843Y2005994D01*
X3383245Y2002748D01*
X3372869Y2000682D01*
X3341325Y1999656D01*
X3308719Y2000279D01*
X3290914Y2002733D01*
X3282304Y2007826D01*
X3278201Y2016435D01*
X3242554Y2123927D01*
X3043325Y2123927D01*
X3009729Y2019293D01*
X3005406Y2009694D01*
X2996796Y2003539D01*
X2979980Y2000498D01*
X2951514Y1999656D01*
X2921985Y2000901D01*
X2912465Y2003199D01*
X2907257Y2006800D01*
X2904547Y2012201D01*
X2904363Y2020099D01*
X2910518Y2043033D01*
X2967243Y2205992D01*
X3067102Y2205992D01*
X3217531Y2205992D01*
X3142536Y2431782D01*
X3142133Y2431782D01*
X3067102Y2205992D01*
X2967243Y2205992D01*
X3074099Y2512969D01*
X3079815Y2524216D01*
X3090293Y2530774D01*
X3110150Y2533632D01*
X3143782Y2534255D01*
X3182287Y2533632D01*
G37*
G36*
X2559652Y3360893D02*
G01*
X2555591Y3320896D01*
X2544082Y3287583D01*
X2525652Y3258572D01*
X2501840Y3234973D01*
X2473300Y3216686D01*
X2439558Y3203246D01*
X2403081Y3195335D01*
X2363318Y3192622D01*
X2336401Y3193749D01*
X2312283Y3196981D01*
X2270701Y3207386D01*
X2240586Y3220209D01*
X2223147Y3232042D01*
X2218761Y3238079D01*
X2215563Y3247246D01*
X2213328Y3276299D01*
X2214134Y3297695D01*
X2216809Y3311690D01*
X2221718Y3319310D01*
X2228899Y3321582D01*
X2235010Y3320252D01*
X2245092Y3314987D01*
X2271910Y3300479D01*
X2311074Y3285935D01*
X2334821Y3281117D01*
X2363757Y3279377D01*
X2382833Y3280607D01*
X2399002Y3284066D01*
X2413656Y3289898D01*
X2425416Y3297402D01*
X2435004Y3307025D01*
X2442013Y3318688D01*
X2446288Y3331924D01*
X2447765Y3346971D01*
X2445235Y3363918D01*
X2437909Y3377892D01*
X2426826Y3389869D01*
X2412301Y3400826D01*
X2376434Y3419658D01*
X2335034Y3438269D01*
X2293635Y3460580D01*
X2274617Y3474312D01*
X2257768Y3490476D01*
X2243631Y3509235D01*
X2232159Y3531618D01*
X2224958Y3556815D01*
X2222341Y3588551D01*
X2226029Y3625051D01*
X2236482Y3655486D01*
X2253193Y3682044D01*
X2274584Y3703407D01*
X2300373Y3719872D01*
X2331151Y3731873D01*
X2364419Y3738894D01*
X2400211Y3741289D01*
X2437909Y3738468D01*
X2473154Y3730884D01*
X2502280Y3720076D01*
X2519059Y3710111D01*
X2524591Y3703223D01*
X2527083Y3695603D01*
X2528511Y3683660D01*
X2528914Y3665781D01*
X2528292Y3645594D01*
X2526240Y3632002D01*
X2522137Y3624162D01*
X2514993Y3621707D01*
X2500631Y3627276D01*
X2476451Y3639476D01*
X2443222Y3651456D01*
X2423826Y3655475D01*
X2401859Y3656878D01*
X2384879Y3655738D01*
X2371121Y3652592D01*
X2358839Y3647399D01*
X2349176Y3640832D01*
X2341489Y3632545D01*
X2336060Y3622770D01*
X2331774Y3600422D01*
X2334238Y3583807D01*
X2341409Y3569904D01*
X2352412Y3557964D01*
X2367238Y3546969D01*
X2403911Y3528138D01*
X2445713Y3509527D01*
X2487515Y3487215D01*
X2506902Y3473467D01*
X2523968Y3457320D01*
X2538311Y3438569D01*
X2549797Y3416360D01*
X2557045Y3391527D01*
X2559652Y3360893D01*
G37*
G36*
X3008961Y3281282D02*
G01*
X3008339Y3264026D01*
X3006470Y3251863D01*
X3003210Y3243143D01*
X2996652Y3234790D01*
X2979249Y3222663D01*
X2947705Y3208449D01*
X2905061Y3197164D01*
X2880563Y3193796D01*
X2853220Y3192622D01*
X2817180Y3194588D01*
X2784531Y3200272D01*
X2754851Y3209438D01*
X2726879Y3222627D01*
X2702125Y3239351D01*
X2680259Y3259740D01*
X2661755Y3283315D01*
X2646013Y3310987D01*
X2633108Y3343307D01*
X2624296Y3377103D01*
X2618704Y3415763D01*
X2616732Y3459958D01*
X2618876Y3504901D01*
X2625006Y3544818D01*
X2634757Y3580308D01*
X2648769Y3614270D01*
X2665597Y3643523D01*
X2685169Y3668602D01*
X2708180Y3690488D01*
X2733971Y3708494D01*
X2762838Y3722787D01*
X2793549Y3732932D01*
X2826699Y3739154D01*
X2862672Y3741289D01*
X2905280Y3737515D01*
X2943199Y3727660D01*
X2974560Y3713665D01*
X2994014Y3700036D01*
X3001598Y3690694D01*
X3004858Y3681205D01*
X3006727Y3667613D01*
X3007349Y3648269D01*
X3006507Y3627240D01*
X3003649Y3613244D01*
X2998740Y3605404D01*
X2992182Y3602950D01*
X2985894Y3604456D01*
X2976612Y3610204D01*
X2952212Y3626397D01*
X2916564Y3642590D01*
X2894726Y3647902D01*
X2867178Y3649844D01*
X2836869Y3646513D01*
X2810795Y3636912D01*
X2787987Y3621374D01*
X2768553Y3600019D01*
X2753534Y3574137D01*
X2742138Y3541987D01*
X2735491Y3506742D01*
X2733126Y3465307D01*
X2735710Y3420235D01*
X2742761Y3384303D01*
X2754830Y3352300D01*
X2770202Y3327920D01*
X2789977Y3308533D01*
X2813250Y3294910D01*
X2839555Y3286873D01*
X2870036Y3284066D01*
X2897640Y3285842D01*
X2919605Y3290697D01*
X2955472Y3305352D01*
X2980055Y3319823D01*
X2989382Y3324975D01*
X2995040Y3326271D01*
X3001598Y3324623D01*
X3005664Y3318138D01*
X3008119Y3304582D01*
X3008961Y3281282D01*
G37*
G36*
X3377890Y3247173D02*
G01*
X3376864Y3226437D01*
X3373787Y3212442D01*
X3368658Y3204455D01*
X3361477Y3202000D01*
X3118431Y3202000D01*
X3105804Y3204051D01*
X3095643Y3209987D01*
X3088995Y3219805D01*
X3086448Y3235999D01*
X3086448Y3717072D01*
X3089085Y3724399D01*
X3097915Y3729748D01*
X3114511Y3733009D01*
X3140560Y3734255D01*
X3166791Y3733009D01*
X3183204Y3729748D01*
X3191997Y3724436D01*
X3194672Y3717072D01*
X3194672Y3291100D01*
X3361477Y3291100D01*
X3368658Y3288829D01*
X3373787Y3281465D01*
X3376864Y3267909D01*
X3377890Y3247173D01*
G37*
D13*
X14786184Y14195515D02*
X14886184Y14166943D01*
X14886184Y14166943D02*
X14919517Y14138372D01*
X14919517Y14138372D02*
X14952850Y14081229D01*
X14952850Y14081229D02*
X14952850Y13995515D01*
X14952850Y13995515D02*
X14919517Y13938372D01*
X14919517Y13938372D02*
X14886184Y13909800D01*
X14886184Y13909800D02*
X14819517Y13881229D01*
X14819517Y13881229D02*
X14552850Y13881229D01*
X14552850Y13881229D02*
X14552850Y14481229D01*
X14552850Y14481229D02*
X14786184Y14481229D01*
X14786184Y14481229D02*
X14852850Y14452658D01*
X14852850Y14452658D02*
X14886184Y14424086D01*
X14886184Y14424086D02*
X14919517Y14366943D01*
X14919517Y14366943D02*
X14919517Y14309800D01*
X14919517Y14309800D02*
X14886184Y14252658D01*
X14886184Y14252658D02*
X14852850Y14224086D01*
X14852850Y14224086D02*
X14786184Y14195515D01*
X14786184Y14195515D02*
X14552850Y14195515D01*
X15386184Y14481229D02*
X15519517Y14481229D01*
X15519517Y14481229D02*
X15586184Y14452658D01*
X15586184Y14452658D02*
X15652850Y14395515D01*
X15652850Y14395515D02*
X15686184Y14281229D01*
X15686184Y14281229D02*
X15686184Y14081229D01*
X15686184Y14081229D02*
X15652850Y13966943D01*
X15652850Y13966943D02*
X15586184Y13909800D01*
X15586184Y13909800D02*
X15519517Y13881229D01*
X15519517Y13881229D02*
X15386184Y13881229D01*
X15386184Y13881229D02*
X15319517Y13909800D01*
X15319517Y13909800D02*
X15252850Y13966943D01*
X15252850Y13966943D02*
X15219517Y14081229D01*
X15219517Y14081229D02*
X15219517Y14281229D01*
X15219517Y14281229D02*
X15252850Y14395515D01*
X15252850Y14395515D02*
X15319517Y14452658D01*
X15319517Y14452658D02*
X15386184Y14481229D01*
X15886183Y14481229D02*
X16286183Y14481229D01*
X16086183Y13881229D02*
X16086183Y14481229D01*
X16419516Y14481229D02*
X16819516Y14481229D01*
X16619516Y13881229D02*
X16619516Y14481229D01*
X17186183Y14481229D02*
X17319516Y14481229D01*
X17319516Y14481229D02*
X17386183Y14452658D01*
X17386183Y14452658D02*
X17452849Y14395515D01*
X17452849Y14395515D02*
X17486183Y14281229D01*
X17486183Y14281229D02*
X17486183Y14081229D01*
X17486183Y14081229D02*
X17452849Y13966943D01*
X17452849Y13966943D02*
X17386183Y13909800D01*
X17386183Y13909800D02*
X17319516Y13881229D01*
X17319516Y13881229D02*
X17186183Y13881229D01*
X17186183Y13881229D02*
X17119516Y13909800D01*
X17119516Y13909800D02*
X17052849Y13966943D01*
X17052849Y13966943D02*
X17019516Y14081229D01*
X17019516Y14081229D02*
X17019516Y14281229D01*
X17019516Y14281229D02*
X17052849Y14395515D01*
X17052849Y14395515D02*
X17119516Y14452658D01*
X17119516Y14452658D02*
X17186183Y14481229D01*
X17786182Y13881229D02*
X17786182Y14481229D01*
X17786182Y14481229D02*
X18019516Y14052658D01*
X18019516Y14052658D02*
X18252849Y14481229D01*
X18252849Y14481229D02*
X18252849Y13881229D01*
D12*
G36*
X2270734Y6148525D02*
G01*
X2269708Y6128119D01*
X2266814Y6114453D01*
X2262308Y6107309D01*
X2255969Y6105294D01*
X2250080Y6106703D01*
X2238750Y6112695D01*
X2207206Y6128742D01*
X2160275Y6144788D01*
X2131822Y6150218D01*
X2096931Y6152189D01*
X2059711Y6148749D01*
X2027248Y6138853D01*
X1998271Y6122716D01*
X1973979Y6101154D01*
X1954607Y6074672D01*
X1939944Y6042573D01*
X1931140Y6007185D01*
X1928073Y5966955D01*
X1931265Y5923071D01*
X1940163Y5886831D01*
X1954955Y5854523D01*
X1973979Y5828836D01*
X1997816Y5808414D01*
X2026222Y5793592D01*
X2057871Y5784776D01*
X2093670Y5781721D01*
X2129317Y5785861D01*
X2146418Y5791071D01*
X2162107Y5798281D01*
X2162107Y5922405D01*
X2061687Y5922405D01*
X2055401Y5924516D01*
X2050219Y5931674D01*
X2047363Y5942631D01*
X2046116Y5963218D01*
X2047142Y5982599D01*
X2050219Y5995165D01*
X2055129Y6002199D01*
X2061687Y6004471D01*
X2240839Y6004471D01*
X2252526Y6002199D01*
X2261538Y5995385D01*
X2267473Y5984504D01*
X2269525Y5969923D01*
X2269525Y5758018D01*
X2268393Y5746217D01*
X2265202Y5736439D01*
X2259045Y5728481D01*
X2247580Y5721821D01*
X2214607Y5710720D01*
X2173831Y5700865D01*
X2131186Y5694673D01*
X2087955Y5692622D01*
X2045896Y5694773D01*
X2008151Y5700957D01*
X1974199Y5710867D01*
X1941984Y5725096D01*
X1913783Y5742719D01*
X1889166Y5763770D01*
X1867974Y5788268D01*
X1850220Y5816291D01*
X1835860Y5848253D01*
X1825850Y5881949D01*
X1819604Y5919423D01*
X1817431Y5961203D01*
X1819742Y6004336D01*
X1826401Y6043189D01*
X1837105Y6078293D01*
X1852291Y6111607D01*
X1870854Y6140849D01*
X1892829Y6166440D01*
X1918310Y6188574D01*
X1947220Y6207078D01*
X1979951Y6222018D01*
X2014473Y6232537D01*
X2052227Y6239043D01*
X2093670Y6241289D01*
X2127320Y6240012D01*
X2156392Y6236416D01*
X2205778Y6224582D01*
X2240802Y6209562D01*
X2260293Y6195603D01*
X2264911Y6188869D01*
X2268279Y6179300D01*
X2270734Y6148525D01*
G37*
G36*
X2817826Y5740469D02*
G01*
X2814528Y5723689D01*
X2805736Y5711416D01*
X2792620Y5704235D01*
X2777233Y5702000D01*
X2731327Y5702000D01*
X2706524Y5704822D01*
X2696563Y5708756D01*
X2687254Y5715080D01*
X2670254Y5735266D01*
X2651789Y5768825D01*
X2519825Y6015352D01*
X2496451Y6062833D01*
X2475165Y6112328D01*
X2474323Y6112328D01*
X2476777Y6053747D01*
X2477620Y5993553D01*
X2477620Y5717205D01*
X2475348Y5709841D01*
X2467581Y5704345D01*
X2452597Y5700901D01*
X2428417Y5699656D01*
X2404640Y5700901D01*
X2389876Y5704345D01*
X2382512Y5709877D01*
X2380460Y5717278D01*
X2380460Y6193442D01*
X2383472Y6210768D01*
X2391707Y6222274D01*
X2404096Y6229439D01*
X2419405Y6231910D01*
X2477217Y6231910D01*
X2503412Y6229235D01*
X2522463Y6220443D01*
X2538253Y6203443D01*
X2553457Y6176845D01*
X2656735Y5983918D01*
X2674541Y5949443D01*
X2691577Y5915591D01*
X2707550Y5882325D01*
X2722718Y5849719D01*
X2723121Y5849719D01*
X2721289Y5909363D01*
X2720666Y5968640D01*
X2720666Y6216669D01*
X2723121Y6224033D01*
X2731327Y6229748D01*
X2746495Y6233229D01*
X2770675Y6234255D01*
X2794049Y6233229D01*
X2808593Y6229748D01*
X2815774Y6223996D01*
X2817826Y6216632D01*
X2817826Y5740469D01*
G37*
G36*
X3148505Y6229857D02*
G01*
X3188265Y6224139D01*
X3221596Y6215313D01*
X3253344Y6202219D01*
X3280919Y6185841D01*
X3304797Y6166184D01*
X3325316Y6143063D01*
X3342448Y6116379D01*
X3356235Y6085694D01*
X3365750Y6053307D01*
X3371750Y6016529D01*
X3373857Y5974722D01*
X3371526Y5926324D01*
X3364989Y5885095D01*
X3354806Y5850048D01*
X3339869Y5816911D01*
X3321621Y5788921D01*
X3300071Y5765455D01*
X3274974Y5745803D01*
X3246241Y5729767D01*
X3213389Y5717351D01*
X3179039Y5709154D01*
X3138813Y5703880D01*
X3091866Y5702000D01*
X2965214Y5702000D01*
X2952587Y5704051D01*
X2942426Y5709987D01*
X2935778Y5719805D01*
X2933230Y5735999D01*
X2933230Y5786411D01*
X3040648Y5786411D01*
X3096812Y5786411D01*
X3139093Y5789516D01*
X3171367Y5797878D01*
X3199352Y5812413D01*
X3221999Y5832573D01*
X3239443Y5858032D01*
X3252334Y5890202D01*
X3259698Y5926260D01*
X3262372Y5970655D01*
X3260101Y6007567D01*
X3253543Y6040814D01*
X3241922Y6071381D01*
X3225259Y6097014D01*
X3203279Y6118024D01*
X3175251Y6134164D01*
X3142058Y6143807D01*
X3095163Y6147499D01*
X3040648Y6147499D01*
X3040648Y5786411D01*
X2933230Y5786411D01*
X2933230Y6197911D01*
X2935778Y6214105D01*
X2942426Y6223923D01*
X2952587Y6229859D01*
X2965214Y6231910D01*
X3101282Y6231910D01*
X3148505Y6229857D01*
G37*
G36*
X2576871Y4658108D02*
G01*
X2572938Y4619781D01*
X2561704Y4587290D01*
X2543551Y4558895D01*
X2519462Y4535450D01*
X2490307Y4517247D01*
X2454726Y4503539D01*
X2415948Y4495439D01*
X2372367Y4492622D01*
X2321516Y4496688D01*
X2279494Y4506690D01*
X2249378Y4519036D01*
X2233808Y4528708D01*
X2228276Y4536072D01*
X2225015Y4545671D01*
X2222964Y4559556D01*
X2222341Y4579816D01*
X2223350Y4597893D01*
X2225601Y4606964D01*
X2229878Y4612775D01*
X2235457Y4614548D01*
X2249598Y4608942D01*
X2275207Y4596962D01*
X2311660Y4584945D01*
X2333377Y4580845D01*
X2359251Y4579377D01*
X2381026Y4580782D01*
X2399002Y4584689D01*
X2415219Y4591253D01*
X2428311Y4599673D01*
X2438900Y4610411D01*
X2446336Y4623084D01*
X2450745Y4637404D01*
X2452271Y4653675D01*
X2450423Y4671456D01*
X2445090Y4686905D01*
X2436256Y4700513D01*
X2423768Y4712147D01*
X2408345Y4721195D01*
X2388121Y4728377D01*
X2365606Y4732588D01*
X2337526Y4734129D01*
X2291620Y4734129D01*
X2282608Y4735558D01*
X2276453Y4741566D01*
X2272972Y4754169D01*
X2271946Y4775015D01*
X2272972Y4794616D01*
X2276233Y4806413D01*
X2281985Y4812201D01*
X2290375Y4813850D01*
X2336683Y4813850D01*
X2359703Y4815271D01*
X2378888Y4819235D01*
X2396218Y4825982D01*
X2409846Y4834659D01*
X2420883Y4845777D01*
X2428897Y4858913D01*
X2433777Y4873731D01*
X2435455Y4890420D01*
X2430949Y4915443D01*
X2425340Y4926503D01*
X2417613Y4935886D01*
X2407795Y4943437D01*
X2394862Y4949514D01*
X2380214Y4953199D01*
X2362072Y4954534D01*
X2341222Y4952960D01*
X2321919Y4948342D01*
X2288103Y4934787D01*
X2262677Y4921048D01*
X2247327Y4914673D01*
X2241575Y4916102D01*
X2237472Y4921671D01*
X2235017Y4933651D01*
X2234211Y4953911D01*
X2234614Y4971057D01*
X2236263Y4982414D01*
X2239340Y4990254D01*
X2245275Y4997508D01*
X2262091Y5009085D01*
X2294038Y5023960D01*
X2338515Y5036233D01*
X2364318Y5039980D01*
X2393250Y5041289D01*
X2430533Y5038918D01*
X2461503Y5032313D01*
X2489358Y5021123D01*
X2511475Y5006484D01*
X2529284Y4987694D01*
X2542213Y4964975D01*
X2549977Y4939278D01*
X2552691Y4909434D01*
X2551113Y4885930D01*
X2546536Y4864628D01*
X2538874Y4844848D01*
X2528511Y4827625D01*
X2515238Y4812661D01*
X2498799Y4799965D01*
X2479932Y4790128D01*
X2457620Y4782855D01*
X2457620Y4781610D01*
X2484461Y4776293D01*
X2507629Y4767395D01*
X2528270Y4754961D01*
X2545108Y4740027D01*
X2558701Y4722471D01*
X2568665Y4702768D01*
X2574786Y4681399D01*
X2576871Y4658108D01*
G37*
G36*
X3001231Y4882250D02*
G01*
X3001011Y4877341D01*
X3000205Y4870966D01*
X2998557Y4862979D01*
X2995919Y4852758D01*
X2886046Y4521784D01*
X2880514Y4510500D01*
X2869047Y4503759D01*
X2847322Y4500498D01*
X2811454Y4499656D01*
X2775990Y4500682D01*
X2754448Y4504162D01*
X2743201Y4510903D01*
X2737669Y4521784D01*
X2627833Y4852758D01*
X2623913Y4867485D01*
X2622264Y4876938D01*
X2622081Y4882250D01*
X2624316Y4889431D01*
X2632302Y4894560D01*
X2648093Y4897417D01*
X2673299Y4898260D01*
X2700373Y4897234D01*
X2716566Y4894340D01*
X2724956Y4889028D01*
X2729059Y4880638D01*
X2812260Y4612020D01*
X2814715Y4601761D01*
X2817170Y4612020D01*
X2899162Y4880638D01*
X2903046Y4889028D01*
X2911435Y4894340D01*
X2926823Y4897234D01*
X2952028Y4898260D01*
X2976831Y4897417D01*
X2991779Y4894560D01*
X2999180Y4889431D01*
X3001231Y4882250D01*
G37*
G36*
X3399872Y4658108D02*
G01*
X3395938Y4619781D01*
X3384705Y4587290D01*
X3366552Y4558895D01*
X3342463Y4535450D01*
X3313308Y4517247D01*
X3277726Y4503539D01*
X3238948Y4495439D01*
X3195368Y4492622D01*
X3144516Y4496688D01*
X3102494Y4506690D01*
X3072379Y4519036D01*
X3056809Y4528708D01*
X3051277Y4536072D01*
X3048016Y4545671D01*
X3045964Y4559556D01*
X3045341Y4579816D01*
X3046350Y4597893D01*
X3048602Y4606964D01*
X3052879Y4612775D01*
X3058457Y4614548D01*
X3072599Y4608942D01*
X3098208Y4596962D01*
X3134661Y4584945D01*
X3156378Y4580845D01*
X3182252Y4579377D01*
X3204026Y4580782D01*
X3222002Y4584689D01*
X3238220Y4591253D01*
X3251311Y4599673D01*
X3261900Y4610411D01*
X3269337Y4623084D01*
X3273746Y4637404D01*
X3275272Y4653675D01*
X3273424Y4671456D01*
X3268091Y4686905D01*
X3259257Y4700513D01*
X3246769Y4712147D01*
X3231346Y4721195D01*
X3211121Y4728377D01*
X3188607Y4732588D01*
X3160526Y4734129D01*
X3114621Y4734129D01*
X3105608Y4735558D01*
X3099453Y4741566D01*
X3095973Y4754169D01*
X3094947Y4775015D01*
X3095973Y4794616D01*
X3099234Y4806413D01*
X3104986Y4812201D01*
X3113375Y4813850D01*
X3159684Y4813850D01*
X3182704Y4815271D01*
X3201889Y4819235D01*
X3219219Y4825982D01*
X3232847Y4834659D01*
X3243883Y4845777D01*
X3251898Y4858913D01*
X3256777Y4873731D01*
X3258456Y4890420D01*
X3253949Y4915443D01*
X3248341Y4926503D01*
X3240614Y4935886D01*
X3230796Y4943437D01*
X3217862Y4949514D01*
X3203215Y4953199D01*
X3185073Y4954534D01*
X3164222Y4952960D01*
X3144919Y4948342D01*
X3111104Y4934787D01*
X3085678Y4921048D01*
X3070327Y4914673D01*
X3064576Y4916102D01*
X3060472Y4921671D01*
X3058018Y4933651D01*
X3057212Y4953911D01*
X3057615Y4971057D01*
X3059263Y4982414D01*
X3062341Y4990254D01*
X3068276Y4997508D01*
X3085092Y5009085D01*
X3117039Y5023960D01*
X3161516Y5036233D01*
X3187319Y5039980D01*
X3216250Y5041289D01*
X3253534Y5038918D01*
X3284504Y5032313D01*
X3312359Y5021123D01*
X3334476Y5006484D01*
X3352285Y4987694D01*
X3365214Y4964975D01*
X3372978Y4939278D01*
X3375692Y4909434D01*
X3374114Y4885930D01*
X3369537Y4864628D01*
X3361875Y4844848D01*
X3351512Y4827625D01*
X3338239Y4812661D01*
X3321800Y4799965D01*
X3302932Y4790128D01*
X3280621Y4782855D01*
X3280621Y4781610D01*
X3307462Y4776293D01*
X3330629Y4767395D01*
X3351270Y4754961D01*
X3368108Y4740027D01*
X3381702Y4722471D01*
X3391666Y4702768D01*
X3397787Y4681399D01*
X3399872Y4658108D01*
G37*
D11*
%TO.C,J1*%
X11097500Y16270000D02*
G75*
G02*
X10897500Y16270000I-100000J0D01*
G01*
X10897500Y16270000D02*
G75*
G02*
X11097500Y16270000I100000J0D01*
G01*
D14*
%TO.C,G\u002A\u002A\u002A*%
G36*
X3565504Y10712801D02*
G01*
X3919702Y10708890D01*
X3924041Y10649936D01*
X3924418Y10610258D01*
X3920018Y10583991D01*
X3917955Y10580557D01*
X3901001Y10577632D01*
X3859003Y10575025D01*
X3796126Y10572855D01*
X3716539Y10571245D01*
X3624408Y10570315D01*
X3559418Y10570132D01*
X3211306Y10570132D01*
X3211306Y10643422D01*
X3211306Y10716712D01*
X3565504Y10712801D01*
G37*
G36*
X3927005Y12573602D02*
G01*
X3924672Y12535003D01*
X3918898Y12510296D01*
X3917268Y12507874D01*
X3900513Y12505143D01*
X3858703Y12502708D01*
X3795994Y12500681D01*
X3716542Y12499177D01*
X3624502Y12498308D01*
X3559418Y12498137D01*
X3211306Y12498137D01*
X3211306Y12563864D01*
X3211306Y12629592D01*
X3569156Y12629592D01*
X3927005Y12629592D01*
X3927005Y12573602D01*
G37*
G36*
X3137545Y13100638D02*
G01*
X3136814Y13031259D01*
X2776782Y12753743D01*
X2416750Y12476228D01*
X2777513Y12472321D01*
X3138276Y12468414D01*
X3138276Y12358948D01*
X3138276Y12249482D01*
X2586896Y12253309D01*
X2035516Y12257136D01*
X2031202Y12338872D01*
X2026889Y12420608D01*
X2367143Y12689418D01*
X2707396Y12958229D01*
X2367804Y12962149D01*
X2028213Y12966070D01*
X2028213Y13068044D01*
X2028213Y13170017D01*
X2583244Y13170017D01*
X3138276Y13170017D01*
X3137545Y13100638D01*
G37*
G36*
X3688323Y14425484D02*
G01*
X3788441Y14423527D01*
X3860840Y14420292D01*
X3905013Y14415801D01*
X3920215Y14410705D01*
X3926109Y14391171D01*
X3919614Y14367830D01*
X3898578Y14338384D01*
X3860849Y14300530D01*
X3804274Y14251969D01*
X3726701Y14190399D01*
X3681872Y14155929D01*
X3452307Y13980655D01*
X3689656Y13976642D01*
X3927005Y13972629D01*
X3927005Y13907263D01*
X3927005Y13841898D01*
X3569156Y13841898D01*
X3211306Y13841898D01*
X3211306Y13899171D01*
X3212008Y13919892D01*
X3216185Y13937930D01*
X3226943Y13956551D01*
X3247390Y13979024D01*
X3280632Y14008614D01*
X3329776Y14048589D01*
X3397929Y14102215D01*
X3423136Y14121914D01*
X3634966Y14287383D01*
X3423136Y14291425D01*
X3211306Y14295467D01*
X3211306Y14360804D01*
X3211306Y14426141D01*
X3560991Y14426141D01*
X3688323Y14425484D01*
G37*
G36*
X3258776Y10346529D02*
G01*
X3285810Y10335379D01*
X3335259Y10314944D01*
X3402548Y10287116D01*
X3483103Y10253789D01*
X3572349Y10216853D01*
X3616626Y10198524D01*
X3927005Y10070027D01*
X3927005Y10000623D01*
X3927005Y9931218D01*
X3572807Y9785498D01*
X3218609Y9639778D01*
X3214116Y9712860D01*
X3214523Y9760756D01*
X3221658Y9790847D01*
X3226195Y9796184D01*
X3244670Y9804446D01*
X3285799Y9821103D01*
X3344879Y9844304D01*
X3417205Y9872201D01*
X3489774Y9899809D01*
X3568606Y9929993D01*
X3637046Y9956927D01*
X3690776Y9978851D01*
X3725477Y9994006D01*
X3736888Y10000494D01*
X3723946Y10007714D01*
X3687833Y10023502D01*
X3632720Y10046148D01*
X3562781Y10073940D01*
X3482187Y10105167D01*
X3474151Y10108241D01*
X3211306Y10208684D01*
X3211306Y10287362D01*
X3211306Y10366039D01*
X3258776Y10346529D01*
G37*
G36*
X3335766Y12215916D02*
G01*
X3340455Y12164351D01*
X3341592Y12119504D01*
X3340468Y12102719D01*
X3335458Y12067257D01*
X3631232Y12063303D01*
X3927005Y12059349D01*
X3927005Y12003661D01*
X3924659Y11965165D01*
X3918860Y11940578D01*
X3917268Y11938236D01*
X3900281Y11935218D01*
X3858736Y11932580D01*
X3797288Y11930479D01*
X3720591Y11929068D01*
X3633297Y11928503D01*
X3625146Y11928499D01*
X3526284Y11928604D01*
X3452933Y11928122D01*
X3401400Y11925859D01*
X3367989Y11920619D01*
X3349007Y11911208D01*
X3340759Y11896430D01*
X3339550Y11875091D01*
X3341687Y11845996D01*
X3342334Y11837027D01*
X3341025Y11791396D01*
X3335418Y11753042D01*
X3325947Y11724564D01*
X3307884Y11712192D01*
X3271249Y11709412D01*
X3268570Y11709408D01*
X3211306Y11709408D01*
X3211306Y12001530D01*
X3211306Y12293651D01*
X3268680Y12293651D01*
X3326053Y12293651D01*
X3335766Y12215916D01*
G37*
G36*
X2747078Y9799580D02*
G01*
X2855843Y9759090D01*
X2953168Y9697181D01*
X3034560Y9614159D01*
X3035984Y9612300D01*
X3069891Y9561753D01*
X3095799Y9507350D01*
X3114635Y9444449D01*
X3127327Y9368405D01*
X3134804Y9274576D01*
X3137992Y9158317D01*
X3138276Y9100505D01*
X3138276Y8831656D01*
X2586896Y8835483D01*
X2581176Y8835523D01*
X2035516Y8839310D01*
X2031373Y9051098D01*
X2228561Y9051098D01*
X2581176Y9051098D01*
X2933791Y9051098D01*
X2933709Y9186205D01*
X2932068Y9253205D01*
X2927762Y9315360D01*
X2921595Y9362424D01*
X2918950Y9374150D01*
X2882498Y9458452D01*
X2824127Y9524378D01*
X2759535Y9565963D01*
X2669176Y9597863D01*
X2575663Y9606494D01*
X2484346Y9593476D01*
X2400574Y9560431D01*
X2329699Y9508979D01*
X2277071Y9440740D01*
X2265221Y9416251D01*
X2255049Y9378784D01*
X2245820Y9320581D01*
X2238720Y9250117D01*
X2236099Y9208114D01*
X2228561Y9051098D01*
X2031373Y9051098D01*
X2031230Y9058401D01*
X2031830Y9209265D01*
X2040642Y9335223D01*
X2058533Y9439647D01*
X2086371Y9525904D01*
X2125025Y9597364D01*
X2175363Y9657398D01*
X2188790Y9670039D01*
X2287409Y9741233D01*
X2397037Y9789478D01*
X2513185Y9815080D01*
X2631362Y9818345D01*
X2747078Y9799580D01*
G37*
G36*
X3921402Y9596146D02*
G01*
X3925183Y9564593D01*
X3924154Y9536751D01*
X3919948Y9495516D01*
X3909295Y9470483D01*
X3885010Y9451712D01*
X3849877Y9434019D01*
X3780053Y9400665D01*
X3784150Y9222230D01*
X3788247Y9043795D01*
X3857626Y9010650D01*
X3898115Y8989868D01*
X3918683Y8971546D01*
X3926066Y8946196D01*
X3927005Y8912921D01*
X3924746Y8872471D01*
X3919056Y8846291D01*
X3916051Y8842092D01*
X3900299Y8846132D01*
X3861577Y8860729D01*
X3803515Y8884375D01*
X3729746Y8915560D01*
X3649489Y8950355D01*
X3643902Y8952777D01*
X3557619Y8990942D01*
X3210142Y9146038D01*
X3214338Y9224580D01*
X3380501Y9224580D01*
X3390846Y9216822D01*
X3422674Y9200216D01*
X3470629Y9177441D01*
X3512530Y9158552D01*
X3649489Y9098036D01*
X3649489Y9220628D01*
X3649010Y9276348D01*
X3647731Y9318828D01*
X3645894Y9341317D01*
X3645129Y9343220D01*
X3629974Y9337626D01*
X3595476Y9322986D01*
X3548805Y9302516D01*
X3497132Y9279430D01*
X3447629Y9256944D01*
X3407466Y9238273D01*
X3383815Y9226631D01*
X3380501Y9224580D01*
X3214338Y9224580D01*
X3214376Y9225293D01*
X3218609Y9304548D01*
X3554550Y9454557D01*
X3647249Y9495654D01*
X3731666Y9532516D01*
X3803980Y9563519D01*
X3860369Y9587041D01*
X3897015Y9601459D01*
X3909548Y9605348D01*
X3921402Y9596146D01*
G37*
G36*
X3921410Y11655594D02*
G01*
X3925182Y11624009D01*
X3924154Y11596346D01*
X3919947Y11555179D01*
X3909287Y11530223D01*
X3884973Y11511560D01*
X3849874Y11494032D01*
X3780046Y11460961D01*
X3784147Y11282108D01*
X3788247Y11103255D01*
X3857626Y11070109D01*
X3898115Y11049327D01*
X3918683Y11031005D01*
X3926066Y11005656D01*
X3927005Y10972380D01*
X3924746Y10931924D01*
X3919055Y10905732D01*
X3916051Y10901527D01*
X3900300Y10905563D01*
X3861581Y10920160D01*
X3803525Y10943810D01*
X3729765Y10975003D01*
X3649489Y11009821D01*
X3643933Y11012231D01*
X3557732Y11050378D01*
X3210368Y11205497D01*
X3214452Y11284039D01*
X3380501Y11284039D01*
X3390846Y11276282D01*
X3422674Y11259676D01*
X3470629Y11236900D01*
X3512530Y11218012D01*
X3649489Y11157496D01*
X3649489Y11280088D01*
X3649010Y11335808D01*
X3647731Y11378287D01*
X3645894Y11400776D01*
X3645129Y11402680D01*
X3629974Y11397085D01*
X3595476Y11382445D01*
X3548805Y11361975D01*
X3497132Y11338890D01*
X3447629Y11316404D01*
X3407466Y11297733D01*
X3383815Y11286091D01*
X3380501Y11284039D01*
X3214452Y11284039D01*
X3214489Y11284752D01*
X3218609Y11364007D01*
X3554550Y11514016D01*
X3647249Y11555114D01*
X3731666Y11591975D01*
X3803980Y11622979D01*
X3860369Y11646501D01*
X3897015Y11660919D01*
X3909548Y11664807D01*
X3921410Y11655594D01*
G37*
G36*
X3660717Y13591953D02*
G01*
X3746642Y13561152D01*
X3821020Y13513791D01*
X3878085Y13451689D01*
X3902683Y13405487D01*
X3919518Y13349822D01*
X3931147Y13285387D01*
X3936012Y13224166D01*
X3932552Y13178146D01*
X3932352Y13177320D01*
X3899243Y13078710D01*
X3852919Y13002697D01*
X3789806Y12944305D01*
X3745812Y12917454D01*
X3704140Y12899561D01*
X3657011Y12889590D01*
X3594290Y12885708D01*
X3590925Y12885674D01*
X3569156Y12885451D01*
X3506031Y12886640D01*
X3460690Y12892268D01*
X3421761Y12904939D01*
X3377874Y12927252D01*
X3371973Y12930566D01*
X3293178Y12988029D01*
X3239152Y13058769D01*
X3208054Y13145832D01*
X3199030Y13216510D01*
X3200593Y13246757D01*
X3328821Y13246757D01*
X3333267Y13181875D01*
X3348737Y13128815D01*
X3349710Y13126884D01*
X3391860Y13073934D01*
X3450175Y13038685D01*
X3518561Y13020680D01*
X3590925Y13019461D01*
X3661174Y13034572D01*
X3723214Y13065555D01*
X3770952Y13111953D01*
X3794876Y13160274D01*
X3803414Y13217473D01*
X3800145Y13282448D01*
X3786493Y13341660D01*
X3772756Y13370599D01*
X3724842Y13418966D01*
X3660833Y13449595D01*
X3587709Y13462665D01*
X3512450Y13458352D01*
X3442037Y13436834D01*
X3383447Y13398288D01*
X3352400Y13359918D01*
X3335249Y13310444D01*
X3328821Y13246757D01*
X3200593Y13246757D01*
X3204618Y13324655D01*
X3234627Y13416819D01*
X3289218Y13493297D01*
X3368552Y13554383D01*
X3391322Y13566801D01*
X3477291Y13596596D01*
X3569011Y13604374D01*
X3660717Y13591953D01*
G37*
G36*
X3132447Y14441353D02*
G01*
X3136289Y14406139D01*
X3138184Y14355494D01*
X3138276Y14340680D01*
X3138276Y14226006D01*
X3036033Y14180846D01*
X2933791Y14135686D01*
X2933791Y13851180D01*
X2933791Y13566674D01*
X3036033Y13519547D01*
X3138276Y13472421D01*
X3138276Y13358193D01*
X3137654Y13301109D01*
X3134923Y13267921D01*
X3128783Y13253321D01*
X3117938Y13252005D01*
X3112715Y13253728D01*
X3094087Y13261709D01*
X3051840Y13280315D01*
X2988999Y13308198D01*
X2908590Y13344009D01*
X2813641Y13386400D01*
X2729305Y13424124D01*
X2707176Y13434023D01*
X2592222Y13485529D01*
X2561335Y13499383D01*
X2035516Y13735273D01*
X2035516Y13845460D01*
X2298413Y13845460D01*
X2306203Y13838484D01*
X2316588Y13833577D01*
X2344654Y13821405D01*
X2393217Y13800335D01*
X2455976Y13773100D01*
X2526631Y13742435D01*
X2543078Y13735296D01*
X2729305Y13654462D01*
X2729305Y13851284D01*
X2728547Y13922646D01*
X2726467Y13981561D01*
X2723359Y14022919D01*
X2719517Y14041608D01*
X2718351Y14042083D01*
X2701816Y14034538D01*
X2663222Y14017589D01*
X2607363Y13993322D01*
X2539037Y13963824D01*
X2491861Y13943542D01*
X2411809Y13908989D01*
X2355551Y13883857D01*
X2319974Y13866194D01*
X2301966Y13854046D01*
X2298413Y13845460D01*
X2035516Y13845460D01*
X2035516Y13850421D01*
X2035516Y13965568D01*
X2575941Y14209356D01*
X2693459Y14262278D01*
X2802707Y14311298D01*
X2900813Y14355143D01*
X2984907Y14392537D01*
X3052116Y14422204D01*
X3099570Y14442870D01*
X3124397Y14453259D01*
X3127321Y14454249D01*
X3132447Y14441353D01*
G37*
G36*
X2649590Y12081195D02*
G01*
X2702280Y12078278D01*
X2742252Y12071745D01*
X2777748Y12060228D01*
X2817008Y12042359D01*
X2818575Y12041591D01*
X2898079Y11990703D01*
X2975681Y11920214D01*
X3042872Y11838982D01*
X3089381Y11759770D01*
X3122150Y11657405D01*
X3134487Y11544601D01*
X3125841Y11432324D01*
X3109161Y11366164D01*
X3056792Y11252931D01*
X2983417Y11156733D01*
X2892820Y11079523D01*
X2788786Y11023255D01*
X2675099Y10989881D01*
X2623897Y10986229D01*
X2555541Y10981354D01*
X2433897Y10999627D01*
X2411475Y11006098D01*
X2297023Y11054984D01*
X2200671Y11125447D01*
X2120709Y11219043D01*
X2061159Y11324743D01*
X2031383Y11418299D01*
X2020082Y11524627D01*
X2023091Y11569616D01*
X2144527Y11569616D01*
X2148806Y11465295D01*
X2177591Y11364602D01*
X2231113Y11272603D01*
X2248920Y11250946D01*
X2331184Y11177596D01*
X2423939Y11129018D01*
X2522929Y11104773D01*
X2623897Y11104417D01*
X2722583Y11127509D01*
X2814733Y11173606D01*
X2896087Y11242267D01*
X2957447Y11324490D01*
X2999119Y11422733D01*
X3013169Y11527573D01*
X2999482Y11635781D01*
X2971170Y11716711D01*
X2924566Y11801479D01*
X2867368Y11865590D01*
X2791954Y11917450D01*
X2786267Y11920582D01*
X2687639Y11958587D01*
X2582671Y11971466D01*
X2477530Y11960031D01*
X2378381Y11925088D01*
X2291390Y11867448D01*
X2276416Y11853678D01*
X2208563Y11768874D01*
X2164523Y11672498D01*
X2144527Y11569616D01*
X2023091Y11569616D01*
X2027381Y11633766D01*
X2053408Y11735758D01*
X2055876Y11742223D01*
X2102980Y11830235D01*
X2171364Y11915144D01*
X2253530Y11988821D01*
X2326350Y12035376D01*
X2367545Y12055984D01*
X2402065Y12069394D01*
X2438170Y12077145D01*
X2484119Y12080775D01*
X2548170Y12081822D01*
X2575941Y12081863D01*
X2649590Y12081195D01*
G37*
G36*
X3132334Y10922666D02*
G01*
X3136376Y10903171D01*
X3137999Y10863196D01*
X3138276Y10807695D01*
X3138276Y10676528D01*
X2955700Y10519300D01*
X2773124Y10362072D01*
X2773124Y10261617D01*
X2773124Y10161161D01*
X2955700Y10161161D01*
X3138276Y10161161D01*
X3138276Y10058919D01*
X3138276Y9956676D01*
X2581989Y9956676D01*
X2398234Y9956676D01*
X2025702Y9956676D01*
X2029853Y10161161D01*
X2232698Y10161161D01*
X2398234Y10161161D01*
X2465222Y10162077D01*
X2521266Y10164562D01*
X2560030Y10168222D01*
X2574828Y10172116D01*
X2578650Y10190141D01*
X2581056Y10231378D01*
X2581864Y10289854D01*
X2580891Y10359593D01*
X2580726Y10365647D01*
X2577489Y10448673D01*
X2572744Y10507883D01*
X2565741Y10548663D01*
X2555729Y10576399D01*
X2549988Y10586139D01*
X2504297Y10629598D01*
X2443858Y10653665D01*
X2377401Y10656326D01*
X2320335Y10639093D01*
X2286355Y10615169D01*
X2261823Y10579727D01*
X2245530Y10528638D01*
X2236265Y10457773D01*
X2232818Y10363004D01*
X2232721Y10340086D01*
X2232698Y10161161D01*
X2029853Y10161161D01*
X2032003Y10267056D01*
X2035724Y10399298D01*
X2040935Y10503440D01*
X2047612Y10579147D01*
X2055733Y10626085D01*
X2057730Y10632573D01*
X2093192Y10700519D01*
X2147404Y10766689D01*
X2211203Y10820692D01*
X2237919Y10836859D01*
X2307153Y10860716D01*
X2390409Y10870525D01*
X2476103Y10866297D01*
X2552653Y10848045D01*
X2578747Y10836490D01*
X2650019Y10783697D01*
X2706148Y10712289D01*
X2730906Y10659456D01*
X2744975Y10629239D01*
X2757991Y10616746D01*
X2759413Y10616938D01*
X2774212Y10627670D01*
X2806596Y10654229D01*
X2852314Y10693036D01*
X2907115Y10740512D01*
X2929374Y10760027D01*
X2988014Y10811436D01*
X3040546Y10857185D01*
X3082230Y10893166D01*
X3108325Y10915273D01*
X3112715Y10918831D01*
X3124804Y10926335D01*
X3132334Y10922666D01*
G37*
G36*
X2720931Y11893915D02*
G01*
X2757370Y11872177D01*
X2779483Y11854338D01*
X2813031Y11829735D01*
X2839617Y11818692D01*
X2847284Y11819651D01*
X2857652Y11819211D01*
X2854038Y11798873D01*
X2851692Y11774591D01*
X2858655Y11767832D01*
X2879332Y11758767D01*
X2909331Y11736954D01*
X2939180Y11710465D01*
X2959408Y11687373D01*
X2963003Y11678897D01*
X2953243Y11665802D01*
X2927575Y11670888D01*
X2891417Y11692371D01*
X2870295Y11709408D01*
X2838812Y11735658D01*
X2816985Y11751305D01*
X2812488Y11753226D01*
X2797850Y11741070D01*
X2776008Y11709778D01*
X2751148Y11667113D01*
X2727459Y11620839D01*
X2709126Y11578719D01*
X2700338Y11548516D01*
X2700093Y11544844D01*
X2706901Y11516018D01*
X2724387Y11474990D01*
X2748144Y11429560D01*
X2773765Y11387526D01*
X2796842Y11356688D01*
X2812970Y11344844D01*
X2813109Y11344849D01*
X2830027Y11353945D01*
X2859815Y11376224D01*
X2874814Y11388667D01*
X2915729Y11418731D01*
X2946162Y11431492D01*
X2961813Y11425480D01*
X2963003Y11418799D01*
X2952879Y11402342D01*
X2927066Y11374931D01*
X2908230Y11357577D01*
X2877376Y11326231D01*
X2859618Y11299830D01*
X2857749Y11290337D01*
X2849626Y11274180D01*
X2835840Y11270631D01*
X2809230Y11261205D01*
X2773297Y11238204D01*
X2759069Y11226813D01*
X2719517Y11195676D01*
X2696413Y11185164D01*
X2686508Y11194330D01*
X2685487Y11205406D01*
X2696526Y11226054D01*
X2724645Y11254296D01*
X2744665Y11270091D01*
X2803842Y11312959D01*
X2725080Y11372426D01*
X2658587Y11414862D01*
X2599907Y11432384D01*
X2580479Y11429967D01*
X2541889Y11425165D01*
X2477382Y11393380D01*
X2455567Y11378992D01*
X2415924Y11350362D01*
X2388184Y11327798D01*
X2378759Y11316916D01*
X2389160Y11303086D01*
X2415405Y11278878D01*
X2429881Y11266951D01*
X2463951Y11234993D01*
X2480895Y11209572D01*
X2479987Y11194894D01*
X2460503Y11195166D01*
X2440800Y11203627D01*
X2401577Y11229271D01*
X2373701Y11254138D01*
X2347525Y11273612D01*
X2327331Y11276389D01*
X2313996Y11278645D01*
X2315801Y11299283D01*
X2316220Y11323142D01*
X2308553Y11329649D01*
X2287545Y11338694D01*
X2257295Y11360472D01*
X2227296Y11386949D01*
X2207038Y11410091D01*
X2203486Y11418584D01*
X2213209Y11431723D01*
X2238937Y11426487D01*
X2275506Y11404632D01*
X2298078Y11386419D01*
X2330880Y11360908D01*
X2356103Y11353368D01*
X2379295Y11366039D01*
X2406002Y11401160D01*
X2429219Y11439384D01*
X2458550Y11504130D01*
X2462864Y11549750D01*
X2561959Y11549750D01*
X2562943Y11532432D01*
X2580479Y11523122D01*
X2597850Y11526831D01*
X2611907Y11545445D01*
X2603503Y11560797D01*
X2591409Y11563347D01*
X2566970Y11555098D01*
X2561959Y11549750D01*
X2462864Y11549750D01*
X2464143Y11563281D01*
X2445545Y11624341D01*
X2414886Y11676739D01*
X2387522Y11716313D01*
X2367053Y11743949D01*
X2358470Y11753226D01*
X2345221Y11744968D01*
X2317011Y11723955D01*
X2298425Y11709408D01*
X2253903Y11678786D01*
X2221541Y11666180D01*
X2204925Y11672689D01*
X2203486Y11680334D01*
X2214535Y11696650D01*
X2242602Y11721425D01*
X2261188Y11735107D01*
X2298235Y11765256D01*
X2311862Y11789714D01*
X2310744Y11802525D01*
X2309570Y11821439D01*
X2318909Y11819834D01*
X2338735Y11822434D01*
X2370797Y11840389D01*
X2389530Y11854520D01*
X2433063Y11885777D01*
X2464338Y11898789D01*
X2479902Y11892376D01*
X2481002Y11885744D01*
X2470620Y11869196D01*
X2444286Y11842626D01*
X2427467Y11828073D01*
X2398433Y11801490D01*
X2387076Y11779894D01*
X2395303Y11758445D01*
X2425028Y11732303D01*
X2478159Y11696626D01*
X2479752Y11695604D01*
X2538643Y11663627D01*
X2587754Y11653573D01*
X2636553Y11665390D01*
X2687744Y11694494D01*
X2733643Y11727416D01*
X2769767Y11757987D01*
X2791949Y11782074D01*
X2796026Y11795544D01*
X2791114Y11797044D01*
X2769848Y11806073D01*
X2739405Y11827823D01*
X2709289Y11854290D01*
X2689007Y11877472D01*
X2685487Y11885979D01*
X2695222Y11899104D01*
X2720931Y11893915D01*
G37*
D15*
%TO.C,U3*%
X15157500Y12570000D02*
X15157500Y7470000D01*
X15157500Y7470000D02*
X17857500Y7470000D01*
X17857500Y12570000D02*
X15157500Y12570000D01*
X17857500Y7470000D02*
X17857500Y12570000D01*
D11*
X14857500Y8470000D02*
G75*
G02*
X14657500Y8470000I-100000J0D01*
G01*
X14657500Y8470000D02*
G75*
G02*
X14857500Y8470000I100000J0D01*
G01*
D15*
%TO.C,U4*%
X7150000Y12740000D02*
X7150000Y12140000D01*
X7150000Y12740000D02*
X7750000Y12740000D01*
X7150000Y6540000D02*
X7150000Y7140000D01*
X7150000Y6540000D02*
X7750000Y6540000D01*
X13350000Y12740000D02*
X12750000Y12740000D01*
X13350000Y12740000D02*
X13350000Y12140000D01*
X13350000Y6540000D02*
X12750000Y6540000D01*
X13350000Y6540000D02*
X13350000Y7140000D01*
D11*
X6850000Y11590000D02*
G75*
G02*
X6650000Y11590000I-100000J0D01*
G01*
X6650000Y11590000D02*
G75*
G02*
X6850000Y11590000I100000J0D01*
G01*
D14*
%TO.C,G\u002A\u002A\u002A*%
G36*
X10577667Y3536718D02*
G01*
X10575687Y3534737D01*
X10573706Y3536718D01*
X10575687Y3538698D01*
X10577667Y3536718D01*
G37*
G36*
X11381690Y3726831D02*
G01*
X11379710Y3724851D01*
X11377729Y3726831D01*
X11379710Y3728812D01*
X11381690Y3726831D01*
G37*
G36*
X12696644Y2697048D02*
G01*
X12694664Y2695068D01*
X12692683Y2697048D01*
X12694664Y2699029D01*
X12696644Y2697048D01*
G37*
G36*
X11397533Y3303127D02*
G01*
X11397533Y3277474D01*
X11327231Y3276393D01*
X11256928Y3275311D01*
X11254948Y3146588D01*
X11252967Y3017865D01*
X11218311Y3016721D01*
X11183655Y3015577D01*
X11183655Y3146434D01*
X11183655Y3277291D01*
X11114343Y3277291D01*
X11045030Y3277291D01*
X11045030Y3303036D01*
X11045030Y3328781D01*
X11221282Y3328781D01*
X11397533Y3328781D01*
X11397533Y3303127D01*
G37*
G36*
X8712175Y3202038D02*
G01*
X8714156Y3077276D01*
X8830178Y3076226D01*
X8946201Y3075175D01*
X8945039Y3046520D01*
X8943876Y3017865D01*
X8794254Y3016827D01*
X8754211Y3016603D01*
X8721458Y3016548D01*
X8695365Y3016681D01*
X8675302Y3017018D01*
X8660637Y3017574D01*
X8650742Y3018367D01*
X8644986Y3019414D01*
X8642739Y3020730D01*
X8642708Y3020801D01*
X8642303Y3025770D01*
X8641981Y3037762D01*
X8641747Y3055877D01*
X8641606Y3079217D01*
X8641563Y3106883D01*
X8641624Y3137976D01*
X8641793Y3171597D01*
X8641824Y3176306D01*
X8642863Y3326800D01*
X8676529Y3326800D01*
X8710195Y3326800D01*
X8712175Y3202038D01*
G37*
G36*
X10284614Y3563254D02*
G01*
X10283587Y3555469D01*
X10280106Y3545648D01*
X10278926Y3543224D01*
X10272611Y3535281D01*
X10260952Y3524438D01*
X10245411Y3511852D01*
X10227445Y3498682D01*
X10208516Y3486085D01*
X10201400Y3481706D01*
X10188230Y3473365D01*
X10172698Y3462915D01*
X10161793Y3455222D01*
X10141997Y3440905D01*
X10127391Y3430569D01*
X10116739Y3423567D01*
X10108804Y3419248D01*
X10102348Y3416966D01*
X10096134Y3416071D01*
X10088927Y3415916D01*
X10086816Y3415916D01*
X10075429Y3416590D01*
X10068152Y3418315D01*
X10066736Y3419712D01*
X10069883Y3423071D01*
X10078574Y3429883D01*
X10091684Y3439328D01*
X10108087Y3450585D01*
X10119216Y3457982D01*
X10138031Y3470490D01*
X10155192Y3482170D01*
X10169278Y3492035D01*
X10178868Y3499098D01*
X10181597Y3501327D01*
X10187672Y3505964D01*
X10198422Y3513421D01*
X10212399Y3522767D01*
X10228152Y3533070D01*
X10244234Y3543396D01*
X10259197Y3552814D01*
X10271590Y3560393D01*
X10279966Y3565198D01*
X10282761Y3566423D01*
X10284614Y3563254D01*
G37*
G36*
X9812996Y3252349D02*
G01*
X9817140Y3249067D01*
X9818901Y3247311D01*
X9822942Y3240848D01*
X9820910Y3233176D01*
X9820536Y3232458D01*
X9818351Y3228602D01*
X9815657Y3225094D01*
X9811363Y3221056D01*
X9804377Y3215606D01*
X9793609Y3207864D01*
X9777966Y3196949D01*
X9767819Y3189918D01*
X9751029Y3178264D01*
X9733879Y3166316D01*
X9719287Y3156108D01*
X9715264Y3153281D01*
X9704087Y3145712D01*
X9695448Y3140416D01*
X9691500Y3138625D01*
X9687058Y3136309D01*
X9678451Y3130311D01*
X9668685Y3122824D01*
X9656551Y3113855D01*
X9646855Y3109090D01*
X9636319Y3107252D01*
X9628088Y3107023D01*
X9616472Y3107688D01*
X9608924Y3109442D01*
X9607294Y3110991D01*
X9608727Y3112922D01*
X9615216Y3112922D01*
X9617196Y3110942D01*
X9619177Y3112922D01*
X9617196Y3114903D01*
X9615216Y3112922D01*
X9608727Y3112922D01*
X9610355Y3115116D01*
X9618329Y3121875D01*
X9628088Y3128845D01*
X9658645Y3149506D01*
X9693461Y3173605D01*
X9704332Y3181225D01*
X9715585Y3188878D01*
X9730546Y3198717D01*
X9746188Y3208755D01*
X9747899Y3209835D01*
X9763612Y3220087D01*
X9779109Y3230773D01*
X9791259Y3239730D01*
X9792134Y3240418D01*
X9802567Y3248558D01*
X9808829Y3252357D01*
X9812996Y3252349D01*
G37*
G36*
X7602312Y3328718D02*
G01*
X7635391Y3328519D01*
X7661574Y3328167D01*
X7681373Y3327646D01*
X7695300Y3326941D01*
X7703867Y3326036D01*
X7707587Y3324913D01*
X7707751Y3324196D01*
X7707879Y3321225D01*
X7713731Y3321916D01*
X7723099Y3321210D01*
X7733877Y3313850D01*
X7734120Y3313628D01*
X7745696Y3303036D01*
X7746075Y3233976D01*
X7746455Y3164917D01*
X7733690Y3153772D01*
X7720926Y3142628D01*
X7611553Y3142573D01*
X7582486Y3142476D01*
X7555682Y3142228D01*
X7532261Y3141852D01*
X7513344Y3141372D01*
X7500051Y3140811D01*
X7493501Y3140190D01*
X7493369Y3140157D01*
X7489991Y3138934D01*
X7487580Y3136552D01*
X7485940Y3131792D01*
X7484880Y3123429D01*
X7484203Y3110243D01*
X7483717Y3091012D01*
X7483467Y3077830D01*
X7482376Y3017865D01*
X7447720Y3016721D01*
X7413064Y3015577D01*
X7413064Y3172179D01*
X7413064Y3217235D01*
X7481146Y3217235D01*
X7482344Y3202801D01*
X7484688Y3195698D01*
X7487700Y3193828D01*
X7493832Y3192409D01*
X7503988Y3191387D01*
X7519071Y3190708D01*
X7539984Y3190318D01*
X7567631Y3190164D01*
X7577764Y3190156D01*
X7606463Y3190184D01*
X7628300Y3190331D01*
X7644333Y3190691D01*
X7655622Y3191361D01*
X7663225Y3192435D01*
X7668202Y3194009D01*
X7671610Y3196176D01*
X7674316Y3198824D01*
X7680429Y3210338D01*
X7683044Y3226006D01*
X7682235Y3242908D01*
X7678073Y3258128D01*
X7672610Y3266886D01*
X7662828Y3277441D01*
X7572602Y3276376D01*
X7482376Y3275311D01*
X7481232Y3238276D01*
X7481146Y3217235D01*
X7413064Y3217235D01*
X7413064Y3328781D01*
X7561824Y3328781D01*
X7602312Y3328718D01*
G37*
G36*
X12501870Y3328716D02*
G01*
X12535098Y3328511D01*
X12561391Y3328150D01*
X12581245Y3327619D01*
X12595151Y3326901D01*
X12603604Y3325982D01*
X12607097Y3324846D01*
X12607171Y3324242D01*
X12607393Y3321371D01*
X12614131Y3322155D01*
X12624259Y3322138D01*
X12633137Y3318147D01*
X12638355Y3311763D01*
X12638375Y3306239D01*
X12637898Y3301856D01*
X12640321Y3302496D01*
X12642837Y3302868D01*
X12644855Y3300123D01*
X12646413Y3293623D01*
X12647546Y3282728D01*
X12648290Y3266798D01*
X12648684Y3245194D01*
X12648762Y3217277D01*
X12648563Y3182408D01*
X12648366Y3161753D01*
X12647135Y3044235D01*
X12637424Y3033904D01*
X12629622Y3027567D01*
X12623101Y3025450D01*
X12622365Y3025625D01*
X12618788Y3025681D01*
X12619126Y3024266D01*
X12618994Y3022201D01*
X12615434Y3020489D01*
X12607873Y3019099D01*
X12595735Y3018004D01*
X12578448Y3017174D01*
X12555438Y3016581D01*
X12526132Y3016195D01*
X12489955Y3015987D01*
X12454285Y3015929D01*
X12411674Y3016036D01*
X12376697Y3016385D01*
X12349412Y3016976D01*
X12329877Y3017806D01*
X12318150Y3018873D01*
X12314337Y3020007D01*
X12309025Y3022275D01*
X12303705Y3021563D01*
X12298133Y3020719D01*
X12298709Y3023994D01*
X12299598Y3027117D01*
X12296932Y3025984D01*
X12290707Y3026346D01*
X12282457Y3032003D01*
X12272849Y3041030D01*
X12272849Y3041630D01*
X12637234Y3041630D01*
X12639214Y3039649D01*
X12641194Y3041630D01*
X12639214Y3043610D01*
X12637234Y3041630D01*
X12272849Y3041630D01*
X12272849Y3170822D01*
X12272851Y3176584D01*
X12272859Y3206282D01*
X12272927Y3234684D01*
X12273107Y3256892D01*
X12273456Y3273771D01*
X12273619Y3277291D01*
X12340181Y3277291D01*
X12340181Y3176584D01*
X12340217Y3145636D01*
X12340368Y3121696D01*
X12340695Y3103851D01*
X12341260Y3091186D01*
X12342124Y3082787D01*
X12343350Y3077743D01*
X12344999Y3075138D01*
X12347112Y3074065D01*
X12354265Y3073248D01*
X12367865Y3072618D01*
X12386609Y3072169D01*
X12409193Y3071894D01*
X12434312Y3071787D01*
X12460662Y3071842D01*
X12486938Y3072050D01*
X12511838Y3072407D01*
X12534056Y3072905D01*
X12552289Y3073538D01*
X12565231Y3074299D01*
X12571580Y3075181D01*
X12571624Y3075197D01*
X12581784Y3079060D01*
X12581784Y3178176D01*
X12581784Y3277291D01*
X12460982Y3277291D01*
X12340181Y3277291D01*
X12273619Y3277291D01*
X12274029Y3286183D01*
X12274882Y3294993D01*
X12276070Y3301065D01*
X12277649Y3305261D01*
X12279674Y3308447D01*
X12281869Y3311101D01*
X12286659Y3314918D01*
X12629312Y3314918D01*
X12631293Y3312938D01*
X12633273Y3314918D01*
X12631293Y3316899D01*
X12629312Y3314918D01*
X12286659Y3314918D01*
X12291757Y3318980D01*
X12301670Y3322214D01*
X12309534Y3323614D01*
X12312453Y3325810D01*
X12316270Y3326478D01*
X12327143Y3327093D01*
X12344207Y3327639D01*
X12366597Y3328098D01*
X12393447Y3328452D01*
X12423892Y3328685D01*
X12457067Y3328779D01*
X12461216Y3328781D01*
X12501870Y3328716D01*
G37*
G36*
X10218913Y3469543D02*
G01*
X10225730Y3466719D01*
X10234332Y3460229D01*
X10246308Y3449059D01*
X10249339Y3446084D01*
X10261438Y3434454D01*
X10272047Y3424806D01*
X10279471Y3418659D01*
X10281183Y3417514D01*
X10286370Y3413588D01*
X10296039Y3405328D01*
X10308923Y3393848D01*
X10323755Y3380263D01*
X10327722Y3376572D01*
X10367750Y3339208D01*
X10367750Y3298114D01*
X10367489Y3278665D01*
X10366645Y3266354D01*
X10365127Y3260418D01*
X10363177Y3259847D01*
X10360426Y3260318D01*
X10361125Y3258594D01*
X10361775Y3250951D01*
X10358295Y3238711D01*
X10351438Y3223517D01*
X10341955Y3207011D01*
X10330598Y3190836D01*
X10329429Y3189352D01*
X10316635Y3174296D01*
X10303754Y3160872D01*
X10292136Y3150339D01*
X10283133Y3143956D01*
X10279250Y3142628D01*
X10277533Y3146113D01*
X10276676Y3154682D01*
X10276654Y3156490D01*
X10275976Y3165985D01*
X10273043Y3169576D01*
X10266505Y3167587D01*
X10256446Y3161305D01*
X10248595Y3155279D01*
X10244380Y3148894D01*
X10242460Y3139288D01*
X10241813Y3130073D01*
X10240639Y3107889D01*
X10218049Y3095265D01*
X10189296Y3077830D01*
X10158227Y3056621D01*
X10127868Y3033711D01*
X10126061Y3032269D01*
X10113926Y3023031D01*
X10103133Y3015656D01*
X10096246Y3011850D01*
X10087976Y3007724D01*
X10076885Y3001037D01*
X10072416Y2998076D01*
X10062309Y2991973D01*
X10053065Y2989105D01*
X10041224Y2988689D01*
X10033070Y2989168D01*
X10016099Y2989391D01*
X10001695Y2987723D01*
X9991594Y2984520D01*
X9987536Y2980137D01*
X9987522Y2979851D01*
X9984308Y2976679D01*
X9981581Y2976278D01*
X9976107Y2974282D01*
X9976136Y2969695D01*
X9980790Y2964619D01*
X9987764Y2961481D01*
X9996415Y2958276D01*
X10000607Y2954861D01*
X10000636Y2954750D01*
X9997910Y2950643D01*
X9990045Y2945476D01*
X9979515Y2940388D01*
X9968791Y2936516D01*
X9960344Y2935000D01*
X9958311Y2935258D01*
X9953251Y2935603D01*
X9953281Y2933640D01*
X9951465Y2930806D01*
X9943185Y2928477D01*
X9929890Y2926707D01*
X9913025Y2925551D01*
X9894037Y2925063D01*
X9874371Y2925297D01*
X9855474Y2926307D01*
X9838793Y2928148D01*
X9833055Y2929131D01*
X9811812Y2934822D01*
X9796675Y2943213D01*
X9786168Y2955771D01*
X9778817Y2973964D01*
X9775743Y2986180D01*
X9772692Y2995952D01*
X9767325Y3009667D01*
X9761504Y3022827D01*
X9755589Y3036520D01*
X9751403Y3048294D01*
X9749880Y3055382D01*
X9748024Y3064013D01*
X9743484Y3074830D01*
X9742775Y3076165D01*
X9736194Y3090015D01*
X9730288Y3105595D01*
X9725738Y3120658D01*
X9723228Y3132958D01*
X9723368Y3140077D01*
X9728246Y3146324D01*
X9737017Y3153293D01*
X9738692Y3154353D01*
X9747432Y3159185D01*
X9752815Y3159801D01*
X9758087Y3156362D01*
X9759227Y3155365D01*
X9766947Y3146999D01*
X9774860Y3136050D01*
X9781667Y3124690D01*
X9786069Y3115087D01*
X9786770Y3109413D01*
X9786747Y3109372D01*
X9786203Y3106985D01*
X9787315Y3107755D01*
X9790949Y3106277D01*
X9797186Y3099606D01*
X9802803Y3091912D01*
X9816148Y3076283D01*
X9831434Y3065137D01*
X9831899Y3064899D01*
X9841130Y3059537D01*
X9845957Y3055319D01*
X9846092Y3054007D01*
X9847080Y3051941D01*
X9850391Y3051531D01*
X9857674Y3054086D01*
X9866627Y3060344D01*
X9867843Y3061433D01*
X9876092Y3067991D01*
X9882501Y3071254D01*
X9883183Y3071335D01*
X9888573Y3073435D01*
X9889165Y3074305D01*
X9893249Y3077861D01*
X9901741Y3082978D01*
X9904347Y3084348D01*
X9914253Y3090168D01*
X9928857Y3099730D01*
X9946583Y3111943D01*
X9965851Y3125717D01*
X9985084Y3139961D01*
X9987522Y3141808D01*
X9996748Y3148089D01*
X10009398Y3155840D01*
X10016952Y3160162D01*
X10031882Y3169305D01*
X10033382Y3170352D01*
X10280614Y3170352D01*
X10282063Y3167092D01*
X10283255Y3167712D01*
X10283729Y3172412D01*
X10283255Y3172993D01*
X10280900Y3172449D01*
X10280614Y3170352D01*
X10033382Y3170352D01*
X10047093Y3179922D01*
X10052783Y3184352D01*
X10064199Y3193147D01*
X10074838Y3200441D01*
X10078941Y3202845D01*
X10085748Y3206902D01*
X10097575Y3214467D01*
X10112918Y3224557D01*
X10130270Y3236190D01*
X10135394Y3239665D01*
X10154849Y3252816D01*
X10174464Y3265940D01*
X10192093Y3277610D01*
X10205591Y3286399D01*
X10206833Y3287193D01*
X10220016Y3295919D01*
X10231211Y3303896D01*
X10238104Y3309471D01*
X10238322Y3309684D01*
X10243140Y3319141D01*
X10245096Y3332981D01*
X10244257Y3348227D01*
X10240685Y3361901D01*
X10237047Y3368388D01*
X10231570Y3376574D01*
X10229214Y3382435D01*
X10229213Y3382466D01*
X10226672Y3387586D01*
X10220281Y3396039D01*
X10215501Y3401517D01*
X10205080Y3414758D01*
X10195541Y3429833D01*
X10193192Y3434332D01*
X10184507Y3452272D01*
X10192545Y3460311D01*
X10202601Y3466822D01*
X10212295Y3469713D01*
X10218913Y3469543D01*
G37*
G36*
X8248274Y3800036D02*
G01*
X8295572Y3799831D01*
X8335176Y3799490D01*
X8367046Y3799014D01*
X8391143Y3798404D01*
X8407425Y3797660D01*
X8415854Y3796783D01*
X8417103Y3796144D01*
X8419753Y3794367D01*
X8429996Y3793100D01*
X8447515Y3792367D01*
X8466611Y3792183D01*
X8489745Y3791937D01*
X8505396Y3791176D01*
X8513991Y3789861D01*
X8515954Y3787956D01*
X8515919Y3787896D01*
X8517425Y3785093D01*
X8526604Y3784208D01*
X8530538Y3784303D01*
X8553241Y3784863D01*
X8572098Y3784639D01*
X8586046Y3783695D01*
X8594021Y3782095D01*
X8595364Y3780349D01*
X8597139Y3778260D01*
X8605914Y3778311D01*
X8610918Y3778899D01*
X8624075Y3779584D01*
X8632900Y3777822D01*
X8634017Y3777107D01*
X8641113Y3774196D01*
X8652179Y3772378D01*
X8654866Y3772212D01*
X8669951Y3771621D01*
X8685682Y3771035D01*
X8687043Y3770986D01*
X8696706Y3770005D01*
X8701561Y3768233D01*
X8701661Y3767429D01*
X8704092Y3765688D01*
X8712326Y3764531D01*
X8718873Y3764281D01*
X8740985Y3763482D01*
X8762806Y3761671D01*
X8781661Y3759122D01*
X8793370Y3756579D01*
X8803698Y3754318D01*
X8818364Y3751979D01*
X8830996Y3750427D01*
X8844866Y3748575D01*
X8855660Y3746401D01*
X8860702Y3744550D01*
X8865734Y3741704D01*
X8866643Y3741589D01*
X8874244Y3741557D01*
X8885795Y3740576D01*
X8899109Y3738957D01*
X8911996Y3737010D01*
X8922268Y3735047D01*
X8927737Y3733378D01*
X8928083Y3732853D01*
X8929781Y3730374D01*
X8934991Y3729600D01*
X8951791Y3728977D01*
X8962917Y3727444D01*
X8967413Y3725158D01*
X8967270Y3724252D01*
X8969731Y3722509D01*
X8978205Y3721293D01*
X8989424Y3720890D01*
X9003837Y3720310D01*
X9010636Y3718540D01*
X9010997Y3716588D01*
X9011846Y3713544D01*
X9017695Y3713321D01*
X9028662Y3713606D01*
X9041758Y3712656D01*
X9054882Y3710820D01*
X9065932Y3708446D01*
X9072807Y3705885D01*
X9073924Y3703986D01*
X9074188Y3701406D01*
X9077764Y3702221D01*
X9084261Y3702766D01*
X9086246Y3701436D01*
X9091015Y3699142D01*
X9101073Y3696780D01*
X9109147Y3695535D01*
X9132186Y3692254D01*
X9151029Y3688826D01*
X9164687Y3685483D01*
X9172169Y3682456D01*
X9173160Y3680576D01*
X9174627Y3678192D01*
X9180167Y3677993D01*
X9190140Y3678118D01*
X9202602Y3676927D01*
X9215131Y3674847D01*
X9225305Y3672304D01*
X9230702Y3669726D01*
X9231027Y3669030D01*
X9233444Y3665885D01*
X9233998Y3665910D01*
X9244261Y3666416D01*
X9252630Y3665027D01*
X9256628Y3662300D01*
X9256394Y3660868D01*
X9255861Y3658061D01*
X9257306Y3658605D01*
X9262878Y3659059D01*
X9273262Y3657796D01*
X9286168Y3655336D01*
X9299307Y3652199D01*
X9310392Y3648907D01*
X9317133Y3645980D01*
X9318163Y3644762D01*
X9321285Y3642945D01*
X9326580Y3643814D01*
X9332468Y3644651D01*
X9332288Y3642101D01*
X9333500Y3638894D01*
X9342148Y3637719D01*
X9342882Y3637716D01*
X9353141Y3636634D01*
X9359875Y3634011D01*
X9360081Y3633820D01*
X9366393Y3630940D01*
X9376734Y3629006D01*
X9378311Y3628869D01*
X9387125Y3627483D01*
X9390916Y3625377D01*
X9390816Y3624843D01*
X9392734Y3622642D01*
X9398890Y3621873D01*
X9407247Y3620617D01*
X9410957Y3618369D01*
X9415878Y3615715D01*
X9425774Y3613099D01*
X9430902Y3612199D01*
X9442097Y3609830D01*
X9449613Y3606963D01*
X9450988Y3605801D01*
X9456019Y3603548D01*
X9466018Y3602220D01*
X9471118Y3602069D01*
X9481294Y3601491D01*
X9486789Y3600026D01*
X9487113Y3599099D01*
X9489192Y3596799D01*
X9496731Y3595301D01*
X9497214Y3595263D01*
X9507289Y3593465D01*
X9513661Y3590667D01*
X9520342Y3587518D01*
X9530968Y3584573D01*
X9533075Y3584152D01*
X9543260Y3581501D01*
X9549580Y3578473D01*
X9550142Y3577856D01*
X9555353Y3575167D01*
X9562214Y3574344D01*
X9568807Y3573061D01*
X9569668Y3570384D01*
X9570743Y3567006D01*
X9574385Y3566129D01*
X9593943Y3563426D01*
X9618097Y3556593D01*
X9647741Y3545373D01*
X9648882Y3544901D01*
X9658573Y3541205D01*
X9672817Y3536150D01*
X9688624Y3530796D01*
X9689479Y3530514D01*
X9703136Y3525691D01*
X9713271Y3521490D01*
X9718045Y3518691D01*
X9718194Y3518367D01*
X9721350Y3516999D01*
X9725669Y3517630D01*
X9733053Y3517341D01*
X9735804Y3515279D01*
X9741590Y3511656D01*
X9746153Y3510973D01*
X9752461Y3509263D01*
X9753841Y3506997D01*
X9757308Y3503720D01*
X9766101Y3499941D01*
X9771664Y3498254D01*
X9783961Y3493794D01*
X9788994Y3488677D01*
X9786662Y3482548D01*
X9776860Y3475052D01*
X9762752Y3467424D01*
X9746397Y3458780D01*
X9730036Y3449233D01*
X9718194Y3441521D01*
X9705097Y3432865D01*
X9688742Y3422959D01*
X9674626Y3415021D01*
X9659528Y3406773D01*
X9645136Y3398669D01*
X9635019Y3392733D01*
X9624430Y3387287D01*
X9615526Y3384389D01*
X9613992Y3384245D01*
X9609100Y3382629D01*
X9609127Y3380508D01*
X9606776Y3377269D01*
X9598692Y3371127D01*
X9586114Y3362935D01*
X9570284Y3353548D01*
X9568764Y3352686D01*
X9550547Y3342543D01*
X9537499Y3335841D01*
X9527968Y3331987D01*
X9520305Y3330391D01*
X9512860Y3330459D01*
X9508277Y3330989D01*
X9496667Y3333203D01*
X9488381Y3335952D01*
X9486691Y3337028D01*
X9480196Y3339749D01*
X9472072Y3340663D01*
X9463335Y3341816D01*
X9459046Y3344174D01*
X9454032Y3347169D01*
X9444523Y3349977D01*
X9442670Y3350351D01*
X9428866Y3354352D01*
X9415620Y3360230D01*
X9415616Y3360233D01*
X9403160Y3365588D01*
X9388477Y3369771D01*
X9385219Y3370396D01*
X9372513Y3373443D01*
X9362077Y3377480D01*
X9359859Y3378786D01*
X9349852Y3383204D01*
X9343260Y3384230D01*
X9335328Y3385685D01*
X9332238Y3387847D01*
X9327247Y3390641D01*
X9317404Y3393320D01*
X9313191Y3394076D01*
X9298536Y3397470D01*
X9284387Y3402410D01*
X9282517Y3403254D01*
X9272476Y3407056D01*
X9257272Y3411708D01*
X9239498Y3416441D01*
X9231027Y3418469D01*
X9204556Y3424594D01*
X9184793Y3429289D01*
X9170717Y3432844D01*
X9161304Y3435546D01*
X9155530Y3437686D01*
X9152374Y3439553D01*
X9151024Y3441077D01*
X9145933Y3444042D01*
X9135408Y3447445D01*
X9123299Y3450223D01*
X9107732Y3453348D01*
X9087943Y3457518D01*
X9067426Y3461992D01*
X9060717Y3463493D01*
X9041336Y3467807D01*
X9022008Y3472015D01*
X9005947Y3475420D01*
X9001307Y3476372D01*
X8989025Y3479151D01*
X8980269Y3481697D01*
X8977542Y3482997D01*
X8972490Y3485125D01*
X8965660Y3486408D01*
X8953768Y3488753D01*
X8945857Y3491080D01*
X8936357Y3493482D01*
X8922649Y3495878D01*
X8913243Y3497110D01*
X8900607Y3499013D01*
X8891514Y3501302D01*
X8888496Y3502939D01*
X8883773Y3505040D01*
X8873501Y3507230D01*
X8861699Y3508823D01*
X8847233Y3510774D01*
X8835048Y3513183D01*
X8829016Y3515049D01*
X8821181Y3517467D01*
X8808300Y3520293D01*
X8793370Y3522882D01*
X8752844Y3529052D01*
X8719982Y3534130D01*
X8694605Y3538147D01*
X8676535Y3541129D01*
X8665594Y3543107D01*
X8662666Y3543746D01*
X8655214Y3544985D01*
X8642233Y3546534D01*
X8626096Y3548122D01*
X8620089Y3548640D01*
X8604644Y3550244D01*
X8592743Y3552093D01*
X8586174Y3553880D01*
X8585433Y3554569D01*
X8582327Y3557142D01*
X8580482Y3557209D01*
X8571916Y3557166D01*
X8558975Y3557865D01*
X8543510Y3559113D01*
X8527374Y3560716D01*
X8512420Y3562479D01*
X8500499Y3564208D01*
X8493463Y3565709D01*
X8492372Y3566449D01*
X8490285Y3569179D01*
X8480378Y3571371D01*
X8462735Y3573012D01*
X8439424Y3574036D01*
X8423736Y3575046D01*
X8410325Y3576889D01*
X8401890Y3579185D01*
X8401463Y3579403D01*
X8395439Y3580540D01*
X8382278Y3581525D01*
X8362760Y3582360D01*
X8337669Y3583048D01*
X8307786Y3583590D01*
X8273894Y3583990D01*
X8236774Y3584249D01*
X8197209Y3584370D01*
X8155981Y3584355D01*
X8113871Y3584207D01*
X8071662Y3583927D01*
X8030137Y3583518D01*
X7990076Y3582983D01*
X7952263Y3582323D01*
X7917478Y3581541D01*
X7886505Y3580639D01*
X7860126Y3579620D01*
X7839121Y3578486D01*
X7828938Y3577708D01*
X7806366Y3575628D01*
X7786640Y3573727D01*
X7771070Y3572137D01*
X7760964Y3570991D01*
X7757645Y3570464D01*
X7752526Y3570014D01*
X7747744Y3570315D01*
X7742788Y3569692D01*
X7743128Y3567800D01*
X7740959Y3565920D01*
X7732431Y3563601D01*
X7719068Y3561201D01*
X7709462Y3559883D01*
X7687269Y3556917D01*
X7662100Y3553206D01*
X7638764Y3549464D01*
X7634863Y3548797D01*
X7614684Y3545551D01*
X7593878Y3542620D01*
X7576060Y3540501D01*
X7571492Y3540068D01*
X7557653Y3538419D01*
X7546934Y3536286D01*
X7541985Y3534322D01*
X7535489Y3531668D01*
X7527366Y3530777D01*
X7518646Y3529649D01*
X7514385Y3527338D01*
X7509550Y3524918D01*
X7499455Y3522434D01*
X7491476Y3521142D01*
X7478937Y3519006D01*
X7469553Y3516550D01*
X7466633Y3515196D01*
X7460270Y3512426D01*
X7449872Y3509740D01*
X7447887Y3509361D01*
X7434595Y3505905D01*
X7422578Y3501171D01*
X7422143Y3500948D01*
X7411208Y3496727D01*
X7402118Y3495155D01*
X7391323Y3493276D01*
X7384295Y3490551D01*
X7371829Y3484360D01*
X7362524Y3480642D01*
X7352648Y3477970D01*
X7349693Y3477307D01*
X7338627Y3474449D01*
X7330336Y3471591D01*
X7330019Y3471445D01*
X7312789Y3463458D01*
X7300668Y3458339D01*
X7291717Y3455331D01*
X7284791Y3453810D01*
X7274151Y3450292D01*
X7261967Y3443946D01*
X7259047Y3442045D01*
X7248078Y3435416D01*
X7233031Y3427469D01*
X7217146Y3419914D01*
X7217009Y3419854D01*
X7196946Y3410157D01*
X7177119Y3398823D01*
X7155949Y3384824D01*
X7131856Y3367130D01*
X7110683Y3350632D01*
X7078878Y3322103D01*
X7051238Y3290673D01*
X7028500Y3257503D01*
X7011397Y3223756D01*
X7000665Y3190593D01*
X6997620Y3171785D01*
X6996624Y3152959D01*
X6996787Y3132011D01*
X6997957Y3111147D01*
X6999981Y3092575D01*
X7002705Y3078502D01*
X7004430Y3073512D01*
X7007860Y3064530D01*
X7011728Y3052225D01*
X7012705Y3048731D01*
X7020737Y3028902D01*
X7034354Y3006193D01*
X7052403Y2981890D01*
X7073730Y2957278D01*
X7097181Y2933644D01*
X7121603Y2912272D01*
X7145844Y2894448D01*
X7157599Y2887232D01*
X7169001Y2880751D01*
X7184160Y2872126D01*
X7199947Y2863137D01*
X7201166Y2862443D01*
X7219026Y2853143D01*
X7238816Y2844156D01*
X7255626Y2837656D01*
X7268759Y2832738D01*
X7278297Y2828214D01*
X7282333Y2824999D01*
X7282361Y2824813D01*
X7285263Y2822622D01*
X7288302Y2823243D01*
X7293402Y2823325D01*
X7294243Y2821686D01*
X7297640Y2818826D01*
X7304378Y2817850D01*
X7311306Y2816546D01*
X7311902Y2813624D01*
X7312395Y2810483D01*
X7314639Y2810480D01*
X7321357Y2809799D01*
X7333064Y2806873D01*
X7347424Y2802467D01*
X7362097Y2797345D01*
X7374748Y2792274D01*
X7382801Y2788174D01*
X7393885Y2783005D01*
X7410063Y2777937D01*
X7428539Y2773757D01*
X7440789Y2771849D01*
X7458972Y2769099D01*
X7474720Y2765765D01*
X7486542Y2762260D01*
X7492946Y2758999D01*
X7493510Y2757227D01*
X7493629Y2755203D01*
X7496049Y2756341D01*
X7502882Y2757344D01*
X7513319Y2755857D01*
X7515474Y2755287D01*
X7537959Y2749135D01*
X7559245Y2744066D01*
X7581346Y2739702D01*
X7606274Y2735666D01*
X7636042Y2731580D01*
X7654031Y2729320D01*
X7669714Y2727166D01*
X7681637Y2725093D01*
X7688209Y2723402D01*
X7688936Y2722712D01*
X7691042Y2721758D01*
X7698822Y2721847D01*
X7702519Y2722145D01*
X7713778Y2722202D01*
X7721966Y2720464D01*
X7723064Y2719818D01*
X7729282Y2717778D01*
X7740912Y2716096D01*
X7755445Y2715132D01*
X7755546Y2715129D01*
X7769936Y2714336D01*
X7781293Y2713083D01*
X7787193Y2711640D01*
X7787231Y2711616D01*
X7793911Y2709629D01*
X7808070Y2707519D01*
X7829805Y2705277D01*
X7859210Y2702893D01*
X7896382Y2700358D01*
X7922015Y2698786D01*
X7945727Y2697734D01*
X7976386Y2696942D01*
X8013020Y2696417D01*
X8054656Y2696167D01*
X8100324Y2696200D01*
X8149053Y2696522D01*
X8175500Y2696810D01*
X8219918Y2697361D01*
X8257064Y2697839D01*
X8287590Y2698264D01*
X8312143Y2698659D01*
X8331375Y2699045D01*
X8345934Y2699444D01*
X8356471Y2699876D01*
X8363635Y2700363D01*
X8368075Y2700927D01*
X8370442Y2701590D01*
X8371385Y2702372D01*
X8371555Y2703285D01*
X8375282Y2704370D01*
X8385546Y2705648D01*
X8400966Y2706989D01*
X8420164Y2708263D01*
X8429975Y2708795D01*
X8455955Y2710116D01*
X8475173Y2711167D01*
X8488778Y2712082D01*
X8497920Y2712997D01*
X8503748Y2714049D01*
X8507411Y2715373D01*
X8510058Y2717106D01*
X8511715Y2718463D01*
X8520361Y2721652D01*
X8534394Y2722360D01*
X8537417Y2722193D01*
X8548183Y2721938D01*
X8554427Y2722790D01*
X8555121Y2723783D01*
X8557816Y2725241D01*
X8566422Y2726521D01*
X8578929Y2727485D01*
X8593328Y2727994D01*
X8607607Y2727909D01*
X8612258Y2727711D01*
X8618442Y2728456D01*
X8619316Y2730363D01*
X8622304Y2731742D01*
X8631610Y2733506D01*
X8645647Y2735484D01*
X8662832Y2737506D01*
X8681578Y2739401D01*
X8700302Y2740998D01*
X8717418Y2742127D01*
X8731340Y2742617D01*
X8733203Y2742625D01*
X8742740Y2743489D01*
X8746091Y2745845D01*
X8745841Y2746557D01*
X8747572Y2749202D01*
X8755801Y2750467D01*
X8758506Y2750518D01*
X8772507Y2751531D01*
X8785695Y2753985D01*
X8786219Y2754132D01*
X8794342Y2755725D01*
X8808725Y2757815D01*
X8827737Y2760193D01*
X8849747Y2762650D01*
X8865407Y2764242D01*
X8888067Y2766609D01*
X8908392Y2769026D01*
X8924885Y2771292D01*
X8936048Y2773205D01*
X8939916Y2774239D01*
X8947027Y2776065D01*
X8959757Y2778217D01*
X8975827Y2780405D01*
X8992959Y2782338D01*
X9008873Y2783723D01*
X9017929Y2784208D01*
X9025591Y2786271D01*
X9027830Y2787908D01*
X9027983Y2789426D01*
X9025071Y2788144D01*
X9021481Y2786903D01*
X9022391Y2788500D01*
X9027089Y2790780D01*
X9037722Y2793544D01*
X9054708Y2796866D01*
X9078459Y2800825D01*
X9109391Y2805495D01*
X9134652Y2809104D01*
X9153415Y2811935D01*
X9169271Y2814700D01*
X9180593Y2817088D01*
X9185754Y2818789D01*
X9185811Y2818840D01*
X9191508Y2820898D01*
X9201229Y2821808D01*
X9201749Y2821810D01*
X9211239Y2822722D01*
X9216628Y2824932D01*
X9216755Y2825108D01*
X9221275Y2826833D01*
X9232038Y2829054D01*
X9247406Y2831479D01*
X9264693Y2833693D01*
X9282907Y2836039D01*
X9298066Y2838459D01*
X9308532Y2840661D01*
X9312632Y2842277D01*
X9317693Y2844712D01*
X9325526Y2845575D01*
X9334927Y2846843D01*
X9336427Y2847555D01*
X9341927Y2847555D01*
X9343908Y2845575D01*
X9345888Y2847555D01*
X9343908Y2849535D01*
X9341927Y2847555D01*
X9336427Y2847555D01*
X9340145Y2849319D01*
X9346111Y2851808D01*
X9356824Y2853758D01*
X9362341Y2854270D01*
X9372737Y2855533D01*
X9378501Y2857394D01*
X9378940Y2858447D01*
X9381092Y2860587D01*
X9388770Y2861936D01*
X9390212Y2862021D01*
X9402365Y2862704D01*
X9409332Y2863643D01*
X9413847Y2865331D01*
X9416226Y2866729D01*
X9423852Y2868209D01*
X9429098Y2867347D01*
X9435353Y2866785D01*
X9436984Y2868466D01*
X9440671Y2870331D01*
X9450751Y2872851D01*
X9465757Y2875717D01*
X9484221Y2878621D01*
X9487483Y2879080D01*
X9506915Y2882009D01*
X9523663Y2884978D01*
X9536068Y2887662D01*
X9542472Y2889736D01*
X9542759Y2889929D01*
X9549655Y2891754D01*
X9552283Y2890852D01*
X9555173Y2890210D01*
X9554203Y2892491D01*
X9554949Y2896063D01*
X9561513Y2897064D01*
X9569252Y2895432D01*
X9571622Y2889306D01*
X9571645Y2888152D01*
X9569650Y2881221D01*
X9562325Y2878715D01*
X9561226Y2878637D01*
X9552281Y2876465D01*
X9547766Y2873109D01*
X9542032Y2870069D01*
X9538382Y2870618D01*
X9533027Y2871179D01*
X9532041Y2869847D01*
X9528525Y2867436D01*
X9519472Y2864171D01*
X9507121Y2860697D01*
X9493716Y2857655D01*
X9483637Y2855953D01*
X9475990Y2853356D01*
X9473735Y2851655D01*
X9473656Y2850277D01*
X9476213Y2851493D01*
X9479847Y2852650D01*
X9478714Y2849767D01*
X9472804Y2846600D01*
X9464449Y2846458D01*
X9457158Y2846672D01*
X9455230Y2844892D01*
X9455250Y2844858D01*
X9453309Y2842612D01*
X9445862Y2841617D01*
X9445373Y2841614D01*
X9436060Y2840307D01*
X9430830Y2837308D01*
X9425291Y2834570D01*
X9420884Y2834907D01*
X9414273Y2834748D01*
X9412288Y2832876D01*
X9407872Y2830315D01*
X9398629Y2828990D01*
X9396266Y2828940D01*
X9387312Y2828235D01*
X9383350Y2826483D01*
X9383437Y2825897D01*
X9380852Y2823779D01*
X9372760Y2820830D01*
X9361445Y2817636D01*
X9349195Y2814785D01*
X9338293Y2812863D01*
X9331078Y2812452D01*
X9327794Y2811043D01*
X9328184Y2809735D01*
X9325789Y2807548D01*
X9318049Y2804975D01*
X9307484Y2802582D01*
X9296613Y2800932D01*
X9287957Y2800590D01*
X9287510Y2800629D01*
X9284156Y2799264D01*
X9284499Y2798043D01*
X9282138Y2795699D01*
X9274010Y2793126D01*
X9267624Y2791855D01*
X9255984Y2789864D01*
X9247782Y2788355D01*
X9245880Y2787946D01*
X9239985Y2787163D01*
X9232774Y2786659D01*
X9226045Y2785156D01*
X9224826Y2782624D01*
X9223299Y2779776D01*
X9218129Y2778724D01*
X9203120Y2777689D01*
X9195285Y2776000D01*
X9193893Y2773495D01*
X9193978Y2773349D01*
X9192085Y2771327D01*
X9184775Y2770961D01*
X9172831Y2769772D01*
X9164376Y2766780D01*
X9155310Y2763775D01*
X9149318Y2764030D01*
X9145490Y2764132D01*
X9145900Y2762354D01*
X9144229Y2759678D01*
X9137044Y2757993D01*
X9126733Y2757689D01*
X9120720Y2758235D01*
X9117238Y2756866D01*
X9117705Y2755194D01*
X9115285Y2753055D01*
X9107411Y2750561D01*
X9096510Y2748187D01*
X9085005Y2746406D01*
X9075322Y2745696D01*
X9071050Y2746057D01*
X9065362Y2745102D01*
X9056214Y2741609D01*
X9055208Y2741145D01*
X9043653Y2737052D01*
X9028986Y2733527D01*
X9023090Y2732531D01*
X9010146Y2730197D01*
X8999747Y2727480D01*
X8996579Y2726227D01*
X8988352Y2723814D01*
X8976565Y2722272D01*
X8973969Y2722130D01*
X8964577Y2721030D01*
X8960099Y2719018D01*
X8960117Y2718189D01*
X8957788Y2716315D01*
X8949595Y2715112D01*
X8942364Y2714871D01*
X8930456Y2714109D01*
X8922102Y2712167D01*
X8920013Y2710750D01*
X8914673Y2708404D01*
X8909877Y2709036D01*
X8903752Y2709272D01*
X8902289Y2707217D01*
X8898558Y2704838D01*
X8888225Y2703369D01*
X8876311Y2702989D01*
X8863531Y2702515D01*
X8854969Y2701273D01*
X8852470Y2699530D01*
X8852474Y2699524D01*
X8850913Y2696719D01*
X8845777Y2695678D01*
X8829448Y2694190D01*
X8820356Y2691489D01*
X8819022Y2690346D01*
X8814160Y2688539D01*
X8804189Y2687077D01*
X8798228Y2686635D01*
X8787287Y2685534D01*
X8780545Y2683825D01*
X8779507Y2682848D01*
X8775933Y2681214D01*
X8766718Y2679302D01*
X8754123Y2677398D01*
X8740407Y2675791D01*
X8727830Y2674768D01*
X8718654Y2674616D01*
X8716558Y2674841D01*
X8709775Y2673005D01*
X8708187Y2671259D01*
X8702604Y2668649D01*
X8690689Y2667132D01*
X8678906Y2666849D01*
X8664794Y2666445D01*
X8656474Y2665090D01*
X8654835Y2663236D01*
X8652616Y2661099D01*
X8643728Y2659765D01*
X8632961Y2659422D01*
X8620665Y2658968D01*
X8612637Y2657785D01*
X8610648Y2656318D01*
X8608928Y2653870D01*
X8603950Y2653118D01*
X8581961Y2652643D01*
X8567111Y2651732D01*
X8558625Y2650284D01*
X8555727Y2648203D01*
X8556034Y2647043D01*
X8555278Y2644305D01*
X8547700Y2643983D01*
X8543396Y2644412D01*
X8529564Y2644495D01*
X8514053Y2642455D01*
X8509987Y2641517D01*
X8495797Y2638994D01*
X8482202Y2638421D01*
X8478729Y2638739D01*
X8469825Y2639252D01*
X8467850Y2637018D01*
X8468263Y2636189D01*
X8467090Y2634005D01*
X8459903Y2632586D01*
X8446014Y2631850D01*
X8430965Y2631697D01*
X8414518Y2631382D01*
X8401777Y2630534D01*
X8394294Y2629292D01*
X8393029Y2628237D01*
X8390703Y2625904D01*
X8380627Y2624095D01*
X8362956Y2622827D01*
X8337845Y2622116D01*
X8335289Y2622081D01*
X8323948Y2621565D01*
X8317352Y2620517D01*
X8316700Y2619442D01*
X8314620Y2618329D01*
X8306046Y2617076D01*
X8292405Y2615779D01*
X8275119Y2614532D01*
X8255615Y2613430D01*
X8235317Y2612565D01*
X8215649Y2612034D01*
X8203027Y2611911D01*
X8188619Y2611409D01*
X8177296Y2610109D01*
X8171427Y2608286D01*
X8171341Y2608208D01*
X8166497Y2607229D01*
X8154575Y2606308D01*
X8136420Y2605458D01*
X8112873Y2604691D01*
X8084779Y2604020D01*
X8052982Y2603459D01*
X8018325Y2603020D01*
X7981651Y2602716D01*
X7943804Y2602560D01*
X7905627Y2602565D01*
X7867965Y2602745D01*
X7835869Y2603057D01*
X7810708Y2603503D01*
X7788444Y2604155D01*
X7770214Y2604959D01*
X7757155Y2605860D01*
X7750404Y2606804D01*
X7749724Y2607198D01*
X7746071Y2608721D01*
X7736343Y2610097D01*
X7722386Y2611092D01*
X7717048Y2611301D01*
X7686705Y2612888D01*
X7649710Y2615908D01*
X7607184Y2620263D01*
X7589044Y2622337D01*
X7577603Y2624344D01*
X7570911Y2626856D01*
X7570053Y2628612D01*
X7568301Y2630969D01*
X7560628Y2631701D01*
X7559065Y2631637D01*
X7540392Y2631088D01*
X7526704Y2631702D01*
X7519021Y2633381D01*
X7517931Y2635509D01*
X7516340Y2638142D01*
X7509253Y2639043D01*
X7496712Y2639581D01*
X7486337Y2640899D01*
X7473384Y2642618D01*
X7463329Y2643306D01*
X7456053Y2644498D01*
X7454281Y2646941D01*
X7452216Y2649377D01*
X7443519Y2651121D01*
X7429464Y2651962D01*
X7423870Y2652004D01*
X7419081Y2653615D01*
X7419153Y2655701D01*
X7417689Y2658622D01*
X7412308Y2659694D01*
X7391019Y2661780D01*
X7367516Y2666793D01*
X7353058Y2670457D01*
X7337192Y2674456D01*
X7333850Y2675295D01*
X7321745Y2678664D01*
X7312313Y2681868D01*
X7310086Y2682851D01*
X7302989Y2685559D01*
X7291361Y2689098D01*
X7283549Y2691201D01*
X7272582Y2694693D01*
X7266051Y2698140D01*
X7265168Y2700049D01*
X7263912Y2702513D01*
X7260020Y2702581D01*
X7250716Y2702650D01*
X7240160Y2704553D01*
X7231274Y2707526D01*
X7226980Y2710807D01*
X7226911Y2711225D01*
X7223523Y2713979D01*
X7217130Y2714871D01*
X7207042Y2716813D01*
X7195485Y2721549D01*
X7194356Y2722163D01*
X7181542Y2728382D01*
X7167271Y2734009D01*
X7165520Y2734594D01*
X7152323Y2739455D01*
X7137228Y2745893D01*
X7121971Y2753048D01*
X7108290Y2760056D01*
X7097921Y2766056D01*
X7092600Y2770186D01*
X7092247Y2770961D01*
X7089832Y2773019D01*
X7088542Y2772460D01*
X7083127Y2772850D01*
X7073878Y2776535D01*
X7069728Y2778727D01*
X7047961Y2791039D01*
X7032002Y2800025D01*
X7020780Y2806283D01*
X7013221Y2810413D01*
X7010928Y2811633D01*
X7003912Y2815924D01*
X6992712Y2823396D01*
X6979548Y2832565D01*
X6977262Y2834194D01*
X6931486Y2869599D01*
X6890939Y2906432D01*
X6856126Y2944091D01*
X6827553Y2981971D01*
X6805728Y3019470D01*
X6791155Y3055985D01*
X6791124Y3056088D01*
X6786439Y3071087D01*
X6782165Y3083731D01*
X6779141Y3091549D01*
X6778887Y3092075D01*
X6777655Y3098277D01*
X6776695Y3110457D01*
X6776010Y3127051D01*
X6775599Y3146495D01*
X6775464Y3167225D01*
X6775606Y3187676D01*
X6776026Y3206284D01*
X6776724Y3221484D01*
X6777702Y3231713D01*
X6777711Y3231743D01*
X6779351Y3231743D01*
X6781332Y3229763D01*
X6783312Y3231743D01*
X6781332Y3233724D01*
X6779351Y3231743D01*
X6777711Y3231743D01*
X6778798Y3235362D01*
X6781390Y3240270D01*
X6783833Y3250080D01*
X6784529Y3254422D01*
X6786712Y3265548D01*
X6790694Y3278530D01*
X6797021Y3294835D01*
X6806237Y3315934D01*
X6812117Y3328781D01*
X6816951Y3337829D01*
X6824654Y3350756D01*
X6834079Y3365797D01*
X6844078Y3381188D01*
X6853506Y3395165D01*
X6861215Y3405964D01*
X6866057Y3411822D01*
X6866206Y3411955D01*
X6869911Y3415886D01*
X6876862Y3423739D01*
X6881658Y3429282D01*
X6893940Y3442248D01*
X6911004Y3458451D01*
X6931211Y3476486D01*
X6952921Y3494953D01*
X6974496Y3512448D01*
X6994296Y3527570D01*
X7007092Y3536576D01*
X7031848Y3552613D01*
X7055961Y3567370D01*
X7078448Y3580323D01*
X7093200Y3588207D01*
X9508277Y3588207D01*
X9510257Y3586226D01*
X9512238Y3588207D01*
X9510257Y3590187D01*
X9508277Y3588207D01*
X7093200Y3588207D01*
X7098329Y3590948D01*
X7114624Y3598723D01*
X7126351Y3603124D01*
X7132531Y3603627D01*
X7132630Y3603570D01*
X7135166Y3603266D01*
X7134212Y3605418D01*
X7134476Y3609463D01*
X7136672Y3609991D01*
X7142766Y3611646D01*
X7153492Y3615971D01*
X7165531Y3621550D01*
X7178051Y3627118D01*
X7187889Y3630448D01*
X7192777Y3630840D01*
X7194525Y3631233D01*
X7193623Y3633143D01*
X7194433Y3636852D01*
X7200934Y3638592D01*
X7208098Y3638185D01*
X7210922Y3640768D01*
X7211068Y3642100D01*
X7213928Y3644803D01*
X7216753Y3644303D01*
X7222413Y3644290D01*
X7223684Y3645743D01*
X7228122Y3648887D01*
X7234832Y3650471D01*
X7244758Y3653349D01*
X7250196Y3656757D01*
X7257449Y3660124D01*
X7261293Y3659773D01*
X7264947Y3659791D01*
X7264510Y3661525D01*
X7265714Y3664637D01*
X7270011Y3665441D01*
X7277580Y3667047D01*
X7278061Y3667421D01*
X7282361Y3667421D01*
X7284341Y3665441D01*
X7286321Y3667421D01*
X7284341Y3669401D01*
X7282361Y3667421D01*
X7278061Y3667421D01*
X7280167Y3669057D01*
X7284941Y3671637D01*
X7294325Y3674407D01*
X7305063Y3676627D01*
X7313899Y3677555D01*
X7316517Y3677323D01*
X7320581Y3679527D01*
X7322178Y3681624D01*
X7327907Y3685070D01*
X7337805Y3686865D01*
X7339061Y3686913D01*
X7347654Y3687847D01*
X7351163Y3689752D01*
X7351046Y3690195D01*
X7352969Y3692397D01*
X7359127Y3693165D01*
X7367559Y3694528D01*
X7371370Y3696953D01*
X7376540Y3699188D01*
X7379124Y3698664D01*
X7385417Y3699090D01*
X7387046Y3700644D01*
X7392311Y3702915D01*
X7396017Y3702221D01*
X7400383Y3701732D01*
X7399617Y3704375D01*
X7400346Y3707684D01*
X7408251Y3708975D01*
X7410616Y3709008D01*
X7420628Y3710127D01*
X7426793Y3712864D01*
X7427125Y3713290D01*
X7432559Y3715693D01*
X7439573Y3715112D01*
X7446390Y3714410D01*
X7446828Y3716771D01*
X7448675Y3719388D01*
X7457849Y3720732D01*
X7464553Y3720890D01*
X7476589Y3721570D01*
X7482268Y3723461D01*
X7482376Y3724851D01*
X7483966Y3727788D01*
X7492106Y3729577D01*
X7505478Y3729992D01*
X7511182Y3729770D01*
X7517220Y3730711D01*
X7517879Y3733005D01*
X7519652Y3735704D01*
X7527719Y3737427D01*
X7540479Y3737864D01*
X7542777Y3737797D01*
X7547370Y3740119D01*
X7547728Y3741584D01*
X7551101Y3743862D01*
X7559242Y3743863D01*
X7559513Y3743824D01*
X7568150Y3743595D01*
X7572422Y3745465D01*
X7572428Y3745480D01*
X7576690Y3747544D01*
X7586232Y3748945D01*
X7592252Y3749242D01*
X7602730Y3750028D01*
X7608582Y3751615D01*
X7609057Y3752676D01*
X7611717Y3754539D01*
X7620479Y3756651D01*
X7633554Y3758601D01*
X7635867Y3758864D01*
X7650292Y3760489D01*
X7661528Y3761854D01*
X7667342Y3762686D01*
X7667539Y3762730D01*
X7672932Y3763246D01*
X7683399Y3763745D01*
X7690547Y3763963D01*
X7701506Y3764761D01*
X7707952Y3766271D01*
X7708748Y3767429D01*
X7709733Y3769079D01*
X7715607Y3770300D01*
X7727241Y3771174D01*
X7745506Y3771785D01*
X7756915Y3772009D01*
X7768068Y3773021D01*
X7771658Y3775599D01*
X7771261Y3776740D01*
X7771982Y3779132D01*
X7778945Y3779463D01*
X7789331Y3778321D01*
X7801811Y3777085D01*
X7807368Y3777874D01*
X7807427Y3779860D01*
X7808816Y3782117D01*
X7816704Y3783537D01*
X7831659Y3784195D01*
X7840820Y3784262D01*
X7859028Y3784663D01*
X7870459Y3785829D01*
X7874612Y3787700D01*
X7874486Y3788222D01*
X7877113Y3790025D01*
X7887314Y3791301D01*
X7904758Y3792022D01*
X7922015Y3792183D01*
X7944574Y3792480D01*
X7960133Y3793350D01*
X7968362Y3794768D01*
X7969543Y3796144D01*
X7972861Y3797107D01*
X7984058Y3797937D01*
X8003096Y3798634D01*
X8029934Y3799197D01*
X8064531Y3799626D01*
X8106848Y3799919D01*
X8156845Y3800076D01*
X8193323Y3800104D01*
X8248274Y3800036D01*
G37*
G36*
X12203188Y3796010D02*
G01*
X12234716Y3795642D01*
X12259255Y3795036D01*
X12276560Y3794200D01*
X12286382Y3793141D01*
X12288692Y3792183D01*
X12292462Y3790356D01*
X12303033Y3789025D01*
X12319293Y3788300D01*
X12329289Y3788199D01*
X12352324Y3787918D01*
X12374759Y3787168D01*
X12395293Y3786047D01*
X12412622Y3784652D01*
X12425446Y3783080D01*
X12432461Y3781429D01*
X12433321Y3780403D01*
X12435932Y3779239D01*
X12444416Y3779011D01*
X12453813Y3779538D01*
X12466590Y3780193D01*
X12472655Y3779311D01*
X12473096Y3776721D01*
X12472997Y3776555D01*
X12473044Y3772851D01*
X12477382Y3772513D01*
X12488978Y3773148D01*
X12501775Y3772992D01*
X12513526Y3772198D01*
X12521984Y3770925D01*
X12524901Y3769326D01*
X12524852Y3769225D01*
X12527008Y3767144D01*
X12534793Y3765912D01*
X12537490Y3765807D01*
X12551153Y3764848D01*
X12563781Y3762903D01*
X12563961Y3762863D01*
X12575041Y3760827D01*
X12589565Y3758723D01*
X12596570Y3757875D01*
X12607814Y3756174D01*
X12614674Y3754253D01*
X12615767Y3753081D01*
X12618269Y3751300D01*
X12626377Y3749819D01*
X12630205Y3749472D01*
X12642300Y3747833D01*
X12651862Y3745211D01*
X12653169Y3744605D01*
X12660922Y3742055D01*
X12673289Y3739541D01*
X12682269Y3738263D01*
X12694907Y3736088D01*
X12701422Y3733416D01*
X12701877Y3731627D01*
X12701967Y3729489D01*
X12703818Y3730330D01*
X12709777Y3730819D01*
X12720674Y3729275D01*
X12731165Y3726810D01*
X12755590Y3720102D01*
X12773601Y3715057D01*
X12786440Y3711292D01*
X12795345Y3708422D01*
X12801555Y3706064D01*
X12806311Y3703835D01*
X12807544Y3703186D01*
X12817008Y3699118D01*
X12830472Y3694482D01*
X12839230Y3691894D01*
X12856130Y3686788D01*
X12873855Y3680735D01*
X12880817Y3678112D01*
X12909001Y3666936D01*
X12930494Y3658241D01*
X12946016Y3651708D01*
X12956286Y3647021D01*
X12962024Y3643861D01*
X12963949Y3641912D01*
X12963870Y3641480D01*
X12965910Y3639449D01*
X12972436Y3638706D01*
X12981093Y3637329D01*
X12985236Y3634750D01*
X12989694Y3631261D01*
X12999482Y3625283D01*
X13012838Y3617865D01*
X13019442Y3614388D01*
X13043416Y3601794D01*
X13064054Y3590597D01*
X13080424Y3581325D01*
X13091592Y3574507D01*
X13096628Y3570670D01*
X13096675Y3570606D01*
X13100619Y3567219D01*
X13109514Y3560529D01*
X13121779Y3551710D01*
X13128361Y3547092D01*
X13160363Y3522168D01*
X13192773Y3492181D01*
X13223269Y3459501D01*
X13249529Y3426503D01*
X13257120Y3415570D01*
X13267164Y3400059D01*
X13275087Y3387000D01*
X13280110Y3377739D01*
X13281455Y3373621D01*
X13281429Y3373590D01*
X13282058Y3369486D01*
X13285225Y3365425D01*
X13289175Y3358223D01*
X13289043Y3353809D01*
X13289061Y3350155D01*
X13290795Y3350593D01*
X13293979Y3349469D01*
X13294711Y3345649D01*
X13296460Y3337413D01*
X13298222Y3334524D01*
X13302135Y3326203D01*
X13305245Y3311467D01*
X13307550Y3291783D01*
X13309051Y3268614D01*
X13309749Y3243427D01*
X13309643Y3217688D01*
X13308735Y3192862D01*
X13307024Y3170415D01*
X13304510Y3151812D01*
X13301194Y3138519D01*
X13298188Y3132924D01*
X13295183Y3126004D01*
X13294711Y3121798D01*
X13292959Y3116785D01*
X13290138Y3117261D01*
X13287414Y3117725D01*
X13288279Y3115697D01*
X13289407Y3109792D01*
X13288526Y3101869D01*
X13286342Y3095115D01*
X13283559Y3092721D01*
X13283228Y3092872D01*
X13280731Y3091121D01*
X13279982Y3087509D01*
X13277516Y3080048D01*
X13271944Y3069624D01*
X13269258Y3065447D01*
X13263131Y3055713D01*
X13259496Y3048574D01*
X13259064Y3046933D01*
X13256492Y3039886D01*
X13249400Y3028299D01*
X13238722Y3013375D01*
X13225394Y2996316D01*
X13210350Y2978326D01*
X13194527Y2960607D01*
X13180945Y2946441D01*
X13172246Y2938196D01*
X13159765Y2926949D01*
X13145321Y2914273D01*
X13130734Y2901744D01*
X13117823Y2890935D01*
X13108408Y2883421D01*
X13106557Y2882060D01*
X13087203Y2868902D01*
X13065374Y2854978D01*
X13042130Y2840866D01*
X13018526Y2827146D01*
X12995620Y2814397D01*
X12974469Y2803200D01*
X12956132Y2794133D01*
X12941664Y2787776D01*
X12932124Y2784708D01*
X12929039Y2784768D01*
X12926473Y2785435D01*
X12927295Y2784219D01*
X12926531Y2780560D01*
X12920858Y2776294D01*
X12913023Y2772847D01*
X12905771Y2771648D01*
X12903851Y2772034D01*
X12899216Y2771677D01*
X12898640Y2770112D01*
X12895369Y2765986D01*
X12887748Y2761758D01*
X12875933Y2756856D01*
X12864452Y2751978D01*
X12852826Y2747867D01*
X12842668Y2745603D01*
X12834429Y2743589D01*
X12830943Y2741393D01*
X12826115Y2738782D01*
X12815959Y2735230D01*
X12805198Y2732180D01*
X12790983Y2727962D01*
X12778763Y2723379D01*
X12772970Y2720474D01*
X12762075Y2715655D01*
X12754156Y2713970D01*
X12746663Y2712187D01*
X12744173Y2709732D01*
X12740832Y2708141D01*
X12732698Y2708850D01*
X12731795Y2709039D01*
X12723394Y2710108D01*
X12721792Y2708001D01*
X12722127Y2707374D01*
X12721333Y2703719D01*
X12713555Y2702305D01*
X12703236Y2702840D01*
X12694795Y2700917D01*
X12688531Y2696874D01*
X12680579Y2692588D01*
X12674802Y2692562D01*
X12670592Y2692917D01*
X12670928Y2691062D01*
X12669354Y2688294D01*
X12661784Y2687148D01*
X12661465Y2687146D01*
X12652316Y2686065D01*
X12647365Y2683557D01*
X12642639Y2681207D01*
X12632753Y2678529D01*
X12620420Y2676059D01*
X12608352Y2674334D01*
X12599265Y2673889D01*
X12598659Y2673932D01*
X12595225Y2672640D01*
X12595515Y2671515D01*
X12592767Y2669741D01*
X12584116Y2667425D01*
X12571530Y2664907D01*
X12556978Y2662526D01*
X12542430Y2660621D01*
X12529855Y2659530D01*
X12525110Y2659395D01*
X12517767Y2658258D01*
X12516432Y2655461D01*
X12514662Y2652850D01*
X12506327Y2651568D01*
X12503037Y2651500D01*
X12492346Y2650505D01*
X12485365Y2648028D01*
X12484517Y2647168D01*
X12479198Y2644732D01*
X12469345Y2644105D01*
X12466460Y2644302D01*
X12456737Y2644724D01*
X12451419Y2643974D01*
X12451081Y2643542D01*
X12447300Y2641318D01*
X12436636Y2639815D01*
X12420323Y2639178D01*
X12412254Y2638149D01*
X12409494Y2635778D01*
X12409664Y2635380D01*
X12407164Y2633583D01*
X12398057Y2632309D01*
X12383648Y2631719D01*
X12379788Y2631697D01*
X12365288Y2631313D01*
X12354736Y2630293D01*
X12349834Y2628829D01*
X12349751Y2628273D01*
X12347483Y2626114D01*
X12339426Y2624107D01*
X12327713Y2622468D01*
X12314476Y2621412D01*
X12301847Y2621152D01*
X12291958Y2621905D01*
X12290180Y2622272D01*
X12282789Y2623179D01*
X12282171Y2620752D01*
X12279400Y2619126D01*
X12270290Y2617331D01*
X12256414Y2615503D01*
X12239350Y2613776D01*
X12220673Y2612288D01*
X12201959Y2611173D01*
X12184782Y2610567D01*
X12170719Y2610607D01*
X12166727Y2610804D01*
X12158544Y2610565D01*
X12155549Y2608810D01*
X12155694Y2608441D01*
X12152940Y2606666D01*
X12142527Y2605107D01*
X12124716Y2603772D01*
X12099765Y2602667D01*
X12067935Y2601800D01*
X12029485Y2601177D01*
X11984675Y2600806D01*
X11933765Y2600693D01*
X11877142Y2600846D01*
X11839115Y2601056D01*
X11802048Y2601308D01*
X11767019Y2601591D01*
X11735103Y2601896D01*
X11707377Y2602212D01*
X11684917Y2602527D01*
X11668799Y2602831D01*
X11663743Y2602967D01*
X11647144Y2603811D01*
X11634240Y2605086D01*
X11626570Y2606598D01*
X11625174Y2607772D01*
X11623053Y2609803D01*
X11615167Y2610830D01*
X11610469Y2610850D01*
X11597239Y2610851D01*
X11580316Y2611352D01*
X11561237Y2612245D01*
X11541537Y2613425D01*
X11522753Y2614784D01*
X11506423Y2616216D01*
X11494082Y2617614D01*
X11487268Y2618871D01*
X11486435Y2619469D01*
X11483779Y2620951D01*
X11475137Y2622050D01*
X11463645Y2622501D01*
X11442484Y2622809D01*
X11428161Y2623356D01*
X11419590Y2624270D01*
X11415689Y2625679D01*
X11415373Y2627710D01*
X11415623Y2628167D01*
X11413890Y2630772D01*
X11404670Y2631743D01*
X11398953Y2631661D01*
X11377339Y2631160D01*
X11362824Y2631475D01*
X11354618Y2632685D01*
X11351932Y2634867D01*
X11352367Y2636275D01*
X11351989Y2639066D01*
X11345145Y2639146D01*
X11341149Y2638575D01*
X11327695Y2638397D01*
X11313520Y2640993D01*
X11312114Y2641447D01*
X11297639Y2644389D01*
X11282549Y2644625D01*
X11281372Y2644486D01*
X11271049Y2643814D01*
X11267873Y2645608D01*
X11268294Y2646704D01*
X11267553Y2649520D01*
X12478805Y2649520D01*
X12480786Y2647539D01*
X12482766Y2649520D01*
X12480786Y2651500D01*
X12478805Y2649520D01*
X11267553Y2649520D01*
X11267437Y2649961D01*
X11261969Y2650542D01*
X11246291Y2650258D01*
X11233110Y2651057D01*
X11224148Y2652732D01*
X11221124Y2655076D01*
X11221282Y2655461D01*
X11219535Y2658169D01*
X11211356Y2659639D01*
X11208643Y2659752D01*
X11196437Y2660242D01*
X11186507Y2661007D01*
X11185635Y2661112D01*
X11177566Y2662126D01*
X11164727Y2663703D01*
X11152960Y2665132D01*
X11140154Y2667190D01*
X11131210Y2669605D01*
X11128205Y2671646D01*
X11124991Y2674228D01*
X11121274Y2674332D01*
X11111907Y2674199D01*
X11099754Y2675294D01*
X11087028Y2677228D01*
X11075943Y2679610D01*
X11068712Y2682053D01*
X11067218Y2683839D01*
X11066883Y2685166D01*
X12641194Y2685166D01*
X12643175Y2683186D01*
X12645155Y2685166D01*
X12643175Y2687146D01*
X12641194Y2685166D01*
X11066883Y2685166D01*
X11066460Y2686839D01*
X11064241Y2686942D01*
X11052821Y2686258D01*
X11042692Y2687070D01*
X11036193Y2689029D01*
X11035227Y2691266D01*
X11034330Y2693714D01*
X11027764Y2692873D01*
X11018264Y2692082D01*
X11012649Y2693517D01*
X11003972Y2696802D01*
X11001532Y2697184D01*
X10985664Y2699062D01*
X10971826Y2701641D01*
X10961934Y2704478D01*
X10957908Y2707129D01*
X10957895Y2707268D01*
X10954656Y2709255D01*
X10947993Y2708576D01*
X10940077Y2708104D01*
X10938091Y2710730D01*
X10934887Y2714311D01*
X10931160Y2714664D01*
X10919037Y2714151D01*
X10909313Y2714986D01*
X10904171Y2716884D01*
X10904028Y2718189D01*
X10901840Y2720347D01*
X10893916Y2721861D01*
X10889604Y2722153D01*
X10878323Y2723452D01*
X10870391Y2725900D01*
X10869172Y2726756D01*
X10864691Y2728734D01*
X10870759Y2728734D01*
X10872740Y2726753D01*
X10874720Y2728734D01*
X10872740Y2730714D01*
X10870759Y2728734D01*
X10864691Y2728734D01*
X10862562Y2729674D01*
X10853891Y2730714D01*
X10846430Y2731586D01*
X10844385Y2733682D01*
X10844386Y2733685D01*
X10842085Y2735577D01*
X10834129Y2736727D01*
X10830488Y2736858D01*
X10819826Y2737858D01*
X10812881Y2740093D01*
X10812069Y2740818D01*
X10806500Y2744557D01*
X10805408Y2744716D01*
X10794393Y2745765D01*
X10781509Y2747898D01*
X10769353Y2750565D01*
X10760523Y2753214D01*
X10757650Y2754849D01*
X10752386Y2757624D01*
X10745763Y2758439D01*
X10738431Y2759696D01*
X10736095Y2762029D01*
X10732941Y2764066D01*
X10728174Y2763547D01*
X10721866Y2763479D01*
X10720252Y2765459D01*
X10717145Y2769038D01*
X10715302Y2769257D01*
X10703200Y2769518D01*
X10695543Y2771089D01*
X10693983Y2773433D01*
X10692865Y2775884D01*
X10691119Y2776262D01*
X12910522Y2776262D01*
X12912503Y2774282D01*
X12914483Y2776262D01*
X12912503Y2778243D01*
X12910522Y2776262D01*
X10691119Y2776262D01*
X10685372Y2777506D01*
X10671648Y2778440D01*
X10666855Y2780310D01*
X10666931Y2782443D01*
X10665724Y2785629D01*
X10662066Y2786458D01*
X10647104Y2788371D01*
X10627999Y2792596D01*
X10607888Y2798321D01*
X10589908Y2804737D01*
X10587569Y2805717D01*
X10579768Y2808408D01*
X10567077Y2812131D01*
X10552945Y2815897D01*
X10540065Y2819658D01*
X10531225Y2823198D01*
X10528201Y2825795D01*
X10528262Y2825939D01*
X10526372Y2828139D01*
X10519002Y2828885D01*
X10518856Y2828881D01*
X10508891Y2829998D01*
X10495662Y2833200D01*
X10481788Y2837631D01*
X10469890Y2842433D01*
X10462588Y2846749D01*
X10461877Y2847522D01*
X10459207Y2849145D01*
X10458907Y2848060D01*
X10456439Y2847289D01*
X10452905Y2849535D01*
X10448124Y2852174D01*
X10446964Y2851209D01*
X10444796Y2850646D01*
X10442211Y2852704D01*
X10434662Y2856504D01*
X10428115Y2857457D01*
X10421896Y2858803D01*
X10421203Y2861391D01*
X10419927Y2864152D01*
X10414506Y2864606D01*
X10403521Y2865936D01*
X10385865Y2871073D01*
X10361773Y2879946D01*
X10355163Y2882581D01*
X10348140Y2886438D01*
X10346257Y2889613D01*
X10344608Y2891045D01*
X10340621Y2890446D01*
X10331732Y2891321D01*
X10327743Y2893786D01*
X10319097Y2898943D01*
X10314280Y2900346D01*
X10304753Y2904224D01*
X10300418Y2907519D01*
X10297940Y2910926D01*
X10300418Y2910926D01*
X10302398Y2908946D01*
X10304378Y2910926D01*
X10302398Y2912907D01*
X10300418Y2910926D01*
X10297940Y2910926D01*
X10296793Y2912504D01*
X10299214Y2916832D01*
X10302398Y2919410D01*
X10310023Y2924322D01*
X10322007Y2931130D01*
X10334084Y2937497D01*
X10349846Y2946012D01*
X10368151Y2956644D01*
X10384706Y2966882D01*
X10397465Y2974942D01*
X10407552Y2981003D01*
X10413235Y2984034D01*
X10413800Y2984199D01*
X10418262Y2986262D01*
X10426031Y2991262D01*
X10426549Y2991626D01*
X10434833Y2996883D01*
X10447800Y3004458D01*
X10463114Y3012998D01*
X10468748Y3016046D01*
X10484818Y3025145D01*
X10499774Y3034443D01*
X10511040Y3042315D01*
X10513416Y3044241D01*
X10515272Y3045590D01*
X10518257Y3045590D01*
X10520237Y3043610D01*
X10522217Y3045590D01*
X10520237Y3047571D01*
X10518257Y3045590D01*
X10515272Y3045590D01*
X10531651Y3057496D01*
X10550394Y3066839D01*
X10567311Y3071165D01*
X10570730Y3071335D01*
X10580110Y3070302D01*
X10591998Y3067653D01*
X10604298Y3064062D01*
X10614912Y3060202D01*
X10621743Y3056746D01*
X10622945Y3054562D01*
X10623859Y3052680D01*
X10625922Y3052551D01*
X10637995Y3052125D01*
X10643181Y3049613D01*
X10642820Y3047248D01*
X10643497Y3044098D01*
X10647537Y3043896D01*
X10653169Y3044027D01*
X10659965Y3042583D01*
X10669829Y3038967D01*
X10684667Y3032584D01*
X10687140Y3031484D01*
X10700102Y3026293D01*
X10712183Y3022368D01*
X10714865Y3021703D01*
X10726212Y3018727D01*
X10734115Y3016071D01*
X10741738Y3013673D01*
X10754505Y3010274D01*
X10769820Y3006560D01*
X10771742Y3006118D01*
X10793825Y3000534D01*
X10816328Y2993626D01*
X10842087Y2984495D01*
X10852936Y2980401D01*
X10881580Y2971041D01*
X10914327Y2962805D01*
X10940838Y2956678D01*
X10960346Y2951801D01*
X10973633Y2947963D01*
X10981482Y2944957D01*
X10982012Y2944687D01*
X10989299Y2942368D01*
X11001355Y2939939D01*
X11010779Y2938553D01*
X11023369Y2936456D01*
X11032438Y2933969D01*
X11035415Y2932247D01*
X11040534Y2929751D01*
X11049451Y2928749D01*
X11063185Y2927558D01*
X11079582Y2924509D01*
X11095133Y2920391D01*
X11106329Y2915994D01*
X11106421Y2915943D01*
X11114672Y2912693D01*
X11129098Y2908727D01*
X11150182Y2903931D01*
X11178408Y2898190D01*
X11193557Y2895269D01*
X11207124Y2892580D01*
X11217004Y2890415D01*
X11221243Y2889206D01*
X11221282Y2889154D01*
X11224962Y2888250D01*
X11235059Y2886392D01*
X11250156Y2883810D01*
X11268839Y2880735D01*
X11289692Y2877398D01*
X11311298Y2874030D01*
X11332243Y2870861D01*
X11344064Y2869129D01*
X11358841Y2866653D01*
X11371011Y2863996D01*
X11377958Y2861731D01*
X11377986Y2861716D01*
X11384472Y2859954D01*
X11396779Y2858034D01*
X11412819Y2856251D01*
X11422489Y2855434D01*
X11438509Y2853887D01*
X11450777Y2852035D01*
X11457716Y2850155D01*
X11458635Y2849068D01*
X11457454Y2845548D01*
X11457700Y2845370D01*
X11467283Y2844085D01*
X11483357Y2842284D01*
X11504519Y2840097D01*
X11529366Y2837654D01*
X11556493Y2835087D01*
X11584498Y2832526D01*
X11611977Y2830101D01*
X11637525Y2827944D01*
X11659741Y2826184D01*
X11676763Y2824982D01*
X11699043Y2823383D01*
X11718472Y2821646D01*
X11733710Y2819918D01*
X11743418Y2818346D01*
X11746287Y2817328D01*
X11750538Y2816739D01*
X11762008Y2816227D01*
X11779994Y2815798D01*
X11803794Y2815460D01*
X11832706Y2815218D01*
X11866028Y2815077D01*
X11903056Y2815045D01*
X11943089Y2815127D01*
X11979969Y2815297D01*
X12035925Y2815680D01*
X12084775Y2816163D01*
X12127332Y2816786D01*
X12164410Y2817589D01*
X12196824Y2818612D01*
X12225388Y2819894D01*
X12250915Y2821476D01*
X12274222Y2823396D01*
X12296120Y2825695D01*
X12312237Y2827751D01*
X13013501Y2827751D01*
X13015481Y2825771D01*
X13017461Y2827751D01*
X13015481Y2829732D01*
X13013501Y2827751D01*
X12312237Y2827751D01*
X12317426Y2828413D01*
X12338952Y2831589D01*
X12350083Y2833366D01*
X12364884Y2835642D01*
X12384258Y2838432D01*
X12404919Y2841270D01*
X12413454Y2842398D01*
X12430572Y2844816D01*
X12444819Y2847180D01*
X12454308Y2849158D01*
X12457022Y2850075D01*
X12462787Y2851791D01*
X12473927Y2853784D01*
X12486727Y2855467D01*
X12500638Y2857439D01*
X12511519Y2859750D01*
X12516655Y2861706D01*
X12523037Y2864109D01*
X12533739Y2865920D01*
X12537065Y2866216D01*
X12546779Y2867369D01*
X12551800Y2868901D01*
X12551995Y2869466D01*
X12555072Y2870967D01*
X12564408Y2873369D01*
X12578442Y2876305D01*
X12590995Y2878617D01*
X12609052Y2881934D01*
X12625096Y2885174D01*
X12636918Y2887873D01*
X12641194Y2889087D01*
X12653998Y2893287D01*
X12669397Y2898008D01*
X12685318Y2902656D01*
X12699688Y2906639D01*
X12710434Y2909365D01*
X12715283Y2910255D01*
X12718628Y2911979D01*
X12718334Y2913059D01*
X12720632Y2915778D01*
X12727974Y2919779D01*
X12737837Y2923990D01*
X12747701Y2927337D01*
X12755046Y2928748D01*
X12755192Y2928749D01*
X12760697Y2930297D01*
X12771557Y2934456D01*
X12785942Y2940502D01*
X12795189Y2944592D01*
X12810632Y2951383D01*
X12823452Y2956719D01*
X12831885Y2959880D01*
X12834091Y2960435D01*
X12838825Y2962341D01*
X12848907Y2967512D01*
X12862898Y2975125D01*
X12879359Y2984359D01*
X12896852Y2994393D01*
X12913939Y3004404D01*
X12929181Y3013571D01*
X12941138Y3021073D01*
X12946169Y3024453D01*
X12956902Y3033003D01*
X12971145Y3045694D01*
X12987386Y3061030D01*
X13004114Y3077513D01*
X13019818Y3093648D01*
X13032988Y3107937D01*
X13042111Y3118884D01*
X13043636Y3121001D01*
X13050019Y3131488D01*
X13058328Y3146717D01*
X13067234Y3164206D01*
X13071911Y3173896D01*
X13089472Y3211105D01*
X13087357Y3268953D01*
X13086443Y3293543D01*
X13085676Y3311322D01*
X13084908Y3323393D01*
X13083989Y3330863D01*
X13082768Y3334834D01*
X13081098Y3336413D01*
X13078828Y3336702D01*
X13078192Y3336702D01*
X13073539Y3339894D01*
X13072911Y3342742D01*
X13071209Y3348998D01*
X13066704Y3360077D01*
X13060297Y3373800D01*
X13058895Y3376614D01*
X13048775Y3393225D01*
X13034185Y3412697D01*
X13016742Y3433256D01*
X12998066Y3453126D01*
X12979772Y3470530D01*
X12963479Y3483694D01*
X12958130Y3487226D01*
X12944241Y3496231D01*
X12930158Y3506234D01*
X12927155Y3508525D01*
X12918729Y3514124D01*
X12905663Y3521704D01*
X12889587Y3530437D01*
X12872133Y3539497D01*
X12854932Y3548054D01*
X12839616Y3555281D01*
X12827814Y3560350D01*
X12821160Y3562433D01*
X12820901Y3562446D01*
X12814771Y3565208D01*
X12811827Y3568015D01*
X12804621Y3573097D01*
X12796490Y3576121D01*
X12786770Y3578962D01*
X12773287Y3583528D01*
X12763976Y3586941D01*
X12747216Y3593272D01*
X12735297Y3597650D01*
X12725661Y3600955D01*
X12715753Y3604067D01*
X12704566Y3607410D01*
X12676877Y3615373D01*
X12652706Y3621855D01*
X12633468Y3626491D01*
X12622344Y3628662D01*
X12612840Y3631023D01*
X12607383Y3634014D01*
X12607258Y3634193D01*
X12601996Y3636986D01*
X12596073Y3637716D01*
X12587696Y3638904D01*
X12584114Y3640686D01*
X12578228Y3643127D01*
X12575995Y3643657D01*
X12954090Y3643657D01*
X12956070Y3641676D01*
X12958051Y3643657D01*
X12956070Y3645637D01*
X12954090Y3643657D01*
X12575995Y3643657D01*
X12565089Y3646245D01*
X12545326Y3649928D01*
X12519567Y3654060D01*
X12488441Y3658529D01*
X12476825Y3660095D01*
X12458247Y3662835D01*
X12442651Y3665651D01*
X12431659Y3668214D01*
X12426890Y3670197D01*
X12426873Y3670221D01*
X12422003Y3673351D01*
X12420932Y3673295D01*
X12414237Y3672965D01*
X12402676Y3673385D01*
X12388172Y3674374D01*
X12372650Y3675750D01*
X12358034Y3677329D01*
X12346250Y3678931D01*
X12339220Y3680374D01*
X12338104Y3681128D01*
X12335394Y3682642D01*
X12326522Y3683933D01*
X12313248Y3684768D01*
X12309591Y3684876D01*
X12294495Y3685630D01*
X12282375Y3686979D01*
X12275511Y3688655D01*
X12275032Y3688952D01*
X12269975Y3690098D01*
X12258242Y3691362D01*
X12241079Y3692654D01*
X12219728Y3693884D01*
X12195435Y3694960D01*
X12188747Y3695206D01*
X12164242Y3696228D01*
X12142897Y3697431D01*
X12125823Y3698726D01*
X12114126Y3700025D01*
X12108915Y3701241D01*
X12108777Y3701568D01*
X12105503Y3702426D01*
X12095117Y3703198D01*
X12078427Y3703864D01*
X12056242Y3704402D01*
X12029372Y3704791D01*
X11998624Y3705008D01*
X11977776Y3705048D01*
X11944616Y3704947D01*
X11915015Y3704661D01*
X11889752Y3704209D01*
X11869608Y3703612D01*
X11855365Y3702892D01*
X11847803Y3702069D01*
X11846790Y3701545D01*
X11843708Y3700336D01*
X11833798Y3699019D01*
X11818154Y3697683D01*
X11797867Y3696419D01*
X11774029Y3695316D01*
X11768800Y3695118D01*
X11743867Y3694063D01*
X11721199Y3692830D01*
X11702156Y3691515D01*
X11688093Y3690213D01*
X11680370Y3689021D01*
X11679803Y3688843D01*
X11671925Y3687222D01*
X11658539Y3685786D01*
X11642057Y3684770D01*
X11635521Y3684544D01*
X11620110Y3683858D01*
X11608468Y3682812D01*
X11602259Y3681583D01*
X11601707Y3680964D01*
X11598688Y3679694D01*
X11589259Y3678232D01*
X11574926Y3676766D01*
X11558854Y3675586D01*
X11539332Y3674167D01*
X11521358Y3672478D01*
X11507237Y3670757D01*
X11500511Y3669575D01*
X11491650Y3668103D01*
X11476710Y3666273D01*
X11457512Y3664283D01*
X11435879Y3662332D01*
X11427238Y3661628D01*
X11405970Y3659779D01*
X11387227Y3657824D01*
X11372565Y3655951D01*
X11363543Y3654347D01*
X11361729Y3653758D01*
X11355262Y3652069D01*
X11343001Y3650195D01*
X11327059Y3648430D01*
X11318161Y3647665D01*
X11301452Y3646072D01*
X11287639Y3644203D01*
X11278700Y3642351D01*
X11276609Y3641473D01*
X11270549Y3639426D01*
X11259540Y3637801D01*
X11251855Y3637243D01*
X11240273Y3636221D01*
X11232772Y3634613D01*
X11231183Y3633446D01*
X11227661Y3631299D01*
X11218802Y3629271D01*
X11214350Y3628657D01*
X11186511Y3625323D01*
X11159766Y3621870D01*
X11135364Y3618484D01*
X11114552Y3615346D01*
X11098579Y3612641D01*
X11088692Y3610552D01*
X11086618Y3609887D01*
X11078882Y3607868D01*
X11065922Y3605748D01*
X11050416Y3603959D01*
X11048991Y3603829D01*
X11034115Y3602164D01*
X11022251Y3600204D01*
X11015687Y3598337D01*
X11015325Y3598109D01*
X11009675Y3596258D01*
X10998411Y3594215D01*
X10983821Y3592383D01*
X10981659Y3592167D01*
X10966788Y3590417D01*
X10954925Y3588434D01*
X10948358Y3586611D01*
X10947993Y3586392D01*
X10942609Y3584753D01*
X10931181Y3582620D01*
X10915545Y3580304D01*
X10902445Y3578667D01*
X10878235Y3575779D01*
X10860935Y3573458D01*
X10849574Y3571512D01*
X10843176Y3569747D01*
X10840768Y3567972D01*
X10841006Y3566501D01*
X10838263Y3564887D01*
X10829922Y3562926D01*
X10818274Y3560947D01*
X10805612Y3559281D01*
X10794229Y3558259D01*
X10786419Y3558211D01*
X10785097Y3558442D01*
X10780822Y3556493D01*
X10780106Y3555588D01*
X10774897Y3552961D01*
X10763524Y3549895D01*
X10747710Y3546712D01*
X10729177Y3543731D01*
X10709646Y3541272D01*
X10696488Y3540047D01*
X10682646Y3538493D01*
X10671926Y3536399D01*
X10666981Y3534417D01*
X10660486Y3531692D01*
X10652362Y3530777D01*
X10643629Y3529630D01*
X10639347Y3527283D01*
X10634586Y3525134D01*
X10624181Y3522859D01*
X10610398Y3520952D01*
X10596261Y3519086D01*
X10585178Y3516947D01*
X10579647Y3515044D01*
X10573647Y3512755D01*
X10562790Y3510359D01*
X10555883Y3509267D01*
X10542887Y3507284D01*
X10532376Y3505321D01*
X10529148Y3504539D01*
X10523587Y3505061D01*
X10522217Y3510706D01*
X10524847Y3517470D01*
X10530372Y3518894D01*
X10536001Y3520211D01*
X10536433Y3522283D01*
X10538113Y3524112D01*
X10544710Y3523689D01*
X10551496Y3523351D01*
X10552897Y3525251D01*
X10554689Y3527966D01*
X10562037Y3529614D01*
X10562315Y3529635D01*
X10574170Y3532409D01*
X10582614Y3536566D01*
X10592767Y3541305D01*
X10600386Y3542659D01*
X10611481Y3544437D01*
X10617328Y3546619D01*
X10627485Y3551705D01*
X10632573Y3554234D01*
X10640245Y3556875D01*
X10652795Y3560073D01*
X10665248Y3562691D01*
X10678897Y3565676D01*
X10689467Y3568711D01*
X10694310Y3570919D01*
X10701026Y3573690D01*
X10706948Y3574344D01*
X10714885Y3575739D01*
X10715748Y3576325D01*
X10720252Y3576325D01*
X10722233Y3574344D01*
X10724213Y3576325D01*
X10722233Y3578305D01*
X10720252Y3576325D01*
X10715748Y3576325D01*
X10717990Y3577848D01*
X10722885Y3580446D01*
X10732863Y3583075D01*
X10739017Y3584160D01*
X10751164Y3586589D01*
X10756192Y3588207D01*
X10763820Y3588207D01*
X10765801Y3586226D01*
X10767781Y3588207D01*
X10942052Y3588207D01*
X10944032Y3586226D01*
X10946013Y3588207D01*
X10944032Y3590187D01*
X10942052Y3588207D01*
X10767781Y3588207D01*
X10765801Y3590187D01*
X10763820Y3588207D01*
X10756192Y3588207D01*
X10760250Y3589513D01*
X10762540Y3590802D01*
X10769268Y3593307D01*
X10780163Y3594748D01*
X10783279Y3594858D01*
X10792790Y3595637D01*
X10797454Y3597327D01*
X10797501Y3598084D01*
X10800251Y3600107D01*
X10809174Y3603001D01*
X10822638Y3606281D01*
X10830231Y3607849D01*
X10846627Y3611302D01*
X10849379Y3611971D01*
X11080677Y3611971D01*
X11082657Y3609991D01*
X11084637Y3611971D01*
X11082657Y3613951D01*
X11080677Y3611971D01*
X10849379Y3611971D01*
X10860585Y3614695D01*
X10869856Y3617463D01*
X10871696Y3618241D01*
X10881343Y3621403D01*
X10885756Y3621873D01*
X10893471Y3623853D01*
X10898484Y3623853D01*
X10900465Y3621873D01*
X10902445Y3623853D01*
X10900465Y3625833D01*
X10898484Y3623853D01*
X10893471Y3623853D01*
X10894204Y3624041D01*
X10897141Y3626074D01*
X10903524Y3628787D01*
X10914242Y3630365D01*
X10917682Y3630501D01*
X10927215Y3631372D01*
X10931854Y3633296D01*
X10931862Y3634221D01*
X10933834Y3636495D01*
X10941450Y3637671D01*
X10943650Y3637716D01*
X10955531Y3639106D01*
X10970390Y3642652D01*
X10978540Y3645281D01*
X10998081Y3651210D01*
X11018569Y3655578D01*
X11037055Y3657856D01*
X11048446Y3657816D01*
X11054759Y3658380D01*
X11055373Y3660766D01*
X11057450Y3663524D01*
X11065931Y3666167D01*
X11073742Y3667505D01*
X11087043Y3669812D01*
X11097894Y3672582D01*
X11101637Y3674046D01*
X11109722Y3676358D01*
X11122022Y3677917D01*
X11128190Y3678222D01*
X11138940Y3679020D01*
X11145125Y3680573D01*
X11145770Y3681701D01*
X11147833Y3684069D01*
X11155181Y3686210D01*
X11165180Y3687757D01*
X11175196Y3688343D01*
X11182595Y3687601D01*
X11183986Y3687020D01*
X11186984Y3686275D01*
X11186014Y3688593D01*
X11186976Y3691750D01*
X11195096Y3693378D01*
X11200254Y3693635D01*
X11211548Y3693793D01*
X11219373Y3693629D01*
X11220708Y3693496D01*
X11226360Y3695202D01*
X11229345Y3697244D01*
X11236952Y3700520D01*
X11246615Y3701943D01*
X11254407Y3703004D01*
X11256878Y3705108D01*
X11256805Y3705246D01*
X11259469Y3706964D01*
X11267957Y3708893D01*
X11280187Y3710774D01*
X11294076Y3712347D01*
X11307543Y3713355D01*
X11318503Y3713537D01*
X11321734Y3713319D01*
X11328098Y3713846D01*
X11328612Y3716296D01*
X11330754Y3718720D01*
X11338398Y3721156D01*
X11349135Y3723210D01*
X11360555Y3724486D01*
X11370251Y3724586D01*
X11374483Y3723836D01*
X11381468Y3724185D01*
X11390891Y3727626D01*
X11406212Y3731365D01*
X11414160Y3730620D01*
X11422231Y3729700D01*
X11423975Y3731633D01*
X11423881Y3731796D01*
X11426222Y3734037D01*
X11434690Y3736311D01*
X11447499Y3738350D01*
X11462859Y3739887D01*
X11478984Y3740654D01*
X11483269Y3740694D01*
X11492200Y3741606D01*
X11496485Y3743838D01*
X11496551Y3744184D01*
X11500161Y3745654D01*
X11509623Y3747407D01*
X11522884Y3749220D01*
X11537891Y3750871D01*
X11552589Y3752134D01*
X11564926Y3752788D01*
X11572849Y3752609D01*
X11573342Y3752533D01*
X11578458Y3754708D01*
X11579283Y3755771D01*
X11584205Y3757898D01*
X11595251Y3760105D01*
X11610629Y3762185D01*
X11628549Y3763929D01*
X11647217Y3765129D01*
X11663756Y3765576D01*
X11674182Y3766244D01*
X11679941Y3767864D01*
X11680355Y3769014D01*
X11682893Y3770717D01*
X11691812Y3772002D01*
X11705583Y3772785D01*
X11722672Y3772985D01*
X11741548Y3772518D01*
X11743545Y3772429D01*
X11753529Y3772707D01*
X11756497Y3774981D01*
X11755962Y3776364D01*
X11756557Y3778876D01*
X11762992Y3779977D01*
X11776196Y3779802D01*
X11778920Y3779669D01*
X11791697Y3779397D01*
X11800315Y3779983D01*
X11802906Y3781291D01*
X11805929Y3782369D01*
X11815501Y3783272D01*
X11830251Y3783922D01*
X11848805Y3784242D01*
X11854994Y3784262D01*
X11874411Y3784490D01*
X11890418Y3785118D01*
X11901650Y3786056D01*
X11906743Y3787218D01*
X11906865Y3787605D01*
X11909801Y3789063D01*
X11920035Y3790440D01*
X11936948Y3791717D01*
X11959916Y3792872D01*
X11988319Y3793884D01*
X12021535Y3794734D01*
X12058942Y3795401D01*
X12099919Y3795864D01*
X12143843Y3796103D01*
X12164920Y3796132D01*
X12203188Y3796010D01*
G37*
D13*
%TO.C,D2*%
X11267500Y14020000D02*
X11267500Y14420000D01*
%TO.C,D1*%
X11267500Y4870000D02*
X11267500Y5270000D01*
%TD*%
M02*
