%TF.GenerationSoftware,KiCad,Pcbnew,10.0.1*%
%TF.CreationDate,2026-05-08T14:46:53+05:30*%
%TF.ProjectId,X-Vision-HW,582d5669-7369-46f6-9e2d-48572e6b6963,rev?*%
%TF.SameCoordinates,PXd1d0ac3PY5111b03*%
%TF.FileFunction,Soldermask,Top*%
%TF.FilePolarity,Negative*%
%FSLAX45Y45*%
G04 Gerber Fmt 4.5, Leading zero omitted, Abs format (unit mm)*
G04 Created by KiCad (PCBNEW 10.0.1) date 2026-05-08 14:46:53*
%MOMM*%
%LPD*%
G01*
G04 APERTURE LIST*
G04 Aperture macros list*
%AMRoundRect*
0 Rectangle with rounded corners*
0 $1 Rounding radius*
0 $2 $3 $4 $5 $6 $7 $8 $9 X,Y pos of 4 corners*
0 Add a 4 corners polygon primitive as box body*
4,1,4,$2,$3,$4,$5,$6,$7,$8,$9,$2,$3,0*
0 Add four circle primitives for the rounded corners*
1,1,$1+$1,$2,$3*
1,1,$1+$1,$4,$5*
1,1,$1+$1,$6,$7*
1,1,$1+$1,$8,$9*
0 Add four rect primitives between the rounded corners*
20,1,$1+$1,$2,$3,$4,$5,0*
20,1,$1+$1,$4,$5,$6,$7,0*
20,1,$1+$1,$6,$7,$8,$9,0*
20,1,$1+$1,$8,$9,$2,$3,0*%
G04 Aperture macros list end*
%ADD10C,1.250000*%
%ADD11C,0.991000*%
%ADD12RoundRect,0.054134X-0.220866X0.220866X-0.220866X-0.220866X0.220866X-0.220866X0.220866X0.220866X0*%
%ADD13RoundRect,0.037000X-0.323000X-0.148000X0.323000X-0.148000X0.323000X0.148000X-0.323000X0.148000X0*%
%ADD14RoundRect,0.037000X-0.148000X-0.323000X0.148000X-0.323000X0.148000X0.323000X-0.148000X0.323000X0*%
%ADD15RoundRect,0.038400X-1.171600X-0.921600X1.171600X-0.921600X1.171600X0.921600X-1.171600X0.921600X0*%
%ADD16C,1.400000*%
%ADD17C,2.050000*%
%ADD18RoundRect,0.156000X0.234000X0.359000X-0.234000X0.359000X-0.234000X-0.359000X0.234000X-0.359000X0*%
%ADD19RoundRect,0.275000X0.425000X-0.275000X0.425000X0.275000X-0.425000X0.275000X-0.425000X-0.275000X0*%
G04 APERTURE END LIST*
D10*
X-711Y1900711D02*
X-711Y100711D01*
X-711Y1900711D02*
G75*
G02*
X99289Y2000711I100000J0D01*
G01*
X99289Y711D02*
G75*
G02*
X-711Y100711I0J100000D01*
G01*
X99289Y711D02*
X1899289Y711D01*
X1899289Y2000711D02*
X99289Y2000711D01*
X1899289Y2000711D02*
G75*
G02*
X1999289Y1900711I0J-100000D01*
G01*
X1999289Y100711D02*
G75*
G02*
X1899289Y711I-100000J0D01*
G01*
X1999289Y100711D02*
X1999289Y1900711D01*
D11*
%TO.C,J1*%
X1815289Y1618711D03*
X1053289Y1720211D03*
X1815289Y1821711D03*
X1180289Y1656711D03*
X1307289Y1656711D03*
X1434289Y1656711D03*
X1561289Y1656711D03*
X1688289Y1656711D03*
X1688289Y1783711D03*
X1561289Y1783711D03*
X1434289Y1783711D03*
X1307289Y1783711D03*
X1180289Y1783711D03*
%TD*%
D12*
%TO.C,U3*%
X1571289Y842705D03*
X1571289Y922705D03*
X1571289Y1002705D03*
X1571289Y1082705D03*
X1571289Y1162705D03*
X1651287Y1162700D03*
X1731284Y1162705D03*
X1731284Y1082705D03*
X1731284Y1002705D03*
X1731284Y922705D03*
X1731284Y842705D03*
X1651287Y842711D03*
%TD*%
D13*
%TO.C,U4*%
X760539Y1159711D03*
X760539Y1094711D03*
X760539Y1029711D03*
X760539Y964711D03*
X760539Y899711D03*
X760539Y834711D03*
X760539Y769711D03*
D14*
X830539Y699711D03*
X895539Y699711D03*
X960539Y699711D03*
X1025539Y699711D03*
X1090539Y699711D03*
X1155539Y699711D03*
X1220539Y699711D03*
D13*
X1290539Y769711D03*
X1290539Y834711D03*
X1290539Y899711D03*
X1290539Y964711D03*
X1290539Y1029711D03*
X1290539Y1094711D03*
X1290539Y1159711D03*
D14*
X1220539Y1229711D03*
X1155539Y1229711D03*
X1090539Y1229711D03*
X1025539Y1229711D03*
X960539Y1229711D03*
X895539Y1229711D03*
X830539Y1229711D03*
D15*
X1025539Y964711D03*
%TD*%
D16*
%TO.C,H3*%
X1519289Y480711D03*
%TD*%
D17*
%TO.C,REF\u002A\u002A*%
X1700000Y300000D03*
%TD*%
D18*
%TO.C,D2*%
X1076289Y1422711D03*
X926289Y1422711D03*
%TD*%
%TO.C,D1*%
X1076289Y507711D03*
X926289Y507711D03*
%TD*%
D17*
%TO.C,REF\u002A\u002A*%
X300000Y1700000D03*
%TD*%
D16*
%TO.C,H4*%
X461289Y1542711D03*
%TD*%
D19*
%TO.C,CON1*%
X437539Y227711D03*
X437539Y352711D03*
X437539Y477711D03*
X437539Y602711D03*
%TD*%
M02*
